<?xml version="1.0" encoding="iso-8859-1"?>
<!-- Generator: Adobe Illustrator 19.0.0, SVG Export Plug-In . SVG Version: 6.00 Build 0)  -->
<svg xmlns="http://www.w3.org/2000/svg" xmlns:xlink="http://www.w3.org/1999/xlink" version="1.1" id="Capa_1" x="0px" y="0px" viewBox="0 0 512 512" style="enable-background:new 0 0 512 512;" xml:space="preserve">
<path style="fill:#5C5E70;" d="M512,256c0,3.009-0.052,5.998-0.157,8.976c-0.637,18.578-3.26,36.645-7.659,54.011  c-2.717,10.783-6.134,21.285-10.177,31.472v0.01c-1.787,4.504-3.699,8.923-5.726,13.291v0.01  c-6.76,14.545-14.848,28.338-24.106,41.242C417.729,469.797,341.786,512,256,512c-54.69,0-105.357-17.147-146.944-46.352  c-31.848-22.361-58.368-51.796-77.27-86.016C11.525,342.977,0,300.837,0,256c0-61.398,21.619-117.76,57.668-161.865  C104.605,36.676,176.013,0,256,0c79.976,0,151.395,36.676,198.343,94.135c30.992,37.93,51.315,84.908,56.404,136.359  C511.572,238.885,512,247.39,512,256z"/>
<g>
	<path style="fill:#FCF8F2;" d="M512,256c0,3.009-0.052,5.998-0.157,8.976H399.736v-34.482h111.01   C511.572,238.885,512,247.39,512,256z"/>
	<rect x="205.72" y="230.494" style="fill:#FCF8F2;" width="122.713" height="34.48"/>
</g>
<path style="fill:#797B89;" d="M297.105,132.33L297.105,132.33c0-7.918-6.419-14.337-14.337-14.337H161.952  c-7.918,0-14.337,6.419-14.337,14.337l0,0c0,7.918,6.419,14.337,14.337,14.337h39.08c7.918,0,14.337,6.419,14.337,14.337l0,0  c0,7.918-6.419,14.337-14.337,14.337h-3.984c-7.918,0-14.337,6.419-14.337,14.337l0,0c0,7.918,6.419,14.337,14.337,14.337h115.795  c7.918,0,14.337-6.419,14.337-14.337l0,0c0-7.918,6.419-14.337,14.337-14.337h3.984c7.918,0,14.337-6.419,14.337-14.337l0,0  c0-7.918-6.419-14.337-14.337-14.337h-34.058C303.524,146.667,297.105,140.248,297.105,132.33z"/>
<path style="fill:#4BC999;" d="M454.343,94.135H57.668C104.605,36.676,176.013,0,256,0c6.123,0,12.194,0.219,18.213,0.648  C342.455,5.433,403.32,36.979,446.38,84.856C449.108,87.886,451.762,90.979,454.343,94.135z"/>
<path style="fill:#F9EED7;" d="M333.818,294.045c0,1.069-0.045,2.126-0.135,3.172c-1.609,18.721-17.315,33.415-36.452,33.415  c-19.137,0-34.843-14.693-36.452-33.415c-0.09-1.046-0.135-2.103-0.135-3.172c0-20.206,16.381-36.587,36.587-36.587  C317.437,257.458,333.818,273.838,333.818,294.045z"/>
<path style="fill:#E8DBC4;" d="M333.818,294.045c0,1.069-0.045,2.126-0.135,3.172h-72.905c-0.09-1.046-0.135-2.103-0.135-3.172  c0-20.206,16.381-36.587,36.587-36.587C317.437,257.458,333.818,273.838,333.818,294.045z"/>
<circle style="fill:#797B89;" cx="297.232" cy="294.045" r="15.965"/>
<path style="fill:#F9EED7;" d="M252.314,294.045c0,1.069-0.045,2.126-0.135,3.172c-1.609,18.721-17.315,33.415-36.452,33.415  s-34.843-14.693-36.452-33.415c-0.09-1.046-0.135-2.103-0.135-3.172c0-20.206,16.381-36.587,36.587-36.587  S252.314,273.838,252.314,294.045z"/>
<path style="fill:#E8DBC4;" d="M252.314,294.045c0,1.069-0.045,2.126-0.135,3.172h-72.905c-0.09-1.046-0.135-2.103-0.135-3.172  c0-20.206,16.381-36.587,36.587-36.587S252.314,273.838,252.314,294.045z"/>
<circle style="fill:#797B89;" cx="215.719" cy="294.045" r="15.965"/>
<path style="fill:#F9EED7;" d="M170.808,294.045c0,1.069-0.045,2.126-0.135,3.172c-1.609,18.721-17.315,33.415-36.452,33.415  s-34.843-14.693-36.452-33.415c-0.09-1.046-0.135-2.103-0.135-3.172c0-20.206,16.381-36.587,36.587-36.587  S170.808,273.838,170.808,294.045z"/>
<path style="fill:#E8DBC4;" d="M170.808,294.045c0,1.069-0.045,2.126-0.135,3.172H97.77c-0.09-1.046-0.135-2.103-0.135-3.172  c0-20.206,16.381-36.587,36.587-36.587C154.428,257.458,170.808,273.838,170.808,294.045z"/>
<circle style="fill:#797B89;" cx="134.217" cy="294.045" r="15.965"/>
<path style="fill:#F9EED7;" d="M89.304,294.045c0,1.069-0.045,2.126-0.135,3.172c-1.609,18.721-17.315,33.415-36.452,33.415  s-34.843-14.693-36.452-33.415c-0.09-1.046-0.135-2.103-0.135-3.172c0-20.206,16.381-36.587,36.587-36.587  S89.304,273.838,89.304,294.045z"/>
<path style="fill:#E8DBC4;" d="M89.304,294.045c0,1.069-0.045,2.126-0.135,3.172H16.265c-0.09-1.046-0.135-2.103-0.135-3.172  c0-20.206,16.381-36.587,36.587-36.587S89.304,273.838,89.304,294.045z"/>
<circle style="fill:#797B89;" cx="52.715" cy="294.045" r="15.965"/>
<path style="fill:#FF525D;" d="M324.3,220.184c0,1.609-0.158,3.184-0.461,4.703c-2.183,11.375-12.196,19.97-24.223,19.97H65.31  c-16.145,0-28.768-13.906-27.215-29.972l4.692-48.501l1.418-14.625l2.205-22.771V34.47l32.931-9.35l35.44-10.07  c26.597-7.561,53.036,12.421,53.036,40.063v0.371l0.675,34.81c0.607,4.602,1.598,9.068,2.971,13.377  c1.631,5.119,3.769,10.013,6.368,14.625c0.023,0.056,0.056,0.113,0.09,0.168l23.852,26.012  c11.847,8.179,26.068,13.141,41.413,13.692c0.956,0.033,1.913,0.056,2.88,0.056h16.279c0.484,0,0.968,0,1.451,0.022  c16.527,0.371,31.457,7.234,42.359,18.125c8.989,9.001,15.234,20.757,17.36,33.887C324.03,213.49,324.3,216.809,324.3,220.184z"/>
<path style="fill:#FFD15C;" d="M324.3,220.184c0,1.609-0.158,3.184-0.461,4.703h-190.71l-1.451-5.412  c-5.626-20.858-20.195-37.521-38.883-46.296c-9.327-4.376-19.666-6.795-30.444-6.795H42.786l1.418-14.625h18.148  c8.697,0,17.169,1.305,25.179,3.769c26.169,7.988,47.545,28.16,56.614,54.734h179.369C324.03,213.49,324.3,216.809,324.3,220.184z"/>
<path style="fill:#34ABE0;" d="M69.658,244.866H46.406c-23.758,0-43.016,19.26-43.016,43.016h349.071l0,0  c0-23.758-19.26-43.016-43.016-43.016H69.658z"/>
<rect x="46.404" y="66.173" style="fill:#FFD15C;" width="100.059" height="14.625"/>
<g>
	<path style="fill:#F9EED7;" d="M171.934,90.302h-30.721c-4.342,0-7.862-3.52-7.862-7.862V63.349c0-4.342,3.52-7.862,7.862-7.862   h30.721c4.342,0,7.862,3.52,7.862,7.862v19.092C179.796,86.783,176.276,90.302,171.934,90.302z"/>
	<path style="fill:#F9EED7;" d="M203.137,143.108l-22.059,22.059c-3.07,3.07-8.048,3.07-11.118,0l-13.808-13.808   c-3.07-3.07-3.07-8.048,0-11.118l22.059-22.059c3.07-3.07,8.048-3.07,11.118,0l13.808,13.808   C206.206,135.06,206.206,140.038,203.137,143.108z"/>
</g>
<g>
	<path style="fill:#FFD15C;" d="M177.828,118.299h-56.331c-3.285,13.23-15.256,23.064-29.488,23.064   c-2.723,0-5.378-0.36-7.887-1.035c-10.62-2.858-18.946-11.34-21.601-22.029H46.409v-14.626h22.535c4.039,0,7.313,3.274,7.313,7.313   c0,4.477,1.879,8.527,4.894,11.397c2.824,2.7,6.649,4.354,10.856,4.354c8.685,0,15.751-7.066,15.751-15.751   c0-4.039,3.274-7.313,7.313-7.313h56.388C173.092,108.792,175.229,113.686,177.828,118.299z"/>
	<circle style="fill:#FFD15C;" cx="81.324" cy="206.618" r="13.501"/>
</g>
<path style="fill:#EF4152;" d="M151.951,244.857H65.31c-16.145,0-28.768-13.906-27.215-29.972l4.692-48.501l1.418-14.625  l2.205-22.771V34.47l32.931-9.35C79.34,25.121,59.257,206.054,151.951,244.857z"/>
<path style="fill:#FFD15C;" d="M263.794,158.25l-63.296,63.296c-1.428,1.428-3.297,2.138-5.175,2.138  c-1.868,0-3.736-0.708-5.164-2.138c-2.858-2.858-2.858-7.493,0-10.351l0.934-0.934l52.09-52.09c0.956,0.033,1.913,0.056,2.88,0.056  h16.279C262.826,158.227,263.31,158.227,263.794,158.25z"/>
<g>
	<circle style="fill:#FF6E7C;" cx="290.482" cy="189.21" r="12.751"/>
	<circle style="fill:#FF6E7C;" cx="268.069" cy="173.934" r="8.723"/>
</g>
<g>
	<path style="fill:#EDBB4C;" d="M77.754,80.801H46.409V66.174h31.097C77.506,70.788,77.585,75.692,77.754,80.801z"/>
	<path style="fill:#EDBB4C;" d="M62.52,118.299H46.409v-14.626h22.535c4.039,0,7.313,3.274,7.313,7.313   c0,4.477,1.879,8.527,4.894,11.397c0.81,5.94,1.789,11.948,2.971,17.945C73.501,137.47,65.176,128.986,62.52,118.299z"/>
	<path style="fill:#EDBB4C;" d="M92.795,173.179c-9.327-4.376-19.666-6.795-30.444-6.795H42.786l1.418-14.625h18.148   c8.697,0,17.169,1.305,25.179,3.769C89.049,161.502,90.793,167.407,92.795,173.179z"/>
</g>
<g>
	<path style="fill:#78CAEF;" d="M313.914,268.337H200.286c-4.04,0-7.314-3.275-7.314-7.314v-1.122c0-4.04,3.275-7.314,7.314-7.314   h113.628c4.04,0,7.314,3.275,7.314,7.314v1.122C321.229,265.062,317.954,268.337,313.914,268.337z"/>
	<path style="fill:#78CAEF;" d="M68.651,268.337H52.656c-4.04,0-7.314-3.275-7.314-7.314v-1.122c0-4.04,3.275-7.314,7.314-7.314   H68.65c4.04,0,7.314,3.275,7.314,7.314v1.122C75.965,265.062,72.69,268.337,68.651,268.337z"/>
</g>
<g>
	<polygon style="fill:#F4A14E;" points="286.386,314.524 265.512,314.524 225.797,452.189 326.1,452.189  "/>
	<path style="fill:#F4A14E;" d="M332.317,470.285H219.58c-4.123,0-7.466-3.343-7.466-7.466v-3.165c0-4.123,3.343-7.466,7.466-7.466   h112.737c4.123,0,7.466,3.343,7.466,7.466v3.165C339.783,466.942,336.44,470.285,332.317,470.285z"/>
</g>
<g>
	<path style="fill:#E28D40;" d="M247.239,461.237c0-4.997,4.051-9.048,9.048-9.048h-35.124c-4.997,0-9.048,4.051-9.048,9.048   s4.051,9.048,9.048,9.048h35.124C251.29,470.285,247.239,466.234,247.239,461.237z"/>
	<polygon style="fill:#E28D40;" points="265.512,314.524 240.907,461.237 221.162,452.189  "/>
</g>
<path style="fill:#F9AF6B;" d="M307.326,441.504l-2.145,0.55c-2.795,0.716-5.641-0.97-6.357-3.766l-7.668-29.952  c-0.716-2.795,0.97-5.641,3.766-6.357l2.145-0.55c2.795-0.716,5.641,0.97,6.357,3.766l7.668,29.952  C311.807,437.943,310.122,440.789,307.326,441.504z"/>
<g>
	<polygon style="fill:#F4A14E;" points="419.718,79.77 402.495,79.77 369.725,193.36 452.488,193.36  "/>
	<path style="fill:#F4A14E;" d="M456.312,208.292h-90.411c-4.123,0-7.466-3.343-7.466-7.466l0,0c0-4.123,3.343-7.466,7.466-7.466   h90.411c4.123,0,7.466,3.343,7.466,7.466l0,0C463.778,204.95,460.435,208.292,456.312,208.292z"/>
</g>
<g>
	<path style="fill:#E28D40;" d="M387.417,200.826c0-4.123,3.343-7.466,7.466-7.466H365.9c-4.123,0-7.466,3.343-7.466,7.466   s3.343,7.466,7.466,7.466h28.982C390.759,208.292,387.417,204.95,387.417,200.826z"/>
	<polygon style="fill:#E28D40;" points="402.495,79.77 382.192,200.826 365.9,193.36  "/>
</g>
<path style="fill:#F9AF6B;" d="M436.111,184.771L436.111,184.771c-2.795,0.716-5.641-0.97-6.357-3.766l-5.874-22.944  c-0.716-2.795,0.97-5.641,3.766-6.357l0,0c2.795-0.716,5.641,0.97,6.357,3.766l5.874,22.944  C440.593,181.209,438.907,184.056,436.111,184.771z"/>
<path style="fill:#5BD3A2;" d="M446.38,84.856H249.762c-3.96,0-7.544-1.609-10.136-4.2c-2.602-2.591-4.2-6.175-4.2-10.136  c0-7.92,6.416-14.336,14.336-14.336h43.583c3.96,0,7.544-1.609,10.136-4.2c2.591-2.591,4.2-6.186,4.2-10.136  c0-7.92-6.416-14.336-14.336-14.336h-12.163c-3.96,0-7.544-1.609-10.136-4.2c-2.591-2.602-4.201-6.186-4.201-10.146  c0-5.381,2.968-10.073,7.367-12.518C342.455,5.433,403.32,36.979,446.38,84.856z"/>
<g>
	<path style="fill:#797B89;" d="M181.164,422.64c0,7.92-6.416,14.336-14.336,14.336h-3.981c-3.96,0-7.544,1.609-10.146,4.2   c-2.591,2.602-4.201,6.175-4.201,10.136c0,7.92-6.416,14.336-14.336,14.336h-25.109c-31.848-22.361-58.368-51.796-77.27-86.016   h72.307c7.92,0,14.336,6.416,14.336,14.336s6.426,14.336,14.336,14.336h34.064c3.96,0,7.544,1.599,10.136,4.2   C179.555,415.096,181.164,418.68,181.164,422.64z"/>
	<path style="fill:#797B89;" d="M504.184,318.986c-2.717,10.783-6.134,21.285-10.177,31.472v0.01   c-3.542,2.591-5.841,6.792-5.841,11.536c0,0.596,0.031,1.181,0.115,1.755v0.01c-6.76,14.545-14.848,28.338-24.106,41.242h-29.372   c-3.95,0-7.544-1.609-10.136-4.201s-4.2-6.175-4.2-10.135c0-7.92-6.416-14.336-14.336-14.336h-68.504   c-3.96,0-7.544-1.609-10.136-4.2c-2.591-2.591-4.2-6.186-4.2-10.136c0-7.92,6.416-14.336,14.336-14.336h46.205   c3.95,0,7.544-1.609,10.136-4.2c2.591-2.591,4.2-6.186,4.2-10.136c0-7.92,6.416-14.346,14.336-14.346H504.184z"/>
</g>
<g>
</g>
<g>
</g>
<g>
</g>
<g>
</g>
<g>
</g>
<g>
</g>
<g>
</g>
<g>
</g>
<g>
</g>
<g>
</g>
<g>
</g>
<g>
</g>
<g>
</g>
<g>
</g>
<g>
</g>
</svg>
