<?xml version="1.0" encoding="iso-8859-1"?>
<!-- Generator: Adobe Illustrator 19.0.0, SVG Export Plug-In . SVG Version: 6.00 Build 0)  -->
<svg xmlns="http://www.w3.org/2000/svg" xmlns:xlink="http://www.w3.org/1999/xlink" version="1.1" id="Capa_1" x="0px" y="0px" viewBox="0 0 512 512" style="enable-background:new 0 0 512 512;" xml:space="preserve">
<path style="fill:#34ABE0;" d="M512,256c0,36.968-7.837,72.119-21.943,103.852c-4.441,9.989-9.498,19.634-15.13,28.891  c-4.368,7.21-9.101,14.19-14.158,20.898c-2.017,2.706-4.106,5.36-6.238,7.983c-2.299,2.821-4.66,5.601-7.084,8.317  c-10.125,11.41-21.264,21.911-33.27,31.347c-9.759,7.69-20.104,14.681-30.939,20.898c-10.846,6.217-22.183,11.672-33.949,16.279  c-1.693,0.658-3.385,1.306-5.099,1.933c-6.834,2.508-13.803,4.733-20.898,6.656c-15.36,4.18-31.295,6.959-47.647,8.192  C269.155,511.749,262.604,512,256,512c-0.418,0-0.836,0-1.254-0.01c-16.29-0.073-32.214-1.672-47.647-4.65  c-7.074-1.369-14.043-3.03-20.898-4.974c-16.635-4.702-32.58-11.045-47.647-18.84c-14.44-7.461-28.076-16.269-40.751-26.237  c-9.874-7.784-19.174-16.269-27.794-25.391c-12.445-13.134-23.5-27.606-32.946-43.154c-3.197-5.256-6.196-10.627-9.017-16.123  c-5.193-10.136-9.738-20.668-13.563-31.525c-0.711-2.017-1.4-4.054-2.058-6.092c-1.578-4.88-3.02-9.812-4.305-14.806  c-1.849-7.168-3.406-14.461-4.629-21.859c-1.411-8.464-2.403-17.063-2.957-25.788c-0.272-4.221-0.439-8.485-0.502-12.779  C0.01,258.518,0,257.264,0,256c0-1.452,0.01-2.905,0.042-4.347c0.261-16.3,2.058-32.225,5.245-47.647  c1.452-7.074,3.208-14.054,5.245-20.898c4.932-16.656,11.525-32.601,19.581-47.647c3.824-7.178,7.993-14.148,12.487-20.898  c2.09-3.166,4.263-6.29,6.51-9.352c6.426-8.819,13.416-17.199,20.898-25.109c7.523-7.952,15.548-15.423,24.022-22.35  c17.398-14.242,36.707-26.227,57.48-35.527C183.411,7.941,218.781,0,256,0s72.589,7.941,104.49,22.225  c13.918,6.228,27.167,13.657,39.633,22.183c1.4,0.94,2.779,1.912,4.159,2.894c2.863,2.027,5.684,4.127,8.453,6.29  c1.766,1.358,3.511,2.748,5.235,4.159c13.385,10.94,25.642,23.218,36.561,36.624c5.277,6.478,10.24,13.208,14.869,20.187  c3.762,5.642,7.293,11.452,10.595,17.408c3.636,6.552,7.001,13.281,10.062,20.177c11.076,24.931,18.296,51.963,20.877,80.332  C511.634,240.222,512,248.069,512,256z"/>
<g>
	<path style="fill:#78CAEF;" d="M510.934,232.479H298.904c-5.193,0-9.895-2.111-13.302-5.507c-3.396-3.406-5.507-8.108-5.507-13.302   c0-10.386,8.422-18.808,18.808-18.808h57.177c5.193,0,9.895-2.111,13.302-5.507c3.396-3.406,5.507-8.108,5.507-13.302   c0-10.386-8.422-18.808-18.808-18.808h-15.956c-5.193,0-9.895-2.111-13.302-5.507c-3.406-3.406-5.507-8.108-5.507-13.302   c0-10.386,8.422-18.808,18.808-18.808h52.82c5.193,0,9.895-2.111,13.302-5.507c3.396-3.406,5.507-8.108,5.507-13.302   c0-10.386-8.422-18.808-18.808-18.808H276.961c-5.193,0-9.895-2.1-13.302-5.507c-3.396-3.396-5.507-8.098-5.507-13.302   c0-10.386,8.422-18.798,18.808-18.798h123.162c1.4,0.94,2.779,1.912,4.159,2.894c2.863,2.027,5.684,4.127,8.453,6.29   c1.766,1.358,3.511,2.748,5.235,4.159c13.385,10.94,25.642,23.218,36.561,36.624c5.277,6.478,10.24,13.208,14.869,20.187   c3.762,5.642,7.293,11.452,10.595,17.408c3.636,6.552,7.001,13.281,10.062,20.177C501.133,177.079,508.353,204.11,510.934,232.479z   "/>
	<path style="fill:#78CAEF;" d="M69.998,297.388H9.394c-2.058,0-4.054,0.334-5.904,0.951c-1.411-8.464-2.403-17.063-2.957-25.788   c-0.272-4.221-0.439-8.485-0.502-12.779h69.966c5.193,0,9.895,2.111,13.302,5.507c3.406,3.406,5.507,8.108,5.507,13.302   C88.806,288.966,80.384,297.388,69.998,297.388z"/>
	<path style="fill:#78CAEF;" d="M118.063,353.813c0,10.386-8.422,18.808-18.808,18.808h-71.21   c-5.193-10.136-9.738-20.668-13.563-31.525c-0.711-2.017-1.4-4.054-2.058-6.092h86.831c5.193,0,9.895,2.111,13.302,5.507   C115.963,343.918,118.063,348.62,118.063,353.813z"/>
	<path style="fill:#78CAEF;" d="M447.446,425.942c-10.125,11.41-21.264,21.911-33.27,31.347   c-9.759,7.69-20.104,14.681-30.939,20.898c-10.846,6.217-22.183,11.672-33.949,16.279c-2.748-3.271-4.409-7.492-4.409-12.1   c0-10.386-8.422-18.808-18.808-18.808h-29.769c-5.193,0-9.895-2.1-13.302-5.507s-5.507-8.108-5.507-13.302   c0-10.386,8.411-18.808,18.808-18.808H447.446z"/>
</g>
<path style="fill:#FCF8F2;" d="M412.735,114.563v-67.26h-20.898v67.26h-47.647v-67.26h-20.898v67.26h-47.647v-67.26h-20.898v67.26  h-47.647v-67.26h-20.898v67.26h-47.647v-67.26h-20.898v67.26H70.008V80.102c-7.481,7.91-14.472,16.29-20.898,25.109v9.352h-6.51  c-4.493,6.75-8.662,13.72-12.487,20.898H49.11v47.647H10.533c-2.038,6.844-3.793,13.824-5.245,20.898H49.11v47.647H0.042  C0.01,253.095,0,254.548,0,256c0,5.559,0.178,11.086,0.533,16.551H49.11v47.647H8.119c1.829,7.084,3.95,14.054,6.363,20.898H49.11  v47.647H37.063c9.446,15.548,20.501,30.02,32.946,43.154v-22.256h47.647v47.647H97.802c12.675,9.968,26.311,18.777,40.751,26.237  v-5.339h47.647v24.179c6.855,1.943,13.824,3.605,20.898,4.974v-29.153h47.647v33.802C255.164,512,255.582,512,256,512  c6.604,0,13.155-0.251,19.644-0.752v-33.061h47.647v24.869c7.095-1.923,14.064-4.148,20.898-6.656v-18.213h39.048  c10.836-6.217,21.18-13.208,30.939-20.898h-1.442v-47.647h48.034c5.057-6.708,9.791-13.688,14.158-20.898h-62.192v-47.647h67.26  v-20.898h-67.26v-47.647h67.26v-20.898h-67.26v-47.647h67.26v-20.898h-67.26v-47.647h67.26v-20.898L412.735,114.563L412.735,114.563  z M117.656,388.744H70.008v-47.647h47.647V388.744z M117.656,320.199H70.008v-47.647h47.647V320.199z M117.656,251.653H70.008  v-47.647h47.647V251.653z M117.656,183.108H70.008v-47.647h47.647V183.108z M186.201,457.289h-47.647v-47.647h47.647  L186.201,457.289L186.201,457.289z M186.201,388.744h-47.647v-47.647h47.647L186.201,388.744L186.201,388.744z M186.201,320.199  h-47.647v-47.647h47.647L186.201,320.199L186.201,320.199z M186.201,251.653h-47.647v-47.647h47.647L186.201,251.653  L186.201,251.653z M186.201,183.108h-47.647v-47.647h47.647L186.201,183.108L186.201,183.108z M254.746,457.289h-47.647v-47.647  h47.647L254.746,457.289L254.746,457.289z M254.746,388.744h-47.647v-47.647h47.647L254.746,388.744L254.746,388.744z   M254.746,320.199h-47.647v-47.647h47.647L254.746,320.199L254.746,320.199z M254.746,251.653h-47.647v-47.647h47.647  L254.746,251.653L254.746,251.653z M254.746,183.108h-47.647v-47.647h47.647L254.746,183.108L254.746,183.108z M323.291,457.289  h-47.647v-47.647h47.647V457.289z M323.291,388.744h-47.647v-47.647h47.647V388.744z M323.291,320.199h-47.647v-47.647h47.647  V320.199z M323.291,251.653h-47.647v-47.647h47.647V251.653z M323.291,183.108h-47.647v-47.647h47.647V183.108z M391.837,457.289  h-47.647v-47.647h47.647V457.289z M391.837,388.744h-47.647v-47.647h47.647V388.744z M391.837,320.199h-47.647v-47.647h47.647  V320.199z M391.837,251.653h-47.647v-47.647h47.647V251.653z M391.837,183.108h-47.647v-47.647h47.647V183.108z"/>
<path style="fill:#FFD15C;" d="M490.057,68.399v291.453c-9.279,20.877-21.264,40.291-35.527,57.772V68.399  c0-5.872-4.775-10.648-10.648-10.648H94.03c17.398-14.242,36.707-26.227,57.48-35.527h292.373  C469.347,22.225,490.057,42.935,490.057,68.399z"/>
<g>
	<path style="fill:#F9EED7;" d="M404.4,208.443c-3.314-10.185-7.533-20.027-12.563-29.422v4.088h-47.647v-47.647h15.079   c-10.676-10.513-22.735-19.752-35.977-27.42v6.522h-47.647V88.868c-0.005-0.001-0.01-0.003-0.017-0.004   c-6.964-1.708-13.935-2.985-20.881-3.854v29.552h-47.647V85.414c-7.076,1.009-14.052,2.44-20.898,4.264v24.884h-47.647v-4.484   c-11.752,7.173-22.689,15.681-32.561,25.382h11.663v47.647H71.281c-4.089,8.162-7.603,16.722-10.471,25.645   c-1.309,4.07-2.484,8.224-3.518,12.444c-10.414,42.459-4.907,85.048,12.716,121.507v-1.607h47.647v47.647h-15.8   c7.701,8.094,16.183,15.505,25.37,22.104c3.663,2.635,7.445,5.134,11.328,7.5v-8.706h47.647v29.007   c1.135,0.301,2.27,0.601,3.415,0.881c5.831,1.43,11.663,2.555,17.483,3.395v-33.283h47.647v33.782   c0.685-0.085,1.372-0.162,2.056-0.254c6.369-0.858,12.653-2.073,18.842-3.593v-29.934h47.647v10.692   c5.705-3.315,11.239-6.922,16.551-10.844c8.41-6.199,16.292-13.14,23.547-20.746h-19.2v-47.647h47.647v8.308   c6.964-13.047,12.435-27.164,16.122-42.196c0.947-3.859,1.759-7.719,2.446-11.579c1.124-6.317,1.883-12.624,2.329-18.903v-4.176   h0.26c0.335-7.02,0.257-13.995-0.218-20.898h-0.041v-0.682C411.673,236.373,408.839,222.104,404.4,208.443z M117.656,320.199   H70.008v-47.647h47.647V320.199z M117.656,251.653H70.008v-47.647h47.647V251.653z M186.201,388.744h-47.647v-47.647h47.647   L186.201,388.744L186.201,388.744z M186.201,320.199h-47.647v-47.647h47.647L186.201,320.199L186.201,320.199z M186.201,251.653   h-47.647v-47.647h47.647L186.201,251.653L186.201,251.653z M186.201,183.108h-47.647v-47.647h47.647L186.201,183.108   L186.201,183.108z M254.746,388.744h-47.647v-47.647h47.647L254.746,388.744L254.746,388.744z M254.746,320.199h-47.647v-47.647   h47.647L254.746,320.199L254.746,320.199z M254.746,251.653h-47.647v-47.647h47.647L254.746,251.653L254.746,251.653z    M254.746,183.108h-47.647v-47.647h47.647L254.746,183.108L254.746,183.108z M323.291,388.744h-47.647v-47.647h47.647V388.744z    M323.291,320.199h-47.647v-47.647h47.647V320.199z M323.291,251.653h-47.647v-47.647h47.647V251.653z M323.291,183.108h-47.647   v-47.647h47.647V183.108z M391.837,320.199h-47.647v-47.647h47.647V320.199z M391.837,251.653h-47.647v-47.647h47.647V251.653z"/>
	<path style="fill:#F9EED7;" d="M472.435,264.112c-10.477,42.716-35.311,78.1-68.116,102.281   c-24.19,17.854-52.732,29.597-83.04,33.679c-21.798,2.949-44.515,1.923-67.187-3.638c-23.16-5.681-44.168-15.576-62.39-28.682   c-24.477-17.581-43.957-40.928-56.95-67.581c-17.839-36.582-23.452-79.392-12.984-122.069c1.035-4.22,2.21-8.375,3.518-12.445   c9.091-28.279,24.635-52.935,44.571-72.701c33.817-33.543,80.273-53.049,129.32-52.421c13.515,0.167,27.232,1.875,40.927,5.234   c14.828,3.637,28.775,9.005,41.679,15.846c41.917,22.18,72.803,59.819,87.093,103.732c8.894,27.367,11.349,57.173,6.005,87.188   C474.194,256.393,473.381,260.253,472.435,264.112z"/>
</g>
<path style="fill:#E8DBC4;" d="M332.808,379.494c-23.16-5.681-44.168-15.576-62.39-28.682  c-24.477-17.581-43.957-40.928-56.95-67.581c-17.839-36.582-23.452-79.392-12.984-122.069c1.035-4.22,2.21-8.375,3.518-12.445  c9.091-28.279,24.635-52.935,44.571-72.701c14.807-14.688,32.04-26.684,50.851-35.477c-0.083-0.001-0.165-0.005-0.248-0.006  c-49.046-0.628-95.503,18.878-129.32,52.421c-19.937,19.767-35.481,44.423-44.571,72.701c-1.309,4.07-2.484,8.224-3.518,12.445  c-10.468,42.677-4.855,85.487,12.984,122.069c12.993,26.653,32.473,49.999,56.95,67.581c18.222,13.106,39.23,23.002,62.39,28.682  c22.672,5.561,45.389,6.587,67.187,3.638c18.224-2.454,35.801-7.698,52.186-15.355C360.034,384.525,346.414,382.832,332.808,379.494  z"/>
<g>
	
		<rect x="318.023" y="73.576" transform="matrix(-0.9712 -0.2382 0.2382 -0.9712 612.1508 305.938)" style="fill:#5C5E70;" width="13.075" height="84.813"/>
	
		<rect x="162.261" y="157.745" transform="matrix(-0.8501 -0.5266 0.5266 -0.8501 293.49 412.1015)" style="fill:#5C5E70;" width="86.266" height="13.075"/>
	
		<rect x="209.098" y="247.157" transform="matrix(-0.6457 -0.7636 0.7636 -0.6457 133.4398 641.883)" style="fill:#5C5E70;" width="13.075" height="85.653"/>
	
		<rect x="294.727" y="313.124" transform="matrix(-0.378 -0.9258 0.9258 -0.378 168.9363 752.8226)" style="fill:#5C5E70;" width="85.263" height="13.075"/>
	
		<rect x="397.625" y="170.574" transform="matrix(-0.0735 -0.9973 0.9973 -0.0735 221.2446 631.9399)" style="fill:#5C5E70;" width="13.075" height="85.254"/>
	<polygon style="fill:#5C5E70;" points="236.191,272.389 229.286,178.772 316.188,143.275 376.802,214.954 327.36,294.751  "/>
	<path style="fill:#5C5E70;" d="M474.881,252.533l-34.719-41.986l28.713-45.202C477.769,192.712,480.224,222.517,474.881,252.533z"/>
	<path style="fill:#5C5E70;" d="M174.28,145.01l-48.993,20.645c9.091-28.279,24.635-52.935,44.571-72.701L174.28,145.01z"/>
	<path style="fill:#5C5E70;" d="M404.318,366.392c-24.19,17.854-52.732,29.597-83.04,33.679l29.426-47.057L404.318,366.392z"/>
	<path style="fill:#5C5E70;" d="M191.701,367.75c-24.477-17.581-43.957-40.928-56.95-67.581l53.164,13.268L191.701,367.75z"/>
	<path style="fill:#5C5E70;" d="M381.783,61.611l-48.154,19.671l-34.451-40.751c13.515,0.167,27.232,1.875,40.927,5.234   C354.932,49.403,368.879,54.77,381.783,61.611z"/>
</g>
<g>
	<circle style="fill:#FCF8F2;" cx="404.731" cy="164.415" r="24.137"/>
	<circle style="fill:#FCF8F2;" cx="378.19" cy="120.633" r="12.07"/>
</g>
<g>
</g>
<g>
</g>
<g>
</g>
<g>
</g>
<g>
</g>
<g>
</g>
<g>
</g>
<g>
</g>
<g>
</g>
<g>
</g>
<g>
</g>
<g>
</g>
<g>
</g>
<g>
</g>
<g>
</g>
</svg>
