<?xml version="1.0" encoding="iso-8859-1"?>
<!-- Generator: Adobe Illustrator 19.0.0, SVG Export Plug-In . SVG Version: 6.00 Build 0)  -->
<svg xmlns="http://www.w3.org/2000/svg" xmlns:xlink="http://www.w3.org/1999/xlink" version="1.1" id="Capa_1" x="0px" y="0px" viewBox="0 0 512 512" style="enable-background:new 0 0 512 512;" xml:space="preserve">
<path style="fill:#5C5E70;" d="M512,256c0,53.774-16.607,103.678-44.991,144.851c-15.366,22.302-34.194,42.049-55.704,58.458  c-42.967,32.786-96.647,52.262-154.876,52.262c-56.747,0-109.175-18.495-151.579-49.789c-21.092-15.564-39.712-34.288-55.151-55.485  c-1.544-2.128-3.056-4.266-4.538-6.447c-1.46-2.128-2.879-4.287-4.266-6.467c-2.796-4.36-5.456-8.825-7.98-13.363  c-2.211-3.974-4.319-8.022-6.311-12.121c-2.337-4.778-4.527-9.649-6.561-14.594C7.671,323.314,0.86,290.445,0.86,256  c0-30.522,5.351-59.793,15.167-86.925c17.327-47.922,48.579-89.178,88.865-118.887c16.836-12.424,35.237-22.814,54.869-30.835  c2.118-0.876,4.256-1.711,6.394-2.524c2.159-0.814,4.329-1.596,6.509-2.358c24.076-8.345,49.779-13.196,76.515-13.936  c2.41-0.073,4.819-0.104,7.25-0.104c2.431,0,4.84,0.031,7.25,0.104c11.725,0.323,23.241,1.44,34.518,3.296  c2.42,0.396,4.84,0.824,7.239,1.293c2.368,0.459,4.725,0.949,7.062,1.481c0.72,0.156,1.44,0.323,2.159,0.49h0.021  C427.756,33.456,512,134.891,512,256z"/>
<path style="fill:#FF525D;" d="M358.606,27.458v311.358c-40.182,18.86-83.514,28.29-126.857,28.29s-86.675-9.43-126.857-28.29  V27.458l45.742-21.186l6.102-2.837l6.155-2.848l0.115-0.052h137.486l6.155,2.848l6.061,2.806L358.606,27.458z"/>
<g>
	<path style="fill:#FFD15C;" d="M104.887,27.464c0,0-68.035,43.939-104.887,126.148c21.261,19.844,59.53,59.53,59.53,59.53   l45.357-37.958C104.887,175.184,104.887,27.464,104.887,27.464z"/>
	<path style="fill:#FFD15C;" d="M358.6,175.186l45.357,37.958c0,0,38.27-39.687,59.53-59.53   C426.635,71.403,358.6,27.464,358.6,27.464V175.186z"/>
</g>
<path style="fill:#EF4152;" d="M306.644,3.384l-13.046,18.733c-14.292,20.503-32.891,37.622-54.496,50.177l-7.391,4.297l-6.311-3.64  c-21.905-12.634-40.805-29.908-55.364-50.6L156.735,3.439l6.266-2.905h137.486L306.644,3.384z"/>
<path style="fill:#FFD15C;" d="M312.709,6.188l-0.322,0.634l-13.313,19.111c-14.738,21.149-34.316,39.169-56.622,52.136  l-10.73,6.233l-9.662-5.565c-22.596-13.034-42.475-31.199-57.49-52.548L151.014,6.89l-0.379-0.624l6.099-2.827l6.156-2.85  l12.611,17.92c13.902,19.769,32.312,36.586,53.238,48.652l2.96,1.714l4.052-2.36c20.625-11.988,38.735-28.661,52.37-48.218  l12.366-17.765l6.156,2.85L312.709,6.188z"/>
<path style="fill:#EF4152;" d="M358.606,181.175v56.33h-66.845c-3.891,0-7.406-1.575-9.952-4.131  c-2.556-2.545-4.131-6.071-4.131-9.952c0-7.782-6.301-14.082-14.082-14.082h-22.292c-3.88,0-7.406-1.575-9.952-4.131  c-2.556-2.545-4.131-6.071-4.131-9.952c0-7.782,6.311-14.082,14.082-14.082H358.606z"/>
<path style="fill:#FFD15C;" d="M467.009,247.822v153.029c-4.319,6.259-8.898,12.32-13.759,18.161  c-12.393,14.969-26.475,28.499-41.945,40.297h-44.845l-15.762-95.729l-15.762,95.729H234.388V247.822H467.009z"/>
<rect x="234.384" y="247.82" style="fill:#EDBB4C;" width="21.426" height="211.487"/>
<rect x="234.384" y="247.82" style="fill:#F9EED7;" width="232.632" height="36.729"/>
<rect x="234.384" y="247.82" style="fill:#E8DBC4;" width="21.426" height="36.729"/>
<circle style="fill:#F9EED7;" cx="311.712" cy="131.102" r="27.122"/>
<path style="fill:#EF4152;" d="M237.643,131.104c0,3.463-1.398,6.593-3.661,8.856c-2.274,2.264-5.403,3.661-8.856,3.661h-59.803  c-6.916,0-12.518,5.602-12.518,12.518c0,3.463-1.398,6.593-3.661,8.856c-2.264,2.264-5.393,3.661-8.856,3.661h-35.394V93.551h54.869  c6.906,0,12.518,5.602,12.518,12.518c0,3.463,1.398,6.593,3.661,8.856c2.274,2.264,5.403,3.661,8.856,3.661h40.328  C232.041,118.587,237.643,124.188,237.643,131.104z"/>
<g>
	<path style="fill:#EDBB4C;" d="M326.665,408.581c0,3.463-1.398,6.593-3.661,8.856c-2.274,2.264-5.403,3.661-8.856,3.661h-38.941   c-6.916,0-12.518,5.602-12.518,12.518c0,3.463-1.398,6.593-3.661,8.856c-2.264,2.264-5.393,3.661-8.856,3.661h-15.788v-75.106   h35.263c6.906,0,12.518,5.602,12.518,12.518c0,3.463,1.398,6.593,3.661,8.856c2.274,2.264,5.403,3.661,8.856,3.661h19.465   C321.063,396.063,326.665,401.665,326.665,408.581z"/>
	<path style="fill:#EDBB4C;" d="M467.009,310.379v90.472c-4.319,6.259-8.898,12.32-13.759,18.161h-53.638   c-3.004,0-5.716-1.21-7.688-3.182c-1.961-1.961-3.182-4.684-3.182-7.678c0-6.009,4.871-10.87,10.87-10.87h33.026   c3.004,0,5.716-1.22,7.678-3.182c1.961-1.961,3.182-4.673,3.182-7.678c0-5.998-4.861-10.87-10.859-10.87h-9.221   c-3.004,0-5.716-1.21-7.678-3.182c-1.961-1.961-3.182-4.684-3.182-7.678c0-5.998,4.861-10.87,10.859-10.87h30.512   c2.994,0,5.716-1.22,7.688-3.182c1.961-1.961,3.182-4.673,3.182-7.678c0-5.998-4.871-10.87-10.87-10.87h-66.991   c-2.994,0-5.716-1.21-7.688-3.182c-1.961-1.961-3.182-4.684-3.182-7.678c0-5.998,4.871-10.859,10.87-10.859L467.009,310.379   L467.009,310.379z"/>
</g>
<path style="fill:#797B89;" d="M208.101,446.134c0,8.637-7.01,15.647-15.647,15.647h-87.603  c-21.092-15.564-39.712-34.288-55.151-55.485c-1.544-2.128-3.056-4.266-4.538-6.447c-1.46-2.128-2.879-4.287-4.266-6.467  c-2.796-4.36-5.456-8.825-7.98-13.363c-2.211-3.974-4.319-8.022-6.311-12.121h141.502c4.329,0,8.23,1.752,11.068,4.59  c2.827,2.827,4.579,6.739,4.579,11.057c0,8.648-6.999,15.647-15.647,15.647h-50.415c-8.637,0-15.647,7.01-15.647,15.647  c0,8.637,7.01,15.647,15.647,15.647h74.762c4.319,0,8.23,1.752,11.068,4.579C206.348,437.893,208.101,441.815,208.101,446.134z"/>
<g>
</g>
<g>
</g>
<g>
</g>
<g>
</g>
<g>
</g>
<g>
</g>
<g>
</g>
<g>
</g>
<g>
</g>
<g>
</g>
<g>
</g>
<g>
</g>
<g>
</g>
<g>
</g>
<g>
</g>
</svg>
