<?xml version="1.0" encoding="iso-8859-1"?>
<!-- Generator: Adobe Illustrator 19.0.0, SVG Export Plug-In . SVG Version: 6.00 Build 0)  -->
<svg xmlns="http://www.w3.org/2000/svg" xmlns:xlink="http://www.w3.org/1999/xlink" version="1.1" id="Capa_1" x="0px" y="0px" viewBox="0 0 512 512" style="enable-background:new 0 0 512 512;" xml:space="preserve">
<path style="fill:#34ABE0;" d="M0,256c0,3.448,0.073,6.875,0.209,10.292c0.052,1.546,0.125,3.082,0.23,4.618  c0.481,8.6,1.4,17.095,2.727,25.443c2.8,17.711,7.419,34.806,13.667,51.106c9.415,24.639,22.538,47.449,38.693,67.741  c31.995,40.26,75.87,70.656,126.328,85.891c8.119,2.456,16.405,4.514,24.837,6.165c8.944,1.745,18.056,3.03,27.314,3.814  c6.322,0.533,12.706,0.846,19.153,0.909C254.109,512,255.049,512,256,512c36.718,0,71.617-7.732,103.184-21.65  c39.278-17.314,73.383-44.22,99.338-77.74c0.752-0.972,1.505-1.954,2.247-2.947c3.814-5.089,7.45-10.313,10.898-15.673  c7.346-11.463,13.803-23.542,19.278-36.153c2.226-5.13,4.295-10.365,6.196-15.673c2.717-7.596,5.078-15.35,7.074-23.259  C509.304,298.778,512,277.703,512,256c0-4.148-0.094-8.265-0.303-12.361c-4.232-89.213-54.147-166.473-126.872-208.906  c-4.201-2.456-8.485-4.796-12.842-7.011c-9.77-4.974-19.905-9.341-30.354-13.051c-13.918-4.932-28.379-8.704-43.28-11.18  C284.578,1.191,270.43,0,256,0c-17.377,0-34.346,1.735-50.751,5.036c-5.914,1.181-11.755,2.581-17.512,4.169  c-20.888,5.768-40.699,14.106-59.079,24.66c-13.145,7.555-25.548,16.238-37.094,25.924c-4.315,3.615-8.505,7.367-12.57,11.254  c0,0,0,0-0.01,0.01c-26.823,25.694-48.065,57.156-61.733,92.39C6.99,189.879,1.003,218.446,0.115,248.289  C0.042,250.849,0,253.419,0,256z"/>
<g>
	<path style="fill:#279FC9;" d="M91.836,59.779h79.903c3.574,0,6.813-1.452,9.164-3.793c2.341-2.351,3.793-5.59,3.793-9.164   c0-7.147-5.799-12.957-12.957-12.957h-43.081c-13.145,7.555-25.548,16.238-37.094,25.924   C91.658,59.779,91.742,59.779,91.836,59.779z"/>
	<path style="fill:#279FC9;" d="M17.251,163.443H156.62c3.584,0,6.823-1.452,9.164-3.793s3.793-5.58,3.793-9.164   c0-7.158-5.799-12.957-12.957-12.957h-39.382c-3.574,0-6.813-1.452-9.164-3.793c-2.341-2.351-3.793-5.59-3.793-9.164   c0-7.158,5.799-12.957,12.957-12.957h10.992c3.574,0,6.813-1.452,9.164-3.793c2.341-2.351,3.793-5.59,3.793-9.164   c0-7.158-5.799-12.957-12.957-12.957H91.836c-3.584,0-6.823-1.452-9.164-3.793c-2.341-2.351-3.793-5.59-3.793-9.164   c0-0.575,0.042-1.139,0.104-1.693C52.161,96.747,30.919,128.209,17.251,163.443z"/>
	<path style="fill:#279FC9;" d="M16.833,347.46c9.415,24.639,22.538,47.449,38.693,67.741h51.388c3.574,0,6.813-1.452,9.164-3.793   c2.341-2.341,3.793-5.58,3.793-9.164c0-7.158-5.799-12.957-12.957-12.957h-3.605c-3.584,0-6.823-1.452-9.164-3.793   c-2.341-2.341-3.793-5.58-3.793-9.164c0-7.158,5.799-12.957,12.957-12.957h35.318c3.584,0,6.823-1.452,9.164-3.793   c2.341-2.341,3.793-5.58,3.793-9.164c0-7.158-5.799-12.957-12.957-12.957H29.445C23.301,337.46,18.16,341.723,16.833,347.46z"/>
	<path style="fill:#279FC9;" d="M308.611,477.393c0,7.158,5.799,12.957,12.957,12.957h37.616   c39.278-17.314,73.383-44.22,99.338-77.74H341.723c-3.574,0-6.813,1.452-9.164,3.793c-2.341,2.341-3.793,5.58-3.793,9.164   c0,7.158,5.799,12.957,12.957,12.957h41.754c7.158,0,12.957,5.799,12.957,12.957s-5.799,12.957-12.957,12.957h-61.91   c-3.584,0-6.823,1.452-9.164,3.793C310.063,470.57,308.611,473.809,308.611,477.393z"/>
	<path style="fill:#279FC9;" d="M177.309,381.033c0,7.147,5.81,12.957,12.957,12.957h281.401   c7.346-11.463,13.803-23.542,19.278-36.153c2.226-5.13,4.295-10.365,6.196-15.673H216.179c-7.147,0-12.957,5.799-12.957,12.946   v0.01c0,3.574-1.452,6.813-3.793,9.164c-2.341,2.341-5.58,3.793-9.164,3.793c-3.574,0-6.813,1.452-9.164,3.793   C178.761,374.209,177.309,377.448,177.309,381.033z"/>
</g>
<path style="fill:#78CAEF;" d="M0.209,266.292c0.658,0.533,1.327,1.055,1.996,1.578c-0.606,1.003-1.202,2.017-1.766,3.041  c0.481,8.6,1.4,17.095,2.727,25.443c2.863-7.137,6.269-14.012,10.136-20.564c26.081,17.053,57.24,26.99,90.666,26.99  c16.185,0,31.838-2.341,46.644-6.677c10.564,20.605,24.555,39.163,41.211,54.951c-2.152,11.546-3.302,23.437-3.302,35.6  c0,36.916,10.407,71.44,28.432,100.812c-10.971,5.914-22.737,10.533-35.098,13.625c8.119,2.456,16.405,4.514,24.837,6.165  c6.123-2.466,12.058-5.287,17.795-8.432c3.009,4.211,6.186,8.296,9.519,12.246c6.322,0.533,12.706,0.846,19.153,0.909  c-6.154-6.311-11.839-13.061-17.011-20.208c31.002-20.49,54.753-51.085,66.539-87.061c9.362,1.327,18.923,2.038,28.651,2.038  c68.827,0,129.745-34.45,166.473-86.988c2.152-0.24,4.284-0.533,6.405-0.857C509.304,298.778,512,277.703,512,256  c0-4.148-0.094-8.265-0.303-12.361c-34.335-31.222-79.924-50.27-129.881-50.27c-16.802,0-33.092,2.152-48.64,6.196  c-4.378-14.19-6.74-29.257-6.74-44.878c0-48.619,22.862-91.993,58.389-119.954c-4.2-2.456-8.485-4.796-12.842-7.011  c-36.143,30.48-59.131,76.089-59.131,126.966c0,16.969,2.56,33.343,7.304,48.765c-21.379,7.21-41.085,18.066-58.389,31.828  c-4.807-4.775-9.895-9.247-15.245-13.406c14.963-24.931,23.583-54.094,23.583-85.232c0-36.509-11.839-70.29-31.88-97.729  c27.512-15.6,59.288-24.524,93.111-24.524c3.459,0,6.886,0.094,10.292,0.282c-13.918-4.932-28.379-8.704-43.28-11.18  c-24.649,4.044-47.825,12.549-68.66,24.66c-7.346-8.505-15.538-16.259-24.44-23.113c-5.914,1.181-11.755,2.581-17.512,4.169  c11.222,7.398,21.4,16.238,30.292,26.248c-49.873,33.688-84.041,88.942-89.025,152.263c-49.089,4.639-92.035,30.73-119.327,68.775  c-3.302-2.602-6.489-5.339-9.561-8.202C0.042,250.849,0,253.419,0,256C0,259.448,0.073,262.875,0.209,266.292z M235.426,213.964  c-26.091-17.063-57.24-27-90.666-27c-0.69,0-1.369,0.021-2.058,0.031c5.183-58.765,37.313-109.902,83.926-140.946  c18.777,25.349,29.895,56.696,29.895,90.593C256.522,164.843,248.822,191.269,235.426,213.964z M490.151,306.834  c-3.688,0.272-7.408,0.408-11.159,0.408c-63.707,0-118.397-39.246-141.207-94.824c14.096-3.563,28.839-5.465,44.032-5.465  c50.887,0,96.904,21.264,129.63,55.38C506.284,278.183,499.085,293.115,490.151,306.834z M310.899,353.102  c0-41.127-15.026-78.806-39.873-107.844c15.945-12.518,34.053-22.403,53.656-28.996c24.513,61.21,84.438,104.563,154.311,104.563  c0.376,0,0.752-0.01,1.139-0.01c-34.712,44.032-88.503,72.349-148.793,72.349c-8.453,0-16.771-0.575-24.931-1.651  C309.332,379.183,310.899,366.32,310.899,353.102z M292.979,389.256c-32.59-6.74-62.14-21.87-86.288-43.018  c8.328-36.08,27.544-68.023,53.979-92.202c22.831,26.676,36.645,61.294,36.645,99.067  C297.315,365.558,295.8,377.657,292.979,389.256z M202.104,386.654c0-8.505,0.606-16.865,1.755-25.057  c24.419,19.759,53.499,33.98,85.305,40.73c-11.024,32.266-32.59,59.685-60.562,78.158  C211.811,453.162,202.104,421.021,202.104,386.654z M163.641,291.694c30.469-11.776,56.644-32.277,75.4-58.441  c4.315,3.406,8.432,7.043,12.351,10.877c-26.478,24.252-46.205,55.777-55.986,91.366  C182.847,322.539,172.116,307.796,163.641,291.694z M141.949,203.776c0-1.066,0.031-2.132,0.042-3.187  c0.92-0.021,1.839-0.042,2.769-0.042c30.699,0,59.298,9.122,83.257,24.785c-17.439,24.325-41.859,43.332-70.29,54.073  C147.592,256.23,141.949,230.651,141.949,203.776z M20.71,264.411c24.701-34.461,63.394-58.243,107.687-62.986  c-0.01,0.784-0.031,1.567-0.031,2.351c0,28.348,5.851,55.348,16.394,79.872c-12.988,3.615-26.666,5.548-40.793,5.548  C73.268,289.196,44.669,280.074,20.71,264.411z"/>
<g>
	<polygon style="fill:#F9EED7;" points="169.472,281.276 183.003,324.2 195.626,364.272 211.195,359.372 200.108,324.2    185.031,276.376  "/>
	<polygon style="fill:#F9EED7;" points="394.867,281.276 408.398,324.2 421.021,364.272 436.579,359.372 425.493,324.2    410.425,276.376  "/>
	<path style="fill:#F9EED7;" d="M63.739,281.819L63.739,281.819c0,6.446,5.226,11.672,11.672,11.672h374.941V0.794H281.433v63.321   c0,30.062-12.173,57.271-31.88,76.978c-19.696,19.696-46.905,31.88-76.967,31.88c-48.567,0-89.704,31.807-103.706,75.724   C65.536,259.145,63.739,270.273,63.739,281.819z"/>
	<path style="fill:#F9EED7;" d="M151.396,376.011h324.032v-25.103H151.396c-21.508,0-40.971-13.546-48.432-33.706l-4.355-11.772   l-23.543,8.712l4.356,11.772C90.51,355.878,119.435,376.011,151.396,376.011z"/>
</g>
<g>
	<path style="fill:#797B89;" d="M273.454,60.605h53.219c4.506,0,8.159-3.653,8.159-8.159s-3.653-8.159-8.159-8.159h-53.219   c-4.506,0-8.159,3.653-8.159,8.159S268.948,60.605,273.454,60.605z"/>
	<path style="fill:#797B89;" d="M318.537,114.354c3.972,0,7.452-2.905,8.058-6.953c0.667-4.456-2.405-8.609-6.861-9.276   l-53.193-7.959c-4.446-0.667-8.609,2.404-9.276,6.862c-0.667,4.456,2.405,8.609,6.861,9.276l53.193,7.959   C317.729,114.323,318.136,114.354,318.537,114.354z"/>
	<path style="fill:#797B89;" d="M293.52,162.691c3.256,0,6.332-1.962,7.595-5.176c1.649-4.193-0.415-8.93-4.608-10.578   l-49.529-19.469c-4.197-1.648-8.929,0.416-10.577,4.608c-1.649,4.193,0.415,8.93,4.608,10.577l49.529,19.469   C291.518,162.508,292.529,162.691,293.52,162.691z"/>
</g>
<g>
	<polygon style="fill:#E8DBC4;" points="410.425,276.376 394.867,281.276 408.398,324.2 425.493,324.2  "/>
	<polygon style="fill:#E8DBC4;" points="169.472,281.276 183.003,324.2 200.108,324.2 185.031,276.376  "/>
	<path style="fill:#E8DBC4;" d="M286.887,293.491h163.464V0.794h-62.694c0,0,32.517,203.107-90.906,247.902   C254.485,264.035,260.587,279.625,286.887,293.491z"/>
</g>
<g>
	<path style="fill:#797B89;" d="M371.967,251.222l9.689,42.273h68.695V170.503C411.592,180.946,381.293,212.011,371.967,251.222z"/>
	<path style="fill:#797B89;" d="M63.739,281.823L63.739,281.823c0,6.447,5.227,11.673,11.673,11.673H450.35v-44.797H68.885   C65.534,259.142,63.739,270.275,63.739,281.823z"/>
</g>
<g>
	<circle style="fill:#FCF8F2;" cx="126.182" cy="215.124" r="16.631"/>
	<circle style="fill:#FCF8F2;" cx="312.571" cy="25.13" r="11.453"/>
	<circle style="fill:#FCF8F2;" cx="166.818" cy="198.489" r="11.453"/>
</g>
<g>
</g>
<g>
</g>
<g>
</g>
<g>
</g>
<g>
</g>
<g>
</g>
<g>
</g>
<g>
</g>
<g>
</g>
<g>
</g>
<g>
</g>
<g>
</g>
<g>
</g>
<g>
</g>
<g>
</g>
</svg>
