<?xml version="1.0" encoding="iso-8859-1"?>
<!-- Generator: Adobe Illustrator 19.0.0, SVG Export Plug-In . SVG Version: 6.00 Build 0)  -->
<svg xmlns="http://www.w3.org/2000/svg" xmlns:xlink="http://www.w3.org/1999/xlink" version="1.1" id="Capa_1" x="0px" y="0px" viewBox="0 0 512 512" style="enable-background:new 0 0 512 512;" xml:space="preserve">
<path style="fill:#FF525D;" d="M512,256c0,22.611-2.936,44.544-8.432,65.421c-7.147,27.104-18.62,52.443-33.646,75.232  c-35.255,53.519-90.059,93.027-154.247,108.345c-3.553,0.857-7.137,1.63-10.741,2.33c-3.187,0.616-6.395,1.17-9.623,1.672  c-12.267,1.891-24.837,2.915-37.616,2.988c-0.564,0.01-1.128,0.01-1.693,0.01c-3.03,0-6.05-0.052-9.059-0.157  c-3.229-0.115-6.437-0.282-9.623-0.512c-21.734-1.567-42.705-5.851-62.599-12.507c-54.272-18.16-100.435-53.99-131.646-100.675  c-2.403-3.584-4.712-7.22-6.928-10.93c-7.147-11.943-13.343-24.513-18.484-37.616c-2.414-6.134-4.598-12.382-6.531-18.735  c-2.967-9.717-5.381-19.675-7.178-29.853c-0.47-2.675-0.909-5.36-1.285-8.067c-1.411-9.676-2.278-19.529-2.56-29.539  c-0.063-2.246-0.094-4.503-0.104-6.771V256c0-12.904,0.951-25.579,2.8-37.971c3.615-24.294,10.637-47.469,20.574-69.036  C63.898,61.044,152.819,0.002,256.002,0.002c86.245,0,162.522,42.652,208.895,108.01c6.844,9.623,13.019,19.728,18.474,30.271  c1.839,3.521,3.594,7.095,5.256,10.71C503.63,181.551,512,217.799,512,256z"/>
<g>
	<path style="fill:#EF4152;" d="M487.278,202.042c0,10.386-8.422,18.808-18.808,18.808h-1.849c-5.193,0-9.895,2.1-13.301,5.507   c-3.406,3.406-5.507,8.108-5.507,13.301c0,10.386-8.422,18.808-18.808,18.808H158.147c-5.193,0-9.895-2.1-13.301-5.507   c-3.406-3.406-5.507-8.108-5.507-13.301c0-10.386,8.422-18.808,18.808-18.808h57.176c5.193,0,9.895-2.1,13.301-5.507   c3.406-3.406,5.507-8.108,5.507-13.301c0-10.386-8.422-18.808-18.808-18.808h-15.956c-5.193,0-9.895-2.1-13.301-5.507   c-3.396-3.406-5.507-8.108-5.507-13.301c0-10.386,8.422-18.798,18.808-18.798h52.819c5.193,0,9.895-2.111,13.301-5.507   c3.406-3.406,5.507-8.108,5.507-13.301c0-10.386-8.422-18.808-18.808-18.808H136.205c-5.193,0-9.895-2.111-13.301-5.507   c-3.406-3.406-5.507-8.108-5.507-13.301c0-10.386,8.422-18.808,18.808-18.808h288.38c5.193,0,9.895,2.111,13.301,5.507   c3.396,3.406,5.507,8.108,5.507,13.301c0,10.386,8.422,18.808,18.808,18.808h2.696c6.844,9.623,13.019,19.728,18.474,30.271   c-3.427,4.472-8.829,7.346-14.9,7.346h-34.481c-5.193,0-9.895,2.1-13.301,5.507c-3.396,3.396-5.507,8.098-5.507,13.291   c0,10.397,8.422,18.808,18.808,18.808h34.481c5.193,0,9.895,2.1,13.301,5.507C485.167,192.147,487.278,196.849,487.278,202.042z"/>
	<path style="fill:#EF4152;" d="M114.701,312.058c0,10.386-8.422,18.808-18.808,18.808H11.131   c-2.967-9.717-5.381-19.675-7.178-29.853c-0.47-2.675-0.909-5.36-1.285-8.067c1.087,0.199,2.215,0.303,3.365,0.303h89.861   c5.193,0,9.895,2.111,13.301,5.507C112.601,302.163,114.701,306.865,114.701,312.058z"/>
</g>
<path style="fill:#797B89;" d="M488.626,148.993H23.377C63.898,61.044,152.819,0.002,256.002,0.002S448.105,61.044,488.626,148.993z  "/>
<g>
	<path style="fill:#F9EED7;" d="M257.694,285.351v226.637c-0.564,0.01-1.128,0.01-1.693,0.01c-6.28,0-12.518-0.23-18.683-0.669   V285.351L257.694,285.351L257.694,285.351z"/>
	<polygon style="fill:#F9EED7;" points="247.36,114.856 236.264,137.865 191.291,231.132 176.82,231.132 221.802,137.865    235.626,109.203  "/>
	<polygon style="fill:#F9EED7;" points="336.855,231.132 322.384,231.132 277.411,137.865 266.315,114.856 278.049,109.203    291.873,137.865  "/>
	<polygon style="fill:#F9EED7;" points="422.495,114.856 411.398,137.865 366.426,231.132 351.954,231.132 396.947,137.865    410.771,109.203  "/>
	<polygon style="fill:#F9EED7;" points="512,231.132 497.528,231.132 452.546,137.865 441.449,114.856 453.183,109.203    467.007,137.865  "/>
</g>
<g>
	<polygon style="fill:#E8DBC4;" points="235.626,109.203 247.36,114.856 236.264,137.865 221.802,137.865  "/>
	<polygon style="fill:#E8DBC4;" points="278.049,109.203 291.873,137.865 277.411,137.865 266.315,114.856  "/>
	<polygon style="fill:#E8DBC4;" points="410.771,109.203 422.495,114.856 411.398,137.865 396.947,137.865  "/>
	<polygon style="fill:#E8DBC4;" points="467.007,137.865 452.546,137.865 441.449,114.856 453.183,109.203  "/>
</g>
<path style="fill:#FFD15C;" d="M479.054,116.184H208.022c-13.743,0-24.885-11.142-24.885-24.885V50.745  c0-28.024,22.718-50.743,50.743-50.743h219.318c28.024,0,50.743,22.718,50.743,50.743v40.554  C503.939,105.042,492.797,116.184,479.054,116.184z"/>
<path style="fill:#EDBB4C;" d="M289.208,96.37V40.404c0-22.314,18.089-40.403,40.403-40.403H223.54  c-22.314,0-40.403,18.089-40.403,40.403V96.37c0,10.943,8.871,19.814,19.814,19.814h106.071  C298.079,116.184,289.208,107.313,289.208,96.37z"/>
<path style="fill:#FFDC8D;" d="M471.241,37.439H368.914c-5.858,0-10.607-4.749-10.607-10.607l0,0  c0-5.858,4.749-10.607,10.607-10.607h102.327c5.858,0,10.607,4.749,10.607,10.607l0,0C481.848,32.69,477.099,37.439,471.241,37.439z  "/>
<path style="fill:#F4A14E;" d="M354.859,282.216c0,10.386-8.422,18.798-18.808,18.798H3.953  c-2.173-12.257-3.479-24.806-3.845-37.606h335.943c5.193,0,9.895,2.1,13.301,5.507C352.759,272.311,354.859,277.013,354.859,282.216  z"/>
<path style="fill:#EF4152;" d="M503.568,321.421c-7.147,27.104-18.62,52.443-33.646,75.232h-69.297  c-5.193,0-9.895-2.111-13.291-5.507c-3.406-3.406-5.507-8.108-5.507-13.301c0-10.386-8.422-18.808-18.808-18.808H333.24  c-5.193,0-9.895-2.111-13.301-5.507c-3.396-3.406-5.507-8.108-5.507-13.301c0-10.386,8.422-18.808,18.808-18.808H503.568z"/>
<path style="fill:#E8DBC4;" d="M157.991,196.422c0,43.627-35.361,79.002-78.989,79.002C35.374,275.425,0,240.05,0,196.422  c0-36.588,24.867-67.362,58.628-76.336c6.507-1.747,13.334-2.667,20.374-2.667c40.268,0,73.509,30.147,78.362,69.096  C157.778,189.768,157.991,193.062,157.991,196.422z"/>
<path style="fill:#F9EED7;" d="M157.364,186.515c-8.441,23.84-31.188,40.921-57.921,40.921c-33.934,0-61.442-27.508-61.442-61.442  c0-18.267,7.974-34.667,20.627-45.908c6.507-1.747,13.334-2.667,20.374-2.667C119.27,117.42,152.51,147.567,157.364,186.515z"/>
<g>
	<circle style="fill:#FCF8F2;" cx="107.216" cy="163.421" r="17.999"/>
	<circle style="fill:#FCF8F2;" cx="80.389" cy="141.655" r="9.844"/>
</g>
<path style="fill:#E8DBC4;" d="M246.942,322.455v189.387c-3.229-0.115-6.437-0.282-9.623-0.512V322.455H246.942z"/>
<path style="fill:#F9EED7;" d="M315.675,377.813v127.184c-6.687,1.609-13.479,2.936-20.365,4.002V377.813L315.675,377.813  L315.675,377.813z"/>
<path style="fill:#F4A14E;" d="M433.226,368.409c0,10.386-8.422,18.808-18.808,18.808H36.146  c-7.147-11.943-13.343-24.513-18.484-37.616h396.756c5.193,0,9.895,2.1,13.301,5.507  C431.125,358.514,433.226,363.216,433.226,368.409z"/>
<g>
	<path style="fill:#F9AF6B;" d="M390.908,368.41H89.995c-5.194,0-9.405-4.211-9.405-9.405l0,0c0-5.194,4.211-9.405,9.405-9.405   h300.911c5.194,0,9.405,4.211,9.405,9.405l0,0C400.312,364.2,396.102,368.41,390.908,368.41z"/>
	<path style="fill:#F9AF6B;" d="M315.153,282.217H14.242c-5.194,0-9.405-4.211-9.405-9.405l0,0c0-5.194,4.211-9.405,9.405-9.405   h300.911c5.194,0,9.405,4.211,9.405,9.405l0,0C324.558,278.006,320.347,282.217,315.153,282.217z"/>
</g>
<g>
	<rect x="237.316" y="301.012" style="fill:#E8DBC4;" width="20.375" height="29.108"/>
	<rect x="295.537" y="387.895" style="fill:#E8DBC4;" width="20.375" height="29.108"/>
	<path style="fill:#E8DBC4;" d="M304.934,393.184v114.144c-3.187,0.616-6.395,1.17-9.623,1.672V393.184H304.934z"/>
</g>
<path style="fill:#EF4152;" d="M218.762,454.571c0,10.386-8.422,18.808-18.808,18.808h-5.224c-5.193,0-9.895,2.1-13.301,5.507  c-3.396,3.406-5.507,8.108-5.507,13.301c0,2.33-0.428,4.566-1.202,6.635c-54.272-18.16-100.435-53.99-131.646-100.675h74.595  c10.386,0,18.808,8.422,18.808,18.808c0,10.386,8.422,18.808,18.808,18.808h44.669c5.193,0,9.895,2.1,13.301,5.507  C216.651,444.676,218.762,449.378,218.762,454.571z"/>
<g>
</g>
<g>
</g>
<g>
</g>
<g>
</g>
<g>
</g>
<g>
</g>
<g>
</g>
<g>
</g>
<g>
</g>
<g>
</g>
<g>
</g>
<g>
</g>
<g>
</g>
<g>
</g>
<g>
</g>
</svg>
