<?xml version="1.0" encoding="iso-8859-1"?>
<!-- Generator: Adobe Illustrator 19.0.0, SVG Export Plug-In . SVG Version: 6.00 Build 0)  -->
<svg xmlns="http://www.w3.org/2000/svg" xmlns:xlink="http://www.w3.org/1999/xlink" version="1.1" id="Capa_1" x="0px" y="0px" viewBox="0 0 512 512" style="enable-background:new 0 0 512 512;" xml:space="preserve">
<path style="fill:#34ABE0;" d="M0.001,256.001c0,65.546,24.628,125.335,65.139,170.621c9.341,10.439,19.529,20.114,30.448,28.891  c1.348,1.097,2.696,2.163,4.065,3.218c7.743,5.977,15.83,11.525,24.242,16.603c24.973,15.067,52.736,25.997,82.327,31.828  c7.952,1.567,16.039,2.769,24.242,3.584C238.864,511.572,247.38,512,256,512c76.821,0,145.742-33.834,192.668-87.426  c15.203-17.356,28.097-36.791,38.201-57.825c5.956-12.392,10.94-25.349,14.869-38.755c0.711-2.435,1.39-4.88,2.038-7.346  c3.584-13.824,6.06-28.097,7.293-42.726c0.219-2.539,0.397-5.078,0.533-7.638c0.261-4.733,0.397-9.488,0.397-14.284  c0-5.12-0.146-10.219-0.46-15.266c-0.23-3.992-0.554-7.952-0.972-11.891c-0.251-2.435-0.543-4.859-0.878-7.272  c-1.776-13.364-4.608-26.405-8.391-39.037c-0.209-0.7-0.418-1.39-0.648-2.09c-0.763-2.518-1.578-5.026-2.435-7.513  c-5.789-16.906-13.302-33.008-22.34-48.107C431.187,50.062,349.435,0.001,256,0.001S80.813,50.062,36.123,124.824  C13.177,163.182,0.001,208.061,0.001,256.001z"/>
<g>
	<path style="fill:#78CAEF;" d="M40.574,264.568L40.574,264.568c0-6.015,4.877-10.892,10.892-10.892h3.631   c6.015,0,10.892-4.877,10.892-10.892l0,0c0-6.015,4.877-10.892,10.892-10.892h167.014c6.015,0,10.892,4.877,10.892,10.892l0,0   c0,6.015-4.877,10.892-10.892,10.892h-67.169c-6.015,0-10.892,4.877-10.892,10.892l0,0c0,6.015,4.877,10.892,10.892,10.892h30.591   c6.015,0,10.892,4.877,10.892,10.892l0,0c0,6.015-4.877,10.892-10.892,10.892h-9.241c-6.015,0-10.892,4.877-10.892,10.892l0,0   c0,6.015,4.877,10.892,10.892,10.892h33.111c6.015,0,10.892,4.877,10.892,10.892l0,0c0,6.015-4.877,10.892-10.892,10.892H74.321   c-6.015,0-10.892-4.876-10.892-10.892l0,0c0-6.015-4.877-10.892-10.892-10.892h-1.07c-6.015,0-10.892-4.877-10.892-10.892l0,0   c0-6.015,4.877-10.892,10.892-10.892h19.969c6.015,0,10.892-4.876,10.892-10.892l0,0c0-6.015-4.877-10.892-10.892-10.892H51.467   C45.45,275.46,40.574,270.583,40.574,264.568z"/>
	<path style="fill:#78CAEF;" d="M65.139,426.622c9.341,10.439,19.529,20.114,30.448,28.891h58.953c3.427,0,6.541-1.39,8.798-3.647   c2.257-2.247,3.647-5.36,3.647-8.798c0-6.875,5.569-12.445,12.445-12.445h19.707c3.438,0,6.551-1.39,8.798-3.647   c2.257-2.247,3.647-5.36,3.647-8.798c0-6.875-5.569-12.445-12.445-12.445H80.886c-6.865,0-12.445,5.569-12.445,12.445   C68.441,421.439,67.187,424.406,65.139,426.622z"/>
	<path style="fill:#78CAEF;" d="M403.341,211.634c0,2.685,1.087,5.11,2.842,6.855c1.755,1.755,4.18,2.842,6.854,2.842h46.352   c5.36,0,9.697,4.347,9.697,9.707c0,2.675,1.087,5.099,2.842,6.855c1.755,1.755,4.18,2.842,6.855,2.842h32.757   c-1.17-20.104-4.671-39.602-10.24-58.201h-37.606c-5.35,0-9.697,4.347-9.697,9.707c0,2.675-1.087,5.099-2.842,6.855   c-1.755,1.755-4.18,2.842-6.855,2.842h-31.263C407.688,201.938,403.341,206.274,403.341,211.634z"/>
</g>
<path style="fill:#FCF8F2;" d="M163.276,220.464v39.267c-6.928,7.513-16.624,11.786-26.843,11.786  c-10.658,0-20.752-4.639-27.7-12.727l-5.58,4.723c8.37,9.749,20.49,15.318,33.28,15.318c9.822,0,19.226-3.291,26.843-9.195v39.267  c-6.928,7.513-16.624,11.786-26.843,11.786c-10.658,0-20.752-4.639-27.7-12.727l-5.58,4.723c8.37,9.749,20.49,15.318,33.28,15.318  c11.452,0,22.35-4.451,30.49-12.351c8.119,7.889,19.038,12.351,30.49,12.351c11.442,0,22.35-4.462,30.49-12.351  c8.129,7.889,19.038,12.351,30.48,12.351c11.452,0,22.35-4.462,30.49-12.351c4.054,3.939,8.808,7.022,13.981,9.122  c5.183,2.1,10.773,3.218,16.499,3.218c11.442,0,22.35-4.451,30.48-12.34c8.14,7.889,19.038,12.34,30.48,12.34  c11.452,0,22.35-4.451,30.49-12.34c8.129,7.889,19.038,12.34,30.48,12.34c11.442,0,22.34-4.451,30.48-12.33  c7.983,7.743,18.704,12.194,29.978,12.33c0.711-2.435,1.39-4.88,2.038-7.346c-0.512,0.021-1.024,0.031-1.536,0.031  c-10.219,0-19.926-4.274-26.822-11.766v-39.267c7.586,5.883,17.011,9.174,26.822,9.174c2.999,0,5.956-0.303,8.829-0.899  c0.219-2.539,0.397-5.078,0.533-7.638c-3.02,0.805-6.165,1.223-9.362,1.223c-10.219,0-19.926-4.284-26.822-11.776v-39.278  c7.628,5.914,17.032,9.195,26.822,9.195c2.821,0,5.611-0.272,8.328-0.805c-0.251-2.435-0.543-4.859-0.878-7.272  c-2.424,0.502-4.921,0.763-7.45,0.763c-10.219,0-19.926-4.284-26.822-11.776V171.28c7.21,5.59,16.018,8.829,25.234,9.164  c-0.763-2.518-1.578-5.026-2.435-7.513c-9.143-1.003-17.607-5.444-23.677-12.507l-2.685-3.124l-2.873,3.124  c-6.938,8.087-17.042,12.737-27.7,12.737c-10.658,0-20.762-4.65-27.7-12.737l-0.084-0.094l-2.706-2.947l-2.769,3.041  c-6.949,8.087-17.042,12.737-27.711,12.727c-10.658,0-20.752-4.639-27.7-12.727l-0.188-0.209l-2.738-2.738l-2.581,2.894  c-6.99,8.14-17.084,12.79-27.752,12.79c-10.637,0-20.72-4.629-27.658-12.685l-2.706-3.375l-2.873,3.302  c-6.969,8.119-17.063,12.758-27.732,12.758c-10.658,0-20.752-4.639-27.7-12.727l-2.727-3.176l-2.79,3.114  c-6.99,8.15-17.094,12.79-27.752,12.79c-10.658,0-20.762-4.639-27.7-12.727l-2.759-3.208l-2.79,3.166  c-6.969,8.14-17.074,12.779-27.732,12.779c-10.658,0-20.752-4.639-27.7-12.737l-5.58,4.723c8.37,9.759,20.49,15.329,33.28,15.329  c9.822,0,19.226-3.291,26.843-9.206v39.267c-6.928,7.523-16.624,11.797-26.843,11.797c-10.658,0-20.752-4.639-27.7-12.727  l-5.58,4.723c8.37,9.749,20.49,15.318,33.28,15.318C146.255,229.659,155.659,226.367,163.276,220.464z M414.458,269.647  c7.617,5.893,17.011,9.174,26.822,9.174c9.801,0,19.205-3.281,26.823-9.174v39.278c-6.907,7.481-16.603,11.755-26.823,11.755  c-10.219,0-19.916-4.274-26.822-11.755V269.647z M414.458,220.474c7.617,5.893,17.011,9.174,26.822,9.174  c9.801,0,19.205-3.281,26.823-9.174v39.278c-6.907,7.481-16.603,11.755-26.823,11.755c-10.219,0-19.916-4.274-26.822-11.755V220.474  z M414.458,171.291c7.617,5.904,17.011,9.185,26.822,9.185c9.801,0,19.205-3.281,26.823-9.185v39.278  c-6.907,7.492-16.603,11.766-26.823,11.766c-10.219,0-19.916-4.274-26.822-11.766V171.291z M353.489,269.636  c7.607,5.904,17.011,9.185,26.822,9.185s19.216-3.281,26.833-9.185v39.278c-6.896,7.492-16.603,11.766-26.833,11.766  c-10.219,0-19.926-4.274-26.822-11.766V269.636z M353.489,220.464c7.607,5.904,17.011,9.185,26.822,9.185s19.216-3.281,26.833-9.185  v39.267c-6.896,7.492-16.603,11.776-26.833,11.776c-10.219,0-19.926-4.284-26.822-11.766V220.464z M353.489,171.291  c7.607,5.893,17.011,9.174,26.822,9.174c9.812,0.01,19.216-3.281,26.833-9.185v39.278c-6.896,7.492-16.603,11.776-26.833,11.776  c-10.219,0-19.926-4.284-26.822-11.776V171.291z M292.519,269.636c3.814,2.947,8.067,5.245,12.591,6.802  c4.535,1.557,9.341,2.382,14.242,2.382c9.812,0,19.205-3.281,26.822-9.174v39.278c-6.938,7.502-16.614,11.755-26.822,11.755  c-10.23,0-19.926-4.284-26.833-11.776V269.636z M292.519,220.453c3.814,2.957,8.067,5.256,12.591,6.813  c4.535,1.557,9.341,2.382,14.242,2.382c9.812,0,19.205-3.281,26.822-9.185v39.278c-6.938,7.502-16.614,11.766-26.822,11.766  c-10.23,0-19.926-4.284-26.833-11.776V220.453z M292.519,171.28c7.617,5.904,17.021,9.195,26.833,9.195s19.205-3.281,26.822-9.185  v39.278c-6.938,7.502-16.614,11.766-26.822,11.766c-10.23,0-19.926-4.284-26.833-11.776V171.28z M231.57,269.647  c7.607,5.904,17.011,9.174,26.812,9.174c9.812,0,19.205-3.271,26.823-9.174v39.278c-6.928,7.492-16.603,11.766-26.822,11.766  c-10.219,0-19.916-4.284-26.812-11.766L231.57,269.647L231.57,269.647z M231.57,220.474c7.607,5.893,17.011,9.174,26.812,9.174  c9.812,0,19.205-3.281,26.823-9.174v39.278c-6.928,7.492-16.603,11.755-26.822,11.755c-10.219,0-19.916-4.274-26.812-11.755  L231.57,220.474L231.57,220.474z M231.57,171.301c7.607,5.893,17.011,9.174,26.812,9.174c9.812,0,19.216-3.281,26.823-9.174v39.278  c-6.928,7.492-16.603,11.755-26.822,11.755c-10.219,0-19.916-4.274-26.812-11.755L231.57,171.301L231.57,171.301z M170.59,269.657  c7.607,5.883,17.011,9.174,26.822,9.174s19.226-3.291,26.843-9.195v39.267c-6.949,7.523-16.635,11.786-26.843,11.786  c-10.219,0-19.916-4.274-26.822-11.766V269.657z M170.59,220.484c7.607,5.883,17.011,9.164,26.822,9.164s19.226-3.281,26.843-9.185  v39.267c-6.949,7.513-16.635,11.786-26.843,11.786c-10.219,0-19.916-4.284-26.822-11.766V220.484z M170.59,171.301  c7.628,5.904,17.021,9.174,26.822,9.174c9.812,0,19.226-3.281,26.843-9.195v39.278c-6.949,7.513-16.635,11.776-26.843,11.776  c-10.219,0-19.916-4.274-26.822-11.755V171.301z"/>
<path style="fill:#5C5E70;" d="M475.882,124.823H36.127c10.041-16.791,21.953-32.34,35.464-46.352  c3.678-3.835,7.481-7.555,11.41-11.149c6.008-5.527,12.278-10.752,18.798-15.673C144.681,19.226,198.096,0,256.004,0  c72.453,0,137.864,30.103,184.445,78.472c2.257,2.351,4.462,4.733,6.635,7.168c4.504,5.047,8.808,10.282,12.904,15.673  C465.704,108.836,471.012,116.684,475.882,124.823z"/>
<g>
	<path style="fill:#78CAEF;" d="M427.99,93.477c0,4.326,3.511,7.837,7.837,7.837h24.158c-4.096-5.392-8.401-10.627-12.904-15.673   h-11.254c-2.163,0-4.117,0.878-5.538,2.299C428.868,89.35,427.99,91.314,427.99,93.477z"/>
	<path style="fill:#78CAEF;" d="M322.205,412.035c0,6.928,5.622,12.539,12.539,12.539h113.925   c15.203-17.356,28.097-36.791,38.201-57.825c-0.627-1.494-0.972-3.145-0.972-4.869c0-6.917-5.611-12.539-12.539-12.539H354.252   c-3.459,0-6.593,1.4-8.871,3.678c-2.267,2.267-3.668,5.402-3.668,8.861c0,6.928,5.611,12.539,12.539,12.539h40.406   c6.917,0,12.539,5.611,12.539,12.539c0,6.928-5.622,12.539-12.539,12.539h-59.914c-3.459,0-6.593,1.4-8.861,3.668   C323.605,405.431,322.205,408.566,322.205,412.035z"/>
</g>
<rect x="99.652" y="147.874" style="fill:#797B89;" width="24.242" height="226.805"/>
<path style="fill:#F4A14E;" d="M440.449,78.472H71.59c3.678-3.835,7.481-7.555,11.41-11.149  c6.008-5.527,12.278-10.752,18.798-15.673C115.8,41.054,130.93,31.88,146.969,24.325C169.424,13.73,193.666,6.311,219.13,2.633  C231.167,0.899,243.486,0,256.004,0C328.457,0,393.868,30.103,440.449,78.472z"/>
<path style="fill:#F9EED7;" d="M511.999,135.566c0,30.136-10.103,57.888-27.109,80.062c-3.751,4.89-7.836,9.516-12.232,13.83  c-11.185,11.001-24.336,19.998-38.869,26.454c-3.187,1.415-6.444,2.716-9.769,3.866c-12.266,4.315-25.383,6.846-39.018,7.306  c-1.531,0.069-3.06,0.092-4.603,0.092c-1.542,0-3.072-0.023-4.603-0.092c-53.033-1.807-98.046-34.921-117.169-81.465  c-2.324-5.65-4.268-11.506-5.788-17.524c-2.647-10.402-4.05-21.298-4.05-32.529c0-4.844,0.264-9.619,0.783-14.326  c0.368-3.51,0.886-6.984,1.542-10.402c2.486-13.164,6.938-25.625,13.037-37.074c1.449-2.716,2.98-5.374,4.614-7.962  c23.243-37.154,64.528-61.836,111.636-61.836c5.903,0,11.725,0.391,17.421,1.15c6.19,0.806,12.243,2.059,18.134,3.717  c15.418,4.291,29.687,11.334,42.251,20.561c2.842,2.071,5.581,4.258,8.239,6.547c9.941,8.595,18.582,18.663,25.579,29.859  c1.634,2.589,3.164,5.247,4.614,7.962C506.443,92.187,511.999,113.221,511.999,135.566z"/>
<g>
	<path style="fill:#E8DBC4;" d="M467.136,232.263c-10.827,3.809-22.406,6.043-34.441,6.449c-1.351,0.061-2.702,0.081-4.063,0.081   c-1.36,0-2.711-0.02-4.063-0.081c-46.812-1.595-86.545-30.825-103.425-71.909c-2.051-4.987-3.768-10.156-5.108-15.469   c-2.336-9.182-3.576-18.8-3.576-28.713c0-4.276,0.234-8.491,0.691-12.645c0.325-3.098,0.782-6.165,1.362-9.182   c2.194-11.619,6.124-22.619,11.507-32.725c1.28-2.397,2.63-4.743,4.073-7.028c17.669-28.245,47.154-48.308,81.557-53.337   c-4.523-1.105-9.136-1.977-13.827-2.587c-5.696-0.76-11.518-1.15-17.421-1.15c-47.107,0-88.392,24.681-111.636,61.836   c-1.634,2.589-3.164,5.247-4.614,7.962c-6.098,11.449-10.551,23.91-13.037,37.074c-0.656,3.418-1.173,6.892-1.542,10.402   c-0.517,4.706-0.783,9.481-0.783,14.326c0,11.231,1.403,22.127,4.05,32.529c1.519,6.018,3.464,11.874,5.788,17.524   c19.124,46.544,64.137,79.659,117.169,81.465c1.531,0.069,3.06,0.092,4.603,0.092c1.542,0,3.072-0.023,4.603-0.092   c13.635-0.46,26.752-2.992,39.019-7.306c3.325-1.15,6.582-2.451,9.769-3.866c13.972-6.206,26.648-14.783,37.546-25.209   C469.95,231.25,468.551,231.774,467.136,232.263z"/>
	<path style="fill:#E8DBC4;" d="M480.473,83.096c10.77,43.333,12.243,88.668,4.419,132.53c-3.751,4.89-7.836,9.516-12.232,13.83   c10.207-43.989,10.609-89.969,1.196-134.107c-0.53-2.497-1.081-4.982-1.68-7.456l-35.992,20.781l-3.636,2.105   c5.88,42.378,6.904,85.239,3.072,127.79c-0.518,5.788-1.127,11.564-1.83,17.34c-3.187,1.415-6.444,2.716-9.769,3.866   c0.909-6.996,1.692-13.992,2.335-21.011c3.763-40.952,2.946-82.19-2.44-123.016l-38.915,22.472v128.86   c-1.531,0.069-3.06,0.092-4.603,0.092c-1.542,0-3.072-0.023-4.603-0.092v-18.51c-43.023-12.473-83.088-34.035-117.169-62.952   c-2.324-5.65-4.268-11.506-5.788-17.524c34.83,32.793,77.127,57.164,122.957,70.879V193.19   c-18.605-7.617-36.763-16.213-54.391-25.74c-25.061-13.554-49.063-28.984-71.834-46.209c0.368-3.51,0.886-6.984,1.542-10.402   c20.884,16.086,42.85,30.642,65.748,43.563c19.032,10.758,38.707,20.366,58.935,28.812v-44.99l-61.616-35.578l-50.03-28.881   c1.449-2.716,2.98-5.374,4.614-7.962l16.086,9.286c32.265-30.987,70.927-54.897,112.971-69.97c0.886,0.115,1.772,0.241,2.658,0.379   c0.656,0.092,1.311,0.195,1.956,0.31c0.771,0.126,1.531,0.264,2.289,0.402c1.242,0.23,2.474,0.484,3.705,0.76   c0.46,0.092,0.921,0.195,1.38,0.299c0.622,0.138,1.231,0.287,1.83,0.437c1.45,0.345,2.888,0.725,4.315,1.127   c-23.451,7.065-45.968,16.915-67.036,29.272c-20.067,11.748-38.811,25.774-55.771,41.78l23.07,13.313l16.58,9.573   c21.678-16.787,44.518-31.941,68.336-45.358c7.606-4.28,15.315-8.4,23.116-12.323c11.139-5.604,22.46-10.839,33.955-15.694   c2.842,2.071,5.581,4.258,8.239,6.547c-13.497,5.558-26.741,11.633-39.72,18.226c-6.547,3.325-13.026,6.777-19.423,10.356   c-22.921,12.806-44.933,27.247-65.863,43.229l38.961,22.496l48.303-27.891l45.254-26.119l18.065-10.436   c1.634,2.589,3.164,5.247,4.614,7.962L480.473,83.096z"/>
</g>
<g>
	<path style="fill:#D6C8B0;" d="M314.182,102.646l-50.03-28.881c1.449-2.716,2.98-5.374,4.614-7.962l16.086,9.286   c32.263-30.988,70.924-54.898,112.969-69.971c0.886,0.115,1.772,0.241,2.658,0.379c0.656,0.092,1.311,0.195,1.956,0.31   c0.771,0.126,1.531,0.264,2.289,0.402c1.242,0.23,2.474,0.484,3.705,0.76c0.46,0.092,0.921,0.195,1.38,0.299   c0.622,0.138,1.231,0.287,1.83,0.437c-24.117,3.533-45.819,14.44-62.721,30.4c-20.067,11.748-38.811,25.774-55.771,41.78   l23.07,13.313c-0.656,2.497-1.219,5.028-1.703,7.594C314.4,101.414,314.285,102.025,314.182,102.646z"/>
	<path style="fill:#D6C8B0;" d="M321.408,167.45c-25.061-13.554-49.063-28.984-71.835-46.209c0.368-3.51,0.886-6.984,1.542-10.402   c20.884,16.086,42.85,30.642,65.748,43.563c1.196,4.234,2.624,8.377,4.28,12.404C321.235,167.025,321.315,167.231,321.408,167.45z"/>
	<path style="fill:#D6C8B0;" d="M375.798,226.132c2.992,1.531,6.064,2.934,9.206,4.199v36.751c-1.531,0.069-3.06,0.092-4.603,0.092   c-1.542,0-3.072-0.023-4.603-0.092V248.57c-43.023-12.473-83.088-34.035-117.169-62.952c-2.324-5.65-4.268-11.506-5.788-17.524   c34.83,32.793,77.127,57.164,122.957,70.879V226.132z"/>
	<path style="fill:#D6C8B0;" d="M435.621,238.571c-0.518,5.788-1.127,11.564-1.83,17.34c-3.187,1.415-6.444,2.716-9.769,3.866   c0.909-6.996,1.692-13.992,2.335-21.011c0.748,0.023,1.508,0.023,2.278,0.023c1.357,0,2.704-0.011,4.061-0.08   C433.676,238.675,434.654,238.628,435.621,238.571z"/>
</g>
<g>
	<circle style="fill:#FCF8F2;" cx="449.233" cy="85.663" r="26.465"/>
	<circle style="fill:#FCF8F2;" cx="413.56" cy="52.87" r="13.233"/>
</g>
<g>
	<path style="fill:#F9EED7;" d="M475.698,85.663c0,3.418-0.656,6.685-1.841,9.688c-0.53-2.497-1.081-4.982-1.68-7.456   l-35.992,20.781c-2.877-1.611-5.408-3.774-7.479-6.317l45.254-26.119C475.087,79.161,475.698,82.348,475.698,85.663z"/>
	<path style="fill:#F9EED7;" d="M426.796,52.87c0,0.437-0.023,0.875-0.069,1.3c-6.547,3.325-13.026,6.777-19.423,10.356   c-2.842-1.519-5.051-4.062-6.167-7.111c7.606-4.28,15.315-8.4,23.116-12.324C425.852,47.266,426.796,49.959,426.796,52.87z"/>
</g>
<path style="fill:#F9AF6B;" d="M274.018,28.484c0,6.928-5.611,12.539-12.539,12.539H258c-3.459,0-6.593,1.4-8.871,3.668  c-2.267,2.278-3.668,5.413-3.668,8.871c0,6.917-5.611,12.539-12.539,12.539H131.662c-3.469,0-6.604-1.411-8.871-3.678  c-2.267-2.267-3.668-5.402-3.668-8.861c0-6.928,5.611-12.539,12.539-12.539h3.479c3.459,0,6.593-1.4,8.871-3.668  c2.267-2.278,3.668-5.413,3.668-8.871c0-1.463-0.251-2.863-0.711-4.159C169.424,13.73,193.666,6.311,219.13,2.633  c0.021,0.261,0.031,0.512,0.031,0.773c0,6.928,5.611,12.539,12.539,12.539h29.78c3.469,0,6.604,1.4,8.871,3.668  C272.618,21.891,274.018,25.025,274.018,28.484z"/>
<g>
</g>
<g>
</g>
<g>
</g>
<g>
</g>
<g>
</g>
<g>
</g>
<g>
</g>
<g>
</g>
<g>
</g>
<g>
</g>
<g>
</g>
<g>
</g>
<g>
</g>
<g>
</g>
<g>
</g>
</svg>
