<?xml version="1.0" encoding="iso-8859-1"?>
<!-- Generator: Adobe Illustrator 19.0.0, SVG Export Plug-In . SVG Version: 6.00 Build 0)  -->
<svg xmlns="http://www.w3.org/2000/svg" xmlns:xlink="http://www.w3.org/1999/xlink" version="1.1" id="Capa_1" x="0px" y="0px" viewBox="0 0 512 512" style="enable-background:new 0 0 512 512;" xml:space="preserve">
<path style="fill:#4BC999;" d="M512,256c0,15.245-1.337,30.187-3.897,44.701C486.964,420.77,382.14,512,256,512  c-16.99,0-33.593-1.651-49.654-4.817c-25.83-5.068-50.26-14.033-72.662-26.248c-14.305-7.784-27.773-16.906-40.26-27.199  c-25.255-20.773-46.467-46.299-62.245-75.222C11.295,342.131,0,300.377,0,256C0,114.615,114.615,0,256,0  c63.425,0,121.469,23.061,166.191,61.273c47.188,40.323,79.548,97.489,87.761,162.199c1.076,8.495,1.735,17.126,1.954,25.872  C511.969,251.549,512,253.774,512,256z"/>
<path style="fill:#3BB282;" d="M511.906,249.344H364.722c-5.193,0-9.895-2.111-13.302-5.507c-3.406-3.406-5.507-8.108-5.507-13.302  c0-10.386,8.422-18.808,18.808-18.808h57.177c5.193,0,9.895-2.1,13.302-5.507c3.406-3.396,5.507-8.098,5.507-13.302  c0-10.386-8.422-18.798-18.808-18.798h-15.956c-5.204,0-9.906-2.1-13.302-5.507c-3.406-3.406-5.507-8.108-5.507-13.302  c0-10.386,8.411-18.808,18.808-18.808h26.697c5.193,0,9.895-2.1,13.302-5.507s5.507-8.108,5.507-13.302  c0-10.386-8.422-18.808-18.808-18.808h-37.522c-5.193,0-9.895-2.1-13.302-5.507c-3.396-3.406-5.507-8.108-5.507-13.302  c0-10.386,8.422-18.808,18.808-18.808h27.073c47.188,40.323,79.548,97.489,87.761,162.199  C511.028,231.967,511.687,240.598,511.906,249.344z"/>
<path style="fill:#F9EED7;" d="M375.108,187.559c0,45.693-16.3,87.542-43.415,120.059c-19.989,24.001-45.881,42.914-75.452,54.533  c-21.264,8.37-44.439,12.957-68.692,12.957c-24.775,0-48.421-4.786-70.05-13.5c-29.048-11.682-54.481-30.417-74.188-54.094  C16.259,275.017,0,233.211,0,187.559c0-4.514,0.157-8.997,0.47-13.427c2.173-30.783,11.755-59.507,26.979-84.386  C53.269,47.532,95.316,16.353,144.959,4.848C158.636,1.672,172.899,0,187.549,0c15.862,0,31.263,1.964,45.976,5.674  c47.783,12.006,88.263,42.339,113.549,83.111c15.747,25.412,25.6,54.878,27.638,86.486  C374.972,179.336,375.108,183.432,375.108,187.559z"/>
<path style="fill:#E8DBC4;" d="M262.781,338.536c-24.775,0-48.421-4.786-70.05-13.5c-29.048-11.682-54.481-30.417-74.188-54.094  c-27.052-32.496-43.311-74.303-43.311-119.954c0-4.514,0.157-8.997,0.47-13.427c2.173-30.783,11.755-59.507,26.979-84.386  c11.306-18.484,25.723-34.854,42.527-48.381c-0.084,0.019-0.168,0.036-0.251,0.054C95.316,16.353,53.269,47.532,27.449,89.746  C12.225,114.625,2.644,143.35,0.47,174.132C0.157,178.563,0,183.045,0,187.559c0,45.652,16.259,87.458,43.311,119.954  c19.707,23.677,45.14,42.412,74.188,54.094c21.629,8.714,45.275,13.5,70.05,13.5c24.252,0,47.428-4.587,68.692-12.957  c17.781-6.986,34.218-16.626,48.855-28.409C291.497,336.873,277.336,338.536,262.781,338.536z"/>
<g>
	<rect x="182.45" y="30.641" style="fill:#5C5E70;" width="13.584" height="88.116"/>
	
		<rect x="36.15" y="146.128" transform="matrix(-0.9511 -0.3089 0.3089 -0.9511 110.725 323.3705)" style="fill:#5C5E70;" width="89.621" height="13.584"/>
	
		<rect x="115.611" y="232.723" transform="matrix(-0.809 -0.5878 0.5878 -0.809 58.4791 573.43)" style="fill:#5C5E70;" width="13.584" height="88.983"/>
	
		<rect x="208.281" y="270.255" transform="matrix(-0.5877 -0.8091 0.8091 -0.5877 176.8474 644.215)" style="fill:#5C5E70;" width="88.577" height="13.584"/>
	
		<rect x="286.855" y="108.811" transform="matrix(-0.309 -0.9511 0.9511 -0.309 238.7769 479.6768)" style="fill:#5C5E70;" width="13.584" height="88.569"/>
	<polygon style="fill:#5C5E70;" points="138.789,254.379 108.652,161.629 187.551,104.306 266.449,161.629 236.312,254.379  "/>
	<path style="fill:#5C5E70;" d="M374.711,175.271L329.289,141.5l17.784-52.715C362.82,114.197,372.673,143.663,374.711,175.271z"/>
	<path style="fill:#5C5E70;" d="M44.795,141.176L0.47,174.132c2.173-30.783,11.755-59.507,26.979-84.386L44.795,141.176z"/>
	<path style="fill:#5C5E70;" d="M331.692,307.618c-19.989,24.001-45.881,42.914-75.452,54.533l18.045-54.763L331.692,307.618z"/>
	<path style="fill:#5C5E70;" d="M117.499,361.608c-29.048-11.682-54.481-30.417-74.188-54.094l56.926,0.23L117.499,361.608z"/>
	<path style="fill:#5C5E70;" d="M233.524,5.674l-43.719,31.765l-44.847-32.59C158.636,1.672,172.899,0,187.549,0   C203.41,0,218.812,1.964,233.524,5.674z"/>
</g>
<g>
	<circle style="fill:#FCF8F2;" cx="282.122" cy="103.727" r="25.078"/>
	<circle style="fill:#FCF8F2;" cx="244.506" cy="66.111" r="12.539"/>
	<path style="fill:#FCF8F2;" d="M512,256c0,15.245-1.337,30.187-3.897,44.701L206.346,507.183   c-25.83-5.068-50.26-14.033-72.662-26.248l376.268-257.463C511.3,234.12,512,244.976,512,256z"/>
</g>
<path style="fill:#3BB282;" d="M174.132,434.939c0,10.386-8.422,18.798-18.808,18.798h-61.9  c-25.255-20.773-46.467-46.299-62.245-75.222h86.528c10.386,0,18.808,8.422,18.808,18.808c0,5.193,2.1,9.895,5.507,13.302  c3.406,3.396,8.108,5.507,13.302,5.507s9.895,2.1,13.302,5.507C172.032,425.033,174.132,429.735,174.132,434.939z"/>
<g>
</g>
<g>
</g>
<g>
</g>
<g>
</g>
<g>
</g>
<g>
</g>
<g>
</g>
<g>
</g>
<g>
</g>
<g>
</g>
<g>
</g>
<g>
</g>
<g>
</g>
<g>
</g>
<g>
</g>
</svg>
