<?xml version="1.0" encoding="iso-8859-1"?>
<!-- Generator: Adobe Illustrator 19.0.0, SVG Export Plug-In . SVG Version: 6.00 Build 0)  -->
<svg xmlns="http://www.w3.org/2000/svg" xmlns:xlink="http://www.w3.org/1999/xlink" version="1.1" id="Capa_1" x="0px" y="0px" viewBox="0 0 512 512" style="enable-background:new 0 0 512 512;" xml:space="preserve">
<path style="fill:#F9EED7;" d="M512,256c0,49.361-13.97,95.461-38.18,134.561c-5.015,8.108-10.47,15.903-16.321,23.374  c-2.1,2.675-4.253,5.298-6.457,7.889c-7.607,8.934-15.809,17.335-24.565,25.151c-12.131,10.836-25.286,20.532-39.33,28.912  c-8.746,5.224-17.826,9.947-27.199,14.116c-31.765,14.137-66.936,21.995-103.946,21.995c-47.835,0-92.598-13.113-130.894-35.955  c-14.179-8.453-27.481-18.233-39.716-29.184c-3.657-3.271-7.22-6.645-10.679-10.115c-14.858-14.9-27.899-31.629-38.734-49.81  c-12.486-20.94-22.068-43.802-28.191-68.054C2.699,298.767,0.003,277.692,0.003,256c0-3.939,0.094-7.858,0.272-11.755  C6.408,108.315,118.556,0.001,256.001,0.001c115.993,0,213.973,77.144,245.414,182.929c4.754,15.987,7.993,32.632,9.54,49.758  C511.644,240.368,512,248.142,512,256z"/>
<g>
	<path style="fill:#FCF8F2;" d="M347.631,257.013L347.631,257.013c0-6.87-5.569-12.439-12.439-12.439h-4.146   c-6.87,0-12.439-5.569-12.439-12.439l0,0c0-6.87-5.569-12.439-12.439-12.439H115.43c-6.87,0-12.439,5.569-12.439,12.439l0,0   c0,6.87,5.569,12.439,12.439,12.439h76.71c6.87,0,12.439,5.569,12.439,12.439l0,0c0,6.87-5.569,12.439-12.439,12.439h-34.937   c-6.87,0-12.439,5.569-12.439,12.439l0,0c0,6.87,5.569,12.439,12.439,12.439h10.554c6.87,0,12.439,5.569,12.439,12.439l0,0   c0,6.87-5.569,12.439-12.439,12.439h-37.815c-6.87,0-12.439,5.569-12.439,12.439l0,0c0,6.87,5.569,12.439,12.439,12.439h179.149   c6.87,0,12.439-5.569,12.439-12.439l0,0c0-6.87,5.569-12.439,12.439-12.439h1.223c6.87,0,12.439-5.569,12.439-12.439l0,0   c0-6.87-5.569-12.439-12.439-12.439h-22.806c-6.87,0-12.439-5.569-12.439-12.439l0,0c0-6.87,5.569-12.439,12.439-12.439h22.806   C342.062,269.453,347.631,263.884,347.631,257.013z"/>
	<path style="fill:#FCF8F2;" d="M89.665,281.568c0,6.865-5.569,12.434-12.445,12.434h-3.459c-3.438,0-6.541,1.39-8.788,3.647   c-2.257,2.247-3.647,5.36-3.647,8.798c0,6.865-5.569,12.434-12.445,12.434H7.787C2.699,298.767,0.003,277.692,0.003,256   c0-3.939,0.094-7.858,0.272-11.755h22.517c6.875,0,12.445,5.569,12.445,12.445c0,6.865,5.569,12.434,12.434,12.434h29.55   c3.438,0,6.551,1.39,8.798,3.647C88.275,275.017,89.665,278.131,89.665,281.568z"/>
	<path style="fill:#FCF8F2;" d="M451.041,421.824c-7.607,8.934-15.809,17.335-24.565,25.151   c-12.131,10.836-25.286,20.532-39.33,28.912c-8.746,5.224-17.826,9.947-27.199,14.116c-0.094-0.094-0.178-0.178-0.272-0.272   c-2.257-2.247-3.647-5.35-3.647-8.788c0-6.875,5.569-12.445,12.434-12.445h3.459c3.427,0,6.541-1.39,8.788-3.647   c2.257-2.247,3.647-5.36,3.647-8.788c0-6.875-5.569-12.445-12.434-12.445h-33.907c-3.438,0-6.551-1.39-8.798-3.647   c-2.257-2.246-3.647-5.35-3.647-8.788c0-6.875,5.569-12.445,12.445-12.445h104.824C445.983,418.742,448.857,419.9,451.041,421.824z   "/>
	<path style="fill:#FCF8F2;" d="M224.667,71.832L224.667,71.832c0-6.87-5.569-12.439-12.439-12.439H107.401   c-6.87,0-12.439,5.569-12.439,12.439l0,0c0,6.87,5.569,12.439,12.439,12.439h33.907c6.87,0,12.439,5.569,12.439,12.439l0,0   c0,6.87-5.569,12.439-12.439,12.439h-3.456c-6.87,0-12.439,5.569-12.439,12.439l0,0c0,6.87,5.569,12.439,12.439,12.439h100.467   c6.87,0,12.439-5.569,12.439-12.439l0,0c0-6.87,5.569-12.439,12.439-12.439h3.456c6.87,0,12.439-5.569,12.439-12.439l0,0   c0-6.87-5.569-12.439-12.439-12.439h-29.548C230.236,84.272,224.667,78.703,224.667,71.832z"/>
	<path style="fill:#FCF8F2;" d="M356.491,119.729L356.491,119.729c0-6.87,5.569-12.439,12.439-12.439h40.085   c6.87,0,12.439-5.569,12.439-12.439l0,0c0-6.87-5.569-12.439-12.439-12.439H290.842c-6.87,0-12.439,5.569-12.439,12.439l0,0   c0,6.87-5.569,12.439-12.439,12.439h-40.085c-6.87,0-12.439,5.569-12.439,12.439l0,0c0,6.87,5.569,12.439,12.439,12.439h59.437   c6.87,0,12.439,5.569,12.439,12.439l0,0c0,6.87,5.569,12.439,12.439,12.439h118.174c6.87,0,12.439-5.569,12.439-12.439l0,0   c0-6.87-5.569-12.439-12.439-12.439H368.93C362.06,132.169,356.491,126.599,356.491,119.729z"/>
	<path style="fill:#FCF8F2;" d="M510.955,232.688h-38.17c-3.438,0-6.541-1.39-8.788-3.647c-2.257-2.247-3.647-5.36-3.647-8.798   c0-6.865-5.569-12.434-12.434-12.434H428.22c-6.875,0-12.445-5.569-12.445-12.434v-0.01c0-6.865,5.569-12.434,12.445-12.434h73.195   C506.169,198.917,509.408,215.561,510.955,232.688z"/>
</g>
<path style="fill:#5C5E70;" d="M191.527,110.089H29.97c-18.72,0-32.857,16.976-29.466,35.387l7.436,40.382  c2.617,14.216,15.012,24.535,29.466,24.535h146.685c14.454,0,26.848-10.319,29.466-24.535l7.436-40.382  C224.383,127.065,210.248,110.089,191.527,110.089z"/>
<path style="fill:#494B5B;" d="M37.406,189.497c-4.374,0-8.122-3.121-8.914-7.422l-7.435-40.382  c-0.67-3.635,0.934-6.222,1.948-7.442c1.016-1.219,3.269-3.264,6.965-3.264h161.557c3.695,0,5.95,2.045,6.965,3.264  c1.015,1.219,2.617,3.808,1.949,7.442l-7.437,40.381c-0.792,4.301-4.541,7.423-8.913,7.423H37.406z"/>
<polygon style="fill:#5C5E70;" points="293.799,97.551 274.992,97.551 317.831,199.423 336.639,199.423 "/>
<path style="fill:#494B5B;" d="M333.175,210.395h-78.558c-5.77,0-10.449-4.678-10.449-10.449s4.679-10.449,10.449-10.449h78.558  c5.169,0,10.029-2.012,13.684-5.669l22.617-22.617c4.081-4.08,10.695-4.081,14.778,0c4.08,4.08,4.08,10.697,0,14.777l-22.617,22.617  C354.034,206.208,343.926,210.395,333.175,210.395z"/>
<path style="fill:#FF525D;" d="M315.738,108.523l-39.675,39.675c-8.714,8.714-20.532,13.615-32.862,13.615H73.563  c-16.06,0-30.981-8.296-39.466-21.932l-14.284-22.946c-7.043-11.316,0.92-25.997,14.242-26.279l76.873-1.578l44.951-0.93  l23.51-50.155l128.626,39.486C321.474,81.607,325.695,98.575,315.738,108.523z"/>
<path style="fill:#EF4152;" d="M190.518,161.812H73.563c-16.06,0-30.981-8.296-39.466-21.932l-14.284-22.946  c-7.043-11.316,0.92-25.997,14.242-26.279l76.873-1.578l39.476,10.7C150.404,99.777,123.645,148.836,190.518,161.812z"/>
<path style="fill:#34ABE0;" d="M233.916,54.732L195.505,3.909c-5.816-7.695-18.08-3.219-17.573,6.412l1.457,27.673L233.916,54.732z"/>
<path style="fill:#5C5E70;" d="M155.88,88.147l-5.475,11.635c-4.311,9.161-13.525,15.009-23.65,15.009H57.143L34.059,90.659  L155.88,88.147z"/>
<path style="fill:#FF6E7C;" d="M288.076,99.377l-67.967-18.828c-4.171-1.156-6.615-5.473-5.46-9.644l0,0  c1.156-4.171,5.473-6.615,9.644-5.46l67.967,18.828c4.171,1.156,6.615,5.473,5.46,9.644l0,0  C296.565,98.087,292.246,100.531,288.076,99.377z"/>
<path style="fill:#5C5E70;" d="M342.476,385.744l-4.18,22.716l-6.165,33.457c-3.636,19.78-20.877,34.126-40.981,34.126H125.108  c-14.179-8.453-27.481-18.233-39.716-29.184c-3.657-3.271-7.22-6.645-10.679-10.115c-14.858-14.9-27.899-31.629-38.734-49.81  l-0.219-1.191c-3.626-19.686,7.158-38.201,24.168-45.704c5.12-2.267,10.804-3.532,16.823-3.532h224.746  C327.535,336.508,347.199,360.134,342.476,385.744z"/>
<path style="fill:#494B5B;" d="M313.888,380.478l-2.184,11.849l-2.967,16.133l-5.193,28.191  c-1.097,5.987-6.311,10.324-12.392,10.324H87.095c-0.575,0-1.149-0.042-1.703-0.115c-3.657-3.271-7.22-6.645-10.679-10.115  c-0.01-0.031-0.01-0.063-0.021-0.094l-10.344-56.173c-0.93-5.057,1.296-8.652,2.706-10.355c1.243-1.473,3.783-3.824,7.816-4.399  c0.596-0.094,1.223-0.136,1.881-0.136h224.746c3.835,0,6.562,1.588,8.276,3.093c0.585,0.512,1.055,1.014,1.411,1.442  C312.593,371.826,314.818,375.421,313.888,380.478z"/>
<g>
	<path style="fill:#5C5E70;" d="M473.819,390.56c-5.015,8.108-10.47,15.903-16.321,23.374l-18.599-44.22l-21.295-50.646h26.154   l1.076,2.55l12.476,29.685L473.819,390.56z"/>
	<path style="fill:#5C5E70;" d="M426.475,446.975c-12.131,10.836-25.286,20.532-39.33,28.912   c-7.022-1.014-12.424-7.063-12.424-14.378c0-8.025,6.51-14.534,14.534-14.534H426.475z"/>
</g>
<path style="fill:#FFD15C;" d="M474.279,334.335l-55.181,55.191c-12.131,12.121-28.578,18.933-45.724,18.933H137.396  c-22.35,0-43.102-11.536-54.909-30.5l-19.863-31.932c-9.801-15.736,1.275-36.164,19.811-36.54l169.471-3.5l12.622-26.927  l20.083-42.841l178.927,54.919C482.262,296.886,488.124,320.491,474.279,334.335z"/>
<path style="fill:#34ABE0;" d="M360.46,259.504l-53.435-70.698c-8.091-10.704-25.151-4.478-24.445,8.92l2.026,38.497L360.46,259.504  z"/>
<path style="fill:#EDBB4C;" d="M338.297,408.46H137.396c-22.35,0-43.102-11.536-54.909-30.5l-19.863-31.932  c-9.801-15.736,1.275-36.164,19.811-36.54l169.471-3.5l12.622-26.927C264.528,279.06,232.575,387.196,338.297,408.46z"/>
<polygon style="fill:#5C5E70;" points="251.903,305.991 234.461,343.054 114.549,343.054 82.437,309.485 "/>
<path style="fill:#FFDC8D;" d="M438.756,322.429L338.299,294.6c-4.171-1.156-6.615-5.473-5.46-9.644l1.636-5.907  c1.156-4.171,5.473-6.615,9.644-5.46l100.457,27.829c4.171,1.156,6.615,5.473,5.46,9.644l-1.636,5.907  C447.244,321.139,442.926,323.584,438.756,322.429z"/>
<g>
	<path style="fill:#5C5E70;" d="M197.268,132.576H76.589c-4.761,0-8.62,3.859-8.62,8.62l0,0c0,4.761,3.859,8.62,8.62,8.62h120.679   c4.761,0,8.62-3.859,8.62-8.62l0,0C205.888,136.436,202.028,132.576,197.268,132.576z"/>
	<path style="fill:#5C5E70;" d="M309.273,368.667H134.427c-4.761,0-8.62,3.859-8.62,8.62v6.771c0,4.761,3.859,8.62,8.62,8.62   h174.846c4.761,0,8.62-3.859,8.62-8.62v-6.771C317.892,372.527,314.033,368.667,309.273,368.667z"/>
</g>
<g>
	<circle style="fill:#78CAEF;" cx="317.124" cy="228.935" r="9.579"/>
	<circle style="fill:#78CAEF;" cx="202.364" cy="28.493" r="6.966"/>
</g>
<g>
</g>
<g>
</g>
<g>
</g>
<g>
</g>
<g>
</g>
<g>
</g>
<g>
</g>
<g>
</g>
<g>
</g>
<g>
</g>
<g>
</g>
<g>
</g>
<g>
</g>
<g>
</g>
<g>
</g>
</svg>
