<?xml version="1.0" encoding="iso-8859-1"?>
<!-- Generator: Adobe Illustrator 19.0.0, SVG Export Plug-In . SVG Version: 6.00 Build 0)  -->
<svg xmlns="http://www.w3.org/2000/svg" xmlns:xlink="http://www.w3.org/1999/xlink" version="1.1" id="Capa_1" x="0px" y="0px" viewBox="0 0 512 512" style="enable-background:new 0 0 512 512;" xml:space="preserve">
<path style="fill:#4BC999;" d="M512,256c0,35.652-7.283,69.601-20.449,100.436C452.503,447.895,361.733,512,256,512  c-79.402,0-150.35-36.143-197.308-92.881c-10.376-12.528-19.571-26.06-27.429-40.438c-3.814-6.959-7.304-14.106-10.47-21.441  c-4.399-10.219-8.161-20.783-11.222-31.64C3.333,303.47,0,280.127,0,256C0,114.615,114.615,0,256,0  c123.862,0,227.182,87.97,250.88,204.842C510.245,221.372,512,238.477,512,256z"/>
<path style="fill:#5BD3A2;" d="M211.843,372.36c0,4.295-1.745,8.192-4.566,11.013c-2.821,2.821-6.719,4.566-11.024,4.566h-74.47  c-8.61,0-15.59,6.98-15.59,15.59c0,4.305-1.745,8.202-4.556,11.024c-2.821,2.821-6.719,4.566-11.024,4.566H58.692  c-10.376-12.528-19.571-26.06-27.429-40.438c0.857-1.933,1.337-4.075,1.337-6.322c0-7.304-5.026-13.437-11.807-15.12  c-4.399-10.219-8.161-20.783-11.222-31.64h105.284c8.61,0,15.59,6.98,15.59,15.579c0,4.305,1.745,8.202,4.566,11.024  c2.821,2.821,6.719,4.566,11.024,4.566h50.218C204.863,356.77,211.843,363.75,211.843,372.36z"/>
<path style="fill:#C69A6A;" d="M256.557,449.937c-22.429,0-42.514-11.596-53.728-31.019L24.132,109.404  C12.917,89.98,12.917,66.789,24.131,47.365s31.299-31.02,53.728-31.02h357.397c22.429,0,42.514,11.596,53.728,31.02  c11.213,19.424,11.213,42.615,0,62.039L310.282,418.918C299.07,438.342,278.985,449.937,256.557,449.937z M77.858,33.065  c-16.385,0-31.056,8.471-39.25,22.66c-8.192,14.189-8.192,31.131,0,45.32l178.699,309.514c8.192,14.189,22.863,22.66,39.248,22.66  c16.384,0,31.055-8.471,39.248-22.66l178.698-309.514l7.24,4.18l-7.24-4.18c8.193-14.189,8.193-31.131,0.001-45.32  c-8.193-14.189-22.865-22.66-39.249-22.66C435.255,33.065,77.858,33.065,77.858,33.065z"/>
<circle style="fill:#FF525D;" cx="84.52" cy="82.056" r="57.346"/>
<path style="fill:#EF4152;" d="M114.222,122.674c-31.671,0-57.346-25.674-57.346-57.346c0-15.245,5.96-29.089,15.663-39.36  C46.62,31.479,27.175,54.489,27.175,82.051c0,31.671,25.674,57.346,57.346,57.346c16.426,0,31.228-6.917,41.682-17.985  C122.338,122.233,118.332,122.674,114.222,122.674z"/>
<circle style="fill:#34ABE0;" cx="199.21" cy="82.056" r="57.346"/>
<path style="fill:#279FC9;" d="M228.913,122.674c-31.671,0-57.346-25.674-57.346-57.346c0-15.245,5.96-29.089,15.663-39.36  c-25.919,5.511-45.364,28.522-45.364,56.083c0,31.671,25.674,57.346,57.346,57.346c16.426,0,31.228-6.917,41.682-17.985  C237.029,122.233,233.023,122.674,228.913,122.674z"/>
<circle style="fill:#FF525D;" cx="313.898" cy="82.056" r="57.346"/>
<path style="fill:#EF4152;" d="M343.604,122.674c-31.671,0-57.346-25.674-57.346-57.346c0-15.245,5.96-29.089,15.663-39.36  c-25.919,5.511-45.364,28.522-45.364,56.083c0,31.671,25.674,57.346,57.346,57.346c16.426,0,31.228-6.917,41.682-17.985  C351.72,122.233,347.714,122.674,343.604,122.674z"/>
<circle style="fill:#FFD15C;" cx="428.596" cy="82.056" r="57.346"/>
<path style="fill:#EDBB4C;" d="M458.295,122.674c-31.671,0-57.346-25.674-57.346-57.346c0-15.245,5.96-29.089,15.663-39.36  c-25.919,5.511-45.364,28.522-45.364,56.083c0,31.671,25.674,57.346,57.346,57.346c16.426,0,31.228-6.917,41.682-17.985  C466.411,122.233,462.405,122.674,458.295,122.674z"/>
<circle style="fill:#FFD15C;" cx="141.866" cy="176.086" r="57.346"/>
<path style="fill:#EDBB4C;" d="M171.567,216.711c-31.671,0-57.346-25.674-57.346-57.346c0-15.245,5.96-29.089,15.663-39.36  c-25.919,5.511-45.364,28.522-45.364,56.083c0,31.671,25.674,57.346,57.346,57.346c16.426,0,31.228-6.917,41.682-17.985  C179.683,216.27,175.678,216.711,171.567,216.711z"/>
<circle style="fill:#5C5E70;" cx="256.554" cy="176.086" r="57.346"/>
<path style="fill:#494B5B;" d="M286.258,216.711c-31.671,0-57.346-25.674-57.346-57.346c0-15.245,5.96-29.089,15.663-39.36  c-25.919,5.511-45.364,28.522-45.364,56.083c0,31.671,25.674,57.346,57.346,57.346c16.426,0,31.228-6.917,41.682-17.985  C294.374,216.27,290.369,216.711,286.258,216.711z"/>
<circle style="fill:#34ABE0;" cx="371.252" cy="176.086" r="57.346"/>
<path style="fill:#279FC9;" d="M400.949,216.711c-31.671,0-57.346-25.674-57.346-57.346c0-15.245,5.96-29.089,15.663-39.36  c-25.919,5.511-45.364,28.522-45.364,56.083c0,31.671,25.674,57.346,57.346,57.346c16.426,0,31.228-6.917,41.682-17.985  C409.065,216.27,405.06,216.711,400.949,216.711z"/>
<circle style="fill:#FF525D;" cx="199.21" cy="266.564" r="57.346"/>
<path style="fill:#EF4152;" d="M228.913,307.19c-31.671,0-57.346-25.674-57.346-57.346c0-15.245,5.96-29.089,15.663-39.36  c-25.919,5.511-45.364,28.522-45.364,56.083c0,31.671,25.674,57.346,57.346,57.346c16.426,0,31.228-6.917,41.682-17.985  C237.029,306.749,233.023,307.19,228.913,307.19z"/>
<circle style="fill:#FFD15C;" cx="313.898" cy="266.564" r="57.346"/>
<path style="fill:#EDBB4C;" d="M343.604,307.19c-31.671,0-57.346-25.674-57.346-57.346c0-15.245,5.96-29.089,15.663-39.36  c-25.919,5.511-45.364,28.522-45.364,56.083c0,31.671,25.674,57.346,57.346,57.346c16.426,0,31.228-6.917,41.682-17.985  C351.72,306.749,347.714,307.19,343.604,307.19z"/>
<circle style="fill:#34ABE0;" cx="256.554" cy="357.992" r="57.346"/>
<path style="fill:#279FC9;" d="M286.258,398.614c-31.671,0-57.346-25.674-57.346-57.346c0-15.245,5.96-29.089,15.663-39.36  c-25.919,5.511-45.364,28.522-45.364,56.083c0,31.671,25.674,57.346,57.346,57.346c16.426,0,31.228-6.917,41.682-17.985  C294.374,398.173,290.369,398.614,286.258,398.614z"/>
<path style="fill:#5BD3A2;" d="M512,256c0,35.652-7.283,69.601-20.449,100.436H386.497c-4.19,0-7.973-1.693-10.721-4.441  c-2.748-2.738-4.441-6.531-4.441-10.71c0-8.38,6.792-15.161,15.161-15.161h46.08c4.19,0,7.983-1.703,10.721-4.441  c2.748-2.748,4.441-6.541,4.441-10.721c0-8.37-6.781-15.161-15.161-15.161h-12.863c-4.18,0-7.973-1.703-10.71-4.441  c-2.748-2.748-4.441-6.541-4.441-10.721c0-8.37,6.781-15.161,15.151-15.161h42.58c4.19,0,7.983-1.693,10.721-4.441  c2.748-2.738,4.441-6.531,4.441-10.721s-1.693-7.973-4.441-10.71c-2.738-2.748-6.531-4.441-10.721-4.441  c-4.18,0-7.973-1.693-10.721-4.441c-2.738-2.748-4.441-6.531-4.441-10.721c0-8.38,6.792-15.161,15.161-15.161h44.586  C510.245,221.372,512,238.477,512,256z"/>
<g>
	<circle style="fill:#FFDC8D;" cx="455.084" cy="63.864" r="15.672"/>
	<circle style="fill:#FFDC8D;" cx="427.593" cy="58.587" r="7.837"/>
	<circle style="fill:#FFDC8D;" cx="338.871" cy="246.93" r="15.672"/>
	<circle style="fill:#FFDC8D;" cx="311.38" cy="241.654" r="7.837"/>
	<circle style="fill:#FFDC8D;" cx="168.229" cy="158.062" r="15.672"/>
	<circle style="fill:#FFDC8D;" cx="140.737" cy="152.785" r="7.837"/>
</g>
<g>
	<circle style="fill:#797B89;" cx="285.257" cy="158.062" r="15.672"/>
	<circle style="fill:#797B89;" cx="257.766" cy="152.785" r="7.837"/>
</g>
<g>
	<circle style="fill:#78CAEF;" cx="224.977" cy="70.343" r="15.672"/>
	<circle style="fill:#78CAEF;" cx="197.486" cy="65.066" r="7.837"/>
	<circle style="fill:#78CAEF;" cx="280.033" cy="339.874" r="15.672"/>
	<circle style="fill:#78CAEF;" cx="252.541" cy="334.597" r="7.837"/>
	<circle style="fill:#78CAEF;" cx="402.077" cy="157.017" r="15.672"/>
	<circle style="fill:#78CAEF;" cx="374.596" cy="151.74" r="7.837"/>
</g>
<g>
	<circle style="fill:#FF6E7C;" cx="340.637" cy="63.864" r="15.672"/>
	<circle style="fill:#FF6E7C;" cx="313.145" cy="58.587" r="7.837"/>
	<circle style="fill:#FF6E7C;" cx="110.759" cy="61.931" r="15.672"/>
	<circle style="fill:#FF6E7C;" cx="83.268" cy="56.654" r="7.837"/>
	<circle style="fill:#FF6E7C;" cx="224.653" cy="248.968" r="15.672"/>
	<circle style="fill:#FF6E7C;" cx="197.162" cy="243.691" r="7.837"/>
</g>
<g>
</g>
<g>
</g>
<g>
</g>
<g>
</g>
<g>
</g>
<g>
</g>
<g>
</g>
<g>
</g>
<g>
</g>
<g>
</g>
<g>
</g>
<g>
</g>
<g>
</g>
<g>
</g>
<g>
</g>
</svg>
