<?xml version="1.0" encoding="iso-8859-1"?>
<!-- Generator: Adobe Illustrator 19.0.0, SVG Export Plug-In . SVG Version: 6.00 Build 0)  -->
<svg xmlns="http://www.w3.org/2000/svg" xmlns:xlink="http://www.w3.org/1999/xlink" version="1.1" id="Capa_1" x="0px" y="0px" viewBox="0 0 512 512" style="enable-background:new 0 0 512 512;" xml:space="preserve">
<path style="fill:#34ABE0;" d="M512,256c0,141.385-114.615,256-256,256c-26.352,0-51.764-3.981-75.682-11.368  c-54.376-16.802-101.01-51.242-133.224-96.632C17.429,362.214,0,311.139,0,256c0-8.067,0.376-16.039,1.108-23.907  c0.219-2.393,0.47-4.775,0.763-7.158c0.251-2.058,0.522-4.117,0.825-6.154c0.961-6.552,2.152-13.03,3.605-19.425  c0.533-2.403,1.118-4.786,1.724-7.158C36.362,81.68,136.641,0,256,0s219.638,81.68,247.975,192.199  c0.606,2.372,1.191,4.754,1.724,7.158c1.452,6.395,2.644,12.873,3.605,19.425c0.303,2.038,0.575,4.096,0.825,6.154  c0.293,2.382,0.543,4.765,0.763,7.158C511.624,239.961,512,247.933,512,256z"/>
<g>
	<path style="fill:#78CAEF;" d="M66.49,276.673L66.49,276.673c0-6.013,4.874-10.888,10.888-10.888h3.629   c6.013,0,10.888-4.874,10.888-10.888l0,0c0-6.013,4.874-10.888,10.888-10.888h166.953c6.013,0,10.888,4.874,10.888,10.888l0,0   c0,6.013-4.874,10.888-10.888,10.888h-67.144c-6.013,0-10.888,4.874-10.888,10.888l0,0c0,6.013,4.874,10.888,10.888,10.888h30.581   c6.013,0,10.888,4.874,10.888,10.888l0,0c0,6.013-4.874,10.888-10.888,10.888h-9.238c-6.013,0-10.888,4.874-10.888,10.888l0,0   c0,6.013,4.874,10.888,10.888,10.888h33.098c6.013,0,10.888,4.874,10.888,10.888l0,0c0,6.013-4.874,10.888-10.888,10.888H100.225   c-6.013,0-10.888-4.874-10.888-10.888l0,0c0-6.013-4.874-10.888-10.888-10.888h-1.07c-6.013,0-10.888-4.874-10.888-10.888l0,0   c0-6.013,4.874-10.888,10.888-10.888h19.962c6.013,0,10.888-4.874,10.888-10.888l0,0c0-6.013-4.874-10.888-10.888-10.888H77.379   C71.365,287.561,66.49,282.687,66.49,276.673z"/>
	<path style="fill:#78CAEF;" d="M246.998,452.03L246.998,452.03c0-6.014-4.874-10.889-10.888-10.889h-103.44   c-6.013,0-10.888,4.874-10.888,10.888v0.001c0,6.013,4.874,10.888,10.888,10.888h17.24c6.013,0,10.888,4.874,10.888,10.888v0.001   c0,6.013,4.874,10.888,10.888,10.888h86.2c6.013,0,10.888-4.874,10.888-10.888v-0.001c0-6.013-4.874-10.888-10.888-10.888l0,0   C251.873,462.918,246.998,458.042,246.998,452.03z"/>
</g>
<path style="fill:#C69A6A;" d="M180.318,223.483v277.149c-54.376-16.802-101.01-51.242-133.224-96.632V223.483H180.318z"/>
<path style="fill:#78CAEF;" d="M390.413,381.855L390.413,381.855c0-6.013-4.874-10.888-10.888-10.888H287.77  c-6.013,0-10.888,4.874-10.888,10.888l0,0c0,6.013,4.874,10.888,10.888,10.888h29.679c6.013,0,10.888,4.874,10.888,10.888l0,0  c0,6.013-4.874,10.888-10.888,10.888h-3.026c-6.013,0-10.888,4.874-10.888,10.888l0,0c0,6.013,4.874,10.888,10.888,10.888h87.94  c6.013,0,10.888-4.874,10.888-10.888l0,0c0-6.013,4.874-10.888,10.888-10.888h3.026c6.013,0,10.888-4.874,10.888-10.888l0,0  c0-6.013-4.874-10.888-10.888-10.888H401.3C395.287,392.743,390.413,387.868,390.413,381.855z"/>
<path style="fill:#F9EED7;" d="M509.304,218.781H2.696c3.605-24.743,10.742-48.337,20.898-70.249  c11.128-24.033,25.872-46.049,43.53-65.337C113.925,32.068,181.217,0,256,0C384.742,0,491.29,95.033,509.304,218.781z"/>
<g>
	<path style="fill:#FCF8F2;" d="M358.984,88.693L358.984,88.693c0-6.013,4.874-10.888,10.888-10.888h35.088   c6.013,0,10.888-4.874,10.888-10.888l0,0c0-6.013-4.874-10.888-10.888-10.888H301.521c-6.013,0-10.888,4.874-10.888,10.888l0,0   c0,6.013-4.874,10.888-10.888,10.888h-35.088c-6.013,0-10.888,4.874-10.888,10.888l0,0c0,6.013,4.874,10.888,10.888,10.888h52.025   c6.013,0,10.888,4.874,10.888,10.888l0,0c0,6.013,4.874,10.888,10.888,10.888h103.439c6.013,0,10.888-4.874,10.888-10.888l0,0   c0-6.013-4.874-10.888-10.888-10.888h-52.025C363.859,99.581,358.984,94.706,358.984,88.693z"/>
	<path style="fill:#FCF8F2;" d="M135.461,137.644c0,6.008-4.88,10.888-10.888,10.888H23.594   c11.128-24.033,25.872-46.049,43.53-65.337h40.511c2.999,0,5.726,1.223,7.701,3.187c1.964,1.975,3.187,4.702,3.187,7.701   c0,6.019-4.88,10.888-10.888,10.888H72.547c-6.019,0-10.888,4.88-10.888,10.898c0,6.008,4.869,10.888,10.888,10.888h52.025   c3.009,0,5.726,1.212,7.701,3.187C134.238,131.918,135.461,134.635,135.461,137.644z"/>
</g>
<path style="fill:#78CAEF;" d="M317.192,198.925h-16.718v-32.801c0-8.296-5.593-15.609-13.6-17.78l-131.375-35.628  c-5.584-1.515-11.422-0.367-16.014,3.148c-4.594,3.514-7.23,8.847-7.23,14.632v68.429h-16.718v-68.429  c0-11.034,5.027-21.206,13.79-27.91c8.764-6.704,19.897-8.893,30.548-6.005l131.375,35.628  c15.274,4.143,25.943,18.089,25.943,33.915v32.801H317.192z"/>
<path style="fill:#34ABE0;" d="M239.366,198.925h-16.718v-32.801c0-8.296-5.593-15.609-13.6-17.78L77.672,112.715  c-5.584-1.515-11.422-0.367-16.014,3.148c-4.594,3.514-7.23,8.847-7.23,14.632v68.429H37.71v-68.429  c0-11.034,5.027-21.206,13.79-27.91c8.764-6.704,19.897-8.893,30.548-6.005l131.375,35.628  c15.274,4.143,25.943,18.089,25.943,33.915v32.801H239.366z"/>
<path style="fill:#279FC9;" d="M510.892,232.093H1.108c0.219-2.393,0.47-4.775,0.763-7.158c0.251-2.058,0.522-4.117,0.825-6.154  c0.961-6.552,2.152-13.03,3.605-19.425h499.399c1.452,6.395,2.644,12.873,3.605,19.425c0.303,2.038,0.575,4.096,0.825,6.154  C510.422,227.318,510.673,229.7,510.892,232.093z"/>
<path style="fill:#5C5E70;" d="M314.198,193.7H46.433c-11.751,0-21.277,9.526-21.277,21.277v17.002  c0,11.751,9.526,21.277,21.277,21.277h267.764c11.751,0,21.277-9.526,21.277-21.277v-17.002  C335.475,203.226,325.949,193.7,314.198,193.7z"/>
<g>
	<path style="fill:#F9EED7;" d="M35.341,309.675h11.753v-23.507H35.341c-6.491,0-11.753,5.262-11.753,11.754l0,0   C23.586,304.413,28.849,309.675,35.341,309.675z"/>
	<path style="fill:#F9EED7;" d="M35.341,354.344h11.753v-23.507H35.341c-6.491,0-11.753,5.262-11.753,11.754l0,0   C23.586,349.082,28.849,354.344,35.341,354.344z"/>
</g>
<polygon style="fill:#B58657;" points="180.318,275.198 47.094,309.675 46.433,253.256 180.318,253.256 "/>
<path style="fill:#797B89;" d="M304.129,225.045H178.748c-4.328,0-7.837-3.509-7.837-7.837l0,0c0-4.328,3.509-7.837,7.837-7.837  h125.381c4.328,0,7.837,3.509,7.837,7.837l0,0C311.966,221.537,308.457,225.045,304.129,225.045z"/>
<path style="fill:#D3AA81;" d="M156.023,453.866L156.023,453.866c-6.492,0-11.754-5.263-11.754-11.754V330.836  c0-6.492,5.263-11.754,11.754-11.754l0,0c6.492,0,11.754,5.263,11.754,11.754v111.276  C167.777,448.604,162.514,453.866,156.023,453.866z"/>
<path style="fill:#279FC9;" d="M401.3,257.437c-28.564,0-51.72,23.156-51.72,51.719c0,28.564,23.156,51.72,51.72,51.72  c28.564,0,51.72-23.156,51.72-51.72C453.02,280.592,429.865,257.437,401.3,257.437z M401.3,331.141  c-12.142,0-21.985-9.843-21.985-21.985c0-12.142,9.843-21.985,21.985-21.985c12.142,0,21.985,9.843,21.985,21.985  C423.285,321.298,413.442,331.141,401.3,331.141z"/>
<path style="fill:#F9EED7;" d="M401.3,246.988c-28.564,0-51.72,23.156-51.72,51.719c0,28.564,23.156,51.72,51.72,51.72  c28.564,0,51.72-23.156,51.72-51.72C453.02,270.143,429.865,246.988,401.3,246.988z M401.3,320.692  c-12.142,0-21.985-9.843-21.985-21.985c0-12.142,9.843-21.985,21.985-21.985c12.142,0,21.985,9.843,21.985,21.985  C423.285,310.849,413.442,320.692,401.3,320.692z"/>
<path style="fill:#FF525D;" d="M423.285,298.705c0,12.142-9.843,21.985-21.985,21.985v29.738c28.568,0,51.722-23.155,51.722-51.722  H423.285z M401.3,246.983c-28.568,0-51.722,23.165-51.722,51.722h29.738c0-12.142,9.843-21.985,21.985-21.985V246.983z"/>
<g>
	<circle style="fill:#FCF8F2;" cx="435.722" cy="277.18" r="7.662"/>
	<circle style="fill:#FCF8F2;" cx="423.863" cy="263.095" r="5.552"/>
</g>
<g>
</g>
<g>
</g>
<g>
</g>
<g>
</g>
<g>
</g>
<g>
</g>
<g>
</g>
<g>
</g>
<g>
</g>
<g>
</g>
<g>
</g>
<g>
</g>
<g>
</g>
<g>
</g>
<g>
</g>
</svg>
