<?xml version="1.0" encoding="iso-8859-1"?>
<!-- Generator: Adobe Illustrator 19.0.0, SVG Export Plug-In . SVG Version: 6.00 Build 0)  -->
<svg xmlns="http://www.w3.org/2000/svg" xmlns:xlink="http://www.w3.org/1999/xlink" version="1.1" id="Capa_1" x="0px" y="0px" viewBox="0 0 512 512" style="enable-background:new 0 0 512 512;" xml:space="preserve">
<path style="fill:#5C5E70;" d="M509.409,258.59c0,0.548,0,1.096-0.01,1.645c-0.031,5.306-0.228,10.581-0.59,15.804  c-2.906,42.945-16.539,82.974-38.229,117.396c-5.203,8.264-10.871,16.208-16.963,23.789  c-35.426,44.083-85.311,76.064-142.458,88.755C293.411,509.921,274.949,512,256,512c-44.073,0-85.497-11.243-121.595-31.04h-0.01  c-22.124-12.112-42.231-27.43-59.712-45.334c-8.781-8.999-16.901-18.638-24.276-28.858c-5.254-7.262-10.126-14.822-14.584-22.652  c-2.906-5.089-5.647-10.281-8.202-15.577c-5.761-11.936-10.612-24.4-14.46-37.298C6.283,308.227,2.59,283.838,2.59,258.59  c0-25.258,3.693-49.648,10.571-72.661c2.182-7.292,4.675-14.439,7.478-21.442c24.472-61.17,72.113-110.569,132.052-137.358  C184.249,13.021,219.209,5.181,256,5.181c85.632,0,161.344,42.469,207.217,107.497c0.165,0.248,0.341,0.486,0.507,0.734  c11.067,15.794,20.366,32.912,27.627,51.075c9.712,24.234,15.773,50.32,17.521,77.574c0.321,4.923,0.496,9.888,0.528,14.894  C509.409,257.504,509.409,258.042,509.409,258.59z"/>
<path style="fill:#34ABE0;" d="M491.35,164.487H20.639c3.082-7.706,6.537-15.225,10.333-22.538  c14.574-28.051,34.236-53.03,57.767-73.716c16.756-14.749,35.457-27.296,55.688-37.236C178.095,14.469,215.961,5.181,256,5.181  c85.632,0,161.344,42.469,207.217,107.497c0.165,0.248,0.341,0.486,0.507,0.734C474.791,129.206,484.089,146.325,491.35,164.487z"/>
<path style="fill:#78CAEF;" d="M247.601,86.851c0,10.281-8.337,18.618-18.618,18.618h-5.172c-5.141,0-9.795,2.079-13.167,5.451  c-3.372,3.372-5.451,8.026-5.451,13.167c0,10.281-8.337,18.618-18.618,18.618H36.216c-1.82,0-3.579-0.259-5.244-0.755  c14.574-28.051,34.236-53.03,57.767-73.716c16.756-14.749,35.457-27.296,55.688-37.236h3.103c10.281,0,18.618,8.337,18.618,18.618  s8.337,18.618,18.618,18.618h44.217c5.141,0,9.795,2.079,13.167,5.451C245.522,77.056,247.601,81.71,247.601,86.851z"/>
<path style="fill:#797B89;" d="M470.581,393.435c-5.203,8.264-10.871,16.208-16.963,23.789  c-35.426,44.083-85.311,76.064-142.458,88.755c-1.748-0.559-3.62-0.848-5.554-0.848h-15.794c-5.141,0-9.795-2.079-13.167-5.451  c-3.372-3.372-5.451-8.026-5.451-13.167c0-10.281,8.337-18.618,18.618-18.618h52.285c5.141,0,9.795-2.079,13.167-5.451  c3.362-3.372,5.451-8.026,5.451-13.167c0-10.281-8.337-18.618-18.618-18.618h-114.8c-5.141,0-9.795-2.079-13.167-5.451  c-3.372-3.372-5.451-8.026-5.451-13.167c0-10.281,8.337-18.607,18.618-18.607H470.581z"/>
<g>
	<polygon style="fill:#FF525D;" points="278.898,220.076 359.449,186.061 355.288,176.21 288.316,204.491 283.089,142.46    272.433,143.358  "/>
	<path style="fill:#FF525D;" d="M264.02,242.11c1.568,0,3.123-0.687,4.179-2.007l19.584-24.479c1.845-2.306,1.471-5.67-0.835-7.515   c-2.306-1.845-5.671-1.471-7.515,0.835l-19.584,24.479c-1.845,2.306-1.471,5.67,0.835,7.515   C261.669,241.727,262.848,242.11,264.02,242.11z"/>
</g>
<path style="fill:#EDBB4C;" d="M226.354,87.391l17.11,6.186c10.455,3.775,17.423,13.705,17.423,24.826v16.493  c0,2.682,0.88,5.207,2.402,7.256c1.521,2.048,3.685,3.619,6.26,4.385c6.145,1.842,12.66-1.398,14.897-7.412l2.822-7.617  c3.356-9.032,13.064-14.001,22.358-11.443l29.227,8.045c10.126,2.789,16.789,11.944,16.847,21.972  c0.008,1.991-0.239,4.014-0.774,6.029l-2.27,8.555c-4.828,18.171,5.075,37.026,22.778,43.367c6.877,2.46,14.519,0.946,20.014-3.875  c24.078-21.109,39.378-51.989,39.732-86.44c0.279-27.886-9.385-53.692-25.69-73.994C388.654,17.79,356.984,0.836,321.373,0.031  c-45.366-1.028-85.008,23.872-105.145,60.913C210.774,70.972,215.619,83.508,226.354,87.391z"/>
<path style="fill:#FFD15C;" d="M226.354,87.391l17.11,6.186c10.455,3.775,17.423,13.705,17.423,24.826v16.493  c0,2.682,0.88,5.207,2.402,7.256c1.521,2.048,3.685,3.619,6.26,4.385c6.145,1.842,12.66-1.398,14.897-7.412l2.822-7.617  c3.356-9.032,13.064-14.001,22.358-11.443l29.227,8.045c10.126,2.789,16.789,11.944,16.847,21.972  c32.534-19.175,54.358-54.572,54.358-95.069c0-3.808-0.198-7.576-0.568-11.286C388.654,17.79,356.984,0.836,321.373,0.031  c-45.366-1.028-85.008,23.872-105.145,60.913C210.774,70.972,215.619,83.508,226.354,87.391z"/>
<g>
	<path style="fill:#5C5E70;" d="M355.641,116.171c2.216,0,4.287-1.388,5.053-3.6l6.083-17.581c0.966-2.791-0.514-5.836-3.305-6.802   c-2.79-0.967-5.836,0.513-6.802,3.305l-6.083,17.581c-0.966,2.791,0.514,5.836,3.305,6.802   C354.472,116.076,355.061,116.171,355.641,116.171z"/>
	<path style="fill:#5C5E70;" d="M336.672,109.608c2.216,0,4.287-1.388,5.053-3.6l6.083-17.581c0.966-2.791-0.514-5.836-3.305-6.802   c-2.79-0.967-5.836,0.513-6.802,3.305l-6.083,17.581c-0.966,2.791,0.514,5.836,3.305,6.802   C335.502,109.512,336.092,109.608,336.672,109.608z"/>
	<path style="fill:#5C5E70;" d="M317.702,103.044c2.216,0,4.287-1.388,5.053-3.6l6.083-17.581c0.966-2.791-0.514-5.836-3.305-6.802   c-2.79-0.968-5.836,0.514-6.802,3.305l-6.083,17.581c-0.966,2.791,0.514,5.836,3.305,6.802   C316.533,102.949,317.122,103.044,317.702,103.044z"/>
</g>
<g>
	<circle style="fill:#FFDC8D;" cx="285.598" cy="44.527" r="19.125"/>
	<circle style="fill:#FFDC8D;" cx="314.073" cy="23.038" r="9.562"/>
</g>
<path style="fill:#C69A6A;" d="M509.399,100.887v175.153H148.058V100.887h45.676c0,74.554,60.446,134.99,135,134.99  c70.582,0,128.515-54.168,134.483-123.198c0.331-3.889,0.507-7.819,0.507-11.791C463.723,100.887,509.399,100.887,509.399,100.887z"/>
<path style="fill:#D3AA81;" d="M463.728,100.887v296.986h-269.99V100.887c0,74.554,60.446,134.99,135,134.99  S463.728,175.441,463.728,100.887z"/>
<path style="fill:#B58657;" d="M509.409,242.062v16.528c0,0.548,0,1.096-0.01,1.645v15.804h-0.59  c-3.61,53.257-23.696,102.015-55.192,141.185h-305.56V242.062h45.686c0,11.74,1.5,23.117,4.313,33.978  c15.06,58.108,67.862,101.012,130.677,101.012S444.35,334.148,459.41,276.039c2.813-10.86,4.313-22.238,4.313-33.978  L509.409,242.062L509.409,242.062z"/>
<path style="fill:#FF525D;" d="M179.594,88.392v318.52c0,32.271-18.349,60.239-45.19,74.047c0,0.01-0.01,0-0.01,0  c-22.124-12.112-42.231-27.43-59.712-45.334c-28.258-28.93-49.648-64.604-61.522-104.384V88.392c0-10.085,1.789-19.756,5.089-28.703  C22.449,48.26,29.079,38,37.53,29.549C52.6,14.5,73.39,5.181,96.383,5.181c21.721,0,41.497,8.316,56.309,21.948  c9.65,8.875,17.201,20.004,21.824,32.561C177.805,68.636,179.594,78.307,179.594,88.392z"/>
<rect x="44.797" y="99.026" style="fill:#5C5E70;" width="103.164" height="12.93"/>
<g>
	<path style="fill:#F9EED7;" d="M155.415,130.468L155.415,130.468c8.084,0,14.637-6.553,14.637-14.637V95.168   c0-8.084-6.553-14.637-14.637-14.637l0,0c-8.084,0-14.637,6.553-14.637,14.637v20.664   C140.778,123.915,147.331,130.468,155.415,130.468z"/>
	<path style="fill:#F9EED7;" d="M37.349,130.468L37.349,130.468c8.084,0,14.637-6.553,14.637-14.637V95.168   c0-8.084-6.553-14.637-14.637-14.637l0,0c-8.084,0-14.637,6.553-14.637,14.637v20.664   C22.712,123.915,29.266,130.468,37.349,130.468z"/>
</g>
<g>
	<path style="fill:#E8DBC4;" d="M140.779,96.623v19.218c0,8.081,6.546,14.627,14.627,14.627c8.098,0,14.644-6.546,14.644-14.627   V96.623c0,8.081-6.546,14.644-14.644,14.644C147.325,111.267,140.779,104.705,140.779,96.623z"/>
	<path style="fill:#E8DBC4;" d="M22.709,96.623v19.218c0,8.081,6.562,14.627,14.644,14.627s14.627-6.546,14.627-14.627V96.623   c0,8.081-6.545,14.644-14.627,14.644S22.709,104.705,22.709,96.623z"/>
</g>
<path style="fill:#EF4152;" d="M92.68,145.681h7.404c5.757,0,10.423-4.667,10.423-10.423V91.814c0-5.757-4.667-10.423-10.423-10.423  H92.68c-5.757,0-10.423,4.667-10.423,10.423v43.445C82.257,141.015,86.924,145.681,92.68,145.681z"/>
<rect x="44.797" y="383.351" style="fill:#5C5E70;" width="103.164" height="12.93"/>
<g>
	<path style="fill:#F9EED7;" d="M155.415,364.845L155.415,364.845c8.084,0,14.637,6.553,14.637,14.637v20.664   c0,8.084-6.553,14.637-14.637,14.637l0,0c-8.084,0-14.637-6.553-14.637-14.637v-20.664   C140.778,371.399,147.331,364.845,155.415,364.845z"/>
	<path style="fill:#F9EED7;" d="M51.99,379.482v20.666c0,2.389-0.569,4.634-1.583,6.62c-8.668-11.988-16.301-24.782-22.786-38.229   c2.586-2.296,5.999-3.693,9.723-3.693C45.432,364.846,51.99,371.394,51.99,379.482z"/>
</g>
<g>
	<path style="fill:#E8DBC4;" d="M140.779,398.69v-19.218c0-8.081,6.546-14.627,14.627-14.627c8.098,0,14.644,6.546,14.644,14.627   v19.218c0-8.081-6.546-14.644-14.644-14.644C147.325,384.046,140.779,390.609,140.779,398.69z"/>
	<path style="fill:#E8DBC4;" d="M51.979,379.472v19.218c0-8.078-6.547-14.646-14.625-14.646c-0.517,0-1.024,0.031-1.531,0.072   c-2.906-5.089-5.647-10.281-8.202-15.577c2.586-2.296,5.999-3.693,9.733-3.693C45.432,364.846,51.979,371.394,51.979,379.472z"/>
</g>
<path style="fill:#EF4152;" d="M92.68,349.632h7.404c5.757,0,10.423,4.667,10.423,10.423V403.5c0,5.757-4.667,10.423-10.423,10.423  H92.68c-5.757,0-10.423-4.667-10.423-10.423v-43.445C82.257,354.299,86.924,349.632,92.68,349.632z"/>
<g>
	<path style="fill:#FF6E7C;" d="M135.058,153.416v118.351c0,7.321,5.935,13.255,13.255,13.255l0,0   c7.321,0,13.255-5.935,13.255-13.255V153.416c0-7.321-5.935-13.255-13.255-13.255l0,0   C140.993,140.161,135.058,146.096,135.058,153.416z"/>
	<path style="fill:#FF6E7C;" d="M135.058,324.186L135.058,324.186c0,7.321,5.935,13.255,13.255,13.255l0,0   c7.321,0,13.255-5.935,13.255-13.255l0,0c0-7.321-5.935-13.255-13.255-13.255l0,0C140.993,310.93,135.058,316.865,135.058,324.186z   "/>
</g>
<g>
	<path style="fill:#EF4152;" d="M96.386,5.181c-22.993,0-43.785,9.316-58.853,24.371c-8.45,8.45-15.083,18.704-19.286,30.137   h156.265C162.823,27.876,132.26,5.181,96.386,5.181z"/>
	<path style="fill:#EF4152;" d="M174.516,435.625c-7.23,19.673-21.669,35.85-40.121,45.334   c-22.124-12.112-42.231-27.43-59.712-45.334H174.516z"/>
</g>
<g>
</g>
<g>
</g>
<g>
</g>
<g>
</g>
<g>
</g>
<g>
</g>
<g>
</g>
<g>
</g>
<g>
</g>
<g>
</g>
<g>
</g>
<g>
</g>
<g>
</g>
<g>
</g>
<g>
</g>
</svg>
