<?xml version="1.0" encoding="iso-8859-1"?>
<!-- Generator: Adobe Illustrator 19.0.0, SVG Export Plug-In . SVG Version: 6.00 Build 0)  -->
<svg xmlns="http://www.w3.org/2000/svg" xmlns:xlink="http://www.w3.org/1999/xlink" version="1.1" id="Capa_1" x="0px" y="0px" viewBox="0 0 512 512" style="enable-background:new 0 0 512 512;" xml:space="preserve">
<path style="fill:#34ABE0;" d="M512,256c0,66.142-25.088,126.433-66.288,171.865c-8.829,9.759-18.411,18.84-28.662,27.126  c-19.864,16.112-42.183,29.299-66.32,38.912c-0.731,0.293-1.463,0.575-2.194,0.867c-10.553,4.086-21.441,7.502-32.622,10.177  c-5.569,1.337-11.201,2.497-16.906,3.448h-0.01c-3.594,0.616-7.22,1.149-10.857,1.599c-9.153,1.149-18.453,1.818-27.878,1.964  c-0.481,0.01-0.972,0.021-1.452,0.021h-0.01C257.87,512,256.93,512,256,512c-32.695,0-63.958-6.123-92.703-17.303  c-19.769-7.68-38.337-17.742-55.38-29.842c-13.939-9.906-26.854-21.18-38.536-33.614c-1.484-1.578-2.957-3.187-4.399-4.807  c-1.39-1.546-2.759-3.114-4.096-4.702c-5.956-7.001-11.536-14.326-16.718-21.943c-7.21-10.585-13.636-21.744-19.205-33.395  c-3.887-8.108-7.356-16.457-10.386-25.015C5.141,314.671,0,285.936,0,256c0-15.924,1.452-31.504,4.242-46.623  c1.567-8.579,3.574-17,5.987-25.255C41.294,77.72,139.567,0,256,0C397.385,0,512,114.615,512,256z"/>
<g>
	<path style="fill:#78CAEF;" d="M473.049,288.408L473.049,288.408c0-6.974-5.653-12.627-12.627-12.627h-4.209   c-6.974,0-12.627-5.653-12.627-12.627l0,0c0-6.974-5.653-12.627-12.627-12.627H237.353c-6.974,0-12.627,5.653-12.627,12.627l0,0   c0,6.974,5.653,12.627,12.627,12.627h77.864c6.974,0,12.627,5.653,12.627,12.627l0,0c0,6.974-5.653,12.627-12.627,12.627h-35.463   c-6.974,0-12.627,5.653-12.627,12.627l0,0c0,6.974,5.653,12.627,12.627,12.627h10.713c6.974,0,12.627,5.653,12.627,12.627l0,0   c0,6.974-5.653,12.627-12.627,12.627h-38.383c-6.974,0-12.627,5.653-12.627,12.627l0,0c0,6.974,5.653,12.627,12.627,12.627h181.845   c6.974,0,12.627-5.653,12.627-12.627l0,0c0-6.974,5.653-12.627,12.627-12.627h1.24c6.974,0,12.627-5.653,12.627-12.627l0,0   c0-6.974-5.653-12.627-12.627-12.627h-23.149c-6.974,0-12.627-5.653-12.627-12.627l0,0c0-6.974,5.653-12.627,12.627-12.627h23.149   C467.395,301.034,473.049,295.381,473.049,288.408z"/>
	<path style="fill:#78CAEF;" d="M445.712,427.865c-8.829,9.759-18.411,18.84-28.662,27.126c-1.923-1.191-4.19-1.87-6.604-1.87   h-34.419c-3.49,0-6.646-1.411-8.934-3.699c-2.288-2.278-3.699-5.433-3.699-8.923c0-6.98,5.653-12.633,12.633-12.633   L445.712,427.865L445.712,427.865z"/>
	<path style="fill:#78CAEF;" d="M204.194,221.999c0,6.969-5.653,12.622-12.622,12.622H71.617c-3.49,0-6.646-1.411-8.934-3.699   c-2.288-2.288-3.699-5.444-3.699-8.923c0-6.969-5.653-12.622-12.622-12.622H4.242c1.567-8.579,3.574-17,5.987-25.255h16.488   c3.48,0,6.635-1.411,8.923-3.699c2.288-2.288,3.699-5.444,3.699-8.934c0-6.969,5.653-12.622,12.633-12.622h119.954   c3.49,0,6.646,1.411,8.923,3.699c2.288,2.288,3.699,5.444,3.699,8.923c0,6.98-5.653,12.633-12.622,12.633h-40.688   c-6.98,0-12.633,5.653-12.633,12.622c0,6.98,5.653,12.633,12.633,12.633h60.332c3.49,0,6.646,1.411,8.923,3.699   C202.783,215.364,204.194,218.52,204.194,221.999z"/>
	<path style="fill:#78CAEF;" d="M173.413,346.768v-0.001c0-6.973-5.653-12.626-12.626-12.626H40.834   c-6.974,0-12.626,5.653-12.626,12.626v0.001c0,6.974,5.653,12.626,12.626,12.626h19.992c6.974,0,12.625,5.653,12.625,12.626v0.001   c0,6.974,5.653,12.626,12.626,12.626h99.961c6.974,0,12.626-5.653,12.626-12.626v-0.001c0-6.974-5.653-12.626-12.626-12.626l0,0   C179.066,359.395,173.413,353.742,173.413,346.768z"/>
</g>
<path style="fill:#5C5E70;" d="M381.548,223.684H80.747V85.064h300.801c38.224,0,69.322,31.096,69.322,69.31  C450.868,192.6,419.772,223.684,381.548,223.684z"/>
<rect x="269.176" y="77.219" style="fill:#C69A6A;" width="55.38" height="153.6"/>
<rect x="80.75" y="82.443" style="fill:#41B787;" width="22.288" height="146.286"/>
<rect x="269.176" y="197.381" style="fill:#B58657;" width="55.38" height="33.437"/>
<rect x="155.805" y="77.219" style="fill:#C69A6A;" width="55.38" height="153.6"/>
<rect x="155.805" y="197.381" style="fill:#B58657;" width="55.38" height="33.437"/>
<path style="fill:#4BC999;" d="M511.997,154.309C511.961,68.837,441.62,0.001,356.146,0.001h-275.4  c-24.814,0-44.931,20.116-44.931,44.931l0,0c0,24.814,20.116,44.931,44.931,44.931h275.898c35.408,0,64.953,28.123,65.484,63.528  c0.539,36.028-28.609,65.496-64.515,65.496H80.747c-24.814,0-44.931,20.116-44.931,44.931l0,0c0,24.814,20.116,44.931,44.931,44.931  h276.867C442.899,308.747,512.031,239.603,511.997,154.309z"/>
<path style="fill:#5BD3A2;" d="M470.502,161.665c7.55-0.016,13.339,6.59,12.472,14.09c-7.015,60.681-58.686,107.915-121.181,107.915  h-40.008c-6.525,0-12.238-4.834-12.849-11.331c-0.701-7.455,5.169-13.747,12.482-13.747h40.375  c49.689,0,90.764-37.585,96.284-85.814C458.8,166.456,464.138,161.677,470.502,161.665L470.502,161.665z"/>
<g>
	<path style="fill:#41B787;" d="M80.747,25.021h275.4c81.292,0,148.892,62.267,155.342,141.891   c0.334-4.157,0.511-8.358,0.509-12.601C511.961,68.837,441.62,0.001,356.146,0.001h-275.4c-24.814,0-44.931,20.116-44.931,44.931   l0,0c0,4.344,0.629,8.537,1.778,12.51C43.013,38.717,60.275,25.021,80.747,25.021z"/>
	<path style="fill:#41B787;" d="M80.747,243.906h276.867c35.906,0,65.054-29.468,64.515-65.496   c-0.059-3.922-0.493-7.747-1.232-11.461c-5.867,29.576-32.007,51.938-63.283,51.938H80.747c-24.814,0-44.931,20.116-44.931,44.931   l0,0c0,4.344,0.629,8.537,1.778,12.51C43.013,257.602,60.275,243.906,80.747,243.906z"/>
</g>
<g>
	<circle style="fill:#5BD3A2;" cx="282.269" cy="271.13" r="12.539"/>
	<path style="fill:#5BD3A2;" d="M314.104,69.382L314.104,69.382c0,6.059-4.912,10.971-10.971,10.971h-153.6   c-6.059,0-10.971-4.912-10.971-10.971l0,0c0-6.059,4.912-10.971,10.971-10.971h153.6C309.192,58.411,314.104,63.323,314.104,69.382   z"/>
</g>
<path style="fill:#5C5E70;" d="M289.614,495.752c0,4.88-0.512,9.644-1.473,14.242c-9.153,1.149-18.453,1.818-27.878,1.964  c-0.481,0.01-0.972,0.021-1.452,0.021h-0.01C257.87,512,256.93,512,256,512c-32.695,0-63.958-6.123-92.703-17.303  c-19.769-7.68-38.337-17.742-55.38-29.842c-13.939-9.906-26.854-21.18-38.536-33.614c-1.484-1.578-2.957-3.187-4.399-4.807h155.314  C258.518,426.433,289.614,457.54,289.614,495.752z"/>
<path style="fill:#C69A6A;" d="M163.297,418.597v76.1c-19.769-7.68-38.337-17.742-55.38-29.842v-46.258L163.297,418.597  L163.297,418.597z"/>
<path style="fill:#4BC999;" d="M350.73,493.902c-0.731,0.293-1.463,0.575-2.194,0.867c-10.553,4.086-21.441,7.502-32.622,10.177  c-5.569,1.337-11.201,2.497-16.906,3.448h-0.01c-3.594,0.616-7.22,1.149-10.857,1.599c-9.153,1.149-18.453,1.818-27.878,1.964  c-0.481,0.01-0.972,0.021-1.452,0.021c0.084-0.303,0.167-0.606,0.23-0.909c0.23-0.899,0.428-1.818,0.606-2.738v-0.01  c0.878-4.378,1.306-8.913,1.233-13.552c-0.533-35.412-30.072-63.53-65.484-63.53H69.381c-1.484-1.578-2.957-3.187-4.399-4.807  c-1.39-1.546-2.759-3.114-4.096-4.702c-5.956-7.001-11.536-14.326-16.718-21.943c-7.21-10.585-13.636-21.744-19.205-33.395  c-3.887-8.108-7.356-16.457-10.386-25.015h180.318C279.771,341.379,349.727,409.245,350.73,493.902z"/>
<path style="fill:#5BD3A2;" d="M315.914,504.947c-5.569,1.337-11.201,2.497-16.906,3.448c2.267-3.25,6.029-5.35,10.24-5.36  C311.714,503.035,313.992,503.735,315.914,504.947z"/>
<g>
	<path style="fill:#41B787;" d="M350.73,493.902c-0.731,0.293-1.463,0.575-2.194,0.867   c-12.549-73.049-77.009-128.376-153.642-128.376H24.963c-3.887-8.108-7.356-16.457-10.386-25.015h180.318   C279.771,341.379,349.727,409.245,350.73,493.902z"/>
	<path style="fill:#41B787;" d="M258.811,511.979c0.481,0,0.972-0.01,1.452-0.021c-0.167-1.223-0.376-2.424-0.616-3.626   c-0.178,0.92-0.376,1.839-0.606,2.738c-0.073,0.303-0.157,0.606-0.24,0.909H258.811z"/>
</g>
<path style="fill:#5BD3A2;" d="M152.848,410.76c0,3.072-1.264,5.851-3.302,7.837c-1.975,1.933-4.681,3.135-7.67,3.135h-80.99  c-5.956-7.001-11.536-14.326-16.718-21.943h97.708C147.937,399.788,152.848,404.699,152.848,410.76z"/>
<g>
</g>
<g>
</g>
<g>
</g>
<g>
</g>
<g>
</g>
<g>
</g>
<g>
</g>
<g>
</g>
<g>
</g>
<g>
</g>
<g>
</g>
<g>
</g>
<g>
</g>
<g>
</g>
<g>
</g>
</svg>
