<?xml version="1.0" encoding="iso-8859-1"?>
<!-- Generator: Adobe Illustrator 19.0.0, SVG Export Plug-In . SVG Version: 6.00 Build 0)  -->
<svg xmlns="http://www.w3.org/2000/svg" xmlns:xlink="http://www.w3.org/1999/xlink" version="1.1" id="Capa_1" x="0px" y="0px" viewBox="0 0 512 512" style="enable-background:new 0 0 512 512;" xml:space="preserve">
<path style="fill:#34ABE0;" d="M512,256c0,2.487-0.031,4.963-0.104,7.429c-2.821,99.025-61.879,183.975-146.359,224.016  c-6.081,2.884-12.288,5.538-18.61,7.941C318.673,506.117,288.026,512,256,512s-62.683-5.883-90.948-16.624  c-6.332-2.403-12.549-5.057-18.631-7.952C61.973,447.373,2.926,362.433,0.104,263.429C0.031,260.963,0,258.487,0,256  C0,114.615,114.615,0,256,0S512,114.615,512,256z"/>
<g>
	<path style="fill:#78CAEF;" d="M381.009,80.404L381.009,80.404c0-4.94-4.004-8.944-8.943-8.944H287.1   c-4.939,0-8.943,4.004-8.943,8.943v0.001c0,4.939,4.004,8.943,8.943,8.943h14.16c4.939,0,8.943,4.004,8.943,8.943v0.001   c0,4.939,4.004,8.943,8.943,8.943h70.804c4.939,0,8.943-4.004,8.943-8.943V98.29c0-4.939-4.004-8.943-8.943-8.943l0,0   C385.014,89.347,381.009,85.343,381.009,80.404z"/>
	<path style="fill:#78CAEF;" d="M153.579,128.658L153.579,128.658c0-4.94-4.004-8.944-8.943-8.944H59.67   c-4.939,0-8.943,4.004-8.943,8.943v0.001c0,4.939,4.004,8.943,8.943,8.943h14.16c4.939,0,8.943,4.004,8.943,8.943v0.001   c0,4.939,4.004,8.943,8.943,8.943h70.804c4.939,0,8.943-4.004,8.943-8.943v-0.001c0-4.939-4.004-8.943-8.943-8.943l0,0   C157.583,137.602,153.579,133.598,153.579,128.658z"/>
	<path style="fill:#78CAEF;" d="M377.366,167.84L377.366,167.84c0-4.94,4.004-8.944,8.943-8.944h84.966   c4.939,0,8.943,4.004,8.943,8.943v0.001c0,4.939-4.004,8.943-8.943,8.943h-14.16c-4.939,0-8.943,4.004-8.943,8.943v0.001   c0,4.939-4.004,8.943-8.943,8.943h-70.804c-4.939,0-8.943-4.004-8.943-8.943v-0.001c0-4.939,4.004-8.943,8.943-8.943l0,0   C373.362,176.783,377.366,172.779,377.366,167.84z"/>
</g>
<path style="fill:#F9EED7;" d="M511.895,263.429c-0.502,17.481-2.748,34.534-6.593,50.97c-0.439,1.923-0.909,3.835-1.411,5.726  c-3.479,13.479-8.025,26.53-13.552,39.048c-24.806,56.31-69.319,101.982-124.803,128.272c-6.081,2.884-12.288,5.538-18.61,7.941  C318.673,506.117,288.026,512,256,512c-9.613,0-19.111-0.533-28.463-1.567c-21.765-2.403-42.715-7.544-62.485-15.057  c-6.332-2.403-12.549-5.057-18.631-7.952c-34.398-16.321-64.575-40.072-88.461-69.204C23.197,375.85,1.776,322.111,0.104,263.429  l62.882-62.882L175.825,87.709l39.131-39.131L256,7.534l238.801,238.801L511.895,263.429z"/>
<g>
	<path style="fill:#FCF8F2;" d="M270.294,474.645c0,10.386-8.411,18.808-18.808,18.808h-5.224c-5.193,0-9.895,2.1-13.302,5.507   c-2.988,2.988-4.984,7.001-5.423,11.473c-21.765-2.403-42.715-7.544-62.485-15.057c-6.332-2.403-12.549-5.057-18.631-7.952   c-34.398-16.321-64.575-40.072-88.461-69.204H169.2c10.386,0,18.808,8.422,18.808,18.808c0,10.386,8.422,18.808,18.808,18.808   h44.669c5.204,0,9.906,2.111,13.302,5.507C268.194,464.75,270.294,469.452,270.294,474.645z"/>
	<path style="fill:#FCF8F2;" d="M511.895,263.429c-0.502,17.481-2.748,34.534-6.593,50.97c-0.439,1.923-0.909,3.835-1.411,5.726   c-3.479,13.479-8.025,26.53-13.552,39.048h-40.208c-5.193,0-9.895-2.1-13.291-5.507c-3.406-3.406-5.507-8.108-5.507-13.302   c0-10.386,8.411-18.808,18.798-18.808h5.235c5.193,0,9.895-2.1,13.302-5.507c3.396-3.406,5.507-8.108,5.507-13.302   c0-10.386-8.422-18.798-18.808-18.798h-51.273c-5.193,0-9.895-2.111-13.291-5.507c-3.406-3.406-5.507-8.108-5.507-13.302   c0-10.386,8.411-18.808,18.798-18.808h90.708L511.895,263.429z"/>
	<path style="fill:#FCF8F2;" d="M265.059,106.517c0,5.193-2.1,9.895-5.507,13.302s-8.108,5.507-13.302,5.507h-51.263   c-10.386,0-18.808,8.411-18.808,18.808c0,5.193,2.1,9.895,5.507,13.291c3.406,3.406,8.108,5.507,13.302,5.507h5.224   c10.386,0,18.808,8.422,18.808,18.808c0,5.193-2.1,9.895-5.507,13.302c-3.406,3.396-8.108,5.507-13.302,5.507H62.986   L175.825,87.709h70.426C256.637,87.709,265.059,96.131,265.059,106.517z"/>
</g>
<g>
	<path style="fill:#EF4152;" d="M165.052,495.376c-6.332-2.403-12.549-5.057-18.631-7.952c-5.026-13.166-7.701-27.335-7.701-41.911   h13.584C152.304,463.276,156.797,480.35,165.052,495.376z"/>
	<path style="fill:#EF4152;" d="M373.269,445.513c0,14.566-2.685,28.745-7.732,41.932c-6.081,2.884-12.288,5.538-18.61,7.941   c8.255-15.047,12.758-32.131,12.758-49.873H373.269z"/>
</g>
<path style="fill:#E8DBC4;" d="M505.302,308.632v11.494H78.232c-29.518,0-53.541-24.022-53.541-53.551  c0-29.518,24.022-53.541,53.541-53.541h297.817c14.545,0,26.384-11.839,26.384-26.384c0-14.545-11.839-26.384-26.384-26.384H185.177  c-17.429,0-31.598-14.179-31.598-31.608s14.169-31.608,31.598-31.608h96.632c10.198,0,18.484-8.296,18.484-18.495  c0-10.188-8.286-18.484-18.484-18.484h-78.346l11.494-11.494h66.853c16.53,0,29.978,13.448,29.978,29.978  c0,16.541-13.448,29.989-29.978,29.989h-96.632c-11.086,0-20.104,9.028-20.104,20.114c0,11.086,9.017,20.114,20.104,20.114h190.872  c20.887,0,37.878,16.99,37.878,37.878c0,20.877-16.99,37.878-37.878,37.878H78.232c-23.186,0-42.047,18.86-42.047,42.047  c0,23.197,18.86,42.057,42.047,42.057H505.302z"/>
<path style="fill:#5C5E70;" d="M418.617,330.324v60.824H93.383v-60.824c0-1.505,0.021-2.999,0.063-4.493  c0.125-4.566,0.439-9.091,0.93-13.563c0.616-5.642,1.536-11.191,2.717-16.635c0.993-4.577,2.184-9.091,3.553-13.511  c1.755-5.653,3.803-11.16,6.134-16.53c1.996-4.608,4.211-9.112,6.614-13.479c7.45-13.552,16.771-25.924,27.617-36.78  c29.424-29.424,70.081-47.626,114.991-47.626c61.461,0,114.96,34.095,142.608,84.407c2.403,4.368,4.618,8.871,6.614,13.479  c2.33,5.371,4.378,10.877,6.134,16.53c1.369,4.42,2.56,8.934,3.553,13.511c1.181,5.444,2.1,10.992,2.717,16.635  c0.491,4.472,0.805,8.997,0.93,13.563C418.597,327.325,418.617,328.819,418.617,330.324z"/>
<path style="fill:#494B5B;" d="M182.857,270.911c0-40.381,17.968-76.563,46.342-100.995c-34.172,5.666-64.748,21.973-88.19,45.416  c-10.846,10.856-20.167,23.228-27.617,36.78c-2.403,4.368-4.618,8.871-6.614,13.479c-2.33,5.371-4.378,10.877-6.134,16.53  c-1.369,4.42-2.56,8.934-3.553,13.511c-1.181,5.444-2.1,10.992-2.717,16.635c-0.491,4.472-0.805,8.997-0.93,13.563  c-0.042,1.494-0.063,2.988-0.063,4.493v60.824h165.26C213.818,369.695,182.857,323.919,182.857,270.911z"/>
<path style="fill:#34ABE0;" d="M93.664,392.566L93.664,392.566c0,28.466,23.077,51.543,51.543,51.543h52.506  c15.613,0,28.27-12.657,28.27-28.27l0,0c0-15.613,12.657-28.27,28.27-28.27h3.488c15.613,0,28.27,12.657,28.27,28.27l0,0  c0,15.613,12.657,28.27,28.27,28.27h52.506c28.466,0,51.543-23.077,51.543-51.543l0,0c0-28.466-23.077-51.543-51.543-51.543H145.206  C116.74,341.023,93.664,364.1,93.664,392.566z"/>
<path style="fill:#FF525D;" d="M366.786,452.99H314.28c-20.485,0-37.151-16.666-37.151-37.151c0-10.69-8.698-19.388-19.388-19.388  h-3.488c-10.69,0-19.388,8.698-19.388,19.388c0,20.485-16.666,37.151-37.151,37.151h-52.506c-33.319,0-60.424-27.106-60.424-60.424  s27.106-60.424,60.424-60.424h221.58c33.319,0,60.424,27.106,60.424,60.424S400.105,452.99,366.786,452.99z M254.253,378.688h3.488  c20.485,0,37.151,16.666,37.151,37.151c0,10.69,8.698,19.388,19.388,19.388h52.506c23.524,0,42.661-19.137,42.661-42.661  c0-23.524-19.137-42.661-42.661-42.661h-221.58c-23.524,0-42.661,19.137-42.661,42.661c0,23.524,19.137,42.661,42.661,42.661h52.506  c10.69,0,19.388-8.698,19.388-19.388C217.101,395.354,233.768,378.688,254.253,378.688z"/>
<g>
	<path style="fill:#494B5B;" d="M124.04,259.082c-0.063,3.709-3.093,6.677-6.792,6.677h-0.104l-10.365-0.167   c1.996-4.608,4.211-9.112,6.614-13.479l3.96,0.063C121.104,252.238,124.103,255.331,124.04,259.082z"/>
	<path style="fill:#494B5B;" d="M123.193,289.395c-0.073,3.699-3.103,6.646-6.781,6.646h-0.146l-19.174-0.408   c0.993-4.577,2.184-9.091,3.553-13.511l15.903,0.334C120.299,282.53,123.277,285.644,123.193,289.395z"/>
	<path style="fill:#494B5B;" d="M122.368,319.676c-0.084,3.699-3.114,6.635-6.792,6.635h-0.157l-21.974-0.481   c0.125-4.566,0.439-9.091,0.93-13.563l21.347,0.47C119.474,312.811,122.452,315.925,122.368,319.676z"/>
	<path style="fill:#494B5B;" d="M405.222,265.592l-10.365,0.167h-0.115c-3.699,0-6.729-2.967-6.792-6.677   c-0.052-3.751,2.936-6.844,6.687-6.907l3.971-0.063C401.011,256.481,403.226,260.984,405.222,265.592z"/>
	<path style="fill:#494B5B;" d="M414.908,295.633l-19.174,0.408h-0.146c-3.688,0-6.708-2.947-6.792-6.646   c-0.073-3.751,2.894-6.865,6.646-6.938l15.914-0.334C412.724,286.542,413.915,291.056,414.908,295.633z"/>
	<path style="fill:#494B5B;" d="M418.555,325.831l-21.985,0.481h-0.157c-3.678,0-6.698-2.936-6.781-6.635   c-0.084-3.751,2.884-6.865,6.635-6.938l21.358-0.47C418.116,316.74,418.429,321.264,418.555,325.831z"/>
</g>
<g>
	<circle style="fill:#797B89;" cx="332.539" cy="238.78" r="24.294"/>
	<circle style="fill:#797B89;" cx="299.656" cy="205.897" r="15.705"/>
</g>
<g>
	<path style="fill:#78CAEF;" d="M374.073,383.76h-29.257c-6.348,0-11.494-5.146-11.494-11.494l0,0   c0-6.348,5.146-11.494,11.494-11.494h29.257c6.348,0,11.494,5.146,11.494,11.494l0,0   C385.567,378.614,380.421,383.76,374.073,383.76z"/>
	<path style="fill:#78CAEF;" d="M199.576,383.76h-29.257c-6.348,0-11.494-5.146-11.494-11.494l0,0   c0-6.348,5.146-11.494,11.494-11.494h29.257c6.348,0,11.494,5.146,11.494,11.494l0,0   C211.069,378.614,205.923,383.76,199.576,383.76z"/>
</g>
<g>
</g>
<g>
</g>
<g>
</g>
<g>
</g>
<g>
</g>
<g>
</g>
<g>
</g>
<g>
</g>
<g>
</g>
<g>
</g>
<g>
</g>
<g>
</g>
<g>
</g>
<g>
</g>
<g>
</g>
</svg>
