<?xml version="1.0" encoding="iso-8859-1"?>
<!-- Generator: Adobe Illustrator 19.0.0, SVG Export Plug-In . SVG Version: 6.00 Build 0)  -->
<svg xmlns="http://www.w3.org/2000/svg" xmlns:xlink="http://www.w3.org/1999/xlink" version="1.1" id="Capa_1" x="0px" y="0px" viewBox="0 0 512 512" style="enable-background:new 0 0 512 512;" xml:space="preserve">
<path style="fill:#4BC999;" d="M512,256c0,76.993-34.029,146.042-87.869,192.93c-27.724,24.133-60.688,42.4-96.971,52.849  c-9.666,2.787-19.561,5.01-29.666,6.649c-13.413,2.182-27.192,3.309-41.231,3.309c-41.649,0-80.98-9.958-115.719-27.62  c-27.087-13.768-51.388-32.212-71.847-54.269c-28.152-30.365-49.018-67.567-59.832-108.85c-5.449-20.751-8.34-42.536-8.34-64.999  c0-87.984,44.436-165.603,112.097-211.615C153.56,16.536,203.006,0.263,256.263,0.263c93.088,0,174.57,49.738,219.298,124.101  c14.875,24.718,25.689,52.16,31.503,81.398c2.85,14.269,4.499,28.966,4.864,43.976C511.979,251.813,512,253.901,512,256z"/>
<g>
	<path style="fill:#5BD3A2;" d="M507.063,205.761h-45.031c-3.747,0-7.14-1.514-9.593-3.967c-2.463-2.453-3.977-5.845-3.977-9.593   c0-7.495,6.075-13.57,13.57-13.57h3.768c3.747,0,7.14-1.514,9.593-3.977c2.453-2.453,3.977-5.845,3.977-9.593   c0-7.495-6.075-13.57-13.57-13.57h-36.983c-3.747,0-7.14-1.514-9.593-3.977c-2.463-2.453-3.977-5.845-3.977-9.582   c0-7.495,6.075-13.57,13.57-13.57h46.743C490.435,149.08,501.249,176.522,507.063,205.761z"/>
	<path style="fill:#5BD3A2;" d="M283.923,98.523L283.923,98.523c0-7.493,6.074-13.568,13.568-13.568h43.721   c7.493,0,13.568-6.074,13.568-13.568l0,0c0-7.493-6.074-13.568-13.568-13.568h-128.89c-7.493,0-13.568,6.074-13.568,13.568l0,0   c0,7.493-6.074,13.568-13.568,13.568h-43.721c-7.493,0-13.568,6.074-13.568,13.568l0,0c0,7.493,6.074,13.568,13.568,13.568h64.827   c7.493,0,13.568,6.074,13.568,13.568l0,0c0,7.493,6.074,13.568,13.568,13.568h128.89c7.493,0,13.568-6.074,13.568-13.568l0,0   c0-7.493-6.074-13.568-13.568-13.568h-64.827C289.998,112.09,283.923,106.016,283.923,98.523z"/>
	<path style="fill:#5BD3A2;" d="M185.585,470.548c0,7.495-6.075,13.57-13.559,13.57h-31.482   c-27.087-13.768-51.388-32.212-71.847-54.269h76.189c7.495,0,13.57,6.065,13.57,13.559c0,3.747,1.524,7.14,3.977,9.593   c2.453,2.463,5.845,3.977,9.593,3.977c3.737,0,7.129,1.514,9.582,3.977C184.071,463.408,185.585,466.801,185.585,470.548z"/>
</g>
<path style="fill:#41B787;" d="M486.948,281.052c0,64.247-23.695,122.952-62.817,167.879c-27.724,24.133-60.688,42.4-96.971,52.849  c-9.666,2.787-19.561,5.01-29.666,6.649v-44.77h-86.084c-11.837,0-21.43-9.603-21.43-21.43v-49.905h-86.084  c-11.837,0-21.43-9.593-21.43-21.43v-49.895h-73.6c-5.449-20.751-8.34-42.536-8.34-64.999c0-87.984,44.436-165.603,112.097-211.615  h30.876c11.837,0,21.43,9.593,21.43,21.43v49.895h86.084c11.837,0,21.43,9.593,21.43,21.43v49.905h86.084  c11.837,0,21.43,9.593,21.43,21.419v49.905h86.084c10.115,0,18.58,7.004,20.835,16.419  C486.927,276.865,486.948,278.953,486.948,281.052z"/>
<path style="fill:#F9EED7;" d="M189.976,40.762v233.755c0,11.837-9.593,21.43-21.43,21.43H21.43c-11.837,0-21.43-9.593-21.43-21.43  V40.762c0-11.837,9.593-21.43,21.43-21.43h147.117C180.384,19.333,189.976,28.926,189.976,40.762z"/>
<path style="fill:#E8DBC4;" d="M189.976,78.873v195.644c0,11.837-9.593,21.43-21.43,21.43H95.719V100.302  c0-11.837,9.603-21.43,21.43-21.43h72.828V78.873z"/>
<path style="fill:#FF525D;" d="M156.156,143.068c0,15.584-10.417,30.97-24.603,44.029c-0.553,0.501-1.106,1.013-1.67,1.503  c-7.87,7.004-16.774,13.298-25.647,18.538c-1.764,1.033-3.528,2.035-5.282,2.996c-1.086,0.585-2.161,1.159-3.236,1.712  c-0.251,0.125-0.491,0.251-0.731,0.376c-1.315-0.668-2.641-1.367-3.967-2.088c-9.248-5.042-18.758-11.305-27.307-18.424  c-1.232-1.013-2.432-2.056-3.622-3.111c-0.564-0.491-1.117-1.002-1.67-1.503c-14.186-13.058-24.603-28.444-24.603-44.029  c0-22.098,15.209-40.01,33.977-40.01c15.021,0,27.192,14.332,27.192,32.004c0-2.536,0.251-5,0.731-7.359  c2.818-14.123,13.591-24.645,26.451-24.645C140.937,103.059,156.156,120.971,156.156,143.068z"/>
<path style="fill:#EF4152;" d="M156.156,143.068c0,15.584-10.417,30.97-24.603,44.029c-0.553,0.501-1.106,1.013-1.67,1.503  c-7.87,7.004-16.774,13.298-25.647,18.538c-1.764,1.033-3.528,2.035-5.282,2.996c-1.086,0.585-2.161,1.159-3.236,1.712v-84.143  c2.818-14.123,13.591-24.645,26.451-24.645C140.937,103.059,156.156,120.971,156.156,143.068z"/>
<g>
	<path style="fill:#FF525D;" d="M63.065,47.432c0,6.227-4.163,12.376-9.833,17.594c-0.219,0.204-0.443,0.405-0.668,0.604   c-3.143,2.799-6.7,5.312-10.246,7.405c-0.706,0.416-1.41,0.817-2.113,1.198c-0.53,0.29-1.059,0.568-1.585,0.837   c-0.525-0.268-1.054-0.547-1.585-0.837c-3.696-2.012-7.497-4.519-10.913-7.36c-0.491-0.407-0.972-0.821-1.445-1.243   c-0.225-0.199-0.449-0.402-0.668-0.604c-5.67-5.218-9.833-11.366-9.833-17.594c0-8.831,6.079-15.988,13.579-15.988   c6.001,0,10.865,5.727,10.865,12.792c0-7.065,4.863-12.791,10.863-12.791C56.985,31.444,63.065,38.602,63.065,47.432z"/>
	<path style="fill:#FF525D;" d="M126.912,267.847c0-6.227,4.163-12.376,9.833-17.594c0.219-0.204,0.443-0.405,0.668-0.604   c3.143-2.797,6.7-5.312,10.246-7.405c0.706-0.416,1.41-0.817,2.113-1.198c0.53-0.29,1.059-0.568,1.585-0.837   c0.525,0.268,1.054,0.547,1.585,0.837c3.696,2.012,7.497,4.519,10.913,7.36c0.491,0.407,0.972,0.821,1.445,1.243   c0.225,0.199,0.449,0.402,0.668,0.604c5.67,5.218,9.833,11.366,9.833,17.594c0,8.831-6.079,15.988-13.579,15.988   c-6,0-10.864-5.727-10.864-12.791c0,7.065-4.863,12.791-10.863,12.791C132.992,283.836,126.912,276.678,126.912,267.847z"/>
</g>
<path style="fill:#F9EED7;" d="M276.062,367.275H128.943c-11.835,0-21.429-9.594-21.429-21.429V112.09  c0-11.835,9.594-21.429,21.429-21.429h147.118c11.835,0,21.429,9.594,21.429,21.429v233.756  C297.491,357.681,287.897,367.275,276.062,367.275z"/>
<path style="fill:#E8DBC4;" d="M297.491,150.201v195.644c0,11.837-9.593,21.43-21.43,21.43h-72.828V171.631  c0-11.837,9.603-21.43,21.43-21.43L297.491,150.201L297.491,150.201z"/>
<path style="fill:#5C5E70;" d="M211.197,269.09v24.77h24.363c5.95,0,10.783,4.833,10.783,10.783c0,5.96-4.833,10.793-10.783,10.793  h-66.116c-5.95,0-10.783-4.833-10.783-10.793c0-5.95,4.833-10.783,10.783-10.783h24.363v-24.77  c-4.854,5.303-11.346,8.549-18.486,8.549c-18.768,0-33.987-17.912-33.987-40.01c0-15.584,10.417-30.97,24.603-44.029  c0.553-0.511,1.106-1.013,1.67-1.514c7.87-7.004,16.774-13.288,25.647-18.528c1.764-1.044,3.528-2.046,5.282-2.996  c1.326-0.731,2.651-1.42,3.967-2.098c0.303,0.157,0.605,0.313,0.908,0.47c1.013,0.522,2.035,1.065,3.058,1.628  c9.248,5.031,18.758,11.305,27.307,18.413c1.232,1.023,2.432,2.056,3.622,3.111c0.564,0.501,1.117,1.002,1.67,1.514  c14.186,13.058,24.603,28.444,24.603,44.029c0,22.098-15.209,40.01-33.977,40.01C222.544,277.638,216.051,274.392,211.197,269.09z"/>
<path style="fill:#494B5B;" d="M211.197,269.09v24.77h24.363c5.95,0,10.783,4.833,10.783,10.783c0,5.96-4.833,10.793-10.783,10.793  h-32.327V171.627c0-0.908,0.052-1.806,0.177-2.693c1.013,0.522,2.035,1.065,3.058,1.628c9.248,5.031,18.758,11.305,27.307,18.413  c1.232,1.023,2.432,2.056,3.622,3.111c0.564,0.501,1.117,1.002,1.67,1.514c14.186,13.058,24.603,28.444,24.603,44.029  c0,22.098-15.209,40.01-33.977,40.01C222.544,277.638,216.051,274.392,211.197,269.09z"/>
<path style="fill:#F9EED7;" d="M383.576,438.603H236.457c-11.835,0-21.429-9.594-21.429-21.429V183.419  c0-11.835,9.594-21.429,21.429-21.429h147.118c11.835,0,21.429,9.594,21.429,21.429v233.756  C405.005,429.009,395.411,438.603,383.576,438.603z"/>
<path style="fill:#E8DBC4;" d="M405.005,221.529v195.644c0,11.837-9.593,21.43-21.43,21.43h-72.828V242.958  c0-11.837,9.603-21.43,21.43-21.43H405.005z"/>
<path style="fill:#5C5E70;" d="M155.407,148.285c8.014,0,14.512-7.65,14.512-17.087c0-6.655-4.449-13.226-10.508-18.802  c-0.235-0.217-0.473-0.433-0.714-0.646c-0.505-0.45-1.02-0.894-1.544-1.328c-3.651-3.036-7.714-5.715-11.664-7.865  c-0.567-0.31-1.133-0.608-1.693-0.895c-0.561,0.287-1.126,0.585-1.693,0.895c-0.751,0.408-1.504,0.835-2.258,1.281  c-3.789,2.237-7.591,4.923-10.95,7.913c-0.241,0.213-0.479,0.429-0.714,0.646c-6.059,5.576-10.508,12.148-10.508,18.802  c0,9.437,6.499,17.087,14.513,17.087c3.05,0,5.824-1.386,7.894-3.651v10.578H129.68c-2.544,0-4.606,2.063-4.606,4.606  s2.063,4.606,4.606,4.606h28.232c2.544,0,4.606-2.063,4.606-4.606s-2.063-4.606-4.606-4.606H147.51v-10.578  C149.583,146.898,152.357,148.285,155.407,148.285z"/>
<polygon style="fill:#FF525D;" points="375.162,300.3 310.747,364.713 310.016,365.445 244.871,300.3 310.016,235.154   311.655,236.794 "/>
<path style="fill:#EF4152;" d="M375.162,300.3l-64.415,64.415V242.963c0-2.14,0.313-4.217,0.908-6.169L375.162,300.3z"/>
<rect x="233.75" y="182.052" transform="matrix(-0.7071 -0.7071 0.7071 -0.7071 286.767 515.8091)" style="fill:#FF525D;" width="32.923" height="32.923"/>
<path style="fill:#F9EED7;" d="M512,256c0,116.637-78.089,215.039-184.841,245.779c-2.891-3.653-4.614-8.267-4.614-13.277V254.747  c0-11.837,9.593-21.43,21.43-21.43h147.117c10.115,0,18.58,7.004,20.835,16.419C511.979,251.813,512,253.901,512,256z"/>
<g>
	<path style="fill:#5C5E70;" d="M452.324,386.411c16.91,0,30.619-13.709,30.619-30.619c0-16.911-13.709-30.619-30.619-30.619   c-1.731,0-3.426,0.151-5.078,0.427c0.587-2.366,0.903-4.839,0.903-7.386c0-16.911-13.709-30.619-30.619-30.619   s-30.619,13.709-30.619,30.619c0,2.547,0.316,5.02,0.903,7.386c-1.652-0.277-3.346-0.427-5.078-0.427   c-16.91,0-30.619,13.709-30.619,30.619s13.709,30.619,30.619,30.619c10.43,0,19.637-5.219,25.166-13.184v29.537h-14.38   c-6.341,0-11.482,5.141-11.482,11.482c0,6.341,5.141,11.482,11.482,11.482h48.016c6.341,0,11.482-5.141,11.482-11.482   c0-6.341-5.141-11.482-11.482-11.482H427.16v-29.537C432.688,381.192,441.895,386.411,452.324,386.411z"/>
	<path style="fill:#5C5E70;" d="M373.978,281.053c7.336,0,13.282-5.947,13.282-13.282c0-7.336-5.947-13.283-13.282-13.283   c-0.75,0-1.485,0.066-2.202,0.185c0.255-1.026,0.391-2.099,0.391-3.204c0-7.336-5.947-13.283-13.282-13.283   c-7.335,0-13.282,5.947-13.282,13.283c0,1.104,0.137,2.177,0.391,3.204c-0.717-0.12-1.452-0.185-2.202-0.185   c-7.336,0-13.282,5.947-13.282,13.283c0,7.335,5.947,13.282,13.282,13.282c4.524,0,8.518-2.264,10.916-5.719v12.813h-6.238   c-2.75,0-4.981,2.23-4.981,4.981c0,2.751,2.23,4.981,4.981,4.981H369.3c2.75,0,4.981-2.231,4.981-4.981   c0-2.75-2.23-4.981-4.981-4.981h-6.238v-12.813C365.459,278.79,369.453,281.053,373.978,281.053z"/>
</g>
<g>
	<path style="fill:#FCF8F2;" d="M274.354,127.543h-69.939c-3.554,0-6.435-2.881-6.435-6.435v-7.31c0-3.554,2.881-6.435,6.435-6.435   h69.939c3.554,0,6.435,2.881,6.435,6.435v7.31C280.789,124.662,277.908,127.543,274.354,127.543z"/>
	<path style="fill:#FCF8F2;" d="M169.275,56.562h-69.94c-3.554,0-6.435-2.881-6.435-6.435v-7.31c0-3.554,2.881-6.435,6.435-6.435   h69.94c3.554,0,6.435,2.881,6.435,6.435v7.31C175.71,53.681,172.829,56.562,169.275,56.562z"/>
	<path style="fill:#FCF8F2;" d="M384.303,199.219h-69.939c-3.554,0-6.435-2.881-6.435-6.435v-7.31c0-3.554,2.881-6.435,6.435-6.435   h69.939c3.554,0,6.435,2.881,6.435,6.435v7.31C390.739,196.338,387.858,199.219,384.303,199.219z"/>
	<path style="fill:#FCF8F2;" d="M489.382,272.983h-69.939c-3.554,0-6.435-2.881-6.435-6.435v-7.31c0-3.554,2.881-6.435,6.435-6.435   h69.939c3.554,0,6.435,2.881,6.435,6.435v7.31C495.818,270.101,492.937,272.983,489.382,272.983z"/>
</g>
<g>
</g>
<g>
</g>
<g>
</g>
<g>
</g>
<g>
</g>
<g>
</g>
<g>
</g>
<g>
</g>
<g>
</g>
<g>
</g>
<g>
</g>
<g>
</g>
<g>
</g>
<g>
</g>
<g>
</g>
</svg>
