<?xml version="1.0" encoding="iso-8859-1"?>
<!-- Generator: Adobe Illustrator 19.0.0, SVG Export Plug-In . SVG Version: 6.00 Build 0)  -->
<svg xmlns="http://www.w3.org/2000/svg" xmlns:xlink="http://www.w3.org/1999/xlink" version="1.1" id="Capa_1" x="0px" y="0px" viewBox="0 0 512 512" style="enable-background:new 0 0 512 512;" xml:space="preserve">
<path style="fill:#E8DBC4;" d="M512,256c0,76.382-33.458,144.959-86.518,191.864c-22.57,19.958-48.692,35.997-77.291,47.031  c-6.572,2.539-13.291,4.817-20.114,6.823c-13.051,3.824-26.53,6.625-40.354,8.328c-4.859,0.606-9.759,1.076-14.691,1.4  C267.4,511.812,261.726,512,256,512c-9.362,0-18.599-0.502-27.7-1.484c-2.623-0.282-5.235-0.606-7.826-0.961  c-3.741-0.522-7.45-1.118-11.128-1.808c-12.319-2.267-24.336-5.413-35.965-9.383c-2.863-0.972-5.705-1.996-8.526-3.072  c-3.793-1.442-7.544-2.978-11.254-4.598c-12.737-5.569-24.931-12.131-36.477-19.613c-2.278-1.473-4.524-2.978-6.74-4.514  c-3.062-2.111-6.06-4.295-9.017-6.531c-4.033-3.062-7.983-6.249-11.818-9.54c-13.228-11.327-25.287-23.98-35.976-37.763  c-8.234-10.616-15.653-21.901-22.152-33.761c-4.075-7.419-7.795-15.067-11.128-22.915c-2.905-6.823-5.517-13.814-7.826-20.929  C4.368,310.209,0,283.617,0,256c0-17.283,1.714-34.168,4.984-50.489c1.954-9.759,4.462-19.331,7.481-28.651  c4.221-12.988,9.446-25.516,15.59-37.501c0.899-1.755,1.818-3.5,2.759-5.224c2.623-4.838,5.392-9.582,8.317-14.221  c1.954-3.114,3.981-6.186,6.071-9.206c13.197-19.111,28.933-36.352,46.717-51.21c4.974-4.159,10.104-8.14,15.391-11.901  c4.786-3.427,9.686-6.687,14.712-9.77C160.998,13.834,206.89,0,256,0c57.449,0,110.467,18.913,153.182,50.855  c1.285,0.972,2.56,1.944,3.824,2.936c1.139,0.878,2.267,1.776,3.396,2.685c0.084,0.063,0.167,0.136,0.251,0.199  c5.893,4.754,11.567,9.77,17.011,15.015c0.042,0.042,0.084,0.084,0.125,0.125c1.087,1.045,2.163,2.1,3.229,3.166  c1.066,1.066,2.121,2.142,3.166,3.229c0.042,0.042,0.084,0.084,0.125,0.125C484.707,124.364,512,187.005,512,256z"/>
<path style="fill:#F9EED7;" d="M512,256c0,33.865-6.572,66.205-18.536,95.796c-14.994,37.146-38.452,69.966-67.981,96.068H164.561  c-16.645,0-31.713-6.75-42.621-17.659c-10.909-10.909-17.659-25.987-17.659-42.632c0-7.847,1.494-15.339,4.221-22.204  c8.84-22.309,30.616-38.087,56.059-38.087h16.76c16.645,0,31.723-6.75,42.632-17.659c10.909-10.909,17.659-25.987,17.659-42.632  c0-33.29-26.99-60.291-60.291-60.291H16.98c-4.106,0-8.119-0.408-11.995-1.191C17.356,143.632,52.046,89.799,100.3,52.788  c20.637-15.841,43.76-28.609,68.681-37.616C196.148,5.35,225.447,0,256,0c57.449,0,110.467,18.913,153.182,50.855  c2.529,1.902,5.016,3.835,7.471,5.82c5.893,4.754,11.567,9.77,17.011,15.015c2.257,2.173,4.472,4.389,6.646,6.646  c40.709,42.203,67.041,98.388,71.126,160.622C511.812,244.59,512,250.274,512,256z"/>
<g>
	<path style="fill:#E8DBC4;" d="M512,256c0,33.865-6.572,66.205-18.536,95.796h-79.726c-5.204,0-9.906-2.1-13.302-5.507   c-3.406-3.406-5.507-8.108-5.507-13.302c0-10.386,8.411-18.808,18.808-18.808h5.224c5.193,0,9.895-2.1,13.302-5.507   c3.396-3.406,5.507-8.108,5.507-13.302c0-10.386-8.422-18.808-18.808-18.808H367.7c-5.204,0-9.906-2.1-13.302-5.507   c-3.406-3.396-5.507-8.098-5.507-13.291c0-10.397,8.411-18.808,18.808-18.808h143.736C511.812,244.59,512,250.274,512,256z"/>
	<path style="fill:#E8DBC4;" d="M314.514,71.596c0,10.386-8.422,18.798-18.808,18.798h-5.224c-5.193,0-9.895,2.111-13.302,5.507   c-3.396,3.406-5.507,8.108-5.507,13.302c0,10.386-8.422,18.808-18.808,18.808H100.968c-5.193,0-9.895-2.112-13.302-5.508   c-3.406-3.406-5.507-8.108-5.507-13.301c0-10.386,8.422-18.808,18.808-18.808h5.224c5.193,0,9.895-2.1,13.302-5.508   c3.406-3.396,5.507-8.098,5.507-13.291c0-10.397-8.422-18.808-18.808-18.808H100.3c20.637-15.841,43.76-28.609,68.681-37.616   h44.439c10.386,0,18.808,8.422,18.808,18.808s8.422,18.808,18.808,18.808h44.669c5.193,0,9.895,2.1,13.302,5.507   C312.404,61.701,314.514,66.403,314.514,71.596z"/>
</g>
<path style="fill:#5C5E70;" d="M247.643,26.664v155.599c1.925,0.516,3.957,0.793,6.044,0.793c2.633,0,5.173-0.439,7.53-1.255V26.664  H247.643z"/>
<polygon style="fill:#FF525D;" points="247.641,26.665 247.641,95.064 223.405,84.327 170.422,60.861 "/>
<path style="fill:#5C5E70;" d="M450.353,171.164v155.599c1.925,0.516,3.957,0.793,6.044,0.793c2.633,0,5.173-0.439,7.53-1.255  V171.164H450.353z"/>
<polygon style="fill:#FF525D;" points="450.351,171.164 450.351,239.564 426.116,228.826 373.132,205.361 "/>
<path style="fill:#FFD15C;" d="M186.253,89.339c0,1.055-0.031,2.111-0.115,3.176l-1.755,23.458  c-7.408,61.315-12.079,122.765-14.043,184.268c-1.118,34.471-1.369,68.953-0.763,103.434c0.554,31.566,1.818,63.143,3.803,94.689  c-2.863-0.972-5.705-1.996-8.526-3.072c-3.793-1.442-7.544-2.978-11.254-4.598c-9.268-4.054-18.254-8.631-26.896-13.709  c-3.239-1.902-6.437-3.866-9.582-5.904c0.167-3.281,0.324-6.572,0.46-9.853c0.857-18.871,1.442-37.742,1.776-56.613  c0.01-0.324,0.01-0.637,0.021-0.94c0.616-34.868,0.355-69.747-0.784-104.605c-1.996-61.116-6.656-122.18-14.012-183.097  l-1.755-23.458c-1.599-21.494,13.291-40.166,33.625-44.116c2.591-0.512,5.277-0.773,8.025-0.773  C167.706,47.626,186.253,66.508,186.253,89.339z"/>
<path style="fill:#F4A14E;" d="M169.292,355.978c-0.036,5.141-0.047,10.268-0.024,15.397c0.011,10.766,0.118,21.543,0.308,32.297  h-50.192c0.189-10.766,0.296-21.531,0.308-32.297c0.024-5.128,0.011-10.268-0.011-15.397c-0.036-6.538-0.107-13.075-0.202-19.613  c-0.071-5.14-0.166-10.268-0.296-15.397c-0.154-7.307-0.355-14.602-0.592-21.898c2.997-3.315,7.331-5.413,12.163-5.413h26.446  c5.377,0,10.138,2.594,13.134,6.585c-0.225,6.905-0.415,13.809-0.568,20.726c-0.107,5.128-0.202,10.268-0.273,15.397  C169.387,342.903,169.316,349.44,169.292,355.978z"/>
<g>
	<path style="fill:#5C5E70;" d="M169.767,320.969c-0.107,5.128-0.202,10.268-0.273,15.397H119.48   c-0.071-5.14-0.166-10.268-0.296-15.397H169.767z"/>
	<path style="fill:#5C5E70;" d="M169.292,355.978c-0.036,5.141-0.047,10.268-0.024,15.397h-49.576   c0.024-5.128,0.011-10.268-0.011-15.397H169.292z"/>
</g>
<g>
	<path style="fill:#FFDC8D;" d="M160.898,168.154L160.898,168.154c-2.722,0-4.929-2.207-4.929-4.929V88.468   c0-4.394,3.561-7.955,7.955-7.955l0,0c4.647,0,8.304,3.966,7.929,8.597l-6.042,74.513   C165.603,166.184,163.466,168.154,160.898,168.154z"/>
	<path style="fill:#FFDC8D;" d="M164.854,495.292c-3.793-1.442-7.544-2.978-11.254-4.598v-29.309c0-2.675,2.173-4.848,4.848-4.848   c1.296,0,2.476,0.512,3.344,1.348c0.878,0.825,1.442,1.985,1.494,3.281L164.854,495.292z"/>
</g>
<path style="fill:#EDBB4C;" d="M136.453,48.4c-0.387,5.172-0.773,10.344-1.16,15.517c-0.794,10.533-2.299,21.013-3.427,31.514  c-1.661,15.506-3.156,31.023-4.483,46.561c-1.317,15.517-2.466,31.044-3.438,46.592c-0.972,15.527-1.776,31.075-2.403,46.623  c-0.627,15.475-1.076,30.96-1.358,46.446c-0.272,15.318-0.397,30.626-0.324,45.944c0.063,15.172,0.272,30.333,0.658,45.495  c0.408,15.59,0.972,31.169,1.724,46.749c0.439,9.31,2.581,34.795,4.462,57.145c-3.239-1.902-6.437-3.866-9.582-5.904  c0.167-3.281,0.324-6.572,0.46-9.853c0.857-18.871,1.442-37.742,1.776-56.613c0.01-0.324,0.01-0.637,0.021-0.94  c0.616-34.868,0.355-69.747-0.784-104.605c-1.996-61.116-6.656-122.18-14.012-183.097l-1.755-23.458  C101.23,71.022,116.119,52.349,136.453,48.4z"/>
<path style="fill:#FFD15C;" d="M122.201,41.712c0,1.055-0.031,2.111-0.115,3.176l-1.755,23.458  c-7.398,61.315-12.079,122.776-14.043,184.268c-0.094,2.79-0.178,5.58-0.251,8.37c-0.084,2.779-0.157,5.569-0.219,8.359  c-0.073,2.727-0.136,5.465-0.188,8.192c-0.021,1.212-0.042,2.414-0.063,3.626c-0.052,2.518-0.094,5.047-0.125,7.576  c-0.042,2.299-0.073,4.598-0.094,6.896c-0.031,2.017-0.052,4.023-0.063,6.039c-0.021,2.226-0.031,4.451-0.042,6.677  c-0.031,5.141-0.042,10.271-0.031,15.402c0,2.633,0.01,5.256,0.031,7.889c0.031,5.089,0.073,10.188,0.146,15.276  c0.031,3.041,0.084,6.092,0.136,9.132c0.648,36.854,2.257,73.707,4.859,110.519c-3.062-2.111-6.06-4.295-9.017-6.531  c-4.033-3.062-7.983-6.249-11.818-9.54c-13.228-11.327-25.287-23.98-35.976-37.763c0.857-18.892,1.442-37.784,1.766-56.686  c0.042-2.696,0.084-5.381,0.125-8.077c0.031-2.351,0.063-4.712,0.084-7.064c0.031-3.145,0.052-6.291,0.073-9.435  c0.021-2.57,0.031-5.141,0.031-7.722c0.01-4.284,0.01-8.568-0.01-12.863c0-0.846-0.01-1.693-0.01-2.539  c-0.01-2.341-0.031-4.692-0.052-7.032c-0.01-1.672-0.031-3.344-0.052-5.016c-0.021-1.985-0.042-3.96-0.073-5.945  c-0.01-0.543-0.01-1.076-0.021-1.62c-0.021-1.411-0.042-2.821-0.073-4.221c-0.021-1.693-0.052-3.385-0.094-5.078  c-0.031-2.027-0.073-4.054-0.125-6.092c-0.073-3.647-0.167-7.304-0.272-10.951c-0.042-1.829-0.094-3.657-0.157-5.475  c-0.052-1.829-0.104-3.647-0.167-5.475c-1.536-46.947-4.639-93.884-9.341-140.737c-1.411-14.127-2.968-28.244-4.671-42.36  l-1.755-23.458C36.968,20.658,56.142,0,80.426,0c21.901,0,39.633,16.781,41.597,37.825  C122.138,39.111,122.201,40.406,122.201,41.712z"/>
<path style="fill:#F4A14E;" d="M105.242,308.355c-0.036,5.141-0.047,10.268-0.024,15.397c0.011,10.766,0.118,21.543,0.308,32.297  H55.335c0.189-10.766,0.296-21.531,0.308-32.297c0.024-5.128,0.011-10.268-0.011-15.397c-0.036-6.538-0.107-13.075-0.202-19.613  c-0.071-5.14-0.166-10.268-0.296-15.397c-0.154-7.307-0.355-14.602-0.592-21.898c2.997-3.315,7.331-5.413,12.164-5.413h26.446  c5.377,0,10.138,2.594,13.134,6.585c-0.225,6.905-0.415,13.809-0.568,20.726c-0.107,5.128-0.202,10.268-0.273,15.397  C105.337,295.279,105.266,301.817,105.242,308.355z"/>
<g>
	<path style="fill:#5C5E70;" d="M105.717,273.345c-0.107,5.128-0.202,10.268-0.273,15.397H55.43   c-0.071-5.14-0.166-10.268-0.296-15.397H105.717z"/>
	<path style="fill:#5C5E70;" d="M105.242,308.355c-0.036,5.141-0.047,10.268-0.024,15.397H55.643   c0.024-5.128,0.011-10.268-0.011-15.397H105.242z"/>
</g>
<g>
	<path style="fill:#FFDC8D;" d="M96.847,120.531L96.847,120.531c-2.722,0-4.929-2.207-4.929-4.929V40.845   c0-4.394,3.561-7.955,7.955-7.955l0,0c4.647,0,8.304,3.966,7.929,8.597L101.761,116C101.554,118.559,99.416,120.531,96.847,120.531   z"/>
	<path style="fill:#FFDC8D;" d="M101.366,460.037c-4.033-3.062-7.983-6.249-11.818-9.54v-36.739c0-2.675,2.173-4.838,4.848-4.838   c1.296,0,2.476,0.502,3.344,1.337c0.878,0.836,1.442,1.985,1.494,3.281L101.366,460.037z"/>
</g>
<g>
	<path style="fill:#C69A6A;" d="M228.3,213.17v297.347c-2.623-0.282-5.235-0.606-7.826-0.961c-3.741-0.522-7.45-1.118-11.128-1.808   V213.17l9.477-17.011L228.3,213.17z"/>
	<path style="fill:#C69A6A;" d="M197.648,243.24h42.355c3.751,0,6.792,3.041,6.792,6.792s-3.041,6.792-6.792,6.792h-42.355   c-3.751,0-6.792-3.041-6.792-6.792S193.896,243.24,197.648,243.24z"/>
</g>
<path style="fill:#D3AA81;" d="M220.473,393.028v116.527c-3.741-0.522-7.45-1.118-11.128-1.808V393.028  c0-3.072,2.497-5.559,5.569-5.559C217.976,387.469,220.473,389.956,220.473,393.028z"/>
<path style="fill:#C69A6A;" d="M31.42,134.134v244.84c-4.075-7.419-7.795-15.067-11.128-22.915  c-2.905-6.823-5.517-13.814-7.826-20.929V134.134H31.42z"/>
<path style="fill:#34ABE0;" d="M31.638,139.361h-19.4c-4.137,0-7.49-3.353-7.49-7.49V62.87c0-4.137,3.353-7.49,7.49-7.49h19.4  c4.137,0,7.49,3.353,7.49,7.49v69.001C39.128,136.008,35.775,139.361,31.638,139.361z"/>
<path style="fill:#D3AA81;" d="M31.42,210.024v168.95c-4.075-7.419-7.795-15.067-11.128-22.915V210.024  c0-1.536,0.627-2.926,1.63-3.929c1.003-1.014,2.393-1.63,3.929-1.63C28.923,204.466,31.42,206.952,31.42,210.024z"/>
<path style="fill:#78CAEF;" d="M31.8,118.781L31.8,118.781c-4.047,0-7.328-3.281-7.328-7.328V75.954  c0-4.047,3.281-7.328,7.328-7.328l0,0c4.047,0,7.328,3.281,7.328,7.328v35.499C39.128,115.5,35.847,118.781,31.8,118.781z"/>
<g>
	<path style="fill:#FCF8F2;" d="M373.352,328.286c32.34,32.34,37.857,81.502,16.562,119.578c-4.378,7.837-9.906,15.214-16.562,21.87   l-25.161,25.161c-6.572,2.539-13.291,4.817-20.114,6.823l38.63-38.63c4.712-4.713,8.798-9.822,12.257-15.224   c22.444-35.056,18.359-82.307-12.257-112.933l-27.418-27.418c-39.006-38.996-39.006-102.452,0-141.448l94.375-94.375   c0.042,0.042,0.084,0.084,0.125,0.125c1.087,1.045,2.163,2.1,3.229,3.166c1.066,1.066,2.121,2.142,3.166,3.229   c0.042,0.042,0.084,0.084,0.125,0.125l-94.375,94.375c-35.328,35.338-35.328,92.818,0,128.157L373.352,328.286z"/>
	<path style="fill:#FCF8F2;" d="M328.035,328.286c32.35,32.34,37.867,81.502,16.562,119.578c-4.378,7.837-9.906,15.214-16.562,21.87   l-40.312,40.312c-4.859,0.606-9.759,1.076-14.691,1.4l48.358-48.358c4.712-4.712,8.798-9.822,12.246-15.224   c22.455-35.056,18.369-82.307-12.246-112.933l-27.418-27.418c-39.006-38.996-39.006-102.452,0-141.448l115.21-115.21   c1.285,0.972,2.56,1.944,3.824,2.936c1.139,0.878,2.267,1.776,3.396,2.685c0.084,0.063,0.167,0.136,0.251,0.199L300.617,172.711   c-35.328,35.338-35.328,92.818,0,128.157L328.035,328.286z"/>
</g>
<g>
</g>
<g>
</g>
<g>
</g>
<g>
</g>
<g>
</g>
<g>
</g>
<g>
</g>
<g>
</g>
<g>
</g>
<g>
</g>
<g>
</g>
<g>
</g>
<g>
</g>
<g>
</g>
<g>
</g>
</svg>
