<?xml version="1.0" encoding="iso-8859-1"?>
<!-- Generator: Adobe Illustrator 19.0.0, SVG Export Plug-In . SVG Version: 6.00 Build 0)  -->
<svg xmlns="http://www.w3.org/2000/svg" xmlns:xlink="http://www.w3.org/1999/xlink" version="1.1" id="Capa_1" x="0px" y="0px" viewBox="0 0 512 512" style="enable-background:new 0 0 512 512;" xml:space="preserve">
<path style="fill:#F9EED7;" d="M512,256v0.658c-0.01,2.184-0.042,4.357-0.104,6.52c0.01,0.021,0.01,0.052,0,0.073  c-0.24,8.923-0.951,17.732-2.09,26.415C493.328,415.138,385.975,512,256,512c-13.646,0-27.052-1.066-40.124-3.124  c-59.601-9.383-112.368-39.33-150.8-82.348c-13.312-14.89-24.9-31.336-34.461-49.037c-2.038-3.772-3.992-7.607-5.841-11.494  C9.665,334.305,0.888,299.018,0.073,261.768C0.021,259.856,0,257.933,0,256c0-39.152,8.788-76.257,24.503-109.432  C65.536,59.925,153.767,0,256,0c14.399,0,28.526,1.191,42.277,3.48c71.356,11.849,132.744,53.227,171.186,111.156  C496.347,155.146,512,203.745,512,256z"/>
<path style="fill:#EF4152;" d="M512,267.494v0.658c-0.021,7.367-0.773,14.555-2.194,21.514  c-10.136,50.103-54.418,87.824-107.52,87.824H30.616c-2.038-3.772-3.992-7.607-5.841-11.494  C9.665,334.305,0.888,299.018,0.073,261.768c0.805-37.042,9.488-72.15,24.43-103.706h377.783c30.302,0,57.72,12.278,77.584,32.131  c18.84,18.85,30.866,44.513,32.026,72.986c0.01,0.021,0.01,0.052,0,0.073C511.969,264.662,512,266.073,512,267.494z"/>
<path style="fill:#FF525D;" d="M512,256v0.658c-0.209,60.416-49.246,109.338-109.714,109.338H24.775C8.892,332.675,0,295.372,0,256  c0-39.152,8.788-76.257,24.503-109.432h377.783c30.302,0,57.72,12.278,77.584,32.131C499.66,198.499,511.927,225.813,512,256z"/>
<path style="fill:#EF4152;" d="M295.184,227.025H72.62c-28.565,0-51.722,23.157-51.722,51.722l0,0  c0,28.565,23.157,51.722,51.722,51.722h222.563c28.565,0,51.722-23.157,51.722-51.722l0,0  C346.906,250.182,323.749,227.025,295.184,227.025z"/>
<path style="fill:#34ABE0;" d="M324.65,236.92c0,7.489-6.076,13.554-13.566,13.554H52.983c-7.49,0-13.554-6.065-13.554-13.554  V14.911h28.015c4.981,0,9.633,1.707,13.33,4.628c3.698,2.932,6.442,7.054,7.595,11.906c4.946,20.713,23.457,35.338,44.76,35.338  h51.978l25.012,70.42c0,0,2.567,0.059,5.747,0.117c3.156,0.06,6.925,0.118,9.303,0.118c27.461,0,52.332,11.128,70.337,29.134  C313.51,184.576,324.65,209.447,324.65,236.92z"/>
<g>
	<path style="fill:#FFD15C;" d="M115.37,236.908c0,4.628-0.413,9.162-1.213,13.566H52.983c-7.49,0-13.554-6.065-13.554-13.554   v-75.942C81.374,160.978,115.37,194.974,115.37,236.908z"/>
	<path style="fill:#FFD15C;" d="M221.349,258.134c-4.228,0-7.654-3.427-7.654-7.654V136.897c0-4.228,3.427-7.654,7.654-7.654   c4.227,0,7.654,3.427,7.654,7.654v113.581C229.004,254.706,225.577,258.134,221.349,258.134z"/>
	<path style="fill:#FFD15C;" d="M255.499,258.134c-4.228,0-7.654-3.427-7.654-7.654V139.221c0-4.228,3.427-7.654,7.654-7.654   c4.227,0,7.654,3.427,7.654,7.654v111.258C263.153,254.706,259.727,258.134,255.499,258.134z"/>
</g>
<rect x="70.625" y="80.102" style="fill:#5C5E70;" width="53.582" height="53.582"/>
<path style="fill:#FFD15C;" d="M207.23,115.505h-73.61v-12.954h63.565c4.228,0,7.654-3.427,7.654-7.654s-3.427-7.654-7.654-7.654  h-63.565v-6.476c0-4.228-3.427-7.654-7.654-7.654h-54.17c-4.228,0-7.654,3.427-7.654,7.654v6.476H39.425  c-4.228,0-7.654,3.427-7.654,7.654s3.427,7.654,7.654,7.654h24.718v12.954H39.425c-4.228,0-7.654,3.427-7.654,7.654  c0,4.227,3.427,7.654,7.654,7.654h24.718v5.299c0,4.228,3.427,7.654,7.654,7.654h54.169c4.228,0,7.654-3.427,7.654-7.654v-5.299  h73.61c4.228,0,7.654-3.427,7.654-7.654S211.457,115.505,207.23,115.505z M118.312,128.458h-38.86V88.42h38.86V128.458z"/>
<path style="fill:#EDBB4C;" d="M324.662,245.41c0.393,11.383-0.021,29.676-0.021,35.445c0,7.49-6.065,13.566-13.554,13.566H185.11  H79.128H52.986c-7.49,0-13.554-6.076-13.554-13.566v-33.561"/>
<path style="fill:#FFD15C;" d="M324.662,235.029c0.393,11.383-0.021,29.676-0.021,35.445c0,7.49-6.065,13.566-13.554,13.566H185.11  H79.128H52.986c-7.49,0-13.554-6.076-13.554-13.566v-33.561"/>
<g>
	<path style="fill:#78CAEF;" d="M195.056,164.299h-36.904c-3.467,0-6.278-2.811-6.278-6.278v-4.52c0-3.467,2.811-6.278,6.278-6.278   h36.904c3.467,0,6.278,2.811,6.278,6.278v4.52C201.334,161.488,198.523,164.299,195.056,164.299z"/>
	<circle style="fill:#78CAEF;" cx="287.89" cy="188.437" r="10.009"/>
</g>
<path style="fill:#FF6E7C;" d="M426.841,204.037h-82.547c-11.254,0-20.375-9.122-20.375-20.376l0,0  c0-11.254,9.122-20.376,20.375-20.376h82.547c11.254,0,20.376,9.122,20.376,20.376l0,0  C447.216,194.915,438.094,204.037,426.841,204.037z"/>
<g>
	<circle style="fill:#F9EED7;" cx="172.408" cy="387.939" r="39.706"/>
	<circle style="fill:#F9EED7;" cx="407.51" cy="387.939" r="39.706"/>
	<circle style="fill:#F9EED7;" cx="236.283" cy="387.939" r="28.076"/>
</g>
<g>
	<path style="fill:#FCF8F2;" d="M469.462,114.636H264.84c-5.193,0-9.895-2.111-13.291-5.507c-3.406-3.406-5.507-8.108-5.507-13.302   c0-10.386,8.411-18.798,18.798-18.798h57.177c5.193,0,9.895-2.1,13.302-5.507c3.396-3.406,5.507-8.108,5.507-13.302   c0-10.386-8.422-18.808-18.808-18.808h-15.956c-5.193,0-9.895-2.1-13.302-5.507s-5.507-8.108-5.507-13.302   c0-7.607,4.524-14.169,11.024-17.126C369.633,15.329,431.02,56.707,469.462,114.636z"/>
	<path style="fill:#FCF8F2;" d="M254.642,482.952c0,10.386-8.422,18.808-18.808,18.808h-5.224c-5.193,0-9.895,2.1-13.302,5.507   c-0.512,0.512-0.982,1.045-1.432,1.609c-59.601-9.383-112.368-39.33-150.8-82.348h88.472c10.386,0,18.808,8.422,18.808,18.808   s8.411,18.808,18.808,18.808h44.669c5.193,0,9.895,2.1,13.302,5.507C252.531,473.057,254.642,477.759,254.642,482.952z"/>
</g>
<g>
</g>
<g>
</g>
<g>
</g>
<g>
</g>
<g>
</g>
<g>
</g>
<g>
</g>
<g>
</g>
<g>
</g>
<g>
</g>
<g>
</g>
<g>
</g>
<g>
</g>
<g>
</g>
<g>
</g>
</svg>
