<?xml version="1.0" encoding="iso-8859-1"?>
<!-- Generator: Adobe Illustrator 19.0.0, SVG Export Plug-In . SVG Version: 6.00 Build 0)  -->
<svg xmlns="http://www.w3.org/2000/svg" xmlns:xlink="http://www.w3.org/1999/xlink" version="1.1" id="Capa_1" x="0px" y="0px" viewBox="0 0 512 512" style="enable-background:new 0 0 512 512;" xml:space="preserve">
<path style="fill:#34ABE0;" d="M512,256c0,3.845-0.084,7.659-0.261,11.463c-0.366,8.526-1.16,16.948-2.361,25.245  c-1.223,8.558-2.873,16.98-4.932,25.245C476.756,429.401,376.027,512,256,512c-90.457,0-169.953-46.916-215.489-117.739  C16.906,357.554,2.424,314.41,0.282,268.058C0.094,264.056,0,260.044,0,256C0,114.615,114.615,0,256,0  c136.767,0,248.477,107.248,255.634,242.228C511.875,246.784,512,251.382,512,256z"/>
<g>
	<path style="fill:#78CAEF;" d="M125.367,347.47c2.288,2.288,3.699,5.444,3.699,8.923c0,6.969-5.653,12.622-12.622,12.622h-1.233   c-3.49,0-6.646,1.411-8.923,3.699c-2.288,2.288-3.699,5.444-3.699,8.923c0,6.969-5.653,12.622-12.622,12.622H40.511   C16.906,357.554,2.424,314.41,0.282,268.058h86.716c3.49,0,6.646,1.411,8.923,3.699c2.288,2.288,3.699,5.444,3.699,8.923   c0,6.969,5.653,12.622,12.622,12.622h4.2c6.969,0,12.622,5.642,12.622,12.612s-5.653,12.622-12.622,12.622H93.309   c-3.49,0-6.646,1.411-8.923,3.699c-2.288,2.278-3.699,5.433-3.699,8.923c0,6.969,5.653,12.622,12.622,12.622h23.134   C119.933,343.782,123.089,345.192,125.367,347.47z"/>
	<path style="fill:#78CAEF;" d="M360.899,382.681L360.899,382.681c0-6.969-5.65-12.62-12.62-12.62H241.933   c-6.969,0-12.62,5.65-12.62,12.62l0,0c0,6.969,5.65,12.62,12.62,12.62h34.399c6.969,0,12.62,5.65,12.62,12.62l0,0   c0,6.969-5.65,12.62-12.62,12.62h-3.507c-6.969,0-12.62,5.65-12.62,12.62l0,0c0,6.969,5.65,12.62,12.62,12.62h101.926   c6.969,0,12.62-5.65,12.62-12.62l0,0c0-6.969,5.65-12.62,12.62-12.62h3.507c6.969,0,12.62-5.65,12.62-12.62l0,0   c0-6.969-5.65-12.62-12.62-12.62H373.52C366.549,395.301,360.899,389.651,360.899,382.681z"/>
	<path style="fill:#78CAEF;" d="M469.096,280.085c0,6.969,5.642,12.622,12.612,12.622h27.669c-1.223,8.558-2.873,16.98-4.932,25.245   h-82.317c-3.479,0-6.635-1.411-8.923-3.699c-2.288-2.278-3.699-5.434-3.699-8.923c0-6.969-5.653-12.622-12.622-12.622h-60.301   c-3.49,0-6.646-1.411-8.923-3.699c-2.288-2.278-3.699-5.433-3.699-8.923c0-6.969,5.653-12.622,12.622-12.622h40.667   c3.49,0,6.646-1.411,8.923-3.688c2.288-2.288,3.699-5.444,3.699-8.923c0-6.969,5.653-12.622,12.622-12.622h109.14   c0.24,4.556,0.366,9.153,0.366,13.772c0,3.845-0.084,7.659-0.261,11.463h-30.03C474.739,267.463,469.096,273.115,469.096,280.085z"/>
	<path style="fill:#78CAEF;" d="M362.372,74.21v-0.001c0-6.969-5.65-12.619-12.619-12.619h-119.89   c-6.969,0-12.619,5.65-12.619,12.619v0.001c0,6.969,5.65,12.619,12.619,12.619h19.982c6.969,0,12.619,5.65,12.619,12.619v0.001   c0,6.969,5.65,12.619,12.619,12.619h99.908c6.969,0,12.619-5.65,12.619-12.619v-0.001c0-6.969-5.65-12.619-12.619-12.619l0,0   C368.021,86.829,362.372,81.179,362.372,74.21z"/>
</g>
<g>
	<rect x="345.245" y="289.28" style="fill:#5C5E70;" width="8.453" height="63.373"/>
	<rect x="386.884" y="289.28" style="fill:#5C5E70;" width="8.453" height="63.373"/>
</g>
<path style="fill:#EDBB4C;" d="M463.533,212.761c0,51.499-41.746,93.246-93.239,93.246c-51.499,0-93.246-41.746-93.246-93.246  c0-51.494,41.746-93.239,93.246-93.239c1.255,0,2.498,0.024,3.742,0.072c48.518,1.919,87.506,40.907,89.426,89.425  C463.509,210.263,463.533,211.506,463.533,212.761z"/>
<path style="fill:#FFD15C;" d="M463.461,209.019c-5.987,37.075-38.138,65.387-76.902,65.387c-43.032,0-77.91-34.884-77.91-77.91  c0-38.765,28.311-70.915,65.387-76.901C422.554,121.513,461.542,160.502,463.461,209.019z"/>
<path style="fill:#41B787;" d="M420.086,212.761c0,22.071-4.098,42.35-10.942,58.319c-9.125,21.293-23.139,34.926-38.849,34.926  c-22.168,0-40.95-27.111-47.402-64.596c-1.557-9.029-2.396-18.656-2.396-28.65c0-37.756,11.986-70.275,29.229-84.935  c6.27-5.335,13.236-8.305,20.569-8.305c0.67,0,1.333,0.024,1.998,0.072c0.38,0.03,0.754,0.066,1.135,0.109  c25.378,2.952,45.609,41.511,46.622,89.317C420.073,210.263,420.086,211.506,420.086,212.761z"/>
<circle style="fill:#FFDC8D;" cx="414.198" cy="177.173" r="15.841"/>
<path style="fill:#4BC999;" d="M420.086,212.761c0,22.071-4.098,42.35-10.942,58.319c-7.146,2.161-14.732,3.325-22.584,3.325  c-26.302,0-49.562-13.036-63.667-32.995c-1.557-9.029-2.396-18.656-2.396-28.65c0-37.756,11.986-70.275,29.229-84.935  c7.285-3.911,15.258-6.699,23.7-8.124c16.078,1.871,30.092,18.034,38.456,41.795c3.265,9.253,5.668,19.658,7.001,30.816  c0.646,5.407,1.044,10.99,1.165,16.706C420.073,210.263,420.086,211.506,420.086,212.761z"/>
<path style="fill:#B58657;" d="M399.867,353.855v22.614c0,2.185-0.441,4.273-1.231,6.168c-2.414,5.781-8.123,9.844-14.78,9.844  h-27.129c-8.842,0-16.006-7.17-16.006-16.012v-22.614H399.867z"/>
<path style="fill:#5BD3A2;" d="M418.884,192.313c-1.479,0.452-3.054,0.7-4.683,0.7c-8.751,0-15.843-7.092-15.843-15.843  c0-7.966,5.872-14.551,13.525-15.673C415.148,170.749,417.551,181.154,418.884,192.313z"/>
<path style="fill:#C69A6A;" d="M399.867,353.855v22.614c0,2.185-0.441,4.273-1.231,6.168c-1.901,0.802-3.989,1.243-6.181,1.243  h-27.129c-8.842,0-16.006-7.17-16.006-16.012v-14.013H399.867z"/>
<path style="fill:#FFD15C;" d="M397.45,348.422h-54.318c-3.166,0-5.733,2.567-5.733,5.733l0,0c0,3.166,2.567,5.733,5.733,5.733  h54.318c3.166,0,5.733-2.567,5.733-5.733l0,0C403.183,350.99,400.617,348.422,397.45,348.422z"/>
<circle style="fill:#D3AA81;" cx="388.096" cy="368.943" r="4.526"/>
<circle style="fill:#5BD3A2;" cx="393.226" cy="150.162" r="8.148"/>
<g>
	<rect x="118.073" y="293.898" style="fill:#5C5E70;" width="14.629" height="109.714"/>
	<rect x="190.171" y="293.898" style="fill:#5C5E70;" width="14.629" height="109.714"/>
</g>
<path style="fill:#E8DBC4;" d="M322.863,161.426c0,89.161-72.276,161.437-161.426,161.437C72.276,322.863,0,250.587,0,161.426  C0,72.276,72.276,0,161.437,0c2.173,0,4.326,0.042,6.478,0.125c83.999,3.323,151.5,70.823,154.823,154.823  C322.821,157.1,322.863,159.253,322.863,161.426z"/>
<path style="fill:#F9EED7;" d="M322.738,154.948c-10.365,64.188-66.027,113.204-133.141,113.204  c-74.501,0-134.886-60.395-134.886-134.886c0-67.114,49.016-122.776,113.204-133.141C251.914,3.448,319.415,70.949,322.738,154.948z  "/>
<path style="fill:#EF4152;" d="M247.641,161.426c0,38.212-7.095,73.32-18.944,100.968c-15.799,36.864-40.061,60.468-67.26,60.468  c-38.379,0-70.896-46.937-82.066-111.835c-2.696-15.632-4.148-32.298-4.148-49.601c0-65.369,20.752-121.668,50.604-147.047  C136.683,5.141,148.741,0,161.437,0c1.16,0,2.309,0.042,3.459,0.125c0.658,0.052,1.306,0.115,1.964,0.188  c43.938,5.11,78.963,71.868,80.718,154.634C247.62,157.1,247.641,159.253,247.641,161.426z"/>
<circle style="fill:#FCF8F2;" cx="237.453" cy="99.809" r="27.429"/>
<path style="fill:#FF525D;" d="M247.641,161.426c0,38.212-7.095,73.32-18.944,100.968c-12.372,3.741-25.506,5.757-39.1,5.757  c-45.537,0-85.807-22.57-110.226-57.125c-2.696-15.632-4.148-32.298-4.148-49.601c0-65.369,20.752-121.668,50.604-147.047  C138.439,7.608,152.242,2.78,166.86,0.315c27.836,3.239,52.099,31.222,66.581,72.359c5.653,16.018,9.812,34.032,12.121,53.352  c1.118,9.362,1.808,19.028,2.017,28.923C247.62,157.1,247.641,159.253,247.641,161.426z"/>
<path style="fill:#B58657;" d="M212.637,405.703v39.152c0,3.783-0.763,7.398-2.132,10.679c-4.18,10.01-14.064,17.042-25.59,17.042  h-46.968c-15.308,0-27.711-12.413-27.711-27.721v-39.152H212.637z"/>
<path style="fill:#FF6E7C;" d="M245.561,126.025c-2.56,0.784-5.287,1.212-8.108,1.212c-15.151,0-27.429-12.278-27.429-27.429  c0-13.793,10.167-25.192,23.416-27.136C239.094,88.691,243.252,106.705,245.561,126.025z"/>
<path style="fill:#C69A6A;" d="M212.637,405.703v39.152c0,3.783-0.763,7.398-2.132,10.679c-3.291,1.39-6.907,2.152-10.7,2.152  h-46.968c-15.308,0-27.711-12.413-27.711-27.721v-24.263H212.637z"/>
<path style="fill:#FF525D;" d="M208.452,396.298h-94.041c-5.483,0-9.927,4.444-9.927,9.927l0,0c0,5.483,4.444,9.927,9.927,9.927  h94.041c5.483,0,9.927-4.444,9.927-9.927l0,0C218.378,400.742,213.934,396.298,208.452,396.298z"/>
<circle style="fill:#D3AA81;" cx="192.261" cy="431.825" r="7.837"/>
<circle style="fill:#FF6E7C;" cx="201.143" cy="53.049" r="14.106"/>
<g>
</g>
<g>
</g>
<g>
</g>
<g>
</g>
<g>
</g>
<g>
</g>
<g>
</g>
<g>
</g>
<g>
</g>
<g>
</g>
<g>
</g>
<g>
</g>
<g>
</g>
<g>
</g>
<g>
</g>
</svg>
