<?xml version="1.0" encoding="iso-8859-1"?>
<!-- Generator: Adobe Illustrator 19.0.0, SVG Export Plug-In . SVG Version: 6.00 Build 0)  -->
<svg xmlns="http://www.w3.org/2000/svg" xmlns:xlink="http://www.w3.org/1999/xlink" version="1.1" id="Capa_1" x="0px" y="0px" viewBox="0 0 512 512" style="enable-background:new 0 0 512 512;" xml:space="preserve">
<path style="fill:#F9EED7;" d="M512,256c0,2.591-0.042,5.162-0.115,7.732C507.799,401.544,394.794,512,256,512  S4.2,401.544,0.115,263.732C0.042,261.162,0,258.591,0,256C0,114.615,114.615,0,256,0S512,114.615,512,256z"/>
<path style="fill:#34ABE0;" d="M511.885,263.732c-0.773,25.83-5.36,50.688-13.228,74.041c-17.69,52.517-51.942,97.405-96.549,128.46  c-34.273,23.876-74.679,39.57-118.356,44.272C274.631,511.498,265.373,512,256,512c-20.668,0-40.761-2.445-60.008-7.074  c-10.177-2.445-20.114-5.496-29.78-9.112c-33.04-12.382-62.84-31.389-87.771-55.402c-28.453-27.397-50.573-61.315-63.958-99.338  c-2.957-8.37-5.475-16.948-7.555-25.694c-3.96-16.645-6.28-33.917-6.813-51.649h511.77V263.732z"/>
<path style="fill:#78CAEF;" d="M448.635,424.591h-23.838c-3.542,0-6.76-1.442-9.08-3.762c-2.32-2.33-3.762-5.538-3.762-9.091  c0-7.095,5.747-12.842,12.842-12.842h43.624c12.643-18.759,22.876-39.278,30.235-61.123H305.685  c-7.095,0-12.842,5.747-12.842,12.842c0,3.553,1.442,6.76,3.762,9.091c2.32,2.32,5.538,3.762,9.08,3.762h79.224  c7.095,0,12.842,5.747,12.842,12.842c0,3.542-1.442,6.76-3.762,9.08s-5.538,3.762-9.08,3.762h-36.08  c-7.095,0-12.852,5.757-12.852,12.852c0,3.553,1.442,6.76,3.762,9.08c2.33,2.33,5.538,3.762,9.091,3.762h10.898  c7.095,0,12.842,5.757,12.842,12.852c0,3.542-1.442,6.76-3.762,9.08c-2.32,2.32-5.538,3.762-9.08,3.762h-39.048  c-7.095,0-12.852,5.757-12.852,12.852c0,3.553,1.442,6.76,3.762,9.08c2.33,2.33,5.538,3.762,9.091,3.762h81.429  C419.271,454.285,434.892,440.282,448.635,424.591z"/>
<path style="fill:#FCF8F2;" d="M239.902,49.744L239.902,49.744c0-4.73-3.835-8.564-8.564-8.564h-72.171  c-4.73,0-8.564,3.835-8.564,8.564l0,0c0,4.73,3.835,8.564,8.564,8.564h23.345c4.73,0,8.564,3.835,8.564,8.564l0,0  c0,4.73-3.835,8.564-8.564,8.564h-2.38c-4.73,0-8.564,3.835-8.564,8.564l0,0c0,4.73,3.835,8.564,8.564,8.564h69.171  c4.73,0,8.564-3.835,8.564-8.564l0,0c0-4.73,3.835-8.564,8.564-8.564h2.38c4.73,0,8.564-3.835,8.564-8.564l0,0  c0-4.73-3.835-8.564-8.564-8.564h-20.344C243.737,58.308,239.902,54.475,239.902,49.744z"/>
<path style="fill:#78CAEF;" d="M225.468,353.928c0,7.095-5.757,12.842-12.852,12.842H90.572c-3.553,0-6.76-1.442-9.08-3.762  c-2.33-2.32-3.762-5.538-3.762-9.08c0-7.095-5.757-12.852-12.852-12.852H14.482c-2.957-8.37-5.475-16.948-7.555-25.694h37.972  c3.542,0,6.76-1.442,9.08-3.762c2.32-2.32,3.762-5.538,3.762-9.08c0-7.095,5.757-12.852,12.852-12.852h122.044  c3.553,0,6.76,1.442,9.08,3.762c2.33,2.33,3.762,5.548,3.762,9.091c0,7.095-5.747,12.842-12.842,12.842h-41.399  c-7.095,0-12.852,5.757-12.852,12.852c0,7.095,5.757,12.842,12.852,12.842h61.377c3.553,0,6.76,1.442,9.091,3.762  C224.026,347.167,225.468,350.386,225.468,353.928z"/>
<path style="fill:#FCF8F2;" d="M156.552,173.598L156.552,173.598c0-6.083-4.931-11.014-11.013-11.014H40.906  c-6.082,0-11.013,4.931-11.013,11.013v0.001c0,6.082,4.931,11.013,11.013,11.013h17.438c6.082,0,11.013,4.931,11.013,11.013v0.001  c0,6.082,4.931,11.013,11.013,11.013h87.194c6.082,0,11.013-4.931,11.013-11.013v-0.001c0-6.082-4.931-11.013-11.013-11.013l0,0  C161.483,184.612,156.552,179.681,156.552,173.598z"/>
<g>
	<path style="fill:#FFD15C;" d="M166.212,152.461v343.353c-33.04-12.382-62.84-31.389-87.771-55.402V152.461   c0-24.242,19.655-43.886,43.886-43.886C146.568,108.575,166.212,128.219,166.212,152.461z"/>
	<path style="fill:#FFD15C;" d="M283.752,152.461v358.045C274.63,511.498,265.373,512,256,512c-20.668,0-40.761-2.445-60.008-7.074   V152.461c0-24.242,19.644-43.886,43.875-43.886C264.108,108.575,283.752,128.219,283.752,152.461z"/>
</g>
<g>
	<path style="fill:#5C5E70;" d="M155.239,395.383c0-18.177-14.735-32.912-32.912-32.912s-32.912,14.735-32.912,32.912H155.239z"/>
	<path style="fill:#5C5E70;" d="M375.561,258.372h-2.977c-5.141,0-9.309-4.168-9.309-9.309v-9.943c0-5.141,4.168-9.309,9.309-9.309   h2.977c5.141,0,9.309,4.168,9.309,9.309v9.943C384.87,254.204,380.703,258.372,375.561,258.372z"/>
	<path style="fill:#5C5E70;" d="M272.784,395.383c0-18.177-14.735-32.912-32.912-32.912s-32.912,14.735-32.912,32.912H272.784z"/>
</g>
<path style="fill:#FF525D;" d="M480.682,248.059c5.253,0,8.638,5.564,6.226,10.23l-2.816,5.444l-4.253,8.223  c-6.844,13.239-20.511,21.556-35.412,21.556h-74.47v-45.453H480.682z"/>
<path style="fill:#279FC9;" d="M464.98,287.629H359.097c-3.463,0-6.269,2.807-6.269,6.269l0,0c0,3.463,2.807,6.269,6.269,6.269  H464.98c3.463,0,6.269-2.807,6.269-6.269l0,0C471.249,290.436,468.442,287.629,464.98,287.629z"/>
<path style="fill:#34ABE0;" d="M460.8,248.06L460.8,248.06c0-12.002-9.729-21.731-21.731-21.731h-0.56v21.731"/>
<path style="fill:#EF4152;" d="M484.091,263.732l-4.253,8.223c-6.844,13.239-20.511,21.556-35.412,21.556h-74.47V277.18  c0,0,46.958,0,74.125,0C471.249,277.18,484.091,263.732,484.091,263.732z"/>
<path style="fill:#FFDC8D;" d="M479.66,92.902c0,41.545-33.677,75.222-75.222,75.222c-41.556,0-75.233-33.677-75.233-75.222  s33.677-75.233,75.233-75.233c4.598,0,9.112,0.418,13.479,1.202c0.01,0,0.01,0,0.021,0c30.73,5.58,54.962,29.821,60.52,60.552  C479.242,83.79,479.66,88.304,479.66,92.902z"/>
<path style="fill:#FFD15C;" d="M478.459,79.423c-0.021,33.415-27.105,60.5-60.521,60.5c-33.426,0-60.52-27.105-60.52-60.531  c0-33.405,27.084-60.51,60.5-60.52c0.01,0,0.01,0,0.021,0C448.669,24.451,472.9,48.692,478.459,79.423z"/>
<g>
	<path style="fill:#FFDC8D;" d="M146.619,320.154L146.619,320.154c-4.761,0-8.62-3.859-8.62-8.62V167.346   c0-4.761,3.859-8.62,8.62-8.62l0,0c4.761,0,8.62,3.859,8.62,8.62v144.189C155.239,316.295,151.38,320.154,146.619,320.154z"/>
	<path style="fill:#FFDC8D;" d="M259.519,320.154L259.519,320.154c-4.761,0-8.62-3.859-8.62-8.62V167.346   c0-4.761,3.859-8.62,8.62-8.62l0,0c4.761,0,8.62,3.859,8.62,8.62v144.189C268.14,316.295,264.28,320.154,259.519,320.154z"/>
</g>
<path style="fill:#FCF8F2;" d="M354.324,166.605L354.324,166.605c0-6.083,4.931-11.014,11.013-11.014H469.97  c6.082,0,11.013,4.931,11.013,11.013v0.001c0,6.082-4.931,11.013-11.013,11.013h-17.438c-6.082,0-11.013,4.931-11.013,11.013v0.001  c0,6.082-4.931,11.013-11.013,11.013h-87.194c-6.082,0-11.013-4.931-11.013-11.013v-0.001c0-6.082,4.931-11.013,11.013-11.013l0,0  C349.393,177.618,354.324,172.687,354.324,166.605z"/>
<g>
	<circle style="fill:#FFDC8D;" cx="146.62" cy="142.555" r="8.62"/>
	<circle style="fill:#FFDC8D;" cx="259.521" cy="142.555" r="8.62"/>
</g>
<g>
</g>
<g>
</g>
<g>
</g>
<g>
</g>
<g>
</g>
<g>
</g>
<g>
</g>
<g>
</g>
<g>
</g>
<g>
</g>
<g>
</g>
<g>
</g>
<g>
</g>
<g>
</g>
<g>
</g>
</svg>
