<?xml version="1.0" encoding="iso-8859-1"?>
<!-- Generator: Adobe Illustrator 19.0.0, SVG Export Plug-In . SVG Version: 6.00 Build 0)  -->
<svg xmlns="http://www.w3.org/2000/svg" xmlns:xlink="http://www.w3.org/1999/xlink" version="1.1" id="Capa_1" x="0px" y="0px" viewBox="0 0 512 512" style="enable-background:new 0 0 512 512;" xml:space="preserve">
<path style="fill:#34ABE0;" d="M512,256c0,105.566-63.906,196.211-155.136,235.363C325.914,504.644,291.819,512,256,512  c-17.544,0-34.691-1.766-51.242-5.141c-19.257-3.908-37.742-9.979-55.171-17.962c-26.331-12.048-50.26-28.432-70.886-48.233  c-14.117-13.563-26.697-28.735-37.418-45.213C15.172,355.338,0,307.43,0,256c0-7.91,0.355-15.726,1.066-23.448  c1.87-20.574,6.165-40.438,12.612-59.308c4.88-14.315,10.992-28.045,18.223-41.085c3.542-6.405,7.346-12.633,11.41-18.683  c4.524-6.729,9.352-13.239,14.493-19.498c5.392-6.593,11.118-12.915,17.136-18.934c29.278-29.309,65.641-51.555,106.287-63.948  C204.884,3.877,229.982,0,256,0c135.189,0,245.896,104.782,255.342,237.568C511.781,243.649,512,249.804,512,256z"/>
<path style="fill:#78CAEF;" d="M344.032,113.728L344.032,113.728c0-5.501,4.46-9.961,9.961-9.961h32.098  c5.501,0,9.961-4.46,9.961-9.961l0,0c0-5.501-4.46-9.961-9.961-9.961h-94.627c-5.501,0-9.961,4.46-9.961,9.961l0,0  c0,5.501-4.46,9.961-9.961,9.961h-32.098c-5.501,0-9.961,4.46-9.961,9.961l0,0c0,5.501,4.46,9.961,9.961,9.961h47.593  c5.501,0,9.961,4.46,9.961,9.961l0,0c0,5.501,4.46,9.961,9.961,9.961h94.627c5.501,0,9.961-4.46,9.961-9.961l0,0  c0-5.501-4.46-9.961-9.961-9.961h-47.593C348.491,123.689,344.032,119.229,344.032,113.728z"/>
<path style="fill:#E8DBC4;" d="M356.864,491.363C325.914,504.644,291.819,512,256,512c-89.945,0-169.054-46.383-214.716-116.548  C15.172,355.338,0,307.43,0,256c0-7.91,0.355-15.726,1.066-23.448l48.494-48.494l101.564,101.564L356.864,491.363z"/>
<path style="fill:#F9EED7;" d="M119.656,280.397c0,5.507,4.451,9.968,9.958,9.968h17.951c-1.923,6.76-4.127,13.396-6.583,19.916  H82.584c-2.759,0-5.245-1.118-7.053-2.915c-1.797-1.808-2.915-4.295-2.915-7.043c0-5.507-4.451-9.958-9.958-9.958H15.062  c-2.748,0-5.235-1.118-7.043-2.915c-1.797-1.808-2.915-4.305-2.915-7.053c0-5.496,4.462-9.958,9.958-9.958h32.099  c2.759,0,5.245-1.118,7.043-2.915c1.797-1.808,2.915-4.295,2.915-7.043c0-5.507,4.462-9.958,9.968-9.958h88.482  c-0.794,6.719-1.86,13.364-3.166,19.916h-22.789C124.108,270.439,119.656,274.901,119.656,280.397z"/>
<path style="fill:#FCF8F2;" d="M512,256c0,10.355-0.616,20.553-1.808,30.584c-0.794,6.719-1.86,13.364-3.166,19.916  c-1.348,6.74-2.967,13.385-4.838,19.926c-1.923,6.76-4.127,13.396-6.583,19.916c-9.77,25.903-23.615,49.8-40.772,70.917  c-18.181,22.382-40.061,41.629-64.7,56.811c-10.606,6.552-21.713,12.33-33.27,17.293C325.914,504.644,291.819,512,256,512  c-89.945,0-169.054-46.383-214.716-116.548l109.84-109.829l73.362-73.362l33.155-33.165l97.614-97.614l88.325,88.325l59.768,59.768  l7.993,7.993C511.781,243.649,512,249.804,512,256z"/>
<path style="fill:#F9EED7;" d="M143.566,385.422L143.566,385.422c0-5.501-4.46-9.961-9.961-9.961h-32.098  c-5.501,0-9.961-4.46-9.961-9.961l0,0c0-5.501,4.46-9.961,9.961-9.961h94.627c5.501,0,9.961,4.46,9.961,9.961l0,0  c0,5.501,4.46,9.961,9.961,9.961h32.098c5.501,0,9.961,4.46,9.961,9.961l0,0c0,5.501-4.46,9.961-9.961,9.961h-47.593  c-5.501,0-9.961,4.46-9.961,9.961l0,0c0,5.501-4.46,9.961-9.961,9.961H86.012c-5.501,0-9.961-4.46-9.961-9.961l0,0  c0-5.501,4.46-9.961,9.961-9.961h47.593C139.106,395.383,143.566,390.923,143.566,385.422z"/>
<path style="fill:#FF525D;" d="M208.468,432.567l5.538,39.549c0,12.654-3.365,24.513-9.247,34.743  c-48.368-9.812-91.784-33.28-126.056-66.194l1.139-8.098c0.805-5.736,1.567-11.483,2.278-17.23  c5.475-43.719,8.432-87.667,8.892-131.647c0.042-4.295,0.063-8.579,0.063-12.873c-0.01-9.111-0.115-18.213-0.345-27.324  c-0.199-8.307-0.481-16.624-0.867-24.931c-1.609-35.171-4.827-70.28-9.644-105.232L74.94,75.045l-0.648-4.733  c0-38.578,31.274-69.851,69.862-69.851c13.625,0,26.331,3.897,37.073,10.637c12.716,7.993,22.685,19.958,28.139,34.168  c2.999,7.774,4.639,16.217,4.639,25.046l-5.925,43.018c-2.591,18.819-4.723,37.689-6.384,56.592  c-1.421,16.196-2.508,32.413-3.25,48.64c-0.376,8.307-0.669,16.614-0.878,24.931c-0.199,8.307-0.303,16.624-0.324,24.942  c-0.031,8.307,0.031,16.614,0.199,24.931c0.209,11.463,0.596,22.915,1.149,34.377c0.805,16.635,1.975,33.259,3.5,49.863  C203.776,395.964,205.908,414.292,208.468,432.567z"/>
<g>
	<path style="fill:#FF6E7C;" d="M214.005,70.308l-5.925,43.018c-2.591,18.819-4.723,37.689-6.384,56.592h-75.922   c-3.448,0-6.562-1.4-8.819-3.647c-2.257-2.257-3.647-5.381-3.647-8.819c0-6.886,5.58-12.466,12.466-12.466h37.898   c3.438,0,6.552-1.4,8.808-3.647c2.257-2.257,3.657-5.381,3.657-8.819c0-6.886-5.59-12.466-12.466-12.466h-10.585   c-3.448,0-6.562-1.4-8.819-3.647c-2.257-2.257-3.647-5.381-3.647-8.819c0-6.886,5.58-12.466,12.466-12.466h35.015   c3.438,0,6.562-1.4,8.819-3.647c2.247-2.257,3.647-5.381,3.647-8.819c0-6.886-5.58-12.466-12.466-12.466h-76.873   c-3.448,0-6.562-1.4-8.819-3.647c-2.257-2.257-3.647-5.381-3.647-8.819c0-6.886,5.58-12.466,12.466-12.466h98.137   C212.364,53.036,214.005,61.479,214.005,70.308z"/>
	<path style="fill:#FF6E7C;" d="M185.051,452.733c0,6.886-5.59,12.466-12.466,12.466h-3.469c-3.448,0-6.562,1.39-8.819,3.647   s-3.647,5.371-3.647,8.819c0,4.953-2.884,9.226-7.064,11.233c-26.331-12.048-50.26-28.432-70.886-48.233l1.139-8.098   c0.805-5.736,1.567-11.483,2.278-17.23h35.913c6.886,0,12.466,5.58,12.466,12.466c0,6.886,5.59,12.466,12.476,12.466h29.612   c3.438,0,6.552,1.39,8.809,3.647C183.651,446.171,185.051,449.285,185.051,452.733z"/>
	<path style="fill:#FF6E7C;" d="M149.555,255.965c0,6.875,5.59,12.466,12.466,12.466h35.223c-0.031,8.307,0.031,16.614,0.199,24.931   h-94.281c-3.448,0-6.562-1.4-8.819-3.647c-1.63-1.63-2.8-3.709-3.333-6.029c0.219-21.713-0.157-43.426-1.149-65.128h108.586   c-0.376,8.307-0.669,16.614-0.878,24.931h-35.547C155.145,243.489,149.555,249.08,149.555,255.965z"/>
	<path style="fill:#FF6E7C;" d="M202.093,377.602h-34.398c-3.448,0-6.562-1.4-8.819-3.647c-2.257-2.257-3.647-5.381-3.647-8.819   c0-6.886-5.59-12.466-12.466-12.466h-19.738c-3.438,0-6.562-1.4-8.819-3.647c-2.247-2.257-3.647-5.381-3.647-8.819   c0-6.886,5.58-12.466,12.466-12.466h75.567C199.397,344.374,200.567,360.999,202.093,377.602z"/>
</g>
<path style="fill:#FF525D;" d="M130.601,255.955c0,3.438-1.4,6.562-3.647,8.819c-2.257,2.247-5.381,3.647-8.819,3.647H98.397  c-2.738,0-5.266,0.878-7.325,2.393c-0.01-9.112-0.115-18.213-0.345-27.324h27.408C125.021,243.489,130.601,249.069,130.601,255.955z  "/>
<g>
	<path style="fill:#78CAEF;" d="M62.015,136.317c1.808,1.808,2.915,4.295,2.915,7.043c0,5.507-4.451,9.968-9.958,9.968H53.99   c-2.748,0-5.235,1.118-7.043,2.915c-1.797,1.797-2.915,4.284-2.915,7.043c0,5.496-4.462,9.958-9.958,9.958H13.678   c4.88-14.315,10.992-28.045,18.223-41.085c1.421,0.794,3.062,1.243,4.807,1.243h18.265C57.72,133.402,60.217,134.52,62.015,136.317   z"/>
	<path style="fill:#78CAEF;" d="M54.972,113.476H43.311c4.524-6.729,9.352-13.239,14.493-19.498c4.127,1.212,7.126,5.026,7.126,9.54   C64.93,109.025,60.479,113.476,54.972,113.476z"/>
</g>
<g>
	<path style="fill:#F9EED7;" d="M503.348,229.575h-72.84c-2.748,0-5.235-1.118-7.043-2.915c-1.797-1.808-2.915-4.295-2.915-7.053   c0-5.496,4.462-9.958,9.958-9.958h2.769c2.748,0,5.235-1.118,7.043-2.915c1.797-1.808,2.915-4.295,2.915-7.043   c0-5.507-4.462-9.958-9.958-9.958h-27.146c-2.759,0-5.245-1.118-7.053-2.915c-1.797-1.808-2.915-4.305-2.915-7.053   c0-5.496,4.462-9.958,9.968-9.958h37.449L503.348,229.575z"/>
	<path style="fill:#F9EED7;" d="M454.834,417.259c-18.181,22.382-40.061,41.629-64.7,56.811h-1.943   c-2.748,0-5.235-1.118-7.043-2.915c-1.797-1.808-2.915-4.305-2.915-7.053c0-5.496,4.462-9.958,9.958-9.958h2.769   c2.759,0,5.245-1.118,7.043-2.915c1.797-1.808,2.915-4.294,2.915-7.043c0-5.507-4.451-9.968-9.958-9.968h-27.146   c-2.759,0-5.245-1.118-7.053-2.915c-1.797-1.797-2.915-4.284-2.915-7.043c0-5.496,4.462-9.958,9.968-9.958h83.937   C450.518,414.302,453.026,415.431,454.834,417.259z"/>
	<path style="fill:#F9EED7;" d="M474.279,316.458c0,5.507,4.451,9.968,9.958,9.968h17.951c-1.923,6.76-4.127,13.396-6.583,19.916   h-58.399c-2.759,0-5.245-1.118-7.053-2.915c-1.797-1.808-2.915-4.295-2.915-7.043c0-5.507-4.451-9.958-9.958-9.958h-47.595   c-2.748,0-5.235-1.118-7.043-2.915c-1.797-1.808-2.915-4.305-2.915-7.053c0-5.496,4.462-9.958,9.958-9.958h32.099   c2.759,0,5.245-1.118,7.043-2.915c1.797-1.808,2.915-4.295,2.915-7.043c0-5.507,4.462-9.958,9.968-9.958h88.482   c-0.794,6.719-1.86,13.364-3.166,19.916h-22.789C478.73,306.5,474.279,310.962,474.279,316.458z"/>
	<path style="fill:#F9EED7;" d="M322.706,208.98c0,5.507-4.462,9.968-9.958,9.968H233.89c-2.759,0-5.245-1.118-7.043-2.915   c-1.045-1.055-1.86-2.341-2.361-3.772l33.155-33.165h35.182c5.507,0,9.958,4.462,9.958,9.968c0,2.748,1.118,5.235,2.915,7.043   c1.808,1.797,4.305,2.915,7.053,2.915c2.748,0,5.235,1.118,7.043,2.915C321.588,203.745,322.706,206.231,322.706,208.98z"/>
</g>
<g>
</g>
<g>
</g>
<g>
</g>
<g>
</g>
<g>
</g>
<g>
</g>
<g>
</g>
<g>
</g>
<g>
</g>
<g>
</g>
<g>
</g>
<g>
</g>
<g>
</g>
<g>
</g>
<g>
</g>
</svg>
