<?xml version="1.0" encoding="iso-8859-1"?>
<!-- Generator: Adobe Illustrator 19.0.0, SVG Export Plug-In . SVG Version: 6.00 Build 0)  -->
<svg xmlns="http://www.w3.org/2000/svg" xmlns:xlink="http://www.w3.org/1999/xlink" version="1.1" id="Capa_1" x="0px" y="0px" viewBox="0 0 512 512" style="enable-background:new 0 0 512 512;" xml:space="preserve">
<path style="fill:#34ABE0;" d="M512,256c0,4.66-0.125,9.279-0.376,13.876c-1.358,25.516-6.457,50.04-14.764,73.038  c-24.754,68.618-78.012,123.622-145.471,150.716C321.912,505.48,289.719,512,256,512c-0.585,0-1.16,0-1.745-0.01  C113.674,511.06,0,396.8,0,256c0-73.989,31.389-140.654,81.586-187.382c21.943-20.438,47.47-37.063,75.557-48.828  C187.549,7.043,220.954,0,256,0C397.385,0,512,114.615,512,256z"/>
<g>
	<path style="fill:#78CAEF;" d="M277.434,307.137L277.434,307.137c0-6.723-5.45-12.173-12.173-12.173h-4.057   c-6.723,0-12.173-5.45-12.173-12.173l0,0c0-6.723-5.45-12.173-12.173-12.173H50.21c-6.723,0-12.173,5.45-12.173,12.173l0,0   c0,6.723,5.45,12.173,12.173,12.173h75.065c6.723,0,12.173,5.45,12.173,12.173l0,0c0,6.723-5.45,12.173-12.173,12.173H91.087   c-6.723,0-12.173,5.45-12.173,12.173l0,0c0,6.723,5.45,12.173,12.173,12.173h10.328c6.723,0,12.173,5.45,12.173,12.173l0,0   c0,6.723-5.45,12.173-12.173,12.173H64.412c-6.723,0-12.173,5.45-12.173,12.173l0,0c0,6.723,5.45,12.173,12.173,12.173h175.308   c6.723,0,12.173-5.45,12.173-12.173l0,0c0-6.723,5.45-12.173,12.173-12.173h1.196c6.723,0,12.173-5.45,12.173-12.173l0,0   c0-6.723-5.45-12.173-12.173-12.173h-22.317c-6.723,0-12.173-5.45-12.173-12.173l0,0c0-6.723,5.45-12.173,12.173-12.173h22.317   C271.984,319.31,277.434,313.86,277.434,307.137z"/>
	<path style="fill:#78CAEF;" d="M511.624,269.876c-1.358,25.516-6.457,50.04-14.764,73.038h-28.223c-3.365,0-6.405-1.369-8.61-3.563   c-2.194-2.205-3.563-5.245-3.563-8.61c0-6.719,5.454-12.173,12.173-12.173h3.385c3.365,0,6.405-1.369,8.61-3.563   c2.194-2.205,3.563-5.245,3.563-8.61c0-6.719-5.454-12.173-12.173-12.173h-33.186c-3.365,0-6.405-1.369-8.61-3.563   c-2.194-2.205-3.563-5.245-3.563-8.61c0-6.719,5.454-12.173,12.173-12.173L511.624,269.876L511.624,269.876z"/>
	<path style="fill:#78CAEF;" d="M231.936,80.656c0,6.719-5.454,12.173-12.173,12.173H104.124c-3.365,0-6.405-1.369-8.61-3.563   c-2.205-2.205-3.563-5.245-3.563-8.61c0-6.113-4.504-11.17-10.365-12.037c21.943-20.438,47.47-37.063,75.557-48.828h43.677   c3.365,0,6.405,1.358,8.61,3.563c2.205,2.205,3.563,5.245,3.563,8.61c0,6.719-5.444,12.173-12.173,12.173h-39.225   c-6.719,0-12.173,5.444-12.173,12.173c0,6.719,5.454,12.173,12.173,12.173h58.169c3.365,0,6.405,1.358,8.61,3.563   C230.567,74.25,231.936,77.291,231.936,80.656z"/>
	<path style="fill:#78CAEF;" d="M351.389,493.631C321.912,505.48,289.719,512,256,512c-0.585,0-1.16,0-1.745-0.01   c-1.191-5.475-6.071-9.561-11.891-9.561h-19.268c-3.365,0-6.405-1.369-8.61-3.563c-2.205-2.205-3.563-5.245-3.563-8.61   c0-6.729,5.444-12.173,12.173-12.173h115.639c6.719,0,12.173,5.444,12.173,12.173C350.908,491.426,351.075,492.554,351.389,493.631   z"/>
</g>
<path style="fill:#5C5E70;" d="M362.496,318.913c-0.711-1.473-1.682-2.863-2.905-4.086L200.161,155.397  c-1.223-1.223-2.612-2.194-4.086-2.905c-4.127-1.996-8.955-1.996-13.082,0c-1.473,0.711-2.863,1.682-4.086,2.905L66.079,268.225  c-5.862,5.872-5.862,15.381,0,21.253l159.431,159.42c5.862,5.872,15.381,5.872,21.253,0l21.932-21.932l90.896-90.885  c1.223-1.223,2.194-2.612,2.905-4.086C364.481,327.868,364.481,323.03,362.496,318.913z M253.816,399.339l-17.68,17.68  L97.97,278.852l91.564-91.564l138.167,138.167L253.816,399.339z"/>
<path style="fill:#FF525D;" d="M312.499,456.657C273.827,335.972,179.017,241.162,58.332,202.491  c-20.503-6.568-26.141-32.982-9.804-46.998c6.724-5.778,13.668-11.394,20.821-16.846c3.931-3.015,7.935-5.969,11.999-8.881  c4.212-3.015,8.49-5.978,12.841-8.881c96.443-64.643,224.678-102.029,366.804-94.448c14.873,0.79,26.762,12.679,27.559,27.559  c7.581,142.126-29.813,270.369-94.456,366.811c-2.904,4.352-5.866,8.63-8.882,12.842c-2.911,4.064-5.866,8.068-8.881,11.999  c-5.452,7.152-11.068,14.097-16.839,20.813C345.482,482.798,319.068,477.161,312.499,456.657z"/>
<path style="fill:#494B5B;" d="M362.496,318.913v13.082c-0.711,1.473-1.682,2.863-2.905,4.086l-90.896,90.885  c-4.598-9.435-9.561-18.651-14.879-27.627l73.885-73.885L189.534,187.288l-73.885,73.885c-8.986-5.319-18.202-10.282-27.638-14.879  l90.896-90.896c1.223-1.223,2.612-2.194,4.086-2.905h13.082c1.473,0.711,2.863,1.682,4.086,2.905l159.431,159.431  C360.814,316.05,361.785,317.44,362.496,318.913z"/>
<path style="fill:#4BC999;" d="M312.499,456.657C273.827,335.972,179.017,241.162,58.332,202.491  c-20.503-6.568-26.141-32.982-9.804-46.998c10.432-8.955,21.383-17.541,32.82-25.727h303.876v34.327v82.264l-0.007,47.737v139.556  c-8.187,11.437-16.772,22.387-25.719,32.812C345.482,482.798,319.068,477.161,312.499,456.657z"/>
<g>
	<path style="fill:#EF4152;" d="M257.41,260.884l-3.307-3.307c-8.569-8.569-8.569-22.461,0-31.03l124.714-124.714   c8.569-8.569,22.461-8.569,31.03,0l3.307,3.307c8.569,8.569,8.569,22.461,0,31.03L288.44,260.884   C279.872,269.452,265.979,269.452,257.41,260.884z"/>
	<path style="fill:#EF4152;" d="M314.575,342.575l-2.362-2.362c-6.121-6.121-6.121-16.044,0-22.164l68.584-68.584   c6.121-6.121,16.044-6.121,22.164,0l2.363,2.363c6.121,6.121,6.121,16.044,0,22.164l-68.584,68.584   C330.619,348.696,320.696,348.696,314.575,342.575z"/>
	<path style="fill:#EF4152;" d="M174.774,202.774l-2.363-2.363c-6.121-6.121-6.121-16.044,0-22.164l68.584-68.584   c6.121-6.121,16.044-6.121,22.164,0l2.363,2.363c6.121,6.121,6.121,16.044,0,22.164l-68.584,68.584   C190.817,208.894,180.894,208.894,174.774,202.774z"/>
</g>
<g>
	<path style="fill:#41B787;" d="M385.225,164.094l-96.79,96.79c-8.569,8.569-22.462,8.569-31.031,0l-3.303-3.303   c-8.57-8.57-8.563-22.468,0-31.031l96.783-96.783h7.663c14.734,0,26.679,11.944,26.679,26.679L385.225,164.094z"/>
	<path style="fill:#41B787;" d="M385.217,294.095l-48.477,48.477c-6.125,6.125-16.04,6.125-22.165,0l-2.357-2.357   c-6.125-6.125-6.125-16.04,0-22.165l68.581-68.581c1.323-1.323,2.822-2.365,4.425-3.111L385.217,294.095z"/>
	<path style="fill:#41B787;" d="M265.523,134.192l-68.581,68.581c-6.125,6.125-16.048,6.118-22.165,0l-2.365-2.365   c-6.118-6.118-6.125-16.04,0-22.165l48.477-48.477h47.745C267.887,131.37,266.845,132.869,265.523,134.192z"/>
</g>
<path style="fill:#FFD15C;" d="M376.336,445.649V302.977l0.007-49.053V138.648H261.067h-49.06H69.349  c3.931-3.015,7.935-5.969,11.999-8.881c4.212-3.015,8.49-5.978,12.841-8.881h135.58h40.194h89.801h22.86  c6.339,0,11.481,5.142,11.481,11.481v22.846l-0.007,89.823v40.179V420.81c-2.904,4.352-5.866,8.63-8.882,12.842  C382.306,437.713,379.351,441.718,376.336,445.649z"/>
<g>
	<path style="fill:#EDBB4C;" d="M394.106,155.212l-17.762,17.762v-34.327h-34.342l17.762-17.762h22.86   c6.339,0,11.481,5.142,11.481,11.481V155.212z"/>
	<path style="fill:#EDBB4C;" d="M394.098,285.214l-17.762,17.762l0.007-49.053l4.455-4.455c3.628-3.628,8.592-5.105,13.299-4.434   V285.214z"/>
	<path style="fill:#EDBB4C;" d="M265.523,134.192l-4.455,4.455h-49.06l17.762-17.762h40.194   C270.629,125.599,269.15,130.564,265.523,134.192z"/>
</g>
<g>
	<circle style="fill:#FF6E7C;" cx="427.447" cy="75.661" r="21.942"/>
	<circle style="fill:#FF6E7C;" cx="374.157" cy="59.988" r="12.538"/>
</g>
<g>
</g>
<g>
</g>
<g>
</g>
<g>
</g>
<g>
</g>
<g>
</g>
<g>
</g>
<g>
</g>
<g>
</g>
<g>
</g>
<g>
</g>
<g>
</g>
<g>
</g>
<g>
</g>
<g>
</g>
</svg>
