<?xml version="1.0" encoding="iso-8859-1"?>
<!-- Generator: Adobe Illustrator 19.0.0, SVG Export Plug-In . SVG Version: 6.00 Build 0)  -->
<svg xmlns="http://www.w3.org/2000/svg" xmlns:xlink="http://www.w3.org/1999/xlink" version="1.1" id="Capa_1" x="0px" y="0px" viewBox="0 0 512 512" style="enable-background:new 0 0 512 512;" xml:space="preserve">
<path style="fill:#FCF8F2;" d="M268.016,0.282v9.979h-24.033V0.282C247.965,0.094,251.977,0,256,0  C260.033,0,264.035,0.094,268.016,0.282z"/>
<path style="fill:#5C5E70;" d="M512,256c0,67.668-26.248,129.191-69.12,174.968c-16.927,18.066-36.436,33.677-57.94,46.237  c-34.628,20.219-74.428,32.549-116.924,34.513C264.035,511.906,260.033,512,256,512c-4.023,0-8.035-0.094-12.016-0.282  c-46.111-2.121-89.025-16.447-125.618-39.832c-4.545-2.905-8.997-5.945-13.333-9.132c-4.577-3.333-9.028-6.823-13.364-10.47  c-3.229-2.706-6.395-5.486-9.488-8.359c-4.086-3.762-8.035-7.67-11.86-11.692c-0.596-0.627-1.191-1.254-1.776-1.891  C29.581,388.472,4.472,333.51,0.543,272.781C0.178,267.233,0,261.642,0,256c0-2.111,0.021-4.211,0.073-6.311  c1.599-65.787,28.014-125.45,70.248-169.921c14.315-15.078,30.438-28.411,48.034-39.654c36.592-23.374,79.517-37.7,125.628-39.832  C247.965,0.094,251.977,0,256,0c4.033,0,8.035,0.094,12.016,0.282C403.822,6.552,512,118.638,512,256z"/>
<g>
	<path style="fill:#797B89;" d="M194.853,284.327c0,6.384-5.172,11.546-11.546,11.546H73.613c-3.187,0-6.071-1.285-8.161-3.375   c-2.09-2.09-3.385-4.974-3.385-8.171c0-6.374-5.162-11.546-11.536-11.546H0.543C0.178,267.233,0,261.642,0,256   c0-2.111,0.021-4.211,0.073-6.311h32.496c3.187,0,6.071-1.285,8.161-3.375c2.09-2.09,3.385-4.974,3.385-8.171   c0-6.374,5.162-11.546,11.546-11.546h109.683c3.187,0,6.071,1.296,8.161,3.385c2.09,2.09,3.385,4.974,3.385,8.161   c0,6.384-5.172,11.546-11.546,11.546h-37.209c-6.374,0-11.546,5.172-11.546,11.546c0,6.384,5.172,11.546,11.546,11.546h55.171   c3.187,0,6.071,1.296,8.161,3.385S194.853,281.14,194.853,284.327z"/>
	<path style="fill:#797B89;" d="M408.014,77.917L408.014,77.917c0-6.377-5.169-11.546-11.546-11.546h-3.848   c-6.377,0-11.546-5.169-11.546-11.546l0,0c0-6.377-5.169-11.546-11.546-11.546H192.488c-6.377,0-11.546,5.169-11.546,11.546l0,0   c0,6.377,5.169,11.546,11.546,11.546h71.2c6.377,0,11.546,5.169,11.546,11.546l0,0c0,6.377-5.169,11.546-11.546,11.546H231.26   c-6.377,0-11.546,5.169-11.546,11.546l0,0c0,6.377,5.169,11.546,11.546,11.546h9.796c6.377,0,11.546,5.169,11.546,11.546l0,0   c0,6.377-5.169,11.546-11.546,11.546h-35.098c-6.377,0-11.546,5.169-11.546,11.546l0,0c0,6.377,5.169,11.546,11.546,11.546h166.283   c6.377,0,11.546-5.169,11.546-11.546l0,0c0-6.377,5.169-11.546,11.546-11.546h1.135c6.377,0,11.546-5.169,11.546-11.546l0,0   c0-6.377-5.169-11.546-11.546-11.546H375.3c-6.377,0-11.546-5.169-11.546-11.546l0,0c0-6.377,5.169-11.546,11.546-11.546h21.168   C402.845,89.463,408.014,84.293,408.014,77.917z"/>
	<path style="fill:#797B89;" d="M442.88,430.968c-16.927,18.066-36.436,33.677-57.94,46.237h-33.102   c-3.187,0-6.071-1.296-8.161-3.385c-2.09-2.09-3.385-4.974-3.385-8.161c0-6.374,5.172-11.546,11.546-11.546h3.208   c3.187,0,6.081-1.296,8.171-3.385c2.079-2.09,3.375-4.974,3.375-8.161c0-6.374-5.162-11.546-11.546-11.546h-31.472   c-3.187,0-6.071-1.296-8.161-3.385c-2.09-2.09-3.385-4.974-3.385-8.161c0-6.374,5.172-11.546,11.546-11.546h97.301   c6.374,0,11.546,5.172,11.546,11.546C432.421,425.482,437.018,430.425,442.88,430.968z"/>
</g>
<path style="fill:#5C5E70;" d="M441.911,124.4v-0.001c0-6.376-5.169-11.545-11.545-11.545H320.678  c-6.376,0-11.545,5.169-11.545,11.545v0.001c0,6.376,5.169,11.545,11.545,11.545h18.282c6.376,0,11.545,5.169,11.545,11.545v0.001  c0,6.376,5.169,11.545,11.545,11.545h91.408c6.376,0,11.545-5.169,11.545-11.545v-0.001c0-6.376-5.169-11.545-11.545-11.545l0,0  C447.08,135.946,441.911,130.777,441.911,124.4z"/>
<g>
	<path style="fill:#FCF8F2;" d="M268.016,470.486v41.232C264.035,511.906,260.033,512,256,512c-4.023,0-8.035-0.094-12.016-0.282   v-41.232H268.016z"/>
	<rect x="243.984" y="377.49" style="fill:#FCF8F2;" width="24.033" height="62.694"/>
	<rect x="243.984" y="124.625" style="fill:#FCF8F2;" width="24.033" height="62.694"/>
	<rect x="243.984" y="32.968" style="fill:#FCF8F2;" width="24.033" height="62.694"/>
</g>
<path style="fill:#34ABE0;" d="M172.471,168.396v176.797c0,16.3-8.767,31.336-22.936,39.372c-7.095,4.012-12.821,9.78-16.792,16.583  c-3.96,6.792-6.154,14.629-6.154,22.779v28.076c0,7.764-3.145,14.796-8.223,19.884c-17.596-11.243-33.729-24.576-48.044-39.654  v-8.307c0-16.3-8.767-31.336-22.936-39.361c-7.095-4.023-12.821-9.791-16.792-16.583c-3.96-6.802-6.154-14.639-6.154-22.789V168.396  c0-15.496,7.941-29.926,21.044-38.222l3.803-2.403c13.093-8.296,21.034-22.727,21.034-38.222V60.008  c0-15.548,12.591-28.139,28.139-28.139c7.764,0,14.806,3.145,19.895,8.244c5.089,5.089,8.234,12.121,8.234,19.895v29.539  c0,15.496,7.941,29.926,21.044,38.222l3.803,2.403C164.53,138.47,172.471,152.9,172.471,168.396z"/>
<rect x="27.873" y="68.746" style="fill:#5C5E70;" width="144.624" height="13.584"/>
<g>
	<path style="fill:#F9EED7;" d="M33.747,45.678H21.998c-6.421,0-11.627,5.206-11.627,11.627v36.456   c0,6.421,5.206,11.627,11.627,11.627h11.75c6.421,0,11.627-5.206,11.627-11.627V57.304C45.374,50.883,40.169,45.678,33.747,45.678z   "/>
	<path style="fill:#F9EED7;" d="M174.915,45.678h-11.75c-6.421,0-11.627,5.206-11.627,11.627v36.456   c0,6.421,5.206,11.627,11.627,11.627h11.75c6.421,0,11.627-5.206,11.627-11.627V57.304   C186.541,50.883,181.336,45.678,174.915,45.678z"/>
</g>
<g>
	<path style="fill:#E8DBC4;" d="M10.376,73.863v19.895c0,6.426,5.204,11.63,11.619,11.63H33.75c6.416,0,11.619-5.204,11.619-11.63   V73.863c0,6.416-5.204,11.63-11.619,11.63H21.995C15.579,85.491,10.376,80.277,10.376,73.863z"/>
	<path style="fill:#E8DBC4;" d="M151.542,73.863v19.895c0,6.426,5.204,11.63,11.619,11.63h11.755c6.416,0,11.63-5.204,11.63-11.63   V73.863c0,6.416-5.214,11.63-11.63,11.63h-11.755C156.745,85.491,151.542,80.277,151.542,73.863z"/>
</g>
<path style="fill:#279FC9;" d="M91.665,61.534v37.925c0,3.751,3.041,6.792,6.792,6.792c3.751,0,6.792-3.041,6.792-6.792V61.534  c0-3.751-3.041-6.792-6.792-6.792C94.705,54.742,91.665,57.783,91.665,61.534z"/>
<path style="fill:#5C5E70;" d="M172.502,430.341v13.584H82.181c-4.086-3.762-8.035-7.67-11.86-11.692  c-0.596-0.627-1.191-1.254-1.776-1.891H172.502z"/>
<path style="fill:#F9EED7;" d="M174.915,407.274h-11.75c-6.421,0-11.627,5.206-11.627,11.627v36.456  c0,6.421,5.206,11.627,11.627,11.627h11.75c6.421,0,11.627-5.206,11.627-11.627V418.9  C186.541,412.479,181.336,407.274,174.915,407.274z"/>
<path style="fill:#E8DBC4;" d="M151.542,435.458v19.895c0,6.426,5.204,11.63,11.619,11.63h11.755c6.416,0,11.63-5.204,11.63-11.63  v-19.895c0,6.416-5.214,11.63-11.63,11.63h-11.755C156.745,447.088,151.542,441.874,151.542,435.458z"/>
<path style="fill:#279FC9;" d="M105.253,423.131v37.919c0,0.585-0.073,1.16-0.219,1.703c-4.577-3.333-9.028-6.823-13.364-10.47  v-29.153c0-3.751,3.041-6.792,6.792-6.792C102.212,416.34,105.253,419.38,105.253,423.131z"/>
<path style="fill:#78CAEF;" d="M137.804,159.025v94.702c0,4.241,3.439,7.68,7.68,7.68h4.841c4.241,0,7.68-3.439,7.68-7.68v-94.702  c0-4.241-3.439-7.68-7.68-7.68h-4.841C141.243,151.345,137.804,154.783,137.804,159.025z"/>
<path style="fill:#FFD15C;" d="M407.431,0.001c-18.804,0-35.807,7.619-48.13,19.93c-6.911,6.911-12.335,15.296-15.773,24.646  c-2.695,7.317-4.158,15.226-4.158,23.473v260.486c0,37.595,30.464,68.06,68.06,68.06c37.584,0,68.048-30.464,68.048-68.06V68.049  c0-8.246-1.463-16.155-4.158-23.473C461.761,18.561,436.768,0.001,407.431,0.001z"/>
<rect x="365.244" y="76.748" style="fill:#5C5E70;" width="84.365" height="10.574"/>
<g>
	<path style="fill:#F9EED7;" d="M455.703,102.461L455.703,102.461c6.611,0,11.97-5.359,11.97-11.97V73.592   c0-6.611-5.359-11.97-11.97-11.97l0,0c-6.611,0-11.97,5.359-11.97,11.97v16.899C443.734,97.101,449.093,102.461,455.703,102.461z"/>
	<path style="fill:#F9EED7;" d="M359.15,102.461L359.15,102.461c6.611,0,11.97-5.359,11.97-11.97V73.592   c0-6.611-5.359-11.97-11.97-11.97l0,0c-6.611,0-11.97,5.359-11.97,11.97v16.899C347.18,97.101,352.539,102.461,359.15,102.461z"/>
</g>
<g>
	<path style="fill:#E8DBC4;" d="M443.735,74.782v15.716c0,6.609,5.354,11.962,11.963,11.962c6.622,0,11.976-5.353,11.976-11.962   V74.782c0,6.609-5.354,11.976-11.976,11.976C449.088,86.758,443.735,81.391,443.735,74.782z"/>
	<path style="fill:#E8DBC4;" d="M347.178,74.782v15.716c0,6.609,5.367,11.962,11.976,11.962c6.609,0,11.962-5.353,11.962-11.962   V74.782c0,6.609-5.353,11.976-11.962,11.976C352.544,86.758,347.178,81.391,347.178,74.782z"/>
</g>
<path style="fill:#EDBB4C;" d="M404.4,114.902h6.054c4.707,0,8.524-3.816,8.524-8.524V70.849c0-4.707-3.816-8.524-8.524-8.524H404.4  c-4.707,0-8.524,3.816-8.524,8.524v35.529C395.875,111.085,399.692,114.902,404.4,114.902z"/>
<rect x="365.244" y="309.269" style="fill:#5C5E70;" width="84.365" height="10.574"/>
<g>
	<path style="fill:#F9EED7;" d="M455.703,294.132L455.703,294.132c6.611,0,11.97,5.359,11.97,11.97v16.899   c0,6.611-5.359,11.97-11.97,11.97l0,0c-6.611,0-11.97-5.359-11.97-11.97v-16.899C443.734,299.492,449.093,294.132,455.703,294.132z   "/>
	<path style="fill:#F9EED7;" d="M359.15,294.132L359.15,294.132c6.611,0,11.97,5.359,11.97,11.97v16.899   c0,6.611-5.359,11.97-11.97,11.97l0,0c-6.611,0-11.97-5.359-11.97-11.97v-16.899C347.18,299.492,352.539,294.132,359.15,294.132z"/>
</g>
<g>
	<path style="fill:#E8DBC4;" d="M443.735,321.811v-15.716c0-6.609,5.354-11.962,11.963-11.962c6.622,0,11.976,5.353,11.976,11.962   v15.716c0-6.609-5.354-11.976-11.976-11.976C449.088,309.835,443.735,315.202,443.735,321.811z"/>
	<path style="fill:#E8DBC4;" d="M347.178,321.811v-15.716c0-6.609,5.367-11.962,11.976-11.962c6.609,0,11.962,5.353,11.962,11.962   v15.716c0-6.609-5.353-11.976-11.962-11.976C352.544,309.835,347.178,315.202,347.178,321.811z"/>
</g>
<path style="fill:#EDBB4C;" d="M404.4,281.692h6.054c4.707,0,8.524,3.816,8.524,8.524v35.529c0,4.707-3.816,8.524-8.524,8.524H404.4  c-4.707,0-8.524-3.816-8.524-8.524v-35.529C395.875,285.508,399.692,281.692,404.4,281.692z"/>
<path style="fill:#FFDC8D;" d="M439.056,116.688v105.865c0,3.48,2.821,6.301,6.301,6.301h9.079c3.479,0,6.301-2.821,6.301-6.301  V116.688c0-3.48-2.821-6.301-6.301-6.301h-9.079C441.877,110.387,439.056,113.208,439.056,116.688z"/>
<g>
	<path style="fill:#EDBB4C;" d="M407.431,0.001c-18.804,0-35.807,7.619-48.13,19.93c-6.911,6.911-12.335,15.296-15.773,24.646   H471.32C461.761,18.561,436.768,0.001,407.431,0.001z"/>
	<path style="fill:#EDBB4C;" d="M407.431,396.595c-18.804,0-35.807-7.619-48.13-19.93c-6.911-6.911-12.335-15.296-15.773-24.646   H471.32C461.761,378.036,436.768,396.595,407.431,396.595z"/>
</g>
<path style="fill:#4BC999;" d="M202.632,203.527l10.222,201.434c0.393,7.732,6.776,13.8,14.519,13.8h57.247  c7.743,0,14.126-6.068,14.519-13.8l10.222-201.434c1.55-30.535-22.79-56.141-53.364-56.141l0,0  C225.423,147.386,201.082,172.992,202.632,203.527z"/>
<rect x="213.013" y="173.683" style="fill:#5C5E70;" width="79.673" height="9.985"/>
<g>
	<path style="fill:#F9EED7;" d="M195.205,197.96h22.152c3.189,0,5.775-2.585,5.775-5.775V165.17c0-3.189-2.585-5.775-5.775-5.775   h-22.152c-3.189,0-5.775,2.585-5.775,5.775v27.015C189.43,195.375,192.015,197.96,195.205,197.96z"/>
	<path style="fill:#F9EED7;" d="M294.642,197.96h22.152c3.189,0,5.775-2.585,5.775-5.775V165.17c0-3.189-2.585-5.775-5.775-5.775   h-22.152c-3.189,0-5.775,2.585-5.775,5.775v27.015C288.867,195.375,291.453,197.96,294.642,197.96z"/>
</g>
<g>
	<path style="fill:#E8DBC4;" d="M189.424,180.116v12.064c0,3.191,2.588,5.78,5.78,5.78h22.154c3.191,0,5.769-2.588,5.769-5.78   v-12.064c0,3.191-2.578,5.779-5.769,5.779h-22.154C192.013,185.896,189.424,183.307,189.424,180.116z"/>
	<path style="fill:#E8DBC4;" d="M288.866,180.116v12.064c0,3.191,2.588,5.78,5.78,5.78h22.143c3.192,0,5.78-2.588,5.78-5.78v-12.064   c0,3.191-2.588,5.779-5.78,5.779h-22.143C291.454,185.896,288.866,183.307,288.866,180.116z"/>
</g>
<path style="fill:#41B787;" d="M253.138,209.708h5.718c4.445,0,8.049-3.604,8.049-8.049v-33.55c0-4.445-3.604-8.049-8.049-8.049  h-5.718c-4.445,0-8.049,3.604-8.049,8.049v33.55C245.089,206.105,248.693,209.708,253.138,209.708z"/>
<rect x="213.013" y="360.866" style="fill:#5C5E70;" width="79.673" height="9.985"/>
<path style="fill:#41B787;" d="M253.138,334.825h5.718c4.445,0,8.049,3.604,8.049,8.049v33.55c0,4.445-3.604,8.049-8.049,8.049  h-5.718c-4.445,0-8.049-3.604-8.049-8.049v-33.55C245.089,338.429,248.693,334.825,253.138,334.825z"/>
<g>
	<path style="fill:#F9EED7;" d="M195.205,385.141h22.152c3.189,0,5.775-2.585,5.775-5.775v-27.015c0-3.189-2.585-5.775-5.775-5.775   h-22.152c-3.189,0-5.775,2.585-5.775,5.775v27.015C189.43,382.556,192.015,385.141,195.205,385.141z"/>
	<path style="fill:#F9EED7;" d="M294.642,385.141h22.152c3.189,0,5.775-2.585,5.775-5.775v-27.015c0-3.189-2.585-5.775-5.775-5.775   h-22.152c-3.189,0-5.775,2.585-5.775,5.775v27.015C288.867,382.556,291.453,385.141,294.642,385.141z"/>
</g>
<g>
	<path style="fill:#E8DBC4;" d="M189.424,367.297v12.064c0,3.191,2.588,5.78,5.78,5.78h22.154c3.191,0,5.769-2.588,5.769-5.78   v-12.064c0,3.191-2.578,5.779-5.769,5.779h-22.154C192.013,373.077,189.424,370.488,189.424,367.297z"/>
	<path style="fill:#E8DBC4;" d="M288.866,367.297v12.064c0,3.191,2.588,5.78,5.78,5.78h22.143c3.192,0,5.78-2.588,5.78-5.78v-12.064   c0,3.191-2.588,5.779-5.78,5.779h-22.143C291.454,373.077,288.866,370.488,288.866,367.297z"/>
</g>
<path style="fill:#41B787;" d="M252.471,222.635h7.051c10.444,0,18.94,8.496,18.94,18.94v73.185c0,10.444-8.496,18.94-18.94,18.94  h-7.051c-10.444,0-18.94-8.496-18.94-18.94v-73.185C233.532,231.131,242.028,222.635,252.471,222.635z M269.058,241.575  c0-5.258-4.278-9.536-9.536-9.536h-7.051c-5.258,0-9.536,4.278-9.536,9.536v73.185c0,5.258,4.278,9.536,9.536,9.536h7.051  c5.258,0,9.536-4.278,9.536-9.536V241.575z"/>
<path style="fill:#5BD3A2;" d="M283.454,222.767v29.257c0,3.847,3.119,6.966,6.966,6.966l0,0c3.847,0,6.966-3.119,6.966-6.966  v-29.257c0-3.847-3.119-6.966-6.966-6.966l0,0C286.573,215.801,283.454,218.92,283.454,222.767z"/>
<g>
</g>
<g>
</g>
<g>
</g>
<g>
</g>
<g>
</g>
<g>
</g>
<g>
</g>
<g>
</g>
<g>
</g>
<g>
</g>
<g>
</g>
<g>
</g>
<g>
</g>
<g>
</g>
<g>
</g>
</svg>
