<?xml version="1.0" encoding="iso-8859-1"?>
<!-- Generator: Adobe Illustrator 19.0.0, SVG Export Plug-In . SVG Version: 6.00 Build 0)  -->
<svg xmlns="http://www.w3.org/2000/svg" xmlns:xlink="http://www.w3.org/1999/xlink" version="1.1" id="Capa_1" x="0px" y="0px" viewBox="0 0 512 512" style="enable-background:new 0 0 512 512;" xml:space="preserve">
<path style="fill:#34ABE0;" d="M512,256c0,4.065-0.094,8.108-0.282,12.131c-1.223,26.175-6.374,51.336-14.89,74.877  c-4.598,12.727-10.177,24.983-16.645,36.686c-33.876,61.262-92.129,107.165-161.667,124.615c-15.966,4.012-32.538,6.52-49.539,7.367  c-3.751,0.188-7.534,0.293-11.327,0.313C257.097,512,256.554,512,256,512c-3.239,0-6.457-0.063-9.665-0.178  c-11.975-0.449-23.74-1.714-35.234-3.751c-0.648-0.115-1.296-0.23-1.944-0.355c-8.756-1.609-17.356-3.678-25.778-6.165  c-4.587-1.348-9.112-2.832-13.584-4.43c-16.802-6.008-32.789-13.72-47.762-22.936c-43.593-26.823-78.535-66.33-99.662-113.403  c-3.647-8.098-6.886-16.426-9.676-24.952c-2.675-8.15-4.942-16.478-6.792-24.963c-1.797-8.182-3.187-16.509-4.169-24.963  C0.585,276.093,0,266.115,0,256c0-2.006,0.021-4.002,0.073-5.987c2.445-106.6,70.06-197.11,164.561-233.221  c1.714-0.658,3.427-1.296,5.162-1.912c4.18-1.505,8.422-2.894,12.706-4.169C205.782,3.741,230.452,0,256,0  c139.379,0,252.75,111.397,255.927,250.013C511.979,251.998,512,253.994,512,256z"/>
<path style="fill:#78CAEF;" d="M511.927,250.013H0.073C3.25,111.397,116.621,0,256,0S508.75,111.397,511.927,250.013z"/>
<g>
	<path style="fill:#34ABE0;" d="M186.021,133.313v-0.001c0-6.892-5.587-12.479-12.479-12.479H54.981   c-6.892,0-12.479,5.587-12.479,12.479v0.001c0,6.892,5.587,12.479,12.479,12.479h19.76c6.892,0,12.479,5.587,12.479,12.479v0.001   c0,6.892,5.587,12.479,12.479,12.479h98.8c6.892,0,12.479-5.587,12.479-12.479v-0.001c0-6.892-5.587-12.479-12.479-12.479l0,0   C191.608,145.793,186.021,140.205,186.021,133.313z"/>
	<path style="fill:#34ABE0;" d="M261.802,58.085v-0.001c0-6.892,5.587-12.479,12.479-12.479h118.56   c6.892,0,12.479,5.587,12.479,12.479v0.001c0,6.892-5.587,12.479-12.479,12.479h-19.76c-6.892,0-12.479,5.587-12.479,12.479v0.001   c0,6.892-5.587,12.479-12.479,12.479h-98.8c-6.892,0-12.479-5.587-12.479-12.479v-0.001c0-6.892,5.587-12.479,12.479-12.479l0,0   C256.215,70.564,261.802,64.977,261.802,58.085z"/>
</g>
<path style="fill:#279FC9;" d="M374.088,312.721c-33.88-55.419-16.082-128.589,39.406-162.358  c25.75-15.671,55.229-20.316,82.829-15.194c-54.251-53.717-140.267-64.824-207.371-22.075  c-77.873,49.61-100.785,152.955-51.175,230.828c17.102,26.845,52.779,39.093,92.599,43.164  c39.288,4.017,66.244-39.055,44.982-72.335C374.928,314.082,374.506,313.405,374.088,312.721z"/>
<path style="fill:#F9EED7;" d="M504.734,148.4c-6.036,3.846-14.139,3.157-19.439-2.092c-23.999-23.764-55.819-38.956-89.599-42.776  c-34.758-3.931-68.757,3.948-98.323,22.783c-33.499,21.341-56.963,54.382-66.067,93.036c-1.985,8.425-10.424,13.647-18.849,11.663  c-8.426-1.984-13.647-10.424-11.663-18.849c10.988-46.653,39.306-86.53,79.736-112.287c35.173-22.408,77.325-32.171,118.689-27.493  c40.747,4.608,79.149,22.951,108.132,51.649c6.151,6.091,6.2,16.014,0.11,22.165C506.619,147.048,505.702,147.782,504.734,148.4z"/>
<path style="fill:#279FC9;" d="M409.161,351.284c-32.554-28.356-28.353-80.432,8.354-103.157c0.182-0.113,0.365-0.225,0.548-0.336  c18.301-11.138,39.253-14.439,58.868-10.798c-38.558-38.178-99.692-46.073-147.384-15.689  c-55.346,35.259-71.631,108.709-36.371,164.056c4.925,7.73,12.018,13.757,20.596,18.385l-67.438,108.077  c3.208,0.115,6.426,0.178,9.665,0.178c0.554,0,1.097,0,1.651-0.01c3.793-0.021,7.576-0.125,11.327-0.313  c17-0.846,33.573-3.354,49.539-7.367c69.538-17.45,127.791-63.352,161.667-124.615C446.1,375.143,423.778,364.017,409.161,351.284z"/>
<path style="fill:#F9EED7;" d="M482.909,246.395c-4.29,2.733-10.049,2.243-13.816-1.487c-17.057-16.89-39.673-27.687-63.68-30.402  c-24.702-2.794-48.868,2.806-69.881,16.192c-23.809,15.168-40.485,38.651-46.956,66.123c-1.412,5.988-7.408,9.7-13.397,8.289  c-5.988-1.411-9.7-7.408-8.289-13.397c7.81-33.157,27.935-61.5,56.671-79.805c24.998-15.925,54.956-22.866,84.356-19.541  c28.959,3.276,56.253,16.312,76.852,36.708c4.372,4.329,4.406,11.382,0.077,15.754C484.249,245.435,483.598,245.956,482.909,246.395  z"/>
<path style="fill:#FFD15C;" d="M263.011,298.82v8.046c0,23.395-1.808,46.634-5.36,69.538c-6.384,41.399-18.463,81.68-35.85,119.714  c-2.32,5.078-6.092,9.185-10.7,11.954c-0.502,0.303-1.014,0.596-1.546,0.857c-0.136-0.397-0.272-0.805-0.397-1.212  c-8.756-1.609-17.356-3.678-25.778-6.165c-4.587-1.348-9.112-2.832-13.584-4.43c-16.802-6.008-32.789-13.72-47.762-22.936  c-20.94-52.966-31.88-109.693-31.88-167.32v-8.046c0-98.879,25.663-196.054,74.48-282.028c0.136-0.251,0.282-0.512,0.428-0.763  c1.202-2.121,2.853-3.741,4.733-4.848c2.069-1.233,4.43-1.849,6.792-1.849c2.038,0,4.065,0.46,5.914,1.379  c0.293,0.136,0.596,0.303,0.878,0.47c1.881,1.108,3.532,2.727,4.733,4.848c26.29,46.143,45.902,95.525,58.452,146.683  c4.692,19.111,8.391,38.484,11.086,58.013C261.214,246.523,263.011,272.614,263.011,298.82z"/>
<path style="fill:#EDBB4C;" d="M240.535,149.713c-1.003-1.776-2.382-3.124-3.95-4.044c-1.724-1.034-3.699-1.546-5.663-1.546  c-1.975,0-3.939,0.512-5.663,1.546c-1.578,0.92-2.947,2.267-3.95,4.044c-2.456,4.295-4.827,8.631-7.137,12.999  c-36.321,68.608-55.359,145.136-55.359,222.919v6.719c0,39.393,6.134,78.294,17.951,115.367c0.125,0.408,0.261,0.815,0.397,1.212  c0.533-0.261,1.045-0.554,1.546-0.857c14.576,2.581,29.581,3.929,44.899,3.929c0.554,0,1.097,0,1.651-0.01  c3.793-0.021,7.576-0.125,11.327-0.313c17-0.846,33.573-3.354,49.539-7.367c11.139-36.049,16.896-73.77,16.896-111.961v-6.719  C303.02,302.895,281.485,221.592,240.535,149.713z"/>
<path style="fill:#FF525D;" d="M183.38,11.18v490.371c-4.587-1.348-9.112-2.832-13.584-4.43V11.18  c2.069-1.233,4.43-1.849,6.792-1.849c2.038,0,4.065,0.46,5.914,1.379C182.794,10.846,183.097,11.013,183.38,11.18z"/>
<path style="fill:#FFDC8D;" d="M208.98,147.613L208.98,147.613c-6.348,0-11.494-5.146-11.494-11.494V98.032  c0-6.348,5.146-11.494,11.494-11.494l0,0c6.348,0,11.494,5.146,11.494,11.494v38.087  C220.473,142.467,215.327,147.613,208.98,147.613z"/>
<path style="fill:#FF525D;" d="M335.412,385.63v6.719c0,38.191-5.757,75.912-16.896,111.961c-15.966,4.012-32.538,6.52-49.539,7.367  c-3.751,0.188-7.534,0.293-11.327,0.313C257.097,512,256.554,512,256,512c-15.318,0-30.323-1.348-44.899-3.929  c-0.502,0.303-1.014,0.596-1.546,0.857c-0.136-0.397-0.272-0.805-0.397-1.212c-11.818-37.073-17.951-75.975-17.951-115.367v-6.719  c0-77.782,19.038-154.311,55.359-222.919c2.309-4.368,4.681-8.704,7.137-12.999c1.003-1.776,2.372-3.124,3.95-4.044  c1.724-1.034,3.689-1.546,5.663-1.546c1.964,0,3.939,0.512,5.663,1.546c1.567,0.92,2.947,2.267,3.95,4.044  C313.877,221.592,335.412,302.895,335.412,385.63z"/>
<path style="fill:#FFD15C;" d="M268.978,145.669v366.007c-3.751,0.188-7.534,0.293-11.327,0.313v-366.32  c1.724-1.034,3.689-1.546,5.663-1.546C265.279,144.123,267.254,144.635,268.978,145.669z"/>
<path style="fill:#FF6E7C;" d="M294.661,362.036L294.661,362.036c-6.348,0-11.494-5.146-11.494-11.494v-98.22  c0-6.348,5.146-11.494,11.494-11.494l0,0c6.348,0,11.494,5.146,11.494,11.494v98.22C306.155,356.89,301.009,362.036,294.661,362.036  z"/>
<g>
	<path style="fill:#78CAEF;" d="M511.718,268.131c-1.223,26.175-6.374,51.336-14.89,74.877h-1.17c-3.448,0-6.562-1.4-8.819-3.657   c-2.257-2.257-3.657-5.371-3.657-8.819c0-6.896-5.59-12.476-12.476-12.476h-59.632c-3.448,0-6.572-1.4-8.829-3.657   s-3.657-5.381-3.657-8.829c0-6.886,5.59-12.476,12.487-12.476h40.218c3.448,0,6.562-1.4,8.819-3.657   c2.257-2.257,3.657-5.381,3.657-8.819c0-6.896,5.59-12.487,12.476-12.487L511.718,268.131L511.718,268.131z"/>
	<path style="fill:#78CAEF;" d="M36.174,310.868H5.904c-1.797-8.182-3.187-16.509-4.169-24.963h34.44c3.448,0,6.562,1.4,8.819,3.657   s3.657,5.381,3.657,8.829C48.65,305.277,43.06,310.868,36.174,310.868z"/>
	<path style="fill:#78CAEF;" d="M68.065,348.306c0,6.896-5.59,12.476-12.476,12.476H22.371c-3.647-8.098-6.886-16.426-9.676-24.952   h42.893c3.448,0,6.562,1.39,8.819,3.647S68.065,344.858,68.065,348.306z"/>
</g>
<g>
</g>
<g>
</g>
<g>
</g>
<g>
</g>
<g>
</g>
<g>
</g>
<g>
</g>
<g>
</g>
<g>
</g>
<g>
</g>
<g>
</g>
<g>
</g>
<g>
</g>
<g>
</g>
<g>
</g>
</svg>
