<?xml version="1.0" encoding="iso-8859-1"?>
<!-- Generator: Adobe Illustrator 19.0.0, SVG Export Plug-In . SVG Version: 6.00 Build 0)  -->
<svg xmlns="http://www.w3.org/2000/svg" xmlns:xlink="http://www.w3.org/1999/xlink" version="1.1" id="Capa_1" x="0px" y="0px" viewBox="0 0 512 512" style="enable-background:new 0 0 512 512;" xml:space="preserve">
<path style="fill:#34ABE0;" d="M511.704,256.296C511.704,397.517,397.222,512,256,512c-104.745,0-194.784-62.976-234.298-153.141  c-6.21-14.184-11.188-29.046-14.758-44.43c-0.313-1.346-0.616-2.693-0.908-4.05c-3.768-17.43-5.74-35.527-5.74-54.084  c0-3.131,0.052-6.252,0.167-9.351c0.783-21.865,4.321-43.042,10.27-63.175C21.89,145.957,41.563,111.786,67.53,83.481  c3.507-3.82,7.128-7.535,10.865-11.147C124.401,27.915,187.002,0.592,256,0.592c14.737,0,29.192,1.242,43.251,3.653  c13.839,2.348,27.303,5.824,40.286,10.312c15.165,5.239,29.683,11.856,43.397,19.715c24.015,13.766,45.588,31.311,63.905,51.819  c13.265,14.862,24.829,31.3,34.369,48.991c3.246,6.022,6.273,12.201,9.038,18.515C504.043,185.032,511.704,219.766,511.704,256.296z  "/>
<path style="fill:#5C5E70;" d="M511.704,255.92v0.376c0,2.62-0.042,5.229-0.125,7.828c0,0.01,0,0.01,0,0.01  c-0.271,9.289-1.054,18.442-2.307,27.46c-2.327,16.814-6.293,33.106-11.742,48.719c-2.505,7.201-5.323,14.246-8.443,21.145  c-3.277,7.233-6.878,14.299-10.792,21.156c-13.568,23.786-30.841,45.192-51.026,63.435C381.984,486.951,322.034,511.916,256.323,512  c-28.858,0.031-56.61-4.717-82.504-13.505c-33.502-11.355-63.884-29.463-89.528-52.738c-26.541-24.047-48.01-53.625-62.59-86.898  H105.5c14.559,0,28.221-6.982,36.759-18.766l30.246-41.768l94.12-18.452c8.068-1.586,16.428-0.939,24.161,1.847l45.954,16.616  c16.135,5.834,34.191,2.056,46.653-9.759l20.999-19.924c26.739-25.362,49.106-54.961,66.201-87.607l19.653-27.449  c10.207,23.253,17.054,48.312,19.914,74.561C511.172,237.279,511.694,246.537,511.704,255.92z"/>
<path style="fill:#797B89;" d="M464.331,372.03c0,2.922,1.179,5.573,3.1,7.483c1.91,1.91,4.55,3.1,7.473,3.1h3.392  c-13.568,23.786-30.841,45.192-51.026,63.435h-51.777c-5.834,0-10.573-4.738-10.573-10.573c0-2.922-1.179-5.563-3.089-7.483  c-1.92-1.91-4.561-3.089-7.483-3.089h-1.033c-5.845,0-10.573-4.738-10.573-10.573c0-2.922,1.179-5.563,3.1-7.483  c1.91-1.91,4.55-3.089,7.473-3.089h19.381c5.834,0,10.573-4.738,10.573-10.573c0-2.922-1.19-5.563-3.1-7.483  c-1.91-1.91-4.561-3.089-7.473-3.089h-19.381c-5.845,0-10.573-4.738-10.573-10.583c0-5.834,4.728-10.573,10.573-10.573h3.517  c5.845,0,10.573-4.728,10.573-10.573c0-2.922,1.19-5.563,3.1-7.473c1.91-1.92,4.561-3.1,7.483-3.1h119.544  c-2.505,7.201-5.323,14.246-8.443,21.145h-14.184C469.059,361.458,464.331,366.195,464.331,372.03z"/>
<path style="fill:#78CAEF;" d="M481.207,135.081c-1.879,2.954-5.177,4.916-8.934,4.916H319.999c-2.922,0-5.563-1.179-7.473-3.089  c-1.92-1.92-3.1-4.561-3.1-7.483c0-5.834,4.738-10.573,10.573-10.573h32.146c2.922,0,5.563-1.179,7.473-3.089  c1.92-1.92,3.1-4.561,3.1-7.483c0-5.834-4.738-10.573-10.573-10.573h-8.976c-2.922,0-5.563-1.179-7.473-3.089  c-1.92-1.92-3.1-4.561-3.1-7.483c0-5.834,4.738-10.573,10.573-10.573h29.693c2.922,0,5.563-1.19,7.483-3.1  c1.92-1.91,3.1-4.561,3.1-7.473c0-5.845-4.738-10.573-10.583-10.573h-65.199c-2.922,0-5.563-1.19-7.473-3.1  c-1.92-1.91-3.1-4.561-3.1-7.473c0-5.845,4.738-10.573,10.573-10.573h75.271c24.015,13.766,45.588,31.311,63.905,51.819  C460.104,100.953,471.668,117.391,481.207,135.081z"/>
<g>
	<path style="fill:#797B89;" d="M197.908,477.474c0,5.845-4.738,10.573-10.573,10.573h-2.943c-2.912,0-5.563,1.19-7.473,3.1   c-1.879,1.879-3.068,4.488-3.1,7.348c-33.502-11.355-63.884-29.463-89.528-52.738h56.777c5.845,0,10.573,4.738,10.573,10.573   c0,5.845,4.738,10.573,10.573,10.573h25.122c2.912,0,5.563,1.19,7.473,3.1C196.718,471.912,197.908,474.563,197.908,477.474z"/>
	<path style="fill:#797B89;" d="M509.377,267.348c0.918-0.918,1.67-2.004,2.202-3.215c-0.271,9.289-1.054,18.442-2.307,27.46   h-10.312c-2.912,0-5.563-1.179-7.473-3.1c-1.91-1.91-3.1-4.55-3.1-7.473c0-5.834,4.738-10.573,10.573-10.573h2.943   C504.816,270.448,507.467,269.269,509.377,267.348z"/>
	<path style="fill:#797B89;" d="M501.904,249.302h-28.827c-2.912,0-5.563-1.179-7.473-3.1c-1.91-1.91-3.1-4.55-3.1-7.473   c0-5.834,4.738-10.573,10.573-10.573h37.082c1.012,9.122,1.534,18.379,1.545,27.762   C510.149,252.048,506.34,249.302,501.904,249.302z"/>
</g>
<g>
	<path style="fill:#78CAEF;" d="M86.755,278.662c0,5.845-4.728,10.573-10.573,10.573H73.25c-2.922,0-5.563,1.179-7.473,3.1   c-1.92,1.91-3.1,4.55-3.1,7.473c0,5.845-4.738,10.573-10.573,10.573H6.036c-3.768-17.43-5.74-35.527-5.74-54.084   c0-3.131,0.052-6.252,0.167-9.351h29.463c5.834,0,10.573,4.738,10.573,10.573c0,5.845,4.728,10.573,10.573,10.573h25.111   c2.922,0,5.563,1.179,7.483,3.1C85.576,273.099,86.755,275.74,86.755,278.662z"/>
	<path style="fill:#78CAEF;" d="M237.412,202.41L237.412,202.41c0-5.839,4.734-10.573,10.573-10.573h34.071   c5.839,0,10.573-4.734,10.573-10.573l0,0c0-5.839-4.734-10.573-10.573-10.573H181.613c-5.839,0-10.573,4.734-10.573,10.573l0,0   c0,5.839-4.734,10.573-10.573,10.573h-34.071c-5.839,0-10.573,4.734-10.573,10.573l0,0c0,5.839,4.734,10.573,10.573,10.573h50.519   c5.839,0,10.573,4.734,10.573,10.573l0,0c0,5.839,4.734,10.573,10.573,10.573h100.444c5.839,0,10.573-4.734,10.573-10.573l0,0   c0-5.839-4.734-10.573-10.573-10.573h-50.519C242.146,212.982,237.412,208.249,237.412,202.41z"/>
</g>
<path style="fill:#797B89;" d="M282.94,352.387L282.94,352.387c0-5.841-4.733-10.574-10.573-10.574H171.922  c-5.839,0-10.573,4.733-10.573,10.573v0.001c0,5.839,4.733,10.573,10.573,10.573h16.741c5.839,0,10.573,4.733,10.573,10.573v0.001  c0,5.839,4.733,10.573,10.573,10.573h83.704c5.839,0,10.573-4.733,10.573-10.573v-0.001c0-5.839-4.733-10.573-10.573-10.573l0,0  C287.673,362.96,282.94,358.227,282.94,352.387z"/>
<g>
	<path style="fill:#494B5B;" d="M189.298,231.122c-0.501-2.526-1.106-5.051-1.816-7.567c-0.71-2.515-1.503-4.989-2.38-7.41   c-11.856-32.647-39.013-56.098-70.929-64.417c-5.01-1.315-10.134-2.244-15.342-2.776c-12.514-1.305-25.466-0.313-38.303,3.288   c-20.06,5.636-37.061,16.866-49.794,31.53c-5.949,20.133-9.487,41.309-10.27,63.175c-0.115,3.1-0.167,6.22-0.167,9.351   c0,18.557,1.973,36.654,5.74,54.084c0.292,1.357,0.595,2.703,0.908,4.05c24.934,32.104,67.746,47.728,109.233,36.08   C168.32,335.887,199.829,283.379,189.298,231.122z M111,332.068c-44.503,12.493-90.853-13.547-103.346-58.05   c-12.483-44.493,13.558-90.843,58.05-103.336c9.55-2.682,19.183-3.58,28.545-2.901c5.239,0.365,10.385,1.232,15.394,2.567   c25.414,6.711,47.081,25.216,56.944,50.984c0.929,2.4,1.743,4.874,2.453,7.4s1.294,5.051,1.753,7.577   C178.527,278.37,152.967,320.295,111,332.068z"/>
	<path style="fill:#494B5B;" d="M451.003,149.599c-15.342-54.658-72.296-86.647-126.954-71.315   c-7.149,2.004-13.923,4.728-20.237,8.068c-4.634,2.442-9.038,5.218-13.171,8.287c-33.335,24.704-49.774,68.341-37.907,110.61   c15.342,54.658,72.296,86.658,126.955,71.315C434.356,261.222,466.345,204.268,451.003,149.599z M374.511,258.122   c-44.493,12.483-90.853-13.558-103.336-58.05c-9.508-33.91,3.35-68.904,29.703-89.152c4.07-3.142,8.475-5.918,13.161-8.287   c4.77-2.411,9.842-4.394,15.186-5.897c44.493-12.493,90.853,13.547,103.336,58.04C445.044,199.279,419.004,245.628,374.511,258.122   z"/>
</g>
<path style="fill:#FFD15C;" d="M358.449,173.28l-7.41-11.794l-36.999-58.854l-10.228-16.282l-34.536-54.95l16.866-5.991  l25.925-9.205c5.02-1.806,10.635,0.271,13.307,4.884c1.659,2.86,1.962,6.283,0.835,9.383c-1.138,3.1-3.569,5.511-6.669,6.638  l-10.312,3.695c-4.05,1.461-6.147,5.918-4.697,9.967c1.451,4.039,5.928,6.126,9.946,4.686l10.322-3.695  c7.462-2.693,13.307-8.506,16.021-15.958c2.557-7.003,2.066-14.653-1.284-21.25c-0.219-0.438-0.459-0.866-0.699-1.284  c-6.44-11.084-19.893-16.031-31.979-11.731l-7.609,2.703l-21.75,7.723l-22.596,8.026c-2.223,0.783-3.966,2.547-4.738,4.77  c-0.772,2.233-0.491,4.707,0.762,6.7l14.424,22.951c-0.303,0.052-0.616,0.094-0.929,0.188L120.31,95.045l-6.513-6.867l-9.8-10.343  L92.704,88.533l4.008,4.237l12.566,13.265l-10.447,42.917l-4.582,18.828l-17.743,72.891l-2.63,10.802  c-0.658,2.693,0.157,5.521,2.15,7.452c1.993,1.91,4.843,2.63,7.504,1.879l20.352-5.709l66.911-18.786l18.505-5.187l34.066-9.56  l-0.01-0.031c0.177-0.031,0.365-0.073,0.543-0.115l0.271-0.073c2.588-0.731,4.613-2.724,5.365-5.302l43.689-149.112l17.419,27.71  l10.239,16.282l36.988,58.854l7.41,11.794c1.879,2.995,5.458,4.269,8.694,3.361c0.699-0.198,1.388-0.501,2.046-0.918  C359.649,181.723,360.745,176.923,358.449,173.28z M185.102,216.144l-18.515,5.187l-66.921,18.786l-7.525,2.108l1.44-5.928  l16.062-65.951l4.53-18.619l7.849-32.229l85.53,90.342L185.102,216.144z M218.406,198.662l-86.011-90.843l122.717-34.431  L218.406,198.662z"/>
<g>
	<circle style="fill:#F9EED7;" cx="88.349" cy="251.373" r="15.963"/>
	<circle style="fill:#F9EED7;" cx="351.87" cy="177.427" r="15.963"/>
</g>
<g>
	<path style="fill:#494B5B;" d="M129.597,83.739l-29.359,8.239c-17.818,5-36.381-5.427-41.381-23.244   c-1.162-4.138,1.252-8.434,5.39-9.596c4.137-1.162,8.434,1.252,9.596,5.39c2.681,9.554,12.636,15.145,22.19,12.464l29.359-8.239   c4.138-1.162,8.434,1.252,9.596,5.39C136.148,78.282,133.735,82.578,129.597,83.739z"/>
	<path style="fill:#494B5B;" d="M340.825,35.809c-2.721,7.454-8.565,13.26-16.029,15.952l-10.314,3.703   c-4.022,1.44-8.501-0.648-9.947-4.695c-1.458-4.043,0.648-8.501,4.691-9.959l10.315-3.703c3.105-1.12,5.538-3.531,6.669-6.634   s0.83-6.525-0.829-9.38c-2.677-4.62-8.293-6.688-13.308-4.883l-25.932,9.204l-8.635-13.444l29.356-10.426   c12.087-4.3,25.536,0.643,31.98,11.73C342.819,20.14,343.543,28.343,340.825,35.809z"/>
</g>
<path style="fill:#FFDC8D;" d="M249.911,70.296l-57.698,16.193c-2.22,0.623-4.524-0.671-5.147-2.891l-0.332-1.183  c-0.623-2.22,0.671-4.524,2.891-5.147l57.698-16.193c2.22-0.623,4.524,0.671,5.147,2.891l0.332,1.182  C253.425,67.369,252.131,69.673,249.911,70.296z"/>
<g>
</g>
<g>
</g>
<g>
</g>
<g>
</g>
<g>
</g>
<g>
</g>
<g>
</g>
<g>
</g>
<g>
</g>
<g>
</g>
<g>
</g>
<g>
</g>
<g>
</g>
<g>
</g>
<g>
</g>
</svg>
