<?xml version="1.0" encoding="iso-8859-1"?>
<!-- Generator: Adobe Illustrator 19.0.0, SVG Export Plug-In . SVG Version: 6.00 Build 0)  -->
<svg xmlns="http://www.w3.org/2000/svg" xmlns:xlink="http://www.w3.org/1999/xlink" version="1.1" id="Capa_1" x="0px" y="0px" viewBox="0 0 512 512" style="enable-background:new 0 0 512 512;" xml:space="preserve">
<path style="fill:#34ABE0;" d="M512,256c0,2.466-0.031,4.921-0.104,7.367c-0.46,16.447-2.487,32.517-5.904,48.055  c-1.39,6.269-3.009,12.466-4.848,18.557c-12.622,41.9-35.694,79.266-66.184,109.087c-12.8,12.497-26.896,23.677-42.078,33.301  C353.29,497.465,306.343,512,256,512c-23.636,0-46.519-3.197-68.242-9.206c-43.248-11.922-81.91-34.92-112.744-65.745  c-13.646-13.636-25.746-28.808-36.049-45.223C14.273,352.454,0,305.894,0,256s14.273-96.455,38.964-135.826  c13.281-21.17,29.571-40.27,48.274-56.665c13.584-11.933,28.442-22.434,44.335-31.284C168.406,11.692,210.829,0,256,0  c62.098,0,119.014,22.1,163.338,58.88c10.877,9.017,20.992,18.923,30.25,29.602c29.299,33.823,49.873,75.421,58.243,121.271  C510.568,224.758,512,240.212,512,256z"/>
<path style="fill:#5C5E70;" d="M498.228,172.972c-2.508-1.829-4.838-4.012-6.928-6.531l-0.021-0.021l-0.01,0.01  c-15.266,18.442-43.541,18.442-58.807,0l-0.01-0.01l-0.01,0.01c-15.276,18.442-43.551,18.442-58.817,0l-0.01-0.01  c-15.276,18.442-43.551,18.442-58.817,0h-0.01c-15.266,18.442-43.541,18.442-58.817,0.01h-0.01  c-15.266,18.442-43.541,18.442-58.817,0c-15.276,18.442-43.551,18.442-58.817,0h-0.01c-15.266,18.442-43.551,18.442-58.817,0  l-0.01-0.01c-7.628,9.216-18.516,13.834-29.403,13.834s-21.776-4.618-29.414-13.834c-2.079,2.508-4.399,4.671-6.896,6.499  c5.747-16.771,13.197-32.747,22.12-47.741c28.672-48.138,72.694-86.068,125.304-107.05C190.516,6.426,222.501,0,255.99,0  c33.499,0,65.484,6.437,94.804,18.129c52.611,20.982,96.622,58.911,125.294,107.05C485.031,140.184,492.471,156.191,498.228,172.972  z"/>
<g>
	<path style="fill:#279FC9;" d="M179.404,374.735L179.404,374.735c0-5.124,4.153-9.278,9.278-9.278h29.898   c5.124,0,9.278-4.153,9.278-9.278l0,0c0-5.124-4.153-9.278-9.278-9.278H130.44c-5.124,0-9.278,4.154-9.278,9.278l0,0   c0,5.124-4.153,9.278-9.278,9.278H81.987c-5.124,0-9.278,4.153-9.278,9.278l0,0c0,5.124,4.153,9.278,9.278,9.278h44.331   c5.124,0,9.278,4.153,9.278,9.278l0,0c0,5.124,4.153,9.278,9.278,9.278h88.139c5.124,0,9.278-4.153,9.278-9.278l0,0   c0-5.124-4.153-9.278-9.278-9.278h-44.331C183.557,384.013,179.404,379.858,179.404,374.735z"/>
	<path style="fill:#279FC9;" d="M253.651,441.004L253.651,441.004c0-4.935-4.001-8.935-8.935-8.935H169.42   c-4.935,0-8.935,4.001-8.935,8.935l0,0c0,4.935,4.001,8.935,8.935,8.935h24.356c4.935,0,8.935,4.001,8.935,8.935l0,0   c0,4.935-4.001,8.935-8.935,8.935h-2.483c-4.935,0-8.935,4.001-8.935,8.935l0,0c0,4.935,4.001,8.935,8.935,8.935h72.166   c4.935,0,8.935-4.001,8.935-8.935l0,0c0-4.935,4.001-8.935,8.935-8.935h2.483c4.935,0,8.935-4.001,8.935-8.935l0,0   c0-4.935-4.001-8.935-8.935-8.935h-21.225C257.652,449.939,253.651,445.938,253.651,441.004z"/>
	<path style="fill:#279FC9;" d="M512,256c0,2.466-0.031,4.921-0.104,7.367h-20.929c-2.466,0-4.702-1.003-6.322-2.612   c-1.609-1.62-2.612-3.856-2.612-6.322c0-4.932,4.002-8.934,8.934-8.934h2.487c2.466,0,4.702-1.003,6.322-2.612   c1.609-1.62,2.612-3.856,2.612-6.322c0-4.932-4.002-8.934-8.934-8.934h-24.357c-2.466,0-4.702-1.003-6.311-2.612   c-1.62-1.62-2.623-3.856-2.623-6.322c0-4.942,4.002-8.944,8.934-8.944h38.734C510.568,224.758,512,240.212,512,256z"/>
</g>
<g>
	<path style="fill:#797B89;" d="M476.087,125.179H332.236c-2.957,0-5.632-1.202-7.576-3.135c-1.933-1.944-3.135-4.618-3.135-7.576   c0-5.904,4.796-10.7,10.71-10.7h32.538c2.957,0,5.632-1.202,7.576-3.135c1.933-1.944,3.135-4.618,3.135-7.576   c0-5.904-4.796-10.7-10.71-10.7h-9.08c-2.957,0-5.632-1.202-7.576-3.135c-1.933-1.944-3.135-4.618-3.135-7.576   c0-5.904,4.796-10.7,10.71-10.7h30.062c2.957,0,5.632-1.202,7.576-3.135c1.933-1.944,3.135-4.618,3.135-7.576   c0-5.904-4.796-10.7-10.71-10.7h-66.006c-2.957,0-5.632-1.202-7.576-3.135c-1.933-1.933-3.135-4.608-3.135-7.565   c0-5.914,4.796-10.71,10.71-10.71h31.044C403.404,39.111,447.415,77.04,476.087,125.179z"/>
	<path style="fill:#797B89;" d="M224.81,50.239c0,5.914-4.796,10.71-10.71,10.71H102.63c-2.957,0-5.632,1.202-7.576,3.135   c-1.933,1.944-3.135,4.618-3.135,7.565c0,5.914,4.796,10.71,10.71,10.71h19.623c2.957,0,5.632,1.202,7.576,3.135   c1.933,1.933,3.135,4.608,3.135,7.565c0,5.914-4.796,10.71-10.71,10.71h-1.055c-2.957,0-5.632,1.202-7.565,3.135   c-1.933,1.944-3.135,4.618-3.135,7.565c0,5.914-4.796,10.71-10.71,10.71H35.892c28.672-48.138,72.694-86.068,125.304-107.05h27.93   c2.957,0,5.632,1.202,7.565,3.135c1.944,1.944,3.135,4.618,3.135,7.576c0,5.904,4.796,10.7,10.71,10.7h3.563   C220.014,39.539,224.81,44.335,224.81,50.239z"/>
</g>
<path style="fill:#C69A6A;" d="M133.684,5.507H93.038c-5.511,0-9.979,4.468-9.979,9.979v28.108c0,5.511,4.468,9.979,9.979,9.979  h40.648c5.511,0,9.979-4.468,9.979-9.979V15.485C143.663,9.975,139.195,5.507,133.684,5.507z"/>
<path style="fill:#B58657;" d="M102.4,43.593V15.485c0-5.511,4.468-9.979,9.979-9.979H93.038c-5.511,0-9.979,4.467-9.979,9.979  v28.108c0,5.511,4.468,9.979,9.979,9.979h19.341C106.868,53.572,102.4,49.105,102.4,43.593z"/>
<path style="fill:#FFD15C;" d="M187.758,104.375v398.42c-62.38-17.199-115.221-57.428-148.793-110.968V104.375  c0-41.096,33.311-74.397,74.397-74.397c6.28,0,12.382,0.784,18.213,2.247C163.861,40.344,187.758,69.569,187.758,104.375z"/>
<path style="fill:#EDBB4C;" d="M131.385,32.183c-18.359,4.577-34.032,15.966-44.147,31.326  c-7.732,11.724-12.225,25.767-12.225,40.866v332.675c-13.646-13.636-25.746-28.808-36.049-45.223V104.375  c0-20.543,8.328-39.142,21.786-52.6c13.469-13.469,32.068-21.797,52.611-21.797C119.578,29.978,125.607,30.751,131.385,32.183z"/>
<path style="fill:#279FC9;" d="M505.992,311.421c-1.39,6.269-3.009,12.466-4.848,18.557h-30.939c-5.12,0-9.279,4.148-9.279,9.279  c0,2.56-1.034,4.88-2.717,6.552c-1.672,1.682-3.992,2.717-6.562,2.717H363.51c-5.12,0-9.279-4.148-9.279-9.268  c0-2.56,1.034-4.88,2.717-6.562c1.682-1.682,4.002-2.717,6.562-2.717h44.335c5.12,0,9.268-4.159,9.268-9.279  c0-5.13-4.148-9.279-9.268-9.279H377.94c-5.12,0-9.279-4.159-9.279-9.279c0-2.56,1.045-4.88,2.717-6.562  c1.682-1.682,4.002-2.717,6.562-2.717h88.137c5.13,0,9.279,4.159,9.279,9.279c0,2.56,1.034,4.88,2.717,6.562  c1.682,1.682,4.002,2.717,6.562,2.717H505.992z"/>
<path style="fill:#EF4152;" d="M167.168,326.499l29.857,29.857c7.34,7.34,19.242,7.34,26.582,0l29.857-29.857v-91.158  l-161.79,15.757"/>
<path style="fill:#FFD15C;" d="M63.11,274.083L63.11,274.083c-7.946,0-14.388-6.442-14.388-14.388v-11.306  c0-7.946,6.442-14.388,14.388-14.388h5.848h281.968h5.848c7.946,0,14.388,6.442,14.388,14.388v11.306  c0,7.946-6.442,14.388-14.388,14.388l0,0"/>
<path style="fill:#FF525D;" d="M68.489,239.857l-4.019,26.672c-4.919,32.649,20.362,62.025,53.38,62.025h49.168  c13.525,0,25.476-8.805,29.483-21.723l4.935-15.911c1.207-3.891,4.808-6.544,8.882-6.544l0,0c4.074,0,7.675,2.653,8.882,6.544  l4.935,15.911c4.007,12.918,15.957,21.723,29.483,21.723h49.168c33.018,0,58.299-29.376,53.38-62.025l-4.019-26.673  c-3.979-26.409-26.672-45.939-53.38-45.939H121.869C95.161,193.918,72.468,213.448,68.489,239.857z"/>
<g>
	<path style="fill:#78CAEF;" d="M152.428,303.889h-36.216c-13.551,0-24.536-10.985-24.536-24.536v-28.253   c0-17.389,14.097-31.487,31.487-31.487h39.569c16.367,0,28.146,15.72,23.549,31.428l-10.304,35.203   C172.915,296.702,163.324,303.889,152.428,303.889z"/>
	<path style="fill:#78CAEF;" d="M268.204,303.889h36.216c13.551,0,24.536-10.985,24.536-24.536v-28.253   c0-17.389-14.097-31.487-31.487-31.487h-39.569c-16.367,0-28.146,15.72-23.549,31.428l10.304,35.203   C247.717,296.702,257.308,303.889,268.204,303.889z"/>
</g>
<g>
	<path style="fill:#FCF8F2;" d="M307.875,277.024h-1.307c-4.616,0-8.359-3.743-8.359-8.359v-26.091c0-4.616,3.743-8.359,8.359-8.359   h1.307c4.616,0,8.359,3.743,8.359,8.359v26.091C316.234,273.282,312.492,277.024,307.875,277.024z"/>
	<path style="fill:#FCF8F2;" d="M162.622,276.697l-1.279-0.27c-4.517-0.953-7.406-5.388-6.453-9.905l5.386-25.529   c0.953-4.517,5.388-7.406,9.905-6.453l1.279,0.27c4.517,0.953,7.406,5.387,6.453,9.905l-5.386,25.529   C171.573,274.761,167.139,277.65,162.622,276.697z"/>
</g>
<path style="fill:#F9EED7;" d="M449.588,3.417v387.417c0,17.836-5.392,34.429-14.629,48.232  c-12.8,12.497-26.896,23.677-42.078,33.301c-9.425,3.511-19.634,5.433-30.271,5.433c-47.95,0-86.956-39.016-86.956-86.967v-13.991  c5.298,1.87,10.982,2.884,16.927,2.884c4.618,0,9.07-0.616,13.322-1.776v12.884c0,31.274,25.433,56.717,56.707,56.717  s56.728-25.443,56.728-56.717V3.417H449.588z"/>
<path style="fill:#FFD15C;" d="M292.577,387.045c-6.641,0-13.154-1.111-19.359-3.302c-11.509-4.059-21.676-11.864-28.628-21.975  c-2.291-3.332-1.447-7.891,1.885-10.183c3.333-2.291,7.891-1.447,10.183,1.885c5.211,7.579,12.823,13.425,21.434,16.462  c4.637,1.637,9.51,2.467,14.485,2.467c3.896,0,7.73-0.508,11.397-1.51c9.954-2.691,18.655-8.874,24.52-17.415  c2.289-3.334,6.848-4.18,10.181-1.891c3.334,2.289,4.182,6.847,1.891,10.181c-7.833,11.406-19.463,19.666-32.752,23.258  C302.91,386.362,297.777,387.045,292.577,387.045z"/>
<rect x="419.338" y="32.423" style="fill:#FF525D;" width="30.249" height="21.405"/>
<path style="fill:#FCF8F2;" d="M440.905,382.922h1.173c4.146,0,7.508-3.361,7.508-7.508V100.34c0-4.146-3.361-7.508-7.508-7.508  h-1.173c-4.146,0-7.508,3.361-7.508,7.508v275.073C433.398,379.56,436.759,382.922,440.905,382.922z"/>
<g>
	<path style="fill:#FFDC8D;" d="M149.943,170.6L149.943,170.6c-8.944,0-16.196-7.252-16.196-16.196v-53.29   c0-8.944,7.252-16.196,16.196-16.196l0,0c8.944,0,16.196,7.252,16.196,16.196v53.29C166.139,163.349,158.887,170.6,149.943,170.6z"/>
	<path style="fill:#FFDC8D;" d="M149.943,465.319L149.943,465.319c-8.944,0-16.196-7.252-16.196-16.196v-85.739   c0-8.944,7.252-16.196,16.196-16.196l0,0c8.944,0,16.196,7.252,16.196,16.196v85.739   C166.139,458.068,158.887,465.319,149.943,465.319z"/>
</g>
<g>
</g>
<g>
</g>
<g>
</g>
<g>
</g>
<g>
</g>
<g>
</g>
<g>
</g>
<g>
</g>
<g>
</g>
<g>
</g>
<g>
</g>
<g>
</g>
<g>
</g>
<g>
</g>
<g>
</g>
</svg>
