<?xml version="1.0" encoding="iso-8859-1"?>
<!-- Generator: Adobe Illustrator 19.0.0, SVG Export Plug-In . SVG Version: 6.00 Build 0)  -->
<svg xmlns="http://www.w3.org/2000/svg" xmlns:xlink="http://www.w3.org/1999/xlink" version="1.1" id="Capa_1" x="0px" y="0px" viewBox="0 0 512 512" style="enable-background:new 0 0 512 512;" xml:space="preserve">
<path style="fill:#FF525D;" d="M512,256c0,29.8-5.089,58.42-14.451,85.023c-0.063,0.167-0.115,0.324-0.178,0.491  c-2.267,6.395-4.786,12.675-7.534,18.829c-24.586,55.024-68.033,99.777-122.107,126.057C333.97,502.805,296.061,512,256,512  c-17.91,0-35.391-1.839-52.255-5.339c-4.545-0.94-9.038-2.006-13.49-3.187c-15.882-4.2-31.159-9.895-45.673-16.927  c-36.133-17.492-67.521-43.227-91.742-74.762c-12.131-15.788-22.455-33.04-30.668-51.43c-2.832-6.311-5.402-12.758-7.722-19.331  c-0.575-1.64-1.139-3.302-1.682-4.963C4.483,310.878,0,283.961,0,256C0,114.615,114.615,0,256,0c22.329,0,43.99,2.863,64.637,8.234  c28.432,7.387,54.941,19.55,78.629,35.579c12.048,8.14,23.353,17.293,33.823,27.324c13.113,12.56,24.889,26.509,35.098,41.597  c17.136,25.328,29.863,53.896,37.052,84.595C509.67,216.179,512,235.823,512,256z"/>
<path style="fill:#FFD15C;" d="M512,256c0,29.8-5.089,58.42-14.451,85.023c-0.063,0.167-0.115,0.324-0.178,0.491L342.162,496.724  L87.155,241.716L320.637,8.234c28.432,7.387,54.941,19.55,78.629,35.579c27.136,18.359,50.563,41.785,68.921,68.921  C495.846,153.61,512,202.93,512,256z"/>
<path style="fill:#FFDC8D;" d="M505.24,197.329H344.963c-3.49,0-6.646-1.411-8.923-3.699c-2.288-2.278-3.699-5.433-3.699-8.923  c0-6.969,5.642-12.612,12.622-12.612h38.358c3.479,0,6.635-1.411,8.923-3.699s3.699-5.444,3.699-8.923  c0-6.969-5.653-12.622-12.622-12.622h-10.71c-3.49,0-6.646-1.411-8.923-3.699c-2.288-2.288-3.699-5.444-3.699-8.923  c0-6.969,5.653-12.612,12.622-12.612h35.443c3.49,0,6.646-1.411,8.923-3.699c2.288-2.278,3.699-5.433,3.699-8.923  c0-6.969-5.653-12.622-12.622-12.622H330.23c-3.49,0-6.635-1.411-8.923-3.699c-2.278-2.278-3.689-5.433-3.689-8.923  c0-6.969,5.642-12.612,12.612-12.612h102.86c13.113,12.56,24.889,26.509,35.098,41.597  C485.324,138.062,498.051,166.63,505.24,197.329z"/>
<g>
	<path style="fill:#FF6E7C;" d="M149.41,373.917v0.01c0,6.969-5.653,12.612-12.622,12.612h-3.5c-3.49,0-6.646,1.411-8.923,3.699   c-2.288,2.278-3.699,5.433-3.699,8.923c0,6.969-5.653,12.622-12.622,12.622H52.84c-12.131-15.788-22.455-33.04-30.668-51.43   c-2.832-6.311-5.402-12.758-7.722-19.331c-0.575-1.64-1.139-3.302-1.682-4.963h68.807c6.969,0,12.622,5.653,12.622,12.622   c0,6.969,5.642,12.622,12.612,12.622h29.978C143.757,361.305,149.41,366.947,149.41,373.917z"/>
	<path style="fill:#FF6E7C;" d="M93.616,142.947L93.616,142.947c0-6.969,5.65-12.62,12.62-12.62h106.347   c6.969,0,12.62,5.65,12.62,12.62l0,0c0,6.969-5.65,12.62-12.62,12.62h-34.399c-6.969,0-12.62,5.65-12.62,12.62l0,0   c0,6.969,5.65,12.62,12.62,12.62h3.507c6.969,0,12.62,5.65,12.62,12.62l0,0c0,6.969-5.65,12.62-12.62,12.62H79.764   c-6.969,0-12.62-5.65-12.62-12.62l0,0c0-6.969-5.65-12.62-12.62-12.62h-3.507c-6.969,0-12.62-5.65-12.62-12.62l0,0   c0-6.969,5.65-12.62,12.62-12.62h29.978C87.966,155.568,93.616,149.917,93.616,142.947z"/>
</g>
<path style="fill:#FFDC8D;" d="M383.772,346.679v-0.001c0-6.969-5.65-12.619-12.619-12.619h-119.89  c-6.969,0-12.619,5.65-12.619,12.619v0.001c0,6.969,5.65,12.619,12.619,12.619h19.982c6.969,0,12.619,5.65,12.619,12.619v0.001  c0,6.969,5.65,12.619,12.619,12.619h99.908c6.969,0,12.619-5.65,12.619-12.619v-0.001c0-6.969-5.65-12.619-12.619-12.619l0,0  C389.422,359.299,383.772,353.649,383.772,346.679z"/>
<g>
	<path style="fill:#34ABE0;" d="M501.959,351.671c-17.471,12.11-49.351,36.77-49.351,36.77l-84.146-120.957l-13.072-18.786   l-0.23-0.324H156.839l-19.372,27.857h-0.01L59.392,388.441c0,0-31.88-24.66-49.361-36.77c6.698-16.572,13.887-32.392,21.316-47.386   c49.465-99.819,109.871-162.764,109.871-162.764h229.554c0,0,0.073,0.073,0.209,0.219c2.006,2.121,18.359,19.602,40.27,49.215   C438.512,227.798,474.384,283.429,501.959,351.671z"/>
	<path style="fill:#34ABE0;" d="M342.967,352.256L367.731,486.4C333.97,502.805,296.061,512,256,512   c-17.91,0-35.391-1.839-52.255-5.339c-4.545-0.94-9.038-2.006-13.49-3.187c-15.882-4.2-31.159-9.895-45.673-16.927l24.764-134.196   l1.254-6.792l-0.961-6.792l-12.737-90.394l-15.067-106.851l49.34-22.862l3.041-1.411l0.794-0.324l2.152-0.867   c2.006-0.815,4.023-1.588,6.05-2.309c17.136-6.175,35.077-9.247,53.008-9.247c20.365,0,40.73,3.971,59.883,11.891   c0.679,0.282,1.358,0.564,2.027,0.857l6.374,2.957l4.023,1.86l41.974,19.456l-15.109,107.175l-12.706,90.122l-0.951,6.74   L342.967,352.256z"/>
</g>
<g>
	<path style="fill:#279FC9;" d="M290.83,318.279L290.83,318.279c-3.847,0-6.966,3.119-6.966,6.966v46.672   c0,3.847,3.119,6.966,6.966,6.966l0,0c3.847,0,6.966-3.119,6.966-6.966v-46.672C297.796,321.398,294.677,318.279,290.83,318.279z"/>
	<path style="fill:#279FC9;" d="M322.873,318.279L322.873,318.279c-3.847,0-6.966,3.119-6.966,6.966v46.672   c0,3.847,3.119,6.966,6.966,6.966l0,0c3.847,0,6.966-3.119,6.966-6.966v-46.672C329.84,321.398,326.721,318.279,322.873,318.279z"/>
	<path style="fill:#279FC9;" d="M185.644,318.279L185.644,318.279c-3.847,0-6.966,3.119-6.966,6.966v46.672   c0,3.847,3.119,6.966,6.966,6.966l0,0c3.847,0,6.966-3.119,6.966-6.966v-46.672C192.609,321.398,189.491,318.279,185.644,318.279z"/>
	<path style="fill:#279FC9;" d="M324.503,120.205l-68.942,122.023c-41.838-35.673-56.205-98.638-60.552-125.304l2.152-0.867   c2.006-0.815,4.023-1.588,6.05-2.309c17.136-6.175,35.077-9.247,53.008-9.247c20.365,0,40.73,3.971,59.883,11.891   c0.679,0.282,1.358,0.564,2.027,0.857L324.503,120.205z"/>
</g>
<g>
	<path style="fill:#5C5E70;" d="M328.526,122.065l-1.964,3.333l-9.091,16.123l-49.852,88.44c-3.062,5.433-6.029,11.034-8.882,16.792   c-0.23,0.46-0.46,0.92-0.69,1.379c-0.042,0.084-0.084,0.157-0.115,0.24c-13.437,27.314-24.649,58.065-33.332,90.394   c-1.202,4.503-2.361,9.028-3.469,13.584c-12.319,50.573-18.495,104.302-17.387,154.311c-4.545-0.94-9.038-2.006-13.49-3.187   c-1.254-43.99,3.072-90.582,12.685-135.858c1.087-5.12,2.236-10.209,3.448-15.266c1.097-4.556,2.247-9.08,3.448-13.584   c8.547-32.162,19.686-62.725,32.935-90.394c0.24-0.512,0.491-1.024,0.731-1.526c1.755-3.647,3.553-7.231,5.392-10.762   c0.355-0.7,0.721-1.4,1.087-2.1c0.773-1.484,1.557-2.957,2.351-4.409c1.139-2.121,2.288-4.211,3.459-6.28l46.09-81.774   l12.884-22.852c0.021-0.042,0.042-0.073,0.063-0.115l1.275-2.163c0.679,0.282,1.358,0.564,2.027,0.857l6.374,2.957L328.526,122.065   z"/>
	<path style="fill:#5C5E70;" d="M341.856,352.351H168.821c-3.751,0-6.792-3.041-6.792-6.792l0,0c0-3.751,3.041-6.792,6.792-6.792   h173.035c3.751,0,6.792,3.041,6.792,6.792l0,0C348.648,349.31,345.606,352.351,341.856,352.351z"/>
	<path style="fill:#5C5E70;" d="M234.719,481.631c-0.295,0-0.591-0.02-0.891-0.059c-3.719-0.487-6.339-3.896-5.852-7.616   L244.772,345.7c0.425-3.251,3.114-5.733,6.389-5.901c3.279-0.163,6.201,2.029,6.956,5.221l25.786,109.095   c0.863,3.651-1.397,7.309-5.048,8.172c-3.651,0.863-7.309-1.396-8.172-5.048l-17.257-73.009l-11.982,91.49   C240.996,479.14,238.077,481.631,234.719,481.631z"/>
	<path style="fill:#5C5E70;" d="M259.156,247.359l-10.261,7.21l-3.594-5.13c-42.527-60.562-52.527-119.39-54.126-130.779   l3.041-1.411l2.947-1.191c2.006-0.815,4.023-1.588,6.05-2.309l0.178,1.599c0.104,0.878,7.816,63.718,52.172,126.882   L259.156,247.359z"/>
</g>
<path style="fill:#279FC9;" d="M137.456,276.229L59.392,388.441c0,0-31.88-24.66-49.361-36.77  c6.698-16.572,13.887-32.392,21.316-47.386C31.347,304.285,67.678,334.023,137.456,276.229z"/>
<g>
	
		<rect x="122.347" y="83.528" transform="matrix(-0.9486 -0.3164 0.3164 -0.9486 215.7685 323.996)" style="fill:#5C5E70;" width="23.684" height="121.905"/>
	
		<rect x="163.946" y="83.54" transform="matrix(0.9486 -0.3164 0.3164 0.9486 -36.6873 63.0442)" style="fill:#5C5E70;" width="23.684" height="121.905"/>
</g>
<path style="fill:#494B5B;" d="M45.628,79.346L45.628,79.346c0,12.888,10.448,23.336,23.336,23.336h172.06  c12.888,0,23.336-10.448,23.336-23.336l0,0V37.201H45.628V79.346z"/>
<path style="fill:#5C5E70;" d="M241.023,60.538H68.963c-12.888,0-23.336-10.448-23.336-23.336l0,0  c0-12.888,10.448-23.336,23.336-23.336h172.06c12.888,0,23.336,10.448,23.336,23.336l0,0  C264.359,50.09,253.911,60.538,241.023,60.538z"/>
<path style="fill:#494B5B;" d="M175.888,73.143v24.252c0,1.087-0.136,2.142-0.397,3.145c-1.4,5.444-6.332,9.456-12.204,9.456  h-17.983c-6.959,0-12.601-5.642-12.601-12.601V73.143c0-5.872,4.012-10.804,9.456-12.204c1.003-0.261,2.058-0.397,3.145-0.397  h17.983C170.245,60.541,175.888,66.184,175.888,73.143z"/>
<path style="fill:#5C5E70;" d="M175.888,73.143v24.252c0,1.087-0.136,2.142-0.397,3.145c-1.003,0.261-2.058,0.397-3.145,0.397  h-17.983c-6.959,0-12.601-5.642-12.601-12.601V64.084c0-1.087,0.136-2.142,0.397-3.145c1.003-0.261,2.058-0.397,3.145-0.397h17.983  C170.245,60.541,175.888,66.184,175.888,73.143z"/>
<path style="fill:#279FC9;" d="M411.251,190.955c0,0-45.479,9.953-42.789,76.528l-13.072-18.786L370.5,141.522l0.481,0.219  C372.987,143.862,389.339,161.343,411.251,190.955z"/>
<g>
</g>
<g>
</g>
<g>
</g>
<g>
</g>
<g>
</g>
<g>
</g>
<g>
</g>
<g>
</g>
<g>
</g>
<g>
</g>
<g>
</g>
<g>
</g>
<g>
</g>
<g>
</g>
<g>
</g>
</svg>
