<?xml version="1.0" encoding="iso-8859-1"?>
<!-- Generator: Adobe Illustrator 19.0.0, SVG Export Plug-In . SVG Version: 6.00 Build 0)  -->
<svg xmlns="http://www.w3.org/2000/svg" xmlns:xlink="http://www.w3.org/1999/xlink" version="1.1" id="Capa_1" x="0px" y="0px" viewBox="0 0 512 512" style="enable-background:new 0 0 512 512;" xml:space="preserve">
<path style="fill:#34ABE0;" d="M512,256c0,7.293-0.303,14.524-0.909,21.671c-1.985,23.698-7.199,46.467-15.203,67.887v0.01  c-10,26.791-24.367,51.461-42.235,73.132c-41.796,50.73-102.755,85.086-171.792,92.003C273.356,511.561,264.725,512,256,512  c-56.675,0-109.056-18.422-151.468-49.601c-17.147-12.601-32.674-27.293-46.184-43.698c-17.868-21.671-32.235-46.341-42.235-73.132  c-4.995-13.385-8.913-27.303-11.63-41.65c-1.797-9.446-3.062-19.09-3.783-28.881C0.23,268.748,0,262.405,0,256  c0-48.849,13.678-94.511,37.428-133.339c11.901-19.466,26.321-37.219,42.82-52.788c12.57-11.88,26.321-22.486,41.085-31.629  c0,0,0,0,0.01-0.01c16.875-10.449,35.046-18.996,54.22-25.339C200.861,4.524,227.903,0,256,0c28.097,0,55.139,4.524,80.436,12.894  c19.174,6.343,37.345,14.89,54.22,25.339c0.01,0.01,0.01,0.01,0.01,0.01c14.764,9.143,28.515,19.749,41.085,31.629  c16.499,15.569,30.919,33.322,42.82,52.788c17.544,28.672,29.592,61.085,34.68,95.744C511.07,230.672,512,243.231,512,256z"/>
<g>
	<path style="fill:#78CAEF;" d="M512,256c0,7.293-0.303,14.524-0.909,21.671h-63.457c-4.096,0-7.795-1.661-10.47-4.336   c-2.675-2.685-4.336-6.395-4.336-10.48c0-8.182-6.635-14.817-14.817-14.817h-23.458c-4.096,0-7.795-1.661-10.48-4.336   c-2.675-2.685-4.336-6.395-4.336-10.48c0-8.182,6.635-14.817,14.817-14.817h114.698C511.07,230.672,512,243.231,512,256z"/>
	<path style="fill:#78CAEF;" d="M190.485,318.757c0,8.182-6.625,14.817-14.806,14.817H58.389c-4.096,0-7.795-1.661-10.48-4.336   c-2.675-2.685-4.336-6.395-4.336-10.48c0-8.182-6.625-14.817-14.806-14.817H5.308c-0.282,0-0.554-0.01-0.825-0.021   c-1.797-9.446-3.062-19.09-3.783-28.881c1.452-0.47,2.999-0.731,4.608-0.731h140.737c8.182,0,14.817,6.635,14.817,14.817   c0,4.086,1.661,7.795,4.336,10.48c2.685,2.675,6.395,4.336,10.48,4.336s7.795,1.661,10.47,4.336   C188.834,310.962,190.485,314.671,190.485,318.757z"/>
	<path style="fill:#78CAEF;" d="M256.029,305.944L256.029,305.944c0-8.183,6.633-14.815,14.815-14.815h47.74   c8.182,0,14.815-6.633,14.815-14.815l0,0c0-8.182-6.633-14.815-14.815-14.815h-140.74c-8.182,0-14.815,6.633-14.815,14.815l0,0   c0,8.182-6.633,14.815-14.815,14.815h-47.74c-8.182,0-14.815,6.633-14.815,14.815l0,0c0,8.182,6.633,14.815,14.815,14.815h70.787   c8.182,0,14.815,6.633,14.815,14.815l0,0c0,8.182,6.633,14.815,14.815,14.815h140.74c8.182,0,14.815-6.633,14.815-14.815l0,0   c0-8.182-6.633-14.815-14.815-14.815h-70.787C262.662,320.759,256.029,314.126,256.029,305.944z"/>
	<path style="fill:#78CAEF;" d="M282.373,506.838c0,1.337-0.178,2.633-0.512,3.866C273.356,511.561,264.725,512,256,512   c-56.675,0-109.056-18.422-151.468-49.601h98.21c8.182,0,14.817,6.625,14.817,14.806c0,8.182,6.635,14.817,14.817,14.817h35.192   c4.086,0,7.795,1.661,10.47,4.336C280.722,499.043,282.373,502.753,282.373,506.838z"/>
	<path style="fill:#78CAEF;" d="M473.739,104.286L473.739,104.286c0-8.182-6.633-14.815-14.815-14.815h-4.938   c-8.182,0-14.815-6.633-14.815-14.815l0,0c0-8.182-6.633-14.815-14.815-14.815H262.269c-8.182,0-14.815,6.633-14.815,14.815l0,0   c0,8.182,6.633,14.815,14.815,14.815h26.284c8.182,0,14.815,6.633,14.815,14.815l0,0c0,8.182-6.633,14.815-14.815,14.815h-41.609   c-8.182,0-14.815,6.633-14.815,14.815l0,0c0,8.182,6.633,14.815,14.815,14.815h12.57c8.182,0,14.815,6.633,14.815,14.815l0,0   c0,8.182-6.633,14.815-14.815,14.815h-6.65c-8.182,0-14.815,6.633-14.815,14.815l0,0c0,8.182,6.633,14.815,14.815,14.815H427.84   c8.182,0,14.815-6.633,14.815-14.815l0,0c0-8.182,6.633-14.815,14.815-14.815h1.456c8.182,0,14.815-6.633,14.815-14.815l0,0   c0-8.182-6.633-14.815-14.815-14.815h-27.16c-8.182,0-14.815-6.633-14.815-14.815l0,0c0-8.182,6.633-14.815,14.815-14.815h27.16   C467.106,119.101,473.739,112.468,473.739,104.286z"/>
</g>
<path style="fill:#FFD15C;" d="M251.277,433.027c0,12.884-10.459,23.594-23.636,23.594c-13.051,0-23.625-10.574-23.625-23.636  v-2.361c0-13.051-10.585-23.636-23.636-23.636h-2.372c-13.051,0-23.625,10.585-23.625,23.636v2.361  c0,13.061-10.585,23.636-23.636,23.636h-2.372c-13.051,0-23.625-10.574-23.625-23.636v-2.361c0-13.051-10.585-23.636-23.636-23.636  h-2.372c-8.704,0-16.3,4.702-20.396,11.713c-17.868-21.671-32.235-46.341-42.235-73.132l21.316-222.908l4.075-42.621  c2.173-22.685,12.79-42.705,28.557-57.041C85.838,8.662,106.768,0,129.567,0c16.792,0,32.559,4.692,45.996,12.894  c23.092,14.075,39.32,38.473,42.068,67.145l33.541,350.699C251.246,431.512,251.277,432.274,251.277,433.027z"/>
<path style="fill:#EDBB4C;" d="M129.564,227.789L129.564,227.789c29.72,0,53.812-24.092,53.812-53.812v-36.571  c0-29.72-24.092-53.812-53.812-53.812l0,0c-29.72,0-53.812,24.092-53.812,53.812v36.571  C75.752,203.697,99.844,227.789,129.564,227.789z"/>
<path style="fill:#5C5E70;" d="M129.564,181.813L129.564,181.813c29.72,0,53.812-24.092,53.812-53.812V91.43  c0-29.72-24.092-53.812-53.812-53.812l0,0c-29.72,0-53.812,24.092-53.812,53.812v36.571  C75.752,157.721,99.844,181.813,129.564,181.813z"/>
<g>
	<path style="fill:#EDBB4C;" d="M129.564,37.617L129.564,37.617c-29.72,0-53.812,24.092-53.812,53.812v27.167   c0-29.72,24.092-53.812,53.812-53.812l0,0c29.72,0,53.812,24.092,53.812,53.812V91.43C183.376,61.71,159.283,37.617,129.564,37.617   z"/>
	<path style="fill:#EDBB4C;" d="M87.364,386.613L87.364,386.613c4.905,0,8.882-3.977,8.882-8.882V256.523   c0-4.905-3.977-8.882-8.882-8.882l0,0c-4.905,0-8.882,3.977-8.882,8.882v121.208C78.482,382.636,82.458,386.613,87.364,386.613z"/>
	<path style="fill:#EDBB4C;" d="M171.764,386.613L171.764,386.613c4.905,0,8.882-3.977,8.882-8.882V256.523   c0-4.905-3.977-8.882-8.882-8.882l0,0c-4.905,0-8.882,3.977-8.882,8.882v121.208C162.883,382.636,166.86,386.613,171.764,386.613z"/>
</g>
<path style="fill:#FFD15C;" d="M495.888,345.558v0.01c-10,26.791-24.367,51.461-42.235,73.132  c-4.096-7.011-11.703-11.713-20.407-11.713h-2.372c-13.051,0-23.625,10.585-23.625,23.636v2.361  c0,13.061-10.585,23.636-23.636,23.636h-2.372c-13.051,0-23.625-10.574-23.625-23.636v-2.361c0-13.051-10.585-23.636-23.636-23.636  h-2.372c-13.051,0-23.625,10.585-23.625,23.636v2.361c0,6.531-2.644,12.445-6.928,16.718c-4.274,4.274-10.177,6.917-16.708,6.917  c-13.939,0-24.848-12.006-23.521-25.882l33.541-350.699c2.173-22.685,12.79-42.705,28.557-57.041  c4.169-3.783,8.683-7.168,13.511-10.104C349.884,4.692,365.652,0,382.433,0c45.589,0,83.717,34.659,88.064,80.039l4.075,42.621  L495.888,345.558z"/>
<path style="fill:#EDBB4C;" d="M382.43,227.789L382.43,227.789c29.72,0,53.812-24.092,53.812-53.812v-36.571  c0-29.72-24.092-53.812-53.812-53.812l0,0c-29.72,0-53.812,24.092-53.812,53.812v36.571  C328.617,203.697,352.709,227.789,382.43,227.789z"/>
<path style="fill:#5C5E70;" d="M382.43,181.813L382.43,181.813c29.72,0,53.812-24.092,53.812-53.812V91.43  c0-29.72-24.092-53.812-53.812-53.812l0,0c-29.72,0-53.812,24.092-53.812,53.812v36.571  C328.617,157.721,352.709,181.813,382.43,181.813z"/>
<g>
	<path style="fill:#EDBB4C;" d="M340.229,386.613L340.229,386.613c4.905,0,8.882-3.977,8.882-8.882V256.523   c0-4.905-3.977-8.882-8.882-8.882l0,0c-4.905,0-8.882,3.977-8.882,8.882v121.208C331.348,382.636,335.323,386.613,340.229,386.613z   "/>
	<path style="fill:#EDBB4C;" d="M424.63,386.613L424.63,386.613c4.905,0,8.882-3.977,8.882-8.882V256.523   c0-4.905-3.977-8.882-8.882-8.882l0,0c-4.905,0-8.882,3.977-8.882,8.882v121.208C415.748,382.636,419.725,386.613,424.63,386.613z"/>
	<path style="fill:#EDBB4C;" d="M382.43,37.617L382.43,37.617c-29.72,0-53.812,24.092-53.812,53.812v27.167   c0-29.72,24.092-53.812,53.812-53.812l0,0c29.72,0,53.812,24.092,53.812,53.812V91.43C436.242,61.71,412.15,37.617,382.43,37.617z"/>
</g>
<g>
	<path style="fill:#FFDC8D;" d="M466.525,353.458L466.525,353.458c-4.341,0-7.859-3.518-7.859-7.859v-85.637   c0-4.34,3.518-7.859,7.859-7.859l0,0c4.34,0,7.859,3.518,7.859,7.859v85.637C474.384,349.939,470.865,353.458,466.525,353.458z"/>
	<path style="fill:#FFDC8D;" d="M466.525,382.17L466.525,382.17c-4.341,0-7.86-3.518-7.86-7.859l0,0c0-4.34,3.518-7.859,7.859-7.859   l0,0c4.34,0,7.859,3.518,7.859,7.859l0,0C474.384,378.651,470.865,382.17,466.525,382.17z"/>
	<path style="fill:#FFDC8D;" d="M397.061,382.17L397.061,382.17c-4.341,0-7.859-3.518-7.859-7.859l0,0   c0-4.34,3.518-7.859,7.859-7.859l0,0c4.34,0,7.859,3.518,7.859,7.859l0,0C404.92,378.651,401.402,382.17,397.061,382.17z"/>
	<path style="fill:#FFDC8D;" d="M396.517,353.458L396.517,353.458c-4.34,0-7.859-3.518-7.859-7.859v-85.637   c0-4.34,3.518-7.859,7.859-7.859l0,0c4.341,0,7.859,3.518,7.859,7.859v85.637C404.375,349.939,400.857,353.458,396.517,353.458z"/>
	<path style="fill:#FFDC8D;" d="M312.925,353.458L312.925,353.458c-4.34,0-7.859-3.518-7.859-7.859v-85.637   c0-4.34,3.518-7.859,7.859-7.859l0,0c4.34,0,7.859,3.518,7.859,7.859v85.637C320.784,349.939,317.265,353.458,312.925,353.458z"/>
	<path style="fill:#FFDC8D;" d="M215.749,353.458L215.749,353.458c-4.341,0-7.859-3.518-7.859-7.859v-85.637   c0-4.34,3.518-7.859,7.859-7.859l0,0c4.341,0,7.859,3.518,7.859,7.859v85.637C223.608,349.939,220.09,353.458,215.749,353.458z"/>
	<path style="fill:#FFDC8D;" d="M215.749,382.17L215.749,382.17c-4.341,0-7.859-3.518-7.859-7.859l0,0   c0-4.34,3.518-7.859,7.859-7.859l0,0c4.341,0,7.859,3.518,7.859,7.859l0,0C223.608,378.651,220.09,382.17,215.749,382.17z"/>
	<path style="fill:#FFDC8D;" d="M146.286,382.17L146.286,382.17c-4.341,0-7.859-3.518-7.859-7.859l0,0   c0-4.34,3.518-7.859,7.859-7.859l0,0c4.341,0,7.859,3.518,7.859,7.859l0,0C154.144,378.651,150.626,382.17,146.286,382.17z"/>
	<path style="fill:#FFDC8D;" d="M145.741,353.458L145.741,353.458c-4.341,0-7.859-3.518-7.859-7.859v-85.637   c0-4.34,3.518-7.859,7.859-7.859l0,0c4.341,0,7.859,3.518,7.859,7.859v85.637C153.6,349.939,150.082,353.458,145.741,353.458z"/>
	<path style="fill:#FFDC8D;" d="M62.149,353.458L62.149,353.458c-4.341,0-7.859-3.518-7.859-7.859v-85.637   c0-4.34,3.518-7.859,7.859-7.859l0,0c4.341,0,7.859,3.518,7.859,7.859v85.637C70.008,349.939,66.49,353.458,62.149,353.458z"/>
</g>
<g>
</g>
<g>
</g>
<g>
</g>
<g>
</g>
<g>
</g>
<g>
</g>
<g>
</g>
<g>
</g>
<g>
</g>
<g>
</g>
<g>
</g>
<g>
</g>
<g>
</g>
<g>
</g>
<g>
</g>
</svg>
