<?xml version="1.0" encoding="iso-8859-1"?>
<!-- Generator: Adobe Illustrator 19.0.0, SVG Export Plug-In . SVG Version: 6.00 Build 0)  -->
<svg xmlns="http://www.w3.org/2000/svg" xmlns:xlink="http://www.w3.org/1999/xlink" version="1.1" id="Capa_1" x="0px" y="0px" viewBox="0 0 512 512" style="enable-background:new 0 0 512 512;" xml:space="preserve">
<path style="fill:#34ABE0;" d="M512,256c0,141.385-114.615,256-256,256c-18.631,0-36.791-1.985-54.282-5.768  c-32.517-7.022-62.725-20.219-89.36-38.306c-6.008-4.075-11.828-8.401-17.45-12.967c-3.584-2.894-7.084-5.883-10.491-8.976v-0.01  c-2.873-2.581-5.695-5.245-8.443-7.962c-0.899-0.888-1.787-1.787-2.675-2.685c-1.64-1.672-3.26-3.365-4.838-5.078  c-0.815-0.867-1.62-1.745-2.414-2.623v-0.01c-7.952-8.777-15.287-18.119-21.953-27.941c-17.492-25.746-30.417-54.847-37.595-86.141  C2.247,295.037,0,275.78,0,256c0-8.997,0.46-17.889,1.369-26.655c0.982-9.477,2.476-18.808,4.472-27.951  c2.079-9.603,4.712-19.007,7.837-28.181c20.093-58.807,60.98-107.969,113.904-138.721c28.62-16.635,60.761-27.867,95.023-32.329  C233.535,0.731,244.684,0,256,0c54.418,0,104.866,16.98,146.338,45.934c8.85,6.165,17.293,12.894,25.276,20.114  c3.135,2.832,6.207,5.736,9.195,8.725l1.202,1.202c2.717,2.748,5.371,5.559,7.962,8.432c7.032,7.764,13.584,15.966,19.613,24.555  c0.031,0.052,0.073,0.115,0.115,0.167c27.982,39.863,44.868,88.074,46.205,140.142C511.969,251.507,512,253.753,512,256z"/>
<g>
	<path style="fill:#78CAEF;" d="M511.906,249.271H357.021c-3.877,0-7.387-1.567-9.927-4.106s-4.106-6.04-4.106-9.916   c0-7.753,6.28-14.033,14.033-14.033h42.653c3.877,0,7.387-1.567,9.927-4.117c2.539-2.539,4.106-6.04,4.106-9.916   c0-7.753-6.28-14.033-14.033-14.033h-11.901c-3.877,0-7.387-1.567-9.927-4.106s-4.106-6.05-4.106-9.927   c0-7.753,6.28-14.033,14.033-14.033h39.403c3.877,0,7.387-1.567,9.927-4.106s4.106-6.05,4.106-9.927   c0-7.743-6.28-14.023-14.033-14.023h-86.528c-3.877,0-7.387-1.578-9.927-4.117s-4.106-6.05-4.106-9.916   c0-7.753,6.28-14.033,14.033-14.033h124.938c0.031,0.052,0.073,0.115,0.115,0.167C493.683,148.992,510.568,197.204,511.906,249.271   z"/>
	<path style="fill:#78CAEF;" d="M175.303,261.517c2.539,2.539,4.106,6.05,4.106,9.927c0,7.743-6.28,14.023-14.033,14.023h-1.379   c-3.877,0-7.387,1.578-9.927,4.117c-2.539,2.539-4.106,6.05-4.106,9.916c0,7.753-6.28,14.033-14.033,14.033H6.499   C2.247,295.037,0,275.78,0,256c0-8.997,0.46-17.889,1.369-26.655h2.644c3.877,0,7.387-1.567,9.927-4.106s4.106-6.05,4.106-9.927   c0-7.137-5.319-13.019-12.204-13.918c2.079-9.603,4.712-19.007,7.837-28.181h118.962c3.866,0,7.377,1.567,9.916,4.117   c2.539,2.539,4.117,6.04,4.117,9.916c0,7.753,6.28,14.033,14.023,14.033h4.681c7.753,0,14.033,6.28,14.033,14.033   s-6.28,14.033-14.033,14.033h-25.725c-3.877,0-7.387,1.567-9.927,4.106c-2.539,2.539-4.106,6.05-4.106,9.927   c0,7.743,6.28,14.033,14.033,14.033h25.725C169.253,257.411,172.763,258.978,175.303,261.517z"/>
	<path style="fill:#78CAEF;" d="M392.456,348.018L392.456,348.018c0-7.75-6.282-14.032-14.032-14.032H260.182   c-7.749,0-14.032,6.282-14.032,14.032l0,0c0,7.749,6.282,14.032,14.032,14.032h38.247c7.749,0,14.031,6.282,14.031,14.032l0,0   c0,7.749-6.282,14.031-14.031,14.031h-3.9c-7.749,0-14.032,6.282-14.032,14.032l0,0c0,7.749,6.282,14.032,14.032,14.032h113.327   c7.749,0,14.031-6.282,14.031-14.032l0,0c0-7.749,6.282-14.032,14.032-14.032h3.9c7.749,0,14.031-6.282,14.031-14.031l0,0   c0-7.749-6.282-14.032-14.031-14.032h-33.331C398.738,362.05,392.456,355.767,392.456,348.018z"/>
	<path style="fill:#78CAEF;" d="M256.47,492.199c0,7.753-6.28,14.033-14.033,14.033h-40.72   c-32.517-7.022-62.725-20.219-89.36-38.306c-6.008-4.075-11.828-8.401-17.45-12.967c-3.584-2.894-7.084-5.883-10.491-8.976v-0.01   c-2.873-2.581-5.695-5.245-8.443-7.962c-0.899-0.888-1.787-1.787-2.675-2.685c0.387-7.398,6.51-13.281,14.012-13.281h133.298   c3.877,0,7.387,1.567,9.927,4.106s4.106,6.05,4.106,9.916c0,7.753-6.28,14.033-14.033,14.033h-45.213   c-7.753,0-14.033,6.29-14.033,14.033c0,7.753,6.28,14.033,14.033,14.033h67.041c3.877,0,7.387,1.567,9.927,4.106   C254.903,484.812,256.47,488.323,256.47,492.199z"/>
	<path style="fill:#78CAEF;" d="M270.691,44.262c0,7.743-6.28,14.033-14.033,14.033H145.575c-3.877,0-7.387-1.567-9.927-4.117   c-2.539-2.539-4.106-6.04-4.106-9.916c0-3.803-1.505-7.252-3.96-9.77c28.62-16.635,60.761-27.867,95.023-32.329h5.987   c7.753,0,14.033,6.28,14.033,14.033c0,3.877,1.567,7.387,4.106,9.927s6.05,4.106,9.927,4.106c3.877,0,7.387,1.567,9.927,4.106   S270.691,40.385,270.691,44.262z"/>
</g>
<path style="fill:#5C5E70;" d="M416.392,444.311l-23.792,1.964l-252.792,20.898c-0.23,0.021-0.46,0.031-0.7,0.031  c-7.931,0-15.611-1.076-22.915-3.103c-7.555-2.09-14.702-5.183-21.285-9.143c-4.002-2.393-7.795-5.12-11.337-8.129h-0.01  c-2.957-2.497-5.736-5.193-8.338-8.067c-2.424-2.685-4.692-5.528-6.76-8.516c-0.711-0.982-1.379-1.985-2.027-3.009v-0.01  c-6.949-10.898-11.515-23.448-12.957-36.927c-0.324-2.988-0.491-6.029-0.502-9.101c0-0.24,0.01-0.47,0.031-0.7L73.55,127.216  l1.933-23.782c0.376-4.671,4.472-8.129,9.122-7.764c4.66,0.387,8.14,4.472,7.764,9.132l-1.902,23.458L70.593,373.185l-0.679,8.328  c0.073,12.11,3.281,23.5,8.85,33.384h0.01c2.393,4.263,5.224,8.244,8.432,11.88c2.57,2.905,5.371,5.601,8.38,8.025v0.01  c9.812,7.962,21.828,13.291,34.973,14.921c2.696,0.345,5.433,0.522,8.213,0.533l252.782-20.898l23.448-1.933  c4.66-0.376,8.746,3.082,9.132,7.743C424.521,439.839,421.052,443.935,416.392,444.311z"/>
<g>
	<path style="fill:#B58657;" d="M440.321,429.904c-2.529,4.877-5.792,9.314-9.664,13.187c-9.619,9.619-22.941,15.648-37.821,15.648   c0-56.822-14.179-111.453-40.881-159.853l27.322-14.485l23.493-12.453c20.999,38.34,35.721,80.575,42.822,125.363   C447.444,408.996,445.333,420.275,440.321,429.904z"/>
	<path style="fill:#B58657;" d="M247.852,117.041l-12.453,23.495l-14.474,27.322c-48.41-26.701-103.043-40.892-159.853-40.881   c0-20.863,11.866-38.667,28.845-47.496c9.63-5.002,20.898-7.124,32.582-5.273C167.288,81.32,209.534,96.042,247.852,117.041z"/>
</g>
<g>
	<path style="fill:#C69A6A;" d="M440.321,429.904c-0.073,0.038-0.147,0.076-0.22,0.114c-11.007,5.642-24.269-2.069-25.008-14.415   c-2.77-46.296-15.015-90.771-35.816-131.201l23.493-12.453c20.999,38.34,35.721,80.575,42.822,125.363   C447.444,408.996,445.333,420.275,440.321,429.904z"/>
	<path style="fill:#C69A6A;" d="M247.852,117.041l-12.453,23.495c-40.426-20.8-84.905-33.052-131.192-35.819   c-12.352-0.739-20.06-14.011-14.402-25.016c0.038-0.073,0.076-0.147,0.114-0.22c9.63-5.002,20.898-7.124,32.582-5.273   C167.288,81.32,209.534,96.042,247.852,117.041z"/>
</g>
<path style="fill:#4BC999;" d="M409.228,258.638c-0.813,7.158-5.08,13.807-12.035,17.353c-14.315,7.282-28.642,14.575-42.958,21.879  c-10.33,5.261-23.042,1.739-29.048-8.196c-10.466-17.296-22.727-33.361-36.545-47.925l-8.365-8.038l-10.364-9.958  c-4.166-3.658-8.445-7.191-12.837-10.59c-8.58-6.683-17.578-12.882-26.937-18.538c-9.935-6.006-13.469-18.718-8.208-29.049  c7.305-14.327,14.597-28.653,21.891-42.958c3.534-6.943,10.195-11.222,17.341-12.035c4.606-0.519,9.416,0.383,13.728,2.935  c15.727,9.303,30.697,19.712,44.809,31.148c5.396,4.347,10.668,8.863,15.806,13.514l10.296,10.003l8.321,8.083  c19.904,20.706,37.426,43.726,52.171,68.642C408.845,249.223,409.747,254.032,409.228,258.638z"/>
<path style="fill:#41B787;" d="M345.803,168.185l-65.527,65.527l-10.364-9.958c-4.166-3.658-8.445-7.191-12.837-10.59  c0,0,49.009-30.607,62.625-68.495c5.396,4.347,10.668,8.863,15.806,13.514L345.803,168.185z"/>
<path style="fill:#C69A6A;" d="M451.668,78.712L436.84,93.539l-82.714,82.725l-12.497,12.497l-40.73,40.73l-12.257,12.257  l-121.49,121.501l-71.565,71.555v0.01l-11.17,11.159v0.01l-0.846,0.846h-0.01c-2.957-2.497-5.736-5.193-8.338-8.067  c-2.424-2.685-4.692-5.528-6.76-8.516c-0.815-0.867-1.62-1.745-2.414-2.623v-0.01l0.387-0.376v-0.01l12.33-12.33h0.01l70.008-70.019  l133.454-133.454l40.772-40.761l12.487-12.497l83.163-83.153l8.955-8.965l5.11-5.11l9.247,8.673L451.668,78.712z"/>
<path style="fill:#B58657;" d="M451.344,79.036L436.84,93.539l-82.714,82.725l-12.497,12.497l-40.73,40.73l-12.257,12.257  l-121.49,121.501l-71.565,71.555v0.01l-11.17,11.159v0.01l-0.846,0.846h-0.01c-2.957-2.497-5.736-5.193-8.338-8.067l11.985-11.985  l193.066-193.066l12.131-12.131l40.761-40.751l12.633-12.643l92.212-92.212l4.869-4.869L451.344,79.036z"/>
<path style="fill:#F9EED7;" d="M148.783,344.879l-70.008,70.019h-0.01l-12.33,12.33v0.01l-0.387,0.376  c-7.952-8.777-15.287-18.119-21.953-27.941l9.383-9.373l48.807-48.807L148.783,344.879z"/>
<path style="fill:#E8DBC4;" d="M170.538,409.746l-39.978,39.988l-14.367,14.367l-3.835,3.824  c-6.008-4.075-11.828-8.401-17.45-12.967c-4.002-2.393-7.795-5.12-11.337-8.129l0.846-0.846v-0.01l11.17-11.159v-0.01l71.565-71.555  L170.538,409.746z"/>
<polygon style="fill:#F9EED7;" points="454.855,135.007 511.303,0.282 376.578,56.732 431.146,80.439 "/>
<polygon style="fill:#E8DBC4;" points="431.146,80.439 511.303,0.282 454.855,135.007 "/>
<g>
	<path style="fill:#5BD3A2;" d="M386.43,255.367l-1.289,0.991c-4.424,3.397-10.766,2.565-14.163-1.86l-31.702-41.286   c-3.397-4.424-2.565-10.766,1.86-14.163l1.289-0.991c4.424-3.397,10.766-2.565,14.163,1.86l31.702,41.286   C391.687,245.628,390.855,251.97,386.43,255.367z"/>
	<circle style="fill:#5BD3A2;" cx="280.618" cy="144.415" r="10.533"/>
</g>
<g>
</g>
<g>
</g>
<g>
</g>
<g>
</g>
<g>
</g>
<g>
</g>
<g>
</g>
<g>
</g>
<g>
</g>
<g>
</g>
<g>
</g>
<g>
</g>
<g>
</g>
<g>
</g>
<g>
</g>
</svg>
