<?xml version="1.0" encoding="iso-8859-1"?>
<!-- Generator: Adobe Illustrator 19.0.0, SVG Export Plug-In . SVG Version: 6.00 Build 0)  -->
<svg xmlns="http://www.w3.org/2000/svg" xmlns:xlink="http://www.w3.org/1999/xlink" version="1.1" id="Capa_1" x="0px" y="0px" viewBox="0 0 512 512" style="enable-background:new 0 0 512 512;" xml:space="preserve">
<path style="fill:#34ABE0;" d="M512,256c0,1.369-0.01,2.738-0.031,4.096c-0.272,17.074-2.205,33.74-5.674,49.852  c-2.414,11.316-5.59,22.35-9.467,33.05c-2.435,6.76-5.151,13.385-8.129,19.864c-1.923,4.18-3.96,8.296-6.092,12.351  c-34.565,65.557-96.747,114.301-171.06,130.748C293.658,509.91,275.069,512,256,512c-103.236,0-192.209-61.116-232.699-149.138  c-2.079-4.514-4.023-9.101-5.831-13.751c-0.794-2.027-1.557-4.065-2.299-6.113c-3.877-10.7-7.053-21.734-9.467-33.05  C1.964,292.551,0,274.505,0,256c0-6.635,0.251-13.218,0.752-19.728c2.309-30.292,9.885-59.099,21.817-85.525  C62.704,61.858,152.127,0,256,0s193.296,61.858,233.43,150.747c4.963,10.982,9.174,22.382,12.56,34.126  C508.51,207.454,512,231.32,512,256z"/>
<g>
	<path style="fill:#78CAEF;" d="M512,256c0,1.369-0.01,2.738-0.031,4.096H399.37c-5.193,0-9.895-2.1-13.302-5.507   c-3.406-3.406-5.507-8.108-5.507-13.302c0-10.386-8.411-18.808-18.798-18.808h-29.78c-10.386,0-18.808-8.411-18.808-18.798v-0.01   c0-10.386,8.422-18.798,18.808-18.798H501.99C508.51,207.454,512,231.32,512,256z"/>
	<path style="fill:#78CAEF;" d="M136.046,292.697c0,10.386-8.411,18.798-18.798,18.798h-5.235c-5.193,0-9.895,2.111-13.302,5.507   c-3.396,3.406-5.507,8.108-5.507,13.302c0,10.386-8.411,18.808-18.798,18.808H17.471c-0.794-2.027-1.557-4.065-2.299-6.113   c-3.877-10.7-7.053-21.734-9.467-33.05C1.964,292.551,0,274.505,0,256c0-6.635,0.251-13.218,0.752-19.728h34.2   c10.386,0,18.808,8.422,18.808,18.808s8.422,18.808,18.808,18.808h44.68c5.193,0,9.895,2.1,13.291,5.507   C133.945,282.802,136.046,287.504,136.046,292.697z"/>
</g>
<path style="fill:#5C5E70;" d="M489.43,150.747H22.57C62.704,61.858,152.127,0,256,0S449.296,61.858,489.43,150.747z"/>
<g>
	<path style="fill:#FFD15C;" d="M223.3,294.092v-52.331V71.56c0-25.968,21.132-47.091,47.1-47.091s47.091,21.124,47.091,47.091   v1.835c0,6.762,5.48,12.234,12.234,12.234c6.762,0,12.234-5.472,12.234-12.234V71.56c0-39.457-32.101-71.559-71.559-71.559   c-39.466,0-71.566,32.101-71.566,71.559v168.31v54.222"/>
	<path style="fill:#FFD15C;" d="M393.339,294.092v-52.331V71.56c0-25.968,21.132-47.091,47.1-47.091   c25.968,0,47.091,21.124,47.091,47.091v1.835c0,6.762,5.48,12.234,12.234,12.234c6.762,0,12.234-5.472,12.234-12.234V71.56   c0-39.457-32.101-71.559-71.559-71.559c-39.466,0-71.566,32.101-71.566,71.559v168.31v54.222"/>
	<rect x="215.959" y="137.007" style="fill:#FFD15C;" width="160.256" height="25.689"/>
	<rect x="215.959" y="209.178" style="fill:#FFD15C;" width="160.256" height="25.689"/>
</g>
<g>
	<rect x="338.286" y="137.007" style="fill:#EDBB4C;" width="30.584" height="25.689"/>
	<rect x="338.286" y="209.178" style="fill:#EDBB4C;" width="30.584" height="25.689"/>
</g>
<rect x="55.536" y="328.819" style="fill:#F9EED7;" width="398.994" height="11.655"/>
<path style="fill:#FF525D;" d="M92.003,321.891v25.516c0,8.537-6.917,15.454-15.444,15.454H23.301  c-2.978-6.478-5.695-13.103-8.129-19.864c-3.877-10.7-7.053-21.734-9.467-33.05c2.675-2.194,6.081-3.511,9.801-3.511H76.56  C85.086,306.437,92.003,313.354,92.003,321.891z"/>
<path style="fill:#EF4152;" d="M92.003,327.555v19.853c0,8.537-6.917,15.454-15.444,15.454H23.301  c-2.978-6.478-5.695-13.103-8.129-19.864c0.115,0.01,0.219,0.01,0.334,0.01H76.56C85.086,343.009,92.003,336.091,92.003,327.555z"/>
<path style="fill:#FF6E7C;" d="M73.465,328.38H45.995c-2.802,0-5.073-2.272-5.073-5.073v-4.482c0-2.802,2.272-5.073,5.073-5.073  h27.469c2.802,0,5.073,2.272,5.073,5.073v4.482C78.538,326.108,76.266,328.38,73.465,328.38z"/>
<path style="fill:#FF525D;" d="M216.535,362.862h-61.049c-8.534,0-15.451-6.917-15.451-15.451v-25.523  c0-8.534,6.917-15.451,15.451-15.451h61.049c8.534,0,15.451,6.917,15.451,15.451v25.523  C231.986,355.944,225.068,362.862,216.535,362.862z"/>
<path style="fill:#EF4152;" d="M216.535,343.009h-61.05c-8.534,0-15.451-6.917-15.451-15.451v19.853  c0,8.534,6.917,15.451,15.451,15.451h61.05c8.534,0,15.451-6.917,15.451-15.451v-19.853  C231.986,336.091,225.069,343.009,216.535,343.009z"/>
<path style="fill:#FF6E7C;" d="M213.443,328.38h-27.469c-2.802,0-5.073-2.272-5.073-5.073v-4.482c0-2.802,2.272-5.073,5.073-5.073  h27.469c2.802,0,5.073,2.272,5.073,5.073v4.482C218.517,326.108,216.246,328.38,213.443,328.38z"/>
<path style="fill:#FF525D;" d="M356.514,362.862h-61.049c-8.534,0-15.451-6.917-15.451-15.451v-25.523  c0-8.534,6.917-15.451,15.451-15.451h61.049c8.534,0,15.451,6.917,15.451,15.451v25.523  C371.965,355.944,365.048,362.862,356.514,362.862z"/>
<path style="fill:#EF4152;" d="M356.515,343.009h-61.05c-8.534,0-15.451-6.917-15.451-15.451v19.853  c0,8.534,6.917,15.451,15.451,15.451h61.05c8.534,0,15.451-6.917,15.451-15.451v-19.853  C371.965,336.091,365.048,343.009,356.515,343.009z"/>
<path style="fill:#FF6E7C;" d="M353.423,328.38h-27.469c-2.802,0-5.073-2.272-5.073-5.073v-4.482c0-2.802,2.272-5.073,5.073-5.073  h27.469c2.802,0,5.073,2.272,5.073,5.073v4.482C358.496,326.108,356.225,328.38,353.423,328.38z"/>
<path style="fill:#FF525D;" d="M506.295,309.948c-2.414,11.316-5.59,22.35-9.467,33.05c-2.435,6.76-5.151,13.385-8.129,19.864  H435.44c-8.526,0-15.444-6.917-15.444-15.454v-25.516c0-8.537,6.917-15.454,15.444-15.454h61.053  C500.214,306.437,503.62,307.754,506.295,309.948z"/>
<path style="fill:#EF4152;" d="M496.828,342.998c-2.435,6.76-5.151,13.385-8.129,19.864H435.44c-8.526,0-15.444-6.917-15.444-15.454  v-19.853c0,8.537,6.917,15.454,15.444,15.454h61.053C496.609,343.009,496.713,343.009,496.828,342.998z"/>
<path style="fill:#FF6E7C;" d="M493.402,328.38h-27.469c-2.802,0-5.073-2.272-5.073-5.073v-4.482c0-2.802,2.272-5.073,5.073-5.073  h27.469c2.802,0,5.073,2.272,5.073,5.073v4.482C498.476,326.108,496.204,328.38,493.402,328.38z"/>
<path style="fill:#78CAEF;" d="M482.607,375.212c-34.565,65.557-96.747,114.301-171.06,130.748  c-0.47-9.968-8.704-17.91-18.787-17.91h-15.956c-5.193,0-9.895-2.1-13.302-5.507c-3.406-3.406-5.507-8.108-5.507-13.302  c0-10.386,8.422-18.808,18.808-18.808h52.82c5.193,0,9.895-2.1,13.302-5.507c3.396-3.406,5.507-8.108,5.507-13.302  c0-10.386-8.422-18.808-18.808-18.808H213.65c-5.193,0-9.895-2.1-13.302-5.507c-3.406-3.406-5.507-8.108-5.507-13.302  c0-10.386,8.422-18.798,18.808-18.798L482.607,375.212L482.607,375.212z"/>
<g>
</g>
<g>
</g>
<g>
</g>
<g>
</g>
<g>
</g>
<g>
</g>
<g>
</g>
<g>
</g>
<g>
</g>
<g>
</g>
<g>
</g>
<g>
</g>
<g>
</g>
<g>
</g>
<g>
</g>
</svg>
