<?xml version="1.0" encoding="iso-8859-1"?>
<!-- Generator: Adobe Illustrator 19.0.0, SVG Export Plug-In . SVG Version: 6.00 Build 0)  -->
<svg xmlns="http://www.w3.org/2000/svg" xmlns:xlink="http://www.w3.org/1999/xlink" version="1.1" id="Capa_1" x="0px" y="0px" viewBox="0 0 512 512" style="enable-background:new 0 0 512 512;" xml:space="preserve">
<path style="fill:#FF525D;" d="M512,256c0,53.112-16.175,102.452-43.886,143.36c-7.241,10.71-15.287,20.835-24.033,30.302  c-6.437,6.969-13.26,13.584-20.428,19.801c-5.538,4.807-11.285,9.383-17.23,13.709C364.189,493.881,312.215,512,256,512  s-108.189-18.119-150.424-48.828C41.597,416.632,0,341.17,0,256c0-69.078,27.355-131.772,71.847-177.821  c28.087-29.1,63.018-51.555,102.201-64.784C199.774,4.712,227.338,0,256,0s56.226,4.712,81.951,13.396  c31.838,10.752,60.865,27.596,85.703,49.142c7.168,6.217,13.991,12.831,20.428,19.801c8.746,9.467,16.792,19.592,24.033,30.302  C495.825,153.548,512,202.888,512,256z"/>
<path style="fill:#C69A6A;" d="M468.114,34.503V399.36c-7.241,10.71-15.287,20.835-24.033,30.302  c-6.437,6.969-13.26,13.584-20.428,19.801c-5.538,4.807-11.285,9.383-17.23,13.709H105.576C41.597,416.632,0,341.17,0,256  c0-69.078,27.355-131.772,71.847-177.821c28.087-29.1,63.018-51.555,102.201-64.784h272.959  C458.658,13.396,468.114,22.852,468.114,34.503z"/>
<path style="fill:#FFD15C;" d="M353.985,127.525h114.129V34.507c0-11.659-9.451-21.111-21.111-21.111h-93.018V127.525z"/>
<path style="fill:#4BC999;" d="M423.654,78.179v371.284c-5.538,4.807-11.285,9.383-17.23,13.709  c-3.647,2.654-7.367,5.204-11.149,7.67C355.192,496.87,307.367,512,256,512c-56.215,0-108.189-18.119-150.424-48.828  C47.188,420.697,7.429,354.126,0.94,278.068C0.313,270.796,0,263.429,0,256c0-47.261,12.8-91.533,35.129-129.526  c6.875-11.692,14.649-22.789,23.239-33.196c4.295-5.214,8.788-10.25,13.479-15.099C71.847,78.179,423.654,78.179,423.654,78.179z"/>
<path style="fill:#41B787;" d="M407.05,78.179l-20.438,15.099H58.368c4.295-5.214,8.788-10.25,13.479-15.099H407.05z"/>
<path style="fill:#EDBB4C;" d="M454.186,75.452c0,6.76-1.536,13.155-4.295,18.86c-7.022,14.555-21.911,24.597-39.152,24.597  s-32.141-10.041-39.163-24.597c-2.748-5.705-4.295-12.1-4.295-18.86c0-24.001,19.456-43.457,43.457-43.457  C434.74,31.995,454.186,51.451,454.186,75.452z"/>
<path style="fill:#494B5B;" d="M449.891,94.312c-7.022,14.555-21.911,24.597-39.152,24.597s-32.141-10.041-39.163-24.597  c7.011-14.566,21.911-24.607,39.163-24.607C427.99,69.705,442.88,79.747,449.891,94.312z"/>
<path style="fill:#EF4152;" d="M318.809,152.2c0,3.803-0.491,7.492-1.411,11.003c-4.859,18.672-21.838,32.455-42.036,32.455  c-24.001,0-43.457-19.456-43.457-43.457c0-20.208,13.793-37.198,32.475-42.057c3.511-0.909,7.189-1.4,10.982-1.4  C299.363,108.743,318.809,128.199,318.809,152.2z"/>
<path style="fill:#FF525D;" d="M318.809,152.2c0,3.803-0.491,7.492-1.411,11.003c-6.896,8.119-17.178,13.26-28.672,13.26  c-20.783,0-37.627-16.844-37.627-37.627c0-11.504,5.151-21.797,13.281-28.693c3.511-0.909,7.189-1.4,10.982-1.4  C299.363,108.743,318.809,128.199,318.809,152.2z"/>
<path style="fill:#E8DBC4;" d="M154.948,334.003c0,3.803-0.491,7.492-1.411,11.003c-4.859,18.672-21.838,32.455-42.036,32.455  c-24.001,0-43.457-19.456-43.457-43.457c0-20.208,13.793-37.198,32.475-42.057c3.511-0.909,7.189-1.4,10.982-1.4  C135.502,290.545,154.948,310.001,154.948,334.003z"/>
<path style="fill:#F9EED7;" d="M154.948,334.003c0,3.803-0.491,7.492-1.411,11.003c-6.896,8.119-17.178,13.26-28.672,13.26  c-20.783,0-37.627-16.844-37.627-37.627c0-11.504,5.151-21.797,13.281-28.693c3.511-0.909,7.189-1.4,10.982-1.4  C135.502,290.545,154.948,310.001,154.948,334.003z"/>
<path style="fill:#34ABE0;" d="M353.782,285.968c0,3.803-0.491,7.492-1.411,11.003c-4.012,15.423-16.3,27.512-31.838,31.242  c-3.271,0.794-6.687,1.212-10.198,1.212c-24.001,0-43.457-19.456-43.457-43.457c0-20.208,13.793-37.198,32.475-42.057  c3.511-0.909,7.189-1.4,10.982-1.4c10.877,0,20.835,4.002,28.453,10.616C347.972,261.089,353.782,272.854,353.782,285.968z"/>
<path style="fill:#F9EED7;" d="M353.782,285.968c0,3.803-0.491,7.492-1.411,11.003c-0.084,0.313-0.167,0.616-0.251,0.92  c-0.052,0.199-0.115,0.397-0.178,0.606c-4.409,14.691-16.394,26.112-31.41,29.717c-6.541-5.674-11.368-13.27-13.605-21.922  c-0.909-3.49-1.39-7.147-1.39-10.919c0-20.208,13.793-37.198,32.475-42.057c0.251-0.063,0.512-0.125,0.773-0.188  C347.972,261.089,353.782,272.854,353.782,285.968z"/>
<path style="fill:#279FC9;" d="M323.699,310.23c-20.783,0-37.627-16.844-37.627-37.627c0-11.504,5.151-21.797,13.281-28.693  c-18.683,4.859-32.475,21.849-32.475,42.057c0,24.001,19.456,43.457,43.457,43.457c20.198,0,37.177-13.782,42.036-32.455  C345.475,305.089,335.193,310.23,323.699,310.23z"/>
<path style="fill:#E8DBC4;" d="M352.371,296.97c-0.084,0.313-0.167,0.616-0.251,0.92c-0.052,0.199-0.115,0.397-0.178,0.606  c-4.409,14.691-16.394,26.112-31.41,29.717c-6.541-5.674-11.368-13.27-13.605-21.922c5.047,2.518,10.742,3.939,16.771,3.939  C335.193,310.23,345.475,305.089,352.371,296.97z"/>
<path style="fill:#5BD3A2;" d="M391.053,424.082c0,8.6,6.98,15.579,15.579,15.579h17.021v9.801  c-5.538,4.807-11.285,9.383-17.23,13.709c-3.647,2.654-7.367,5.204-11.149,7.67H333.04c-4.305,0-8.202-1.745-11.024-4.566  c-2.811-2.821-4.556-6.719-4.556-11.024c0-8.61-6.98-15.59-15.59-15.59h-74.47c-4.305,0-8.202-1.745-11.024-4.566  c-2.821-2.821-4.566-6.719-4.566-11.013c0-8.61,6.98-15.59,15.59-15.59h50.218c4.305,0,8.202-1.745,11.024-4.566  c2.821-2.821,4.566-6.719,4.566-11.024c0-8.6,6.98-15.579,15.59-15.579h114.855v31.169h-17.021  C398.033,408.492,391.053,415.472,391.053,424.082z"/>
<path style="fill:#F9EED7;" d="M284.139,226.983L126.527,512H86.194l179.451-295.727c3.02-4.984,9.467-6.625,14.503-3.709  c0.24,0.136,0.47,0.282,0.7,0.439C285.341,216.085,286.824,222.135,284.139,226.983z"/>
<path style="fill:#E8DBC4;" d="M280.848,213.002L99.422,512H86.194l179.451-295.727c3.02-4.984,9.467-6.625,14.503-3.709  C280.388,212.699,280.618,212.846,280.848,213.002z"/>
<g>
	<circle style="fill:#FF6E7C;" cx="298.538" cy="136.422" r="12.844"/>
	<circle style="fill:#FF6E7C;" cx="276.01" cy="132.096" r="6.422"/>
</g>
<g>
	<circle style="fill:#FCF8F2;" cx="129.567" cy="317.931" r="12.844"/>
	<circle style="fill:#FCF8F2;" cx="107.039" cy="313.605" r="6.422"/>
</g>
<path style="fill:#5BD3A2;" d="M201.059,141.636c0,4.19-1.703,7.973-4.441,10.721c-2.748,2.748-6.541,4.441-10.721,4.441H92.411  c-8.38,0-15.161,6.781-15.161,15.151c0,4.19,1.693,7.983,4.441,10.721c2.738,2.748,6.531,4.441,10.721,4.441h42.58  c8.37,0,15.151,6.792,15.151,15.161c0,4.18-1.693,7.973-4.441,10.721c-2.738,2.738-6.531,4.441-10.71,4.441h-12.863  c-8.38,0-15.161,6.792-15.161,15.161c0,4.18,1.693,7.973,4.441,10.721c2.738,2.738,6.531,4.441,10.721,4.441h46.08  c8.37,0,15.161,6.781,15.161,15.161c0,4.18-1.693,7.973-4.441,10.71c-2.748,2.748-6.531,4.441-10.721,4.441H0.94  C0.313,270.796,0,263.429,0,256c0-47.261,12.8-91.533,35.129-129.526h150.768C194.267,126.474,201.059,133.256,201.059,141.636z"/>
<g>
</g>
<g>
</g>
<g>
</g>
<g>
</g>
<g>
</g>
<g>
</g>
<g>
</g>
<g>
</g>
<g>
</g>
<g>
</g>
<g>
</g>
<g>
</g>
<g>
</g>
<g>
</g>
<g>
</g>
</svg>
