<?xml version="1.0" encoding="iso-8859-1"?>
<!-- Generator: Adobe Illustrator 19.0.0, SVG Export Plug-In . SVG Version: 6.00 Build 0)  -->
<svg xmlns="http://www.w3.org/2000/svg" xmlns:xlink="http://www.w3.org/1999/xlink" version="1.1" id="Capa_1" x="0px" y="0px" viewBox="0 0 512 512" style="enable-background:new 0 0 512 512;" xml:space="preserve">
<path style="fill:#34ABE0;" d="M512,256.001c0,86.883-43.29,163.662-109.474,209.941c-3.793,2.664-7.67,5.214-11.619,7.67  c-4.253,2.644-8.589,5.162-13.009,7.554c-3.041,1.651-6.113,3.25-9.226,4.775c-5.935,2.905-11.985,5.601-18.16,8.046  c-3.041,1.212-6.102,2.361-9.185,3.448c-3.615,1.275-7.262,2.476-10.951,3.594c-3.709,1.128-7.45,2.163-11.222,3.124  c-20.198,5.12-41.357,7.847-63.154,7.847c-73.112,0-139.065-30.647-185.71-79.799c-0.857-0.899-1.703-1.808-2.539-2.717  c-5.789-6.269-11.264-12.831-16.405-19.665c-2.173-2.884-4.284-5.82-6.332-8.798C16.614,359.801,0,309.834,0,256.001  c0-18.557,1.975-36.655,5.726-54.094c3.877-18.004,9.644-35.307,17.095-51.691c5.538-12.225,12.027-23.928,19.352-35.035  c1.588-2.403,3.208-4.775,4.869-7.116c0.01,0,0.01-0.01,0.01-0.01c21.462-30.25,49.33-55.641,81.627-74.198  c14.2-8.15,29.236-14.984,44.972-20.323h0.01C199.502,4.765,227.192,0.001,256,0.001c20.302,0,40.061,2.361,58.995,6.844  c0.01-0.01,0.01-0.01,0.021,0c20.417,4.807,39.894,12.069,58.107,21.452c38.661,19.937,71.607,49.434,95.681,85.368  c1.849,2.748,3.647,5.538,5.381,8.37c13.051,21.201,23.092,44.46,29.529,69.172C509.126,211.906,512,233.619,512,256.001z"/>
<g>
	<path style="fill:#78CAEF;" d="M372.375,194.873L372.375,194.873c0-7.137-5.786-12.922-12.922-12.922h-4.307   c-7.137,0-12.922-5.786-12.922-12.922l0,0c0-7.137-5.786-12.922-12.922-12.922H131.156c-7.137,0-12.922,5.786-12.922,12.922l0,0   c0,7.137,5.786,12.922,12.922,12.922h79.688c7.137,0,12.922,5.786,12.922,12.922l0,0c0,7.137-5.786,12.922-12.922,12.922H174.55   c-7.137,0-12.922,5.786-12.922,12.922l0,0c0,7.137,5.786,12.922,12.922,12.922h10.964c7.137,0,12.922,5.786,12.922,12.922l0,0   c0,7.137-5.786,12.922-12.922,12.922h-39.283c-7.137,0-12.922,5.786-12.922,12.922l0,0c0,7.137,5.786,12.922,12.922,12.922h186.106   c7.137,0,12.922-5.786,12.922-12.922l0,0c0-7.137,5.786-12.922,12.922-12.922h1.27c7.137,0,12.922-5.786,12.922-12.922l0,0   c0-7.137-5.786-12.922-12.922-12.922H335.76c-7.137,0-12.922-5.786-12.922-12.922l0,0c0-7.137,5.786-12.922,12.922-12.922h23.691   C366.59,207.795,372.375,202.01,372.375,194.873z"/>
	<path style="fill:#78CAEF;" d="M298.163,415.278L298.163,415.278c0-7.137-5.786-12.922-12.922-12.922H176.342   c-7.137,0-12.922,5.786-12.922,12.922l0,0c0,7.137,5.786,12.922,12.922,12.922h35.225c7.137,0,12.922,5.786,12.922,12.922l0,0   c0,7.137-5.786,12.922-12.922,12.922h-3.591c-7.137,0-12.922,5.786-12.922,12.922l0,0c0,7.137,5.786,12.922,12.922,12.922h104.37   c7.137,0,12.922-5.786,12.922-12.922l0,0c0-7.137,5.786-12.922,12.922-12.922h3.591c7.137,0,12.922-5.786,12.922-12.922l0,0   c0-7.137-5.786-12.922-12.922-12.922h-30.697C303.947,428.201,298.163,422.415,298.163,415.278z"/>
	<path style="fill:#78CAEF;" d="M314.995,6.845c-3.49,0.042-6.635,1.473-8.934,3.772c-2.33,2.33-3.783,5.569-3.783,9.132   c0,7.137-5.789,12.925-12.925,12.925H184.989c-3.574,0-6.802-1.442-9.143-3.783c-2.33-2.341-3.783-5.58-3.783-9.143   c0-2.257,0.585-4.378,1.588-6.217h0.01C199.502,4.765,227.192,0.001,256,0.001C276.302,0.001,296.061,2.362,314.995,6.845z"/>
	<path style="fill:#78CAEF;" d="M110.08,188.981c0,7.137-5.789,12.925-12.925,12.925H5.726c3.877-18.004,9.644-35.307,17.095-51.691   h48.494c7.137,0,12.915,5.778,12.915,12.915c0,3.563,1.452,6.802,3.783,9.143c2.341,2.341,5.569,3.783,9.143,3.783   s6.802,1.442,9.143,3.783C108.628,182.178,110.08,185.418,110.08,188.981z"/>
	<path style="fill:#78CAEF;" d="M444.068,224.467v-0.001c0-7.137-5.786-12.922-12.922-12.922H308.381   c-7.137,0-12.922,5.786-12.922,12.922v0.001c0,7.137,5.786,12.922,12.922,12.922h20.46c7.137,0,12.922,5.786,12.922,12.922v0.001   c0,7.137,5.786,12.922,12.922,12.922h102.304c7.137,0,12.922-5.786,12.922-12.922v-0.001c0-7.137-5.786-12.922-12.922-12.922l0,0   C449.853,237.389,444.068,231.603,444.068,224.467z"/>
</g>
<g>
	<path style="fill:#5C5E70;" d="M344.137,288.915L70.29,432.202c-0.857-0.899-1.703-1.808-2.539-2.717   c-5.789-6.269-11.264-12.831-16.405-19.665c-2.173-2.884-4.284-5.82-6.332-8.798L42.172,115.18l-0.073-7.064l4.942-0.052h0.334   l3.438-0.031c0.052,0,0.094-0.01,0.146-0.01l8.861-0.084l2.644,266.062l0.418,42.078l37.292-19.508l235.75-123.361l4.106,7.847   c0.01,0.031,0.031,0.052,0.042,0.084l1.64,3.124L344.137,288.915z"/>
	<path style="fill:#5C5E70;" d="M315.559,177.915l-1.034,1.055l-25.349,25.736L100.174,396.571l-32.423,32.914   c-5.789-6.269-11.264-12.831-16.405-19.665l11.118-35.819l79.82-257.223l11.149-35.913l16.927,5.256l-11.034,35.547L73.435,398.451   l203.379-206.451l25.631-26.018l0.491-0.502L315.559,177.915z"/>
</g>
<path style="fill:#FFD15C;" d="M355.441,298.199c-6.516-3.9-11.97-9.728-15.409-17.136  c-25.391-54.712-66.166-100.004-117.919-130.983s-110.936-45.521-171.152-42.054C29.319,109.27,10.773,92.739,9.526,71.102  C8.281,49.465,24.811,30.914,46.449,29.667c75.987-4.374,150.67,13.977,215.975,53.068s116.76,96.247,148.802,165.286  c9.123,19.66,0.582,42.992-19.077,52.116C379.898,305.824,366.218,304.65,355.441,298.199z"/>
<path style="fill:#FFDC8D;" d="M379.214,273.333c-2.412-1.444-4.434-3.601-5.708-6.343  c-36.17-77.709-99.655-127.558-100.291-128.052c-6.352-4.931-7.504-14.076-2.574-20.427c4.929-6.352,14.08-7.511,20.426-2.575  c2.83,2.195,69.724,54.734,108.837,138.768c3.393,7.289,0.235,15.949-7.055,19.341C388.299,276.164,383.217,275.73,379.214,273.333z  "/>
<g>
	<path style="fill:#5C5E70;" d="M247.871,431.815l82.505,69.214c-3.709,1.128-7.45,2.163-11.222,3.124l-77.458-64.982l1.985-2.372   l0.94-1.108c0.052-0.063,0.104-0.125,0.157-0.199L247.871,431.815z"/>
	<path style="fill:#5C5E70;" d="M422.609,378.515l-20.083,87.427c-3.793,2.664-7.67,5.214-11.619,7.67l22.34-97.249l4.681,1.076   l2.017,0.46c0.052,0.01,0.104,0.021,0.146,0.031L422.609,378.515z"/>
	<path style="fill:#5C5E70;" d="M288.601,395.682l61.91,98.304c-3.041,1.212-6.102,2.361-9.185,3.448l-60.75-96.455l-10.867-17.262   l8.129-5.12L288.601,395.682z"/>
	<path style="fill:#5C5E70;" d="M358.964,372.089l-1.682-19.738l-0.031-0.376l9.571-0.815l0.073,0.805l1.661,19.519l9.341,109.683   c-3.041,1.651-6.113,3.25-9.226,4.775L358.964,372.089z"/>
</g>
<path style="fill:#FF525D;" d="M430.417,377.136c-3.903,1.309-8.225,1.5-12.489,0.305c-31.481-8.828-64.506-8.001-95.505,2.393  s-57.849,29.641-77.645,55.661c-7.116,9.351-20.46,11.162-29.81,4.049c-9.35-7.114-11.163-20.46-4.049-29.81  c24.982-32.835,58.863-57.122,97.98-70.237s80.792-14.159,120.517-3.02c11.312,3.172,17.911,14.914,14.738,26.226  C442.179,369.751,436.873,374.97,430.417,377.136z"/>
<path style="fill:#FF6E7C;" d="M428.558,358.58c-1.445,0.485-3.046,0.557-4.624,0.116c-44.751-12.495-87.656-3.921-88.085-3.834  c-4.269,0.878-8.442-1.871-9.319-6.14c-0.879-4.268,1.87-8.446,6.14-9.319c1.902-0.391,47.117-9.421,95.509,4.092  c4.197,1.172,6.651,5.525,5.478,9.723C432.925,355.837,430.956,357.777,428.558,358.58z"/>
<path style="fill:#FFD15C;" d="M474.185,122.034c-12.487,12.57-29.79,20.355-48.912,20.355c-38.087,0-68.963-30.877-68.963-68.963  c0-17.251,6.343-33.029,16.812-45.129C414.751,49.759,449.745,82.307,474.185,122.034z"/>
<path style="fill:#78CAEF;" d="M503.714,191.206h-23.719c-3.563,0-6.802-1.442-9.143-3.783c-2.341-2.341-3.783-5.58-3.783-9.143  c0-7.137-5.789-12.925-12.925-12.925h-61.743c-3.574,0-6.802-1.442-9.143-3.783c-2.33-2.341-3.783-5.58-3.783-9.143  c0-7.137,5.789-12.915,12.925-12.915h41.639c3.563,0,6.802-1.452,9.143-3.783c2.341-2.341,3.783-5.569,3.783-9.143  c0-7.137,5.789-12.925,12.925-12.925h8.913c1.849,2.748,3.647,5.538,5.381,8.37C487.236,143.235,497.277,166.495,503.714,191.206z"/>
<g>
</g>
<g>
</g>
<g>
</g>
<g>
</g>
<g>
</g>
<g>
</g>
<g>
</g>
<g>
</g>
<g>
</g>
<g>
</g>
<g>
</g>
<g>
</g>
<g>
</g>
<g>
</g>
<g>
</g>
</svg>
