<?xml version="1.0" encoding="iso-8859-1"?>
<!-- Generator: Adobe Illustrator 19.0.0, SVG Export Plug-In . SVG Version: 6.00 Build 0)  -->
<svg xmlns="http://www.w3.org/2000/svg" xmlns:xlink="http://www.w3.org/1999/xlink" version="1.1" id="Capa_1" x="0px" y="0px" viewBox="0 0 512 512" style="enable-background:new 0 0 512 512;" xml:space="preserve">
<path style="fill:#FFD15C;" d="M512,256c0,13.322-1.024,26.396-3.01,39.171c-1.221,7.84-2.793,15.556-4.717,23.149  c-3.61,14.295-8.44,28.113-14.367,41.332c-2.638,5.854-5.482,11.605-8.533,17.211c-0.352,0.652-0.714,1.303-1.086,1.955  c-5.12,9.247-10.809,18.142-17.015,26.624c-46.101,63.033-120.615,103.972-204.686,103.972c-15.153,0-29.996-1.334-44.415-3.889  c-25.538-4.499-49.752-12.847-72.042-24.4C60.768,438.954,5.172,353.973,5.172,256c0-139.957,113.457-253.414,253.414-253.414  c83.937,0,158.347,40.815,204.469,103.672c19.673,26.81,34.185,57.644,42.118,91.032C509.63,216.136,512,235.789,512,256z"/>
<g>
	<path style="fill:#FFDC8D;" d="M512,256c0,13.322-1.024,26.396-3.01,39.171h-83.327c-4.499,0-8.585-1.82-11.533-4.779   c-2.958-2.948-4.779-7.034-4.779-11.533c0-9.009,7.302-16.312,16.312-16.312h4.53c4.51,0,8.595-1.82,11.543-4.779   c2.948-2.958,4.779-7.034,4.779-11.543c0-9.009-7.302-16.312-16.322-16.312h-44.466c-4.51,0-8.585-1.831-11.533-4.779   c-2.948-2.948-4.779-7.023-4.779-11.533c0-9.009,7.302-16.312,16.312-16.312h119.445C509.63,216.136,512,235.789,512,256z"/>
	<path style="fill:#FFDC8D;" d="M480.287,378.817c-5.12,9.247-10.809,18.142-17.015,26.624   c-46.101,63.033-120.615,103.972-204.686,103.972c-15.153,0-29.996-1.334-44.415-3.889c-0.9-2.027-1.407-4.282-1.407-6.64   c0-9.009,7.302-16.312,16.312-16.312h49.597c4.51,0,8.585-1.831,11.533-4.779c2.948-2.958,4.779-7.034,4.779-11.543   c0-9.009-7.302-16.312-16.312-16.312h-13.85c-4.499,0-8.585-1.831-11.533-4.779c-2.958-2.948-4.779-7.023-4.779-11.533   c0-9.009,7.302-16.312,16.312-16.312h45.821c4.499,0,8.585-1.831,11.533-4.779c2.958-2.958,4.779-7.044,4.779-11.543   c0-9.009-7.302-16.312-16.312-16.312h-100.6c-4.499,0-8.585-1.82-11.533-4.779c-2.958-2.948-4.779-7.034-4.779-11.533   c0-9.009,7.302-16.312,16.312-16.312h250.145c4.499,0,8.585,1.82,11.533,4.779c2.958,2.948,4.779,7.034,4.779,11.533   C476.5,372.342,477.928,375.994,480.287,378.817z"/>
</g>
<path style="fill:#FF525D;" d="M400.522,172.18l-48.228,8.156c-14.258,2.412-26.127,9.39-34.744,18.971  c-10.052,11.14-15.717,25.803-15.717,40.858c0,0.09,0,0.191,0.011,0.28c0.044,11.79,3.567,23.828,11.218,34.565  c27.407,38.558,16.794,92.217-23.211,117.469l-10.792,6.81c-15.851,10.007-33.79,14.943-51.65,14.943  c-22.145,0-44.179-7.584-62.039-22.46c-12.811-10.68-30.963-12.128-45.3-3.612l-19.531,11.566  c-11.802,6.989-26.778,5.116-36.606-4.443c-39.32-38.232-63.788-91.666-63.934-150.821C-0.268,128.002,94.64,32.848,211.11,32.848  c87.673,0,162.859,53.456,194.764,129.54C407.657,166.628,405.055,171.418,400.522,172.18z"/>
<g>
	<path style="fill:#EF4152;" d="M301.834,240.164c0,0.09,0,0.191,0.011,0.28c-52.11,28.024-87.291,80.706-87.291,80.706   l-12.621-6.204l50.483-95.357l52.424-37.526c0,0,6.776,7.741,12.711,17.242C307.499,210.446,301.834,225.109,301.834,240.164z"/>
	<path style="fill:#EF4152;" d="M231.662,360.943c-101.921,0-184.544-82.623-184.544-184.544c0-32.431,8.376-62.901,23.068-89.386   C27.027,125.82-0.145,182.08,0.005,244.464c0.142,59.149,24.606,112.584,63.932,150.814c9.83,9.557,24.804,11.436,36.6,4.447   l19.53-11.571c14.343-8.514,32.49-7.06,45.31,3.621c17.853,14.875,39.885,22.452,62.03,22.452c17.867,0,35.804-4.935,51.657-14.945   l10.793-6.809c21.424-13.524,34.404-35.2,37.641-58.338C299.563,351.145,266.757,360.943,231.662,360.943z"/>
</g>
<path style="fill:#F9EED7;" d="M496.39,322.415l-10.716-23.593c5.379-3.32,8.357-5.585,8.782-5.916  c4.644-3.6,5.472-10.281,1.872-14.926c-3.589-4.655-10.281-5.503-14.936-1.914c-0.341,0.269-33.947,25.641-93.794,34.599  c-8.316-27.896-23.345-56.672-44.59-84.992c-14.45-19.28-28.703-34.319-38.167-43.608c11.492-8.999,23.697-17.067,36.626-24.173  c43.856-24.131,83.73-30.213,98.821-31.713c5.875-0.579,10.147-5.792,9.557-11.647c-0.569-5.865-5.782-10.137-11.647-9.568  c-16.415,1.634-59.702,8.213-107.003,34.247c-26.334,14.481-49.907,32.571-70.594,54.137c-25.176,26.252-46.09,57.654-62.526,93.97  c-2.431,5.358-0.052,11.678,5.317,14.098c1.427,0.652,2.917,0.952,4.386,0.952c4.065,0,7.933-2.317,9.712-6.258  c13.943-30.803,31.289-57.789,51.883-80.803c6.082-6.816,12.453-13.281,19.115-19.384c22.869,22.28,82.561,87.092,85.271,159.061  c-0.114,0-0.238,0.01-0.352,0.01c-15.753,0.476-31.527-0.455-47.3-2.803c-48.997-7.292-84.071-26.541-96.876-34.485  c-4.996-3.103-11.574-1.562-14.677,3.444c-3.093,4.996-1.562,11.574,3.444,14.667c13.933,8.647,52.038,29.572,104.975,37.464  c14.253,2.12,28.475,3.175,42.708,3.175c3.837,0,7.654-0.093,11.492-0.238c3.134,9.309,8.44,16.849,15.867,22.487  c3.341,2.524,6.951,4.541,10.757,6.123c8.502,3.517,17.966,4.872,27.4,4.872c4.944,0,9.919-0.372,14.729-0.993  c6.092-0.776,11.967-1.945,17.346-3.268c6.641-9.082,12.691-18.629,18.101-28.579c-5.875,2.669-13.333,5.41-22.6,7.727  c-22.094,5.523-39.853,5.037-50.517-1.314c-0.01-0.01-0.021-0.021-0.052-0.031c-0.807-0.486-1.562-0.983-2.286-1.541  c-0.641-0.476-1.252-0.993-1.841-1.541c-1.758-1.645-3.248-3.548-4.489-5.72c28.993-3.444,57.82-11.326,86.316-23.583l4.003,8.792  c5.927-13.219,10.757-27.038,14.367-41.332C501.646,319.726,499.018,321.091,496.39,322.415z M395.025,353.486  c-0.3-7.24-1.117-14.584-2.462-22.031c32.137-4.986,57.127-14.243,74.328-22.456l10.199,22.435  C449.949,343.06,422.56,350.414,395.025,353.486z"/>
<circle style="fill:#5C5E70;" cx="198.428" cy="319.529" r="29.272"/>
<g>
	<circle style="fill:#FF6E7C;" cx="248.49" cy="91.136" r="31.973"/>
	<circle style="fill:#FF6E7C;" cx="193.939" cy="68.556" r="16.407"/>
</g>
<g>
	<path style="fill:#E8DBC4;" d="M207.778,302.371c-1.47,0-2.961-0.303-4.387-0.954c-5.362-2.423-7.741-8.739-5.318-14.101   c16.435-36.315,37.357-67.715,62.532-93.967c2.333,6.563,5.228,13.934,8.773,21.955c-20.597,23.02-37.941,50.001-51.886,80.807   C215.709,300.048,211.839,302.371,207.778,302.371z"/>
	<path style="fill:#E8DBC4;" d="M403.798,404.829c-3.803-1.581-7.415-3.602-10.758-6.125c-7.427-5.631-12.733-13.17-15.863-22.481   c-3.836,0.146-7.662,0.236-11.499,0.236c-14.225,0-28.45-1.054-42.709-3.175c-52.929-7.887-91.038-28.82-104.971-37.459   c-5.003-3.096-6.54-9.67-3.444-14.673c3.107-5.003,9.681-6.54,14.674-3.444c12.811,7.943,47.881,27.194,96.883,34.486   c15.774,2.345,31.546,3.276,47.297,2.804C382.887,363.444,377.177,376.222,403.798,404.829z"/>
</g>
<g>
</g>
<g>
</g>
<g>
</g>
<g>
</g>
<g>
</g>
<g>
</g>
<g>
</g>
<g>
</g>
<g>
</g>
<g>
</g>
<g>
</g>
<g>
</g>
<g>
</g>
<g>
</g>
<g>
</g>
</svg>
