<?xml version="1.0" encoding="iso-8859-1"?>
<!-- Generator: Adobe Illustrator 19.0.0, SVG Export Plug-In . SVG Version: 6.00 Build 0)  -->
<svg xmlns="http://www.w3.org/2000/svg" xmlns:xlink="http://www.w3.org/1999/xlink" version="1.1" id="Capa_1" x="0px" y="0px" viewBox="0 0 512 512" style="enable-background:new 0 0 512 512;" xml:space="preserve">
<path style="fill:#F4A14E;" d="M512,256c0,36.237-7.534,70.729-21.117,101.972c-3.354,7.711-7.064,15.214-11.139,22.497  c-0.69,1.264-1.4,2.508-2.121,3.751C433.33,460.622,350.668,512,256,512S78.67,460.622,34.377,384.219  c-0.721-1.243-1.432-2.487-2.121-3.751c-4.075-7.283-7.784-14.785-11.139-22.497C7.534,326.729,0,292.237,0,256  c0-3.594,0.073-7.178,0.23-10.742c1.223-29.915,7.596-58.514,18.254-84.929c2.456-6.113,5.141-12.11,8.056-17.983  c1.097-2.194,2.215-4.378,3.375-6.541c8.067-15.151,17.607-29.383,28.442-42.517c5.778-7.011,11.922-13.709,18.401-20.062  c9.822-9.644,20.428-18.495,31.702-26.457c9.488-6.708,19.456-12.79,29.842-18.171c16.697-8.662,34.471-15.538,53.07-20.365  c2.424-0.637,4.859-1.233,7.314-1.797c17.272-3.95,35.223-6.154,53.635-6.405C253.544,0.01,254.777,0,256,0  c1.212,0,2.424,0.01,3.636,0.031c18.422,0.251,36.373,2.456,53.655,6.405c2.456,0.554,4.89,1.16,7.314,1.787  c18.589,4.827,36.362,11.703,53.06,20.365c10.397,5.381,20.376,11.463,29.874,18.181c8.892,6.269,17.356,13.103,25.36,20.459  c2.142,1.944,4.253,3.939,6.322,5.977c6.499,6.363,12.654,13.082,18.442,20.114c10.825,13.124,20.365,27.355,28.421,42.486  c1.16,2.163,2.278,4.347,3.375,6.541c10.271,20.71,17.826,43.008,22.183,66.424C510.506,224.078,512,239.867,512,256z"/>
<g>
	<path style="fill:#F9AF6B;" d="M507.643,208.771H324.838c-3.908,0-7.45-1.578-10.01-4.148c-2.56-2.55-4.148-6.092-4.148-10   c0-7.826,6.343-14.158,14.158-14.158h43.018c3.908,0,7.45-1.588,10.01-4.148c2.56-2.56,4.148-6.092,4.148-10.01   c0-7.816-6.343-14.148-14.158-14.148H355.85c-3.908,0-7.44-1.588-10.01-4.148c-2.55-2.56-4.138-6.102-4.138-10.01   c0-7.816,6.332-14.148,14.148-14.148h39.758c3.908,0,7.45-1.588,10-4.148c2.57-2.56,4.148-6.102,4.148-10.01   c0-7.816-6.332-14.148-14.148-14.148h-87.291c-3.908,0-7.45-1.588-10-4.148c-2.57-2.56-4.148-6.102-4.148-10.01   c0-7.816,6.332-14.158,14.148-14.158h120.581c2.142,1.944,4.253,3.939,6.322,5.977c6.499,6.363,12.654,13.082,18.442,20.114   c10.825,13.124,20.365,27.355,28.421,42.486c1.16,2.163,2.278,4.347,3.375,6.541C495.731,163.056,503.286,185.354,507.643,208.771z   "/>
	<path style="fill:#F9AF6B;" d="M239.657,99.155L239.657,99.155c0-7.817-6.337-14.154-14.154-14.154H106.229   c-7.817,0-14.154,6.337-14.154,14.154l0,0c0,7.817,6.337,14.154,14.154,14.154h38.581c7.817,0,14.154,6.337,14.154,14.154l0,0   c0,7.817-6.337,14.154-14.154,14.154h-3.933c-7.817,0-14.154,6.337-14.154,14.154l0,0c0,7.817,6.337,14.154,14.154,14.154h114.315   c7.817,0,14.154-6.337,14.154-14.154l0,0c0-7.817,6.337-14.154,14.154-14.154h3.933c7.817,0,14.154-6.337,14.154-14.154l0,0   c0-7.817-6.337-14.154-14.154-14.154h-33.622C245.994,113.309,239.657,106.971,239.657,99.155z"/>
	<path style="fill:#F9AF6B;" d="M107.405,231.1c0,7.816-6.332,14.158-14.148,14.158H0.23c1.223-29.915,7.596-58.514,18.254-84.929   h52.757c3.908,0,7.44,1.588,10.01,4.148c2.55,2.56,4.138,6.102,4.138,10.01c0,7.816-6.332,14.148-14.148,14.148h-45.62   c-7.816,0-14.148,6.343-14.148,14.158c0,7.816,6.332,14.148,14.148,14.148h67.636c3.908,0,7.45,1.588,10,4.148   C105.827,223.65,107.405,227.192,107.405,231.1z"/>
</g>
<path style="fill:#F9EED7;" d="M479.744,380.468c-0.69,1.264-1.4,2.508-2.121,3.751c-7.137,12.298-15.255,23.949-24.283,34.847  c-18.516,22.392-40.772,41.587-65.818,56.592C349.079,498.74,304.086,512,256,512c-69.851,0-133.172-27.982-179.367-73.352  c-1.588-1.557-3.156-3.135-4.702-4.733c-2.027-2.09-4.023-4.232-5.966-6.395c-3.699-4.086-7.272-8.307-10.7-12.622  c-1.557-1.975-3.082-3.96-4.577-5.977c-5.904-7.889-11.348-16.144-16.311-24.701c-0.721-1.243-1.432-2.487-2.121-3.751  c19.592-33.259,46.383-61.753,78.232-83.362C151.991,268.946,202.073,252.5,256,252.5  C351.316,252.5,434.625,303.888,479.744,380.468z"/>
<g>
	<path style="fill:#FCF8F2;" d="M201.718,386.184c2.56,2.55,4.148,6.092,4.148,10c0,7.826-6.332,14.158-14.158,14.158h-1.39   c-3.908,0-7.44,1.588-10.01,4.148c-2.55,2.56-4.138,6.092-4.138,10.01c0,7.815-6.343,14.148-14.158,14.148H76.633   c-1.588-1.557-3.156-3.135-4.702-4.733c-2.027-2.09-4.023-4.232-5.966-6.395c-3.699-4.086-7.272-8.307-10.7-12.622   c-1.557-1.975-3.082-3.96-4.577-5.977c-5.904-7.889-11.348-16.144-16.311-24.701c-0.721-1.243-1.432-2.487-2.121-3.751   c19.592-33.259,46.383-61.753,78.232-83.362h48.201c3.908,0,7.45,1.588,10,4.148c2.57,2.56,4.148,6.102,4.148,10.01   c0,7.816,6.343,14.158,14.158,14.158h4.712c7.826,0,14.158,6.332,14.158,14.148c0,7.816-6.332,14.158-14.158,14.158h-25.945   c-3.908,0-7.44,1.588-10.01,4.138c-2.55,2.57-4.138,6.102-4.138,10.01c0,7.816,6.332,14.158,14.148,14.158h25.945   C195.626,382.036,199.158,383.613,201.718,386.184z"/>
	<path style="fill:#FCF8F2;" d="M453.339,419.067c-18.516,22.392-40.772,41.587-65.818,56.592h-18.662   c-7.816,0-14.158-6.332-14.158-14.148v-0.01c0-7.816-6.332-14.148-14.148-14.148H318.14c-3.908,0-7.45-1.588-10-4.148   c-2.57-2.56-4.148-6.102-4.148-10.01c0-7.816,6.332-14.148,14.148-14.148h134.468C452.848,419.046,453.099,419.056,453.339,419.067   z"/>
</g>
<path style="fill:#EF4152;" d="M364.147,249.752c-16.565,0-30.041-13.476-30.041-30.041s13.476-30.041,30.041-30.041  c16.565,0,30.041,13.476,30.041,30.041S380.712,249.752,364.147,249.752z M364.147,202.209c-9.651,0-17.502,7.851-17.502,17.502  c0,9.651,7.851,17.502,17.502,17.502c9.651,0,17.502-7.851,17.502-17.502C381.649,210.06,373.798,202.209,364.147,202.209z"/>
<path style="fill:#F9EED7;" d="M482.085,135.805c-4.012,1.505-8.317,2.288-12.716,2.288c-10.209,0-19.895-4.263-26.833-11.786V87.04  c3.396,2.633,7.137,4.754,11.128,6.28c-5.789-7.032-11.943-13.751-18.442-20.114v3.95c-6.907,7.492-16.603,11.766-26.823,11.766  c-10.209,0-19.895-4.274-26.823-11.766V37.878c6.353,4.921,13.928,8.014,21.964,8.892c-9.498-6.719-19.477-12.8-29.874-18.181  c-6.855,7.105-16.3,11.149-26.237,11.149c-10.198,0-19.884-4.263-26.823-11.766V8.223c-2.424-0.627-4.859-1.233-7.314-1.787v21.535  c-6.896,7.481-16.593,11.766-26.823,11.766s-19.926-4.284-26.833-11.766V0.031C258.424,0.01,257.212,0,256,0  c-1.223,0-2.456,0.01-3.678,0.031v27.951c-6.896,7.481-16.593,11.755-26.823,11.755c-10.23,0-19.937-4.284-26.812-11.755V6.437  c-2.456,0.564-4.89,1.16-7.314,1.797v19.728c-6.907,7.492-16.603,11.776-26.833,11.776c-9.958,0-19.404-4.044-26.237-11.139  c-10.386,5.381-20.355,11.463-29.842,18.171c8.014-0.888,15.59-3.981,21.943-8.913v39.288C123.496,84.637,113.8,88.91,103.57,88.91  c-10.219,0-19.916-4.274-26.812-11.755v-3.929c-6.478,6.353-12.622,13.051-18.401,20.062c3.971-1.526,7.711-3.626,11.086-6.248  v39.278c-6.907,7.492-16.603,11.766-26.833,11.766c-4.399,0-8.683-0.784-12.696-2.278c-1.16,2.163-2.278,4.347-3.375,6.541  c5.057,1.996,10.491,3.051,16.071,3.051c5.726,0,11.306-1.108,16.478-3.208c5.172-2.1,9.937-5.193,14.002-9.132  c8.14,7.889,19.038,12.34,30.48,12.34c11.463,0,22.382-4.462,30.49-12.33c8.14,7.879,19.038,12.33,30.48,12.33  c11.442,0,22.34-4.451,30.48-12.34c8.14,7.889,19.038,12.34,30.48,12.34c5.716,0,11.295-1.108,16.468-3.208  c5.172-2.1,9.937-5.183,14.012-9.132c8.14,7.889,19.048,12.34,30.49,12.34s22.34-4.451,30.48-12.34  c8.14,7.889,19.038,12.34,30.48,12.34c11.463,0,22.371-4.462,30.48-12.33c8.14,7.879,19.049,12.34,30.49,12.34  c11.442,0,22.35-4.462,30.49-12.34c8.129,7.889,19.038,12.34,30.48,12.34c5.58,0,11.034-1.066,16.091-3.062  C484.362,140.152,483.244,137.968,482.085,135.805z M130.403,126.318c-6.907,7.492-16.603,11.766-26.833,11.766  c-10.219,0-19.916-4.274-26.812-11.755V87.05c7.607,5.893,17.011,9.174,26.812,9.174c9.822,0,19.237-3.281,26.833-9.174  C130.403,87.05,130.403,126.318,130.403,126.318z M191.373,126.318c-6.907,7.492-16.603,11.766-26.833,11.766  c-10.23,0-19.916-4.274-26.823-11.755V87.05c7.607,5.893,17.011,9.174,26.823,9.174c9.812,0,19.216-3.281,26.833-9.185V126.318z   M191.373,77.145c-6.907,7.492-16.603,11.766-26.833,11.766c-10.23,0-19.916-4.274-26.823-11.755V37.878  c7.617,5.893,17.011,9.174,26.823,9.174c9.812,0,19.216-3.281,26.833-9.185V77.145z M252.322,126.328  c-6.896,7.481-16.593,11.755-26.823,11.755c-10.23,0-19.937-4.284-26.812-11.755V87.05c7.607,5.904,17.011,9.174,26.812,9.174  c4.901,0,9.697-0.815,14.221-2.372c4.535-1.557,8.788-3.856,12.601-6.813V126.328z M252.322,77.155  c-6.896,7.481-16.593,11.755-26.823,11.755c-10.23,0-19.937-4.284-26.812-11.755V37.878c7.607,5.893,17.011,9.174,26.812,9.174  c4.901,0,9.697-0.815,14.221-2.372c4.535-1.557,8.788-3.856,12.601-6.813V77.155z M313.292,126.318  c-6.896,7.492-16.593,11.766-26.823,11.766s-19.926-4.274-26.833-11.766V87.04c7.617,5.904,17.021,9.185,26.833,9.185  c9.812,0,19.216-3.281,26.823-9.185V126.318z M313.292,77.145c-6.896,7.481-16.593,11.766-26.823,11.766  s-19.926-4.274-26.833-11.766V37.867c7.617,5.904,17.021,9.185,26.833,9.185c9.812,0,19.216-3.281,26.823-9.185V77.145z   M374.262,126.307c-6.896,7.502-16.603,11.776-26.833,11.776c-10.198,0-19.884-4.253-26.823-11.755V87.05  c7.617,5.893,17.021,9.174,26.823,9.174c9.822,0,19.237-3.281,26.833-9.185V126.307z M374.262,77.134  c-6.896,7.492-16.603,11.776-26.833,11.776c-10.198,0-19.884-4.253-26.823-11.755V37.878c7.617,5.893,17.021,9.174,26.823,9.174  c9.822,0,19.237-3.291,26.833-9.185V77.134z M435.221,126.339c-6.907,7.481-16.603,11.755-26.823,11.755  c-10.209,0-19.895-4.263-26.823-11.766V87.05c7.617,5.904,17.011,9.185,26.823,9.185c9.801,0,19.205-3.281,26.823-9.174V126.339z"/>
<path style="fill:#E8DBC4;" d="M454.551,313.448C401.512,260.409,331.003,231.205,256,231.205s-145.512,29.205-198.551,82.244  c-13.74,13.74-25.882,28.662-36.331,44.523c3.929,9.038,8.359,17.795,13.26,26.248C45.453,365.066,59.12,347.24,75.18,331.18  c48.295-48.295,112.515-74.898,180.82-74.898s132.524,26.603,180.82,74.898c16.06,16.06,29.727,33.886,40.803,53.039  c4.901-8.453,9.331-17.209,13.26-26.248C480.434,342.11,468.292,327.189,454.551,313.448z"/>
<path style="fill:#EF4152;" d="M474.384,329.947c0,60.886-49.351,110.237-110.237,110.237S253.91,390.834,253.91,329.947  s49.351-110.237,110.237-110.237c1.494,0,2.978,0.031,4.451,0.094c57.344,2.278,103.414,48.347,105.691,105.691  C474.352,326.969,474.384,328.453,474.384,329.947z"/>
<path style="fill:#FF525D;" d="M474.29,325.496c-9.122,38.797-43.948,67.668-85.514,67.668c-48.515,0-87.845-39.33-87.845-87.845  c0-41.566,28.871-76.392,67.668-85.514C425.942,222.083,472.012,268.152,474.29,325.496z"/>
<path style="fill:#5C5E70;" d="M143.987,353.458h-12.539V98.841c0-22.025,17.342-40.558,39.361-41.078  c22.682-0.536,41.305,17.759,41.305,40.322v65.091c0,16.204,12.681,29.919,28.878,30.4c16.83,0.499,30.681-13.047,30.681-29.767  V55.707c0-27.035,21.388-49.678,48.417-50.191c27.658-0.526,50.325,21.822,50.325,49.362v153.339c0,3.463-2.807,6.269-6.269,6.269  l0,0c-3.463,0-6.269-2.807-6.269-6.269V55.569c0-20.113-15.836-37.037-35.943-37.513c-20.714-0.49-37.722,16.217-37.722,36.822  v108.136c0,23.109-18.197,42.555-41.3,43.1c-23.799,0.563-43.337-18.633-43.337-42.306V98.676c0-15.124-11.836-27.925-26.953-28.373  c-15.708-0.466-28.635,12.176-28.635,27.782V353.458z"/>
<g>
	<circle style="fill:#FF6E7C;" cx="415.086" cy="297.294" r="21.159"/>
	<circle style="fill:#FF6E7C;" cx="391.576" cy="256.021" r="12.278"/>
</g>
<path style="fill:#B58657;" d="M222.229,414.135l-8.432-8.432l-69.183-69.172c-3.062-3.062-8.014-3.062-11.076,0l-69.183,69.172  l-8.432,8.432c-0.24,0.24-0.46,0.491-0.658,0.763c3.427,4.315,7.001,8.537,10.7,12.622h150.727c3.166,0,6.019-1.912,7.231-4.838  C225.134,419.746,224.465,416.381,222.229,414.135z M80.384,411.846l6.144-6.144l52.548-52.548l58.692,58.692L80.384,411.846  L80.384,411.846z"/>
<path style="fill:#5C5E70;" d="M232.594,419.809c0,7.795-6.311,14.106-14.106,14.106H71.931c-2.027-2.09-4.023-4.232-5.966-6.395  c-3.699-4.086-7.272-8.307-10.7-12.622c-1.557-1.975-3.082-3.96-4.577-5.977c2.445-2.006,5.569-3.218,8.976-3.218h158.824  c3.897,0,7.419,1.578,9.979,4.127C231.016,412.39,232.594,415.911,232.594,419.809z"/>
<path style="fill:#797B89;" d="M204.702,424.511h-73.992c-2.363,0-4.278-1.915-4.278-4.278v-5.029c0-2.362,1.915-4.278,4.278-4.278  h73.992c2.363,0,4.278,1.915,4.278,4.278v5.029C208.98,422.595,207.064,424.511,204.702,424.511z"/>
<g>
</g>
<g>
</g>
<g>
</g>
<g>
</g>
<g>
</g>
<g>
</g>
<g>
</g>
<g>
</g>
<g>
</g>
<g>
</g>
<g>
</g>
<g>
</g>
<g>
</g>
<g>
</g>
<g>
</g>
</svg>
