<?xml version="1.0" encoding="iso-8859-1"?>
<!-- Generator: Adobe Illustrator 19.0.0, SVG Export Plug-In . SVG Version: 6.00 Build 0)  -->
<svg xmlns="http://www.w3.org/2000/svg" xmlns:xlink="http://www.w3.org/1999/xlink" version="1.1" id="Capa_1" x="0px" y="0px" viewBox="0 0 512 512" style="enable-background:new 0 0 512 512;" xml:space="preserve">
<path style="fill:#4BC999;" d="M512,256c0,70.28-28.327,133.956-74.188,180.214c-4.692,4.733-9.571,9.3-14.629,13.657  c-1.735,1.494-3.49,2.978-5.266,4.409c-1.714,1.411-3.438,2.79-5.183,4.138C369.424,492.011,315.058,512,256,512  c-10.606,0-21.055-0.648-31.326-1.902c-14.336-1.745-28.296-4.681-41.796-8.694c-32.852-9.77-62.945-25.966-88.816-47.125  c-9.446-7.722-18.328-16.102-26.572-25.078c-21.076-22.925-38.013-49.695-49.654-79.141c-3.229-8.161-6.05-16.53-8.422-25.078  C3.271,303.041,0,279.897,0,256c0-3.406,0.063-6.792,0.199-10.167c0.334-8.474,1.076-16.844,2.215-25.078  c2.487-18.087,6.865-35.568,12.936-52.245c4.869-13.406,10.836-26.29,17.784-38.546c11.431-20.177,25.516-38.651,41.796-54.93  C121.26,28.672,185.281,0,256,0c26.687,0,52.433,4.086,76.622,11.661c14.535,4.556,28.505,10.365,41.796,17.314  c56.299,29.424,100.3,79.193,122.232,139.536C506.587,195.814,512,225.27,512,256z"/>
<path style="fill:#FCF8F2;" d="M437.812,132.984v303.229c-7.858,7.931-16.238,15.36-25.078,22.204V132.984H437.812z"/>
<path style="fill:#34ABE0;" d="M496.65,168.511H15.35C51.085,70.207,145.345,0,256,0S460.915,70.207,496.65,168.511z"/>
<path style="fill:#78CAEF;" d="M412.56,106.246L412.56,106.246c0-5.194-4.21-9.404-9.403-9.404h-89.336  c-5.193,0-9.403,4.21-9.403,9.403v0.001c0,5.193,4.21,9.403,9.403,9.403h14.889c5.193,0,9.403,4.21,9.403,9.403v0.001  c0,5.193,4.21,9.403,9.403,9.403h74.446c5.193,0,9.403-4.21,9.403-9.403v-0.001c0-5.193-4.21-9.403-9.403-9.403l0,0  C416.77,115.649,412.56,111.439,412.56,106.246z"/>
<g>
	<path style="fill:#FCF8F2;" d="M423.184,220.756v25.078H0.199c0.334-8.474,1.076-16.844,2.215-25.078H423.184z"/>
	<path style="fill:#FCF8F2;" d="M423.184,429.202v25.078H94.062c-9.446-7.722-18.328-16.102-26.572-25.078H423.184z"/>
	<path style="fill:#FCF8F2;" d="M423.184,324.984v25.078H17.836c-3.229-8.161-6.05-16.53-8.422-25.078H423.184z"/>
</g>
<path style="fill:#FFD15C;" d="M374.418,0v296.343c0,38.703-31.493,70.186-70.196,70.186h-79.548v143.569  c-14.336-1.745-28.296-4.681-41.796-8.694V366.529H103.32c-38.703,0-70.186-31.483-70.186-70.186V0H74.93v296.343  c0,15.653,12.737,28.39,28.39,28.39h200.903c15.663,0,28.4-12.737,28.4-28.39V0H374.418z"/>
<path style="fill:#78CAEF;" d="M201.491,83.259L201.491,83.259c0-5.194-4.21-9.404-9.403-9.404h-89.335  c-5.193,0-9.403,4.21-9.403,9.403v0.001c0,5.193,4.21,9.403,9.403,9.403h14.889c5.193,0,9.403,4.21,9.403,9.403v0.001  c0,5.193,4.21,9.403,9.403,9.403h74.446c5.193,0,9.403-4.21,9.403-9.403v-0.001c0-5.193-4.21-9.403-9.403-9.403l0,0  C205.701,92.662,201.491,88.452,201.491,83.259z"/>
<g>
	<path style="fill:#FFDC8D;" d="M360.14,218.666L360.14,218.666c5.578,0,10.099-4.521,10.099-10.099V31.279   c0-5.578-4.521-10.099-10.099-10.099l0,0c-5.578,0-10.099,4.521-10.099,10.099v177.288   C350.041,214.145,354.562,218.666,360.14,218.666z"/>
	<path style="fill:#FFDC8D;" d="M60.688,218.666L60.688,218.666c5.578,0,10.099-4.521,10.099-10.099V31.279   c0-5.578-4.521-10.099-10.099-10.099l0,0c-5.578,0-10.099,4.521-10.099,10.099v177.288   C50.589,214.145,55.11,218.666,60.688,218.666z"/>
</g>
<path style="fill:#C69A6A;" d="M163.36,148.384l-2.59,5.113c-6.3,12.45-11.083,25.197-14.445,38.068  c-1.038,3.979-1.946,7.968-2.707,11.959c-0.34,1.721-0.644,3.435-0.925,5.158c-12.27,74.785,21.817,150.652,85.885,191.129  c4.886,3.098,9.969,5.991,15.201,8.654c11.853,6.026,24.567,10.911,38.051,14.472l5.546,1.466l2.586-5.12  c6.291-12.447,11.083-25.197,14.448-38.06c1.484-5.68,2.697-11.402,3.625-17.112c12.282-74.781-21.806-150.648-85.87-191.136  c-4.894-3.095-9.966-5.984-15.21-8.651c-11.856-6.034-24.562-10.922-38.055-14.48L163.36,148.384z"/>
<path style="fill:#494B5B;" d="M189.539,220.653l62.095,138.201c1.299,2.89,4.695,4.181,7.586,2.882  c2.891-1.299,4.181-4.695,2.882-7.586l-62.095-138.201c-1.299-2.89-4.695-4.181-7.586-2.882  C189.531,214.366,188.24,217.762,189.539,220.653z"/>
<path style="fill:#B58657;" d="M143.617,203.524c-0.34,1.721-0.644,3.435-0.925,5.158c-12.27,74.785,21.817,150.652,85.885,191.129  c4.886,3.098,9.969,5.991,15.201,8.654c11.853,6.026,24.567,10.911,38.051,14.472l5.546,1.466l2.586-5.12  c6.291-12.447,11.083-25.197,14.448-38.06c1.484-5.68,2.697-11.402,3.625-17.112c0,0-65.637,44.104-121.966-37.863  C159.432,287.485,148.128,241.369,143.617,203.524z"/>
<path style="fill:#E8DBC4;" d="M308.037,364.109l-79.458,35.701c4.886,3.098,9.969,5.991,15.201,8.654l60.632-27.243  C305.896,375.542,307.109,369.82,308.037,364.109z"/>
<path style="fill:#F9EED7;" d="M206.958,164.322l-60.632,27.243c-1.488,5.692-2.697,11.402-3.632,17.116l79.474-35.708  C217.273,169.877,212.201,166.989,206.958,164.322z"/>
<g>
	<path style="fill:#797B89;" d="M224.491,340.85c1.299,2.89,4.695,4.181,7.586,2.882l31.708-14.247   c2.89-1.299,4.181-4.695,2.882-7.586c-1.299-2.89-4.695-4.181-7.586-2.882l-31.708,14.247   C224.483,334.564,223.192,337.96,224.491,340.85z"/>
	<path style="fill:#797B89;" d="M211.139,311.136c1.299,2.89,4.695,4.181,7.586,2.882l31.708-14.247   c2.89-1.299,4.181-4.695,2.882-7.586c-1.299-2.89-4.695-4.181-7.586-2.882l-31.708,14.247   C211.131,304.849,209.841,308.245,211.139,311.136z"/>
	<path style="fill:#797B89;" d="M197.789,281.421c1.299,2.89,4.695,4.181,7.586,2.882l31.708-14.247   c2.89-1.299,4.181-4.695,2.882-7.586c-1.299-2.89-4.695-4.181-7.586-2.882l-31.708,14.247   C197.78,275.135,196.49,278.531,197.789,281.421z"/>
	<path style="fill:#797B89;" d="M184.438,251.708c1.299,2.89,4.695,4.181,7.586,2.882l31.708-14.247   c2.89-1.299,4.181-4.695,2.882-7.586c-1.299-2.89-4.695-4.181-7.586-2.882l-31.708,14.247   C184.43,245.42,183.139,248.816,184.438,251.708z"/>
</g>
<circle style="fill:#D3AA81;" cx="228.247" cy="206.66" r="12.539"/>
<g>
</g>
<g>
</g>
<g>
</g>
<g>
</g>
<g>
</g>
<g>
</g>
<g>
</g>
<g>
</g>
<g>
</g>
<g>
</g>
<g>
</g>
<g>
</g>
<g>
</g>
<g>
</g>
<g>
</g>
</svg>
