<?xml version="1.0" encoding="iso-8859-1"?>
<!-- Generator: Adobe Illustrator 19.0.0, SVG Export Plug-In . SVG Version: 6.00 Build 0)  -->
<svg xmlns="http://www.w3.org/2000/svg" xmlns:xlink="http://www.w3.org/1999/xlink" version="1.1" id="Capa_1" x="0px" y="0px" viewBox="0 0 512 512" style="enable-background:new 0 0 512 512;" xml:space="preserve">
<path style="fill:#4BC999;" d="M512,256c0,57.668-19.069,110.884-51.241,153.683c-4.221,5.611-8.662,11.044-13.322,16.29  c-2.57,2.894-5.214,5.726-7.931,8.505c-1.755,1.829-3.563,3.626-5.392,5.392c-29.09,28.181-64.836,49.528-104.667,61.429  c-23.259,6.969-47.919,10.7-73.445,10.7c-2.487,0-4.974-0.031-7.44-0.115c-8.087-0.219-16.081-0.825-23.959-1.797  c-13.897-1.693-27.449-4.503-40.563-8.349c-5.642-1.641-11.201-3.479-16.666-5.496c-44.784-16.52-83.675-45.212-112.671-82.055  c-20.71-26.331-36.383-56.832-45.526-90.017c-1.975-7.158-3.636-14.44-4.995-21.838c-1.766-9.686-2.988-19.56-3.636-29.591  C0.181,267.212,0.003,261.622,0.003,256c0-141.384,114.614-255.998,255.998-255.998c75.493,0,143.349,32.674,190.202,84.657  c34.628,38.4,57.783,87.353,64.062,141.447C511.415,235.907,512,245.885,512,256z"/>
<g>
	<path style="fill:#5BD3A2;" d="M170.926,361.753c2.55,2.55,4.138,6.092,4.138,10c0,7.805-6.332,14.137-14.148,14.137h-1.39   c-3.897,0-7.44,1.588-10,4.138c-2.55,2.57-4.138,6.102-4.138,10.01c0,7.816-6.332,14.148-14.148,14.148H54.703   c-20.71-26.331-36.383-56.832-45.526-90.017c2.027-2.455,3.229-5.58,3.229-8.996c0-5.695-3.365-10.595-8.223-12.842   c-1.766-9.686-2.988-19.56-3.636-29.591h127.372c3.908,0,7.44,1.578,10,4.148c2.56,2.55,4.138,6.092,4.138,10   c0,7.805,6.332,14.148,14.148,14.148h4.712c7.816,0,14.148,6.332,14.148,14.137c0,7.816-6.332,14.148-14.148,14.148h-25.924   c-3.908,0-7.45,1.588-10,4.138c-2.57,2.56-4.148,6.102-4.148,10c0,7.816,6.332,14.148,14.148,14.148h25.924   C164.824,357.605,168.356,359.183,170.926,361.753z"/>
	<path style="fill:#5BD3A2;" d="M510.265,226.106H381.023c-3.897,0-7.44-1.588-10-4.138c-2.55-2.57-4.138-6.102-4.138-10.01   c0-7.816,6.332-14.148,14.137-14.148h42.997c3.908,0,7.44-1.588,10.01-4.138c2.55-2.56,4.138-6.102,4.138-10   c0-7.816-6.332-14.148-14.148-14.148h-11.995c-3.908,0-7.44-1.578-10.01-4.148c-2.55-2.55-4.138-6.092-4.138-10   c0-7.805,6.332-14.137,14.148-14.137h39.716c3.908,0,7.45-1.588,10-4.138c2.57-2.57,4.148-6.102,4.148-10.01   c0-7.805-6.332-14.137-14.148-14.137h-87.217c-3.908,0-7.44-1.588-10.01-4.148c-2.55-2.56-4.138-6.102-4.138-10   c0-7.816,6.332-14.148,14.148-14.148h81.679C480.831,123.058,503.986,172.012,510.265,226.106z"/>
	<path style="fill:#5BD3A2;" d="M439.505,434.478c-1.755,1.829-3.563,3.626-5.392,5.392c-29.09,28.181-64.836,49.528-104.667,61.429   c-1.672-2.32-2.654-5.162-2.654-8.244c0-7.805,6.332-14.137,14.148-14.137h3.929c3.908,0,7.45-1.578,10-4.148   c2.57-2.55,4.148-6.092,4.148-10c0-7.805-6.332-14.137-14.148-14.137h-38.557c-3.897,0-7.44-1.588-10-4.148   c-2.55-2.56-4.138-6.092-4.138-10c0-7.816,6.332-14.148,14.137-14.148h119.201C432.641,422.336,438.534,427.612,439.505,434.478z"/>
	<path style="fill:#5BD3A2;" d="M399.25,320.172L399.25,320.172c0-7.812,6.332-14.144,14.144-14.144h45.579   c7.812,0,14.144-6.332,14.144-14.144l0,0c0-7.812-6.332-14.144-14.144-14.144H324.604c-7.812,0-14.144,6.332-14.144,14.144l0,0   c0,7.812-6.332,14.144-14.144,14.144h-45.579c-7.812,0-14.144,6.332-14.144,14.144l0,0c0,7.812,6.332,14.144,14.144,14.144h67.583   c7.812,0,14.144,6.332,14.144,14.144l0,0c0,7.812,6.332,14.144,14.144,14.144h134.369c7.812,0,14.144-6.332,14.144-14.144l0,0   c0-7.812-6.332-14.144-14.144-14.144h-67.583C405.582,334.317,399.25,327.984,399.25,320.172z"/>
	<path style="fill:#5BD3A2;" d="M247.03,73.207v-0.001c0-7.812-6.332-14.144-14.144-14.144H98.517   c-7.812,0-14.144,6.332-14.144,14.144v0.001c0,7.812,6.332,14.144,14.144,14.144h22.395c7.812,0,14.144,6.332,14.144,14.144v0.001   c0,7.812,6.332,14.144,14.144,14.144h111.976c7.812,0,14.144-6.332,14.144-14.144v-0.001c0-7.812-6.332-14.144-14.144-14.144l0,0   C253.362,87.35,247.03,81.018,247.03,73.207z"/>
</g>
<path style="fill:#C69A6A;" d="M460.759,230.128v179.554c-4.221,5.611-8.662,11.044-13.322,16.29  c-4.263,4.796-8.704,9.435-13.322,13.897V230.128L460.759,230.128L460.759,230.128z"/>
<path style="fill:#B58657;" d="M447.436,230.128v195.844c-4.263,4.796-8.704,9.435-13.322,13.897V230.128L447.436,230.128  L447.436,230.128z"/>
<path style="fill:#5C5E70;" d="M201.319,272.795h234.753c5.001,0,9.056-4.054,9.056-9.056l0,0c0-5.001-4.054-9.056-9.056-9.056  H201.319V272.795z"/>
<path style="fill:#C69A6A;" d="M213.464,476.796l-13.322-13.322l-32.768,32.768c5.465,2.017,11.024,3.856,16.666,5.496  l16.102-16.102l24.461,24.45c7.878,0.972,15.872,1.578,23.959,1.797L213.464,476.796z"/>
<path style="fill:#797B89;" d="M408.208,264.435H323.92c-2.693,0-4.876-2.183-4.876-4.877l0,0c0-2.693,2.183-4.876,4.876-4.876  h84.288c2.693,0,4.876,2.183,4.876,4.876l0,0C413.084,262.253,410.9,264.435,408.208,264.435z"/>
<path style="fill:#5C5E70;" d="M201.319,334.095h234.753c5.001,0,9.056-4.054,9.056-9.056l0,0c0-5.001-4.054-9.056-9.056-9.056  H201.319V334.095z"/>
<path style="fill:#797B89;" d="M408.208,325.736H323.92c-2.693,0-4.876-2.183-4.876-4.876l0,0c0-2.693,2.183-4.876,4.876-4.876  h84.288c2.693,0,4.876,2.183,4.876,4.876l0,0C413.084,323.552,410.9,325.736,408.208,325.736z"/>
<path style="fill:#5C5E70;" d="M201.319,403.658h234.753c5.001,0,9.056-4.054,9.056-9.056l0,0c0-5.001-4.054-9.056-9.056-9.056  H201.319V403.658z"/>
<path style="fill:#797B89;" d="M408.208,395.299H323.92c-2.693,0-4.876-2.183-4.876-4.876l0,0c0-2.693,2.183-4.877,4.876-4.877  h84.288c2.693,0,4.876,2.183,4.876,4.877l0,0C413.084,393.116,410.9,395.299,408.208,395.299z"/>
<rect x="186.827" y="230.126" style="fill:#C69A6A;" width="26.644" height="252.341"/>
<polygon style="fill:#B58657;" points="200.144,230.13 186.822,230.13 186.822,482.47 200.144,470.454 "/>
<path style="fill:#5C5E70;" d="M153.077,38.334L153.077,38.334c-12.335,0-22.334,9.999-22.334,22.334v38.007h44.667V60.668  C175.41,48.334,165.412,38.334,153.077,38.334z"/>
<path style="fill:#FFD15C;" d="M470.724,179.645l-19.891-19.891c-4.147-4.147-4.61-10.65-1.231-15.442  c16.164-22.926,13.998-54.92-6.498-75.416c-22.92-22.919-60.212-22.92-83.131,0c-20.497,20.497-22.663,52.489-6.498,75.416  c3.379,4.793,2.916,11.296-1.231,15.442l-19.891,19.891c-5.078,5.078-13.447,4.548-17.875-1.107  c-33.931-43.326-30.958-106.345,8.917-146.22c43.087-43.087,113.197-43.087,156.284,0c39.875,39.876,42.848,102.895,8.917,146.22  C484.17,184.192,475.802,184.723,470.724,179.645z"/>
<path style="fill:#EDBB4C;" d="M460.058,151.244c19.392-27.797,16.697-66.432-8.086-91.217  c-13.454-13.454-31.365-20.862-50.433-20.862c-19.069,0-36.979,7.409-50.432,20.862c-24.784,24.784-27.479,63.42-8.086,91.217  l-19.058,19.058c-29.662-38.392-26.893-93.922,8.303-129.118c18.471-18.471,43.073-28.643,69.275-28.643  c26.203,0,50.805,10.172,69.275,28.644c35.195,35.195,37.964,90.725,8.302,129.117L460.058,151.244z"/>
<g>
	<circle style="fill:#5C5E70;" cx="328.911" cy="66.047" r="7.314"/>
	<circle style="fill:#5C5E70;" cx="373.977" cy="31.017" r="7.314"/>
	<circle style="fill:#5C5E70;" cx="473.252" cy="66.047" r="7.314"/>
	<circle style="fill:#5C5E70;" cx="428.186" cy="31.017" r="7.314"/>
	<path style="fill:#5C5E70;" d="M303.31,220.78H6.957c0-81.841,66.341-148.182,148.17-148.182c3.181,0,6.335,0.104,9.465,0.312   C242.026,77.773,303.31,142.119,303.31,220.78z"/>
</g>
<polygon style="fill:#FFD15C;" points="176.323,225.003 176.285,225.121 167.498,256.29 148.7,322.867 119.838,322.867   101.053,256.29 92.266,225.121 92.227,225.003 114.805,218.629 116.643,225.121 125.43,256.29 134.269,287.604 143.107,256.29   151.894,225.121 153.732,218.629 "/>
<g>
	<polygon style="fill:#EDBB4C;" points="116.643,225.121 125.43,256.29 101.053,256.29 92.266,225.121  "/>
	<polygon style="fill:#EDBB4C;" points="176.285,225.121 167.498,256.29 143.107,256.29 151.894,225.121  "/>
</g>
<path style="fill:#494B5B;" d="M151.659,220.78H6.957c0-81.841,66.341-148.182,148.17-148.182c3.181,0,6.335,0.104,9.465,0.312  C164.591,72.91,70.834,139.955,151.659,220.78z"/>
<path style="fill:#797B89;" d="M328.227,208.609H12.491C5.592,208.609,0,214.201,0,221.1v6.186c0,6.898,5.592,12.491,12.491,12.491  h315.737c6.898,0,12.491-5.592,12.491-12.491V221.1C340.717,214.201,335.125,208.609,328.227,208.609z"/>
<path style="fill:#5C5E70;" d="M69.526,224.191c0-8.607,6.977-15.584,15.584-15.584H15.582C6.977,208.609,0,215.586,0,224.191  c0,8.607,6.977,15.584,15.584,15.584h69.527C76.504,239.775,69.526,232.798,69.526,224.191z"/>
<g>
	<circle style="fill:#797B89;" cx="232.917" cy="147.34" r="16.947"/>
	<circle style="fill:#797B89;" cx="211.402" cy="118.877" r="8.473"/>
	<circle style="fill:#797B89;" cx="158.301" cy="56.374" r="8.473"/>
</g>
<g>
</g>
<g>
</g>
<g>
</g>
<g>
</g>
<g>
</g>
<g>
</g>
<g>
</g>
<g>
</g>
<g>
</g>
<g>
</g>
<g>
</g>
<g>
</g>
<g>
</g>
<g>
</g>
<g>
</g>
</svg>
