<?xml version="1.0" encoding="iso-8859-1"?>
<!-- Generator: Adobe Illustrator 19.0.0, SVG Export Plug-In . SVG Version: 6.00 Build 0)  -->
<svg xmlns="http://www.w3.org/2000/svg" xmlns:xlink="http://www.w3.org/1999/xlink" version="1.1" id="Capa_1" x="0px" y="0px" viewBox="0 0 512 512" style="enable-background:new 0 0 512 512;" xml:space="preserve">
<path style="fill:#4BC999;" d="M512,256c0,39.79-9.08,77.469-25.287,111.073c-1.348,2.811-2.748,5.58-4.2,8.328  c-7.847,14.858-17.115,28.85-27.638,41.796C407.949,475.031,336.29,512,256,512s-151.949-36.968-198.875-94.804  c-10.522-12.946-19.79-26.937-27.638-41.796C10.658,339.749,0,299.112,0,256c0-52.005,15.506-100.394,42.141-140.779  c9.989-15.13,21.535-29.132,34.408-41.796c10.533-10.355,21.953-19.801,34.147-28.212c23.542-16.269,49.957-28.693,78.315-36.352  C210.359,3.082,232.824,0,256,0c69.904,0,133.256,28.014,179.451,73.425c12.873,12.664,24.419,26.666,34.408,41.796  c16.165,24.513,28.233,51.973,35.213,81.398C509.607,215.667,512,235.551,512,256z"/>
<g>
	<path style="fill:#5BD3A2;" d="M291.438,396.193L291.438,396.193c0-9.415-7.632-17.046-17.045-17.046H130.748   c-9.415,0-17.045,7.632-17.045,17.045l0,0c0,9.415,7.632,17.045,17.045,17.045h46.463c9.415,0,17.045,7.632,17.045,17.045l0,0   c0,9.415-7.632,17.045-17.045,17.045h-4.738c-9.415,0-17.045,7.632-17.045,17.045l0,0c0,9.415,7.632,17.045,17.045,17.045h137.673   c9.415,0,17.045-7.632,17.045-17.045l0,0c0-9.415,7.632-17.045,17.045-17.045h4.738c9.415,0,17.045-7.632,17.045-17.045l0,0   c0-9.415-7.632-17.045-17.045-17.045h-40.491C299.07,413.238,291.438,405.606,291.438,396.193z"/>
	<path style="fill:#5BD3A2;" d="M512,256c0,39.79-9.08,77.469-25.287,111.073H371.628c-4.702,0-8.965-1.912-12.048-4.995   s-4.995-7.346-4.995-12.048c0-9.415,7.628-17.042,17.042-17.042h51.816c4.712,0,8.976-1.912,12.058-4.995s4.995-7.346,4.995-12.058   c0-9.415-7.638-17.042-17.053-17.042h-14.461c-4.712,0-8.965-1.902-12.048-4.995c-3.093-3.082-4.995-7.335-4.995-12.048   c0-9.415,7.628-17.053,17.042-17.053h47.877c4.712,0,8.965-1.912,12.048-4.995c3.093-3.082,4.995-7.346,4.995-12.048   c0-9.415-7.628-17.042-17.042-17.042H351.744c-4.712,0-8.965-1.912-12.048-4.995c-3.093-3.082-4.995-7.346-4.995-12.058   c0-9.415,7.628-17.042,17.042-17.042h153.328C509.607,215.667,512,235.551,512,256z"/>
</g>
<path style="fill:#FCF8F2;" d="M482.513,375.4c-7.847,14.858-17.115,28.85-27.638,41.796H57.125  c-10.522-12.946-19.79-26.937-27.638-41.796H482.513z"/>
<path style="fill:#41B787;" d="M425.463,36.825l0.891,8.394c2.161,20.437,2.077,40.488-0.027,59.969  c-0.653,6.022-1.489,11.988-2.529,17.881c-0.433,2.546-0.91,5.066-1.425,7.585c-22.23,109.385-108.851,196.007-218.236,218.219  c-8.348,1.709-16.86,3.033-25.457,3.962c-19.472,2.096-39.532,2.17-59.96,0.019l-8.403-0.883l-0.883-8.403  c-2.151-20.428-2.077-40.489,0.019-59.96c0.929-8.596,2.253-17.109,3.962-25.457C135.627,148.766,222.249,62.144,331.633,39.914  c8.357-1.701,16.852-3.025,25.466-3.953c19.481-2.105,39.533-2.188,59.969-0.027L425.463,36.825z"/>
<path style="fill:#FCF8F2;" d="M469.859,115.221H42.141c9.989-15.13,21.535-29.132,34.408-41.796h358.902  C448.324,86.089,459.87,100.091,469.859,115.221z"/>
<path style="fill:#F9EED7;" d="M427.927,73.425c0.073,10.731-0.47,21.326-1.599,31.765c-0.366,3.365-0.794,6.708-1.275,10.031  H190.976c16.196-16.018,34.335-30.083,54.021-41.796H427.927z"/>
<path style="fill:#C69A6A;" d="M481.887,13.838l0.891,8.394c2.161,20.437,2.077,40.488-0.027,59.969  c-0.653,6.022-1.489,11.988-2.529,17.881c-0.433,2.546-0.91,5.066-1.425,7.585c-22.23,109.385-108.851,196.007-218.236,218.219  c-8.348,1.709-16.86,3.033-25.457,3.962c-19.472,2.096-39.532,2.17-59.96,0.019l-8.403-0.883l-0.883-8.403  c-2.151-20.428-2.077-40.489,0.019-59.96c0.929-8.596,2.253-17.109,3.962-25.457C192.051,125.779,278.672,39.157,388.057,16.926  c8.357-1.701,16.852-3.025,25.466-3.953c19.481-2.105,39.533-2.188,59.969-0.027L481.887,13.838z"/>
<path style="fill:#494B5B;" d="M408.036,99.643L250.244,257.435c-3.301,3.301-8.652,3.301-11.952,0c-3.3-3.301-3.301-8.652,0-11.952  L396.084,87.691c3.301-3.301,8.652-3.301,11.952,0S411.336,96.342,408.036,99.643z"/>
<path style="fill:#B58657;" d="M480.223,100.082c-0.433,2.546-0.91,5.066-1.425,7.585  c-22.23,109.384-108.851,196.006-218.236,218.217c-8.348,1.709-16.86,3.033-25.457,3.962c-19.472,2.096-39.532,2.17-59.96,0.019  l-8.403-0.883l-0.883-8.403c-2.151-20.428-2.077-40.489,0.019-59.96c0.929-8.596,2.253-17.109,3.962-25.457  c0,0,67.297,95.061,187.732,11.676C414.526,207.408,454.214,149.829,480.223,100.082z"/>
<path style="fill:#E8DBC4;" d="M169.84,235.163l90.722,90.722c-8.348,1.709-16.86,3.033-25.457,3.962l-69.228-69.228  C166.805,252.023,168.129,243.51,169.84,235.163z"/>
<path style="fill:#F9EED7;" d="M413.524,12.973l69.228,69.228c-0.928,8.614-2.253,17.109-3.953,25.466l-90.74-90.74  C396.414,15.226,404.909,13.901,413.524,12.973z"/>
<g>
	<path style="fill:#797B89;" d="M297.034,246.847c-3.301,3.301-8.652,3.301-11.952,0l-36.204-36.204   c-3.301-3.301-3.301-8.652,0-11.952s8.652-3.301,11.952,0l36.204,36.204C300.335,238.195,300.335,243.546,297.034,246.847z"/>
	<path style="fill:#797B89;" d="M330.961,212.92c-3.301,3.301-8.652,3.301-11.952,0l-36.204-36.204   c-3.301-3.301-3.301-8.652,0-11.952c3.301-3.301,8.652-3.301,11.952,0l36.204,36.204   C334.261,204.269,334.261,209.62,330.961,212.92z"/>
	<path style="fill:#797B89;" d="M364.888,178.993c-3.301,3.301-8.652,3.301-11.952,0l-36.204-36.204   c-3.301-3.301-3.301-8.652,0-11.952c3.301-3.301,8.652-3.301,11.952,0l36.204,36.204   C368.188,170.342,368.188,175.693,364.888,178.993z"/>
	<path style="fill:#797B89;" d="M398.814,145.067c-3.301,3.301-8.652,3.301-11.952,0l-36.204-36.204   c-3.301-3.301-3.301-8.652,0-11.952c3.301-3.301,8.652-3.301,11.952,0l36.204,36.204   C402.114,136.416,402.114,141.767,398.814,145.067z"/>
</g>
<g>
	<rect x="34.482" y="333.082" style="fill:#FCF8F2;" width="60.604" height="19.853"/>
	<rect x="34.482" y="284.62" style="fill:#FCF8F2;" width="60.604" height="19.853"/>
	<rect x="34.482" y="236.168" style="fill:#FCF8F2;" width="60.604" height="19.853"/>
	<rect x="34.482" y="187.716" style="fill:#FCF8F2;" width="60.604" height="19.853"/>
	<rect x="34.482" y="139.254" style="fill:#FCF8F2;" width="60.604" height="19.853"/>
</g>
<g>
	<circle style="fill:#D3AA81;" cx="366.759" cy="61.931" r="18.286"/>
	<circle style="fill:#D3AA81;" cx="328.202" cy="70.186" r="12.854"/>
</g>
<path style="fill:#5BD3A2;" d="M214.528,28.17c0,9.415-7.628,17.042-17.042,17.042h-86.789  c23.542-16.269,49.957-28.693,78.315-36.352c2.497,1.432,5.392,2.257,8.474,2.257c4.702,0,8.965,1.912,12.048,4.995  C212.616,19.195,214.528,23.458,214.528,28.17z"/>
<g>
</g>
<g>
</g>
<g>
</g>
<g>
</g>
<g>
</g>
<g>
</g>
<g>
</g>
<g>
</g>
<g>
</g>
<g>
</g>
<g>
</g>
<g>
</g>
<g>
</g>
<g>
</g>
<g>
</g>
</svg>
