<?xml version="1.0" encoding="iso-8859-1"?>
<!-- Generator: Adobe Illustrator 19.0.0, SVG Export Plug-In . SVG Version: 6.00 Build 0)  -->
<svg xmlns="http://www.w3.org/2000/svg" xmlns:xlink="http://www.w3.org/1999/xlink" version="1.1" id="Capa_1" x="0px" y="0px" viewBox="0 0 512 512" style="enable-background:new 0 0 512 512;" xml:space="preserve">
<path style="fill:#FFD15C;" d="M511.859,256.141c0,19.8-2.245,39.079-6.506,57.594c-4.491,19.518-11.216,38.18-19.884,55.715  c-20.991,42.431-53.407,78.199-93.227,103.294c-0.01,0-0.01,0.01-0.021,0.01c-8.919,5.639-18.223,10.715-27.852,15.237  c-2.527,1.18-5.086,2.328-7.655,3.415c-2.433,1.055-4.877,2.057-7.352,3.029c-9.796,3.843-19.884,7.091-30.223,9.712  c-12.521,3.175-25.408,5.431-38.598,6.694C272.469,511.603,264.281,512,256,512c-10.349,0-20.563-0.616-30.588-1.817  C98.527,495.072,0.141,387.099,0.141,256.141C0.141,114.834,114.693,0.282,256,0.282c103.931,0,193.398,61.97,233.448,150.978  c7.321,16.281,12.991,33.471,16.793,51.349C509.927,219.872,511.859,237.782,511.859,256.141z"/>
<g>
	<path style="fill:#FFDC8D;" d="M299.488,308.454L299.488,308.454c0-7.091-5.748-12.839-12.839-12.839h-4.28   c-7.091,0-12.839-5.748-12.839-12.839l0,0c0-7.091-5.748-12.839-12.839-12.839H59.835c-7.091,0-12.839,5.748-12.839,12.839l0,0   c0,7.091,5.748,12.839,12.839,12.839h79.171c7.091,0,12.839,5.748,12.839,12.839l0,0c0,7.091-5.748,12.839-12.839,12.839h-36.058   c-7.091,0-12.839,5.748-12.839,12.839l0,0c0,7.091,5.748,12.839,12.839,12.839h10.893c7.091,0,12.839,5.748,12.839,12.839l0,0   c0,7.091-5.748,12.839-12.839,12.839H74.814c-7.091,0-12.839,5.748-12.839,12.839l0,0c0,7.091,5.748,12.839,12.839,12.839H259.71   c7.091,0,12.839-5.748,12.839-12.839l0,0c0-7.091,5.748-12.839,12.839-12.839h1.262c7.091,0,12.839-5.748,12.839-12.839l0,0   c0-7.091-5.748-12.839-12.839-12.839h-23.537c-7.091,0-12.839-5.748-12.839-12.839l0,0c0-7.091,5.748-12.839,12.839-12.839h23.537   C293.74,321.292,299.488,315.544,299.488,308.454z"/>
	<path style="fill:#FFDC8D;" d="M356.714,491.406c-2.433,1.055-4.877,2.057-7.352,3.029c-9.796,3.843-19.884,7.091-30.223,9.712   c-12.521,3.175-25.408,5.431-38.598,6.694C272.469,511.603,264.281,512,256,512c-10.349,0-20.563-0.616-30.588-1.817   c0.491-0.366,0.961-0.773,1.389-1.201c2.318-2.318,3.76-5.535,3.76-9.075c0-7.091-5.744-12.845-12.835-12.845H182.73   c-3.551,0-6.757-1.431-9.075-3.76c-2.329-2.318-3.76-5.524-3.76-9.075c0-7.091,5.744-12.845,12.835-12.845h108.192   c7.091,0,12.835,5.754,12.835,12.845c0,7.091,5.754,12.835,12.845,12.835h30.494c3.54,0,6.757,1.441,9.075,3.76   C356.359,491.009,356.537,491.197,356.714,491.406z"/>
	<path style="fill:#FFDC8D;" d="M328.083,91.218L328.083,91.218c0-7.091,5.748-12.839,12.839-12.839h41.372   c7.091,0,12.839-5.748,12.839-12.839l0,0c0-7.091-5.748-12.839-12.839-12.839H260.328c-7.091,0-12.839,5.748-12.839,12.839l0,0   c0,7.091-5.748,12.839-12.839,12.839h-41.372c-7.091,0-12.839,5.748-12.839,12.839l0,0c0,7.091,5.748,12.839,12.839,12.839h61.344   c7.091,0,12.839,5.748,12.839,12.839l0,0c0,7.091,5.748,12.839,12.839,12.839h121.965c7.091,0,12.839-5.748,12.839-12.839l0,0   c0-7.091-5.748-12.839-12.839-12.839h-61.344C333.831,104.057,328.083,98.309,328.083,91.218z"/>
	<path style="fill:#FFDC8D;" d="M506.241,202.609h-63.192c-3.54,0-6.757-1.431-9.086-3.76c-2.318-2.318-3.76-5.524-3.76-9.075   c0-7.091-5.744-12.835-12.835-12.835h-20.323c-3.551,0-6.757-1.441-9.086-3.76c-2.318-2.329-3.76-5.545-3.76-9.086   c0-7.091,5.754-12.835,12.845-12.835h92.402C496.769,167.541,502.439,184.73,506.241,202.609z"/>
</g>
<path style="fill:#5C5E70;" d="M290.316,54.493l-129.559-6.778L43.825,41.606C71.186,16.271,113.544,0,161.082,0  C216.253,0,264.449,21.91,290.316,54.493z"/>
<path style="fill:#494B5B;" d="M160.758,47.715L43.825,41.606C71.186,16.271,113.544,0,161.082,0  C161.082,0,148.195,27.466,160.758,47.715z"/>
<path style="fill:#FF525D;" d="M317.208,66.21v69.291c0,9.033-7.331,16.365-16.375,16.365h-41.71  c-10.495,0-19.017,8.522-19.017,19.017v62.9c0,35.444-28.552,64.215-63.913,64.56c-0.219,0.01-0.439,0.01-0.658,0.01h-35.653  c-1.66,0-3.29-0.136-4.867-0.418c-6.036-1.013-11.435-3.906-15.581-8.052c-5.232-5.222-8.469-12.448-8.469-20.437  c0-56.017-40.843-102.49-94.375-111.273c-0.052-0.01-0.115-0.01-0.178-0.021C6.637,156.596,0.078,147.291,2,137.579l17.795-89.707  c1.441-7.237,7.979-12.333,15.362-11.947l21.429,1.117l78.429,4.104l13.576,0.71l153.098,8.01  C310.388,50.315,317.208,57.5,317.208,66.21z"/>
<polygon style="fill:#EF4152;" points="148.591,41.856 148.591,298.353 135.015,298.353 135.015,41.146 "/>
<g>
	<path style="fill:#5C5E70;" d="M162.884,149.941c-2.89-16.22-11.232-27.948-21.079-27.948c-9.847,0-18.189,11.728-21.079,27.948   H162.884z"/>
	<path style="fill:#5C5E70;" d="M121.102,176.925c3.187,15.214,11.253,26.021,20.705,26.021c9.452,0,17.517-10.808,20.705-26.021   L121.102,176.925L121.102,176.925z"/>
</g>
<path style="fill:#F9EED7;" d="M317.207,132.024c-0.973,0.164-1.966,0.251-2.988,0.251h-8.153c-9.994,0-18.09-8.105-18.09-18.09  V87.394c0-9.985,8.096-18.09,18.09-18.09h8.153c1.021,0,2.014,0.087,2.988,0.251"/>
<path style="fill:#EF4152;" d="M176.193,298.342c-0.219,0.01-0.439,0.01-0.658,0.01h-35.653c-7.989,0-15.216-3.237-20.448-8.469  c-5.232-5.222-8.469-12.448-8.469-20.437c0-56.017-40.843-102.49-94.375-111.273c-0.052-0.01-0.115-0.01-0.178-0.021  C6.637,156.596,0.078,147.291,2,137.579l17.795-89.707c1.441-7.237,7.979-12.333,15.362-11.947l21.43,1.117l0.01,0.01  c0,0,6.37,140.691,78.418,179.853C169.906,235.871,177.571,269.101,176.193,298.342z"/>
<path style="fill:#FF6E7C;" d="M252.135,82.407l-45.279-3.65c-7.33-0.591-12.793-7.012-12.202-14.342l0,0  c0.591-7.33,7.012-12.793,14.341-12.202l45.279,3.65c7.33,0.591,12.792,7.012,12.202,14.342l0,0  C265.886,77.536,259.465,82.999,252.135,82.407z"/>
<path style="fill:#5C5E70;" d="M192.627,252.755l143.281-7.496l129.318-6.756c-30.259-28.019-77.103-46.013-129.677-46.013  C274.535,192.491,221.234,216.721,192.627,252.755z"/>
<path style="fill:#494B5B;" d="M335.908,245.259l129.318-6.756c-30.259-28.019-77.103-46.013-129.677-46.013  C335.55,192.491,349.802,222.866,335.908,245.259z"/>
<path style="fill:#34ABE0;" d="M505.353,313.735c-4.491,19.518-11.216,38.18-19.884,55.715  c-48.686,12.114-86.073,52.843-93.248,103.304c-8.919,5.639-18.223,10.715-27.852,15.237c-4.919,2.298-9.921,4.449-15.007,6.444  c-9.796,3.843-19.884,7.091-30.223,9.712c-12.521,3.175-25.408,5.431-38.598,6.694c-19.497-12.741-32.384-34.766-32.384-59.808  V381.47c0-11.602-9.43-21.033-21.033-21.033h-46.128c-10.005,0-18.109-8.104-18.109-18.098v-76.622  c0-9.639,7.54-17.586,17.158-18.077l169.316-8.856l15.007-0.794l86.741-4.532l23.696-1.243c8.167-0.428,15.393,5.211,16.991,13.221  L505.353,313.735z"/>
<path style="fill:#279FC9;" d="M364.369,237.991v250c-4.919,2.298-9.921,4.449-15.007,6.444v-255.65L364.369,237.991z"/>
<g>
	<path style="fill:#5C5E70;" d="M333.557,358.312c3.196-17.939,12.421-30.909,23.311-30.909c10.889,0,20.116,12.969,23.311,30.909   L333.557,358.312L333.557,358.312z"/>
	<path style="fill:#5C5E70;" d="M379.766,388.155c-3.525,16.825-12.444,28.777-22.898,28.777c-10.454,0-19.372-11.952-22.898-28.777   H379.766z"/>
</g>
<path style="fill:#F9EED7;" d="M162.888,338.498c1.077,0.181,2.174,0.277,3.304,0.277h9.017c11.052,0,20.005-8.963,20.005-20.005  v-29.63c0-11.042-8.953-20.005-20.005-20.005h-9.017c-1.13,0-2.228,0.096-3.304,0.277V338.498z"/>
<path style="fill:#279FC9;" d="M505.353,313.735c-4.491,19.518-11.216,38.18-19.884,55.715  c-48.686,12.114-86.052,52.843-93.227,103.294c-8.929,5.639-18.234,10.725-27.873,15.247c-4.919,2.298-9.921,4.449-15.007,6.443  c-9.796,3.843-19.884,7.091-30.223,9.712c1.922-22.275,9.994-44.843,30.223-61.657c4.407-3.666,9.388-7.06,15.007-10.109  c0-0.01,0.01-0.01,0.01-0.01c79.682-43.308,86.721-198.902,86.721-198.902l0.01-0.01l23.706-1.243  c8.156-0.418,15.393,5.211,16.981,13.221L505.353,313.735z"/>
<path style="fill:#78CAEF;" d="M273.161,283.74l52.887-4.263c7.329-0.591,12.792-7.012,12.202-14.342l-0.227-2.811  c-0.591-7.33-7.012-12.792-14.342-12.202l-52.887,4.263c-7.329,0.591-12.792,7.012-12.202,14.341l0.227,2.811  C259.411,278.869,265.831,284.331,273.161,283.74z"/>
<g>
</g>
<g>
</g>
<g>
</g>
<g>
</g>
<g>
</g>
<g>
</g>
<g>
</g>
<g>
</g>
<g>
</g>
<g>
</g>
<g>
</g>
<g>
</g>
<g>
</g>
<g>
</g>
<g>
</g>
</svg>
