<?xml version="1.0" encoding="iso-8859-1"?>
<!-- Generator: Adobe Illustrator 19.0.0, SVG Export Plug-In . SVG Version: 6.00 Build 0)  -->
<svg xmlns="http://www.w3.org/2000/svg" xmlns:xlink="http://www.w3.org/1999/xlink" version="1.1" id="Capa_1" x="0px" y="0px" viewBox="0 0 512 512" style="enable-background:new 0 0 512 512;" xml:space="preserve">
<path style="fill:#5C5E70;" d="M512,256c0,63.164-22.873,120.999-60.803,165.637c-12.518,14.743-26.676,28.035-42.183,39.622  C366.331,493.129,313.375,512,256,512c-58.922,0-113.183-19.905-156.442-53.352c-18.254-14.106-34.544-30.626-48.4-49.079  c-1.4-1.86-2.769-3.741-4.106-5.632c-7.304-10.282-13.855-21.128-19.592-32.455C9.895,336.781,0,297.545,0,256  c0-30.574,5.36-59.894,15.193-87.082c11.463-31.702,29.017-60.5,51.252-84.971C113.267,32.381,180.851,0,256,0  c43.374,0,84.219,10.783,120.017,29.821c30.584,16.259,57.469,38.536,79.088,65.264c5.674,7.001,10.982,14.315,15.893,21.901  c6.207,9.571,11.786,19.592,16.697,29.989c4.378,9.3,8.223,18.902,11.473,28.766C507.496,200.986,512,227.976,512,256z"/>
<g>
	<path style="fill:#797B89;" d="M499.169,175.741c-20.731-0.376-33.959-0.637-35.401-0.637h-209.23   c-4.012,0-7.649-1.63-10.271-4.253c-2.623-2.633-4.253-6.269-4.253-10.282c0-8.025,6.499-14.524,14.524-14.524h44.168   c4.012,0,7.638-1.63,10.271-4.263c2.633-2.623,4.253-6.259,4.253-10.271c0-8.014-6.499-14.524-14.524-14.524h-12.33   c-4.012,0-7.649-1.62-10.271-4.253c-2.633-2.633-4.263-6.259-4.263-10.271c0-8.025,6.51-14.535,14.535-14.535h40.803   c4.012,0,7.649-1.63,10.271-4.253c2.623-2.623,4.253-6.259,4.253-10.271c0-8.025-6.499-14.535-14.524-14.535h-89.59   c-4.012,0-7.649-1.62-10.282-4.253c-2.623-2.633-4.253-6.259-4.253-10.271c0-8.025,6.51-14.524,14.535-14.524h138.428   c30.584,16.259,57.469,38.536,79.088,65.264c3.479,4.295,6.823,8.714,10.021,13.228h-1.055c-8.025,0-14.535,6.499-14.535,14.524   c0,4.012,1.63,7.638,4.263,10.271c2.623,2.633,6.259,4.253,10.271,4.253H482.9c1.672,3.166,3.26,6.374,4.796,9.613   C492.074,156.275,495.919,165.878,499.169,175.741z"/>
	<path style="fill:#797B89;" d="M198.625,415.065c0,8.025-6.499,14.535-14.524,14.535h-4.033c-4.012,0-7.649,1.62-10.271,4.253   c-2.633,2.633-4.263,6.259-4.263,10.271c0,8.025-6.499,14.524-14.524,14.524H99.558c-18.254-14.106-34.544-30.626-48.4-49.079   c-0.899-2.194-2.32-4.127-4.106-5.632c-7.304-10.282-13.855-21.128-19.592-32.455h93.069c8.025,0,14.535,6.499,14.535,14.524   s6.499,14.535,14.524,14.535h34.513c4.012,0,7.638,1.63,10.271,4.253C197.005,407.416,198.625,411.052,198.625,415.065z"/>
	<path style="fill:#797B89;" d="M451.197,421.637c-12.518,14.743-26.676,28.035-42.183,39.623   c-1.714-6.102-7.314-10.574-13.97-10.574h-39.602c-4.012,0-7.649-1.62-10.271-4.253c-2.633-2.633-4.263-6.259-4.263-10.271   c0-8.025,6.51-14.524,14.535-14.524L451.197,421.637L451.197,421.637z"/>
	<path style="fill:#797B89;" d="M175.428,156.588c0,8.025-6.51,14.535-14.535,14.535H22.873c-2.821,0-5.454-0.805-7.68-2.205   c11.463-31.702,29.017-60.5,51.252-84.971h71.847c4.012,0,7.649,1.63,10.271,4.253c2.633,2.633,4.263,6.269,4.263,10.282   c0,8.025-6.51,14.524-14.535,14.524H91.481c-8.025,0-14.535,6.51-14.535,14.524c0,8.025,6.51,14.535,14.535,14.535h69.413   c4.012,0,7.649,1.62,10.282,4.253C173.798,148.95,175.428,152.576,175.428,156.588z"/>
	<path style="fill:#797B89;" d="M372.022,298.711v-0.001c0-8.024-6.504-14.528-14.528-14.528H219.473   c-8.024,0-14.528,6.504-14.528,14.528v0.001c0,8.024,6.505,14.528,14.528,14.528h23.003c8.024,0,14.528,6.504,14.528,14.528v0.001   c0,8.024,6.504,14.528,14.528,14.528h115.018c8.024,0,14.528-6.505,14.528-14.528v-0.001c0-8.024-6.504-14.528-14.528-14.528l0,0   C378.527,313.238,372.022,306.734,372.022,298.711z"/>
</g>
<g>
	<path style="fill:#FFD15C;" d="M130.321,411.167c-58.835,0-106.7-47.866-106.7-106.7s47.865-106.7,106.7-106.7   s106.7,47.866,106.7,106.7S189.155,411.167,130.321,411.167z M130.321,228.07c-42.125,0-76.398,34.272-76.398,76.398   s34.273,76.398,76.398,76.398s76.398-34.272,76.398-76.398S172.446,228.07,130.321,228.07z"/>
	<path style="fill:#FFD15C;" d="M381.673,411.167c-58.835,0-106.7-47.866-106.7-106.7s47.865-106.7,106.7-106.7   s106.7,47.866,106.7,106.7S440.507,411.167,381.673,411.167z M381.673,228.07c-42.125,0-76.398,34.272-76.398,76.398   s34.273,76.398,76.398,76.398s76.398-34.272,76.398-76.398S423.798,228.07,381.673,228.07z"/>
</g>
<g>
	<path style="fill:#FFDC8D;" d="M390.748,214.918L390.748,214.918c0,3.269,2.325,6.089,5.541,6.677   c34.546,6.325,61.862,33.556,68.315,68.057c0.599,3.204,3.413,5.514,6.672,5.514h0.005c4.275,0,7.474-3.894,6.685-8.095   c-7.504-39.949-39.146-71.488-79.147-78.843C394.625,207.457,390.748,210.652,390.748,214.918z"/>
	<path style="fill:#FFDC8D;" d="M138.928,214.918L138.928,214.918c0,3.269,2.325,6.089,5.541,6.677   c34.546,6.325,61.862,33.556,68.315,68.057c0.599,3.204,3.413,5.514,6.672,5.514h0.005c4.275,0,7.474-3.894,6.685-8.095   c-7.504-39.949-39.146-71.488-79.147-78.843C142.804,207.457,138.928,210.652,138.928,214.918z"/>
</g>
<path style="fill:#F9EED7;" d="M150.696,0.001h-40.751v237.995c0,11.254,9.122,20.376,20.376,20.376l0,0  c11.254,0,20.376-9.122,20.376-20.376V0.001z"/>
<path style="fill:#E8DBC4;" d="M126.623,237.996V0.001h-16.678v237.995c0,11.254,9.122,20.376,20.376,20.376  c2.974,0,5.791-0.652,8.338-1.797C131.568,253.386,126.623,246.275,126.623,237.996z"/>
<path style="fill:#F9EED7;" d="M402.049,0.001h-40.751v237.995c0,11.254,9.122,20.376,20.376,20.376l0,0  c11.254,0,20.376-9.122,20.376-20.376V0.001z"/>
<path style="fill:#E8DBC4;" d="M377.975,237.996V0.001h-16.678v237.995c0,11.254,9.122,20.376,20.376,20.376  c2.974,0,5.791-0.652,8.338-1.797C382.921,253.386,377.975,246.275,377.975,237.996z"/>
<g>
</g>
<g>
</g>
<g>
</g>
<g>
</g>
<g>
</g>
<g>
</g>
<g>
</g>
<g>
</g>
<g>
</g>
<g>
</g>
<g>
</g>
<g>
</g>
<g>
</g>
<g>
</g>
<g>
</g>
</svg>
