<?xml version="1.0" encoding="iso-8859-1"?>
<!-- Generator: Adobe Illustrator 19.0.0, SVG Export Plug-In . SVG Version: 6.00 Build 0)  -->
<svg xmlns="http://www.w3.org/2000/svg" xmlns:xlink="http://www.w3.org/1999/xlink" version="1.1" id="Capa_1" x="0px" y="0px" viewBox="0 0 512 512" style="enable-background:new 0 0 512 512;" xml:space="preserve">
<path style="fill:#C69A6A;" d="M512,256c0,62.067-22.089,118.983-58.849,163.297c-5.58,6.729-11.483,13.166-17.711,19.278  c-7.022,6.907-14.43,13.406-22.215,19.456c-30.887,24.074-67.438,41.221-107.321,49.11c-15.37,3.03-31.232,4.692-47.459,4.848  C257.63,512,256.815,512,256,512C118.659,512,6.583,403.853,0.282,268.069C0.094,264.067,0,260.044,0,256s0.094-8.067,0.282-12.069  C6.583,108.147,118.659,0,256,0c33.207,0,64.93,6.322,94.041,17.816c55.306,21.859,101.188,62.433,129.818,113.904  C500.339,168.521,512,210.902,512,256z"/>
<g>
	<path style="fill:#D3AA81;" d="M197.371,280.137c0,6.666-5.402,12.079-12.069,12.079H70.635c-3.333,0-6.353-1.348-8.537-3.542   c-2.184-2.184-3.532-5.204-3.532-8.537c0-6.666-5.413-12.069-12.079-12.069H0.282C0.094,264.067,0,260.044,0,256   s0.094-8.067,0.282-12.069h27.439c3.333,0,6.343-1.348,8.526-3.532c2.184-2.184,3.542-5.204,3.542-8.537   c0-6.666,5.402-12.069,12.069-12.069h114.667c3.333,0,6.353,1.348,8.537,3.532c2.184,2.184,3.532,5.204,3.532,8.537   c0,6.666-5.402,12.069-12.069,12.069h-38.902c-6.666,0-12.069,5.402-12.069,12.069c0,6.666,5.402,12.069,12.069,12.069h57.678   c3.333,0,6.353,1.348,8.537,3.532C196.023,273.784,197.371,276.804,197.371,280.137z"/>
	<path style="fill:#D3AA81;" d="M291.313,452.04v-0.001c0-6.665-5.404-12.07-12.07-12.07H164.577c-6.665,0-12.07,5.404-12.07,12.07   v0.001c0,6.665,5.404,12.07,12.07,12.07h19.111c6.665,0,12.07,5.404,12.07,12.07v0.001c0,6.665,5.404,12.07,12.07,12.07h95.556   c6.665,0,12.07-5.404,12.07-12.07v-0.001c0-6.665-5.404-12.07-12.07-12.07l0,0C296.718,464.109,291.313,458.706,291.313,452.04z"/>
	<path style="fill:#D3AA81;" d="M432.274,101.127L432.274,101.127c0-6.666-5.404-12.07-12.07-12.07h-4.024   c-6.666,0-12.07-5.404-12.07-12.07l0,0c0-6.666-5.404-12.07-12.07-12.07H206.965c-6.666,0-12.07,5.404-12.07,12.07l0,0   c0,6.666,5.404,12.07,12.07,12.07h74.432c6.666,0,12.07,5.404,12.07,12.07l0,0c0,6.666-5.404,12.07-12.07,12.07h-33.9   c-6.666,0-12.07,5.404-12.07,12.07l0,0c0,6.666,5.404,12.07,12.07,12.07h10.241c6.666,0,12.07,5.404,12.07,12.07l0,0   c0,6.666-5.404,12.07-12.07,12.07h-36.692c-6.666,0-12.07,5.404-12.07,12.07l0,0c0,6.666,5.404,12.07,12.07,12.07h173.83   c6.666,0,12.07-5.404,12.07-12.07l0,0c0-6.666,5.404-12.07,12.07-12.07h1.186c6.666,0,12.07-5.404,12.07-12.07l0,0   c0-6.666-5.404-12.07-12.07-12.07h-22.128c-6.666,0-12.07-5.404-12.07-12.07l0,0c0-6.666,5.404-12.07,12.07-12.07h22.129   C426.87,113.197,432.274,107.794,432.274,101.127z"/>
</g>
<path style="fill:#494B5B;" d="M142.152,103.471c-17.563,0-31.85-14.288-31.85-31.85c0-3.954,3.206-7.16,7.16-7.16  c3.954,0,7.16,3.206,7.16,7.16c0,9.667,7.865,17.531,17.531,17.531s17.531-7.864,17.531-17.531s-7.865-17.531-17.531-17.531  c-3.954,0-7.16-3.206-7.16-7.16V14.01c0-3.954,3.206-7.16,7.16-7.16c3.954,0,7.16,3.206,7.16,7.16v26.573  c14.126,3.258,24.691,15.938,24.691,31.039C174.002,89.183,159.715,103.471,142.152,103.471z"/>
<g>
	<path style="fill:#FFD15C;" d="M142.152,124.772c-3.954,0-7.16-3.206-7.16-7.16V79.851c0-3.954,3.206-7.16,7.16-7.16   c3.954,0,7.16,3.206,7.16,7.16v37.762C149.312,121.567,146.106,124.772,142.152,124.772z"/>
	<path style="fill:#FFD15C;" d="M215.775,385.848h-0.012c-14.187,14.187-31.445,23.428-49.641,27.7   c-6.245,1.475-12.611,2.368-18.989,2.666c-1.652,0.077-3.315,0.121-4.979,0.121c-1.663,0-3.315-0.044-4.978-0.121   c-6.377-0.298-12.732-1.189-18.989-2.666c-18.196-4.274-35.454-13.503-49.651-27.7c-40.654-40.654-40.654-106.573,0-147.238   l6.884-6.873c25.674-25.686,40.102-60.512,40.102-96.837v-17.105h53.253V134.9c0,36.325,14.428,71.151,40.114,96.837l6.884,6.873   C256.427,279.274,256.427,345.195,215.775,385.848z"/>
</g>
<g>
	<path style="fill:#EDBB4C;" d="M189.795,305.873c-0.408-18.536-2.706-36.906-6.907-53.102c-0.637-2.445-1.317-4.848-2.038-7.189   c-3.009-9.718-5.893-20.365-9.091-33.531l-15.276-62.861h-28.672l-15.276,62.872c-3.176,13.134-6.071,23.792-9.07,33.52   c-13.197,42.747-11.766,104.166,3.323,142.869c3.95,10.146,7.722,18.463,11.4,25.098c6.259,1.473,12.612,2.372,18.986,2.664   c-3.709-4.326-9.456-13.5-17.042-32.967c-14.064-36.049-15.339-93.414-2.988-133.433c3.093-10.021,6.06-20.95,9.31-34.377   l12.622-51.931h6.154l12.622,51.931c3.271,13.448,6.217,24.377,9.3,34.377c1.411,4.566,2.644,9.362,3.699,14.326   c2.278,10.668,3.73,22.11,4.378,33.771c0.272,4.754,0.408,9.54,0.408,14.326c0,25.83-3.866,51.524-11.463,71.011   c-7.586,19.466-13.333,28.641-17.042,32.967c6.374-0.293,12.748-1.191,18.986-2.664c3.678-6.635,7.45-14.952,11.4-25.098h-0.01   C186.305,365.902,190.464,335.653,189.795,305.873z"/>
	<path style="fill:#EDBB4C;" d="M240.996,344.974c-4.934,14.946-13.338,28.99-25.223,40.873h-0.012   c-14.187,14.187-31.445,23.428-49.641,27.7c-6.245,1.475-12.611,2.368-18.989,2.666c-1.652,0.077-3.315,0.121-4.979,0.121   s-3.315-0.044-4.979-0.121c-6.377-0.298-12.732-1.189-18.989-2.666c-18.196-4.274-35.454-13.503-49.651-27.7   c-40.654-40.654-40.654-106.573,0-147.238l6.884-6.873c25.674-25.686,40.102-60.512,40.102-96.837v-17.105h53.253v17.105   c0,14.648,2.346,29.044,6.828,42.702c-1.234-0.066-2.467-0.099-3.711-0.099c-49.035,0-88.796,46.061-88.796,102.872   s39.761,102.872,88.796,102.872C199.815,383.249,224.728,368.324,240.996,344.974z"/>
</g>
<path style="fill:#5C5E70;" d="M182.226,163.503h-82.084c-3.954,0-7.16-3.206-7.16-7.16s3.206-7.16,7.16-7.16h82.084  c3.954,0,7.16,3.206,7.16,7.16S186.18,163.503,182.226,163.503z"/>
<path style="fill:#494B5B;" d="M161.974,15.359H122.33c-3.954,0-7.16-3.206-7.16-7.16s3.206-7.16,7.16-7.16h39.643  c3.954,0,7.16,3.206,7.16,7.16S165.928,15.359,161.974,15.359z"/>
<circle style="fill:#FFDC8D;" cx="195.469" cy="278.12" r="28.306"/>
<path style="fill:#FFD15C;" d="M189.795,305.873c-5.653-1.149-10.689-3.981-14.566-7.962c-0.648-11.661-2.1-23.103-4.378-33.771  c2.779-4.89,6.98-8.871,12.037-11.368C187.089,268.967,189.388,287.336,189.795,305.873z"/>
<path style="fill:#FF525D;" d="M469.535,295.121l-9.759,73.968l-6.625,50.207c-46.467,56.048-116.381,91.961-194.706,92.693  l-18.85-142.9l-0.669-5.099l-9.08-68.869H469.535z"/>
<g>
	<path style="fill:#EF4152;" d="M349.689,295.126v33.816c0,22.174-17.97,40.144-40.144,40.144h-69.947l-9.752-73.96H349.689z"/>
	<path style="fill:#EF4152;" d="M469.531,295.126l-9.752,73.96h-69.947c-22.174,0-40.144-17.97-40.144-40.144v-33.816   L469.531,295.126L469.531,295.126z"/>
</g>
<path style="fill:#34ABE0;" d="M479.859,131.72v168.772H350.041V17.816c15.182,6.008,29.665,13.416,43.269,22.089  C429.244,62.777,459.086,94.386,479.859,131.72z"/>
<path style="fill:#279FC9;" d="M393.31,39.905v260.587h-43.269V17.816C365.223,23.824,379.705,31.232,393.31,39.905z"/>
<g>
	<path style="fill:#FF525D;" d="M349.689,234.862v70.796c0,22.174-17.97,40.144-40.144,40.144h-75.85   c-11.094,0-21.119-4.492-28.392-11.752c-7.259-7.272-11.752-17.312-11.752-28.392c0-39.102,31.694-70.796,70.796-70.796   L349.689,234.862L349.689,234.862z"/>
	<path style="fill:#FF525D;" d="M505.827,305.658c0,22.174-17.97,40.144-40.144,40.144h-75.85c-22.174,0-40.144-17.97-40.144-40.144   v-70.796h85.342c19.558,0,37.254,7.916,50.06,20.736C497.896,268.404,505.827,286.114,505.827,305.658z"/>
</g>
<g>
	<path style="fill:#EF4152;" d="M414.527,155.163c0,18.23-3.191,35.35-8.807,50.183c-11.806,31.255-34.309,52.374-60.127,52.374   c-38.063,0-68.934-45.91-68.934-102.558S307.53,72.78,345.593,72.78c4.465,0,8.82,0.356,13.039,1.068   C390.476,79.231,414.527,105.145,414.527,155.163z"/>
	<path style="fill:#EF4152;" d="M305.904,507.141c-15.37,3.03-31.232,4.692-47.459,4.848l-18.85-142.9l-0.669-5.099l39.884,5.099   C278.81,369.089,280.754,467.163,305.904,507.141z"/>
	<path style="fill:#EF4152;" d="M233.695,345.802c-11.094,0-21.119-4.492-28.392-11.752c-7.259-7.272-11.752-17.312-11.752-28.392   c0-39.102,31.694-70.796,70.796-70.796C264.347,234.862,199.537,271.842,233.695,345.802z"/>
</g>
<path style="fill:#FF525D;" d="M414.527,155.163c0,18.23-3.191,35.35-8.807,50.183c-10.34,7.163-22.64,11.327-35.83,11.327  c-36.706,0-66.454-32.2-66.454-71.933c0-35.569,23.859-65.098,55.196-70.892C390.476,79.231,414.527,105.145,414.527,155.163z"/>
<path style="fill:#EF4152;" d="M390.975,148.575h-90.762c-5.194,0-9.404,4.21-9.404,9.404v5.845c0,5.194,4.21,9.404,9.404,9.404  h36.478v71.677h17.805v-35.198c0-20.147,16.332-36.478,36.478-36.478l0,0c5.194,0,9.404-4.21,9.404-9.404v-5.845  C400.379,152.786,396.169,148.575,390.975,148.575z"/>
<g>
	<circle style="fill:#FF6E7C;" cx="451.385" cy="281.433" r="20.545"/>
	<circle style="fill:#FF6E7C;" cx="479.859" cy="310.815" r="10.329"/>
	<circle style="fill:#FF6E7C;" cx="397.657" cy="135.868" r="10.47"/>
	<circle style="fill:#FF6E7C;" cx="379.319" cy="107.875" r="14.993"/>
	<path style="fill:#FF6E7C;" d="M440.205,394.449l-4.765,44.126c-7.022,6.907-14.43,13.406-22.215,19.456   c-0.021-0.366-0.01-0.721,0.031-1.087l6.98-64.648c0.449-4.211,4.232-7.252,8.443-6.802l4.733,0.512   C437.614,386.466,440.665,390.238,440.205,394.449z"/>
</g>
<g>
</g>
<g>
</g>
<g>
</g>
<g>
</g>
<g>
</g>
<g>
</g>
<g>
</g>
<g>
</g>
<g>
</g>
<g>
</g>
<g>
</g>
<g>
</g>
<g>
</g>
<g>
</g>
<g>
</g>
</svg>
