<?xml version="1.0" encoding="iso-8859-1"?>
<!-- Generator: Adobe Illustrator 19.0.0, SVG Export Plug-In . SVG Version: 6.00 Build 0)  -->
<svg xmlns="http://www.w3.org/2000/svg" xmlns:xlink="http://www.w3.org/1999/xlink" version="1.1" id="Capa_1" x="0px" y="0px" viewBox="0 0 512 512" style="enable-background:new 0 0 512 512;" xml:space="preserve">
<path style="fill:#5C5E70;" d="M512,256c0,86.737-43.133,163.401-109.129,209.701c-29.257,20.532-63.007,35.098-99.495,41.921  c-2.968,0.564-5.956,1.066-8.965,1.515C281.882,511.018,269.051,512,256,512s-25.882-0.982-38.41-2.863  c-9.07-1.358-17.983-3.208-26.708-5.496c-10.982-2.873-21.671-6.468-32.026-10.721c-17.659-7.241-34.325-16.405-49.737-27.23  C43.133,419.391,0,342.727,0,256c0-1.808,0.021-3.626,0.063-5.423c0.073-3.688,0.23-7.356,0.46-11.013  c0.543-8.683,1.526-17.241,2.926-25.652c5.183-31.357,16.071-60.782,31.556-87.197c3.26-5.58,6.74-11.024,10.407-16.321  c5.966-8.62,12.455-16.854,19.414-24.66c13.939-15.642,29.769-29.55,47.125-41.388C152.984,16.363,202.585,0,256,0  c53.426,0,103.016,16.363,144.05,44.345c14.764,10.073,28.421,21.65,40.741,34.503c9.728,10.125,18.62,21.055,26.561,32.674  c5.747,8.37,11.003,17.105,15.736,26.164c12.069,23.124,20.71,48.327,25.245,74.93c2.111,12.351,3.344,25.025,3.615,37.919  c0.01,0.69,0.021,1.39,0.031,2.079C511.99,253.743,512,254.871,512,256z"/>
<g>
	<path style="fill:#797B89;" d="M161.301,183.139c0,10.386-8.422,18.808-18.808,18.808h-5.224c-5.193,0-9.895,2.111-13.302,5.507   c-3.406,3.406-5.507,8.108-5.507,13.302c0,10.386-8.422,18.808-18.808,18.808H0.522c0.543-8.683,1.526-17.241,2.926-25.652   c5.183-31.357,16.071-60.782,31.556-87.197h25.203c10.386,0,18.808,8.422,18.808,18.808s8.411,18.808,18.798,18.808h44.68   c5.193,0,9.895,2.111,13.302,5.507C159.201,173.244,161.301,177.946,161.301,183.139z"/>
	<path style="fill:#797B89;" d="M511.948,250.535h-2.205c-5.193,0-9.895-2.111-13.302-5.507c-3.396-3.406-5.507-8.108-5.507-13.302   c0-10.386-8.422-18.808-18.808-18.808h-89.861c-5.193,0-9.895-2.111-13.302-5.507c-3.396-3.406-5.507-8.108-5.507-13.302   c0-10.386,8.422-18.808,18.808-18.808h60.604c5.193,0,9.895-2.111,13.302-5.507c3.396-3.406,5.507-8.108,5.507-13.302   c0-10.386,8.422-18.808,18.808-18.808h2.602c12.069,23.124,20.71,48.327,25.245,74.93   C510.443,224.967,511.676,237.641,511.948,250.535z"/>
</g>
<path style="fill:#FFD15C;" d="M400.05,44.345c-0.376,79.235-64.721,143.35-144.05,143.35c-4.2,0-8.349-0.178-12.455-0.533  c-25.59-2.184-49.267-11.065-69.266-24.879c-9.916-6.834-18.923-14.89-26.823-23.939c-8.171-9.352-15.151-19.769-20.699-31.023  c-9.383-19.007-14.702-40.375-14.806-62.976c35.098-23.928,76.455-39.361,121.104-43.321C240.619,0.345,248.268,0,256,0  c9.55,0,18.975,0.522,28.254,1.546c14.545,1.588,28.724,4.409,42.423,8.338c23.228,6.656,45.087,16.509,65.097,29.048  C394.574,40.688,397.333,42.486,400.05,44.345z"/>
<g>
	<path style="fill:#FFDC8D;" d="M284.254,1.546L147.456,138.344c-8.171-9.352-15.151-19.769-20.699-31.023L233.054,1.024   C240.619,0.345,248.268,0,256,0C265.55,0,274.975,0.522,284.254,1.546z"/>
	<path style="fill:#FFDC8D;" d="M391.774,38.933L243.545,187.162c-25.59-2.184-49.267-11.065-69.266-24.879L326.677,9.885   C349.905,16.541,371.764,26.394,391.774,38.933z"/>
</g>
<circle style="fill:#EDBB4C;" cx="256" cy="43.645" r="35.004"/>
<circle style="fill:#FFD15C;" cx="266.449" cy="33.196" r="10.971"/>
<g>
	<path style="fill:#F9EED7;" d="M467.351,111.522l-1.484,1.484c-4.284,4.284-11.222,4.284-15.506,0   c-2.633-2.623-3.636-6.248-3.051-9.644l-9.644,9.644c-4.284,4.284-11.233,4.284-15.517,0c-2.623-2.623-3.636-6.248-3.041-9.644   l-9.644,9.644c-4.284,4.284-11.233,4.284-15.517,0c-2.623-2.623-3.636-6.248-3.041-9.644l-9.644,9.644   c-4.284,4.284-11.233,4.284-15.517,0c-2.623-2.623-3.636-6.248-3.041-9.644l-9.655,9.644c-2.142,2.142-4.953,3.218-7.753,3.218   c-2.811,0-5.622-1.076-7.764-3.218c-2.623-2.623-3.626-6.248-3.041-9.644l-9.644,9.644c-4.284,4.284-11.233,4.284-15.517,0   c-2.623-2.623-3.636-6.248-3.041-9.644l-9.644,9.644c-2.142,2.142-4.953,3.218-7.753,3.218c-2.811,0-5.622-1.076-7.764-3.218   c-2.623-2.623-3.636-6.248-3.041-9.644l-9.644,9.644c-4.284,4.284-11.233,4.284-15.517,0c-2.633-2.623-3.636-6.248-3.041-9.644   l-9.655,9.644c-2.142,2.142-4.953,3.218-7.764,3.218c-2.8,0-5.611-1.076-7.753-3.218c-2.623-2.623-3.626-6.248-3.041-9.644   l-9.644,9.644c-4.284,4.284-11.233,4.284-15.517,0c-2.623-2.623-3.636-6.248-3.041-9.644l-9.644,9.644   c-4.284,4.284-11.233,4.284-15.517,0c-2.623-2.623-3.636-6.248-3.041-9.644l-9.644,9.644c-4.295,4.284-11.233,4.284-15.517,0   c-2.633-2.623-3.636-6.248-3.041-9.644l-9.655,9.644c-4.284,4.284-11.233,4.284-15.517,0c-2.623-2.623-3.626-6.248-3.041-9.644   l-9.644,9.644c-4.284,4.284-11.233,4.284-15.517,0c-2.623-2.623-3.636-6.248-3.041-9.644l-9.644,9.644   c-4.284,4.284-11.233,4.284-15.517,0c-2.623-2.623-3.636-6.248-3.041-9.644l-7.043,7.032c5.966-8.62,12.455-16.854,19.414-24.66   c0.052,0.857,0.01,1.714-0.136,2.56l9.644-9.644c4.284-4.284,11.233-4.284,15.517,0c2.623,2.623,3.636,6.248,3.041,9.644   l9.644-9.644c4.284-4.284,11.233-4.284,15.517,0c2.623,2.623,3.636,6.248,3.041,9.644l9.644-9.644   c4.284-4.284,11.233-4.284,15.517,0c2.623,2.623,3.636,6.248,3.041,9.644l9.655-9.644c2.142-2.142,4.953-3.218,7.753-3.218   c2.811,0,5.622,1.076,7.764,3.218c2.623,2.623,3.626,6.248,3.041,9.644l9.644-9.644c4.284-4.284,11.233-4.284,15.517,0   c2.623,2.623,3.636,6.248,3.041,9.644l9.644-9.644c2.142-2.142,4.953-3.218,7.753-3.218c2.811,0,5.622,1.076,7.764,3.218   c2.623,2.623,3.636,6.248,3.041,9.644l9.644-9.644c4.284-4.284,11.233-4.284,15.517,0c2.633,2.623,3.636,6.248,3.041,9.644   l9.655-9.644c2.142-2.142,4.953-3.218,7.764-3.218c2.8,0,5.611,1.076,7.753,3.218c2.623,2.623,3.626,6.248,3.041,9.644l9.644-9.644   c4.284-4.284,11.233-4.284,15.517,0c2.623,2.623,3.636,6.248,3.041,9.644l9.644-9.644c4.284-4.284,11.233-4.284,15.517,0   c2.623,2.623,3.636,6.248,3.041,9.644l9.644-9.644c4.295-4.284,11.233-4.284,15.517,0c2.633,2.623,3.636,6.248,3.041,9.644   l9.655-9.644c4.284-4.284,11.233-4.284,15.517,0c2.623,2.623,3.626,6.248,3.041,9.644l9.644-9.644   c4.284-4.284,11.233-4.284,15.517,0c2.623,2.623,3.636,6.248,3.041,9.644l9.446-9.446   C450.518,88.973,459.41,99.903,467.351,111.522z"/>
	<path style="fill:#F9EED7;" d="M511.979,252.615c-1.912-0.449-3.72-1.411-5.214-2.905c-2.623-2.623-3.636-6.248-3.041-9.644   l-9.644,9.644c-4.284,4.284-11.233,4.284-15.517,0c-2.623-2.623-3.636-6.248-3.041-9.644l-9.655,9.644   c-4.284,4.284-11.222,4.284-15.506,0c-2.633-2.623-3.636-6.248-3.051-9.644l-9.644,9.644c-4.284,4.284-11.233,4.284-15.517,0   c-2.623-2.623-3.636-6.248-3.041-9.644l-9.644,9.644c-4.284,4.284-11.233,4.284-15.517,0c-2.623-2.623-3.636-6.248-3.041-9.644   l-9.644,9.644c-4.284,4.284-11.233,4.284-15.517,0c-2.623-2.623-3.636-6.248-3.041-9.644l-9.655,9.644   c-2.142,2.142-4.953,3.208-7.753,3.208c-2.811,0-5.622-1.066-7.764-3.208c-2.623-2.623-3.626-6.248-3.041-9.644l-9.644,9.644   c-4.284,4.284-11.233,4.284-15.517,0c-2.623-2.623-3.636-6.248-3.041-9.644l-9.644,9.644c-2.142,2.142-4.953,3.208-7.753,3.208   c-2.811,0-5.622-1.066-7.764-3.208c-2.623-2.623-3.636-6.248-3.041-9.644l-9.644,9.644c-4.284,4.284-11.233,4.284-15.517,0   c-2.633-2.623-3.636-6.248-3.041-9.644l-9.655,9.644c-2.142,2.142-4.953,3.208-7.764,3.208c-2.8,0-5.611-1.066-7.753-3.208   c-2.623-2.623-3.626-6.248-3.041-9.644l-9.644,9.644c-4.284,4.284-11.233,4.284-15.517,0c-2.623-2.623-3.636-6.248-3.041-9.644   l-9.644,9.644c-4.284,4.284-11.233,4.284-15.517,0c-2.623-2.623-3.636-6.248-3.041-9.644l-9.644,9.644   c-4.295,4.284-11.233,4.284-15.517,0c-2.633-2.623-3.636-6.248-3.041-9.644l-9.655,9.644c-4.284,4.284-11.233,4.284-15.517,0   c-2.623-2.623-3.626-6.248-3.041-9.644l-9.644,9.644c-4.284,4.284-11.233,4.284-15.517,0c-2.623-2.623-3.636-6.248-3.041-9.644   l-9.644,9.644c-4.284,4.284-11.233,4.284-15.517,0c-2.623-2.623-3.636-6.248-3.041-9.644l-9.655,9.644   c-2.142,2.142-4.953,3.208-7.753,3.208s-5.611-1.066-7.753-3.208c-2.633-2.623-3.636-6.248-3.051-9.644l-9.644,9.644   c-3.971,3.971-10.23,4.263-14.535,0.867c0.251-12.466,1.4-24.712,3.385-36.665c0.637,0.408,1.233,0.888,1.787,1.442   c2.623,2.623,3.636,6.248,3.041,9.644l9.644-9.644c2.142-2.142,4.953-3.208,7.764-3.208c2.8,0,5.611,1.066,7.753,3.208   c2.623,2.623,3.636,6.248,3.041,9.644l9.655-9.644c2.142-2.142,4.942-3.208,7.753-3.208c2.811,0,5.611,1.066,7.753,3.208   c2.633,2.623,3.636,6.248,3.051,9.644l9.644-9.644c2.142-2.142,4.953-3.208,7.753-3.208c2.811,0,5.622,1.066,7.764,3.208   c2.623,2.623,3.636,6.248,3.041,9.644l9.644-9.644c2.142-2.142,4.953-3.208,7.764-3.208c2.8,0,5.611,1.066,7.753,3.208   c2.623,2.623,3.636,6.248,3.041,9.644l9.644-9.644c2.142-2.142,4.953-3.208,7.753-3.208c2.811,0,5.622,1.066,7.764,3.208   c2.623,2.623,3.636,6.248,3.041,9.644l9.655-9.644c2.142-2.142,4.953-3.208,7.753-3.208c2.811,0,5.622,1.066,7.764,3.208   c2.623,2.623,3.626,6.248,3.041,9.644l9.644-9.644c2.142-2.142,4.953-3.208,7.764-3.208c2.8,0,5.611,1.066,7.753,3.208   c2.623,2.623,3.636,6.248,3.041,9.644l9.644-9.644c2.142-2.142,4.953-3.208,7.753-3.208c2.811,0,5.622,1.066,7.764,3.208   c2.623,2.623,3.636,6.248,3.041,9.644l9.644-9.644c2.142-2.142,4.953-3.208,7.764-3.208c2.8,0,5.611,1.066,7.753,3.208   c2.633,2.623,3.636,6.248,3.041,9.644l9.655-9.644c2.142-2.142,4.953-3.208,7.764-3.208c2.8,0,5.611,1.066,7.753,3.208   c2.623,2.623,3.626,6.248,3.041,9.644l9.644-9.644c2.142-2.142,4.953-3.208,7.753-3.208c2.811,0,5.622,1.066,7.764,3.208   c2.623,2.623,3.636,6.248,3.041,9.644l9.644-9.644c2.142-2.142,4.953-3.208,7.764-3.208c2.8,0,5.611,1.066,7.753,3.208   c2.623,2.623,3.636,6.248,3.041,9.644l9.644-9.644c2.152-2.142,4.953-3.208,7.764-3.208c2.811,0,5.611,1.066,7.753,3.208   c2.633,2.623,3.636,6.248,3.041,9.644l9.655-9.644c2.142-2.142,4.953-3.208,7.753-3.208c2.811,0,5.622,1.066,7.764,3.208   c2.623,2.623,3.626,6.248,3.041,9.644l9.644-9.644c2.142-2.142,4.953-3.208,7.764-3.208c2.8,0,5.611,1.066,7.753,3.208   c2.623,2.623,3.636,6.248,3.041,9.644l9.644-9.644c2.142-2.142,4.953-3.208,7.753-3.208c2.811,0,5.622,1.066,7.764,3.208   c2.623,2.623,3.636,6.248,3.041,9.644l9.655-9.644c2.142-2.142,4.953-3.208,7.753-3.208c2.8,0,5.611,1.066,7.753,3.208   c2.633,2.623,3.636,6.248,3.051,9.644l9.644-9.644c2.142-2.142,4.953-3.208,7.764-3.208c1.066,0,2.142,0.157,3.166,0.47   C510.558,225.635,511.801,238.999,511.979,252.615z"/>
</g>
<path style="fill:#FF525D;" d="M491.771,303.104c-1.661,37.669-22.246,69.736-51.346,89.945  c-11.442,7.931-24.461,13.814-37.554,18.108v54.544c-29.257,20.532-63.007,35.098-99.495,41.921  c-2.968,0.564-5.956,1.066-8.965,1.515h-0.439c-11.483,0-20.793-9.31-20.793-20.793v-81.032c-3.062-1.651-6.008-3.427-8.829-5.339  c-2.79-1.891-5.454-3.897-7.993-6.039c-27.564-23.103-41.263-60.667-41.263-108.345c0-2.759,0.042-5.486,0.136-8.182  c0.585-17.105,3.02-32.799,7.325-46.874c6.363-20.856,16.823-38.16,31.389-51.2c3.271-2.926,6.74-5.642,10.418-8.129  c13.249-8.986,29.194-15.078,47.846-17.93c8.014-1.233,16.52-1.86,25.527-1.86c58.086,0,95.368,26.112,112.201,70.478  c2.424,6.395,4.43,13.166,6.008,20.302c0.157,0.731,0.313,1.463,0.47,2.194c0.136,0.669,0.272,1.327,0.397,1.996  c0.261,1.317,0.502,2.654,0.731,4.002c2.247,0.742,4.399,1.588,6.447,2.529c4.827,2.194,9.101,4.921,12.758,8.171  c9.31,8.244,14.639,19.884,15.057,34.941C491.802,298.026,491.813,302.268,491.771,303.104z"/>
<g>
	<path style="fill:#EF4152;" d="M306.147,232.521l-52.203-51.19c3.271-2.926,6.74-5.642,10.418-8.129   c13.249-8.986,29.194-15.078,47.846-17.93C279.679,187.81,305.645,231.675,306.147,232.521z"/>
	<path style="fill:#EF4152;" d="M303.376,417.479v90.143c-2.968,0.564-5.956,1.066-8.965,1.515h-0.439   c-11.483,0-20.793-9.31-20.793-20.793v-81.032c-3.062-1.651-6.008-3.427-8.829-5.339c-2.79-1.891-5.454-3.897-7.993-6.039v-36.206   l32.946,17.847C289.301,377.574,285.759,399.862,303.376,417.479z"/>
	<path style="fill:#EF4152;" d="M463.989,254.913c-0.909,27.314-5.789,46.341-14.493,56.644c-1.348,1.588-3.26,2.403-5.193,2.403   c-1.546,0-3.103-0.522-4.378-1.599c-2.863-2.424-3.218-6.708-0.794-9.571c11.964-14.148,12.372-53.363,10.804-78.9   c2.424,6.395,4.43,13.166,6.008,20.302c0.157,0.731,0.313,1.463,0.47,2.194c0.136,0.669,0.272,1.327,0.397,1.996   c0.261,1.317,0.502,2.654,0.731,4.002C459.789,253.127,461.941,253.973,463.989,254.913z"/>
	<path style="fill:#EF4152;" d="M313.618,287.587c0,52.088-16.342,92.097-49.267,114.385   c-32.914-22.288-49.257-62.297-49.257-114.385c0-2.759,0.042-5.486,0.136-8.182c0.585-17.105,3.02-32.799,7.325-46.874   c7.795-25.527,21.713-45.735,41.806-59.329c20.093,13.605,34.001,33.802,41.796,59.329c4.305,14.075,6.74,29.769,7.325,46.874   C313.576,282.102,313.618,284.829,313.618,287.587z"/>
</g>
<path style="fill:#FF525D;" d="M296.897,287.587c0,33.144-6.614,61.398-19.916,83.31c-5.663,9.331-12.539,17.513-20.626,24.419  c-0.115,0.115-0.23,0.209-0.355,0.313c0,0,0,0-0.01,0c-5.224,4.43-10.951,8.338-17.178,11.682v81.032  c0,11.483-9.31,20.793-20.793,20.793h-0.428c-9.07-1.358-17.983-3.208-26.708-5.496c-10.982-2.873-21.671-6.468-32.026-10.721  c-17.659-7.241-34.325-16.405-49.737-27.23v-54.533c-13.093-4.294-26.112-10.177-37.554-18.108  c-29.1-20.208-49.685-52.276-51.346-89.945c-0.042-0.836-0.031-5.078-0.031-5.078c0.418-15.057,5.747-26.697,15.057-34.941  c5.214-4.629,11.661-8.192,19.205-10.7c0.23-1.348,0.47-2.685,0.731-4.002c0.125-0.669,0.261-1.327,0.397-1.996  c0.157-0.731,0.313-1.463,0.47-2.194c12.518-56.592,51.743-90.781,118.209-90.781c34.607,0,61.827,9.258,81.742,26.133  c7.993,6.76,14.806,14.743,20.449,23.855c5.402,8.714,9.728,18.463,12.988,29.132c4.305,14.075,6.74,29.769,7.325,46.874  C296.855,282.102,296.897,284.829,296.897,287.587z"/>
<path style="fill:#EF4152;" d="M143.268,295.372c0,17.032-6.374,30.877-18.432,40.04c-11.243,8.537-26.906,12.863-46.55,12.863  c-3.835,0-7.576-0.167-11.118-0.502c-3.73-0.355-6.468-3.668-6.123-7.408c0.355-3.73,3.657-6.468,7.408-6.113  c3.124,0.293,6.426,0.439,9.832,0.439c42.475,0,51.399-21.379,51.399-39.32s-8.923-39.32-51.399-39.32  c-13.563,0-29.309,2.382-43.039,7.032c5.214-4.629,11.661-8.192,19.205-10.7c0.47-2.779,1.003-5.507,1.599-8.192  c7.649-1.16,15.214-1.724,22.235-1.724c19.644,0,35.307,4.326,46.55,12.863C136.894,264.495,143.268,278.34,143.268,295.372z"/>
<path style="fill:#494B5B;" d="M190.882,401.878v101.763c-10.982-2.873-21.671-6.468-32.026-10.721v-91.042  c0-4.42,1.787-8.422,4.692-11.327c2.894-2.894,6.896-4.692,11.316-4.692C183.714,385.86,190.882,393.038,190.882,401.878z"/>
<path style="fill:#EF4152;" d="M296.764,279.406c-10.125,20.773-31.451,35.109-56.069,35.109H135.097  c-3.751,0-6.792-3.041-6.792-6.792c0-3.741,3.041-6.792,6.792-6.792h105.597c26.885,0,48.744-21.859,48.744-48.734v-19.665  C293.744,246.606,296.178,262.301,296.764,279.406z"/>
<g>
	<circle style="fill:#FF6E7C;" cx="222.396" cy="204.56" r="10.971"/>
	<circle style="fill:#FF6E7C;" cx="382.265" cy="186.274" r="10.971"/>
	<circle style="fill:#FF6E7C;" cx="247.474" cy="236.952" r="20.376"/>
	<circle style="fill:#FF6E7C;" cx="402.641" cy="220.233" r="20.376"/>
	<circle style="fill:#FF6E7C;" cx="102.233" cy="286.062" r="12.016"/>
</g>
<g>
	<path style="fill:#EF4152;" d="M174.26,153.412c0,0-68.827,21.514-68.827,92.494l-27.146,10.146l-23.103-7.67   c0.272-1.411,0.564-2.811,0.867-4.19C68.568,187.601,107.794,153.412,174.26,153.412z"/>
	<path style="fill:#EF4152;" d="M158.856,401.878v91.042c-17.659-7.241-34.325-16.405-49.737-27.23v-54.533   c-13.093-4.294-26.112-10.177-37.554-18.108c-29.1-20.208-49.685-52.276-51.346-89.945c-0.042-0.836-0.031-5.078-0.031-5.078   c0.418-15.057,5.747-26.697,15.057-34.941c5.214-4.629,11.661-8.192,19.205-10.7c0.23-1.348,0.47-2.685,0.731-4.002   c0.125-0.669,0.261-1.327,0.397-1.996l14.064,6.792l0.01,0.01c0,0-2.121,1.16-5.214,3.636   c-9.927,7.941-29.821,29.424-21.243,69.465C54.45,378.786,126.83,401.878,158.856,401.878z"/>
</g>
<g>
	<path style="fill:#F9EED7;" d="M210.097,438.408h-70.457c-3.751,0-6.792-3.041-6.792-6.792c0-3.751,3.041-6.792,6.792-6.792h70.457   c3.751,0,6.792,3.041,6.792,6.792C216.888,435.367,213.848,438.408,210.097,438.408z"/>
	<path style="fill:#F9EED7;" d="M210.097,471.348h-70.457c-3.751,0-6.792-3.041-6.792-6.792c0-3.751,3.041-6.792,6.792-6.792h70.457   c3.751,0,6.792,3.041,6.792,6.792C216.888,468.308,213.848,471.348,210.097,471.348z"/>
</g>
<g>
</g>
<g>
</g>
<g>
</g>
<g>
</g>
<g>
</g>
<g>
</g>
<g>
</g>
<g>
</g>
<g>
</g>
<g>
</g>
<g>
</g>
<g>
</g>
<g>
</g>
<g>
</g>
<g>
</g>
</svg>
