<?xml version="1.0" encoding="iso-8859-1"?>
<!-- Generator: Adobe Illustrator 19.0.0, SVG Export Plug-In . SVG Version: 6.00 Build 0)  -->
<svg xmlns="http://www.w3.org/2000/svg" xmlns:xlink="http://www.w3.org/1999/xlink" version="1.1" id="Capa_1" x="0px" y="0px" viewBox="0 0 512 512" style="enable-background:new 0 0 512 512;" xml:space="preserve">
<path style="fill:#F9EED7;" d="M512,256c0,141.385-114.615,256-256,256c-6.113,0-12.173-0.209-18.171-0.637  c-18.317-1.285-36.112-4.504-53.175-9.435c-43.708-12.664-82.599-36.655-113.277-68.587C53.739,414.981,38.808,394,27.23,371.022  C9.812,336.436,0,297.367,0,256c0-45.881,12.069-88.963,33.228-126.203C59.329,83.801,99.276,46.686,147.404,24.106  C180.37,8.641,217.172,0,256,0c41.378,0,80.447,9.812,115.033,27.24C394,38.808,414.981,53.739,433.34,71.387  c31.953,30.689,55.954,69.601,68.598,113.34c4.932,17.042,8.14,34.816,9.425,53.112C511.791,243.837,512,249.898,512,256z"/>
<path style="fill:#FCF8F2;" d="M148.659,214.075v-0.001c0-6.532-5.294-11.827-11.826-11.827H24.473  c-6.532,0-11.827,5.294-11.827,11.827v0.001c0,6.532,5.294,11.827,11.827,11.827h18.727c6.532,0,11.827,5.294,11.827,11.826v0.001  c0,6.532,5.294,11.827,11.827,11.827h93.633c6.532,0,11.827-5.294,11.827-11.827v-0.001c0-6.532-5.294-11.826-11.827-11.826l0,0  C153.954,225.901,148.659,220.606,148.659,214.075z"/>
<path style="fill:#5C5E70;" d="M504.101,219.941c0,156.944-127.216,284.16-284.16,284.16c-6.781,0-13.511-0.23-20.167-0.711  c-5.078-0.355-10.125-0.846-15.12-1.463c-43.708-12.664-82.599-36.655-113.277-68.587C53.739,414.981,38.807,394,27.23,371.022  C78.848,207.757,207.757,78.848,371.033,27.24C394,38.808,414.981,53.739,433.34,71.387c31.953,30.689,55.954,69.601,68.598,113.34  c0.616,4.974,1.108,10,1.463,15.057C503.871,206.44,504.101,213.17,504.101,219.941z"/>
<path style="fill:#E8DBC4;" d="M512,256c0,141.385-114.615,256-256,256c-6.113,0-12.173-0.209-18.171-0.637  c-8.683-0.606-17.251-1.651-25.673-3.103c-6.687-1.16-13.291-2.57-19.79-4.242c-46.853-11.975-88.524-36.874-120.989-70.677  C110.895,252.938,252.928,110.906,433.34,71.387c44.408,42.653,73.446,101.177,78.023,166.452C511.791,243.837,512,249.898,512,256z  "/>
<g>
	<path style="fill:#F9EED7;" d="M216.06,428.741c-0.961,0-1.938-0.141-2.906-0.437c-5.243-1.603-8.193-7.152-6.59-12.396   c10.154-33.203,25.492-64.474,45.592-92.945c3.162-4.478,9.356-5.545,13.833-2.384c4.478,3.162,5.547,9.356,2.384,13.834   c-18.88,26.745-33.288,56.117-42.824,87.3C224.241,425.991,220.31,428.741,216.06,428.741z"/>
	<path style="fill:#F9EED7;" d="M216.618,459.264c-2.779,16.081-4.274,32.538-4.462,48.995c-6.687-1.16-13.291-2.57-19.79-4.242   c0.387-16.175,1.964-32.329,4.681-48.128c0.93-5.402,6.071-9.028,11.473-8.098C213.922,448.731,217.548,453.862,216.618,459.264z"/>
	<path style="fill:#F9EED7;" d="M512,256c0,8.307-0.397,16.52-1.17,24.618c-2.361,24.806-8.265,48.577-17.209,70.802   C455.795,445.544,363.656,512,256,512c-6.113,0-12.173-0.209-18.171-0.637c2.351-27.69,8.464-54.314,17.826-79.35   c7.346-19.686,16.697-38.39,27.815-55.86c48.964-76.988,132.002-130.173,227.892-138.313C511.791,243.837,512,249.898,512,256z"/>
</g>
<g>
	<path style="fill:#FCF8F2;" d="M171.51,85.964c2.142,2.132,3.469,5.099,3.469,8.359c0,6.531-5.298,11.828-11.828,11.828h-1.16   c-3.271,0-6.228,1.317-8.37,3.459c-2.132,2.142-3.459,5.089-3.459,8.359c0,6.541-5.298,11.828-11.828,11.828H33.228   C59.329,83.801,99.276,46.686,147.404,24.106c0.387,6.186,5.517,11.076,11.797,11.076h3.95c6.531,0,11.828,5.298,11.828,11.828   s-5.298,11.828-11.828,11.828h-21.682c-3.271,0-6.228,1.327-8.37,3.469c-2.132,2.132-3.459,5.099-3.459,8.359   c0,6.531,5.287,11.828,11.828,11.828h21.682C166.41,82.495,169.378,83.822,171.51,85.964z"/>
	<path style="fill:#FCF8F2;" d="M510.83,280.618c-2.361,24.806-8.265,48.577-17.209,70.802h-55.432c-3.26,0-6.228-1.327-8.359-3.469   c-2.142-2.142-3.469-5.089-3.469-8.359c0-6.531,5.298-11.828,11.828-11.828h3.281c3.26,0,6.228-1.327,8.359-3.459   c2.142-2.142,3.469-5.099,3.469-8.37c0-6.531-5.298-11.818-11.828-11.818h-32.235c-3.271,0-6.217-1.327-8.359-3.469   c-2.142-2.132-3.469-5.099-3.469-8.359c0-6.541,5.298-11.828,11.828-11.828h99.662C509.555,280.461,510.203,280.513,510.83,280.618   z"/>
	<path style="fill:#FCF8F2;" d="M392.129,435.284c0,6.541-5.287,11.828-11.828,11.828H267.943c-3.271,0-6.217-1.327-8.359-3.459   c-2.142-2.142-3.469-5.099-3.469-8.37c0-1.139-0.157-2.236-0.46-3.271c7.346-19.686,16.697-38.39,27.815-55.86h78.44   c3.26,0,6.217,1.327,8.359,3.469c2.132,2.132,3.459,5.099,3.459,8.359c0,6.531-5.287,11.828-11.818,11.828h-38.118   c-6.531,0-11.828,5.287-11.828,11.828c0,6.531,5.298,11.828,11.828,11.828h56.508c3.271,0,6.228,1.317,8.37,3.459   S392.129,432.013,392.129,435.284z"/>
</g>
<path style="fill:#5C5E70;" d="M176.773,290.324l52.183,62.695c6.977,8.382,19.657,8.929,27.329,1.179l64.47-65.127l-64.437-77.415  l-75.746,51.581C171.56,269.374,169.796,281.943,176.773,290.324z"/>
<path style="fill:#FF525D;" d="M247.542,218.955l134.196-111.699c6.676-5.557,16.592-4.649,22.149,2.026l44.318,53.244  c5.557,6.676,4.649,16.592-2.026,22.149L311.982,296.374c-3.895,3.242-7.975,6.417-12.186,9.502c-3.959,2.9-8.038,5.724-12.197,8.44  c-42.778,27.976-93.651,44.924-108.475,27.114c-14.824-17.809,11.075-64.763,46.35-101.753c3.425-3.597,6.943-7.096,10.513-10.463  C239.784,225.632,243.646,222.197,247.542,218.955z"/>
<path style="fill:#EF4152;" d="M179.124,341.43c6.919,8.313,51.131-16.639,91.909-47.016c3.958-2.956,7.888-5.96,11.745-8.983  c4.102-3.216,8.125-6.46,12.019-9.702l146.284-121.76l7.123,8.558c5.557,6.676,4.649,16.592-2.026,22.149L311.981,296.374  c-3.895,3.242-7.975,6.417-12.186,9.502c-3.959,2.9-8.038,5.724-12.197,8.44C244.821,342.291,193.948,359.24,179.124,341.43z"/>
<g>
	<path style="fill:#5C5E70;" d="M235.986,229.214l63.81,76.662c-3.959,2.9-8.038,5.724-12.197,8.44l-62.125-74.639   C228.898,236.08,232.417,232.582,235.986,229.214z"/>
	<path style="fill:#5C5E70;" d="M332.92,213.417L332.92,213.417c10.439,12.542,29.068,14.246,41.61,3.808l70.417-58.61   l-37.802-45.416l-70.417,58.611C324.186,182.246,322.482,200.875,332.92,213.417z"/>
</g>
<g>
	<circle style="fill:#FF6E7C;" cx="217.266" cy="276.261" r="11.192"/>
	<circle style="fill:#FF6E7C;" cx="206.023" cy="301.934" r="6.716"/>
	<path style="fill:#FF6E7C;" d="M304.728,195.889L304.728,195.889c3.164,3.8,2.647,9.446-1.154,12.61l-29.592,24.63   c-3.8,3.164-9.446,2.647-12.61-1.154l0,0c-3.164-3.8-2.647-9.446,1.154-12.61l29.592-24.63   C295.919,191.573,301.565,192.089,304.728,195.889z"/>
</g>
<path style="fill:#279FC9;" d="M378.253,193.588c0,0.616-0.021,1.233-0.084,1.839c-0.93,11.264-10.355,20.104-21.859,20.104  c-12.121,0-21.943-9.822-21.943-21.943c0-11.504,8.84-20.929,20.104-21.859c0.606-0.063,1.223-0.084,1.839-0.084  C368.431,171.645,378.253,181.467,378.253,193.588z"/>
<path style="fill:#34ABE0;" d="M378.253,193.588c0,0.616-0.021,1.233-0.084,1.839c-2.476,7.429-9.498,12.79-17.763,12.79  c-10.334,0-18.725-8.391-18.725-18.725c0-8.265,5.36-15.287,12.79-17.763c0.606-0.063,1.223-0.084,1.839-0.084  C368.431,171.645,378.253,181.467,378.253,193.588z"/>
<g>
	<circle style="fill:#78CAEF;" cx="366.759" cy="186.713" r="4.789"/>
	<circle style="fill:#78CAEF;" cx="360.709" cy="179.263" r="2.395"/>
</g>
<path style="fill:#279FC9;" d="M419.613,158.671c0,0.616-0.021,1.233-0.084,1.839c-0.93,11.264-10.355,20.104-21.859,20.104  c-12.121,0-21.943-9.822-21.943-21.943c0-11.504,8.84-20.929,20.104-21.859c0.606-0.063,1.223-0.084,1.839-0.084  C409.791,136.728,419.613,146.55,419.613,158.671z"/>
<path style="fill:#34ABE0;" d="M419.613,158.671c0,0.616-0.021,1.233-0.084,1.839c-2.476,7.429-9.498,12.79-17.763,12.79  c-10.334,0-18.725-8.391-18.725-18.725c0-8.265,5.36-15.287,12.79-17.763c0.606-0.063,1.223-0.084,1.839-0.084  C409.791,136.728,419.613,146.55,419.613,158.671z"/>
<g>
	<circle style="fill:#78CAEF;" cx="408.116" cy="151.792" r="4.789"/>
	<circle style="fill:#78CAEF;" cx="402.066" cy="144.353" r="2.395"/>
</g>
<path style="fill:#F9EED7;" d="M133.701,465.471c-0.473,0-0.952-0.034-1.434-0.104c-5.426-0.785-9.188-5.82-8.403-11.246  c4.555-31.473,12.883-62.366,24.752-91.818c2.05-5.086,7.834-7.544,12.917-5.497c5.084,2.049,7.546,7.833,5.497,12.917  c-11.277,27.983-19.189,57.336-23.516,87.242C142.798,461.909,138.555,465.471,133.701,465.471z"/>
<g>
</g>
<g>
</g>
<g>
</g>
<g>
</g>
<g>
</g>
<g>
</g>
<g>
</g>
<g>
</g>
<g>
</g>
<g>
</g>
<g>
</g>
<g>
</g>
<g>
</g>
<g>
</g>
<g>
</g>
</svg>
