<?xml version="1.0" encoding="iso-8859-1"?>
<!-- Generator: Adobe Illustrator 19.0.0, SVG Export Plug-In . SVG Version: 6.00 Build 0)  -->
<svg xmlns="http://www.w3.org/2000/svg" xmlns:xlink="http://www.w3.org/1999/xlink" version="1.1" id="Capa_1" x="0px" y="0px" viewBox="0 0 512 512" style="enable-background:new 0 0 512 512;" xml:space="preserve">
<path style="fill:#4BC999;" d="M511.976,256.025c0,18.65-1.996,36.829-5.788,54.34c-1.849,8.588-4.137,17.02-6.833,25.263  c-3.093,9.476-6.728,18.712-10.876,27.666c-4.743,10.281-10.155,20.186-16.173,29.672c-4.848,7.637-10.082,15.003-15.703,22.056  c-0.961,1.212-1.933,2.413-2.915,3.605c-6.697,8.16-13.906,15.881-21.565,23.132c-4.681,4.451-9.518,8.714-14.523,12.767  c-3.197,2.633-6.467,5.161-9.8,7.617c-1.463,1.076-2.936,2.142-4.43,3.197c-3.939,2.779-7.961,5.454-12.057,8.014  c-6.854,4.273-13.927,8.243-21.199,11.869c-30.717,15.317-64.934,24.647-101.136,26.444c-4.294,0.23-8.62,0.334-12.976,0.334  c-53.922,0-103.936-16.665-145.196-45.135c-18.963-13.081-36.077-28.659-50.861-46.264c-7.376-8.766-14.178-18.044-20.321-27.771  c-11.148-17.594-20.217-36.641-26.841-56.806c-4.702-14.282-8.17-29.118-10.302-44.383c-1.619-11.639-2.455-23.529-2.455-35.617  c0-54.465,17.009-104.971,46.023-146.47c7.418-10.626,15.641-20.666,24.542-30.017C117.219,30.568,183.052,0.049,256,0.049  c0.345,0,0.69,0,1.034,0.01c8.818,0.031,17.532,0.512,26.12,1.41c47.841,5.046,91.754,23.268,128.04,50.976  c2.33,1.776,4.628,3.605,6.896,5.454c2.821,2.319,5.6,4.681,8.317,7.115c1.975,1.766,3.928,3.563,5.851,5.391  c33.444,31.751,58.3,72.457,70.764,118.261C508.862,210.127,511.976,232.715,511.976,256.025z"/>
<g>
	<path style="fill:#5BD3A2;" d="M503.022,188.666H351.693c-3.27,0-6.217-1.327-8.358-3.469c-2.142-2.131-3.469-5.099-3.469-8.358   c0-6.53,5.297-11.827,11.827-11.827h35.952c3.26,0,6.227-1.327,8.358-3.469c2.142-2.131,3.469-5.099,3.469-8.358   c0-6.53-5.297-11.827-11.827-11.827h-10.04c-3.27,0-6.217-1.327-8.358-3.469c-2.142-2.131-3.469-5.099-3.469-8.358   c0-6.53,5.297-11.827,11.827-11.827h33.214c3.27,0,6.227-1.327,8.369-3.469c2.142-2.131,3.458-5.099,3.458-8.358   c0-6.53-5.287-11.827-11.827-11.827h-72.927c-3.26,0-6.227-1.316-8.358-3.458c-2.142-2.142-3.469-5.088-3.469-8.358   c0-6.54,5.297-11.827,11.827-11.827h94.366C465.701,102.157,490.557,142.863,503.022,188.666z"/>
	<path style="fill:#5BD3A2;" d="M214.172,147.419L214.172,147.419c0-6.531-5.295-11.826-11.826-11.826h-99.658   c-6.531,0-11.826,5.295-11.826,11.826l0,0c0,6.531,5.295,11.826,11.826,11.826h32.235c6.531,0,11.826,5.295,11.826,11.826l0,0   c0,6.531-5.295,11.826-11.826,11.826h-3.287c-6.531,0-11.826,5.295-11.826,11.826l0,0c0,6.531,5.295,11.826,11.826,11.826h95.514   c6.531,0,11.826-5.295,11.826-11.826l0,0c0-6.531,5.295-11.826,11.826-11.826h3.287c6.531,0,11.826-5.295,11.826-11.826l0,0   c0-6.531-5.295-11.826-11.826-11.826h-28.093C219.466,159.245,214.172,153.951,214.172,147.419z"/>
	<path style="fill:#5BD3A2;" d="M154.446,346.117c0,6.53-5.287,11.827-11.817,11.827H30.272c-3.27,0-6.217-1.327-8.358-3.469   c-2.142-2.131-3.458-5.099-3.458-8.358c0-4.273-2.267-8.024-5.673-10.093c-4.702-14.282-8.17-29.118-10.302-44.383   c2.163-2.831,5.569-4.66,9.403-4.66H124.23c3.26,0,6.227,1.327,8.358,3.469c2.142,2.131,3.469,5.099,3.469,8.358   c0,6.53-5.297,11.827-11.827,11.827H86.116c-6.53,0-11.827,5.297-11.827,11.827c0,6.53,5.297,11.827,11.827,11.827h56.513   c3.27,0,6.217,1.327,8.358,3.469C153.129,339.89,154.446,342.858,154.446,346.117z"/>
	<path style="fill:#5BD3A2;" d="M273.553,502.336c0,3.793-1.787,7.178-4.576,9.33c-4.294,0.23-8.62,0.334-12.976,0.334   c-53.922,0-103.936-16.665-145.196-45.135h70.764c3.26,0,6.227,1.327,8.358,3.458c2.142,2.142,3.469,5.099,3.469,8.358   c0,6.54,5.287,11.827,11.827,11.827h56.503c3.26,0,6.227,1.327,8.358,3.469C272.226,496.109,273.553,499.076,273.553,502.336z"/>
	<path style="fill:#5BD3A2;" d="M488.478,363.294c-4.743,10.281-10.155,20.186-16.173,29.672   c-4.848,7.637-10.082,15.003-15.703,22.056c-0.961,1.212-1.933,2.413-2.915,3.605h-33.705c-3.814,0-7.282-1.546-9.779-4.054   c-2.508-2.508-4.054-5.955-4.054-9.779c0-7.637-6.196-13.833-13.833-13.833h-21.899c-3.814,0-7.282-1.546-9.779-4.054   c-2.508-2.497-4.054-5.955-4.054-9.779c0-7.637,6.196-13.833,13.833-13.833L488.478,363.294L488.478,363.294z"/>
</g>
<path style="fill:#41B787;" d="M283.29,420.601H59.944c-7.376-8.766-14.178-18.044-20.321-27.771h231.402L283.29,420.601z"/>
<g>
	<path style="fill:#FCF8F2;" d="M314.352,439.449c-13.258-5.611-26.151-11.9-38.637-18.848   c-14.962-8.317-29.338-17.584-43.098-27.771c-15.912-11.764-30.999-24.772-45.177-38.95   c-36.672-36.672-65.457-79.363-85.569-126.901C82.083,180.193,71.572,130.628,70.59,79.537   c-8.902,9.351-17.124,19.391-24.542,30.017c3.876,44.017,14.512,86.802,31.772,127.601c21.418,50.652,52.094,96.132,91.148,135.197   c7.115,7.105,14.439,13.938,21.962,20.478c11.399,9.915,23.257,19.182,35.575,27.771c24.229,16.936,50.192,31.281,77.67,42.899   c21.471,9.079,43.484,16.33,65.937,21.721c11.618-5.799,22.724-12.444,33.256-19.882C372.84,460.251,343.074,451.6,314.352,439.449   z"/>
	<path style="fill:#FCF8F2;" d="M364.513,233.384c-53.567-53.556-83.061-124.77-83.061-200.528c0-10.563,0.575-21.042,1.703-31.386   c-8.588-0.899-17.302-1.379-26.12-1.41c-1.128,10.814-1.703,21.763-1.703,32.796c0,82.727,32.211,160.502,90.709,219   c42.69,42.69,95.651,71.391,153.314,83.772c2.696-8.243,4.984-16.675,6.833-25.263   C452.892,299.185,403.923,272.804,364.513,233.384z"/>
</g>
<path style="fill:#FFD15C;" d="M203.247,204.609c13.386,30.295,25.875,60.713,37.494,91.219  c15.781,41.465,29.957,83.081,42.55,124.772c-22.346-37.382-43.571-75.884-63.603-115.47  c-14.733-29.129-28.813-58.845-42.199-89.139C145.91,144.523,119.31,72.363,97.445,0  C136.225,64.889,171.669,133.141,203.247,204.609z"/>
<path style="fill:#EDBB4C;" d="M97.445,0l185.847,420.6c-22.346-37.382-43.571-75.884-63.603-115.47  c-14.733-29.129-28.813-58.845-42.199-89.139C145.91,144.523,119.31,72.363,97.445,0z"/>
<path style="fill:#FF525D;" d="M220.878,249.806l-21.844,9.652c-5.687,2.513-12.335-0.061-14.848-5.747l-30.079-68.072  c-2.513-5.687,0.061-12.335,5.747-14.848l21.844-9.652c5.687-2.513,12.335,0.061,14.848,5.747l30.079,68.072  C229.138,240.645,226.566,247.293,220.878,249.806z"/>
<path style="fill:#EF4152;" d="M196.966,245.731l-28.354-64.168c-2.989-6.765,0.072-14.672,6.837-17.661l-13.641,6.027  c-6.765,2.989-9.826,10.896-6.837,17.661l28.354,64.168c2.989,6.765,10.896,9.826,17.661,6.837l13.641-6.027  C207.862,255.558,199.955,252.496,196.966,245.731z"/>
<path style="fill:#F9EED7;" d="M240.741,295.828c15.781,41.465,29.957,83.081,42.55,124.772  c-22.346-37.382-43.571-75.884-63.603-115.47L240.741,295.828z"/>
<path style="fill:#FF6E7C;" d="M198.185,206.846l-1.992,0.88c-2.902,1.283-6.296-0.03-7.579-2.934l-9.419-21.317  c-1.283-2.902,0.03-6.296,2.934-7.579l1.992-0.88c2.902-1.283,6.296,0.03,7.579,2.934l9.419,21.317  C202.401,202.17,201.088,205.564,198.185,206.846z"/>
<g>
	<path style="fill:#E8DBC4;" d="M230.214,300.479L283.291,420.6c-22.346-37.382-43.571-75.884-63.603-115.47L230.214,300.479z"/>
	<path style="fill:#E8DBC4;" d="M275.715,420.601h-49.21c-12.318-8.588-24.177-17.856-35.575-27.771h41.687   C246.377,403.017,260.754,412.285,275.715,420.601z"/>
</g>
<g>
</g>
<g>
</g>
<g>
</g>
<g>
</g>
<g>
</g>
<g>
</g>
<g>
</g>
<g>
</g>
<g>
</g>
<g>
</g>
<g>
</g>
<g>
</g>
<g>
</g>
<g>
</g>
<g>
</g>
</svg>
