<?xml version="1.0" encoding="iso-8859-1"?>
<!-- Generator: Adobe Illustrator 19.0.0, SVG Export Plug-In . SVG Version: 6.00 Build 0)  -->
<svg xmlns="http://www.w3.org/2000/svg" xmlns:xlink="http://www.w3.org/1999/xlink" version="1.1" id="Capa_1" x="0px" y="0px" viewBox="0 0 512 512" style="enable-background:new 0 0 512 512;" xml:space="preserve">
<path style="fill:#FFD15C;" d="M512,256c0,43.959-11.086,85.347-30.615,121.501c-1.055,1.954-2.132,3.897-3.239,5.82  c-10.428,18.139-23.009,34.879-37.397,49.883c-5.371,5.601-10.992,10.951-16.844,16.05h-0.01  c-17.314,15.057-36.686,27.836-57.626,37.836C332.884,503.056,295.487,512,256,512c-51.816,0-100.028-15.391-140.33-41.848  c-9.676-6.353-18.881-13.343-27.585-20.898c-5.851-5.099-11.473-10.449-16.844-16.05C56.853,418.2,44.272,401.46,33.865,383.31  C12.319,345.809,0,302.341,0,256c0-20.198,2.341-39.842,6.76-58.692c0,0,0,0,0-0.01c7.68-32.737,21.65-63.049,40.563-89.61  c7.252-10.188,15.235-19.822,23.865-28.829c21.598-22.528,47.271-41.117,75.849-54.575C180.099,8.704,217.025,0,256,0  s75.901,8.704,108.962,24.283c28.578,13.458,54.251,32.047,75.849,54.575c8.631,9.007,16.614,18.631,23.876,28.818v0.01  C494.477,149.535,512,200.725,512,256z"/>
<g>
	<path style="fill:#FFDC8D;" d="M464.807,186.81L464.807,186.81c0-10.387-8.42-18.807-18.807-18.807h-6.269   c-10.387,0-18.807-8.42-18.807-18.807l0,0c0-10.387-8.42-18.807-18.807-18.807H113.739c-10.387,0-18.807,8.42-18.807,18.807l0,0   c0,10.387,8.42,18.807,18.807,18.807h115.978c10.387,0,18.807,8.42,18.807,18.807l0,0c0,10.387-8.42,18.807-18.807,18.807h-52.822   c-10.387,0-18.807,8.42-18.807,18.807l0,0c0,10.387,8.42,18.807,18.807,18.807h15.957c10.387,0,18.807,8.42,18.807,18.807l0,0   c0,10.387-8.42,18.807-18.807,18.807h-57.172c-10.387,0-18.807,8.42-18.807,18.807l0,0c0,10.387,8.42,18.807,18.807,18.807h270.857   c10.387,0,18.807-8.42,18.807-18.807l0,0c0-10.387,8.42-18.807,18.807-18.807H446c10.387,0,18.807-8.42,18.807-18.807l0,0   c0-10.387-8.42-18.807-18.807-18.807h-34.48c-10.387,0-18.807-8.42-18.807-18.807l0,0c0-10.387,8.42-18.807,18.807-18.807H446   C456.386,205.617,464.807,197.196,464.807,186.81z"/>
	<path style="fill:#FFDC8D;" d="M481.384,377.501c-1.055,1.954-2.132,3.897-3.239,5.82c-10.428,18.139-23.009,34.879-37.397,49.883   c-5.371,5.601-10.992,10.951-16.844,16.05h-0.01c-17.314,15.057-36.686,27.836-57.626,37.836h-7.931   c-5.193,0-9.895-2.1-13.302-5.507c-3.396-3.406-5.507-8.108-5.507-13.302c0-10.386,8.422-18.808,18.808-18.808h5.224   c5.193,0,9.895-2.1,13.302-5.507c3.396-3.406,5.507-8.108,5.507-13.302c0-10.386-8.422-18.808-18.808-18.808h-51.263   c-5.193,0-9.895-2.1-13.302-5.507c-3.396-3.406-5.507-8.108-5.507-13.302c0-10.386,8.422-18.808,18.808-18.808h158.49   C474.718,374.241,478.365,375.442,481.384,377.501z"/>
</g>
<path style="fill:#C69A6A;" d="M478.145,383.321c-14.315,24.91-32.695,47.188-54.241,65.933c-0.428,0.031-0.846,0.052-1.275,0.052  c-3.574,0.01-7.137-1.358-9.864-4.086c-5.444-5.444-5.444-14.273,0-19.728l5.59-5.58l-105.221-88.242L54.575,114.803  c-2.644-2.215-5.068-4.598-7.252-7.116c-22.089-25.266-21.462-64.125,3.062-88.649c26.958-26.958,71.252-25.036,95.765,4.19  l0.888,1.055l215.98,257.515l88.242,105.2l5.58-5.569c2.727-2.727,6.29-4.096,9.864-4.086c3.574-0.01,7.137,1.358,9.864,4.086  C477.163,382.025,477.686,382.652,478.145,383.321z"/>
<path style="fill:#B58657;" d="M440.748,433.204c-5.371,5.601-10.992,10.951-16.844,16.05c-0.01,0.01-0.01,0-0.01,0  c-3.981,0.355-8.077-0.982-11.118-4.033c-5.454-5.444-5.454-14.273,0-19.728l5.569-5.58L54.575,114.792  c-2.644-2.215-5.057-4.587-7.252-7.105C36.718,95.556,31.347,80.29,31.347,64.972c0-16.562,6.29-33.186,19.038-45.934  c-10.125,10.125-0.533,36.133,20.804,59.82c2.978,3.302,6.175,6.562,9.592,9.728l346.99,321.912l-2.382,2.382  c-2.33,2.33,0.199,8.631,5.642,14.085C434.301,430.237,437.896,432.462,440.748,433.204z"/>
<polygon style="fill:#FF525D;" points="363.014,281.796 451.263,387.003 418.354,419.911 313.139,331.672 "/>
<polygon style="fill:#EF4152;" points="427.767,410.499 418.354,419.911 313.139,331.672 327.411,317.399 "/>
<path style="fill:#D3AA81;" d="M193.424,110.907l-4.087,3.477c-4.102,3.49-10.257,2.994-13.748-1.109l-58.734-69.032  c-3.49-4.102-2.994-10.257,1.109-13.748l4.087-3.477c4.102-3.49,10.257-2.994,13.748,1.109l58.734,69.032  C198.023,101.262,197.526,107.417,193.424,110.907z"/>
<path style="fill:#C69A6A;" d="M464.687,107.687c-2.194,2.518-4.618,4.901-7.262,7.116l-258.57,216.869L93.644,419.913l5.59,5.58  c5.444,5.454,5.444,14.284,0,19.728c-2.727,2.727-6.301,4.096-9.874,4.086c-0.428,0-0.846-0.021-1.275-0.052  c-21.546-18.745-39.926-41.023-54.22-65.944c0.449-0.658,0.972-1.285,1.567-1.881c2.717-2.727,6.29-4.096,9.864-4.086  c3.563-0.01,7.137,1.358,9.864,4.086l5.569,5.569l88.252-105.2l215.98-257.515l0.888-1.055c24.513-29.226,68.807-31.148,95.765-4.19  C486.139,43.562,486.766,82.422,464.687,107.687z"/>
<path style="fill:#B58657;" d="M480.653,64.972c0,15.308-5.371,30.574-15.966,42.705v0.01c-2.205,2.518-4.618,4.89-7.262,7.105  L93.644,419.913l5.58,5.58c5.444,5.454,5.444,14.284,0,19.728c-3.051,3.051-7.158,4.399-11.139,4.033  c-5.851-5.099-11.473-10.449-16.844-16.05c2.853-0.742,6.447-2.967,9.728-6.238c5.444-5.454,7.973-11.755,5.642-14.085l-2.382-2.382  l346.99-321.912c3.417-3.166,6.614-6.426,9.592-9.728c21.337-23.688,30.919-49.695,20.804-59.82  C474.363,31.786,480.653,48.41,480.653,64.972z"/>
<polygon style="fill:#FF525D;" points="148.983,281.796 60.734,387.003 93.642,419.911 198.858,331.672 "/>
<polygon style="fill:#EF4152;" points="84.23,410.499 93.642,419.911 198.858,331.672 184.585,317.399 "/>
<path style="fill:#D3AA81;" d="M318.573,110.907l4.087,3.477c4.102,3.49,10.257,2.994,13.748-1.109l58.734-69.032  c3.49-4.102,2.994-10.257-1.109-13.748l-4.087-3.477c-4.102-3.49-10.257-2.994-13.748,1.109l-58.734,69.032  C313.974,101.262,314.47,107.417,318.573,110.907z"/>
<path style="fill:#E8DBC4;" d="M396.194,63.232c-0.569,14.305-6.313,28.449-17.239,39.375s-25.07,16.669-39.375,17.239  c-1.204,0.051-2.408,0.059-3.612,0.037c-14.684-0.313-29.267-6.072-40.469-17.275c-11.203-11.203-16.962-25.792-17.275-40.469  c-0.022-1.205-0.015-2.408,0.037-3.612c0.569-14.305,6.313-28.449,17.239-39.375c10.917-10.928,25.062-16.67,39.374-17.24  c1.197-0.044,2.408-0.059,3.612-0.029c1.211,0.022,2.416,0.088,3.627,0.197c13.429,1.095,26.566,6.795,36.842,17.07  c10.277,10.277,15.977,23.413,17.07,36.842c0.11,1.212,0.176,2.416,0.197,3.628C396.252,60.824,396.238,62.027,396.194,63.232z"/>
<path style="fill:#F9EED7;" d="M396.026,55.992c-1.482,9.517-5.897,18.669-13.232,26.004c-8.729,8.729-20.034,13.319-31.463,13.772  c-0.963,0.044-1.927,0.051-2.89,0.029c-11.728-0.248-23.384-4.846-32.331-13.801c-8.955-8.947-13.553-20.603-13.801-32.331  c-0.022-0.963-0.015-1.927,0.029-2.89c0.452-11.429,5.043-22.734,13.772-31.463c7.335-7.335,16.487-11.75,26.004-13.232  c13.429,1.095,26.566,6.795,36.842,17.07C389.231,29.425,394.931,42.563,396.026,55.992z"/>
<g>
	<path style="fill:#C1BBA0;" d="M338.482,1.88v0.007c-0.144,16.028-6.47,31.101-17.81,42.442s-26.412,17.663-42.442,17.81h-0.005   c-0.026-1.205-0.015-2.408,0.033-3.613c15.055-0.155,29.206-6.101,39.86-16.753c10.652-10.652,16.598-24.805,16.751-39.86   C336.072,1.865,337.278,1.853,338.482,1.88z"/>
	<path style="fill:#C1BBA0;" d="M396.191,63.232c-15.055,0.155-29.208,6.101-39.86,16.753   c-10.654,10.652-16.601,24.805-16.753,39.86c-1.205,0.048-2.408,0.061-3.613,0.033v-0.002c0.144-16.033,6.47-31.107,17.81-42.447   c11.34-11.34,26.414-17.666,42.444-17.81h0.005C396.25,60.824,396.239,62.027,396.191,63.232z"/>
</g>
<g>
	<path style="fill:#EF4152;" d="M386.923,69.057c-0.388,0-0.778-0.124-1.108-0.38c-0.788-0.612-0.93-1.747-0.317-2.535   c1.744-2.242,1.339-5.486-0.904-7.23c-0.788-0.612-0.93-1.747-0.317-2.535c0.612-0.788,1.747-0.93,2.535-0.317   c3.815,2.968,4.505,8.486,1.538,12.301C387.994,68.818,387.462,69.057,386.923,69.057z"/>
	<path style="fill:#EF4152;" d="M377.803,71.105c-0.297,0-0.598-0.073-0.876-0.228c-0.872-0.485-1.186-1.584-0.702-2.457   c0.581-1.045,0.72-2.255,0.391-3.404c-0.329-1.149-1.085-2.103-2.131-2.683c-0.872-0.485-1.186-1.584-0.702-2.457   c0.485-0.872,1.584-1.187,2.457-0.702c1.889,1.049,3.256,2.772,3.85,4.849c0.594,2.078,0.343,4.262-0.706,6.151   C379.053,70.77,378.437,71.105,377.803,71.105z"/>
	<path style="fill:#EF4152;" d="M369.088,74.883c-0.189,0-0.382-0.03-0.572-0.093c-0.947-0.316-1.458-1.339-1.143-2.285   c0.336-1.009,0.26-2.09-0.216-3.041c-0.475-0.952-1.294-1.661-2.303-1.998c-0.947-0.316-1.458-1.339-1.143-2.285   c0.316-0.947,1.339-1.459,2.285-1.142c1.925,0.642,3.485,1.995,4.393,3.81c0.907,1.815,1.054,3.874,0.412,5.799   C370.549,74.404,369.845,74.883,369.088,74.883z"/>
	<path style="fill:#EF4152;" d="M360.987,80.407c-0.067,0-0.134-0.004-0.202-0.011c-0.992-0.11-1.706-1.003-1.596-1.995   c0.227-2.039-1.248-3.882-3.286-4.109c-0.992-0.11-1.706-1.003-1.596-1.995c0.111-0.992,1.005-1.706,1.995-1.596   c4.019,0.446,6.926,4.079,6.478,8.098C362.678,79.724,361.895,80.407,360.987,80.407z"/>
	<path style="fill:#EF4152;" d="M354.088,87.302c-0.908,0-1.691-0.683-1.793-1.607c-0.227-2.039-2.07-3.512-4.109-3.286   c-0.993,0.11-1.885-0.604-1.995-1.596c-0.11-0.992,0.604-1.885,1.596-1.995c4.017-0.446,7.652,2.46,8.098,6.478   c0.11,0.992-0.604,1.885-1.596,1.995C354.221,87.299,354.154,87.302,354.088,87.302z"/>
	<path style="fill:#EF4152;" d="M348.988,94.982c-0.757,0-1.461-0.479-1.714-1.236c-0.336-1.009-1.046-1.828-1.998-2.303   c-0.952-0.475-2.031-0.553-3.041-0.216c-0.947,0.316-1.97-0.196-2.285-1.142c-0.316-0.947,0.196-1.97,1.143-2.285   c1.925-0.642,3.984-0.495,5.799,0.412c1.815,0.907,3.168,2.467,3.81,4.393c0.316,0.947-0.196,1.97-1.143,2.285   C349.37,94.953,349.177,94.982,348.988,94.982z"/>
	<path style="fill:#EF4152;" d="M345.474,103.438c-0.635,0-1.251-0.335-1.581-0.93c-0.581-1.045-1.534-1.802-2.683-2.131   c-1.149-0.328-2.358-0.189-3.404,0.391c-0.872,0.485-1.972,0.17-2.457-0.702c-0.485-0.872-0.17-1.972,0.702-2.457   c1.889-1.049,4.073-1.301,6.151-0.706c2.077,0.594,3.8,1.961,4.849,3.85c0.485,0.872,0.17,1.972-0.702,2.457   C346.071,103.364,345.77,103.438,345.474,103.438z"/>
	<path style="fill:#EF4152;" d="M343.559,112.424c-0.538,0-1.071-0.239-1.427-0.697c-1.744-2.242-4.987-2.648-7.231-0.904   c-0.788,0.612-1.923,0.47-2.535-0.317c-0.612-0.788-0.47-1.923,0.317-2.535c3.815-2.968,9.333-2.278,12.301,1.537   c0.612,0.788,0.47,1.923-0.317,2.535C344.338,112.299,343.947,112.424,343.559,112.424z"/>
	<path style="fill:#EF4152;" d="M340.619,14.207c-0.538,0-1.071-0.239-1.427-0.698c-0.845-1.087-2.063-1.778-3.427-1.95   c-1.367-0.171-2.716,0.201-3.802,1.046c-0.788,0.612-1.923,0.47-2.535-0.317c-0.612-0.788-0.47-1.923,0.317-2.535   c1.848-1.438,4.146-2.069,6.469-1.778c2.323,0.29,4.394,1.468,5.832,3.317c0.612,0.788,0.47,1.923-0.317,2.535   C341.397,14.083,341.007,14.207,340.619,14.207z"/>
	<path style="fill:#EF4152;" d="M337.353,24.548c-0.635,0-1.251-0.335-1.581-0.93c-1.2-2.158-3.93-2.938-6.089-1.74   c-0.872,0.485-1.972,0.17-2.457-0.702c-0.485-0.872-0.17-1.972,0.702-2.457c3.9-2.166,8.835-0.757,11.001,3.143   c0.485,0.872,0.17,1.972-0.702,2.457C337.95,24.475,337.649,24.548,337.353,24.548z"/>
	<path style="fill:#EF4152;" d="M332.353,34.485c-0.757,0-1.461-0.479-1.714-1.236c-0.336-1.009-1.046-1.828-1.998-2.303   c-0.952-0.475-2.031-0.553-3.041-0.216c-0.947,0.316-1.97-0.196-2.285-1.142c-0.316-0.947,0.196-1.97,1.143-2.285   c1.926-0.642,3.985-0.495,5.799,0.412c1.815,0.907,3.168,2.467,3.81,4.393c0.316,0.947-0.196,1.97-1.143,2.285   C332.734,34.456,332.542,34.485,332.353,34.485z"/>
	<path style="fill:#EF4152;" d="M325.605,43.808c-0.908,0-1.691-0.683-1.793-1.607c-0.227-2.039-2.069-3.513-4.109-3.286   c-0.993,0.11-1.885-0.604-1.995-1.596c-0.11-0.992,0.604-1.885,1.596-1.995c4.018-0.446,7.652,2.46,8.098,6.478   c0.11,0.992-0.604,1.885-1.596,1.995C325.739,43.804,325.672,43.808,325.605,43.808z"/>
	<path style="fill:#EF4152;" d="M317.493,51.925c-0.067,0-0.134-0.004-0.202-0.011c-0.992-0.11-1.706-1.003-1.596-1.995   c0.11-0.987-0.171-1.959-0.792-2.735c-0.621-0.776-1.507-1.263-2.494-1.373c-0.992-0.11-1.706-1.003-1.596-1.995   c0.111-0.992,1.006-1.705,1.995-1.596c1.947,0.216,3.693,1.178,4.916,2.707c1.224,1.53,1.778,3.444,1.562,5.391   C319.184,51.242,318.401,51.925,317.493,51.925z"/>
	<path style="fill:#EF4152;" d="M308.591,58.247c-0.189,0-0.382-0.03-0.572-0.093c-0.947-0.316-1.458-1.339-1.143-2.285   c0.336-1.009,0.26-2.09-0.216-3.041c-0.476-0.951-1.294-1.661-2.303-1.998c-0.947-0.316-1.458-1.339-1.143-2.285   c0.316-0.947,1.337-1.458,2.285-1.143c1.925,0.642,3.485,1.995,4.393,3.81c0.907,1.815,1.054,3.874,0.412,5.799   C310.052,57.768,309.347,58.247,308.591,58.247z"/>
	<path style="fill:#EF4152;" d="M298.913,62.984c-0.297,0-0.598-0.073-0.876-0.228c-0.872-0.485-1.186-1.584-0.702-2.457   c0.581-1.045,0.72-2.255,0.391-3.404c-0.328-1.149-1.085-2.103-2.131-2.683c-0.872-0.485-1.186-1.584-0.702-2.457   c0.485-0.872,1.584-1.187,2.457-0.702c1.889,1.049,3.256,2.772,3.85,4.849c0.594,2.078,0.343,4.262-0.706,6.151   C300.164,62.649,299.548,62.984,298.913,62.984z"/>
	<path style="fill:#EF4152;" d="M288.706,66.118c-0.388,0-0.778-0.124-1.108-0.38c-0.788-0.612-0.93-1.747-0.317-2.535   c0.845-1.087,1.216-2.437,1.046-3.802c-0.17-1.366-0.863-2.583-1.949-3.428c-0.788-0.612-0.93-1.747-0.317-2.535   c0.612-0.788,1.747-0.93,2.535-0.317c1.848,1.438,3.026,3.509,3.317,5.832s-0.342,4.621-1.778,6.469   C289.777,65.878,289.244,66.118,288.706,66.118z"/>
</g>
<g>
	<circle style="fill:#FCF8F2;" cx="359.748" cy="37.453" r="10.583"/>
	<circle style="fill:#FCF8F2;" cx="350.26" cy="20.667" r="6.204"/>
</g>
<path style="fill:#34ABE0;" d="M449.066,295.56c-8.798,25.872-52.652,39.037-96.35,45.725c-1.327,0.199-2.644,0.397-3.971,0.585  c-41.388,5.987-81.68,6.322-90.843,6.311c0.543,0.219,1.087,0.47,1.63,0.731c13.166,6.134,24.169,17.011,30.218,31.483  c1.735,4.159,2.978,8.401,3.741,12.654c4.284,23.792-6.144,48.128-26.53,61.377c-0.021,0.01-0.031,0.021-0.052,0.031  c-3.009,1.964-6.238,3.678-9.665,5.11c-42.841,21.055-93.372,25.976-141.573,10.585C46.007,424.396,0,345.569,0,256  c0-20.198,2.341-39.842,6.76-58.692c0,0,0,0,0-0.01c18.578-33.834,46.404-60.134,78.932-76.999  c47.898-24.858,105.994-29.257,159.817-7.168c68.2,28.003,111.386,91.105,117.269,159.838c0,0,5.507,0.303,13.897,0.92  c16.886,1.264,45.464,3.835,64.376,7.931C447.237,283.167,451.103,289.573,449.066,295.56z"/>
<g>
	<path style="fill:#279FC9;" d="M352.716,341.285c-42.757,6.552-85.358,6.907-94.814,6.896c0.543,0.219,1.087,0.47,1.63,0.731   l-29.048-5.12c51.378-4.472,99.579-29.79,132.295-70.823C373.781,300.189,363.729,324.838,352.716,341.285z"/>
	<path style="fill:#279FC9;" d="M266.961,454.426c-0.021,0.01-0.031,0.021-0.052,0.031c-3.009,1.964-6.238,3.678-9.665,5.11   c-42.841,21.055-93.372,25.976-141.573,10.585C46.007,424.396,0,345.569,0,256c0-20.198,2.341-39.852,6.76-58.702   c18.578-33.834,46.404-60.134,78.932-76.999c-32.037,31.357-51.911,75.076-51.911,123.444c0,95.41,77.354,172.753,172.763,172.753   c31.702,0,61.409-8.537,86.946-23.448C297.775,416.841,287.347,441.177,266.961,454.426z"/>
</g>
<circle style="fill:#5C5E70;" cx="229.784" cy="404.543" r="19.764"/>
<g>
	<circle style="fill:#78CAEF;" cx="254.955" cy="187.664" r="25.426"/>
	<circle style="fill:#78CAEF;" cx="226.043" cy="154.582" r="15.326"/>
</g>
<g>
</g>
<g>
</g>
<g>
</g>
<g>
</g>
<g>
</g>
<g>
</g>
<g>
</g>
<g>
</g>
<g>
</g>
<g>
</g>
<g>
</g>
<g>
</g>
<g>
</g>
<g>
</g>
<g>
</g>
</svg>
