<?xml version="1.0" encoding="iso-8859-1"?>
<!-- Generator: Adobe Illustrator 19.0.0, SVG Export Plug-In . SVG Version: 6.00 Build 0)  -->
<svg xmlns="http://www.w3.org/2000/svg" xmlns:xlink="http://www.w3.org/1999/xlink" version="1.1" id="Capa_1" x="0px" y="0px" viewBox="0 0 512 512" style="enable-background:new 0 0 512 512;" xml:space="preserve">
<path style="fill:#C69A6A;" d="M512,256c0,93.624-50.348,175.492-125.457,219.999c-7.197,4.266-14.613,8.188-22.248,11.745  c-32.762,15.27-69.3,23.802-107.84,23.802c-56.262,0-108.278-18.18-150.49-48.992c-1.617-1.179-3.223-2.378-4.808-3.599  c-23.343-17.888-43.505-39.719-59.516-64.491C20.424,361.619,6.541,323.6,2.285,282.712C1.378,273.93,0.909,265.022,0.909,256  c0-130.829,98.307-238.69,225.089-253.741c9.982-1.2,20.152-1.804,30.457-1.804c31.114,0,60.935,5.559,88.513,15.75  c2.357,0.866,4.683,1.763,6.999,2.701l0.01,0.01c12.454,5.007,24.418,10.983,35.797,17.826C462.195,81.405,512,162.887,512,256z"/>
<g>
	<path style="fill:#D3AA81;" d="M87.46,353.034c2.024,2.023,3.275,4.819,3.275,7.906c0,6.175-4.996,11.171-11.171,11.171h-1.095   c-3.087,0-5.883,1.252-7.906,3.275c-2.024,2.024-3.275,4.819-3.275,7.906c0,6.164-4.996,11.171-11.171,11.171H41.639   C20.424,361.619,6.541,323.6,2.285,282.712h51.203c3.087,0,5.883,1.252,7.906,3.275c2.024,2.023,3.275,4.819,3.275,7.896   c0,6.175,4.996,11.181,11.171,11.181h3.724c6.175,0,11.171,5.007,11.171,11.171c0,6.175-4.996,11.181-11.171,11.181H59.079   c-3.087,0-5.883,1.252-7.896,3.275c-2.024,2.013-3.275,4.808-3.275,7.896c0,6.175,4.996,11.171,11.171,11.171h20.485   C82.652,349.76,85.447,351.011,87.46,353.034z"/>
	<path style="fill:#D3AA81;" d="M387.773,36.742c-2.034,2.754-5.299,4.527-8.97,4.527h-3.108c-3.087,0-5.883,1.252-7.906,3.275   c-2.013,2.013-3.265,4.808-3.265,7.896c0,6.175-5.007,11.171-11.181,11.171h-90.255c-3.087,0-5.883-1.252-7.906-3.275   c-2.013-2.013-3.265-4.808-3.265-7.896c0-6.175,4.996-11.171,11.171-11.171h3.108c3.087,0,5.883-1.252,7.906-3.275   c2.013-2.024,3.265-4.819,3.265-7.906c0-6.164-4.996-11.171-11.171-11.171h-30.467c-3.077,0-5.872-1.252-7.896-3.275   c-2.024-2.024-3.275-4.808-3.275-7.896c0-1.992,0.522-3.87,1.439-5.486c9.982-1.2,20.152-1.804,30.457-1.804   c31.114,0,60.935,5.559,88.513,15.75c1.888,1.638,4.329,2.639,6.999,2.701l0.01,0.01C364.43,23.923,376.394,29.899,387.773,36.742z   "/>
	<path style="fill:#D3AA81;" d="M216.191,84.724L216.191,84.724c0-6.172-5.003-11.175-11.175-11.175h-94.172   c-6.172,0-11.175,5.003-11.175,11.175l0,0c0,6.172,5.003,11.175,11.175,11.175h30.461c6.172,0,11.175,5.003,11.175,11.175l0,0   c0,6.172-5.003,11.175-11.175,11.175h-3.105c-6.172,0-11.175,5.003-11.175,11.175l0,0c0,6.172,5.003,11.175,11.175,11.175h90.257   c6.172,0,11.175-5.003,11.175-11.175l0,0c0-6.172,5.003-11.175,11.175-11.175h3.105c6.172,0,11.175-5.003,11.175-11.175l0,0   c0-6.172-5.003-11.175-11.175-11.175h-26.545C221.194,95.899,216.191,90.896,216.191,84.724z"/>
	<path style="fill:#D3AA81;" d="M381.358,326.531L381.358,326.531c0-6.172,5.003-11.175,11.175-11.175h36.011   c6.172,0,11.175-5.003,11.175-11.175l0,0c0-6.172-5.003-11.175-11.175-11.175H322.381c-6.172,0-11.175,5.003-11.175,11.175l0,0   c0,6.172-5.003,11.175-11.175,11.175h-36.011c-6.172,0-11.175,5.003-11.175,11.175l0,0c0,6.172,5.003,11.175,11.175,11.175h53.396   c6.172,0,11.175,5.003,11.175,11.175l0,0c0,6.172,5.003,11.175,11.175,11.175h106.163c6.172,0,11.175-5.003,11.175-11.175l0,0   c0-6.172-5.003-11.175-11.175-11.175h-53.396C386.361,337.706,381.358,332.702,381.358,326.531z"/>
</g>
<path style="fill:#B58657;" d="M460.542,234.03H39.153c-7.873,0-14.255,6.382-14.255,14.255l0,0c0,7.873,6.382,14.255,14.255,14.255  h421.39c7.873,0,14.255-6.382,14.255-14.255l0,0C474.798,240.413,468.415,234.03,460.542,234.03z"/>
<path style="fill:#5C5E70;" d="M418.909,247.086c51.411,0,93.087-41.677,93.087-93.087s-41.677-93.087-93.087-93.087h-61.015  v186.174h61.015V247.086z"/>
<circle style="fill:#494B5B;" cx="357.889" cy="153.996" r="93.092"/>
<path style="fill:#F9EED7;" d="M357.89,153.083c0,3.129-1.262,5.966-3.317,8.021c-2.055,2.055-4.892,3.327-8.021,3.327h-131.83  c-6.258,0-11.338-5.08-11.338-11.348c0-3.129,1.273-5.966,3.317-8.011c2.055-2.055,4.892-3.327,8.021-3.327h131.83  C352.821,141.745,357.89,146.825,357.89,153.083z"/>
<path style="fill:#E8DBC4;" d="M357.89,153.083c0,3.129-1.262,5.966-3.317,8.021c-2.055,2.055-4.892,3.327-8.021,3.327h-131.83  c-6.258,0-11.338-5.08-11.338-11.348H357.89z"/>
<path style="fill:#5C5E70;" d="M154.102,247.086c51.411,0,93.087-41.677,93.087-93.087s-41.677-93.087-93.087-93.087H93.087v186.174  h61.015V247.086z"/>
<circle style="fill:#494B5B;" cx="93.092" cy="153.996" r="93.092"/>
<path style="fill:#5C5E70;" d="M386.543,332.205v143.794c-7.197,4.266-14.613,8.188-22.248,11.745  c-32.762,15.27-69.3,23.802-107.84,23.802c-25.628,0-50.369-3.776-73.712-10.796c-27.901-8.386-53.79-21.424-76.778-38.196  c-1.617-1.179-3.223-2.378-4.808-3.599V332.205H386.543z"/>
<path style="fill:#494B5B;" d="M182.742,347.371v153.38c-27.901-8.386-53.79-21.424-76.778-38.196  c-1.617-1.179-3.223-2.378-4.808-3.599V347.371H182.742z"/>
<ellipse style="fill:#5C5E70;" cx="243.843" cy="332.21" rx="142.699" ry="95.97"/>
<g>
	<ellipse style="fill:#494B5B;" cx="243.843" cy="332.21" rx="18.413" ry="12.383"/>
	<path style="fill:#494B5B;" d="M243.846,258.145c-48.022,0-90.577,18.246-109.853,43.812   c22.328-17.437,56.903-28.862,94.902-28.862c65.476,0,120.792,33.918,120.792,74.066c0,10.702-3.932,20.961-10.938,30.253   c16.144-12.607,25.888-28.356,25.888-45.203C364.638,292.062,309.322,258.145,243.846,258.145z"/>
	<path style="fill:#494B5B;" d="M386.543,365.263v35.109c-7.739,13.09-19.63,25.043-35.244,35.171   c-28.778,18.671-66.943,28.955-107.454,28.955s-78.666-10.284-107.444-28.955c-15.614-10.128-27.505-22.081-35.244-35.171v-35.109   c1.638,49.148,65.013,88.805,142.688,88.805S384.905,414.411,386.543,365.263z"/>
	<path style="fill:#494B5B;" d="M386.543,403.16v35.109c-7.739,13.09-19.63,25.043-35.244,35.171   c-28.778,18.67-66.943,28.955-107.454,28.955S165.177,492.111,136.4,473.44c-15.614-10.128-27.505-22.081-35.244-35.171V403.16   c1.638,49.148,65.013,88.805,142.688,88.805S384.905,452.308,386.543,403.16z"/>
	<path style="fill:#494B5B;" d="M101.155,441.057c0.25,7.416,1.898,14.613,4.808,21.497c-1.617-1.179-3.223-2.378-4.808-3.599   V441.057z"/>
	<path style="fill:#494B5B;" d="M386.543,441.057v34.942c-7.197,4.266-14.613,8.188-22.248,11.745   C377.885,474.194,385.979,458.204,386.543,441.057z"/>
</g>
<path style="fill:#5C5E70;" d="M104.756,198.06c-30.778,0-55.729-24.951-55.729-55.729c0-12.412,4.063-23.873,10.924-33.135  c-13.706,10.153-22.592,26.439-22.592,44.805c0,30.778,24.951,55.729,55.729,55.729c18.366,0,34.652-8.888,44.805-22.592  C128.629,193.997,117.168,198.06,104.756,198.06z"/>
<path style="fill:#F9EED7;" d="M100.258,153.083c0,3.129-1.262,5.966-3.317,8.021c-2.055,2.055-4.892,3.327-8.021,3.327H69.447  c-6.269,0-11.348-5.08-11.348-11.348c0-3.129,1.273-5.966,3.327-8.011c2.044-2.055,4.881-3.327,8.021-3.327h19.474  C95.189,141.745,100.258,146.825,100.258,153.083z"/>
<g>
	<path style="fill:#797B89;" d="M218.684,135.289h-21.524c-3.567,0-6.677-2.427-7.541-5.888l-1.329-5.314   c-1.227-4.906,2.485-9.659,7.541-9.659h21.524c3.567,0,6.677,2.427,7.541,5.888l1.329,5.314   C227.451,130.536,223.74,135.289,218.684,135.289z"/>
	<path style="fill:#797B89;" d="M488.046,135.289h-21.524c-3.567,0-6.677-2.427-7.541-5.888l-1.329-5.314   c-1.227-4.906,2.485-9.659,7.541-9.659h21.524c3.567,0,6.677,2.427,7.541,5.888l1.329,5.314   C496.815,130.536,493.104,135.289,488.046,135.289z"/>
	<circle style="fill:#797B89;" cx="304.777" cy="326.859" r="17.732"/>
	<circle style="fill:#797B89;" cx="264.453" cy="301.127" r="10.647"/>
</g>
<path style="fill:#E8DBC4;" d="M58.099,153.083h42.16c0,3.129-1.262,5.966-3.317,8.021c-2.055,2.055-4.892,3.327-8.021,3.327H69.447  C63.178,164.431,58.099,159.352,58.099,153.083z"/>
<g>
</g>
<g>
</g>
<g>
</g>
<g>
</g>
<g>
</g>
<g>
</g>
<g>
</g>
<g>
</g>
<g>
</g>
<g>
</g>
<g>
</g>
<g>
</g>
<g>
</g>
<g>
</g>
<g>
</g>
</svg>
