<?xml version="1.0" encoding="iso-8859-1"?>
<!-- Generator: Adobe Illustrator 19.0.0, SVG Export Plug-In . SVG Version: 6.00 Build 0)  -->
<svg xmlns="http://www.w3.org/2000/svg" xmlns:xlink="http://www.w3.org/1999/xlink" version="1.1" id="Capa_1" x="0px" y="0px" viewBox="0 0 512 512" style="enable-background:new 0 0 512 512;" xml:space="preserve">
<path style="fill:#4BC999;" d="M512,256c0,9.143-0.481,18.181-1.421,27.073c-0.063,0.69-0.146,1.379-0.219,2.069  c-1.16,10.23-2.926,20.261-5.245,30.083c-10.961,46.268-34.471,87.667-66.738,120.424c-4.754,4.827-9.697,9.467-14.827,13.908  c-10.428,9.038-21.598,17.251-33.405,24.524c-0.01,0-0.01,0.01-0.01,0.01c-3.908,2.403-7.879,4.702-11.912,6.896h-0.01  C341.891,500.767,300.262,512,256,512c-35.432,0-69.183-7.199-99.871-20.219h-0.01c-18.16-7.701-35.234-17.439-50.97-28.923  c-14.064-10.282-27.042-21.953-38.724-34.826c-6.134-6.74-11.901-13.814-17.283-21.18c-4.618-6.332-8.965-12.884-12.988-19.634  c-13.208-22.068-23.176-46.289-29.257-72.004c-2.487-10.48-4.326-21.211-5.475-32.141c-0.125-1.149-0.23-2.299-0.345-3.448  C0.366,271.841,0,263.962,0,256c0-2.466,0.031-4.921,0.104-7.377c1.16-41.138,12.027-79.83,30.396-113.904  c13.793-25.621,31.838-48.609,53.185-68.044c12.34-11.243,25.788-21.295,40.166-29.968c4.159-2.508,8.391-4.901,12.696-7.168  C172.21,10.668,212.856,0,256,0c35.307,0,68.953,7.147,99.547,20.083c7.534,3.187,14.89,6.719,22.037,10.595  c29.738,16.06,55.923,37.846,77.093,63.875c34.158,41.984,55.275,95.013,57.177,152.9C511.958,250.284,512,253.137,512,256z"/>
<path style="fill:#5BD3A2;" d="M243.116,123.58c0,10.386-8.422,18.808-18.808,18.808H45.641c-5.193,0-9.895-2.111-13.302-5.507  c-0.669-0.669-1.285-1.39-1.839-2.163c13.793-25.621,31.838-48.609,53.185-68.044c12.34-11.243,25.788-21.295,40.166-29.968  c4.159-2.508,8.391-4.901,12.696-7.168h58.504c5.193,0,9.895,2.111,13.302,5.507c3.406,3.406,5.507,8.108,5.507,13.302  c0,10.386-8.422,18.808-18.808,18.808h-60.604c-10.386,0-18.808,8.422-18.808,18.808s8.422,18.808,18.808,18.808h89.861  c5.193,0,9.895,2.111,13.302,5.507C241.016,113.685,243.116,118.387,243.116,123.58z"/>
<path style="fill:#EDBB4C;" d="M510.579,283.073c-0.063,0.69-0.146,1.379-0.219,2.069c-6.625,58.378-32.862,110.801-71.983,150.507  C391.941,482.785,327.387,512,256,512c-56.404,0-108.544-18.244-150.852-49.142c-21.431-15.663-40.344-34.576-56.007-56.007  c-4.618-6.332-8.965-12.884-12.988-19.634C17.565,356.164,5.381,320.836,1.421,283.073L256,28.484L510.579,283.073z"/>
<path style="fill:#FFD15C;" d="M505.114,315.225c-10.083,42.569-30.793,81.021-59.193,112.41c-2.445,2.727-4.963,5.402-7.544,8.014  c-10.71,10.867-22.382,20.783-34.879,29.602C361.806,494.707,310.93,512,256,512c-56.404,0-108.544-18.244-150.852-49.142  c-21.431-15.663-40.344-34.576-56.007-56.007c-4.618-6.332-8.965-12.884-12.988-19.634c-13.208-22.068-23.176-46.289-29.257-72.004  L256,66.1L505.114,315.225z"/>
<path style="fill:#FFDC8D;" d="M475.042,371.21c0,10.386-8.422,18.808-18.808,18.808H395.63c-10.386,0-18.808,8.422-18.808,18.808  c0,10.386,8.422,18.808,18.808,18.808h50.291c-2.445,2.727-4.963,5.402-7.544,8.014c-10.71,10.867-22.382,20.783-34.879,29.602  h-96.674c-5.193,0-9.895-2.1-13.302-5.507c-3.396-3.406-5.507-8.108-5.507-13.302c0-10.386-8.422-18.808-18.808-18.808h-89.861  c-5.193,0-9.895-2.1-13.302-5.507c-3.396-3.406-5.507-8.108-5.507-13.302c0-10.386,8.422-18.808,18.808-18.808h60.604  c5.193,0,9.895-2.1,13.302-5.507c3.396-3.406,5.507-8.108,5.507-13.302c0-10.386,8.422-18.808,18.808-18.808h178.667  c5.193,0,9.895,2.1,13.302,5.507S475.042,366.017,475.042,371.21z"/>
<path style="fill:#F4A14E;" d="M370.751,319.091L242.124,447.718c-4.242,4.242-8.673,8.192-13.26,11.839  c-2.602,2.079-5.235,4.054-7.931,5.935c-19.738,13.824-41.942,22.58-64.805,26.29h-0.01c-18.16-7.701-35.234-17.439-50.97-28.923  c-14.064-10.282-27.042-21.953-38.724-34.826c-6.134-6.74-11.901-13.814-17.283-21.18c-4.618-6.332-8.965-12.884-12.988-19.634  c-13.208-22.068-23.176-46.289-29.257-72.004c-2.487-10.48-4.326-21.211-5.475-32.141C0.481,274.171,0,265.143,0,256  c0-2.466,0.031-4.921,0.104-7.377c5.59-8.296,12.058-16.185,19.393-23.521l56.205-56.205c9.237-9.247,21.347-13.876,33.468-13.866  c12.11-0.01,24.231,4.618,33.489,13.866c3.699,3.709,3.699,9.718,0,13.427l-17.262,17.251c-2.999,2.999-4.483,6.907-4.493,10.825  c0,3.939,1.494,7.858,4.483,10.846c4.315,4.305,10.533,5.507,15.914,3.626c0.376-0.136,0.731-0.282,1.087-0.428  c1.693-0.731,3.281-1.808,4.671-3.197l52.997-52.997c5.538-5.538,12.821-8.317,20.093-8.317c3.845,0.01,7.69,0.784,11.285,2.351  c0.324,0.146,0.669,0.293,0.993,0.46c0.178,0.073,0.345,0.146,0.512,0.251c0.23,0.104,0.46,0.219,0.679,0.355  c0.345,0.157,0.669,0.355,1.003,0.543c0.387,0.23,0.773,0.481,1.149,0.721c0,0,0.01,0.01,0.021,0.021  c0.397,0.261,0.773,0.522,1.149,0.805c0.397,0.282,0.773,0.575,1.139,0.878c0.752,0.606,1.473,1.254,2.163,1.954  c1.735,1.724,3.197,3.626,4.389,5.653c0.031,0.052,0.073,0.115,0.104,0.178c6.311,10.856,4.817,25.036-4.493,34.335l9.927-9.916  c5.548-5.559,12.831-8.328,20.104-8.328c7.272,0,14.545,2.779,20.093,8.328c11.097,11.097,11.097,29.08-0.01,40.187  c5.559-5.548,12.831-8.328,20.104-8.328c7.272,0.01,14.545,2.779,20.093,8.328c11.097,11.097,11.118,29.09,0.01,40.197  c11.107-11.107,29.09-11.097,40.176-0.01C381.848,290.001,381.858,307.984,370.751,319.091z"/>
<g>
	<path style="fill:#E28D40;" d="M145.199,173.537c-7.408-4.378-15.747-6.572-24.085-6.562c-12.121-0.01-24.231,4.618-33.479,13.855   l-56.195,56.205c-12.779,12.769-22.904,27.199-30.365,42.59C0.366,271.841,0,263.962,0,256c0-2.466,0.031-4.921,0.104-7.377   c5.58-8.296,12.048-16.185,19.393-23.531l56.195-56.195c9.247-9.247,21.368-13.876,33.479-13.866   c12.121-0.01,24.231,4.618,33.479,13.866C143.976,170.214,144.812,171.833,145.199,173.537z"/>
	<path style="fill:#E28D40;" d="M294.867,204.365c-1.212-2.09-2.708-4.06-4.498-5.849l0,0c-11.098-11.098-29.092-11.098-40.19,0   l-79.286,79.286l0,0c5.715,5.715,14.981,5.715,20.695,0l68.938-68.938C269.835,199.555,283.994,198.058,294.867,204.365z"/>
	<path style="fill:#E28D40;" d="M335.057,244.555c-1.212-2.09-2.708-4.06-4.498-5.849l0,0c-11.098-11.098-29.092-11.098-40.19,0   l-79.286,79.286l0,0c5.715,5.715,14.981,5.715,20.695,0l68.938-68.938C310.025,239.745,324.184,238.248,335.057,244.555z"/>
	<path style="fill:#E28D40;" d="M375.247,284.745c-1.212-2.09-2.708-4.06-4.498-5.849l0,0c-11.098-11.098-29.092-11.098-40.19,0   L230.345,379.11l0,0c5.715,5.715,14.981,5.715,20.695,0l89.866-89.866C350.215,279.934,364.374,278.438,375.247,284.745z"/>
	<path style="fill:#E28D40;" d="M185.354,203.661c-60.332,60.322-58.535,159.295,4.942,216.325   c0.439,0.387,18.192,18.641,38.567,39.57c-2.602,2.079-5.235,4.054-7.931,5.935c-19.738,13.824-41.942,22.58-64.805,26.29   c-18.16-7.701-35.244-17.439-50.981-28.923c-14.064-10.282-27.042-21.953-38.724-34.826c46.791-47.156,47.376-122.88,1.735-170.747   c0.575-0.878,1.233-1.703,2.006-2.476l55.233-55.233c-2.999,2.999-4.483,6.907-4.493,10.825c0,3.939,1.494,7.858,4.483,10.846   c4.315,4.305,10.533,5.507,15.914,3.626c0.376-0.136,0.731-0.261,1.087-0.428c1.693-0.731,3.281-1.808,4.671-3.197l52.558-52.548   c8.495-8.505,21.232-10.909,31.817-6.416c0.324,0.146,0.669,0.293,0.993,0.46c0.178,0.073,0.345,0.146,0.512,0.251   c0.23,0.104,0.46,0.219,0.679,0.355c0.345,0.157,0.669,0.355,1.003,0.543c0.387,0.23,0.773,0.481,1.149,0.721   c0,0,0.01,0.01,0.021,0.021c0.397,0.261,0.773,0.522,1.149,0.805c0.397,0.282,0.773,0.575,1.139,0.878   c0.094,0.052,0.157,0.125,0.24,0.178c0.125,0.115,0.24,0.23,0.366,0.334c0.376,0.334,0.763,0.679,1.128,1.034   c0.282,0.261,0.543,0.533,0.805,0.805c0.345,0.355,0.679,0.711,0.993,1.076c0.209,0.24,0.418,0.491,0.616,0.742   c0.272,0.334,0.533,0.679,0.794,1.024c0.157,0.219,0.324,0.439,0.481,0.658c0.397,0.575,0.773,1.16,1.128,1.755   c0.031,0.052,0.073,0.115,0.104,0.178c-10.877-6.29-25.015-4.807-34.325,4.504L185.354,203.661z"/>
</g>
<g>
	<path style="fill:#FCF6D6;" d="M186.113,240.003c-1.019-1.019-1.649-2.426-1.649-3.98c0-3.109,2.52-5.629,5.629-5.629h45.157   c3.109,0,5.628,2.52,5.629,5.629c0,3.109-2.52,5.629-5.629,5.629h-45.158C188.538,241.65,187.131,241.02,186.113,240.003z"/>
	<path style="fill:#FCF6D6;" d="M208.691,262.581c-1.019-1.019-1.649-2.426-1.649-3.98v-45.157c0-3.109,2.52-5.629,5.629-5.629   s5.629,2.52,5.629,5.629v45.158c0,3.109-2.52,5.629-5.629,5.629C211.117,264.23,209.71,263.6,208.691,262.581z"/>
	<path style="fill:#FCF6D6;" d="M226.303,280.193c-1.019-1.019-1.649-2.426-1.649-3.98c0-3.109,2.52-5.629,5.629-5.629h45.157   c3.11,0.001,5.629,2.521,5.629,5.629c0,3.109-2.52,5.629-5.629,5.629h-45.157C228.728,281.84,227.321,281.21,226.303,280.193z"/>
	<path style="fill:#FCF6D6;" d="M248.881,302.772c-1.019-1.019-1.649-2.426-1.649-3.98v-45.157c0-3.109,2.52-5.629,5.629-5.629   c3.11,0,5.629,2.52,5.629,5.629v45.157c0,3.109-2.52,5.629-5.629,5.629C251.307,304.419,249.9,303.789,248.881,302.772z"/>
	<path style="fill:#FCF6D6;" d="M266.493,320.382c-1.019-1.019-1.649-2.426-1.649-3.98c0-3.109,2.52-5.629,5.629-5.629h45.157   c3.11,0,5.629,2.52,5.629,5.629s-2.52,5.629-5.629,5.629h-45.157C268.919,322.031,267.512,321.401,266.493,320.382z"/>
	<path style="fill:#FCF6D6;" d="M289.072,342.962c-1.019-1.019-1.649-2.426-1.649-3.98v-45.157c0-3.109,2.52-5.629,5.629-5.629   c3.11,0,5.629,2.52,5.629,5.629v45.157c0,3.109-2.52,5.629-5.629,5.628C291.497,344.609,290.09,343.979,289.072,342.962z"/>
</g>
<path style="fill:#F4A14E;" d="M140.045,138.739l5.996,5.996c9.443,9.443,9.443,24.752,0,34.193l-40.374,40.374l-40.189-40.189  l40.374-40.374C115.293,129.297,130.603,129.297,140.045,138.739z"/>
<path style="fill:#E28D40;" d="M148.184,148.756c-1.31-2.527-3.022-4.9-5.141-7.019l0,0c-11.098-11.098-29.091-11.098-40.189,0  l-37.376,37.376l12.161,12.161l37.376-37.376C123.992,144.919,137.481,143.207,148.184,148.756z"/>
<g>
	<circle style="fill:#F9AF6B;" cx="62.004" cy="346.718" r="19.036"/>
	<circle style="fill:#F9AF6B;" cx="71.534" cy="311.035" r="13.471"/>
</g>
<path style="fill:#E8DBC4;" d="M271.912,359.693c-0.815,20.48-9.038,40.73-24.68,56.372s-35.892,23.865-56.372,24.68  c-1.724,0.073-3.448,0.084-5.172,0.052c-21.023-0.449-41.9-8.694-57.94-24.733c-16.039-16.039-24.283-36.927-24.733-57.94  c-0.031-1.724-0.021-3.448,0.052-5.172c0.815-20.48,9.038-40.73,24.68-56.372c15.632-15.642,35.882-23.865,56.372-24.68  c1.714-0.063,3.448-0.084,5.172-0.042c1.735,0.031,3.459,0.125,5.193,0.282c19.226,1.567,38.034,9.728,52.746,24.44  c14.712,14.712,22.873,33.52,24.44,52.746c0.157,1.735,0.251,3.459,0.282,5.193C271.995,356.244,271.974,357.968,271.912,359.693z"/>
<path style="fill:#F9EED7;" d="M271.671,349.327c-2.121,13.625-8.443,26.728-18.944,37.23  c-12.497,12.497-28.682,19.069-45.046,19.717c-1.379,0.063-2.759,0.073-4.138,0.042c-16.792-0.355-33.479-6.938-46.289-19.759  c-12.821-12.81-19.404-29.497-19.759-46.289c-0.031-1.379-0.021-2.759,0.042-4.138c0.648-16.363,7.22-32.549,19.717-45.046  c10.501-10.501,23.604-16.823,37.23-18.944c19.226,1.567,38.034,9.728,52.746,24.44  C261.943,311.293,270.104,330.101,271.671,349.327z"/>
<g>
	<path style="fill:#C1BBA0;" d="M189.286,271.855v0.01c-0.207,22.947-9.263,44.527-25.499,60.764s-37.814,25.289-60.764,25.499   h-0.007c-0.038-1.724-0.021-3.448,0.048-5.173c21.553-0.22,41.814-8.735,57.067-23.985c15.249-15.249,23.764-35.513,23.981-57.067   C185.834,271.834,187.562,271.818,189.286,271.855z"/>
	<path style="fill:#C1BBA0;" d="M271.906,359.694c-21.553,0.22-41.817,8.735-57.067,23.985   c-15.253,15.249-23.767,35.513-23.985,57.067c-1.724,0.069-3.448,0.087-5.173,0.048v-0.003c0.207-22.953,9.263-44.535,25.499-60.77   c16.236-16.236,37.817-25.292,60.767-25.499h0.007C271.993,356.245,271.975,357.97,271.906,359.694z"/>
</g>
<g>
	<path style="fill:#EF4152;" d="M258.638,368.034c-0.555,0-1.114-0.178-1.586-0.544c-1.127-0.877-1.331-2.501-0.453-3.63   c2.497-3.211,1.916-7.854-1.294-10.351c-1.127-0.877-1.331-2.501-0.453-3.63c0.877-1.127,2.501-1.331,3.63-0.453   c5.462,4.249,6.449,12.148,2.202,17.611C260.172,367.691,259.409,368.034,258.638,368.034z"/>
	<path style="fill:#EF4152;" d="M245.581,370.965c-0.425,0-0.856-0.104-1.254-0.326c-1.249-0.694-1.699-2.268-1.005-3.517   c0.832-1.496,1.03-3.228,0.56-4.873c-0.47-1.647-1.554-3.01-3.05-3.842c-1.249-0.694-1.699-2.268-1.005-3.517   c0.694-1.249,2.268-1.699,3.517-1.005c2.704,1.503,4.662,3.969,5.512,6.943c0.85,2.975,0.49,6.102-1.012,8.807   C247.371,370.485,246.489,370.965,245.581,370.965z"/>
	<path style="fill:#EF4152;" d="M233.105,376.373c-0.271,0-0.546-0.043-0.818-0.134c-1.355-0.451-2.088-1.916-1.636-3.272   c0.482-1.445,0.372-2.992-0.309-4.354c-0.681-1.363-1.853-2.378-3.298-2.86c-1.355-0.451-2.088-1.916-1.636-3.272   c0.452-1.355,1.917-2.088,3.272-1.635c2.756,0.918,4.989,2.856,6.288,5.454s1.509,5.547,0.59,8.303   C235.197,375.688,234.188,376.373,233.105,376.373z"/>
	<path style="fill:#EF4152;" d="M221.507,384.283c-0.095,0-0.192-0.005-0.288-0.016c-1.42-0.158-2.443-1.437-2.285-2.857   c0.324-2.918-1.787-5.558-4.705-5.882c-1.42-0.158-2.443-1.437-2.285-2.857c0.158-1.42,1.44-2.442,2.856-2.285   c5.754,0.639,9.915,5.84,9.276,11.594C223.927,383.304,222.807,384.283,221.507,384.283z"/>
	<path style="fill:#EF4152;" d="M211.628,394.155c-1.301,0-2.42-0.978-2.567-2.301c-0.324-2.919-2.963-5.029-5.882-4.705   c-1.421,0.157-2.698-0.865-2.856-2.285c-0.158-1.42,0.865-2.699,2.285-2.856c5.751-0.638,10.955,3.521,11.594,9.276   c0.158,1.42-0.865,2.698-2.285,2.856C211.82,394.15,211.723,394.155,211.628,394.155z"/>
	<path style="fill:#EF4152;" d="M204.327,405.151c-1.084,0-2.092-0.685-2.453-1.769c-0.482-1.445-1.497-2.616-2.86-3.298   s-2.909-0.791-4.354-0.309c-1.355,0.452-2.82-0.281-3.272-1.635c-0.451-1.355,0.281-2.82,1.636-3.272   c2.756-0.918,5.705-0.709,8.303,0.59c2.599,1.299,4.535,3.533,5.454,6.288c0.451,1.355-0.281,2.82-1.636,3.272   C204.874,405.108,204.598,405.151,204.327,405.151z"/>
	<path style="fill:#EF4152;" d="M199.295,417.256c-0.909,0-1.791-0.48-2.263-1.331c-0.832-1.496-2.196-2.58-3.842-3.05   s-3.377-0.272-4.874,0.56c-1.249,0.694-2.823,0.243-3.517-1.005s-0.243-2.823,1.005-3.517c2.705-1.503,5.832-1.862,8.807-1.011   c2.975,0.849,5.441,2.808,6.943,5.512c0.694,1.249,0.243,2.823-1.005,3.517C200.151,417.15,199.72,417.256,199.295,417.256z"/>
	<path style="fill:#EF4152;" d="M196.556,430.121c-0.771,0-1.534-0.343-2.044-0.999c-2.497-3.211-7.141-3.791-10.352-1.294   c-1.127,0.877-2.752,0.674-3.63-0.453c-0.877-1.127-0.674-2.752,0.453-3.63c5.462-4.249,13.362-3.261,17.611,2.202   c0.877,1.127,0.674,2.752-0.453,3.63C197.67,429.943,197.111,430.121,196.556,430.121z"/>
	<path style="fill:#EF4152;" d="M192.346,289.506c-0.771,0-1.534-0.343-2.044-0.999c-1.21-1.555-2.953-2.546-4.908-2.791   c-1.957-0.245-3.888,0.287-5.444,1.497c-1.127,0.877-2.753,0.674-3.629-0.453c-0.877-1.127-0.674-2.752,0.453-3.63   c2.646-2.058,5.936-2.962,9.261-2.546c3.326,0.416,6.291,2.102,8.35,4.748c0.877,1.127,0.674,2.752-0.453,3.63   C193.46,289.328,192.901,289.506,192.346,289.506z"/>
	<path style="fill:#EF4152;" d="M187.669,304.31c-0.909,0-1.791-0.48-2.263-1.331c-1.717-3.09-5.626-4.207-8.717-2.49   c-1.249,0.694-2.823,0.243-3.517-1.005s-0.243-2.823,1.005-3.517c5.583-3.102,12.648-1.083,15.75,4.5   c0.694,1.249,0.243,2.823-1.005,3.517C188.525,304.205,188.094,304.31,187.669,304.31z"/>
	<path style="fill:#EF4152;" d="M180.51,318.537c-1.084,0-2.092-0.685-2.453-1.769c-0.482-1.445-1.497-2.616-2.86-3.298   s-2.909-0.791-4.354-0.309c-1.355,0.451-2.82-0.281-3.272-1.635c-0.451-1.355,0.281-2.82,1.636-3.272   c2.756-0.918,5.705-0.709,8.303,0.59c2.599,1.299,4.535,3.533,5.454,6.288c0.451,1.355-0.281,2.82-1.636,3.272   C181.058,318.494,180.782,318.537,180.51,318.537z"/>
	<path style="fill:#EF4152;" d="M170.85,331.885c-1.301,0-2.42-0.978-2.567-2.301c-0.325-2.918-2.961-5.03-5.882-4.705   c-1.421,0.158-2.698-0.865-2.856-2.285c-0.158-1.42,0.865-2.698,2.285-2.856c5.752-0.638,10.955,3.521,11.594,9.276   c0.158,1.42-0.865,2.699-2.285,2.857C171.041,331.879,170.945,331.885,170.85,331.885z"/>
	<path style="fill:#EF4152;" d="M159.236,343.505c-0.095,0-0.192-0.005-0.288-0.016c-1.42-0.158-2.443-1.437-2.285-2.857   c0.157-1.414-0.246-2.805-1.135-3.915c-0.889-1.111-2.157-1.809-3.57-1.966c-1.42-0.158-2.443-1.437-2.285-2.856   c0.158-1.42,1.44-2.442,2.856-2.285c2.788,0.309,5.287,1.686,7.039,3.876c1.752,2.19,2.546,4.931,2.236,7.719   C161.657,342.527,160.537,343.505,159.236,343.505z"/>
	<path style="fill:#EF4152;" d="M146.491,352.557c-0.271,0-0.546-0.043-0.818-0.134c-1.355-0.451-2.088-1.916-1.636-3.272   c0.482-1.445,0.372-2.992-0.309-4.354c-0.681-1.363-1.853-2.378-3.298-2.86c-1.355-0.451-2.088-1.916-1.636-3.272   s1.915-2.088,3.272-1.636c2.756,0.918,4.989,2.856,6.288,5.454s1.509,5.547,0.59,8.303   C148.583,351.871,147.574,352.557,146.491,352.557z"/>
	<path style="fill:#EF4152;" d="M132.635,359.338c-0.425,0-0.856-0.104-1.254-0.326c-1.249-0.694-1.699-2.268-1.005-3.517   c0.832-1.496,1.03-3.228,0.56-4.873s-1.554-3.01-3.05-3.842c-1.249-0.694-1.699-2.268-1.005-3.517   c0.694-1.249,2.268-1.699,3.517-1.005c2.704,1.503,4.662,3.969,5.512,6.943c0.85,2.975,0.49,6.102-1.012,8.807   C134.426,358.859,133.544,359.338,132.635,359.338z"/>
	<path style="fill:#EF4152;" d="M118.023,363.825c-0.555,0-1.114-0.178-1.586-0.544c-1.127-0.877-1.331-2.501-0.453-3.63   c1.21-1.555,1.741-3.489,1.496-5.444c-0.245-1.955-1.235-3.698-2.791-4.908c-1.127-0.877-1.331-2.501-0.453-3.63   c0.877-1.127,2.501-1.33,3.629-0.453c2.646,2.058,4.332,5.023,4.748,8.349c0.416,3.326-0.489,6.615-2.546,9.261   C119.556,363.481,118.793,363.825,118.023,363.825z"/>
</g>
<g>
	<circle style="fill:#FCF8F2;" cx="219.732" cy="322.79" r="15.151"/>
	<circle style="fill:#FCF8F2;" cx="206.148" cy="298.757" r="8.882"/>
</g>
<path style="fill:#C69A6A;" d="M457.425,63.227l-2.748,31.326l-23.625,269.406l-7.502,85.598  c-13.876,12.027-29.069,22.591-45.328,31.431L367.95,363.959L341.577,63.227c-1.442-16.405,4.065-31.702,13.97-43.144  C366.164,7.826,381.858,0,399.506,0C433.612,0,460.403,29.236,457.425,63.227z"/>
<path style="fill:#B58657;" d="M374.732,63.227l15.412,410.854c-0.01,0-0.01,0.01-0.01,0.01c-3.908,2.403-7.879,4.702-11.912,6.896  h-0.01l-7.931-90.457l-2.33-26.572L341.588,63.227c-0.157-1.735-0.23-3.469-0.23-5.172c0-14.43,5.329-27.752,14.19-37.972  C366.174,7.826,381.858,0,399.506,0c-9.54,0-17.742,12.507-21.922,30.678C375.369,40.281,374.293,51.472,374.732,63.227z"/>
<path style="fill:#34ABE0;" d="M431.052,363.959l-7.502,85.598c-13.876,12.027-29.069,22.591-45.328,31.431L367.95,363.959  L431.052,363.959L431.052,363.959z"/>
<path style="fill:#279FC9;" d="M390.134,474.091c-3.908,2.403-7.879,4.702-11.912,6.896l-7.941-90.457l-2.33-26.572h18.056  L390.134,474.091z"/>
<path style="fill:#D3AA81;" d="M430.847,148.51l-2.734-0.22c-5.369-0.433-9.37-5.136-8.937-10.504l6.349-78.768  c0.433-5.369,5.136-9.37,10.504-8.937l2.734,0.22c5.369,0.433,9.37,5.136,8.937,10.504l-6.349,78.768  C440.919,144.941,436.216,148.943,430.847,148.51z"/>
<g>
</g>
<g>
</g>
<g>
</g>
<g>
</g>
<g>
</g>
<g>
</g>
<g>
</g>
<g>
</g>
<g>
</g>
<g>
</g>
<g>
</g>
<g>
</g>
<g>
</g>
<g>
</g>
<g>
</g>
</svg>
