<?xml version="1.0" encoding="iso-8859-1"?>
<!-- Generator: Adobe Illustrator 19.0.0, SVG Export Plug-In . SVG Version: 6.00 Build 0)  -->
<svg xmlns="http://www.w3.org/2000/svg" xmlns:xlink="http://www.w3.org/1999/xlink" version="1.1" id="Capa_1" x="0px" y="0px" viewBox="0 0 512 512" style="enable-background:new 0 0 512 512;" xml:space="preserve">
<path style="fill:#4BC999;" d="M512,256v0.282c-0.01,9.571-0.543,19.017-1.588,28.306c-1.055,9.613-2.654,19.059-4.754,28.306  c-2.194,9.655-4.932,19.101-8.192,28.306c-20.919,59.329-63.101,108.628-117.384,138.762c-5.454,3.041-11.024,5.872-16.718,8.505  c-26.311,12.173-55.035,20.01-85.274,22.591C270.806,511.687,263.44,512,256,512c-7.941,0-15.799-0.366-23.552-1.076  c-22.727-2.069-44.586-7.116-65.202-14.743c-43.802-16.175-81.972-44.011-110.738-79.736c-4.347-5.402-8.474-10.971-12.382-16.718  c-1.578-2.32-3.124-4.66-4.618-7.043c-0.063-0.104-0.136-0.209-0.199-0.313c-2.487-3.929-4.859-7.92-7.126-11.995  c-4.43-7.962-8.453-16.185-12.027-24.649c-0.711-1.651-1.39-3.323-2.058-4.995c-0.24-0.606-0.481-1.212-0.711-1.818  c-3.041-7.795-5.705-15.767-7.973-23.897c-0.982-3.5-1.891-7.022-2.706-10.574c-0.387-1.641-0.752-3.281-1.097-4.932  c-0.188-0.857-0.366-1.724-0.533-2.591c-0.355-1.693-0.679-3.385-0.982-5.089c-1.849-10.167-3.082-20.543-3.678-31.096  c-0.031-0.491-0.063-0.993-0.084-1.494c-0.094-2.048-0.178-4.096-0.23-6.165c-0.021-0.554-0.031-1.108-0.042-1.661  C0.021,259.615,0,257.808,0,256c0-9.373,0.502-18.641,1.505-27.752c0.073-0.773,0.157-1.546,0.251-2.309  c0.188-1.672,0.397-3.333,0.627-4.984c0.167-1.296,0.355-2.581,0.554-3.856c1.003-6.531,2.236-12.988,3.72-19.341  c0.846-3.626,1.766-7.21,2.759-10.773c0.063-0.219,0.125-0.439,0.188-0.658c0.7-2.487,1.432-4.963,2.205-7.408  c1.505-4.786,3.156-9.498,4.921-14.148c3.041-7.962,6.468-15.726,10.25-23.291c0.502-1.003,1.014-2.006,1.536-3.009  c0.616-1.191,1.243-2.382,1.881-3.563c0,0,0,0,0.01,0c1.912-3.574,3.908-7.095,5.998-10.553c0.167-0.282,0.345-0.575,0.512-0.857  c3.73-6.154,7.722-12.152,11.933-17.951c13.437-18.463,29.278-35.056,47.062-49.33c9.383-7.534,19.31-14.409,29.706-20.574  c13.051-7.743,26.854-14.346,41.263-19.696C194.633,5.632,224.653,0,256,0C397.385,0,512,114.615,512,256z"/>
<g>
	<path style="fill:#5BD3A2;" d="M205.134,70.374c0,3.908-1.588,7.44-4.138,10.01c-2.57,2.55-6.102,4.138-10.01,4.138h-87.291   c-7.816,0-14.148,6.343-14.148,14.158c0,3.908,1.588,7.45,4.138,10.01c2.57,2.56,6.102,4.148,10.01,4.148h39.758   c7.816,0,14.148,6.332,14.148,14.148c0,3.908-1.578,7.45-4.148,10.01c-2.55,2.56-6.092,4.148-10,4.148h-12.016   c-7.816,0-14.148,6.332-14.148,14.148c0,3.908,1.578,7.45,4.148,10.01c2.55,2.56,6.092,4.148,10,4.148h43.029   c7.816,0,14.158,6.332,14.158,14.148c0,3.908-1.588,7.45-4.148,10.01s-6.102,4.148-10.01,4.148H6.656   c0.846-3.626,1.766-7.21,2.759-10.773c0.063-0.219,0.125-0.439,0.188-0.658c0.7-2.487,1.432-4.963,2.205-7.408   c1.505-4.786,3.156-9.498,4.921-14.148c3.041-7.962,6.468-15.726,10.25-23.291c0.502-1.003,1.014-2.006,1.536-3.009   c0.616-1.191,1.243-2.382,1.881-3.563c0,0,0,0,0.01,0c1.912-3.574,3.908-7.095,5.998-10.553c0.167-0.282,0.345-0.575,0.512-0.857   c3.73-6.154,7.722-12.152,11.933-17.951c13.437-18.463,29.278-35.056,47.062-49.33h95.075   C198.802,56.216,205.134,62.558,205.134,70.374z"/>
	<path style="fill:#5BD3A2;" d="M202.7,458.898c0,7.816-6.332,14.158-14.148,14.158h-3.939c-3.908,0-7.44,1.588-10.01,4.138   c-2.55,2.57-4.138,6.102-4.138,10.01c0,3.406-1.202,6.531-3.218,8.976c-43.802-16.175-81.972-44.011-110.738-79.736h70.113   c7.816,0,14.158,6.332,14.158,14.148s6.332,14.158,14.148,14.158h33.625c3.908,0,7.45,1.578,10,4.148   C201.122,451.448,202.7,454.99,202.7,458.898z"/>
</g>
<ellipse style="fill:#41B787;" cx="206.545" cy="421.376" rx="50.155" ry="31.347"/>
<g>
	<path style="fill:#5BD3A2;" d="M464.029,298.747c0,7.816,6.332,14.148,14.148,14.148h27.481   c-2.194,9.655-4.932,19.101-8.192,28.306h-86.12c-3.908,0-7.45-1.578-10-4.148c-2.57-2.55-4.148-6.092-4.148-10   c0-7.816-6.343-14.158-14.158-14.158h-67.626c-3.908,0-7.45-1.588-10.01-4.138c-2.56-2.57-4.148-6.102-4.148-10.01   c0-7.826,6.343-14.158,14.158-14.158h45.61c3.908,0,7.45-1.588,10-4.148c2.57-2.56,4.148-6.102,4.148-10.01   c0-7.816,6.343-14.148,14.158-14.148H512c-0.01,9.571-0.543,19.017-1.588,28.306h-32.235   C470.361,284.588,464.029,290.921,464.029,298.747z"/>
	<path style="fill:#5BD3A2;" d="M236.973,268.27v-0.001c0-7.817-6.336-14.153-14.153-14.153H88.357   c-7.817,0-14.153,6.336-14.153,14.153v0.001c0,7.817,6.336,14.153,14.153,14.153h22.41c7.817,0,14.153,6.336,14.153,14.153v0.001   c0,7.817,6.336,14.153,14.153,14.153h112.053c7.817,0,14.153-6.336,14.153-14.153v-0.001c0-7.817-6.336-14.153-14.153-14.153l0,0   C243.31,282.423,236.973,276.087,236.973,268.27z"/>
</g>
<path style="fill:#41B787;" d="M327.638,92.912C283.857,49.142,227.6,22.371,166.881,15.945  c-14.409,5.35-28.212,11.954-41.263,19.696c4.159-0.209,8.338-0.313,12.528-0.313c65.996,0,128.042,25.694,174.707,72.37  c46.676,46.665,72.37,108.711,72.37,174.707s-25.694,128.042-72.37,174.707c-23.416,23.416-50.698,41.556-80.405,53.812  C240.201,511.634,248.059,512,256,512c7.44,0,14.806-0.313,22.089-0.94c17.784-10.93,34.408-24.033,49.549-39.163  c50.604-50.615,78.482-117.917,78.482-189.492S378.243,143.527,327.638,92.912z"/>
<path style="fill:#F9EED7;" d="M274.254,186.337c7.084,0,13.939-1.943,19.874-5.517c3.5-2.111,6.677-4.775,9.404-7.952l-5.58-4.744  c-1.17,1.369-2.456,2.623-3.824,3.751c-5.548,4.598-12.56,7.147-19.874,7.147c-8.694,0-16.948-3.615-22.852-9.947v-32.977  c6.562,4.827,14.535,7.502,22.852,7.502c7.084,0,13.939-1.944,19.874-5.517c3.5-2.111,6.677-4.775,9.404-7.952l-5.58-4.733  c-1.17,1.369-2.456,2.623-3.824,3.751c-5.548,4.587-12.56,7.137-19.874,7.137c-9.122,0-17.763-3.971-23.719-10.898l-0.888-1.034  l-1.891-2.205l-1.902,2.205l-0.888,1.034c-5.935,6.928-14.576,10.898-23.698,10.898c-9.132,0-17.763-3.971-23.74-10.93l-0.888-1.003  l-1.985-2.257l-1.829,2.257l-0.878,1.076c-5.935,6.896-14.555,10.856-23.667,10.856c-9.122,0-17.763-3.971-23.771-10.971  l-0.867-0.961l-2.058-2.278l-1.776,2.278l-0.857,1.097c-5.935,6.886-14.555,10.825-23.646,10.825  c-9.132,0-17.774-3.971-23.74-10.919l-0.878-1.003l-1.996-2.288l-1.829,2.288l-0.867,1.076  c-5.935,6.896-14.566,10.846-23.667,10.846c-9.122,0-17.763-3.971-23.771-10.961l-0.867-0.961l-0.773-0.857  c-0.167,0.282-0.345,0.575-0.512,0.857c-2.09,3.459-4.086,6.98-5.998,10.553c-0.01,0-0.01,0-0.01,0  c-0.637,1.181-1.264,2.372-1.881,3.563c1.264-0.721,2.487-1.515,3.668-2.382v32.998c-5.339,5.726-12.601,9.216-20.376,9.832  c-0.773,2.445-1.505,4.921-2.205,7.408c8.192-0.052,16.06-2.717,22.58-7.502v32.998c-5.904,6.311-14.148,9.916-22.831,9.916  c-2.372,0-4.712-0.261-6.969-0.784c-0.23,1.651-0.439,3.312-0.627,4.984c-0.094,0.763-0.178,1.536-0.251,2.309  c2.56,0.533,5.183,0.805,7.847,0.805c8.286,0,16.248-2.664,22.831-7.502v32.998c-5.904,6.322-14.148,9.927-22.831,9.927  c-3.176,0-6.29-0.481-9.247-1.4c0.052,2.069,0.136,4.117,0.23,6.165c0.021,0.502,0.052,1.003,0.084,1.494  c2.905,0.7,5.893,1.055,8.934,1.055c8.286,0,16.248-2.664,22.831-7.502v33.008c-5.904,6.322-14.148,9.927-22.831,9.927  c-1.442,0-2.863-0.094-4.274-0.303c0.167,0.867,0.345,1.735,0.533,2.591c0.345,1.651,0.711,3.291,1.097,4.932  c0.878,0.063,1.755,0.094,2.644,0.094c8.286,0,16.248-2.664,22.831-7.502v32.998c-4.044,4.326-9.174,7.377-14.796,8.882  c0.23,0.606,0.47,1.212,0.711,1.818c0.669,1.672,1.348,3.344,2.058,4.995c4.315-1.264,8.38-3.281,12.027-5.966v30.615  c2.267,4.075,4.639,8.067,7.126,11.995c6.583,4.911,14.639,7.628,23.019,7.628c9.916,0,19.362-3.803,26.488-10.543  c7.126,6.74,16.572,10.543,26.488,10.543s19.372-3.803,26.488-10.533c7.126,6.74,16.572,10.533,26.488,10.533  c4.953,0,9.791-0.951,14.284-2.738c4.493-1.797,8.631-4.43,12.204-7.805c7.126,6.75,16.583,10.543,26.499,10.543  s19.372-3.793,26.488-10.533c7.126,6.74,16.583,10.543,26.499,10.543c7.084,0,13.939-1.944,19.874-5.517  c3.5-2.111,6.677-4.775,9.404-7.952l-5.58-4.744c-1.17,1.369-2.456,2.633-3.824,3.762c-5.548,4.587-12.56,7.137-19.874,7.137  c-8.694,0-16.948-3.615-22.852-9.947v-32.977c6.562,4.827,14.535,7.502,22.852,7.502c7.084,0,13.939-1.944,19.874-5.517  c3.5-2.111,6.677-4.775,9.404-7.952l-5.58-4.733c-1.17,1.369-2.456,2.623-3.824,3.751c-5.548,4.587-12.56,7.137-19.874,7.137  c-8.694,0-16.948-3.605-22.852-9.947v-32.977c6.562,4.838,14.535,7.513,22.852,7.513c7.084,0,13.939-1.944,19.874-5.517  c3.5-2.111,6.677-4.775,9.404-7.952l-5.58-4.744c-1.17,1.369-2.456,2.623-3.824,3.751c-5.548,4.598-12.56,7.147-19.874,7.147  c-8.694,0-16.948-3.615-22.852-9.947v-32.998c6.562,4.838,14.535,7.513,22.852,7.513c7.084,0,13.939-1.943,19.874-5.517  c3.5-2.111,6.677-4.775,9.404-7.952l-5.58-4.744c-1.17,1.369-2.456,2.633-3.824,3.762c-5.548,4.587-12.56,7.137-19.874,7.137  c-8.694,0-16.948-3.615-22.852-9.947V221.56c6.562,4.827,14.535,7.502,22.852,7.502c7.084,0,13.939-1.944,19.874-5.517  c3.5-2.111,6.677-4.775,9.404-7.952l-5.58-4.733c-1.17,1.369-2.456,2.623-3.824,3.751c-5.548,4.587-12.56,7.137-19.874,7.137  c-8.694,0-16.948-3.605-22.852-9.947v-32.977C257.964,183.662,265.937,186.337,274.254,186.337z M85.159,382.746  c-5.893,6.332-14.137,9.937-22.831,9.937c-8.662,0-16.886-3.584-22.831-9.937v-32.977c6.552,4.827,14.524,7.492,22.831,7.492  s16.28-2.664,22.831-7.492V382.746z M85.159,340.02c-5.893,6.322-14.137,9.927-22.831,9.927c-8.662,0-16.886-3.584-22.831-9.927  v-32.987c6.552,4.827,14.524,7.502,22.831,7.502s16.28-2.675,22.831-7.502V340.02z M85.159,297.284  c-5.893,6.332-14.137,9.937-22.831,9.937s-16.938-3.605-22.831-9.937v-32.998c6.552,4.827,14.524,7.502,22.831,7.502  s16.28-2.675,22.831-7.502V297.284z M85.159,254.537c-5.893,6.322-14.137,9.937-22.831,9.937c-8.662,0-16.886-3.584-22.831-9.937  V221.56c6.552,4.817,14.524,7.492,22.831,7.492s16.28-2.675,22.831-7.492V254.537z M85.159,211.811  c-5.893,6.322-14.137,9.927-22.831,9.927c-8.662,0-16.886-3.584-22.831-9.937v-32.977c6.552,4.827,14.524,7.502,22.831,7.502  s16.28-2.675,22.831-7.502V211.811z M85.159,169.075c-5.893,6.322-14.137,9.937-22.831,9.937s-16.938-3.605-22.831-9.937v-32.977  c6.552,4.827,14.524,7.492,22.831,7.492s16.28-2.675,22.831-7.492V169.075z M138.146,382.746  c-5.904,6.322-14.148,9.937-22.841,9.937c-8.673,0-16.906-3.594-22.831-9.927v-32.987c6.562,4.827,14.524,7.492,22.831,7.492  s16.28-2.675,22.841-7.502V382.746z M138.146,340.01c-5.904,6.332-14.148,9.937-22.841,9.937c-8.673,0-16.906-3.594-22.831-9.916  v-32.987c6.562,4.817,14.524,7.492,22.831,7.492s16.28-2.675,22.841-7.502V340.01z M138.146,297.284  c-5.904,6.322-14.148,9.937-22.841,9.937s-16.927-3.605-22.831-9.927v-32.998c6.562,4.817,14.524,7.492,22.831,7.492  s16.28-2.675,22.841-7.502V297.284z M138.146,254.537c-5.904,6.322-14.148,9.937-22.841,9.937c-8.673,0-16.906-3.594-22.831-9.927  V221.56c6.562,4.827,14.524,7.492,22.831,7.492s16.28-2.675,22.841-7.502V254.537z M138.146,211.801  c-5.904,6.332-14.148,9.937-22.841,9.937c-8.673,0-16.906-3.594-22.831-9.927v-32.977c6.562,4.817,14.524,7.492,22.831,7.492  s16.28-2.675,22.841-7.502V211.801z M138.146,169.075c-5.904,6.322-14.148,9.937-22.841,9.937s-16.927-3.605-22.831-9.927v-32.987  c6.562,4.827,14.524,7.492,22.831,7.492s16.28-2.675,22.841-7.502V169.075z M191.101,382.767  c-5.893,6.311-14.137,9.916-22.821,9.916c-8.662,0-16.875-3.574-22.821-9.916V349.78c6.552,4.817,14.524,7.492,22.821,7.492  c4.148,0,8.213-0.669,12.069-1.944c3.845-1.264,7.481-3.145,10.752-5.548V382.767z M191.101,340.031  c-5.893,6.322-14.137,9.927-22.821,9.927c-8.662,0-16.875-3.584-22.821-9.927v-32.987c6.552,4.827,14.524,7.492,22.821,7.492  s16.259-2.664,22.821-7.492V340.031z M191.101,297.305c-5.893,6.311-14.137,9.916-22.821,9.916c-8.662,0-16.875-3.574-22.821-9.916  v-33.008c6.552,4.827,14.524,7.492,22.821,7.492c4.148,0,8.213-0.669,12.058-1.933c3.856-1.275,7.481-3.145,10.762-5.559V297.305z   M191.101,254.558c-5.893,6.311-14.137,9.916-22.821,9.916c-8.662,0-16.875-3.574-22.821-9.927v-32.977  c6.552,4.817,14.524,7.492,22.821,7.492s16.269-2.675,22.821-7.492V254.558z M191.101,211.822  c-5.893,6.322-14.137,9.927-22.821,9.927c-8.662,0-16.875-3.584-22.821-9.927v-32.987c6.552,4.827,14.524,7.492,22.821,7.492  s16.259-2.664,22.821-7.492V211.822z M191.101,169.096c-5.893,6.311-14.137,9.916-22.821,9.916c-8.662,0-16.875-3.574-22.821-9.927  v-32.977c6.552,4.817,14.524,7.492,22.821,7.492s16.269-2.675,22.821-7.492V169.096z M244.088,382.767  c-5.893,6.322-14.137,9.916-22.821,9.916s-16.917-3.594-22.852-9.937v-32.977c6.562,4.827,14.545,7.502,22.852,7.502  c8.296,0,16.269-2.675,22.821-7.492V382.767z M244.088,340.031c-5.893,6.322-14.137,9.927-22.821,9.927s-16.917-3.605-22.852-9.947  v-32.977c6.562,4.827,14.545,7.513,22.852,7.513c8.296-0.01,16.269-2.675,22.821-7.492V340.031z M244.088,297.305  c-5.893,6.322-14.137,9.916-22.821,9.927c-8.683,0-16.917-3.605-22.852-9.947v-32.998c6.562,4.827,14.545,7.502,22.852,7.502  c8.296,0,16.269-2.664,22.821-7.492V297.305z M244.088,254.558c-5.893,6.311-14.137,9.916-22.821,9.916s-16.917-3.594-22.852-9.937  V221.56c6.562,4.827,14.545,7.502,22.852,7.502c8.296,0,16.269-2.675,22.821-7.492V254.558z M244.088,211.822  c-5.893,6.322-14.137,9.927-22.821,9.927s-16.917-3.605-22.852-9.947v-32.977c6.562,4.827,14.545,7.502,22.852,7.502  c8.296,0,16.269-2.664,22.821-7.481V211.822z M244.088,169.096c-5.893,6.311-14.137,9.916-22.821,9.916s-16.917-3.594-22.852-9.937  v-32.977c6.562,4.827,14.545,7.502,22.852,7.502c8.296,0,16.269-2.675,22.821-7.492V169.096z"/>
<g>
	<path style="fill:#5C5E70;" d="M305.298,105.545v353.447c0,5.194-4.21,9.404-9.404,9.404l0,0c-5.194,0-9.404-4.21-9.404-9.404   V124.353H36.404c-0.001-0.002-0.001-0.002-0.002-0.004c3.877-6.453,8.042-12.737,12.447-18.804H305.298z"/>
	<path style="fill:#5C5E70;" d="M371.722,268.259c-7.88,0-15.246-3.879-19.707-10.376c-8.331-12.144-14.663-25.096-18.824-38.501   l13.971-4.336c3.725,12.003,9.416,23.63,16.914,34.56c1.755,2.557,4.543,4.026,7.646,4.026s5.89-1.468,7.648-4.028   c7.496-10.928,13.187-22.555,16.912-34.558l13.971,4.336c-4.161,13.405-10.493,26.358-18.822,38.499   C386.969,264.38,379.602,268.259,371.722,268.259z"/>
	<path style="fill:#5C5E70;" d="M380.082,228.571v251.392c-5.454,3.041-11.024,5.872-16.718,8.505V228.571H380.082z"/>
</g>
<path style="fill:#F9EED7;" d="M466.024,76.957c-0.711,0-1.421-0.031-2.132-0.104c-4.953-0.502-9.582-2.738-13.072-6.332V49.434  c0.805,0.512,1.641,0.982,2.487,1.4c1.431,0.711,2.915,1.306,4.441,1.755c2.654,0.825,5.434,1.243,8.276,1.243  c3.699,0,7.314-0.721,10.658-2.069c-1.233-2.226-2.738-4.295-4.483-6.165c-1.975,0.606-4.054,0.92-6.175,0.92  c-6.165,0-12.016-2.675-16.039-7.346l-2.727-3.396l-2.873,3.344c-2.811,3.271-6.499,5.569-10.574,6.666  c-1.776,0.481-3.626,0.731-5.507,0.731c-4.608,0-9.017-1.484-12.633-4.169c-1.254-0.92-2.403-1.985-3.427-3.187l-2.957-3.553  l-2.706,3.605c-0.512,0.596-1.055,1.149-1.62,1.672c-3.897,3.605-9.017,5.632-14.388,5.632c-6.186,0-12.048-2.696-16.081-7.398  l-0.146-0.167l-2.633-3.062l-2.633,3.062l-0.146,0.167c-4.033,4.702-9.895,7.398-16.091,7.398c-5.35,0-10.449-2.017-14.357-5.632  c-0.616-0.554-1.191-1.16-1.745-1.797l-2.79-3.166l-2.748,3.197c-1.045,1.212-2.205,2.299-3.469,3.239  c-3.615,2.675-8.025,4.159-12.612,4.159c-1.881,0-3.73-0.251-5.507-0.731c-4.044-1.087-7.711-3.354-10.501-6.572l-2.664-3.553  l-2.967,3.459c-4.033,4.702-9.895,7.398-16.091,7.398c-2.111,0-4.18-0.313-6.144-0.92c-1.745,1.87-3.25,3.939-4.483,6.165  c3.333,1.358,6.938,2.069,10.627,2.069c2.863,0,5.663-0.428,8.328-1.254c1.505-0.449,2.967-1.034,4.378-1.735  c0.857-0.428,1.693-0.899,2.508-1.411V70.51c-3.479,3.594-8.108,5.82-13.061,6.332c-0.711,0.063-1.432,0.104-2.152,0.104  c-5.204,0-10.188-1.912-14.054-5.339c0.094,0.543,0.199,1.097,0.324,1.64c0.648,2.842,1.327,5.674,2.038,8.505  c3.636,1.63,7.607,2.508,11.692,2.508c1.348,0,2.685-0.094,4.002-0.282c4.002-0.564,7.826-1.975,11.212-4.117v21.086  c-1.473,1.505-3.145,2.779-4.953,3.783c-3.103,1.724-6.625,2.654-10.261,2.654c-1.494,0-2.978-0.157-4.42-0.47  c0.836,2.581,1.714,5.151,2.612,7.722c0.606,0.042,1.202,0.063,1.808,0.063c4.462,0,8.788-1.045,12.685-2.978  c0.867-0.439,1.714-0.909,2.529-1.432v21.086c-2.382,2.456-5.308,4.284-8.505,5.339c0.94,2.257,1.912,4.504,2.905,6.74  c1.964-0.7,3.845-1.62,5.601-2.727v14.817c2.623,5.444,5.381,10.846,8.276,16.206c4.284,2.456,9.185,3.803,14.242,3.803  c1.494,0,2.978-0.115,4.43-0.345c3.845-0.606,7.513-1.996,10.773-4.054v21.086c-0.073,0.073-0.146,0.157-0.23,0.23  c-3.594,3.594-8.359,5.789-13.448,6.144c1.442,2.257,2.905,4.504,4.399,6.75c3.302-0.7,6.437-1.985,9.279-3.783v16.3  c8.349,8.965,19.372,14.973,31.399,17.126c0.418-0.136,0.836-0.282,1.243-0.439c3.197-1.212,6.165-2.988,8.746-5.277  c2.926,2.581,6.332,4.524,10,5.726c12.016-2.152,23.04-8.15,31.389-17.105v-16.321c2.853,1.797,5.987,3.082,9.3,3.772  c1.494-2.247,2.957-4.493,4.399-6.75c-5.099-0.355-9.885-2.539-13.458-6.123c-0.084-0.084-0.167-0.157-0.24-0.24v-21.096  c3.271,2.069,6.938,3.448,10.794,4.054c1.442,0.23,2.915,0.345,4.409,0.345c5.078,0,10-1.358,14.294-3.856  c2.884-5.329,5.622-10.7,8.223-16.102v-14.858c1.766,1.118,3.657,2.027,5.622,2.727c0.993-2.236,1.964-4.483,2.905-6.74  c-3.208-1.055-6.134-2.884-8.526-5.339v-21.086c0.825,0.522,1.682,1.003,2.55,1.432c3.887,1.933,8.213,2.968,12.654,2.968  c0.616,0,1.223-0.021,1.839-0.063c0.899-2.57,1.776-5.151,2.612-7.732c-1.442,0.324-2.936,0.481-4.451,0.481  c-3.626,0-7.126-0.93-10.23-2.644c-1.818-1.003-3.5-2.278-4.974-3.793V79.872c3.396,2.142,7.21,3.553,11.222,4.127  c1.306,0.178,2.644,0.272,3.981,0.272c4.096,0,8.087-0.878,11.724-2.518c0.711-2.832,1.39-5.663,2.038-8.505  c0.125-0.554,0.23-1.108,0.324-1.661C476.264,75.024,471.259,76.957,466.024,76.957z M428.304,53.833  c5.444,0,10.689-1.557,15.203-4.409V70.51c-3.981,4.106-9.446,6.437-15.203,6.437s-11.233-2.33-15.203-6.426V49.434  C417.593,52.276,422.849,53.833,428.304,53.833z M428.304,107.384c-5.768,0-11.254-2.341-15.203-6.437V79.862  c4.493,2.842,9.749,4.399,15.203,4.399c2.717,0,5.392-0.387,7.952-1.139c2.56-0.742,5.005-1.839,7.252-3.271v21.086  C439.526,105.044,434.061,107.384,428.304,107.384z M443.507,110.289v21.086c-3.981,4.106-9.446,6.437-15.203,6.437  c-5.757,0-11.233-2.33-15.203-6.437v-21.076c4.493,2.842,9.749,4.399,15.203,4.399C433.748,114.698,439.003,113.142,443.507,110.289  z M375.359,49.434c4.514,2.842,9.77,4.399,15.214,4.399c5.454,0,10.71-1.557,15.214-4.399V70.51  c-3.981,4.106-9.456,6.437-15.214,6.437s-11.222-2.33-15.214-6.437V49.434z M375.359,79.862c4.514,2.842,9.77,4.399,15.214,4.399  c5.454,0,10.71-1.557,15.214-4.399v21.086c-3.981,4.096-9.456,6.437-15.214,6.437s-11.222-2.341-15.214-6.447V79.862z   M375.359,110.289c4.514,2.853,9.77,4.409,15.214,4.409c5.454,0,10.71-1.557,15.214-4.409v21.086  c-3.981,4.106-9.456,6.437-15.214,6.437s-11.222-2.33-15.214-6.437V110.289z M375.359,140.727c4.514,2.842,9.77,4.399,15.214,4.399  c5.454,0,10.71-1.557,15.214-4.399v21.076c-3.981,4.106-9.456,6.437-15.214,6.437s-11.222-2.33-15.214-6.437V140.727z   M375.359,171.154c4.514,2.842,9.77,4.399,15.214,4.399c5.454,0,10.71-1.557,15.214-4.399v21.086  c-3.981,4.106-9.456,6.437-15.214,6.437s-11.222-2.33-15.214-6.437V171.154z M352.841,114.698c2.727,0,5.402-0.387,7.962-1.128  c2.56-0.752,4.995-1.849,7.241-3.271v21.076c-3.981,4.106-9.446,6.437-15.203,6.437c-5.747,0-11.222-2.33-15.203-6.437v-21.076  C342.141,113.142,347.397,114.698,352.841,114.698z M337.638,100.948V79.862c4.504,2.842,9.759,4.399,15.203,4.399  c2.727,0,5.402-0.387,7.962-1.128c2.56-0.742,4.995-1.849,7.241-3.26v21.076c-3.981,4.106-9.446,6.437-15.203,6.437  C347.105,107.384,341.64,105.054,337.638,100.948z M352.841,145.126c2.727,0,5.402-0.387,7.962-1.128  c2.55-0.752,4.995-1.849,7.241-3.271v21.086c-3.981,4.096-9.446,6.426-15.203,6.426c-5.747,0-11.222-2.33-15.203-6.426v-21.086  C342.141,143.569,347.397,145.126,352.841,145.126z M352.841,175.553c2.727,0,5.402-0.387,7.962-1.128  c2.56-0.752,4.995-1.839,7.241-3.26v21.076c-3.971,4.106-9.446,6.437-15.203,6.437c-5.736,0-11.201-2.33-15.203-6.437v-21.076  C342.141,173.996,347.397,175.553,352.841,175.553z M352.841,53.833c5.454,0,10.71-1.557,15.203-4.399V70.52  c-3.981,4.096-9.446,6.426-15.203,6.426c-5.747,0-11.222-2.33-15.203-6.426V49.434C342.141,52.276,347.397,53.833,352.841,53.833z   M315.12,53.833c5.444,0,10.7-1.557,15.203-4.399V70.51c-3.971,4.106-9.446,6.437-15.203,6.437c-5.757,0-11.222-2.33-15.203-6.426  V49.434C304.421,52.276,309.676,53.833,315.12,53.833z M315.12,107.384c-5.757,0-11.222-2.33-15.203-6.437V79.862  c4.504,2.842,9.759,4.399,15.203,4.399s10.7-1.557,15.203-4.399v21.076C326.353,105.044,320.878,107.384,315.12,107.384z   M330.324,110.289v21.086c-3.971,4.106-9.446,6.437-15.203,6.437c-5.757,0-11.222-2.33-15.203-6.437v-21.076  c4.504,2.842,9.759,4.399,15.203,4.399S325.82,113.142,330.324,110.289z M315.611,168.229c-0.167,0.01-0.324,0.01-0.491,0.01  c-5.757,0-11.222-2.33-15.203-6.426v-21.086c0.826,0.522,1.682,1.003,2.55,1.442c3.887,1.923,8.213,2.957,12.654,2.957  c5.444,0,10.7-1.557,15.203-4.399v21.076C326.468,165.794,321.191,168.103,315.611,168.229z M368.044,222.678  c-3.981,4.096-9.446,6.426-15.203,6.426c-5.747,0-11.222-2.33-15.203-6.426v-21.086c4.504,2.842,9.759,4.399,15.203,4.399  c5.454,0,10.71-1.557,15.203-4.399V222.678z M405.786,222.668c-3.981,4.106-9.456,6.437-15.214,6.437s-11.222-2.33-15.214-6.437  v-21.086c4.514,2.853,9.77,4.409,15.214,4.409c5.454,0,10.71-1.557,15.214-4.399V222.668z M443.507,140.716v21.086  c-3.981,4.106-9.446,6.437-15.203,6.437c-0.157,0-0.313,0-0.47-0.01c-5.601-0.115-10.888-2.445-14.733-6.416v-21.086  c4.504,2.842,9.749,4.399,15.203,4.399c4.451,0,8.788-1.045,12.685-2.988C441.846,141.709,442.692,141.228,443.507,140.716z"/>
<path style="fill:#FFD15C;" d="M476.682,51.764c-1.233-2.226-2.738-4.295-4.483-6.165c-3.594-3.856-8.223-6.823-13.584-8.443  c-56.842-17.115-116.945-17.115-173.787,0c-5.36,1.62-9.989,4.587-13.584,8.443c-1.745,1.87-3.25,3.939-4.483,6.165  c-3.271,5.893-4.608,12.852-3.427,19.843c0.094,0.543,0.199,1.097,0.324,1.64c0.648,2.842,1.327,5.674,2.038,8.505  c2.121,8.443,4.545,16.833,7.272,25.161c0.836,2.581,1.714,5.151,2.612,7.722c2.602,7.408,5.444,14.775,8.516,22.079  c0.94,2.257,1.912,4.504,2.905,6.74c1.797,4.054,3.657,8.088,5.601,12.089c2.623,5.444,5.381,10.846,8.276,16.206  c4.88,9.07,10.136,18.024,15.767,26.864c1.442,2.257,2.905,4.504,4.399,6.75c1.317,2.006,2.664,4.002,4.033,5.987  c1.599,2.32,3.344,4.504,5.245,6.531c8.349,8.965,19.372,14.973,31.399,17.126c3.271,0.596,6.614,0.899,10,0.899  c3.375,0,6.719-0.303,9.989-0.888c12.016-2.152,23.04-8.15,31.389-17.105c1.902-2.038,3.668-4.221,5.266-6.562  c1.369-1.985,2.717-3.981,4.033-5.987c1.494-2.247,2.957-4.493,4.399-6.75c5.642-8.861,10.919-17.836,15.799-26.917  c2.884-5.329,5.622-10.7,8.223-16.102c1.849-3.814,3.626-7.649,5.339-11.494c0.094-0.209,0.188-0.428,0.282-0.637  c0.993-2.236,1.964-4.483,2.905-6.74c3.072-7.304,5.914-14.67,8.516-22.089c0.899-2.57,1.776-5.151,2.612-7.732  c2.727-8.317,5.151-16.708,7.272-25.151c0.711-2.832,1.39-5.663,2.038-8.505c0.125-0.554,0.23-1.108,0.324-1.661v-0.01  C481.29,64.596,479.943,57.647,476.682,51.764z M440.989,142.137c-4.033,8.798-8.422,17.492-13.155,26.091  c-1.285,2.341-2.602,4.66-3.939,6.98c-3.354,5.81-6.865,11.577-10.553,17.283c-2.278,3.542-4.629,7.074-7.032,10.574  c-0.167,0.251-0.345,0.491-0.522,0.731c-7.252,10.136-18.16,16.311-30.427,17.324c-1.202,0.104-2.414,0.157-3.636,0.157  c-1.233,0-2.466-0.052-3.678-0.157c-12.267-1.024-23.165-7.21-30.407-17.356c-0.178-0.23-0.345-0.46-0.502-0.7  c-2.414-3.511-4.765-7.043-7.043-10.595c-3.678-5.705-7.189-11.452-10.543-17.262c-1.337-2.32-2.654-4.639-3.939-6.98  c-4.733-8.589-9.112-17.272-13.145-26.06c-3.574-7.784-6.865-15.653-9.864-23.583c-0.878-2.288-1.714-4.566-2.529-6.865  c-0.836-2.32-1.64-4.66-2.424-6.99c-2.299-6.875-4.389-13.793-6.259-20.752c-0.637-2.372-1.254-4.754-1.849-7.137  c-0.564-2.278-1.097-4.556-1.62-6.834c-1.567-6.949,1.755-13.991,7.795-17.429c1.034-0.585,2.152-1.066,3.333-1.421  c0.345-0.104,0.7-0.209,1.045-0.313c0.836-0.251,1.672-0.491,2.508-0.731c5.642-1.62,11.316-3.062,17.011-4.326  c6.019-1.348,12.058-2.487,18.119-3.427c3.584-0.564,7.158-1.055,10.752-1.473c10.167-1.191,20.386-1.839,30.595-1.933  c0.888-0.01,1.766-0.01,2.644-0.01s1.745,0,2.623,0.01c10.219,0.094,20.438,0.742,30.616,1.933c3.574,0.418,7.147,0.909,10.71,1.463  c6.06,0.94,12.121,2.09,18.139,3.438c5.695,1.264,11.368,2.706,17.011,4.326c0.836,0.23,1.661,0.47,2.487,0.721  c0.366,0.104,0.721,0.219,1.087,0.324c1.191,0.355,2.32,0.846,3.354,1.432c5.026,2.873,8.161,8.234,8.161,13.96  c0,1.139-0.125,2.299-0.387,3.459c-0.522,2.288-1.055,4.566-1.63,6.844c-0.585,2.393-1.202,4.775-1.849,7.147  c-1.87,6.959-3.95,13.866-6.249,20.741c-0.784,2.33-1.588,4.671-2.424,6.99c-0.825,2.309-1.672,4.608-2.55,6.907  C447.833,126.537,444.552,134.374,440.989,142.137z"/>
<path style="fill:#EF4152;" d="M272.773,390.131c0,28.257-22.908,51.178-51.178,51.178c-28.257,0-51.178-22.921-51.178-51.178  c0-28.27,22.921-51.178,51.178-51.178c1.085,0,2.157,0.037,3.217,0.097c25.711,1.597,46.267,22.165,47.864,47.876  C272.736,387.986,272.773,389.058,272.773,390.131z"/>
<path style="fill:#FF525D;" d="M272.674,386.927c-3.753,18.509-20.13,32.449-39.748,32.449c-22.409,0-40.577-18.168-40.577-40.565  c0-19.63,13.94-36.007,32.462-39.76C250.522,340.647,271.078,361.215,272.674,386.927z"/>
<g>
	<circle style="fill:#FF6E7C;" cx="244.088" cy="368.953" r="13.81"/>
	<circle style="fill:#FF6E7C;" cx="220.735" cy="353.928" r="9.766"/>
</g>
<g>
</g>
<g>
</g>
<g>
</g>
<g>
</g>
<g>
</g>
<g>
</g>
<g>
</g>
<g>
</g>
<g>
</g>
<g>
</g>
<g>
</g>
<g>
</g>
<g>
</g>
<g>
</g>
<g>
</g>
</svg>
