<?xml version="1.0" encoding="iso-8859-1"?>
<!-- Generator: Adobe Illustrator 19.0.0, SVG Export Plug-In . SVG Version: 6.00 Build 0)  -->
<svg xmlns="http://www.w3.org/2000/svg" xmlns:xlink="http://www.w3.org/1999/xlink" version="1.1" id="Capa_1" x="0px" y="0px" viewBox="0 0 512 512" style="enable-background:new 0 0 512 512;" xml:space="preserve">
<path style="fill:#4BC999;" d="M512,256c0,7.931-0.355,15.768-1.066,23.51c-1.755,19.257-5.632,37.888-11.421,55.672  c-8.129,25.057-20.031,48.41-35.025,69.413c-6.938,9.707-14.535,18.913-22.727,27.544c-1.118,1.181-2.247,2.351-3.396,3.511  c-6.134,6.238-12.581,12.152-19.331,17.721c-1.128,0.93-2.257,1.849-3.396,2.748c-7.262,5.81-14.848,11.233-22.727,16.227  C353.311,497.455,306.354,512,256,512c-14.2,0-28.139-1.16-41.712-3.385c-33.959-5.559-65.672-17.805-93.738-35.338  c-26.77-16.729-50.228-38.264-69.162-63.404c-12.925-17.157-23.74-35.986-32.068-56.121C6.865,323.626,0,290.617,0,256  c0-14.67,1.233-29.059,3.605-43.06c3.48-20.543,9.415-40.26,17.481-58.828c6.719-15.485,14.932-30.166,24.44-43.886  C91.752,43.614,168.782,0,256,0s164.248,43.614,210.474,110.226c4.232,6.092,8.202,12.382,11.891,18.85  c15.287,26.718,25.893,56.456,30.699,88.095c0,0.01,0,0.021,0.01,0.021c1.16,7.617,1.985,15.339,2.456,23.155  c0.219,3.678,0.366,7.377,0.428,11.097C511.99,252.959,512,254.474,512,256z"/>
<g>
	<path style="fill:#5BD3A2;" d="M290.179,417.645L290.179,417.645c0-7.75-6.282-14.032-14.032-14.032H157.904   c-7.749,0-14.032,6.282-14.032,14.032l0,0c0,7.749,6.282,14.032,14.032,14.032h38.247c7.749,0,14.032,6.282,14.032,14.032l0,0   c0,7.749-6.282,14.032-14.032,14.032h-3.9c-7.749,0-14.032,6.282-14.032,14.032l0,0c0,7.749,6.282,14.032,14.032,14.032h113.328   c7.749,0,14.032-6.282,14.032-14.032l0,0c0-7.749,6.282-14.032,14.032-14.032h3.9c7.749,0,14.032-6.282,14.032-14.032l0,0   c0-7.749-6.282-14.032-14.032-14.032h-33.331C296.462,431.677,290.179,425.395,290.179,417.645z"/>
	<path style="fill:#5BD3A2;" d="M499.66,279.51h11.274c-1.755,19.257-5.632,37.888-11.421,55.672   c-1.139,0.303-2.341,0.46-3.574,0.46H293.867c-3.877,0-7.387-1.578-9.927-4.117s-4.106-6.05-4.106-9.916   c0-7.753,6.28-14.033,14.033-14.033h42.653c3.866,0,7.377-1.567,9.916-4.106s4.117-6.05,4.117-9.927   c0-7.753-6.29-14.033-14.033-14.033h-11.912c-3.866,0-7.377-1.567-9.916-4.106s-4.117-6.05-4.117-9.927   c0-7.743,6.29-14.033,14.033-14.033h39.414c3.877,0,7.387-1.567,9.927-4.106s4.106-6.04,4.106-9.916   c0-7.753-6.28-14.033-14.033-14.033h-86.528c-3.877,0-7.387-1.567-9.927-4.117c-2.539-2.539-4.106-6.04-4.106-9.916   c0-7.753,6.28-14.033,14.033-14.033h215.155c3.866,0,7.377,1.567,9.916,4.106s4.106,6.05,4.106,9.927   c0,2.894,0.878,5.59,2.393,7.816c0,0.01,0,0.021,0.01,0.021c1.16,7.617,1.985,15.339,2.456,23.155   c0.219,3.678,0.366,7.377,0.428,11.097H499.66c-3.877,0-7.387,1.578-9.927,4.117c-2.539,2.539-4.106,6.05-4.106,9.916   C485.627,273.23,491.907,279.51,499.66,279.51z"/>
	<path style="fill:#5BD3A2;" d="M296.426,160.463L296.426,160.463c0-6.418,5.203-11.62,11.62-11.62h37.445   c6.418,0,11.62-5.203,11.62-11.62l0,0c0-6.418-5.203-11.62-11.62-11.62H235.102c-6.418,0-11.62,5.203-11.62,11.62l0,0   c0,6.418-5.203,11.62-11.62,11.62h-37.445c-6.418,0-11.62,5.203-11.62,11.62l0,0c0,6.418,5.203,11.62,11.62,11.62h55.521   c6.418,0,11.62,5.203,11.62,11.62l0,0c0,6.418,5.203,11.62,11.62,11.62h110.388c6.418,0,11.62-5.203,11.62-11.62l0,0   c0-6.418-5.203-11.62-11.62-11.62h-55.521C301.629,172.082,296.426,166.88,296.426,160.463z"/>
	<path style="fill:#5BD3A2;" d="M145.063,215.489c0,6.781-5.496,12.278-12.278,12.278H16.154c-3.385,0-6.457-1.369-8.683-3.594   c-2.226-2.226-3.594-5.298-3.594-8.683c0-0.878-0.094-1.724-0.272-2.55c3.48-20.543,9.415-40.26,17.481-58.828h92.599   c3.385,0,6.457,1.379,8.683,3.594s3.594,5.287,3.594,8.673c0,6.781-5.496,12.278-12.278,12.278h-39.56   c-6.781,0-12.278,5.507-12.278,12.278c0,6.781,5.496,12.278,12.278,12.278h58.661c3.385,0,6.457,1.369,8.683,3.594   C143.694,209.032,145.063,212.104,145.063,215.489z"/>
	<path style="fill:#5BD3A2;" d="M89.725,395.849c0,7.743-6.28,14.023-14.033,14.023H51.388   c-12.925-17.157-23.74-35.986-32.068-56.121h28.317c7.743,0,14.033,6.28,14.033,14.033c0,3.877,1.567,7.387,4.106,9.927   s6.05,4.106,9.916,4.106c3.877,0,7.387,1.567,9.927,4.106C88.158,388.462,89.725,391.973,89.725,395.849z"/>
</g>
<path style="fill:#34ABE0;" d="M466.474,110.226H45.526C91.752,43.614,168.782,0,256,0c0.491,0,0.972,0,1.463,0.01  c66.633,0.366,127.248,26.196,172.586,68.253C443.653,80.875,455.868,94.95,466.474,110.226z"/>
<path style="fill:#78CAEF;" d="M430.049,68.263c-2.55,3.584-6.729,5.914-11.452,5.914h-113.33c-3.877,0-7.377-1.567-9.916-4.106  c-2.55-2.539-4.117-6.05-4.117-9.927c0-7.753,6.29-14.033,14.033-14.033h3.908c3.877,0,7.377-1.567,9.916-4.106  c2.539-2.539,4.106-6.05,4.106-9.927c0-7.743-6.28-14.033-14.023-14.033h-38.254c-3.877,0-7.387-1.567-9.927-4.106  s-4.106-6.05-4.106-9.916c0-1.39,0.199-2.738,0.575-4.012C324.096,0.376,384.711,26.206,430.049,68.263z"/>
<rect x="86.246" y="71.043" style="fill:#F9EED7;" width="29.257" height="282.112"/>
<rect x="86.246" y="71.043" style="fill:#E8DBC4;" width="11.627" height="282.112"/>
<rect x="233.576" y="71.043" style="fill:#F9EED7;" width="29.257" height="282.112"/>
<g>
	<rect x="233.566" y="71.043" style="fill:#E8DBC4;" width="11.627" height="282.112"/>
	<rect x="86.246" y="73.655" style="fill:#E8DBC4;" width="29.257" height="29.257"/>
</g>
<g>
	<path style="fill:#41B787;" d="M405.974,368.217c0,22.572-22.908,40.882-51.178,40.882c-28.257,0-51.178-18.309-51.178-40.882   c0-22.582,22.921-40.882,51.178-40.882c1.085,0,2.157,0.029,3.217,0.078c25.711,1.275,46.267,17.706,47.864,38.243   C405.938,366.503,405.974,367.36,405.974,368.217z"/>
	<path style="fill:#41B787;" d="M196.193,290.931c0,14.324-14.538,25.943-32.476,25.943c-17.931,0-32.476-11.618-32.476-25.943   c0-14.33,14.545-25.943,32.476-25.943c0.689,0,1.369,0.019,2.042,0.049c16.316,0.809,29.361,11.236,30.373,24.269   C196.169,289.843,196.193,290.388,196.193,290.931z"/>
</g>
<rect x="233.576" y="73.655" style="fill:#E8DBC4;" width="29.257" height="29.257"/>
<g>
	<path style="fill:#F9EED7;" d="M267.794,340.612h-39.182c-5.627,0-10.187,4.561-10.187,10.187l0,0   c0,5.626,4.561,10.188,10.187,10.188h39.182c5.626,0,10.188-4.561,10.188-10.188l0,0   C277.98,345.173,273.419,340.612,267.794,340.612z"/>
	<path style="fill:#F9EED7;" d="M120.47,340.612H81.289c-5.626,0-10.187,4.561-10.187,10.187l0,0   c0,5.626,4.561,10.188,10.187,10.188h39.182c5.627,0,10.188-4.561,10.188-10.188l0,0   C130.657,345.173,126.096,340.612,120.47,340.612z"/>
</g>
<g>
	<path style="fill:#E8DBC4;" d="M236.536,350.799c0-5.626,4.561-10.188,10.188-10.188h-18.111c-5.627,0-10.188,4.561-10.188,10.188   c0,5.627,4.561,10.188,10.188,10.188h18.111C241.097,360.986,236.536,356.425,236.536,350.799z"/>
	<path style="fill:#E8DBC4;" d="M89.212,350.799c0-5.626,4.561-10.188,10.188-10.188H81.289c-5.627,0-10.188,4.561-10.188,10.188   c0,5.627,4.561,10.188,10.188,10.188H99.4C93.774,360.986,89.212,356.425,89.212,350.799z"/>
</g>
<path style="fill:#EF4152;" d="M199.82,273.703c0,18.44-14.949,33.397-33.397,33.397c-18.44,0-33.397-14.957-33.397-33.397  c0-18.448,14.957-33.397,33.397-33.397c0.707,0,1.407,0.024,2.099,0.064c16.778,1.042,30.192,14.465,31.234,31.242  C199.796,272.304,199.82,273.003,199.82,273.703z"/>
<path style="fill:#FF525D;" d="M199.756,271.612c-2.449,12.079-13.136,21.175-25.939,21.175c-14.623,0-26.479-11.855-26.479-26.471  c0-12.81,9.097-23.497,21.183-25.946C185.3,241.411,198.714,254.833,199.756,271.612z"/>
<g>
	<circle style="fill:#FF6E7C;" cx="181.102" cy="259.887" r="9.012"/>
	<circle style="fill:#FF6E7C;" cx="165.857" cy="250.075" r="6.373"/>
</g>
<path style="fill:#279FC9;" d="M411.199,334.933c0,28.257-22.908,51.178-51.178,51.178c-28.257,0-51.178-22.921-51.178-51.178  c0-28.27,22.921-51.178,51.178-51.178c1.085,0,2.157,0.037,3.217,0.097c25.711,1.597,46.267,22.165,47.864,47.876  C411.162,332.787,411.199,333.861,411.199,334.933z"/>
<path style="fill:#34ABE0;" d="M411.1,331.728c-3.753,18.509-20.13,32.449-39.748,32.449c-22.409,0-40.577-18.168-40.577-40.565  c0-19.63,13.94-36.007,32.462-39.76C388.949,285.448,409.505,306.017,411.1,331.728z"/>
<g>
	<circle style="fill:#78CAEF;" cx="382.516" cy="313.762" r="13.81"/>
	<circle style="fill:#78CAEF;" cx="359.163" cy="298.726" r="9.766"/>
</g>
<path style="fill:#EDBB4C;" d="M249.72,449.661c0,25.548-14.346,47.741-35.432,58.953c-33.959-5.559-65.672-17.805-93.738-35.338  c-2.779-7.346-4.305-15.297-4.305-23.615c0-36.864,29.895-66.738,66.738-66.738c1.411,0,2.811,0.052,4.201,0.136  c33.52,2.079,60.332,28.902,62.412,62.422C249.678,446.871,249.72,448.272,249.72,449.661z"/>
<path style="fill:#FFD15C;" d="M249.595,445.487c-4.894,24.137-26.25,42.314-51.833,42.314c-29.222,0-52.914-23.692-52.914-52.898  c0-25.599,18.178-46.955,42.331-51.849C220.706,385.137,247.512,411.959,249.595,445.487z"/>
<g>
	<circle style="fill:#FFDC8D;" cx="212.313" cy="422.055" r="18.009"/>
	<circle style="fill:#FFDC8D;" cx="181.864" cy="402.453" r="12.734"/>
</g>
<path style="fill:#C69A6A;" d="M438.366,204.257v231.393c-6.134,6.238-12.581,12.152-19.331,17.721  c-1.128,0.93-2.257,1.849-3.396,2.748c-7.262,5.81-14.848,11.233-22.727,16.227V204.257H438.366z"/>
<g>
	<rect x="392.913" y="175.606" style="fill:#B58657;" width="45.451" height="90.018"/>
	<path style="fill:#B58657;" d="M415.639,204.257v251.862c-7.262,5.81-14.848,11.233-22.727,16.227V204.257H415.639z"/>
</g>
<path style="fill:#C69A6A;" d="M511.53,240.347H292.874V129.076h185.49C497.33,162.22,509.095,200.035,511.53,240.347z"/>
<circle style="fill:#B58657;" cx="292.874" cy="184.717" r="55.641"/>
<path style="fill:#D3AA81;" d="M458.217,171.347h-83.065c-7.79,0-14.105-6.315-14.105-14.105l0,0c0-7.79,6.315-14.105,14.105-14.105  h83.065c7.79,0,14.105,6.315,14.105,14.105l0,0C472.322,165.031,466.007,171.347,458.217,171.347z"/>
<path style="fill:#FF525D;" d="M270.144,85.67H78.938c-8.079,0-14.629-6.549-14.629-14.629s6.549-14.629,14.629-14.629h191.206  c8.079,0,14.629,6.549,14.629,14.629C284.772,79.121,278.224,85.67,270.144,85.67z"/>
<path style="fill:#FF6E7C;" d="M261.921,73.773h-99.613c-3.271,0-5.921-2.651-5.921-5.921l0,0c0-3.271,2.651-5.921,5.921-5.921  h99.613c3.271,0,5.921,2.651,5.921,5.921l0,0C267.842,71.122,265.191,73.773,261.921,73.773z"/>
<g>
</g>
<g>
</g>
<g>
</g>
<g>
</g>
<g>
</g>
<g>
</g>
<g>
</g>
<g>
</g>
<g>
</g>
<g>
</g>
<g>
</g>
<g>
</g>
<g>
</g>
<g>
</g>
<g>
</g>
</svg>
