<?xml version="1.0" encoding="iso-8859-1"?>
<!-- Generator: Adobe Illustrator 19.0.0, SVG Export Plug-In . SVG Version: 6.00 Build 0)  -->
<svg xmlns="http://www.w3.org/2000/svg" xmlns:xlink="http://www.w3.org/1999/xlink" version="1.1" id="Capa_1" x="0px" y="0px" viewBox="0 0 512 512" style="enable-background:new 0 0 512 512;" xml:space="preserve">
<path style="fill:#4BC999;" d="M0,256c0,1.076,0.01,2.142,0.021,3.218c0.125,10.271,0.857,20.396,2.163,30.344  C18.62,415.086,125.994,512,256,512c10.616,0,21.076-0.648,31.347-1.902c36.028-4.399,69.736-16.279,99.537-34.053  c15.256-9.08,29.477-19.717,42.465-31.681c12.361-11.368,23.604-23.949,33.541-37.554C493.777,364.513,512,312.383,512,256  C512,114.615,397.385,0,256,0C134.374,0,32.569,84.814,6.478,198.52c-2.278,9.916-3.971,20.052-5.057,30.375  C0.481,237.798,0,246.847,0,256z"/>
<g>
	<path style="fill:#5BD3A2;" d="M356.832,448.3v0.001c0,8.373-6.787,15.159-15.159,15.159H197.65   c-8.373,0-15.159-6.787-15.159-15.159V448.3c0-8.373,6.787-15.159,15.159-15.159h24.003c8.373,0,15.159-6.787,15.159-15.159v-0.001   c0-8.373,6.787-15.159,15.159-15.159h120.019c8.373,0,15.159,6.787,15.159,15.159v0.001c0,8.373-6.787,15.159-15.159,15.159l0,0   C363.619,433.141,356.832,439.927,356.832,448.3z"/>
	<path style="fill:#5BD3A2;" d="M0.021,259.218c0.125,10.271,0.857,20.396,2.163,30.344c3.939,0.146,7.502,1.808,10.104,4.42   c2.748,2.738,4.441,6.531,4.441,10.721c0,8.37,6.792,15.151,15.161,15.151h218.331c4.19,0,7.973-1.693,10.721-4.441   c2.748-2.738,4.441-6.531,4.441-10.71c0-8.38-6.792-15.161-15.161-15.161h-46.08c-4.19,0-7.983-1.703-10.721-4.441   c-2.748-2.748-4.441-6.541-4.441-10.721c0-8.37,6.781-15.161,15.161-15.161h12.863c4.18,0,7.973-1.703,10.71-4.441   c2.748-2.748,4.441-6.541,4.441-10.721c0-8.37-6.781-15.161-15.151-15.161h-42.58c-4.19,0-7.983-1.693-10.721-4.441   c-2.748-2.738-4.441-6.531-4.441-10.721c0-8.37,6.781-15.151,15.161-15.151h93.487c4.18,0,7.973-1.693,10.721-4.441   c2.738-2.748,4.441-6.531,4.441-10.721c0-8.38-6.792-15.161-15.161-15.161H35.453c-4.19,0-7.973,1.693-10.721,4.441   c-2.748,2.738-4.441,6.531-4.441,10.721c0,7.91-6.06,14.42-13.814,15.099c-2.278,9.916-3.971,20.052-5.057,30.375h26.457   c4.18,0,7.973,1.703,10.721,4.441c2.738,2.748,4.441,6.541,4.441,10.721c0,8.37-6.792,15.161-15.161,15.161L0.021,259.218   L0.021,259.218z"/>
</g>
<path style="fill:#FFD15C;" d="M287.347,206.367v303.731c54.46-6.646,103.633-30.396,142.002-65.735  c12.361-11.368,23.604-23.949,33.541-37.554V206.367c0-10.52-8.528-19.048-19.048-19.048H306.395  C295.875,187.319,287.347,195.847,287.347,206.367z"/>
<path style="fill:#EDBB4C;" d="M429.349,187.319v257.045c12.361-11.368,23.604-23.949,33.541-37.554V206.367  c0-10.52-8.528-19.048-19.048-19.048H429.349z"/>
<path style="fill:#FFDC8D;" d="M318.074,494.866L318.074,494.866c6.059,0,10.97-4.912,10.97-10.97V226.863  c0-6.059-4.912-10.97-10.97-10.97l0,0c-6.059,0-10.97,4.912-10.97,10.97v257.032C307.103,489.954,312.015,494.866,318.074,494.866z"/>
<path style="fill:#C69A6A;" d="M287.347,245.833v230.212h99.537c15.256-9.08,29.477-19.717,42.465-31.681  c12.361-11.368,23.604-23.949,33.541-37.554V245.833H287.347z"/>
<path style="fill:#B58657;" d="M429.349,245.833v198.531c12.361-11.368,23.604-23.949,33.541-37.554V245.833H429.349z"/>
<path style="fill:#5C5E70;" d="M346.706,23.117h47.502c23.737,0,42.979,19.242,42.979,42.979v42.979v78.243h-18.807v-78.243h-71.674  c-23.737,0-42.979-19.242-42.979-42.979l0,0C303.727,42.36,322.969,23.117,346.706,23.117z"/>
<path style="fill:#4BC999;" d="M120.263,278.489H85.187c-17.527,0-31.736-14.208-31.736-31.736v-31.736V11.494h13.888v203.523  h52.924c17.527,0,31.736,14.209,31.736,31.736l0,0C151.998,264.281,137.79,278.489,120.263,278.489z"/>
<path style="fill:#FFD15C;" d="M120.263,266.995H85.187c-17.527,0-31.736-14.209-31.736-31.736v-31.736V0h13.888v203.523h52.924  c17.527,0,31.736,14.209,31.736,31.736l0,0C151.998,252.787,137.79,266.995,120.263,266.995z"/>
<path style="fill:#797B89;" d="M334.893,40.357h67.393c3.895,0,7.053,3.158,7.053,7.053l0,0c0,3.895-3.158,7.053-7.053,7.053  h-67.393c-3.895,0-7.053-3.158-7.053-7.053l0,0C327.84,43.515,330.998,40.357,334.893,40.357z"/>
<path style="fill:#F9EED7;" d="M259.652,70.29h78.797l0,0c12.173,0,22.041,9.868,22.041,22.041v64.004v30.983h-22.041v-30.983  h-78.797c-11.878,0-21.508-9.63-21.508-21.508V91.798C238.143,79.92,247.772,70.29,259.652,70.29z"/>
<path style="fill:#FCF8F2;" d="M260.568,96.78h69.56c3.729,0,6.753-3.023,6.753-6.753v-0.6c0-3.729-3.023-6.753-6.753-6.753h-69.56  c-3.729,0-6.753,3.023-6.753,6.753v0.6C253.816,93.756,256.839,96.78,260.568,96.78z"/>
<path style="fill:#FFDC8D;" d="M79.896,224.211h43.116c3.729,0,6.753-3.023,6.753-6.753l0,0c0-3.729-3.023-6.753-6.753-6.753H79.896  c-3.729,0-6.753,3.023-6.753,6.753l0,0C73.143,221.187,76.166,224.211,79.896,224.211z"/>
<rect x="338.453" y="156.338" style="fill:#E8DBC4;" width="22.037" height="22.037"/>
<circle style="fill:#4BC999;" cx="118.335" cy="276.396" r="26.906"/>
<rect x="418.377" y="109.077" style="fill:#494B5B;" width="18.807" height="30.02"/>
<path style="fill:#5C5E70;" d="M167.048,375.035c0,14.639,9.937,26.948,23.427,30.553c2.612,0.7,5.371,1.076,8.202,1.076  c3.574,0,7.022-0.596,10.219-1.703c12.455-4.232,21.41-16.029,21.41-29.926c0-13.897-8.955-25.694-21.41-29.926  c-3.197-1.108-6.646-1.703-10.219-1.703c-2.832,0-5.59,0.376-8.202,1.076C176.985,348.087,167.048,360.396,167.048,375.035z"/>
<rect x="307.106" y="245.833" style="fill:#D3AA81;" width="21.942" height="230.212"/>
<path style="fill:#F9EED7;" d="M190.474,109.317v296.27c2.612,0.7,5.371,1.076,8.202,1.076c3.574,0,7.022-0.596,10.219-1.703  V109.317H190.474z"/>
<polygon style="fill:#FF525D;" points="190.471,109.317 190.471,202.151 157.579,187.578 85.668,155.731 "/>
<circle style="fill:#F9EED7;" cx="117.467" cy="265.979" r="25.743"/>
<path style="fill:#E8DBC4;" d="M104.926,283.284c11.831,0,21.424-9.591,21.424-21.424c0-9.89-6.704-18.21-15.813-20.676  c2.208-0.616,4.532-0.953,6.937-0.953c14.218,0,25.743,11.525,25.743,25.743c0,14.218-11.525,25.743-25.743,25.743  c-8.226,0-15.546-3.863-20.258-9.869C99.607,282.772,102.206,283.284,104.926,283.284z"/>
<g>
</g>
<g>
</g>
<g>
</g>
<g>
</g>
<g>
</g>
<g>
</g>
<g>
</g>
<g>
</g>
<g>
</g>
<g>
</g>
<g>
</g>
<g>
</g>
<g>
</g>
<g>
</g>
<g>
</g>
</svg>
