<?xml version="1.0" encoding="iso-8859-1"?>
<!-- Generator: Adobe Illustrator 19.0.0, SVG Export Plug-In . SVG Version: 6.00 Build 0)  -->
<svg xmlns="http://www.w3.org/2000/svg" xmlns:xlink="http://www.w3.org/1999/xlink" version="1.1" id="Capa_1" x="0px" y="0px" viewBox="0 0 512 512" style="enable-background:new 0 0 512 512;" xml:space="preserve">
<path style="fill:#F4A14E;" d="M512,256.001c0,15.067-1.306,29.832-3.803,44.178c-4.671,26.896-13.542,52.339-25.913,75.64  c-14.743,27.784-34.45,52.527-57.95,73.048c-34.868,30.469-78.085,51.618-125.753,59.601c-9.373,1.578-18.923,2.633-28.609,3.156  c-4.629,0.251-9.279,0.376-13.97,0.376c-30.365,0-59.486-5.287-86.507-14.984C92.716,469.452,32.938,406.256,10.086,327.357  c-6.562-22.653-10.083-46.592-10.083-71.356c0-141.384,114.614-255.998,255.998-255.998c88.032,0,165.688,44.439,211.758,112.106  c8.077,11.86,15.182,24.44,21.211,37.616c5.507,12.068,10.115,24.628,13.709,37.616c4.19,15.046,7.022,30.636,8.39,46.665  c0,0,0,0,0,0.01c0.502,5.893,0.805,11.849,0.888,17.847c0.01,0.01,0,0.01,0,0.01C511.99,253.253,512,254.622,512,256.001z"/>
<g>
	<path style="fill:#F9AF6B;" d="M203.464,445.712c3.406,3.406,5.507,8.108,5.507,13.301c0,10.386-8.422,18.808-18.808,18.808h-1.849   c-5.193,0-9.895,2.1-13.301,5.507c-3.396,3.396-5.507,8.098-5.507,13.301c0,0.125,0,0.261-0.01,0.387   C92.716,469.452,32.938,406.256,10.086,327.357h136.191c5.193,0,9.895,2.111,13.301,5.507c3.406,3.406,5.507,8.108,5.507,13.301   c0,10.386,8.422,18.808,18.808,18.808h6.269c10.386,0,18.808,8.422,18.808,18.808c0,10.386-8.422,18.808-18.808,18.808h-34.481   c-5.193,0-9.895,2.111-13.301,5.507c-3.406,3.406-5.507,8.108-5.507,13.301c0,10.386,8.422,18.808,18.808,18.808h34.481   C195.356,440.205,200.058,442.316,203.464,445.712z"/>
	<path style="fill:#F9AF6B;" d="M488.971,149.725H415.87c-5.193,0-9.895-2.111-13.301-5.507c-3.396-3.406-5.507-8.108-5.507-13.301   c0-10.386,8.422-18.808,18.808-18.808h51.889C475.836,123.969,482.942,136.549,488.971,149.725z"/>
	<path style="fill:#F9AF6B;" d="M479.023,187.341h23.656c4.19,15.046,7.022,30.636,8.39,46.665   c-3.302-5.423-9.268-9.049-16.081-9.049h-15.966c-5.193,0-9.895-2.111-13.291-5.507c-3.406-3.406-5.507-8.108-5.507-13.301   C460.226,195.763,468.637,187.341,479.023,187.341z"/>
	<path style="fill:#F9AF6B;" d="M512,256.001c0,15.067-1.306,29.832-3.803,44.178h-70.384c-5.193,0-9.895-2.1-13.301-5.507   c-3.396-3.396-5.507-8.098-5.507-13.291c0-10.397,8.422-18.808,18.808-18.808h57.176c5.193,0,9.895-2.111,13.301-5.507   c1.494-1.505,2.748-3.25,3.668-5.193C511.99,253.253,512,254.622,512,256.001z"/>
</g>
<circle style="fill:#5C5E70;" cx="197.756" cy="197.757" r="197.756"/>
<g>
	<path style="fill:#F9EED7;" d="M197.758,28.037c-46.874,0-89.307,18.996-120.016,49.716l-0.052-0.052l0.052,0.052l106.652,106.652   l13.354,13.354h-18.892H28.026c0,46.863,18.996,89.296,49.716,120.016l106.652-106.652l13.364-13.354v18.892v150.82   c46.863,0,89.296-18.996,120.006-49.706L211.112,211.123l-13.354-13.354v-0.01v-18.892V28.037z"/>
	<path style="fill:#F9EED7;" d="M317.764,77.753l0.052-0.052L317.764,77.753L211.112,184.405l-13.354,13.354h18.892h150.83   C367.48,150.906,348.484,108.473,317.764,77.753L317.764,77.753z"/>
</g>
<path style="fill:#4BC999;" d="M197.757,272.179c-41.034,0-74.418-33.384-74.418-74.419s33.384-74.418,74.418-74.418  c41.035,0,74.419,33.384,74.419,74.418S238.792,272.179,197.757,272.179z M197.757,136.925c-33.544,0-60.835,27.29-60.835,60.835  s27.29,60.836,60.835,60.836c33.545,0,60.836-27.29,60.836-60.836S231.301,136.925,197.757,136.925z"/>
<circle style="fill:#EF4152;" cx="197.756" cy="197.757" r="18.892"/>
<g>
	<path style="fill:#FF525D;" d="M197.757,322.486c-68.774,0-124.726-55.952-124.726-124.726S128.984,73.035,197.757,73.035   s124.726,55.952,124.726,124.726S266.531,322.486,197.757,322.486z M197.757,86.619c-61.284,0-111.142,49.858-111.142,111.142   s49.858,111.142,111.142,111.142s111.142-49.858,111.142-111.142S259.041,86.619,197.757,86.619z"/>
	<path style="fill:#FF525D;" d="M250.359,145.161l-9.603,9.603c11.013,11.013,17.836,26.227,17.836,42.997h13.584   C272.177,177.249,263.828,158.64,250.359,145.161z M145.159,145.17l9.603,9.603c11.003-11.024,26.216-17.847,42.997-17.847v-13.584   C177.238,123.344,158.628,131.692,145.159,145.17z M123.342,197.761c0,20.511,8.349,39.121,21.817,52.6l9.603-9.603   c-11.013-11.013-17.836-26.227-17.836-42.997H123.342z M240.746,240.758c-11.024,11.013-26.227,17.836-42.987,17.836v13.584   c20.511,0,39.11-8.349,52.589-21.817L240.746,240.758z"/>
</g>
<g>
	<path style="fill:#4BC999;" d="M285.906,109.614l-9.603,9.603c20.125,20.125,32.59,47.908,32.59,78.545h13.584   C322.478,163.384,308.497,132.204,285.906,109.614z M109.602,109.614l9.603,9.603c20.114-20.135,47.908-32.601,78.555-32.601   V73.032C163.361,73.032,132.182,87.023,109.602,109.614z M73.031,197.761c0,34.387,13.991,65.567,36.571,88.158l9.603-9.603   c-20.125-20.125-32.59-47.908-32.59-78.555H73.031z M276.304,276.315c-20.114,20.125-47.908,32.59-78.544,32.59v13.584   c34.387,0,65.567-13.991,88.147-36.571L276.304,276.315z"/>
	<path style="fill:#4BC999;" d="M197.757,374.277c-97.331,0-176.516-79.185-176.516-176.516S100.427,21.245,197.757,21.245   s176.517,79.185,176.517,176.516S295.088,374.277,197.757,374.277z M197.757,34.828c-89.841,0-162.932,73.091-162.932,162.932   s73.091,162.932,162.932,162.932S360.69,287.601,360.69,197.76S287.598,34.828,197.757,34.828z"/>
</g>
<polygon style="fill:#FCF8F2;" points="413.963,0.003 402.274,127.969 425.653,127.969 "/>
<polygon style="fill:#E8DBC4;" points="413.963,0.003 413.963,145.421 402.274,127.969 "/>
<polygon style="fill:#5C5E70;" points="430.652,223.124 395.863,223.124 402.321,377.338 424.195,377.338 "/>
<path style="fill:#EDBB4C;" d="M370.94,462.649h-14.343c-17.635,0-31.931-14.295-31.931-31.93v-4.932  c0-40.65,32.954-73.603,73.603-73.603h14.988v68.148C413.258,443.702,394.312,462.649,370.94,462.649z"/>
<path style="fill:#FFD15C;" d="M482.283,375.819c-14.743,27.784-34.45,52.527-57.95,73.048  c-6.886-7.523-11.076-17.544-11.076-28.536v-68.148h14.984C449.61,352.183,468.846,361.284,482.283,375.819z"/>
<path style="fill:#FF525D;" d="M425.021,127.969h-23.527c-9.209,0-16.673,7.465-16.673,16.673v105.556  c0,9.209,7.465,16.673,16.673,16.673h23.527c9.209,0,16.673-7.465,16.673-16.673V144.643  C441.694,135.434,434.23,127.969,425.021,127.969z"/>
<path style="fill:#EF4152;" d="M407.789,249.419V145.421c0-9.47,7.547-17.16,16.952-17.428c-0.167-0.005-0.331-0.025-0.499-0.025  h-21.969c-9.639,0-17.453,7.814-17.453,17.453v103.998c0,9.639,7.814,17.453,17.453,17.453h21.969c0.168,0,0.332-0.021,0.499-0.025  C415.337,266.58,407.789,258.889,407.789,249.419z"/>
<polygon style="fill:#FCF8F2;" points="284.888,241.655 273.72,363.907 296.055,363.907 "/>
<polygon style="fill:#E8DBC4;" points="284.888,241.655 284.888,380.58 273.72,363.907 "/>
<path style="fill:#5C5E70;" d="M300.827,454.813l-1.724,41.211l-0.522,12.445c-9.373,1.578-18.923,2.633-28.609,3.156l-0.648-15.6  l-1.724-41.211H300.827z"/>
<path style="fill:#34ABE0;" d="M294.707,363.907H273.72c-9.209,0-16.673,7.465-16.673,16.673v99.355  c0,9.209,7.465,16.673,16.673,16.673h20.988c9.209,0,16.673-7.465,16.673-16.673V380.58  C311.381,371.372,303.916,363.907,294.707,363.907z"/>
<path style="fill:#279FC9;" d="M278.989,479.935V380.58c0-9.048,7.211-16.394,16.196-16.649c-0.16-0.004-0.317-0.024-0.478-0.024  H273.72c-9.209,0-16.673,7.465-16.673,16.673v99.355c0,9.209,7.465,16.673,16.673,16.673h20.988c0.161,0,0.318-0.02,0.478-0.024  C286.2,496.328,278.989,488.982,278.989,479.935z"/>
<g>
</g>
<g>
</g>
<g>
</g>
<g>
</g>
<g>
</g>
<g>
</g>
<g>
</g>
<g>
</g>
<g>
</g>
<g>
</g>
<g>
</g>
<g>
</g>
<g>
</g>
<g>
</g>
<g>
</g>
</svg>
