<?xml version="1.0" encoding="iso-8859-1"?>
<!-- Generator: Adobe Illustrator 19.0.0, SVG Export Plug-In . SVG Version: 6.00 Build 0)  -->
<svg xmlns="http://www.w3.org/2000/svg" xmlns:xlink="http://www.w3.org/1999/xlink" version="1.1" id="Capa_1" x="0px" y="0px" viewBox="0 0 512 512" style="enable-background:new 0 0 512 512;" xml:space="preserve">
<path style="fill:#5C5E70;" d="M510.936,258.036c0,24.784-3.558,48.741-10.199,71.384c-18.34,62.613-60.202,115.171-115.367,147.465  c-17.585,10.303-36.525,18.547-56.489,24.381c-22.633,6.641-46.59,10.199-71.374,10.199c-139.965,0-253.429-113.464-253.429-253.429  c0-24.784,3.558-48.731,10.189-71.374c0-0.01,0.01-0.01,0.01-0.01c6.662-22.778,16.447-44.211,28.85-63.833  c32.563-51.524,83.197-90.5,142.996-108.013c22.633-6.641,46.59-10.199,71.384-10.199  C397.472,4.607,510.936,118.071,510.936,258.036z"/>
<g>
	<path style="fill:#797B89;" d="M388.866,253.673L388.866,253.673c0-10.283-8.335-18.618-18.618-18.618h-6.206   c-10.283,0-18.618-8.335-18.618-18.618l0,0c0-10.283-8.335-18.618-18.618-18.618H41.323c-10.283,0-18.618,8.335-18.618,18.618l0,0   c0,10.283,8.335,18.618,18.618,18.618h114.814c10.283,0,18.618,8.335,18.618,18.618l0,0c0,10.283-8.335,18.618-18.618,18.618   h-52.292c-10.283,0-18.618,8.335-18.618,18.618l0,0c0,10.283,8.335,18.618,18.618,18.618h15.796   c10.283,0,18.618,8.335,18.618,18.618l0,0c0,10.283-8.335,18.618-18.618,18.618H63.044c-10.283,0-18.618,8.335-18.618,18.618l0,0   c0,10.283,8.335,18.618,18.618,18.618h268.138c10.283,0,18.618-8.335,18.618-18.618l0,0c0-10.283,8.335-18.618,18.618-18.618h1.829   c10.283,0,18.618-8.335,18.618-18.618l0,0c0-10.283-8.335-18.618-18.618-18.618h-34.133c-10.283,0-18.618-8.335-18.618-18.618l0,0   c0-10.283,8.335-18.618,18.618-18.618h34.133C380.53,272.292,388.866,263.956,388.866,253.673z"/>
	<path style="fill:#797B89;" d="M424.327,165.222h34.133c10.283,0,18.618-8.335,18.618-18.618l0,0   c0-10.283-8.335-18.618-18.618-18.618h-6.206c-10.283,0-18.618-8.335-18.618-18.618l0,0c0-10.283-8.335-18.618-18.618-18.618   H129.536c-10.283,0-18.618,8.335-18.618,18.618l0,0c0,10.283,8.335,18.618,18.618,18.618H244.35   c10.283,0,18.618,8.335,18.618,18.618l0,0c0,10.283-8.335,18.618-18.618,18.618h-52.291"/>
</g>
<polygon style="fill:#FFD15C;" points="3.929,453.593 173.153,484.146 154.679,409.57 344.44,443.398 104.157,373.147   122.932,439.404 10.266,419.21 "/>
<path style="fill:#34ABE0;" d="M132.848,11.504L10.971,133.382c-13.801,13.801-13.801,36.177,0,49.978l49.165,49.165  c13.801,13.801,36.177,13.801,49.978,0l121.878-121.878c13.801-13.801,13.801-36.177,0-49.978l-49.165-49.165  C169.025-2.297,146.649-2.297,132.848,11.504z"/>
<path style="fill:#279FC9;" d="M96.695,188.799L54.697,146.8c-15.78-15.78-15.78-41.365,0-57.145l-40.142,40.144  c-15.78,15.78-15.78,41.365,0,57.145l41.999,41.999c15.78,15.78,41.365,15.78,57.145,0l40.143-40.143  C138.06,204.578,112.476,204.578,96.695,188.799z"/>
<path style="fill:#34ABE0;" d="M500.737,329.421c-18.34,62.613-60.202,115.171-115.367,147.465  c-17.585,10.303-36.525,18.547-56.489,24.381L113.693,286.09c-0.124-0.124-0.248-0.248-0.362-0.372l-3.217-3.217  c-13.799-13.799-13.799-36.173,0-49.972l3.227-3.227c0.114-0.124,0.228-0.238,0.352-0.362l38.48-38.47l1.531-1.531l78.284-78.294  c13.809-13.799,36.184-13.799,49.982,0L500.737,329.421z"/>
<path style="fill:#279FC9;" d="M385.369,476.886c-17.585,10.303-36.525,18.547-56.489,24.381L113.693,286.09  c-0.124-0.124-0.248-0.248-0.362-0.372c-15.299-15.692-15.289-40.735,0.01-56.417c0.114-0.124,0.228-0.238,0.352-0.362l38.48-38.47  c-15.785,15.785-15.785,41.366,0,57.151l220.804,220.804C376.66,472.107,380.87,474.92,385.369,476.886z"/>
<rect x="24.532" y="43.726" transform="matrix(-0.7071 0.7071 -0.7071 -0.7071 145.2608 60.926)" style="fill:#34ABE0;" width="70.96" height="33.644"/>
<rect x="31.083" y="59.54" transform="matrix(-0.7071 0.7071 -0.7071 -0.7071 129.4502 99.1037)" style="fill:#279FC9;" width="26.233" height="33.644"/>
<path style="fill:#34ABE0;" d="M51.67,4.006L3.472,52.204c-4.629,4.629-4.629,12.134,0,16.763l12.167,12.167l64.961-64.961  L68.433,4.006C63.804-0.623,56.299-0.623,51.67,4.006z"/>
<path style="fill:#279FC9;" d="M27.956,27.72L4.674,51.002c-5.293,5.293-5.293,13.874,0,19.167l10.965,10.965l23.282-23.282  L27.956,46.886C22.663,41.594,22.663,33.013,27.956,27.72z"/>
<g>
	<path style="fill:#78CAEF;" d="M352.188,249.667l-3.986,3.986c-7.675,7.675-20.119,7.675-27.794,0l-77.581-77.581   c-7.675-7.675-7.675-20.119,0-27.794l3.986-3.986c7.675-7.675,20.119-7.675,27.794,0l77.582,77.581   C359.862,229.548,359.862,241.992,352.188,249.667z"/>
	<path style="fill:#78CAEF;" d="M192.626,90.107l-3.986,3.986c-7.675,7.675-20.119,7.675-27.794,0L141.63,74.876   c-7.675-7.675-7.675-20.119,0-27.794l3.986-3.986c7.675-7.675,20.119-7.675,27.794,0l19.216,19.216   C200.302,69.988,200.302,82.432,192.626,90.107z"/>
</g>
<polygon style="fill:#FFD15C;" points="512,143.616 424.528,158.186 466.452,16.88 379.564,4.608 362.399,191.076 384.198,212.877   433.864,206.296 403.622,387.577 "/>
<g>
</g>
<g>
</g>
<g>
</g>
<g>
</g>
<g>
</g>
<g>
</g>
<g>
</g>
<g>
</g>
<g>
</g>
<g>
</g>
<g>
</g>
<g>
</g>
<g>
</g>
<g>
</g>
<g>
</g>
</svg>
