<?xml version="1.0" encoding="iso-8859-1"?>
<!-- Generator: Adobe Illustrator 19.0.0, SVG Export Plug-In . SVG Version: 6.00 Build 0)  -->
<svg xmlns="http://www.w3.org/2000/svg" xmlns:xlink="http://www.w3.org/1999/xlink" version="1.1" id="Capa_1" x="0px" y="0px" viewBox="0 0 512 512" style="enable-background:new 0 0 512 512;" xml:space="preserve">
<path style="fill:#34ABE0;" d="M256,512c-11.891,0-23.583-0.815-35.035-2.382c-4.556-0.616-9.08-1.358-13.552-2.215  c-11.964-2.309-23.636-5.444-34.952-9.341c-3.866-1.337-7.701-2.759-11.483-4.284c-10.344-4.127-20.355-8.923-29.978-14.315  c-3.271-1.829-6.499-3.741-9.676-5.716c-0.073-0.042-0.157-0.084-0.23-0.136c-7.178-4.462-14.127-9.268-20.814-14.399  c-1.714-1.317-3.406-2.654-5.078-4.012c-1.881-1.515-3.741-3.051-5.569-4.618c-1.003-0.857-1.996-1.724-2.978-2.591h-0.01  c-1.912-1.703-3.783-3.406-5.642-5.151c-0.899-0.836-1.797-1.693-2.685-2.55c-1.912-1.839-3.793-3.709-5.642-5.622  c-4.733-4.838-9.258-9.874-13.584-15.078c-8.955-10.762-17.042-22.256-24.148-34.398c-0.993-1.682-1.964-3.385-2.905-5.099  c-0.376-0.669-0.752-1.348-1.118-2.027v-0.01c-5.141-9.456-9.707-19.268-13.636-29.393C6.123,319.927,0,288.684,0,256  C0,173.286,39.225,99.736,100.091,52.935c2.978-2.288,6.008-4.514,9.091-6.666c6.907-4.848,14.054-9.362,21.431-13.511  c7.45-4.19,15.12-8.025,23.009-11.463c7.022-3.072,14.221-5.841,21.567-8.276c7.711-2.57,15.59-4.775,23.615-6.604  c14.942-3.406,30.375-5.517,46.184-6.175c1.317-0.063,2.633-0.104,3.95-0.146C251.277,0.031,253.639,0,256,0  c14.597,0,28.912,1.223,42.841,3.574c7.429,1.243,14.754,2.821,21.943,4.702c20.25,5.266,39.518,12.967,57.48,22.758  c38.922,21.191,71.732,52.193,95.117,89.694c5.622,9.017,10.7,18.401,15.182,28.129c2.372,5.12,4.566,10.334,6.593,15.632  C506.044,192.909,512,223.765,512,256c0,97.102-54.063,181.582-133.736,224.967c-29.769,16.217-63.112,26.687-98.534,29.936  c-5.538,0.522-11.118,0.857-16.75,0.993C260.66,511.969,258.33,512,256,512z"/>
<g>
	<path style="fill:#78CAEF;" d="M200.1,130.404L200.1,130.404c0-4.394-3.562-7.955-7.955-7.955h-2.652   c-4.394,0-7.955-3.562-7.955-7.955l0,0c0-4.394-3.562-7.955-7.955-7.955H51.606c-4.394,0-7.955,3.562-7.955,7.955l0,0   c0,4.394,3.562,7.955,7.955,7.955h49.056c4.394,0,7.955,3.562,7.955,7.955l0,0c0,4.394-3.562,7.955-7.955,7.955H78.32   c-4.394,0-7.955,3.562-7.955,7.955l0,0c0,4.394,3.562,7.955,7.955,7.955h6.749c4.394,0,7.955,3.562,7.955,7.955l0,0   c0,4.394-3.562,7.955-7.955,7.955H60.887c-4.394,0-7.955,3.562-7.955,7.955l0,0c0,4.394,3.562,7.955,7.955,7.955h114.567   c4.394,0,7.955-3.562,7.955-7.955l0,0c0-4.394,3.562-7.955,7.955-7.955h0.782c4.394,0,7.955-3.562,7.955-7.955l0,0   c0-4.394-3.562-7.955-7.955-7.955h-14.585c-4.394,0-7.955-3.562-7.955-7.955l0,0c0-4.394,3.562-7.955,7.955-7.955h14.585   C196.539,138.359,200.1,134.798,200.1,130.404z"/>
	<path style="fill:#78CAEF;" d="M163.756,450.581H89.631c-1.003-0.857-1.996-1.724-2.978-2.591h-0.01   c-1.912-1.703-3.783-3.406-5.642-5.151c-0.899-0.836-1.797-1.693-2.685-2.55c-1.912-1.839-3.793-3.709-5.642-5.622h0.7   c2.194,0,4.18-0.888,5.622-2.33s2.33-3.427,2.33-5.622c0-4.399-3.563-7.962-7.952-7.962h-6.75c-2.205,0-4.19-0.888-5.632-2.33   c-1.442-1.431-2.33-3.417-2.33-5.622c0-4.389,3.563-7.952,7.962-7.952h22.34c2.205,0,4.19-0.888,5.622-2.33   c1.442-1.442,2.33-3.438,2.33-5.632c0-4.389-3.553-7.952-7.952-7.952H39.905c-1.881,0-3.605-0.648-4.963-1.745   c-0.23-0.178-0.449-0.376-0.658-0.585c-1.191-1.191-2.006-2.759-2.247-4.514c-0.052-0.355-0.084-0.731-0.084-1.108   c0-4.399,3.563-7.962,7.952-7.962h121.981c2.194,0,4.18,0.888,5.622,2.33c1.442,1.442,2.33,3.438,2.33,5.632   c0,4.389,3.563,7.952,7.952,7.952h2.654c4.399,0,7.962,3.563,7.962,7.952c0,4.399-3.563,7.962-7.962,7.962h-14.587   c-2.194,0-4.18,0.888-5.622,2.33c-1.442,1.442-2.33,3.427-2.33,5.622c0,4.399,3.563,7.952,7.952,7.952h14.587   c2.194,0,4.19,0.888,5.632,2.33c1.442,1.442,2.33,3.438,2.33,5.632c0,4.389-3.563,7.952-7.962,7.952h-0.784   c-2.194,0-4.18,0.888-5.622,2.33c-1.442,1.442-2.33,3.427-2.33,5.622C171.708,447.018,168.145,450.581,163.756,450.581z"/>
	<path style="fill:#78CAEF;" d="M389.425,339.564L389.425,339.564c0,4.394,3.562,7.955,7.955,7.955h67.036   c4.394,0,7.955-3.562,7.955-7.955l0,0c0-4.394-3.562-7.955-7.955-7.955h-21.684c-4.394,0-7.955-3.562-7.955-7.955l0,0   c0-4.394,3.562-7.955,7.955-7.955h2.211c4.394,0,7.955-3.562,7.955-7.955l0,0c0-4.394-3.562-7.955-7.955-7.955h-64.25   c-4.394,0-7.955,3.562-7.955,7.955l0,0c0,4.394-3.562,7.955-7.955,7.955h-2.211c-4.394,0-7.955,3.562-7.955,7.955l0,0   c0,4.394,3.562,7.955,7.955,7.955h18.897C385.864,331.609,389.425,335.17,389.425,339.564z"/>
	<path style="fill:#78CAEF;" d="M303.238,395.582L303.238,395.582c0,4.394-3.562,7.955-7.955,7.955h-25.634   c-4.394,0-7.955,3.562-7.955,7.955l0,0c0,4.394,3.562,7.955,7.955,7.955h75.573c4.394,0,7.955-3.562,7.955-7.955l0,0   c0-4.394,3.562-7.955,7.955-7.955h25.634c4.394,0,7.955-3.562,7.955-7.955l0,0c0-4.394-3.562-7.955-7.955-7.955h-38.01   c-4.394,0-7.955-3.562-7.955-7.955l0,0c0-4.394-3.562-7.955-7.955-7.955h-75.573c-4.394,0-7.955,3.562-7.955,7.955l0,0   c0,4.394,3.562,7.955,7.955,7.955h38.01C299.676,387.626,303.238,391.188,303.238,395.582z"/>
	<path style="fill:#78CAEF;" d="M238.494,231.777L238.494,231.777c0,4.394,3.561,7.956,7.955,7.956h75.573   c4.393,0,7.955-3.561,7.955-7.955v-0.001c0-4.393-3.561-7.955-7.955-7.955h-12.596c-4.393,0-7.955-3.561-7.955-7.955v-0.001   c0-4.393-3.561-7.955-7.955-7.955h-62.978c-4.393,0-7.955,3.561-7.955,7.955v0.001c0,4.393,3.561,7.955,7.955,7.955l0,0   C234.932,223.822,238.494,227.384,238.494,231.777z"/>
	<path style="fill:#78CAEF;" d="M327.946,93.977L327.946,93.977c0,4.394,3.561,7.956,7.955,7.956h75.573   c4.393,0,7.955-3.561,7.955-7.955v-0.001c0-4.393-3.561-7.955-7.955-7.955h-12.595c-4.393,0-7.955-3.561-7.955-7.955v-0.001   c0-4.393-3.561-7.955-7.955-7.955h-62.978c-4.393,0-7.955,3.561-7.955,7.955v0.001c0,4.393,3.561,7.955,7.955,7.955l0,0   C324.384,86.022,327.946,89.583,327.946,93.977z"/>
</g>
<path style="fill:#FFD15C;" d="M453.486,180.203H240.232c-53.791,0-107.06-10.658-156.724-31.347  c49.664-20.689,102.933-31.347,156.724-31.347h213.253c17.899,0,34.941,7.596,46.916,20.898l9.404,10.449l-9.404,10.459  C488.427,172.607,471.385,180.203,453.486,180.203z"/>
<path style="fill:#EDBB4C;" d="M509.806,148.856H83.508c49.664-20.689,102.933-31.347,156.724-31.347h213.253  c17.899,0,34.941,7.596,46.916,20.898L509.806,148.856z"/>
<path style="fill:#5C5E70;" d="M426.618,154.06v-10.403c0-6.168-5.001-11.169-11.169-11.169H189.797  c-6.168,0-11.169,5.001-11.169,11.169v10.403c0,6.168,5.001,11.169,11.169,11.169h225.652  C421.617,165.228,426.618,160.228,426.618,154.06z"/>
<g>
	<path style="fill:#C69A6A;" d="M442.169,139.034l2.717,2.706h-15.757L340.24,52.851c-4.211,1.348-8.997,0.355-12.34-2.978   l-29.059-29.059c-4.765-4.765-4.765-12.487,0-17.241c4.765-4.765,12.476-4.765,17.241,0l29.059,29.059   c3.344,3.333,4.326,8.129,2.978,12.34L442.169,139.034z"/>
	<polygon style="fill:#C69A6A;" points="442.18,154.791 439.463,152.074 444.897,152.074  "/>
	<polygon style="fill:#C69A6A;" points="442.18,139.024 444.886,141.74 439.463,141.74 442.169,139.034  "/>
	<path style="fill:#C69A6A;" d="M298.841,290.241c-4.765-4.754-4.765-12.476,0-17.241l29.059-29.059   c3.344-3.333,8.129-4.326,12.34-2.978l88.889-88.889h15.768l-2.717,2.717l-94.062,94.051c1.348,4.211,0.366,9.007-2.978,12.34   l-29.059,29.059C311.317,295.006,303.606,295.006,298.841,290.241z"/>
</g>
<g>
	<path style="fill:#D3AA81;" d="M322.994,272.588L322.994,272.588c-1.36-1.36-1.36-3.565,0-4.926l13.546-13.546   c1.36-1.36,3.565-1.36,4.926,0l0,0c1.36,1.36,1.36,3.565,0,4.926l-13.546,13.546C326.559,273.948,324.353,273.948,322.994,272.588z   "/>
	<path style="fill:#D3AA81;" d="M331.267,46.925L331.267,46.925c-1.36-1.36-1.36-3.565,0-4.926l5.75-5.75   c1.36-1.36,3.565-1.36,4.926,0l0,0c1.36,1.36,1.36,3.565,0,4.926l-5.75,5.75C334.833,48.286,332.628,48.286,331.267,46.925z"/>
</g>
<g>
	<path style="fill:#C69A6A;" d="M382.119,139.024l2.706,2.717h-15.757l-88.889-88.889c-4.201,1.348-8.997,0.355-12.34-2.978   L238.78,20.814c-4.765-4.765-4.765-12.487,0-17.241c4.765-4.765,12.476-4.765,17.241,0l29.059,29.059   c3.344,3.333,4.326,8.129,2.988,12.34L382.119,139.024z"/>
	<polygon style="fill:#C69A6A;" points="382.119,154.791 379.402,152.074 384.836,152.074  "/>
	<polygon style="fill:#C69A6A;" points="382.119,139.024 384.825,141.74 379.402,141.74  "/>
	<path style="fill:#C69A6A;" d="M238.78,290.241c-4.765-4.754-4.765-12.476,0-17.241l29.059-29.059   c3.344-3.333,8.14-4.326,12.34-2.978l88.889-88.889h15.767l-2.717,2.717l-94.051,94.051c1.337,4.211,0.355,9.007-2.988,12.34   l-29.059,29.059C251.256,295.006,243.545,295.006,238.78,290.241z"/>
</g>
<g>
	<path style="fill:#D3AA81;" d="M262.934,272.588L262.934,272.588c-1.36-1.36-1.36-3.565,0-4.926l13.546-13.546   c1.36-1.36,3.565-1.36,4.926,0l0,0c1.36,1.36,1.36,3.565,0,4.926l-13.546,13.546C266.499,273.948,264.293,273.948,262.934,272.588z   "/>
	<path style="fill:#D3AA81;" d="M271.207,46.925L271.207,46.925c-1.36-1.36-1.36-3.565,0-4.926l5.75-5.75   c1.36-1.36,3.565-1.36,4.926,0l0,0c1.36,1.36,1.36,3.565,0,4.926l-5.75,5.75C274.774,48.286,272.568,48.286,271.207,46.925z"/>
</g>
<g>
	<path style="fill:#C69A6A;" d="M324.765,141.74h-15.757l-9.247-9.247l-14.984-14.984l-64.658-64.658   c-4.2,1.348-8.997,0.355-12.34-2.978l-29.059-29.059c-2.163-2.173-3.344-4.963-3.532-7.795c7.711-2.57,15.59-4.775,23.615-6.604   l26.216,26.216c3.344,3.333,4.326,8.129,2.988,12.34l72.537,72.537l21.514,21.514L324.765,141.74z"/>
	<polygon style="fill:#C69A6A;" points="322.058,154.791 319.342,152.074 324.775,152.074  "/>
	<polygon style="fill:#C69A6A;" points="322.058,139.024 324.765,141.74 319.342,141.74  "/>
	<path style="fill:#C69A6A;" d="M178.719,290.241c-4.754-4.754-4.754-12.476,0-17.241l29.059-29.059   c3.344-3.333,8.14-4.326,12.34-2.978l88.889-88.889h15.768l-2.717,2.717l-94.051,94.051c1.337,4.211,0.355,9.007-2.988,12.34   l-29.059,29.059C191.195,295.006,183.484,295.006,178.719,290.241z"/>
</g>
<g>
	<path style="fill:#D3AA81;" d="M202.874,272.588L202.874,272.588c-1.36-1.36-1.36-3.565,0-4.926l13.546-13.546   c1.36-1.36,3.565-1.36,4.926,0l0,0c1.36,1.36,1.36,3.565,0,4.926L207.8,272.588C206.439,273.948,204.234,273.948,202.874,272.588z"/>
	<path style="fill:#D3AA81;" d="M211.149,46.925L211.149,46.925c-1.36-1.36-1.36-3.565,0-4.926l5.75-5.75   c1.36-1.36,3.565-1.36,4.926,0l0,0c1.36,1.36,1.36,3.565,0,4.926l-5.75,5.75C214.714,48.286,212.508,48.286,211.149,46.925z"/>
</g>
<g>
	<path style="fill:#C69A6A;" d="M264.704,141.74h-15.757l-9.247-9.247l-14.691-14.702l-64.94-64.94   c-4.211,1.348-9.007,0.355-12.34-2.978l-17.115-17.115c7.45-4.19,15.12-8.025,23.009-11.463l11.337,11.337   c3.344,3.333,4.336,8.129,2.988,12.34l94.051,94.051L264.704,141.74z"/>
	<polygon style="fill:#C69A6A;" points="261.998,154.791 259.281,152.074 264.714,152.074  "/>
	<polygon style="fill:#C69A6A;" points="261.998,139.024 264.704,141.74 259.281,141.74  "/>
	<path style="fill:#C69A6A;" d="M118.659,290.241c-4.754-4.754-4.754-12.476,0-17.241l29.069-29.059   c3.333-3.333,8.129-4.326,12.34-2.978l88.879-88.889h15.768l-96.768,96.768c1.348,4.211,0.355,9.007-2.988,12.34l-29.059,29.059   C131.145,295.006,123.423,295.006,118.659,290.241z"/>
</g>
<g>
	<path style="fill:#D3AA81;" d="M142.815,272.588L142.815,272.588c-1.36-1.36-1.36-3.565,0-4.926l13.546-13.546   c1.36-1.36,3.565-1.36,4.926,0l0,0c1.36,1.36,1.36,3.565,0,4.926l-13.546,13.546C146.38,273.948,144.174,273.948,142.815,272.588z"/>
	<path style="fill:#D3AA81;" d="M151.089,46.925L151.089,46.925c-1.36-1.36-1.36-3.565,0-4.926l5.75-5.75   c1.36-1.36,3.565-1.36,4.926,0l0,0c1.36,1.36,1.36,3.565,0,4.926l-5.75,5.75C154.654,48.286,152.449,48.286,151.089,46.925z"/>
</g>
<g>
	<path style="fill:#C69A6A;" d="M204.643,141.74h-15.757l-6.468-6.468l-11.766-11.776l-70.562-70.562   c2.978-2.288,6.008-4.514,9.091-6.666l75.107,75.107l17.648,17.648L204.643,141.74z"/>
	<polygon style="fill:#C69A6A;" points="201.937,154.791 199.22,152.074 204.654,152.074  "/>
	<polygon style="fill:#C69A6A;" points="201.937,139.024 204.643,141.74 199.22,141.74  "/>
	<path style="fill:#C69A6A;" d="M58.598,290.241c-4.754-4.754-4.754-12.476,0-17.241l29.069-29.059   c3.333-3.333,8.129-4.326,12.34-2.978l88.879-88.889h15.768l-2.717,2.717l-94.051,94.051c1.348,4.211,0.355,9.007-2.978,12.34   l-29.069,29.059C71.084,295.006,63.363,295.006,58.598,290.241z"/>
</g>
<path style="fill:#D3AA81;" d="M82.755,272.588L82.755,272.588c-1.36-1.36-1.36-3.565,0-4.926l13.546-13.546  c1.36-1.36,3.565-1.36,4.926,0l0,0c1.36,1.36,1.36,3.565,0,4.926l-13.546,13.546C86.32,273.948,84.114,273.948,82.755,272.588z"/>
<circle style="fill:#FFDC8D;" cx="468.762" cy="168.093" r="7.314"/>
<path style="fill:#FF525D;" d="M353.176,474.185H139.922c-1.212,0-2.424-0.01-3.626-0.021c-4.995-0.042-9.989-0.178-14.973-0.418  c-0.125,0.01-0.24,0-0.366-0.01l0.136-0.125c-7.178-4.462-14.127-9.268-20.814-14.399c-1.714-1.317-3.406-2.654-5.078-4.012  c-2.905-2.341-5.757-4.744-8.547-7.21h-0.01c-1.912-1.703-3.783-3.406-5.642-5.151c-0.899-0.836-1.797-1.693-2.685-2.55  c-6.781-6.531-13.208-13.448-19.226-20.699c3.741-0.752,7.492-1.463,11.243-2.111c4.535-0.784,9.091-1.494,13.646-2.121  c13.49-1.881,27.063-3.072,40.709-3.584h0.01c5.068-0.188,10.146-0.282,15.224-0.282h213.253c17.899,0,34.941,7.596,46.916,20.898  l9.404,10.449l-9.404,10.459C388.117,466.589,371.075,474.185,353.176,474.185z"/>
<path style="fill:#EF4152;" d="M409.495,442.838H81c-0.899-0.836-1.797-1.693-2.685-2.55c-6.781-6.531-13.208-13.448-19.226-20.699  c3.741-0.752,7.492-1.463,11.243-2.111c4.535-0.784,9.091-1.494,13.646-2.121c13.49-1.881,27.063-3.072,40.709-3.584h0.01  c5.068-0.188,10.146-0.282,15.224-0.282h213.253c17.899,0,34.941,7.596,46.916,20.898L409.495,442.838z"/>
<path style="fill:#5C5E70;" d="M315.141,459.212H100.279c-1.714-1.317-3.406-2.654-5.078-4.012c-2.905-2.341-5.757-4.744-8.547-7.21  h-0.01c-1.912-1.703-3.783-3.406-5.642-5.151c-0.899-0.836-1.797-1.693-2.685-2.55v-2.654c0-3.344,1.473-6.332,3.793-8.38  c1.975-1.735,4.556-2.779,7.377-2.779h225.656c2.456,0,4.723,0.784,6.562,2.132c0.951,0.69,1.797,1.536,2.487,2.487  c1.337,1.839,2.121,4.096,2.121,6.541v10.407c0,0.178,0,0.355-0.01,0.533c-0.272,5.736-4.89,10.355-10.627,10.627  C315.496,459.212,315.319,459.212,315.141,459.212z"/>
<g>
	<path style="fill:#C69A6A;" d="M341.859,433.016l2.717,2.706h-15.757l-88.889-88.889c-4.211,1.348-8.997,0.355-12.34-2.978   l-29.059-29.059c-4.765-4.765-4.765-12.487,0-17.241c4.765-4.765,12.476-4.765,17.241,0l29.059,29.059   c3.344,3.333,4.326,8.129,2.978,12.34L341.859,433.016z"/>
	<polygon style="fill:#C69A6A;" points="341.87,448.773 339.153,446.056 344.586,446.056  "/>
	<polygon style="fill:#C69A6A;" points="341.87,433.006 344.576,435.722 339.153,435.722 341.859,433.016  "/>
	<path style="fill:#C69A6A;" d="M262.98,511.895l37.71-37.71l14.984-14.984l10.627-10.627l2.518-2.518h15.767l-28.129,28.129   l-36.728,36.718C274.192,511.425,268.612,511.76,262.98,511.895z"/>
</g>
<path style="fill:#D3AA81;" d="M230.957,340.907L230.957,340.907c-1.36-1.36-1.36-3.565,0-4.926l5.75-5.75  c1.36-1.36,3.565-1.36,4.926,0l0,0c1.36,1.36,1.36,3.565,0,4.926l-5.75,5.75C234.523,342.268,232.317,342.268,230.957,340.907z"/>
<g>
	<path style="fill:#C69A6A;" d="M281.809,433.006l2.706,2.717h-15.757l-88.889-88.889c-4.201,1.348-8.997,0.355-12.34-2.978   l-29.059-29.059c-4.765-4.765-4.765-12.487,0-17.241c4.765-4.765,12.476-4.765,17.241,0l29.059,29.059   c3.344,3.333,4.326,8.129,2.988,12.34L281.809,433.006z"/>
	<polygon style="fill:#C69A6A;" points="281.809,448.773 279.092,446.056 284.526,446.056  "/>
	<polygon style="fill:#C69A6A;" points="281.809,433.006 284.515,435.722 279.092,435.722  "/>
	<path style="fill:#C69A6A;" d="M220.965,509.618c-4.556-0.616-9.08-1.358-13.552-2.215l48.191-48.191l13.155-13.155h15.768   l-28.129,28.129L220.965,509.618z"/>
</g>
<path style="fill:#D3AA81;" d="M170.897,340.907L170.897,340.907c-1.36-1.36-1.36-3.565,0-4.926l5.75-5.75  c1.36-1.36,3.565-1.36,4.926,0l0,0c1.36,1.36,1.36,3.565,0,4.926l-5.75,5.75C174.463,342.268,172.258,342.268,170.897,340.907z"/>
<g>
	<path style="fill:#C69A6A;" d="M221.748,433.006l2.706,2.717h-15.757l-88.889-88.889c-4.2,1.348-8.997,0.355-12.34-2.978   l-29.059-29.059c-4.754-4.765-4.754-12.487,0-17.241c4.765-4.765,12.476-4.765,17.241,0l29.059,29.059   c3.344,3.333,4.326,8.129,2.988,12.34L221.748,433.006z"/>
	<polygon style="fill:#C69A6A;" points="221.748,448.773 219.031,446.056 224.465,446.056  "/>
	<polygon style="fill:#C69A6A;" points="221.748,433.006 224.455,435.722 219.031,435.722  "/>
	<path style="fill:#C69A6A;" d="M196.336,474.185l-23.876,23.876c-3.866-1.337-7.701-2.759-11.483-4.284l47.72-47.72h15.768   l-2.717,2.717l-10.439,10.439L196.336,474.185z"/>
</g>
<path style="fill:#D3AA81;" d="M110.838,340.907L110.838,340.907c-1.36-1.36-1.36-3.565,0-4.926l5.75-5.75  c1.36-1.36,3.565-1.36,4.926,0l0,0c1.36,1.36,1.36,3.565,0,4.926l-5.75,5.75C114.404,342.268,112.198,342.268,110.838,340.907z"/>
<g>
	<path style="fill:#C69A6A;" d="M161.688,433.006l2.706,2.717h-15.757l-88.879-88.889c-4.211,1.348-9.007,0.355-12.34-2.978   l-29.069-29.059c-4.754-4.765-4.754-12.487,0-17.241c4.765-4.765,12.487-4.765,17.241,0l29.059,29.059   c3.344,3.333,4.336,8.129,2.988,12.34L161.688,433.006z"/>
	<polygon style="fill:#C69A6A;" points="161.688,448.773 158.971,446.056 164.404,446.056  "/>
	<polygon style="fill:#C69A6A;" points="161.688,433.006 164.394,435.722 158.971,435.722  "/>
	<path style="fill:#C69A6A;" d="M130.999,479.462c-3.271-1.829-6.499-3.741-9.676-5.716c-0.125,0.01-0.24,0-0.366-0.01l0.136-0.125   l14.388-14.399l13.155-13.155h15.768L130.999,479.462z"/>
</g>
<path style="fill:#D3AA81;" d="M50.779,340.907L50.779,340.907c-1.36-1.36-1.36-3.565,0-4.926l5.75-5.75  c1.36-1.36,3.565-1.36,4.926,0l0,0c1.36,1.36,1.36,3.565,0,4.926l-5.75,5.75C54.344,342.268,52.138,342.268,50.779,340.907z"/>
<g>
	<path style="fill:#C69A6A;" d="M104.333,435.722H88.576l-18.244-18.244l-39.414-39.414v-0.01   c-5.141-9.456-9.707-19.268-13.636-29.393l84.344,84.344L104.333,435.722z"/>
	<polygon style="fill:#C69A6A;" points="101.627,448.773 98.91,446.056 104.344,446.056  "/>
	<polygon style="fill:#C69A6A;" points="101.627,433.006 104.333,435.722 98.91,435.722  "/>
	<path style="fill:#C69A6A;" d="M95.201,455.199c-2.905-2.341-5.757-4.744-8.547-7.21l1.923-1.933h15.768L95.201,455.199z"/>
</g>
<circle style="fill:#FF6E7C;" cx="368.452" cy="462.075" r="7.314"/>
<g>
</g>
<g>
</g>
<g>
</g>
<g>
</g>
<g>
</g>
<g>
</g>
<g>
</g>
<g>
</g>
<g>
</g>
<g>
</g>
<g>
</g>
<g>
</g>
<g>
</g>
<g>
</g>
<g>
</g>
</svg>
