<?xml version="1.0" encoding="iso-8859-1"?>
<!-- Generator: Adobe Illustrator 19.0.0, SVG Export Plug-In . SVG Version: 6.00 Build 0)  -->
<svg xmlns="http://www.w3.org/2000/svg" xmlns:xlink="http://www.w3.org/1999/xlink" version="1.1" id="Capa_1" x="0px" y="0px" viewBox="0 0 512 512" style="enable-background:new 0 0 512 512;" xml:space="preserve">
<path style="fill:#34ABE0;" d="M512,255.248V256c0,141.385-114.615,256-256,256C124.876,512,16.771,413.414,1.787,286.313  C0.606,276.375,0,266.261,0,256c0-14.994,1.285-29.686,3.772-43.969c2.497-14.514,6.238-28.599,11.086-42.162  c11.901-33.353,30.542-63.519,54.282-88.848c8.714-9.31,18.119-17.962,28.129-25.882C140.894,20.616,196.033,0,256,0  c69.235,0,132.054,27.491,178.124,72.14c9.028,8.735,17.408,18.129,25.057,28.108c6.855,8.923,13.124,18.307,18.766,28.108  c5.214,9.028,9.885,18.411,13.97,28.108C504.759,186.838,511.895,220.212,512,255.248z"/>
<path style="fill:#FFD15C;" d="M512,255.248V256c0,27.679-4.399,54.335-12.528,79.308c-25.255,77.605-86.58,138.919-164.174,164.174  C310.324,507.611,283.679,512,256,512c-20.219,0-39.894-2.341-58.765-6.781c-29.027-6.813-56.153-18.578-80.436-34.335  c-9.226-5.987-18.035-12.56-26.394-19.655c-10.24-8.683-19.78-18.171-28.536-28.359c-32.36-37.595-53.969-84.71-60.082-136.558  h158.281V163.297h191.854v91.951H512z"/>
<g>
	<path style="fill:#FFDC8D;" d="M351.922,163.297v26.425L90.405,451.229c-10.24-8.683-19.78-18.171-28.536-28.358l259.574-259.574   L351.922,163.297L351.922,163.297z"/>
	<path style="fill:#FFDC8D;" d="M499.472,335.308c-25.255,77.605-86.58,138.919-164.174,164.174L499.472,335.308z"/>
	<path style="fill:#FFDC8D;" d="M447.206,255.248L197.235,505.219c-29.027-6.813-56.153-18.578-80.436-34.335L351.922,235.76v19.487   H447.206z"/>
</g>
<g>
	<rect x="37.616" y="325.256" style="fill:#FF525D;" width="18.808" height="63.739"/>
	<rect x="64.261" y="325.256" style="fill:#FF525D;" width="18.808" height="63.739"/>
	<rect x="90.906" y="325.256" style="fill:#FF525D;" width="18.808" height="63.739"/>
	<rect x="246.596" y="196.733" style="fill:#FF525D;" width="18.808" height="63.739"/>
	<rect x="409.078" y="299.133" style="fill:#FF525D;" width="18.808" height="63.739"/>
	<rect x="435.722" y="299.133" style="fill:#FF525D;" width="18.808" height="63.739"/>
</g>
<g>
	<path style="fill:#78CAEF;" d="M491.917,156.463H377.668c-3.887,0-7.398-1.578-9.937-4.117c-2.539-2.539-4.117-6.05-4.117-9.937   c0-7.753-6.29-14.054-14.054-14.054h-67.156c-3.877,0-7.398-1.578-9.937-4.117c-2.55-2.539-4.117-6.05-4.117-9.937   c0-7.764,6.29-14.054,14.054-14.054h45.296c3.887,0,7.398-1.578,9.937-4.117s4.117-6.05,4.117-9.937   c0-7.764,6.29-14.054,14.054-14.054h78.315c9.028,8.735,17.408,18.129,25.057,28.108H444.04c-7.764,0-14.064,6.29-14.064,14.054   s6.301,14.054,14.064,14.054h33.907C483.161,137.383,487.831,146.766,491.917,156.463z"/>
	<path style="fill:#78CAEF;" d="M252.416,97.311c0,7.764-6.29,14.054-14.054,14.054H127.091c-3.877,0-7.387-1.578-9.937-4.117   c-2.539-2.539-4.117-6.05-4.117-9.937c0-7.764-6.29-14.054-14.054-14.054H76.737c-2.8,0-5.413-0.825-7.596-2.236   c8.714-9.31,18.119-17.962,28.129-25.882h112.985c7.764,0,14.054,6.301,14.054,14.064c0,3.877,1.578,7.387,4.117,9.937   c2.539,2.539,6.05,4.117,9.937,4.117s7.398,1.578,9.937,4.117S252.416,93.424,252.416,97.311z"/>
	<path style="fill:#78CAEF;" d="M99.276,180.412c0,2.915-1.181,5.548-3.093,7.45c-1.902,1.912-4.545,3.093-7.45,3.093H72.046   c-5.82,0-10.543,4.712-10.543,10.543c0,2.915-1.181,5.548-3.082,7.45c-1.912,1.902-4.545,3.082-7.45,3.082H3.772   c2.497-14.514,6.238-28.599,11.086-42.162h73.874C94.553,169.869,99.276,174.592,99.276,180.412z"/>
</g>
<g>
</g>
<g>
</g>
<g>
</g>
<g>
</g>
<g>
</g>
<g>
</g>
<g>
</g>
<g>
</g>
<g>
</g>
<g>
</g>
<g>
</g>
<g>
</g>
<g>
</g>
<g>
</g>
<g>
</g>
</svg>
