<?xml version="1.0" encoding="iso-8859-1"?>
<!-- Generator: Adobe Illustrator 19.0.0, SVG Export Plug-In . SVG Version: 6.00 Build 0)  -->
<svg xmlns="http://www.w3.org/2000/svg" xmlns:xlink="http://www.w3.org/1999/xlink" version="1.1" id="Capa_1" x="0px" y="0px" viewBox="0 0 512 512" style="enable-background:new 0 0 512 512;" xml:space="preserve">
<path style="fill:#34ABE0;" d="M512,256c0,141.385-114.615,256-256,256c-34.952,0-68.274-7.001-98.617-19.686  c-5.047-2.111-10.01-4.368-14.879-6.802c-17.042-8.432-33.019-18.714-47.647-30.595C36.989,407.991,0,336.311,0,256  c0-0.282,0-0.575,0.01-0.857c0.021-9.404,0.564-18.693,1.588-27.826c1.243-11.201,3.208-22.183,5.862-32.893  c8.903-36.059,25.433-69.099,47.804-97.311c13.542-17.084,29.215-32.402,46.623-45.547c37.428-28.264,82.86-46.477,132.295-50.646  C241.371,0.313,248.654,0,256,0C397.385,0,512,114.615,512,256z"/>
<g>
	<path style="fill:#78CAEF;" d="M133.395,295.487L133.395,295.487c0-5.812-4.711-10.523-10.523-10.523H34.193   c-5.812,0-10.523,4.711-10.523,10.523l0,0c0,5.812,4.711,10.523,10.523,10.523h28.685c5.812,0,10.523,4.711,10.523,10.523l0,0   c0,5.812-4.711,10.523-10.523,10.523h-2.925c-5.812,0-10.523,4.711-10.523,10.523l0,0c0,5.812,4.711,10.523,10.523,10.523h84.991   c5.812,0,10.523-4.711,10.523-10.523l0,0c0-5.812,4.711-10.523,10.523-10.523h2.925c5.812,0,10.523-4.711,10.523-10.523l0,0   c0-5.812-4.711-10.523-10.523-10.523h-24.997C138.106,306.01,133.395,301.299,133.395,295.487z"/>
	<path style="fill:#78CAEF;" d="M179.001,104.176c0,5.81-4.702,10.522-10.522,10.522H68.514c-2.905,0-5.538-1.181-7.44-3.082   c-1.902-1.902-3.082-4.535-3.082-7.44c0-2.717-1.034-5.204-2.727-7.064c13.542-17.084,29.215-32.402,46.623-45.547h50.228   c2.905,0,5.538,1.181,7.44,3.082s3.082,4.535,3.082,7.44c0,5.81-4.712,10.522-10.522,10.522h-33.917   c-5.81,0-10.522,4.712-10.522,10.522c0,5.81,4.712,10.522,10.522,10.522h50.28c2.905,0,5.538,1.181,7.44,3.082   C177.821,98.638,179.001,101.272,179.001,104.176z"/>
</g>
<path style="fill:#C69A6A;" d="M512,256c0,68.409-27.031,130.644-70.938,176.609c-30.939,32.402-70.269,56.728-114.416,69.454  c-22.977,6.614-47.271,10.094-72.359,9.927c-34.325-0.219-67.051-7.199-96.904-19.675V277.922c0-10.386,8.422-18.808,18.808-18.808  h1.567c10.386,0,18.808-8.422,18.808-18.808v-68.953c0-7.471,4.357-13.928,10.679-16.959c2.456-1.181,5.214-1.849,8.129-1.849  c5.193,0,9.895-2.111,13.302-5.507c3.396-3.406,5.507-8.108,5.507-13.302V0.92C241.371,0.313,248.654,0,256,0  c16.447,0,32.517,1.546,48.097,4.514c41.785,7.941,79.966,26.039,111.888,51.628c2.759,2.205,5.465,4.472,8.129,6.792  c23.343,20.344,42.966,44.847,57.699,72.37C501.081,171.259,512,212.355,512,256z"/>
<path style="fill:#B58657;" d="M481.813,135.304v159.859c0,11.254-9.122,20.375-20.376,20.375c-5.632,0-10.721,2.278-14.409,5.966  s-5.966,8.777-5.966,14.409v96.695c-30.939,32.402-70.269,56.728-114.416,69.454V371.169c0-10.815,8.777-19.581,19.592-19.581  h10.971c10.825,0,19.592-8.777,19.592-19.592V212.877c0-10.815,8.777-19.592,19.592-19.592c5.413,0,10.313-2.194,13.855-5.736  c3.542-3.542,5.736-8.443,5.736-13.855V56.142C442.922,77.73,465.398,104.647,481.813,135.304z"/>
<path style="fill:#FFD15C;" d="M142.503,135.513v349.999c-17.042-8.432-33.019-18.714-47.647-30.595V135.513H142.503z"/>
<path style="fill:#E8DBC4;" d="M387.773,456.068c-18.725,0-33.958-15.234-33.958-33.958V241.09h8.359v181.019  c0,14.114,11.483,25.599,25.599,25.599s25.599-11.483,25.599-25.599V125.383h8.359v296.727  C421.73,440.834,406.498,456.068,387.773,456.068z"/>
<polygon style="fill:#FFD15C;" points="370.533,273.807 314.111,266.951 314.111,292.026 370.533,285.169 "/>
<path style="fill:#FCF8F2;" d="M287.378,298.736c-44.826-43.896-106.183-70.969-173.881-70.969  c-40.887,0-79.464,9.874-113.486,27.376c0.021-9.404,0.564-18.693,1.588-27.826c1.243-11.201,3.208-22.183,5.862-32.893  c29.623-22.006,66.309-35.004,106.036-35.004c83.686,0,153.872,57.699,172.983,135.481  C286.793,296.176,287.096,297.451,287.378,298.736z"/>
<path style="fill:#F9EED7;" d="M287.378,298.736c-44.826-43.896-106.183-70.969-173.881-70.969  c-40.887,0-79.464,9.874-113.486,27.376c0.021-9.404,0.564-18.693,1.588-27.826c31.493-21.034,70.134-33.426,111.898-33.426  c76.204,0,142.023,41.253,172.983,101.01C286.793,296.176,287.096,297.451,287.378,298.736z"/>
<path style="fill:#B58657;" d="M424.114,62.934H289.813c-2.905,0-5.538-1.181-7.44-3.082c-1.902-1.902-3.082-4.535-3.082-7.44  c0-5.81,4.712-10.522,10.522-10.522h31.995c2.905,0,5.538-1.181,7.44-3.082c1.902-1.902,3.082-4.535,3.082-7.44  c0-5.82-4.712-10.522-10.522-10.522h-8.934c-2.905,0-5.538-1.181-7.44-3.082c-1.902-1.912-3.082-4.545-3.082-7.45  c0-2.142,0.648-4.138,1.745-5.799c41.785,7.941,79.966,26.039,111.888,51.628C418.743,58.347,421.449,60.615,424.114,62.934z"/>
<path style="fill:#F9EED7;" d="M146.498,148.882H90.861c-8.872,0-16.065,7.193-16.065,16.065v55.637  c0,8.872,7.193,16.065,16.065,16.065h55.637c8.872,0,16.065-7.193,16.065-16.065v-55.637  C162.562,156.074,155.37,148.882,146.498,148.882z"/>
<path style="fill:#E8DBC4;" d="M103.79,220.584v-55.637c0-8.872,7.193-16.065,16.065-16.065H90.861  c-8.872,0-16.065,7.193-16.065,16.065v55.637c0,8.872,7.193,16.065,16.065,16.065h28.994  C110.983,236.65,103.79,229.456,103.79,220.584z"/>
<path style="fill:#FFDC8D;" d="M134.269,453.455L134.269,453.455c4.545,0,8.23-3.684,8.23-8.23V264.21c0-4.545-3.684-8.23-8.23-8.23  l0,0c-4.545,0-8.23,3.684-8.23,8.23v181.016C126.039,449.77,129.724,453.455,134.269,453.455z"/>
<g>
	<path style="fill:#B58657;" d="M339.198,437.838L339.198,437.838c0-5.813-4.711-10.523-10.523-10.523h-99.971   c-5.812,0-10.523,4.711-10.523,10.523v0.001c0,5.812,4.711,10.523,10.523,10.523h16.662c5.812,0,10.523,4.711,10.523,10.522v0.001   c0,5.812,4.711,10.523,10.523,10.523h83.31c5.812,0,10.523-4.711,10.523-10.523v-0.001c0-5.812-4.711-10.522-10.523-10.522l0,0   C343.909,448.362,339.198,443.65,339.198,437.838z"/>
	<path style="fill:#B58657;" d="M291.286,143.872c0,5.81-4.713,10.522-10.522,10.522h-73.519c2.456-1.181,5.214-1.849,8.129-1.849   c5.193,0,9.895-2.111,13.302-5.507c3.396-3.406,5.507-8.108,5.507-13.302v-21.441h25.537c5.81,0,10.522,4.712,10.522,10.522   c0,2.915,1.181,5.538,3.082,7.44c1.902,1.912,4.535,3.082,7.44,3.082s5.538,1.181,7.44,3.082   C290.105,138.334,291.286,140.967,291.286,143.872z"/>
</g>
<path style="fill:#F9EED7;" d="M387.773,330.686c-18.725,0-33.958-15.234-33.958-33.958V115.709h8.359v181.02  c0,14.116,11.483,25.599,25.599,25.599s25.599-11.483,25.599-25.599V0.001h8.359v296.728  C421.73,315.453,406.498,330.686,387.773,330.686z"/>
<polygon style="fill:#FFD15C;" points="370.533,107.677 314.111,100.82 314.111,125.896 370.533,119.039 "/>
<path style="fill:#E8DBC4;" d="M246.836,92.599v65.557c0,5.078-4.117,9.195-9.195,9.195s-9.195-4.117-9.195-9.195V94.584V23.291  c0-5.078,4.117-9.195,9.195-9.195c2.539,0,4.838,1.024,6.499,2.696c1.661,1.661,2.696,3.96,2.696,6.499v1.996v22.538V70.05V92.599z"/>
<path style="fill:#F9EED7;" d="M228.446,23.291v71.293c0,5.078-4.106,9.195-9.185,9.195c-5.078,0-9.195-4.117-9.195-9.195V23.291  c0-5.078,4.117-9.195,9.195-9.195c2.539,0,4.838,1.024,6.499,2.696C227.422,18.453,228.446,20.752,228.446,23.291z"/>
<path style="fill:#E8DBC4;" d="M210.066,23.291v71.293c0,5.078-4.117,9.195-9.195,9.195c-5.078,0-9.195-4.117-9.195-9.195v-1.985  V70.05V47.825V25.287v-1.996c0-5.078,4.117-9.195,9.195-9.195c2.539,0,4.838,1.024,6.499,2.696  C209.042,18.453,210.066,20.752,210.066,23.291z"/>
<path style="fill:#F9EED7;" d="M191.676,70.05v22.549l-28.453,16.426c-9.32,5.381-19.205,7.837-28.829,7.837  c-30.208,0-57.929-24.158-57.929-57.919c0-44.523,48.201-72.349,86.758-50.092l28.453,16.436v22.538l-38.212-22.068  c-6.008-3.459-12.424-5.214-19.069-5.214c-18.474,0-38.4,14.681-38.4,38.4s19.926,38.39,38.4,38.39  c6.646,0,13.061-1.755,19.069-5.214L191.676,70.05z"/>
<g>
	<path style="fill:#E8DBC4;" d="M163.182,63.958l8.694-5.016l-28.181-16.269c-3.03-1.755-6.081-2.602-9.3-2.602   c-7.617,0-18.881,5.998-18.881,18.871s11.264,18.871,18.881,18.871c3.218,0,6.269-0.857,9.3-2.602l18.829-10.877L163.182,63.958z    M191.676,47.825V70.05l-38.212,22.068c-6.008,3.459-12.424,5.214-19.069,5.214c-18.474,0-38.4-14.67-38.4-38.39   s19.926-38.4,38.4-38.4c6.646,0,13.061,1.755,19.069,5.214L191.676,47.825z"/>
	<path style="fill:#E8DBC4;" d="M246.836,47.825l38.222-22.068c5.998-3.459,12.413-5.214,19.069-5.214   c18.463,0,38.39,14.681,38.39,38.4c0,10.564-4.117,20.344-11.619,27.523c-7.199,6.907-16.959,10.867-26.77,10.867   c-6.656,0-13.072-1.755-19.069-5.214L246.836,70.05V47.825z M266.637,58.943l28.181,16.269c3.03,1.745,6.081,2.602,9.31,2.602   c4.754,0,9.707-2.038,13.27-5.444c3.657-3.511,5.601-8.161,5.601-13.427c0-12.873-11.264-18.871-18.871-18.871   c-3.229,0-6.269,0.846-9.31,2.602L266.637,58.943z"/>
</g>
<path style="fill:#F9EED7;" d="M304.128,1.014c30.208,0,57.919,24.168,57.919,57.929c0,44.513-48.201,72.338-86.758,50.082  l-28.453-16.426V70.05l38.222,22.068c5.998,3.459,12.413,5.214,19.069,5.214c9.812,0,19.571-3.96,26.77-10.867  c7.502-7.178,11.619-16.959,11.619-27.523c0-23.719-19.926-38.4-38.39-38.4c-6.656,0-13.072,1.755-19.069,5.214l-38.222,22.068  V25.287L275.289,8.85C284.609,3.48,294.494,1.014,304.128,1.014z"/>
<g>
</g>
<g>
</g>
<g>
</g>
<g>
</g>
<g>
</g>
<g>
</g>
<g>
</g>
<g>
</g>
<g>
</g>
<g>
</g>
<g>
</g>
<g>
</g>
<g>
</g>
<g>
</g>
<g>
</g>
</svg>
