<?xml version="1.0" encoding="iso-8859-1"?>
<!-- Generator: Adobe Illustrator 19.0.0, SVG Export Plug-In . SVG Version: 6.00 Build 0)  -->
<svg xmlns="http://www.w3.org/2000/svg" xmlns:xlink="http://www.w3.org/1999/xlink" version="1.1" id="Capa_1" x="0px" y="0px" viewBox="0 0 512 512" style="enable-background:new 0 0 512 512;" xml:space="preserve">
<path style="fill:#4BC999;" d="M512,256c0,25.872-3.835,50.855-10.982,74.397c0,0,0,0,0,0.01  c-10.867,35.84-29.383,68.347-53.645,95.629c-9.812,11.034-20.553,21.211-32.12,30.407c-5.538,4.409-11.274,8.6-17.178,12.539  c-2.236,1.494-4.493,2.957-6.771,4.378c-4.692,2.926-9.477,5.705-14.357,8.317c-24.795,13.322-52.025,22.664-80.865,27.199  C283.021,510.934,269.636,512,256,512c-31.326,0-61.325-5.622-89.067-15.914l-0.01-0.01  c-52.12-19.352-96.235-55.181-125.994-101.177c-11.024-17.011-20.072-35.422-26.833-54.899c-3.469-10-6.332-20.271-8.547-30.793  C1.912,292.049,0,274.244,0,256c0-24.754,3.511-48.692,10.073-71.335c0-0.01,0-0.01,0.01-0.01  c6.04-20.846,14.649-40.594,25.464-58.88c8.735-14.744,18.892-28.536,30.312-41.179C112.703,32.653,180.537,0,256,0  c31.201,0,61.085,5.58,88.733,15.799c5.026,1.849,9.979,3.866,14.848,6.029c2.675,1.181,5.329,2.414,7.962,3.688  c0.825,0.397,1.661,0.805,2.487,1.212c7.576,3.783,14.942,7.931,22.079,12.413c2.696,1.693,5.36,3.438,7.983,5.235  c5.016,3.417,9.906,7.011,14.649,10.773c3.26,2.581,6.457,5.235,9.592,7.983c0.104,0.084,0.219,0.178,0.324,0.282  c2.152,1.881,4.284,3.803,6.363,5.757c0.543,0.512,1.087,1.024,1.62,1.536c5.057,4.817,9.916,9.843,14.566,15.057  c2.32,2.612,4.598,5.277,6.813,7.983c1.076,1.306,2.132,2.623,3.187,3.95c2.748,3.49,5.413,7.064,7.983,10.7  c2.299,3.25,4.524,6.552,6.666,9.916c1.682,2.623,3.323,5.287,4.901,7.983c0.157,0.272,0.324,0.543,0.481,0.825  c4.483,7.67,8.579,15.59,12.246,23.74c0.324,0.721,0.648,1.442,0.972,2.173c0.846,1.923,1.672,3.856,2.466,5.81  c3.302,8.046,6.207,16.29,8.683,24.722c0.648,2.163,1.254,4.347,1.829,6.541c1.087,4.065,2.069,8.161,2.947,12.298  C510.067,219.69,512,237.62,512,256z"/>
<g>
	<path style="fill:#5BD3A2;" d="M501.018,330.397c0,0,0,0,0,0.01c-10.867,35.84-29.383,68.347-53.645,95.629H345.328   c-2.842,0-5.413-1.149-7.283-3.009c-1.86-1.87-3.009-4.441-3.009-7.283c0-5.684,4.608-10.292,10.292-10.292h31.295   c2.842,0,5.413-1.149,7.272-3.009c1.87-1.87,3.02-4.441,3.02-7.283c0-5.684-4.608-10.292-10.292-10.292h-8.735   c-2.842,0-5.413-1.149-7.272-3.02c-1.87-1.86-3.02-4.441-3.02-7.283c0-5.684,4.608-10.292,10.292-10.292H396.8   c2.842,0,5.413-1.149,7.283-3.02c1.86-1.86,3.009-4.43,3.009-7.272c0-5.684-4.608-10.292-10.292-10.292h-63.488   c-2.842,0-5.413-1.149-7.283-3.02c-1.86-1.86-3.009-4.43-3.009-7.272c0-5.695,4.608-10.303,10.292-10.303h157.853   c2.842,0,5.413,1.149,7.272,3.02C499.618,327.293,500.517,328.756,501.018,330.397z"/>
	<path style="fill:#5BD3A2;" d="M477.236,127.122c-1.881,2.33-4.765,3.814-8.004,3.814H386.09c-2.842,0-5.413-1.149-7.272-3.009   c-1.87-1.87-3.02-4.441-3.02-7.283c0-5.684,4.608-10.292,10.292-10.292h2.863c2.842,0,5.413-1.149,7.272-3.02   c1.87-1.87,3.02-4.441,3.02-7.283c0-5.684-4.608-10.292-10.292-10.292h-28.056c-2.853,0-5.423-1.149-7.283-3.02   c-1.87-1.86-3.02-4.43-3.02-7.272c0-5.684,4.608-10.292,10.303-10.292h70.123c0.543,0.512,1.087,1.024,1.62,1.536   c5.057,4.817,9.916,9.843,14.566,15.057c2.32,2.612,4.598,5.277,6.813,7.983c1.076,1.306,2.132,2.623,3.187,3.95   c2.748,3.49,5.413,7.064,7.983,10.7c2.299,3.25,4.524,6.552,6.666,9.916c1.682,2.623,3.323,5.287,4.901,7.983   C476.912,126.568,477.079,126.84,477.236,127.122z"/>
	<path style="fill:#5BD3A2;" d="M182.606,136.067c0,5.684-4.608,10.292-10.292,10.292H74.522c-2.842,0-5.413-1.149-7.283-3.009   c-1.87-1.87-3.02-4.441-3.02-7.283c0-5.684-4.608-10.292-10.292-10.292h-18.38c8.735-14.744,18.892-28.536,30.312-41.179h90.446   c2.842,0,5.413,1.149,7.283,3.02c1.86,1.86,3.009,4.43,3.009,7.272c0,5.684-4.608,10.292-10.292,10.292h-33.176   c-5.684,0-10.292,4.608-10.292,10.292c0,5.684,4.608,10.303,10.292,10.303h49.183c2.842,0,5.413,1.149,7.283,3.009   C181.457,130.654,182.606,133.224,182.606,136.067z"/>
</g>
<g>
	<path style="fill:#34ABE0;" d="M311.484,160.037v342.11c-5.089,2.382-10.23,4.629-15.402,6.729   C283.021,510.934,269.636,512,256,512c-31.326,0-61.325-5.622-89.067-15.914l-0.01-0.01   c-52.12-19.352-96.235-55.181-125.994-101.177V160.037l18.38-8.516l34.137-15.82l9.456-4.389h146.62l7.638,3.542l1.808,0.836   l18.171,8.422l4.305,1.996l24.994,11.588L311.484,160.037z"/>
	<path style="fill:#34ABE0;" d="M40.918,160.037v157.529l-26.823,22.434c-3.469-10-6.332-20.271-8.547-30.793   C1.912,292.049,0,274.244,0,256c0-24.754,3.511-48.692,10.073-71.335c0-0.01,0-0.01,0.01-0.01   C27.982,168.396,40.918,160.037,40.918,160.037z"/>
	<path style="fill:#34ABE0;" d="M395.87,245.812l-2.894,5.925l-11.045,22.632l-3.897,7.983l-6.499,13.302l-7.983,16.353   l-1.233,2.529l-0.251,0.512l-9.968,20.417l-4.044,8.276l-1.526,3.135l-30.532-25.527l-3.051-2.56   c-0.031-0.021-0.052-0.031-0.073-0.052l-1.379-1.17h-0.01V160.037c0,0,7.732,4.995,19.519,14.775   c4.065,3.365,8.61,7.314,13.5,11.828c5.945,5.486,12.382,11.807,19.049,18.954c3.95,4.242,7.983,8.777,12.037,13.594   c6.311,7.502,12.675,15.694,18.86,24.566C394.919,244.433,395.4,245.123,395.87,245.812z"/>
</g>
<g>
	<path style="fill:#279FC9;" d="M40.929,206.252l-0.01,111.313l-26.823,22.434c-3.469-10-6.332-20.271-8.547-30.793   c32.946-21.086,35.234-95.911,35.37-102.494C40.929,206.409,40.929,206.252,40.929,206.252z"/>
	<path style="fill:#279FC9;" d="M362.318,314.535l-0.251,0.512l-9.968,20.417l-4.044,8.276l-1.526,3.135l-30.542-25.558   l-3.041-2.529l-1.452-1.223V206.252c0,0,0.021,1.808,0.178,4.953c0.094,2.111,0.251,4.817,0.491,7.983   c0.533,6.604,1.442,15.224,3.051,24.566c0.439,2.612,0.94,5.277,1.505,7.983c1.567,7.513,3.605,15.256,6.249,22.632   c0.972,2.727,2.027,5.392,3.176,7.983c1.473,3.312,3.082,6.499,4.859,9.477c2.361,3.981,5.016,7.617,7.983,10.762   C345.234,309.206,352.904,313.647,362.318,314.535z"/>
	<path style="fill:#279FC9;" d="M237.001,132.273l-13.205,18.914c-11.074,15.861-25.467,29.12-42.183,38.857l-5.709,3.326   l-4.864-2.796c-16.895-9.71-31.454-23.009-42.651-38.957l-13.582-19.344h122.193V132.273z"/>
	<path style="fill:#279FC9;" d="M166.922,496.076c-52.12-19.352-96.235-55.181-125.994-101.177V160.037l18.38-8.516   C59.037,153.475,24.398,404.856,166.922,496.076z"/>
</g>
<g>
	<path style="fill:#F9EED7;" d="M170.862,184.341l5.036,2.894l-3.887,3.887l-2.759,2.759l-41.075,41.064l-34.732-99.244l-1.17-3.333   l20.449-8.307l5.089,7.252l0.679,0.961l8.276,11.786C138.344,160.549,153.391,174.299,170.862,184.341z"/>
	<path style="fill:#F9EED7;" d="M260.127,132.368l-1.16,3.323l-4.65,13.281l-30.083,85.974l-41.075-41.064l-6.646-6.646h-0.616   l5.904-3.438c17.283-10.073,32.162-23.782,43.614-40.176l7.92-11.348l0.669-0.961l5.057-7.252l18.934,7.461L260.127,132.368z"/>
	<rect x="169.253" y="187.256" style="fill:#F9EED7;" width="13.904" height="77.469"/>
</g>
<circle style="fill:#5C5E70;" cx="203.912" cy="248.142" r="10.188"/>
<path style="fill:#279FC9;" d="M392.976,251.737l2.894-5.925c-0.47-0.69-0.951-1.379-1.421-2.058h-22.915v-24.566h4.054  c-4.054-4.817-8.087-9.352-12.037-13.594v5.611h-24.566V186.64h5.517c-4.89-4.514-9.435-8.464-13.5-11.828v3.845h-24.566v-20.961  l-24.994-11.588h-4.723c0.136-0.669,0.272-1.337,0.418-1.996l-18.171-8.422l1.16-3.323l-2.132-0.846  c-0.293,1.108-0.575,2.215-0.836,3.333c-1.118,4.629-2.058,9.341-2.842,14.117c-1.766,10.825-2.675,21.985-2.675,33.332  c0,40.657,11.672,79.005,32.872,107.99c8.067,11.024,17.136,20.208,26.969,27.439c0.46,0.345,0.92,0.669,1.39,1.003  c0.021,0.021,0.042,0.031,0.073,0.052c0.763,0.543,1.526,1.066,2.299,1.588l0.742,0.94l0.01,0.031l30.532,25.527l1.526-3.135  c-1.912-3.615-3.95-7.168-6.102-10.658c0.01,0.01,0.01,0.01,0.021,0.01c3.323,0.982,6.708,1.776,10.125,2.372l9.968-20.417  c-3.709-0.303-7.377-0.92-11.003-1.818c-4.096-1.024-8.129-2.445-12.079-4.221v-26.655h24.566v29.654l7.983-16.353v-13.302h6.499  l3.897-7.983h-10.397v-22.632L392.976,251.737L392.976,251.737z M306.437,186.64h24.566v24.566h-24.566V186.64z M306.437,219.188  h24.566v24.566h-24.566V219.188z M306.437,251.737h24.566v22.632h-24.566V251.737z M298.454,272.614  c-4.295-6.499-8.087-13.49-11.327-20.877h11.327V272.614z M298.454,243.754h-14.566c-2.936-7.837-5.287-16.06-7.022-24.566h21.588  V243.754z M298.454,211.205h-23.03c-1.275-8.004-2.006-16.217-2.194-24.566h25.224V211.205z M298.454,178.657H273.22  c0.157-8.349,0.857-16.562,2.09-24.566h23.144V178.657z M331.003,304.839c-6.875-4.106-13.427-9.383-19.508-15.757l-0.01-0.01  c-1.724-1.808-3.406-3.699-5.047-5.684v-1.034h24.566V304.839z M363.551,274.369h-24.566v-22.633h24.566V274.369z M363.551,243.754  h-24.566v-24.566h24.566V243.754z"/>
<g>
	<path style="fill:#F9EED7;" d="M363.552,291.46c-2.203,0-3.988-1.786-3.988-3.988V22.238c0-2.203,1.786-3.988,3.988-3.988   c2.203,0,3.988,1.786,3.988,3.988v265.234C367.54,289.674,365.755,291.46,363.552,291.46z"/>
	<path style="fill:#F9EED7;" d="M461.197,270.123c-2.203,0-3.988-1.786-3.988-3.988V43.575c0-2.203,1.786-3.988,3.988-3.988   s3.988,1.786,3.988,3.988v222.559C465.185,268.337,463.4,270.123,461.197,270.123z"/>
	<path style="fill:#F9EED7;" d="M331.003,270.123c-2.203,0-3.988-1.786-3.988-3.988V43.575c0-2.203,1.786-3.988,3.988-3.988   c2.203,0,3.988,1.786,3.988,3.988v222.559C334.991,268.337,333.206,270.123,331.003,270.123z"/>
	<path style="fill:#F9EED7;" d="M428.648,291.46c-2.203,0-3.988-1.786-3.988-3.988V22.238c0-2.203,1.786-3.988,3.988-3.988   c2.203,0,3.988,1.786,3.988,3.988v265.234C432.637,289.674,430.852,291.46,428.648,291.46z"/>
	<path style="fill:#F9EED7;" d="M396.1,302.826c-2.203,0-3.988-1.786-3.988-3.988V10.871c0-2.203,1.786-3.988,3.988-3.988   s3.988,1.786,3.988,3.988v287.967C400.088,301.04,398.303,302.826,396.1,302.826z"/>
	<path style="fill:#F9EED7;" d="M500.511,126.295H291.688c-2.203,0-3.988-1.786-3.988-3.988c0-2.203,1.786-3.988,3.988-3.988   h208.823c2.203,0,3.988,1.786,3.988,3.988C504.5,124.509,502.715,126.295,500.511,126.295z"/>
	<path style="fill:#F9EED7;" d="M488.698,223.939H303.503c-2.203,0-3.988-1.786-3.988-3.988c0-2.203,1.786-3.988,3.988-3.988   h185.196c2.203,0,3.988,1.786,3.988,3.988C492.686,222.154,490.9,223.939,488.698,223.939z"/>
	<path style="fill:#F9EED7;" d="M488.698,93.746H303.503c-2.203,0-3.988-1.786-3.988-3.988c0-2.203,1.786-3.988,3.988-3.988h185.196   c2.203,0,3.988,1.786,3.988,3.988C492.686,91.96,490.9,93.746,488.698,93.746z"/>
	<path style="fill:#F9EED7;" d="M469.861,63.13H322.34c-2.203,0-3.988-1.786-3.988-3.988s1.786-3.988,3.988-3.988h147.522   c2.203,0,3.988,1.786,3.988,3.988S472.064,63.13,469.861,63.13z"/>
	<path style="fill:#F9EED7;" d="M469.861,254.557H322.34c-2.203,0-3.988-1.786-3.988-3.988c0-2.203,1.786-3.988,3.988-3.988h147.522   c2.203,0,3.988,1.786,3.988,3.988C473.85,252.771,472.064,254.557,469.861,254.557z"/>
	<path style="fill:#F9EED7;" d="M500.511,191.392H291.688c-2.203,0-3.988-1.786-3.988-3.988c0-2.203,1.786-3.988,3.988-3.988   h208.823c2.203,0,3.988,1.786,3.988,3.988C504.5,189.605,502.715,191.392,500.511,191.392z"/>
	<path style="fill:#F9EED7;" d="M500.172,158.843H292.028c-2.203,0-3.988-1.786-3.988-3.988s1.786-3.988,3.988-3.988h208.144   c2.203,0,3.988,1.786,3.988,3.988C504.16,157.058,502.375,158.843,500.172,158.843z"/>
</g>
<path style="fill:#C69A6A;" d="M400.849,414.644h-9.495c-3.903,0-7.09-3.117-7.177-7.019l-0.191-8.542  c-0.846-36.613-13.738-72.672-36.3-101.529l-13.306-17.021l11.312-8.843l13.306,17.021c19.014,24.32,31.691,53.357,36.82,83.731  c5.142-32.692,18.971-63.605,40.371-89.464l7.323-8.858c0.172-0.208,0.355-0.406,0.55-0.593l5.035,5.211l5.48,4.531l-7.325,8.86  c-26.741,32.316-40.672,73.187-39.229,115.089c0.067,1.946-0.659,3.835-2.012,5.235  C404.659,413.854,402.796,414.644,400.849,414.644z"/>
<path style="fill:#EF4152;" d="M415.253,412.264v44.178c-5.538,4.409-11.274,8.6-17.178,12.539  c-2.236,1.494-4.493,2.957-6.771,4.378c-4.692,2.926-9.477,5.705-14.357,8.317v-69.413c0-4.88,2.915-9.07,7.095-10.93  c1.484-0.679,3.135-1.045,4.88-1.045h14.357c1.651,0,3.218,0.334,4.639,0.93C412.233,403.038,415.253,407.291,415.253,412.264z"/>
<path style="fill:#FF525D;" d="M415.253,412.264v44.178c-5.538,4.409-11.274,8.6-17.178,12.539  c-2.236,1.494-4.493,2.957-6.771,4.378v-61.095c0-6.614,5.36-11.975,11.975-11.975c1.651,0,3.218,0.334,4.639,0.93  C412.233,403.038,415.253,407.291,415.253,412.264z"/>
<path style="fill:#C69A6A;" d="M479.128,46.508C457.195,16.52,427.708,0,396.1,0c-18.171,0-35.641,5.454-51.367,15.799  c-11.64,7.638-22.329,17.962-31.66,30.71C291.871,75.494,280.2,113.842,280.2,154.509c0,40.657,11.672,79.005,32.872,107.99  c9.08,12.413,19.456,22.518,30.741,30.093c8.443,5.684,17.408,9.947,26.718,12.706c8.286,2.456,16.844,3.709,25.569,3.709  c8.161,0,16.175-1.097,23.96-3.25c8.725-2.414,17.147-6.134,25.14-11.086c12.518-7.784,23.991-18.599,33.928-32.172  c12.591-17.22,21.828-37.742,27.251-60.092c3.699-15.266,5.622-31.389,5.622-47.898C512,113.842,500.328,75.494,479.128,46.508z   M465.189,244.82c-0.387,0.596-0.784,1.181-1.191,1.766c-0.731,1.076-1.484,2.142-2.257,3.197c-1.202,1.64-2.424,3.239-3.678,4.775  c-0.282,0.345-0.564,0.69-0.857,1.034c-7.44,8.976-15.736,16.185-24.566,21.452c-2.612,1.567-5.277,2.957-7.983,4.169  c-7.889,3.563-16.144,5.642-24.566,6.134c-1.327,0.084-2.654,0.125-3.992,0.125s-2.664-0.042-3.992-0.125  c-8.422-0.491-16.677-2.57-24.566-6.134c-2.706-1.212-5.371-2.602-7.983-4.169c-8.829-5.266-17.126-12.476-24.566-21.452  c-0.293-0.345-0.575-0.69-0.857-1.034c-1.254-1.536-2.476-3.135-3.678-4.775c-0.773-1.055-1.526-2.121-2.257-3.197  c-0.408-0.585-0.805-1.17-1.191-1.766c-4.294-6.499-8.087-13.49-11.327-20.877c-1.16-2.612-2.236-5.277-3.239-7.983  c-2.936-7.837-5.287-16.06-7.022-24.566c-0.543-2.633-1.024-5.298-1.442-7.983c-1.275-8.004-2.006-16.217-2.194-24.566  c-0.031-1.442-0.052-2.884-0.052-4.336c0-1.212,0.01-2.435,0.042-3.647c0.157-8.349,0.857-16.562,2.09-24.566  c0.408-2.685,0.878-5.35,1.411-7.983c1.703-8.505,4.012-16.718,6.907-24.566c0.993-2.706,2.058-5.371,3.197-7.983  c3.302-7.649,7.199-14.879,11.63-21.577c0.23-0.355,0.46-0.711,0.711-1.055c0.888-1.327,1.797-2.623,2.738-3.908  c1.024-1.4,2.058-2.759,3.114-4.075c0.47-0.585,0.94-1.16,1.421-1.735c7.44-8.976,15.736-16.185,24.566-21.452  c2.612-1.567,5.277-2.957,7.983-4.169c0.825-0.376,1.651-0.731,2.487-1.066c7.137-2.915,14.535-4.629,22.079-5.068  c1.327-0.084,2.654-0.125,3.992-0.125s2.664,0.042,3.992,0.125c8.422,0.491,16.677,2.57,24.566,6.134  c2.706,1.212,5.371,2.602,7.983,4.169c8.829,5.266,17.126,12.476,24.566,21.452c0.481,0.575,0.951,1.149,1.421,1.735  c1.055,1.317,2.09,2.675,3.114,4.075c0.94,1.285,1.849,2.581,2.738,3.908c0.251,0.345,0.481,0.7,0.711,1.055  c4.43,6.698,8.328,13.928,11.63,21.577c1.139,2.612,2.205,5.277,3.197,7.983c2.894,7.847,5.204,16.06,6.907,24.566  c0.533,2.633,1.003,5.298,1.411,7.983c1.233,8.004,1.933,16.217,2.09,24.566c0.021,0.731,0.031,1.452,0.031,2.173  c0.01,0.491,0.01,0.982,0.01,1.473c0,1.452-0.021,2.894-0.052,4.336c-0.188,8.349-0.92,16.562-2.194,24.566  c-0.418,2.685-0.899,5.35-1.442,7.983c-1.735,8.505-4.086,16.729-7.022,24.566c-1.003,2.706-2.079,5.371-3.239,7.983  C473.276,231.33,469.483,238.32,465.189,244.82z"/>
<path style="fill:#FF6E7C;" d="M415.253,435.848v20.595c-5.538,4.409-11.274,8.6-17.178,12.539v-33.134  c0-4.744,3.845-8.589,8.589-8.589c2.372,0,4.524,0.961,6.071,2.518C414.292,431.323,415.253,433.476,415.253,435.848z"/>
<path style="fill:#FFD15C;" d="M251.235,17.752v41.132c0,9.806-7.957,17.752-17.763,17.752H115.09  c-9.806,0-17.752-7.945-17.752-17.752V17.752H251.235z"/>
<path style="fill:#EDBB4C;" d="M251.232,17.758c0,9.805-7.953,17.755-17.758,17.755H115.091c-4.906,0-9.343-1.988-12.557-5.201  s-5.201-7.651-5.201-12.553C97.333,7.95,105.283,0,115.091,0h118.383c4.903,0,9.34,1.988,12.557,5.202  C249.244,8.415,251.232,12.855,251.232,17.758z"/>
<path style="fill:#FFD15C;" d="M213.805,30.623c-1.3,0-2.355,1.052-2.355,2.355v2.535h4.711v-2.535  C216.16,31.675,215.105,30.623,213.805,30.623z M213.805,19.629c-1.3,0-2.355,1.052-2.355,2.355v3.769  c0,1.3,1.055,2.355,2.355,2.355s2.355-1.055,2.355-2.355v-3.769C216.16,20.682,215.105,19.629,213.805,19.629z M213.805,8.637  c-1.3,0-2.355,1.052-2.355,2.355v3.769c0,1.3,1.055,2.355,2.355,2.355s2.355-1.055,2.355-2.355v-3.769  C216.16,9.689,215.105,8.637,213.805,8.637z M211.45,0v3.769c0,1.3,1.055,2.355,2.355,2.355s2.355-1.055,2.355-2.355V0H211.45z"/>
<path style="fill:#EDBB4C;" d="M115.09,17.752v58.884c-9.806,0-17.752-7.945-17.752-17.752V17.752H115.09z"/>
<path style="fill:#FFDC8D;" d="M235.647,67.722h-0.451c-1.876,0-3.396-1.52-3.396-3.396v-18.84c0-1.876,1.52-3.396,3.396-3.396  h0.451c1.876,0,3.396,1.52,3.396,3.396v18.84C239.043,66.202,237.523,67.722,235.647,67.722z"/>
<path style="fill:#279FC9;" d="M297.696,410.087c-0.232,1.263-0.508,2.512-0.828,3.736c-5.031,19.261-20.74,33.323-39.477,36.91  c-2.48,0.48-5.016,0.772-7.587,0.868c-3.635,0.14-7.338-0.116-11.067-0.799c-7.839-1.436-14.925-4.603-20.932-9.038  c-1.692-1.243-3.3-2.596-4.811-4.035c-11.986-11.386-18.169-28.408-14.969-45.885c1.148-6.267,3.403-12.05,6.527-17.19  c1.796-2.955,3.876-5.695,6.203-8.191c8.386-9.007,19.925-14.818,32.47-15.962c4.491-0.412,9.106-0.224,13.758,0.628  c14.201,2.6,25.928,10.887,33.258,22.081c2.028,3.092,3.72,6.403,5.027,9.883C298.423,391.422,299.414,400.688,297.696,410.087z"/>
<path style="fill:#EDBB4C;" d="M314.898,387.659c-0.232,1.263-0.508,2.512-0.828,3.736c-5.031,19.261-20.74,33.323-39.477,36.91  c-2.48,0.48-5.015,0.772-7.587,0.868c-3.635,0.14-7.338-0.116-11.066-0.8c-7.839-1.436-14.925-4.603-20.932-9.038  c-1.692-1.243-3.3-2.596-4.811-4.035c-11.986-11.386-18.169-28.408-14.969-45.885c1.148-6.267,3.403-12.05,6.527-17.19  c1.796-2.955,3.876-5.695,6.203-8.191c8.386-9.007,19.925-14.818,32.47-15.962c4.491-0.412,9.106-0.224,13.758,0.628  c14.201,2.6,25.928,10.887,33.258,22.081c2.028,3.092,3.72,6.403,5.027,9.883C315.626,368.994,316.618,378.26,314.898,387.659z"/>
<path style="fill:#FFD15C;" d="M314.898,387.659c-0.232,1.263-0.508,2.512-0.828,3.736c-6.383,11.378-17.538,19.385-30.299,21.828  c-2.168,0.416-4.383,0.672-6.631,0.755c-3.175,0.124-6.41-0.1-9.671-0.7c-6.851-1.252-13.042-4.02-18.293-7.898  c-1.475-1.084-2.884-2.267-4.204-3.523c-10.474-9.951-15.877-24.828-13.082-40.101c1.004-5.475,2.976-10.53,5.703-15.021  c1.572-2.58,3.388-4.975,5.423-7.154c4.799-5.151,10.774-9.11,17.409-11.506c4.491-0.412,9.106-0.224,13.758,0.628  c14.201,2.6,25.928,10.887,33.258,22.081c2.028,3.092,3.72,6.403,5.027,9.883C315.626,368.994,316.618,378.26,314.898,387.659z"/>
<g>
	<path style="fill:#F9EED7;" d="M239.618,398.237c-0.364,7.023-1.779,13.842-4.208,20.273c-0.044,0.112-0.092,0.224-0.148,0.332   l-0.256,0.492c-1.692-1.243-3.3-2.596-4.811-4.035c1.968-5.527,3.119-11.366,3.431-17.369c0.376-7.195-2.388-13.734-5.311-20.657   c-3.044-7.222-6.447-15.269-6.563-25.048c1.796-2.955,3.876-5.695,6.203-8.191v3.519c0,0.104-0.004,0.204-0.011,0.304   c-1.076,10.555,2.471,18.957,5.899,27.08C236.902,382.18,240.062,389.671,239.618,398.237z"/>
	<path style="fill:#F9EED7;" d="M312.47,360.663c-0.776,2.007-2.055,4.003-3.779,5.843c-3.392,3.615-8.195,6.403-13.882,8.062   c-19.425,5.668-29.524,16.961-30.012,33.575c-0.212,7.167,4.027,14.866,8.123,18.469c0.056,0.048,0.112,0.1,0.164,0.153l1.508,1.54   c-2.48,0.48-5.015,0.772-7.587,0.868c-4.508-5.027-8.439-13.242-8.207-21.204c0.396-13.41,6.671-31.091,34.33-39.158   c10.17-2.963,14.481-9.395,14.198-12.809c-0.008-0.08-0.013-0.164-0.013-0.248v-0.084l0.129-4.887   C309.471,353.872,311.162,357.184,312.47,360.663z"/>
</g>
<g>
	<circle style="fill:#FFDC8D;" cx="287.462" cy="351.66" r="10.198"/>
	<circle style="fill:#FFDC8D;" cx="268.706" cy="341.964" r="5.499"/>
</g>
<g>
</g>
<g>
</g>
<g>
</g>
<g>
</g>
<g>
</g>
<g>
</g>
<g>
</g>
<g>
</g>
<g>
</g>
<g>
</g>
<g>
</g>
<g>
</g>
<g>
</g>
<g>
</g>
<g>
</g>
</svg>
