<?xml version="1.0" encoding="iso-8859-1"?>
<!-- Generator: Adobe Illustrator 19.0.0, SVG Export Plug-In . SVG Version: 6.00 Build 0)  -->
<svg xmlns="http://www.w3.org/2000/svg" xmlns:xlink="http://www.w3.org/1999/xlink" version="1.1" id="Capa_1" x="0px" y="0px" viewBox="0 0 512.001 512.001" style="enable-background:new 0 0 512.001 512.001;" xml:space="preserve">
<path style="fill:#4BC999;" d="M512,256.001c0,27.826-4.441,54.617-12.654,79.694c-8.965,27.408-22.434,52.778-39.529,75.233  C413.059,472.347,339.153,512.001,256,512.001c-24.482,0-48.159-3.438-70.572-9.853c-77.343-22.131-139.703-79.726-168.364-154.06  C6.04,319.51,0,288.455,0,256.001c0-55.16,17.439-106.245,47.114-148.041c9.644-13.584,20.584-26.185,32.632-37.616  C125.649,26.75,187.695,0.001,256,0.001C397.386,0.001,512,114.616,512,256.001z"/>
<path style="fill:#3BB282;" d="M382.517,350.595c-0.846,4.629-1.86,9.195-3.03,13.678  c-18.422,70.531-75.943,122.013-144.551,135.147c-9.08,1.755-18.369,2.832-27.784,3.176c-7.178,0.272-14.43,0.136-21.723-0.449  c-59.486-17.021-110.111-55.024-143.35-105.482c-9.989-15.141-18.401-31.42-25.015-48.577c-3.5-20.72-3.511-42.392,0.481-64.261  c0.01-0.01,0.01-0.031,0.01-0.042c4.2-22.946,12.466-44.116,23.897-62.934c6.572-10.825,14.19-20.856,22.716-29.999  c30.71-32.977,72.955-54.251,118.899-58.441c16.436-1.505,33.343-0.815,50.375,2.299c51.994,9.519,94.939,39.863,121.783,80.854  c7.419,11.316,13.615,23.448,18.401,36.185C385.181,282.249,388.817,316.177,382.517,350.595z"/>
<path style="fill:#4BC999;" d="M165.721,377.857c0,10.386-8.422,18.808-18.808,18.808H42.078  c-9.989-15.141-18.401-31.42-25.015-48.577c-3.5-20.72-3.511-42.392,0.481-64.261h100.112c5.193,0,9.895,2.111,13.302,5.507  c3.396,3.406,5.507,8.108,5.507,13.302c0,10.386-8.422,18.808-18.808,18.808H57.041c-10.386,0-18.798,8.411-18.798,18.798  c0,10.397,8.411,18.808,18.798,18.808h89.872c5.193,0,9.895,2.1,13.302,5.507C163.611,367.962,165.721,372.664,165.721,377.857z"/>
<path style="fill:#EDBB4C;" d="M508.118,218.954c-0.849,4.628-1.86,9.196-3.031,13.678  c-18.423,70.526-75.945,122.015-144.553,135.151c-9.079,1.757-18.364,2.826-27.781,3.178c-13.311,0.512-26.872-0.424-40.52-2.929  c-28.702-5.257-54.652-16.855-76.647-33.096c-6.194-4.554-12.081-9.504-17.617-14.776c-43.889-41.692-66.529-104.019-54.813-168.013  c4.203-22.948,12.463-44.123,23.9-62.942c6.576-10.822,14.19-20.853,22.713-29.992c30.708-32.979,72.957-54.257,118.896-58.445  c16.446-1.509,33.345-0.82,50.376,2.299c52.001,9.519,94.938,39.862,121.781,80.851c7.424,11.32,13.619,23.445,18.408,36.186  C510.783,150.609,514.415,184.539,508.118,218.954z"/>
<path style="fill:#FFD15C;" d="M508.118,218.954c-0.849,4.628-1.86,9.196-3.031,13.678c-23.372,41.662-64.215,70.98-110.944,79.927  c-7.937,1.523-16.05,2.46-24.28,2.768c-11.628,0.453-23.475-0.366-35.409-2.563c-25.086-4.584-47.755-14.717-66.983-28.923  c-5.404-3.969-10.559-8.304-15.391-12.901c-38.353-36.435-58.137-90.911-47.901-146.837c3.676-20.047,10.895-38.559,20.882-55.003  c5.755-9.446,12.404-18.218,19.857-26.199c17.573-18.861,39.451-33.359,63.746-42.131c16.446-1.509,33.345-0.82,50.376,2.299  c52.001,9.519,94.938,39.862,121.781,80.851c7.424,11.32,13.619,23.445,18.408,36.186  C510.783,150.609,514.415,184.539,508.118,218.954z"/>
<g>
	<path style="fill:#F9EED7;" d="M232.47,257.687c-1.332,25.715-6.517,50.684-15.406,74.232c-0.161,0.41-0.336,0.82-0.541,1.215   l-0.937,1.801c-6.194-4.554-12.081-9.504-17.617-14.776c7.205-20.239,11.423-41.619,12.565-63.6   c1.376-26.345-8.743-50.288-19.448-75.637c-11.144-26.447-23.606-55.911-24.031-91.717c6.576-10.822,14.19-20.853,22.713-29.992   v12.887c0,0.38-0.015,0.747-0.044,1.113c-3.939,38.646,9.05,69.414,21.6,99.156C222.527,198.891,234.096,226.32,232.47,257.687z"/>
	<path style="fill:#F9EED7;" d="M499.229,120.106c-2.841,7.352-7.527,14.659-13.839,21.395   c-12.419,13.238-30.006,23.445-50.83,29.523c-71.127,20.751-108.103,62.106-109.89,122.939   c-0.776,26.243,14.747,54.433,29.742,67.627c0.205,0.176,0.41,0.366,0.601,0.557l5.521,5.638   c-9.079,1.756-18.364,2.826-27.781,3.178c-16.504-18.408-30.899-48.487-30.05-77.643c1.45-49.102,24.427-113.844,125.706-143.382   c37.24-10.851,53.027-34.399,51.987-46.905c-0.029-0.294-0.044-0.601-0.044-0.908v-0.307l0.469-17.895   C488.246,95.239,494.441,107.365,499.229,120.106z"/>
</g>
<path style="fill:#E8DBC4;" d="M232.58,248.71c0.073,2.957,0.042,5.945-0.115,8.976c-1.327,25.715-6.52,50.688-15.402,74.24  c-0.167,0.408-0.345,0.815-0.543,1.212l-0.94,1.797c-6.196-4.556-12.079-9.498-17.617-14.775c7.21-20.24,11.421-41.618,12.57-63.603  c1.369-26.342-8.746-50.28-19.456-75.63c-11.139-26.446-23.604-55.912-24.022-91.721c6.572-10.825,14.19-20.856,22.706-29.989  v12.884c0,0.387-0.01,0.752-0.042,1.118c-2.894,28.411,3.354,52.558,11.86,75.18C200.418,185.201,211.891,220.288,232.58,248.71z"/>
<path id="SVGCleanerId_0" style="fill:#E8DBC4;" d="M360.528,367.786c-9.08,1.755-18.359,2.821-27.773,3.176  c-14.555-16.227-27.46-41.514-29.738-67.26c7.461,2.988,15.224,5.465,23.259,7.346c4.284,20.626,16.363,40.187,28.129,50.542  c0.209,0.178,0.418,0.366,0.606,0.554L360.528,367.786z"/>
<path style="fill:#E8DBC4;" d="M232.465,257.685c-1.327,25.715-6.52,50.688-15.402,74.24c-0.167,0.408-0.345,0.815-0.543,1.212  l-0.94,1.797c-6.196-4.556-12.079-9.498-17.617-14.775c7.21-20.24,11.421-41.618,12.57-63.603  c1.369-26.342-8.746-50.28-19.456-75.63c-11.139-26.446-23.604-55.912-24.022-91.721c6.572-10.825,14.19-20.856,22.706-29.989  v12.884c0,0.387-0.01,0.752-0.042,1.118c-2.894,28.411,3.354,52.558,11.86,75.18c-1.16,36.801,10.313,71.889,31.002,100.31  C232.653,251.667,232.622,254.655,232.465,257.685z"/>
<g>
	<path id="SVGCleanerId_0_1_" style="fill:#E8DBC4;" d="M360.528,367.786c-9.08,1.755-18.359,2.821-27.773,3.176   c-14.555-16.227-27.46-41.514-29.738-67.26c7.461,2.988,15.224,5.465,23.259,7.346c4.284,20.626,16.363,40.187,28.129,50.542   c0.209,0.178,0.418,0.366,0.606,0.554L360.528,367.786z"/>
</g>
<g>
	<circle style="fill:#FFDC8D;" cx="407.667" cy="87.145" r="37.343"/>
	<circle style="fill:#FFDC8D;" cx="338.965" cy="51.629" r="20.136"/>
</g>
<g>
	<path style="fill:#5BD3A2;" d="M139.254,89.152c0,10.386-8.422,18.808-18.808,18.808H47.115   c9.644-13.584,20.584-26.185,32.632-37.616h40.699c5.193,0,9.895,2.1,13.302,5.507C137.154,79.256,139.254,83.958,139.254,89.152z"/>
	<path style="fill:#5BD3A2;" d="M499.347,335.695c-8.965,27.408-22.434,52.778-39.529,75.233h-60.656   c-5.193,0-9.895-2.111-13.302-5.507c-3.406-3.406-5.507-8.108-5.507-13.302c0-10.386,8.422-18.808,18.808-18.808h60.604   c5.193,0,9.895-2.111,13.302-5.507c3.406-3.406,5.507-8.108,5.507-13.302c0-10.386,8.422-18.808,18.808-18.808H499.347z"/>
</g>
<g>
</g>
<g>
</g>
<g>
</g>
<g>
</g>
<g>
</g>
<g>
</g>
<g>
</g>
<g>
</g>
<g>
</g>
<g>
</g>
<g>
</g>
<g>
</g>
<g>
</g>
<g>
</g>
<g>
</g>
</svg>
