<?xml version="1.0" encoding="iso-8859-1"?>
<!-- Generator: Adobe Illustrator 19.0.0, SVG Export Plug-In . SVG Version: 6.00 Build 0)  -->
<svg xmlns="http://www.w3.org/2000/svg" xmlns:xlink="http://www.w3.org/1999/xlink" version="1.1" id="Capa_1" x="0px" y="0px" viewBox="0 0 512 512" style="enable-background:new 0 0 512 512;" xml:space="preserve">
<path style="fill:#4BC999;" d="M512,256c0,12.79-0.94,25.37-2.759,37.658c-2.184,14.879-5.663,29.341-10.303,43.269  c-2.957,8.892-6.395,17.575-10.271,26.008c-1.714,3.72-3.521,7.387-5.402,11.013c-15.182,29.205-35.84,55.118-60.604,76.372  c-5.057,4.347-10.282,8.495-15.673,12.434c-41.608,30.438-92.735,48.619-148.093,49.236c-0.961,0-1.933,0.01-2.894,0.01  c-39.905,0-77.667-9.122-111.323-25.412c-7.513-3.626-14.827-7.617-21.912-11.954c-41.159-25.13-74.668-61.555-96.214-104.97  c-2.048-4.138-4.002-8.338-5.831-12.601C8.202,327.952,0.92,296.041,0.084,262.541C0.031,260.368,0,258.184,0,256  c0-1.369,0.01-2.727,0.031-4.086c0.031-1.672,0.073-3.344,0.136-5.016c0.794-22.695,4.535-44.628,10.867-65.452  c2.382-7.858,5.141-15.569,8.255-23.092C57.668,65.411,149.201,0,256,0c51.001,0,98.523,14.911,138.428,40.626  c10.919,7.022,21.253,14.858,30.95,23.416c2.811,2.487,5.569,5.026,8.265,7.628c24.66,23.761,44.554,52.423,58.128,84.417  C504.801,186.786,512,220.557,512,256z"/>
<g>
	<path style="fill:#5BD3A2;" d="M422.672,63.718h-71.199c-3.187,0-6.071-1.296-8.161-3.385c-2.09-2.09-3.385-4.974-3.385-8.161   c0-6.374,5.172-11.546,11.546-11.546h42.956c10.919,7.022,21.253,14.858,30.95,23.416   C424.511,63.833,423.602,63.718,422.672,63.718z"/>
	<path style="fill:#5BD3A2;" d="M491.771,156.087h-126.83c-3.187,0-6.071-1.296-8.161-3.385c-2.09-2.09-3.385-4.974-3.385-8.161   c0-6.374,5.172-11.546,11.546-11.546h35.098c3.187,0,6.071-1.296,8.161-3.385c2.09-2.09,3.385-4.974,3.385-8.161   c0-6.374-5.172-11.546-11.546-11.546h-9.801c-3.187,0-6.071-1.296-8.161-3.385c-2.09-2.09-3.375-4.974-3.375-8.161   c0-6.374,5.162-11.546,11.536-11.546h32.434c3.187,0,6.071-1.296,8.161-3.385c2.09-2.09,3.385-4.974,3.385-8.161   c0-1.254-0.199-2.466-0.575-3.594C458.303,95.431,478.198,124.092,491.771,156.087z"/>
	<path style="fill:#5BD3A2;" d="M509.241,293.658c-2.184,14.879-5.663,29.341-10.303,43.269   c-2.957,8.892-6.395,17.575-10.271,26.008H454.75c-3.187,0-6.071-1.296-8.161-3.385c-2.09-2.09-3.385-4.974-3.385-8.161   c0-6.374,5.172-11.546,11.546-11.546h3.208c3.187,0,6.071-1.285,8.161-3.375c2.09-2.09,3.385-4.974,3.385-8.171   c0-6.374-5.172-11.546-11.546-11.546h-31.472c-3.187,0-6.071-1.285-8.161-3.375c-2.09-2.09-3.385-4.974-3.385-8.171   c0-6.374,5.172-11.546,11.546-11.546L509.241,293.658L509.241,293.658z"/>
	<path style="fill:#5BD3A2;" d="M199.471,192.993c0,6.384-5.172,11.546-11.546,11.546H78.232c-3.187,0-6.071-1.296-8.161-3.375   c-2.09-2.09-3.385-4.984-3.385-8.171c0-6.374-5.162-11.546-11.546-11.546H11.034c2.382-7.858,5.141-15.569,8.255-23.092h17.889   c3.197,0,6.081-1.296,8.171-3.375c2.09-2.09,3.375-4.984,3.375-8.171c0-6.374,5.172-11.546,11.546-11.546h109.693   c3.187,0,6.071,1.296,8.161,3.385s3.385,4.974,3.385,8.161c0,6.384-5.172,11.546-11.546,11.546h-37.209   c-6.374,0-11.546,5.172-11.546,11.546c0,6.384,5.172,11.546,11.546,11.546h55.171c3.187,0,6.071,1.296,8.161,3.385   C198.175,186.922,199.471,189.806,199.471,192.993z"/>
	<path style="fill:#5BD3A2;" d="M378.312,409.707v-0.001c0-6.376-5.169-11.545-11.545-11.545H257.077   c-6.376,0-11.545,5.169-11.545,11.545v0.001c0,6.376,5.169,11.545,11.545,11.545h18.282c6.376,0,11.545,5.169,11.545,11.545v0.001   c0,6.376,5.169,11.545,11.545,11.545h91.408c6.376,0,11.545-5.169,11.545-11.545v-0.001c0-6.376-5.169-11.545-11.545-11.545l0,0   C383.481,421.252,378.312,416.083,378.312,409.707z"/>
</g>
<g>
	<path style="fill:#5C5E70;" d="M406.988,322.111h15.673V450.32c-5.057,4.347-10.282,8.495-15.673,12.434V322.111z"/>
	<path style="fill:#5C5E70;" d="M498.939,210.829v126.098c-4.263,12.821-9.519,25.192-15.673,37.021V210.829   c0-14.984-12.194-27.167-27.167-27.167H285.78c-23.625,0-42.841-19.216-42.841-42.841S262.154,97.98,285.78,97.98h30.302   c10.365,0,18.808-8.432,18.808-18.808s-8.443-18.808-18.808-18.808h-128V44.69h128c19.017,0,34.482,15.464,34.482,34.482   s-15.464,34.482-34.482,34.482H285.78c-14.984,0-27.167,12.184-27.167,27.167c0,14.984,12.184,27.167,27.167,27.167h170.318   C479.713,167.988,498.939,187.204,498.939,210.829z"/>
</g>
<path style="fill:#279FC9;" d="M379.298,329.425c0,0.846-0.01,1.693-0.021,2.55c-0.042,3.594-0.178,7.168-0.418,10.721  c-0.345,5.266-0.899,10.48-1.651,15.632c-3.271,22.465-10.313,43.708-20.459,63.06c-3.187,6.092-6.677,11.985-10.459,17.68  c-21.285,32.068-51.628,57.595-87.395,72.923c-0.961,0-1.933,0.01-2.894,0.01c-39.905,0-77.667-9.122-111.323-25.412  c-7.513-3.626-14.827-7.617-21.912-11.954c-41.159-25.13-74.668-61.555-96.214-104.97c-2.048-4.138-4.002-8.338-5.831-12.601  C8.202,327.952,0.92,296.041,0.084,262.541C0.031,260.368,0,258.184,0,256c0-1.369,0.01-2.727,0.031-4.086  c0.031-1.672,0.073-3.344,0.136-5.016c10.355-22.664,24.869-43.039,42.548-60.144c2.017-1.954,4.075-3.866,6.175-5.716  c20.689-18.411,45.255-32.549,72.317-41.044c3.668-1.16,7.387-2.205,11.149-3.145c5.935-1.494,11.975-2.717,18.108-3.647  c0.47-0.084,0.94-0.146,1.411-0.219c9.435-1.379,19.08-2.09,28.891-2.09c1.285,0,2.57,0.01,3.856,0.042  c0.481,0,0.951,0.01,1.432,0.031c0.219,0,0.428,0.01,0.648,0.021c0.387,0,0.773,0.021,1.149,0.031  c1.181,0.042,2.351,0.094,3.511,0.157c1.045,0.052,2.09,0.115,3.135,0.188c0.522,0.031,1.045,0.073,1.578,0.115  c0.47,0.031,0.94,0.073,1.411,0.104c0.679,0.063,1.358,0.125,2.038,0.188c1.546,0.146,3.082,0.303,4.618,0.481  c1.076,0.125,2.142,0.261,3.208,0.408c1.223,0.167,2.445,0.334,3.657,0.522c0.021,0,0.042,0.01,0.063,0.01  c0.031,0,0.063,0.01,0.094,0.01c0.711,0.115,1.411,0.219,2.111,0.345c0.418,0.063,0.836,0.136,1.243,0.209  c0.721,0.115,1.442,0.24,2.152,0.376c0.92,0.167,1.839,0.345,2.759,0.533c0.94,0.178,1.87,0.366,2.79,0.564  c0.763,0.157,1.526,0.324,2.278,0.502c0.449,0.094,0.899,0.199,1.348,0.313c2.8,0.637,5.569,1.348,8.317,2.121  c0.564,0.157,1.128,0.313,1.703,0.481c0.805,0.23,1.609,0.46,2.403,0.711c0.69,0.209,1.369,0.418,2.058,0.637  c0.846,0.261,1.693,0.533,2.529,0.815c0.846,0.272,1.682,0.554,2.518,0.846c0.784,0.272,1.557,0.543,2.341,0.815  c0.773,0.282,1.557,0.564,2.33,0.857c1.766,0.648,3.511,1.327,5.235,2.038c0.815,0.324,1.62,0.658,2.435,1.003  c1.588,0.658,3.145,1.337,4.702,2.048c0.815,0.366,1.62,0.742,2.424,1.118c0.345,0.157,0.679,0.313,1.014,0.481  c0.481,0.219,0.961,0.449,1.442,0.69c0.784,0.376,1.567,0.763,2.351,1.16c0.773,0.387,1.557,0.784,2.33,1.181  c0.773,0.408,1.546,0.815,2.32,1.223c0.815,0.428,1.62,0.867,2.414,1.317l1.348,0.752c0.731,0.408,1.473,0.825,2.194,1.254  c0.742,0.428,1.484,0.867,2.215,1.306c0.533,0.313,1.055,0.627,1.567,0.94c1.369,0.836,2.727,1.693,4.065,2.55  c0.888,0.575,1.776,1.16,2.654,1.745c0.648,0.428,1.285,0.857,1.923,1.306c0.92,0.616,1.829,1.254,2.738,1.902  c0.46,0.324,0.92,0.648,1.379,0.982c0.585,0.418,1.16,0.836,1.735,1.264c0.596,0.439,1.181,0.878,1.776,1.327  c0.658,0.491,1.306,0.993,1.954,1.505c0.387,0.293,0.773,0.596,1.16,0.899c0.084,0.063,0.167,0.136,0.251,0.199  c0.94,0.742,1.87,1.494,2.8,2.257c0.961,0.784,1.912,1.578,2.853,2.382c1.118,0.951,2.226,1.912,3.323,2.884  c2.1,1.849,4.159,3.762,6.175,5.716c18.662,18.056,33.792,39.748,44.241,63.927c1.16,2.665,2.247,5.35,3.291,8.067  C374.711,280.701,379.298,304.536,379.298,329.425z"/>
<path style="fill:#34ABE0;" d="M379.298,329.425c0,0.846-0.01,1.693-0.021,2.55c-0.042,3.594-0.178,7.168-0.418,10.721  c-0.345,5.266-0.899,10.48-1.651,15.632c-1.839,3.218-3.783,6.374-5.831,9.456c-29.581,44.586-80.227,73.968-137.738,73.968  s-108.157-29.383-137.738-73.968c-3.145-4.733-6.05-9.634-8.704-14.702c-10.365-19.801-16.844-41.974-18.39-65.484  c-0.209-2.957-0.313-5.935-0.355-8.923c-0.01-0.711-0.01-1.421-0.01-2.121c0-20.71,3.814-40.542,10.773-58.817  c0.867-2.257,1.766-4.493,2.738-6.708c8.694-20.125,21.285-38.17,36.812-53.196c1.682-1.63,3.385-3.218,5.141-4.754  c8.568-7.628,17.941-14.378,27.972-20.093c9.435-1.379,19.08-2.09,28.891-2.09c50.615,0,96.81,18.944,131.877,50.145  c2.1,1.849,4.159,3.762,6.175,5.716c18.662,18.056,33.792,39.748,44.241,63.927c1.16,2.664,2.247,5.35,3.291,8.067  C374.711,280.701,379.298,304.536,379.298,329.425z"/>
<path style="fill:#2097B7;" d="M180.767,398.336c-22.215,0-44.095-2.184-65.39-6.447c-33.28-6.656-65.139-18.39-94.657-34.826  c1.829,4.263,3.783,8.464,5.831,12.601c31.316,16.081,65.003,27.136,100.07,32.737h0.01c17.732,2.853,35.819,4.295,54.136,4.295  c72.129,0,140.821-22.434,198.092-64c0.24-3.553,0.376-7.126,0.418-10.721C322.382,375.035,253.367,398.336,180.767,398.336z   M363.06,250.681c-10.459,8.401-21.42,16.018-32.799,22.831c-16.562,9.927-34.022,18.129-52.161,24.524  c-30.845,10.888-63.655,16.562-97.332,16.562c-38.912,0-76.654-7.565-111.553-22.006c-24.68-10.198-47.94-23.845-69.183-40.678  C0.01,253.273,0,254.631,0,256c0,2.184,0.031,4.368,0.084,6.541c21.692,16.426,45.328,29.686,70.322,39.549  c34.67,13.709,71.962,20.867,110.362,20.867c36.268,0,71.555-6.384,104.563-18.631c15.6-5.799,30.699-12.884,45.15-21.232  c12.466-7.199,24.451-15.318,35.871-24.346C365.307,256.031,364.22,253.346,363.06,250.681z M180.767,480.371  c-19.707,0-39.121-1.944-58.002-5.736c7.084,4.336,14.399,8.328,21.912,11.954c11.891,1.421,23.928,2.142,36.091,2.142  c59.758,0,116.851-17.345,165.522-49.664c3.783-5.695,7.272-11.588,10.459-17.68C306.343,459.661,245.154,480.371,180.767,480.371z   M312.644,181.039c-13.312,11.64-28.17,21.556-44.22,29.383h-0.01c-8.213,4.023-16.75,7.492-25.548,10.355  c-19.56,6.384-40.427,9.843-62.098,9.843c-34.941,0-67.824-8.986-96.465-24.775c-12.706-6.99-24.566-15.329-35.412-24.806  c-2.1,1.849-4.159,3.762-6.175,5.716c11.651,10.271,24.44,19.268,38.17,26.77c29.686,16.227,63.728,25.454,99.882,25.454  c20.417,0,40.145-2.936,58.807-8.432h0.01c13.26-3.887,25.966-9.059,37.992-15.381c14.89-7.816,28.735-17.377,41.242-28.411  C316.803,184.801,314.744,182.888,312.644,181.039z"/>
<g>
	<circle style="fill:#78CAEF;" cx="300.993" cy="278.998" r="29.779"/>
	<circle style="fill:#78CAEF;" cx="262.625" cy="232.845" r="23.155"/>
</g>
<g>
	<path style="fill:#279FC9;" d="M330.773,278.998c0,1.39-0.094,2.759-0.293,4.096c-14.451,8.349-29.55,15.433-45.15,21.232   c-2.738-1.703-5.183-3.824-7.231-6.29c18.139-6.395,35.6-14.597,52.161-24.524C330.595,275.289,330.773,277.128,330.773,278.998z"/>
	<path style="fill:#279FC9;" d="M277.577,215.165c-12.027,6.322-24.733,11.494-37.992,15.381c0.345-3.553,1.505-6.875,3.281-9.77   c8.798-2.863,17.335-6.332,25.548-10.355h0.01C271.841,211.299,274.965,212.95,277.577,215.165z"/>
</g>
<g>
	<path style="fill:#34ABE0;" d="M150.465,175.477h-29.257v-71.75c0-8.079,6.549-14.629,14.629-14.629l0,0   c8.079,0,14.629,6.549,14.629,14.629V175.477z"/>
	<path style="fill:#34ABE0;" d="M240.327,175.477h-29.257v-71.75c0-8.079,6.549-14.629,14.629-14.629l0,0   c8.079,0,14.629,6.549,14.629,14.629V175.477z"/>
</g>
<g>
	<path style="fill:#279FC9;" d="M231.27,90.204c-1.719-0.708-3.599-1.105-5.572-1.105l0,0c-8.079,0-14.629,6.549-14.629,14.629   v66.177c0,3.078,2.495,5.572,5.572,5.572l0,0c3.078,0,5.572-2.495,5.572-5.572v-66.177   C222.215,97.622,225.957,92.396,231.27,90.204z"/>
	<path style="fill:#279FC9;" d="M141.409,90.204c-1.719-0.708-3.599-1.105-5.572-1.105l0,0c-8.079,0-14.629,6.549-14.629,14.629   v66.177c0,3.078,2.495,5.572,5.572,5.572l0,0c3.078,0,5.572-2.495,5.572-5.572v-66.177   C132.354,97.622,136.096,92.396,141.409,90.204z"/>
</g>
<g>
	<path style="fill:#FF525D;" d="M171.363,72.38H58.514c-10.964,0-19.853-8.889-19.853-19.853l0,0   c0-10.964,8.889-19.853,19.853-19.853h112.849V72.38z"/>
	<path style="fill:#FF525D;" d="M179.093,12.918L179.093,12.918c-7.732,0-14,6.267-14,14v51.219c0,7.732,6.267,14,14,14l0,0   c7.732,0,14-6.267,14-14V26.918C193.093,19.186,186.826,12.918,179.093,12.918z"/>
	<path style="fill:#FF525D;" d="M393.404,352.519V239.67c0-10.964,8.889-19.853,19.853-19.853l0,0   c10.964,0,19.853,8.889,19.853,19.853v112.849H393.404z"/>
</g>
<path style="fill:#EF4152;" d="M419.527,220.843c-1.973-0.656-4.076-1.026-6.269-1.026l0,0c-10.964,0-19.853,8.888-19.853,19.853  v112.849h12.539V239.67C405.943,230.899,411.638,223.47,419.527,220.843z"/>
<path style="fill:#FF525D;" d="M452.866,360.249L452.866,360.249c0-7.732-6.268-14-14-14h-51.219c-7.732,0-14,6.267-14,14l0,0  c0,7.732,6.268,14,14,14h51.219C446.598,374.249,452.866,367.982,452.866,360.249z"/>
<path style="fill:#EF4152;" d="M393.501,360.249c0-7.731,6.268-14,14-14h-19.853c-7.732,0-14,6.268-14,14c0,7.731,6.268,14,14,14  h19.853C399.77,374.249,393.501,367.981,393.501,360.249z"/>
<g>
	<path style="fill:#FF6E7C;" d="M421.791,316.886L421.791,316.886c-3.463,0-6.269-2.807-6.269-6.269v-65.481   c0-3.463,2.807-6.269,6.269-6.269l0,0c3.463,0,6.269,2.807,6.269,6.269v65.481C428.06,314.08,425.253,316.886,421.791,316.886z"/>
	<path style="fill:#FF6E7C;" d="M435.722,363.559h-16.021c-3.078,0-5.572-2.495-5.572-5.572l0,0c0-3.077,2.495-5.572,5.572-5.572   h16.021c3.078,0,5.572,2.495,5.572,5.572l0,0C441.295,361.063,438.801,363.559,435.722,363.559z"/>
</g>
<g>
	<path style="fill:#EF4152;" d="M39.687,46.258c-0.656,1.973-1.026,4.076-1.026,6.269l0,0c0,10.964,8.888,19.853,19.853,19.853   h112.849V59.841H58.514C49.743,59.841,42.314,54.147,39.687,46.258z"/>
	<path style="fill:#EF4152;" d="M179.093,72.283c-7.731,0-14-6.268-14-14v19.853c0,7.732,6.268,14,14,14s14-6.268,14-14V58.283   C193.093,66.015,186.825,72.283,179.093,72.283z"/>
</g>
<g>
	<path style="fill:#FF6E7C;" d="M135.73,43.993L135.73,43.993c0,3.463-2.807,6.269-6.269,6.269H63.98   c-3.463,0-6.269-2.807-6.269-6.269l0,0c0-3.463,2.807-6.269,6.269-6.269h65.481C132.924,37.724,135.73,40.532,135.73,43.993z"/>
	<path style="fill:#FF6E7C;" d="M182.403,30.062v16.021c0,3.078-2.495,5.572-5.572,5.572l0,0c-3.078,0-5.572-2.495-5.572-5.572   V30.062c0-3.078,2.495-5.572,5.572-5.572l0,0C179.907,24.489,182.403,26.983,182.403,30.062z"/>
</g>
<g>
</g>
<g>
</g>
<g>
</g>
<g>
</g>
<g>
</g>
<g>
</g>
<g>
</g>
<g>
</g>
<g>
</g>
<g>
</g>
<g>
</g>
<g>
</g>
<g>
</g>
<g>
</g>
<g>
</g>
</svg>
