<?xml version="1.0" encoding="iso-8859-1"?>
<!-- Generator: Adobe Illustrator 19.0.0, SVG Export Plug-In . SVG Version: 6.00 Build 0)  -->
<svg xmlns="http://www.w3.org/2000/svg" xmlns:xlink="http://www.w3.org/1999/xlink" version="1.1" id="Capa_1" x="0px" y="0px" viewBox="0 0 512 512" style="enable-background:new 0 0 512 512;" xml:space="preserve">
<path style="fill:#C69A6A;" d="M508.834,296.24c-0.042,0.251-0.084,0.491-0.125,0.742c-1.369,8.558-3.177,17.042-5.433,25.454  c-11.233,41.973-33.322,81.659-66.257,114.583c-20.02,20.02-42.538,36.038-66.549,48.034c-15.485,7.743-31.587,13.814-48.034,18.223  c-8.652,2.32-17.387,4.169-26.196,5.559c-32.34,5.12-65.452,4.033-97.457-3.281c-5.475-1.243-10.919-2.675-16.321-4.294  c-23.959-7.158-47.073-17.899-68.503-32.225c-4.086-2.727-8.119-5.59-12.058-8.568c-9.373-7.084-18.38-14.9-26.917-23.447  c-7.847-7.847-15.088-16.081-21.692-24.639c-0.596-0.752-1.181-1.515-1.755-2.278c-2.978-3.939-5.841-7.973-8.568-12.058  c-3.751-5.622-7.262-11.358-10.522-17.189c-2.487-4.43-4.817-8.913-7.011-13.458c0-0.01,0-0.01,0-0.01  c-2.226-4.608-4.315-9.279-6.248-13.981c-3.218-7.837-6.039-15.799-8.443-23.865c-1.62-5.402-3.051-10.846-4.295-16.321  c-0.982-4.284-1.839-8.589-2.591-12.904c-1.849-10.512-3.03-21.107-3.542-31.733c-0.867-17.627,0.084-35.338,2.853-52.819  c1.39-8.808,3.239-17.544,5.559-26.196c2.184-8.182,4.786-16.269,7.805-24.231c12.445-32.946,31.932-63.843,58.451-90.352  c32.935-32.935,72.61-55.024,114.583-66.257c8.641-2.309,17.387-4.169,26.185-5.548c29.341-4.66,59.329-4.19,88.534,1.4  c2.988,0.564,5.966,1.191,8.934,1.87c4.514,1.024,9.007,2.173,13.458,3.459c0.951,0.272,1.912,0.543,2.863,0.836  c17.439,5.204,34.44,12.309,50.657,21.326c6.06,3.365,12.016,7.001,17.847,10.898c4.075,2.717,8.108,5.58,12.048,8.579  c9.383,7.074,18.39,14.89,26.927,23.437c8.547,8.537,16.363,17.544,23.447,26.917c2.978,3.939,5.841,7.973,8.568,12.058  c14.326,21.431,25.067,44.544,32.225,68.503c1.62,5.402,3.051,10.846,4.295,16.321C512.867,230.787,513.954,263.9,508.834,296.24z"/>
<g>
	<path style="fill:#D3AA81;" d="M508.708,296.982c-1.369,8.558-3.177,17.042-5.433,25.454   c-11.233,41.973-33.322,81.659-66.257,114.583c-20.02,20.02-42.538,36.038-66.549,48.034h-77.364   c-5.193,0-9.895-2.111-13.302-5.507c-3.406-3.406-5.507-8.108-5.507-13.302c0-10.386,8.422-18.798,18.808-18.798h57.177   c5.193,0,9.895-2.1,13.302-5.507c3.406-3.406,5.507-8.108,5.507-13.302c0-10.386-8.422-18.808-18.808-18.808h-15.966   c-5.193,0-9.895-2.1-13.291-5.507c-3.406-3.406-5.507-8.108-5.507-13.302c0-10.386,8.411-18.808,18.798-18.808h52.83   c5.193,0,9.895-2.1,13.302-5.507c3.406-3.406,5.507-8.108,5.507-13.302c0-10.386-8.422-18.808-18.808-18.808H271.162   c-5.193,0-9.895-2.1-13.302-5.507c-3.406-3.406-5.507-8.108-5.507-13.302c0-10.386,8.422-18.808,18.808-18.808H508.708z"/>
	<path style="fill:#D3AA81;" d="M198.27,283.68c3.396,3.406,5.507,8.108,5.507,13.302c0,10.386-8.422,18.808-18.808,18.808h-1.849   c-5.193,0-9.895,2.1-13.302,5.507s-5.507,8.108-5.507,13.302c0,10.386-8.422,18.808-18.808,18.808H19.185   c-3.218-7.837-6.039-15.799-8.443-23.865c-1.62-5.402-3.051-10.846-4.295-16.321c-7.314-32.005-8.401-65.118-3.281-97.457   c1.39-8.808,3.239-17.544,5.559-26.196c2.184-8.182,4.786-16.269,7.805-24.231h124.552c5.193,0,9.895,2.111,13.302,5.507   c3.396,3.406,5.507,8.108,5.507,13.302c0,10.386,8.422,18.808,18.808,18.808h6.269c10.386,0,18.808,8.422,18.808,18.808   c0,10.386-8.422,18.798-18.808,18.798h-34.482c-5.193,0-9.895,2.1-13.302,5.507c-3.396,3.406-5.507,8.108-5.507,13.302   c0,10.386,8.422,18.808,18.808,18.808h34.482C190.161,278.173,194.863,280.274,198.27,283.68z"/>
</g>
<g>
	<path style="fill:#B58657;" d="M215.754,3.172L3.165,215.763c1.39-8.807,3.243-17.548,5.564-26.192L189.57,8.729   C198.207,6.416,206.948,4.562,215.754,3.172z"/>
	<path style="fill:#B58657;" d="M329.538,10.739l-318.8,318.8c-1.619-5.401-3.044-10.846-4.292-16.321L313.217,6.446   c4.514,1.027,9.006,2.18,13.461,3.458C327.632,10.177,328.585,10.45,329.538,10.739z"/>
	<path style="fill:#B58657;" d="M410.095,51.545L51.537,410.103c-2.985-3.946-5.844-7.973-8.571-12.058L398.044,42.967   C402.123,45.686,406.15,48.546,410.095,51.545z"/>
	<path style="fill:#B58657;" d="M469.034,113.957L113.955,469.034c-4.086-2.726-8.113-5.586-12.058-8.571l358.565-358.564   C463.448,105.844,466.306,109.871,469.034,113.957z"/>
	<path style="fill:#B58657;" d="M505.555,198.784L198.783,505.556c-5.475-1.249-10.92-2.675-16.321-4.292l318.8-318.8   C502.88,187.864,504.306,193.309,505.555,198.784z"/>
	<path style="fill:#B58657;" d="M503.272,322.431L322.43,503.272c-8.644,2.32-17.385,4.174-26.192,5.564l212.598-212.598   C507.446,305.046,505.591,313.787,503.272,322.431z"/>
</g>
<path style="fill:#F9EED7;" d="M211.247,107.73c0,19.466-2.57,37.742-7.074,53.561c-4.514,15.799-10.951,29.142-18.672,38.734  c-9.456,2.529-19.163,3.783-28.86,3.783c-0.387,0-0.763,0-1.149-0.01c-9.32-0.094-18.63-1.348-27.711-3.772  c-15.475-19.195-25.767-53.352-25.767-92.296c0-23.771,3.835-45.766,10.344-63.655c6.332-4.305,12.873-8.338,19.602-12.069  c16.771-9.31,34.701-16.791,53.52-22.173l0.491,1.546c1.567,4.901,3.741,9.571,6.322,14.012  C203.902,45.329,211.247,74.805,211.247,107.73z"/>
<path style="fill:#E8DBC4;" d="M138.46,200.026c5.58,2.372,11.306,3.626,17.032,3.772c-9.32-0.094-18.63-1.348-27.711-3.772  c-15.475-19.195-25.767-53.352-25.767-92.296c0-23.771,3.835-45.766,10.344-63.655c6.332-4.305,12.873-8.338,19.602-12.069  c-6.019,19.571-9.718,46.278-9.718,75.724C122.243,146.673,128.721,180.831,138.46,200.026z"/>
<g>
	<path style="fill:#FCF8F2;" d="M192.359,120.7L192.359,120.7c-4.628,0-8.379-3.751-8.379-8.379V69.986   c0-4.628,3.751-8.379,8.379-8.379l0,0c4.628,0,8.379,3.751,8.379,8.379v42.336C200.738,116.949,196.987,120.7,192.359,120.7z"/>
	<path style="fill:#FCF8F2;" d="M181.334,53.669L181.334,53.669c-4.628,0-8.379-3.751-8.379-8.379l0,0   c0-4.628,3.751-8.379,8.379-8.379l0,0c4.628,0,8.379,3.751,8.379,8.379l0,0C189.713,49.918,185.962,53.669,181.334,53.669z"/>
</g>
<path style="fill:#279FC9;" d="M369.727,230.672c-57.511,39.716-136.317,25.286-176.034-32.225  c-39.706-57.501-25.276-136.307,32.225-176.023c34.252-23.646,76.058-28.097,112.65-15.684  c24.858,8.443,47.313,24.649,63.373,47.908c11.431,16.551,18.38,34.858,21.107,53.488  C429.787,154.27,410.687,202.387,369.727,230.672z"/>
<path style="fill:#34ABE0;" d="M423.048,108.137c-0.825,30.824-15.841,60.876-43.175,79.746  c-45.463,31.389-107.76,19.989-139.159-25.475c-31.389-45.463-19.989-107.771,25.475-139.17  c21.985-15.182,47.919-20.355,72.38-16.499c24.858,8.443,47.313,24.649,63.373,47.908C413.372,71.2,420.32,89.507,423.048,108.137z"/>
<g>
	<circle style="fill:#494B5B;" cx="233.032" cy="65.881" r="14.555"/>
	<circle style="fill:#494B5B;" cx="233.032" cy="114.458" r="14.555"/>
	<circle style="fill:#494B5B;" cx="279.144" cy="68.347" r="14.555"/>
</g>
<path style="fill:#F9EED7;" d="M488.27,251.233c0,22.033-2.914,42.708-8.013,60.601c-5.099,17.881-12.383,32.97-21.125,43.826  c-10.697,2.854-21.673,4.281-32.65,4.281s-21.953-1.427-32.65-4.281c-17.503-21.714-29.147-60.361-29.147-104.427  c0-37.251,8.323-70.629,21.464-93.181c2.914-5.009,5.369-10.268,7.135-15.786l0.539-1.686c2.864-8.621,4.959-17.433,6.257-26.344  c0.978-6.615,1.527-13.282,1.627-19.958c0.079-4.121-0.02-8.242-0.279-12.354c-0.419-6.686-1.267-13.352-2.555-19.958  c-0.439-2.235-0.928-4.47-1.467-6.696l-1.178-4.88c-0.559-2.305-1.217-4.59-1.916-6.865c-0.958-3.123-1.487-6.437-1.487-9.869  c0-19.249,16.166-34.726,35.654-33.598c16.744,0.968,30.425,14.509,31.573,31.253c0.279,4.132-0.189,8.113-1.287,11.834  c-0.708,2.395-1.427,4.79-2.016,7.215l-1.208,5.059c-0.519,2.175-0.998,4.36-1.417,6.546c-1.297,6.606-2.156,13.271-2.575,19.958  c-0.259,4.111-0.349,8.233-0.279,12.354c0.099,6.676,0.649,13.341,1.627,19.958c1.298,8.861,3.373,17.633,6.207,26.204l0.568,1.786  c1.766,5.548,4.231,10.827,7.154,15.856C479.958,180.634,488.27,213.993,488.27,251.233z"/>
<path style="fill:#E8DBC4;" d="M426.482,359.941c-10.977,0-21.953-1.427-32.65-4.281c-17.503-21.714-29.147-60.361-29.147-104.427  c0-37.251,8.323-70.629,21.464-93.181c2.914-5.009,5.369-10.268,7.135-15.786l0.539-1.686c2.864-8.621,4.959-17.433,6.257-26.344  c0.978-6.615,1.527-13.282,1.627-19.958c0.079-4.121-0.02-8.242-0.279-12.354c-0.419-6.686-1.267-13.352-2.555-19.958  c-0.439-2.235-0.928-4.47-1.467-6.696l-1.178-4.88c-0.559-2.305-1.217-4.59-1.916-6.865c-0.958-3.123-1.487-6.437-1.487-9.869  c0-18.411,14.769-33.358,33.11-33.648c-11.446,0.459-20.646,15.347-20.646,33.648c0,3.432,0.329,6.746,0.938,9.869  c0.439,2.275,0.848,4.56,1.208,6.865l0.739,4.88c0.34,2.226,0.649,4.461,0.918,6.696c0.818,6.606,1.347,13.271,1.616,19.958  c0.16,4.111,0.219,8.233,0.169,12.354c-0.06,6.676-0.41,13.341-1.018,19.958c-0.818,8.911-2.145,17.722-3.941,26.344l-0.34,1.686  c-1.118,5.518-2.664,10.777-4.49,15.786c-8.282,22.552-13.521,55.93-13.521,93.181c0,44.065,7.334,82.713,18.35,104.427  C412.652,358.513,419.567,359.941,426.482,359.941z"/>
<g>
	<path style="fill:#FF525D;" d="M454.124,61.968c-1.297,6.606-2.156,13.271-2.575,19.958h-50.123   c-0.419-6.686-1.267-13.352-2.555-19.958H454.124z"/>
	<path style="fill:#FF525D;" d="M452.896,114.237h-52.817c0.978-6.615,1.527-13.282,1.627-19.958h49.564   C451.37,100.955,451.918,107.62,452.896,114.237z"/>
</g>
<g>
	<circle style="fill:#FCF8F2;" cx="439.702" cy="28.576" r="14.469"/>
	<path style="fill:#FCF8F2;" d="M467.997,265.911h-2.202c-4.628,0-8.379-3.751-8.379-8.379v-50.1c0-4.628,3.751-8.379,8.379-8.379   h2.202c4.628,0,8.379,3.751,8.379,8.379v50.1C476.376,262.16,472.625,265.911,467.997,265.911z"/>
	<path style="fill:#FCF8F2;" d="M455.524,190.074h-2.202c-4.628,0-8.379-3.751-8.379-8.379v-2.202c0-4.628,3.751-8.379,8.379-8.379   h2.202c4.628,0,8.379,3.751,8.379,8.379v2.202C463.903,186.323,460.151,190.074,455.524,190.074z"/>
</g>
<g>
	<path style="fill:#EF4152;" d="M401.427,81.925c-0.419-6.686-1.267-13.352-2.555-19.958h10.218   c0.818,6.606,1.347,13.271,1.616,19.958H401.427z"/>
	<path style="fill:#EF4152;" d="M410.876,94.279c-0.06,6.676-0.41,13.341-1.018,19.958h-9.779   c0.978-6.615,1.527-13.282,1.627-19.958H410.876z"/>
</g>
<circle style="fill:#78CAEF;" cx="350.656" cy="62.715" r="21.942"/>
<path style="fill:#FF525D;" d="M406.622,367.387v0.01H25.433c0-0.01,0-0.01,0-0.01c-2.226-4.608-4.315-9.279-6.248-13.981  c-3.218-7.837-6.039-15.799-8.443-23.865c-1.62-5.402-3.051-10.846-4.295-16.321c-0.982-4.284-1.839-8.589-2.591-12.904  c-1.849-10.512-3.03-21.107-3.542-31.733c1.881-8.391,11.786-12.978,19.456-7.983c16.29,10.627,35.485,17.178,56.142,18.213  c1.891,0.084,3.793,0.136,5.705,0.136c29.936,0,57.156-11.609,77.406-30.574c15.454-14.451,39.497-13.625,54.408,1.4  c0.104,0.125,0.23,0.23,0.355,0.355c0.522,0.522,1.055,1.045,1.588,1.557c3.824,3.688,7.91,7.116,12.215,10.24  c2.539,1.86,5.162,3.615,7.858,5.256c4.514,2.748,9.226,5.204,14.117,7.325c4.911,2.142,10,3.95,15.245,5.381  c5.224,1.452,10.585,2.539,16.081,3.239c4.921,0.627,9.947,0.951,15.047,0.94h0.428c5.768,0.01,11.431,0.449,16.959,1.306  C357.857,292.144,393.885,324.859,406.622,367.387z"/>
<g>
	<path style="fill:#F9EED7;" d="M380.29,412.38H250.546c-48.88,0-97.175-10.762-141.437-31.514v31.514H53.29   c-0.596-0.752-1.181-1.515-1.755-2.278c-2.978-3.939-5.841-7.973-8.568-12.058c-3.751-5.622-7.262-11.358-10.522-17.189   c-2.487-4.43-4.817-8.913-7.011-13.458c0-0.01,0-0.01,0-0.01h381.188v0.01c0.867,2.884,1.63,7.44,2.278,12.581   c0.042,0.293,0.063,0.585,0.094,0.888C410.603,397.689,397.333,412.38,380.29,412.38z"/>
	<path style="fill:#F9EED7;" d="M201.2,285.056c-2.034,0-4.07-0.776-5.622-2.328c-3.104-3.104-3.104-8.138,0-11.243l20.552-20.552   c3.104-3.104,8.139-3.104,11.243,0c3.104,3.104,3.104,8.138,0,11.243l-20.552,20.552C205.269,284.28,203.235,285.056,201.2,285.056   z"/>
	<path style="fill:#F9EED7;" d="M230.578,303.718c-1.15,0-2.318-0.25-3.425-0.779c-3.96-1.894-5.636-6.641-3.742-10.603   l12.22-25.551c1.895-3.96,6.64-5.636,10.603-3.742c3.96,1.894,5.636,6.641,3.742,10.603l-12.22,25.551   C236.39,302.051,233.543,303.718,230.578,303.718z"/>
	<path style="fill:#F9EED7;" d="M262.518,311.057c-1.15,0-2.318-0.25-3.425-0.78c-3.96-1.894-5.636-6.641-3.742-10.603l12.22-25.551   c1.895-3.96,6.642-5.636,10.603-3.742c3.96,1.894,5.636,6.641,3.742,10.603l-12.22,25.551   C268.33,309.39,265.484,311.057,262.518,311.057z"/>
	<path style="fill:#F9EED7;" d="M293.62,316.174c-1.15,0-2.318-0.25-3.424-0.78c-3.96-1.894-5.636-6.641-3.742-10.603l12.219-25.551   c1.894-3.96,6.642-5.637,10.603-3.742c3.96,1.894,5.636,6.641,3.742,10.603l-12.22,25.551   C299.432,314.507,296.586,316.174,293.62,316.174z"/>
</g>
<path style="fill:#FFDC8D;" d="M67.282,367.387H25.433c-2.226-4.608-4.315-9.279-6.248-13.981  c-3.218-7.837-6.039-15.799-8.443-23.865c-1.62-5.402-3.051-10.846-4.295-16.321c-0.982-4.284-1.839-8.589-2.591-12.904  C33.521,312.425,56.801,336.928,67.282,367.387z"/>
<path style="fill:#EF4152;" d="M25.433,367.397c0-0.01,0-0.01,0-0.01c-2.226-4.608-4.315-9.279-6.248-13.981  c-3.218-7.837-6.039-15.799-8.443-23.865c-1.62-5.402-3.051-10.846-4.295-16.321c-0.982-4.284-1.839-8.589-2.591-12.904  c-1.849-10.512-3.03-21.107-3.542-31.733c1.881-8.391,11.786-12.978,19.456-7.983c16.29,10.627,35.485,17.178,56.142,18.213  c0.387,1.139,18.578,55.891,106.391,88.576c0.01,0,0.021,0.01,0.031,0.01H25.433z"/>
<g>
	<path style="fill:#5C5E70;" d="M109.109,380.855v31.525H53.29c-0.596-0.752-1.181-1.515-1.755-2.278   c-2.978-3.939-5.841-7.973-8.568-12.058c-3.751-5.622-7.262-11.358-10.522-17.189H109.109z"/>
	<rect x="87.51" y="380.865" style="fill:#5C5E70;" width="21.599" height="31.514"/>
	<path style="fill:#5C5E70;" d="M380.293,412.38H250.548c-48.886,0-97.174-10.763-141.437-31.519h299.887   C410.6,397.691,397.33,412.38,380.293,412.38z"/>
</g>
<circle style="fill:#FF6E7C;" cx="338.859" cy="324.451" r="14.065"/>
<g>
</g>
<g>
</g>
<g>
</g>
<g>
</g>
<g>
</g>
<g>
</g>
<g>
</g>
<g>
</g>
<g>
</g>
<g>
</g>
<g>
</g>
<g>
</g>
<g>
</g>
<g>
</g>
<g>
</g>
</svg>
