<?xml version="1.0" encoding="iso-8859-1"?>
<!-- Generator: Adobe Illustrator 19.0.0, SVG Export Plug-In . SVG Version: 6.00 Build 0)  -->
<svg xmlns="http://www.w3.org/2000/svg" xmlns:xlink="http://www.w3.org/1999/xlink" version="1.1" id="Capa_1" x="0px" y="0px" viewBox="0 0 512 512" style="enable-background:new 0 0 512 512;" xml:space="preserve">
<path style="fill:#5C5E70;" d="M512,256c0,8.202-0.387,16.311-1.149,24.315c-4.556,48.515-22.664,93.079-50.5,129.902  c-3.365,4.451-6.875,8.798-10.522,13.019c-3.271,3.783-6.646,7.471-10.125,11.055c-28.484,29.351-63.937,51.89-103.685,64.951  C310.847,507.528,283.941,512,256,512C120.027,512,8.819,405.995,0.502,272.112C0.167,266.783,0,261.413,0,256  c0-8.955,0.46-17.805,1.358-26.52C14.629,100.561,123.57,0,256,0c112.609,0,208.238,72.704,242.5,173.735  C507.256,199.555,512,227.224,512,256z"/>
<g>
	<path style="fill:#797B89;" d="M512,256c0,8.202-0.387,16.311-1.149,24.315H382.036c-2.947,0-5.601-1.191-7.534-3.114   c-1.933-1.933-3.124-4.598-3.124-7.544c0-5.883,4.775-10.658,10.658-10.658h32.402c2.936,0,5.611-1.191,7.534-3.114   c1.933-1.933,3.124-4.598,3.124-7.544c0-5.883-4.775-10.658-10.658-10.658h-9.049c-2.936,0-5.611-1.191-7.534-3.114   c-1.933-1.933-3.124-4.598-3.124-7.544c0-5.883,4.775-10.658,10.658-10.658h29.936c2.947,0,5.611-1.191,7.544-3.124   c1.923-1.933,3.114-4.587,3.114-7.534c0-5.883-4.765-10.658-10.658-10.658h-65.724c-2.947,0-5.601-1.191-7.534-3.124   c-1.933-1.933-3.124-4.587-3.124-7.534c0-5.883,4.775-10.658,10.658-10.658H498.5C507.256,199.555,512,227.224,512,256z"/>
	<path style="fill:#797B89;" d="M276.647,57.554L276.647,57.554c0-5.887-4.772-10.659-10.658-10.659h-89.817   c-5.886,0-10.658,4.772-10.658,10.658l0,0c0,5.886,4.772,10.658,10.658,10.658h29.052c5.886,0,10.658,4.772,10.658,10.658l0,0   c0,5.886-4.772,10.658-10.658,10.658h-2.962c-5.886,0-10.658,4.772-10.658,10.658l0,0c0,5.886,4.772,10.658,10.658,10.658h86.084   c5.887,0,10.658-4.772,10.658-10.658l0,0c0-5.886,4.772-10.658,10.658-10.658h2.962c5.886,0,10.658-4.772,10.658-10.658l0,0   c0-5.886-4.772-10.658-10.658-10.658h-25.318C281.419,68.212,276.647,63.441,276.647,57.554z"/>
	<path style="fill:#797B89;" d="M202.424,411.906L202.424,411.906c0-5.887,4.772-10.658,10.658-10.658h34.347   c5.887,0,10.658-4.772,10.658-10.658l0,0c0-5.887-4.772-10.658-10.658-10.658H146.174c-5.887,0-10.658,4.772-10.658,10.658l0,0   c0,5.887-4.772,10.658-10.658,10.658H90.511c-5.887,0-10.658,4.772-10.658,10.658l0,0c0,5.887,4.772,10.658,10.658,10.658h50.927   c5.887,0,10.658,4.772,10.658,10.658l0,0c0,5.887,4.772,10.658,10.658,10.658h101.255c5.886,0,10.658-4.772,10.658-10.658l0,0   c0-5.887-4.772-10.658-10.658-10.658h-50.927C207.196,422.564,202.424,417.793,202.424,411.906z"/>
	<path style="fill:#797B89;" d="M75.933,261.454c0,5.883-4.765,10.658-10.658,10.658H0.502C0.167,266.783,0,261.413,0,256   c0-8.955,0.46-17.805,1.358-26.52h42.611c5.883,0,10.648,4.775,10.648,10.658c0,2.936,1.191,5.611,3.124,7.534   c1.923,1.933,4.598,3.124,7.534,3.124c2.947,0,5.611,1.191,7.534,3.124C74.742,255.843,75.933,258.518,75.933,261.454z"/>
</g>
<path style="fill:#FFD15C;" d="M315.018,154.388v235.293H43.387V154.388c5.762-2.98,11.127-6.647,15.969-10.894  c16.772-14.677,27.351-36.232,27.351-60.255V9.098h34.347v59.207c0,16.062,6.507,30.599,17.028,41.121  c10.522,10.522,25.059,17.028,41.121,17.028c32.112,0,58.149-26.037,58.149-58.149V9.098h34.335v74.141  c0,24.698,11.197,46.788,28.783,61.478C304.939,148.44,309.815,151.687,315.018,154.388z"/>
<path style="fill:#EDBB4C;" d="M191.144,389.681H43.387V154.388c5.762-2.98,11.127-6.647,15.969-10.894  C59.356,143.494,53.805,375.982,191.144,389.681z"/>
<polygon style="fill:#FF525D;" points="157.78,170.6 230.718,170.6 193.472,253.625 229.165,253.625 145.365,339.754   161.659,254.401 136.829,254.401 "/>
<path style="fill:#EF4152;" d="M460.351,410.216c-3.365,4.451-6.875,8.798-10.522,13.019c-3.271,3.783-6.646,7.471-10.125,11.055  c-28.484,29.351-63.937,51.89-103.685,64.951l-16.112-58.807l-17.042,62.213c-40.532-2.351-78.806-13.072-113.131-30.48  c-3.877-1.944-7.701-3.981-11.473-6.123c-4.096-2.309-8.14-4.733-12.121-7.241l32.329-118l4.274-15.611l5.413-19.738  c73.153,20.052,150.35,20.052,223.493,0l5.235,19.08l4.451,16.238L460.351,410.216z"/>
<g>
	<path style="fill:#FFD15C;" d="M449.829,423.236c-3.271,3.783-6.646,7.471-10.125,11.055l-23.886-87.176l-3.73-13.615l12.236-3.333   l3.866,14.106L449.829,423.236z"/>
	<path style="fill:#FFD15C;" d="M227.71,333.505l-37.978,138.668c-3.872-1.948-7.699-3.988-11.468-6.131l37.217-135.88   L227.71,333.505z"/>
	<path style="fill:#FFD15C;" d="M441.332,340.778c-0.323,0.139-0.669,0.254-1.015,0.346c-39.384,10.8-79.898,16.194-120.412,16.194   s-81.039-5.394-120.423-16.194c-0.184-0.046-0.369-0.103-0.553-0.162l-0.461-0.162l4.276-15.606l1.279,0.449   c75.495,20.632,155.267,20.723,230.796,0.265l2.064-1.372L441.332,340.778z"/>
	<path style="fill:#FFD15C;" d="M464.753,99.412l10.468-10.464l29.35,10.866L470.9,170.091   c-3.755,7.844-11.677,12.833-20.373,12.833h-92.576c-8.796,0-15.928-7.132-15.928-15.928V52.161h30.682V41.989h61.366v10.172   h30.682L464.753,99.412L464.753,99.412z M441.421,162.672v-1.127c0-14.562-11.801-26.362-26.358-26.362h-17.009   c-14.556,0-26.362,11.801-26.362,26.362v1.127H441.421z"/>
</g>
<g>
	<path style="fill:#EDBB4C;" d="M368.295,76.037L368.295,76.037c2.436,0,4.409-1.974,4.409-4.409V52.161h-8.819v19.466   C363.886,74.063,365.86,76.037,368.295,76.037z"/>
	<path style="fill:#EDBB4C;" d="M429.661,65.865L429.661,65.865c2.436,0,4.409-1.974,4.409-4.409V41.989h-8.819v19.466   C425.252,63.891,427.225,65.865,429.661,65.865z"/>
	<path style="fill:#EDBB4C;" d="M399.182,65.954L399.182,65.954c2.436,0,4.409-1.974,4.409-4.409V42.078h-8.819v19.466   C394.773,63.98,396.747,65.954,399.182,65.954z"/>
	<path style="fill:#EDBB4C;" d="M460.817,130.372L460.817,130.372c2.173,0,3.935-1.762,3.935-3.935V52.161h-7.871v74.274   C456.882,128.61,458.643,130.372,460.817,130.372z"/>
	<path style="fill:#EDBB4C;" d="M365.714,85.441h-14.106c-2.452,0-4.441,1.988-4.441,4.441l0,0c0,2.452,1.988,4.441,4.441,4.441   h14.106c2.452,0,4.441-1.988,4.441-4.441l0,0C370.155,87.43,368.167,85.441,365.714,85.441z"/>
	<path style="fill:#EDBB4C;" d="M395.755,85.441h-14.106c-2.452,0-4.441,1.988-4.441,4.441l0,0c0,2.452,1.988,4.441,4.441,4.441   h14.106c2.452,0,4.441-1.988,4.441-4.441l0,0C400.196,87.43,398.207,85.441,395.755,85.441z"/>
	<path style="fill:#EDBB4C;" d="M426.318,85.441h-14.106c-2.452,0-4.441,1.988-4.441,4.441l0,0c0,2.452,1.988,4.441,4.441,4.441   h14.106c2.452,0,4.441-1.988,4.441-4.441l0,0C430.759,87.43,428.771,85.441,426.318,85.441z"/>
	<path style="fill:#EDBB4C;" d="M454.792,85.441h-14.106c-2.452,0-4.441,1.988-4.441,4.441l0,0c0,2.452,1.988,4.441,4.441,4.441   h14.106c2.452,0,4.441-1.988,4.441-4.441l0,0C459.233,87.43,457.244,85.441,454.792,85.441z"/>
</g>
<g>
</g>
<g>
</g>
<g>
</g>
<g>
</g>
<g>
</g>
<g>
</g>
<g>
</g>
<g>
</g>
<g>
</g>
<g>
</g>
<g>
</g>
<g>
</g>
<g>
</g>
<g>
</g>
<g>
</g>
</svg>
