<?xml version="1.0" encoding="iso-8859-1"?>
<!-- Generator: Adobe Illustrator 19.0.0, SVG Export Plug-In . SVG Version: 6.00 Build 0)  -->
<svg xmlns="http://www.w3.org/2000/svg" xmlns:xlink="http://www.w3.org/1999/xlink" version="1.1" id="Capa_1" x="0px" y="0px" viewBox="0 0 512 512" style="enable-background:new 0 0 512 512;" xml:space="preserve">
<path style="fill:#34ABE0;" d="M512,256c0,3.511-0.073,7.011-0.219,10.491c-0.627,15.809-2.696,31.242-6.081,46.184  C479.911,426.789,377.908,512,256,512C138.407,512,39.34,432.724,9.331,324.692c-0.731-2.623-1.421-5.256-2.058-7.92  C2.518,297.294,0,276.94,0,256c0-2.842,0.042-5.674,0.146-8.495C4.618,110.049,117.457,0,256,0  c92.306,0,173.202,48.849,218.248,122.128c20.114,32.726,33.081,70.343,36.707,110.644c0.146,1.599,0.272,3.197,0.376,4.807  C511.781,243.66,512,249.804,512,256z"/>
<g>
	<path style="fill:#78CAEF;" d="M511.331,237.578H379.455c-3.187,0-6.071-1.296-8.161-3.375c-2.09-2.09-3.385-4.984-3.385-8.171   c0-6.374,5.172-11.546,11.546-11.546h35.098c3.187,0,6.071-1.296,8.161-3.375c2.09-2.09,3.385-4.984,3.385-8.171   c0-6.374-5.172-11.546-11.546-11.546h-9.791c-3.187,0-6.081-1.296-8.171-3.375c-2.079-2.09-3.375-4.984-3.375-8.171   c0-6.374,5.162-11.546,11.546-11.546h32.423c3.187,0,6.071-1.296,8.161-3.375c2.09-2.09,3.385-4.974,3.385-8.161   c0-6.384-5.172-11.546-11.546-11.546h-71.199c-3.187,0-6.071-1.296-8.161-3.385s-3.385-4.974-3.385-8.161   c0-6.384,5.172-11.546,11.546-11.546h108.262c20.114,32.726,33.081,70.343,36.707,110.644   C511.101,234.371,511.227,235.969,511.331,237.578z"/>
	<path style="fill:#78CAEF;" d="M96.914,282.133v0.01c0,6.374-5.172,11.536-11.546,11.536H82.16c-3.187,0-6.071,1.296-8.161,3.385   c-2.09,2.09-3.385,4.974-3.385,8.161c0,6.384-5.172,11.546-11.546,11.546H7.273C2.518,297.294,0,276.94,0,256   c0-2.842,0.042-5.674,0.146-8.495h34.701c6.384,0,11.546,5.162,11.546,11.536v0.01c0,6.374,5.172,11.546,11.546,11.546h27.429   C91.742,270.597,96.914,275.759,96.914,282.133z"/>
	<path style="fill:#78CAEF;" d="M213.271,128.378L213.271,128.378c0-6.377,5.169-11.546,11.546-11.546h37.207   c6.377,0,11.546-5.169,11.546-11.546l0,0c0-6.377-5.169-11.546-11.546-11.546H152.337c-6.377,0-11.546,5.169-11.546,11.546l0,0   c0,6.377-5.169,11.546-11.546,11.546H92.038c-6.377,0-11.546,5.169-11.546,11.546l0,0c0,6.377,5.169,11.546,11.546,11.546h55.169   c6.377,0,11.546,5.169,11.546,11.546l0,0c0,6.377,5.169,11.546,11.546,11.546h109.687c6.377,0,11.546-5.169,11.546-11.546l0,0   c0-6.377-5.169-11.546-11.546-11.546h-55.169C218.44,139.923,213.271,134.754,213.271,128.378z"/>
</g>
<path style="fill:#FFD15C;" d="M512,256c0,46.435-12.361,89.987-33.98,127.53c-2.424,4.211-4.963,8.349-7.617,12.403  c-1.202,1.839-2.424,3.657-3.678,5.465c-7.576,10.971-15.997,21.326-25.161,30.96c-1.766,1.849-3.542,3.678-5.36,5.465  c-14.367,14.252-30.417,26.802-47.825,37.334c-1.128,0.69-2.267,1.369-3.417,2.027c-1.797,1.055-3.615,2.09-5.444,3.093  c-8.631,4.775-17.565,9.049-26.77,12.81c-13.218,5.402-26.99,9.728-41.211,12.863h-0.01c-15.569,3.459-31.671,5.486-48.17,5.945  c-2.445,0.073-4.89,0.104-7.356,0.104c-7.962,0-15.851-0.366-23.636-1.087c-1.515-0.136-3.03-0.282-4.545-0.449h-0.01  c-15.924-1.745-31.41-4.953-46.32-9.477c-2.173-0.658-4.336-1.348-6.489-2.079c-5.559-1.839-11.024-3.877-16.405-6.092  c-19.216-7.91-37.261-18.098-53.791-30.218c-4.399-3.218-8.694-6.583-12.873-10.073c-39.257-32.81-68.524-77.166-82.599-127.833  l65.494-65.494c3.333-3.333,6.949-6.196,10.783-8.589l0.063-0.031c9.77-6.092,20.908-9.143,32.037-9.143  c15.517,0,31.044,5.925,42.883,17.763c11.839,11.839,27.366,17.753,42.883,17.753s31.044-5.914,42.883-17.753  c9.927-9.927,20.595-18.641,31.828-26.154c23.813-15.956,50.176-26.499,77.364-31.64c25.704-4.869,52.151-4.911,77.866-0.104  c13.134,2.445,26.091,6.154,38.651,11.128c13.49,5.329,26.53,12.11,38.891,20.344C511.645,240.421,512,248.174,512,256z"/>
<g>
	<path style="fill:#FFDC8D;" d="M511.781,266.491c-0.627,15.809-2.696,31.242-6.081,46.184h-41.493   c-3.197,0-6.081-1.296-8.171-3.385c-2.09-2.09-3.375-4.974-3.375-8.161c0-6.374-5.172-11.546-11.546-11.546h-18.286   c-3.187,0-6.071-1.296-8.161-3.385c-2.09-2.09-3.385-4.974-3.385-8.161c0-6.374,5.172-11.546,11.546-11.546L511.781,266.491   L511.781,266.491z"/>
	<path style="fill:#FFDC8D;" d="M142.843,336.026v-0.001c0-6.376-5.169-11.545-11.545-11.545H21.61   c-6.376,0-11.545,5.169-11.545,11.545v0.001c0,6.376,5.169,11.545,11.545,11.545h18.282c6.376,0,11.545,5.169,11.545,11.545v0.001   c0,6.376,5.169,11.545,11.545,11.545h91.408c6.376,0,11.545-5.169,11.545-11.545v-0.001c0-6.376-5.169-11.545-11.545-11.545l0,0   C148.012,347.572,142.843,342.403,142.843,336.026z"/>
</g>
<path style="fill:#FFD15C;" d="M203.233,99.025c0,2.267-0.094,4.504-0.282,6.719c-0.063,0.752-0.136,1.494-0.219,2.236  c-4.441,40.229-38.546,71.502-79.956,71.502c-6.217,0-12.267-0.7-18.077-2.038c-31.911-7.325-56.571-33.614-61.482-66.372  c-0.596-3.929-0.899-7.952-0.899-12.048c0-41.409,31.274-75.515,71.502-79.956c2.936-0.334,5.925-0.502,8.955-0.502  c20.773,0,39.727,7.879,54,20.804C193.024,54.094,203.233,75.368,203.233,99.025z"/>
<g>
	<path style="fill:#EDBB4C;" d="M355.547,201.404c-18.369,6.353-35.85,14.932-50.845,25.213   c-25.318,17.345-55.495,47.626-55.495,93.403c0,11.086,1.181,21.619,2.32,31.796c2.654,23.688,5.162,46.07-9.968,64.731   c-18.244,22.518-59.779,36.665-136.756,46.049c-4.399-3.218-8.694-6.583-12.873-10.073c80.144-8.903,123.82-22.392,140.706-43.217   c12.1-14.921,10.052-33.144,7.471-56.205c-1.181-10.501-2.393-21.347-2.393-33.081c0-38.745,19.143-67.25,40.469-86.977   C301.996,217.088,328.359,206.545,355.547,201.404z"/>
	<path style="fill:#EDBB4C;" d="M472.064,212.428l-0.094,0.679l-5.695-0.794c-20.198-2.821-48.985,1.578-76.999,11.766   c-31.629,11.494-58.88,29.038-76.737,49.392c-23.082,26.331-30.271,56.048-21.347,88.346c1.087,3.918,2.194,7.784,3.291,11.577   c8.38,29.079,16.3,56.55,0.648,79.59c-9.624,14.169-27.449,25.37-54.523,34.252c-16.123,5.287-35.694,9.853-59.12,13.751   c-7.795-2.372-15.433-5.099-22.894-8.171c71.68-9.843,112.421-24.785,127.028-46.289c12.622-18.589,5.757-42.381-2.184-69.945   c-1.108-3.835-2.226-7.743-3.323-11.703c-9.885-35.756-1.651-69.977,23.782-98.983c31.42-35.819,85.713-58.974,129.515-64.596   C446.548,203.745,459.504,207.454,472.064,212.428z"/>
	<path style="fill:#EDBB4C;" d="M227.809,510.464c-15.924-1.745-31.41-4.953-46.32-9.477c-7.795-2.372-15.433-5.099-22.894-8.171   c-19.216-7.91-37.261-18.098-53.791-30.218c-4.399-3.218-8.694-6.583-12.873-10.073c-39.257-32.81-68.524-77.166-82.599-127.833   l65.494-65.494c3.333-3.333,6.949-6.196,10.783-8.589l0.063-0.031C74.825,259.197-1.682,442.107,227.809,510.464z"/>
</g>
<path style="fill:#FCF8F2;" d="M370.483,54.783L370.483,54.783c0-3.684-2.986-6.671-6.67-6.671h-63.368  c-3.683,0-6.67,2.986-6.67,6.67v0.001c0,3.683,2.986,6.67,6.67,6.67h10.561c3.683,0,6.67,2.986,6.67,6.67v0.001  c0,3.683,2.986,6.67,6.67,6.67h52.806c3.683,0,6.67-2.986,6.67-6.67v-0.001c0-3.683-2.986-6.67-6.67-6.67l0,0  C373.47,61.453,370.483,58.466,370.483,54.783z"/>
<path style="fill:#EF4152;" d="M421.044,317.914H259.533c-5.185,0-9.772,3.358-11.337,8.302l-14.004,44.216h212.192l-14.004-44.216  C430.816,321.274,426.229,317.914,421.044,317.914z"/>
<polygon style="fill:#F9EED7;" points="422.726,330.664 257.851,330.664 242.524,383.181 438.053,383.181 "/>
<g>
	<path style="fill:#5C5E70;" d="M232.364,440.55v70.363c-1.515-0.136-3.03-0.282-4.545-0.449h-0.01   c-15.924-1.745-31.41-4.953-46.32-9.477c-2.173-0.658-4.336-1.348-6.489-2.079V440.55H232.364z"/>
	<path style="fill:#5C5E70;" d="M388.378,475.157c-1.128,0.69-2.267,1.369-3.417,2.027c-1.797,1.055-3.615,2.09-5.444,3.093   c-8.631,4.775-17.565,9.049-26.77,12.81c-13.218,5.402-26.99,9.728-41.211,12.863h-0.01c-15.569,3.459-31.671,5.486-48.17,5.945   l-5.611-18.808l-5.339-17.93H388.378z"/>
</g>
<path style="fill:#494B5B;" d="M174.995,440.555h57.373v63.457c-9.89-12.167-30.909-21.857-57.373-26.483V440.555z"/>
<path style="fill:#FF525D;" d="M478.02,383.53c-2.424,4.211-4.963,8.349-7.617,12.403c-1.202,1.839-2.424,3.657-3.678,5.465  c-7.576,10.971-15.997,21.326-25.161,30.96c-1.766,1.849-3.542,3.678-5.36,5.465c-14.367,14.252-30.417,26.802-47.825,37.334  c-1.128,0.69-2.267,1.369-3.417,2.027c-1.797,1.055-3.615,2.09-5.444,3.093c-8.631,4.775-17.565,9.049-26.77,12.81H251.35  c-1.63,0-3.218-0.251-4.723-0.7c-0.376-0.125-0.742-0.251-1.108-0.387c-0.178-0.073-0.355-0.146-0.543-0.219  c-1.975-0.846-3.772-2.079-5.298-3.615c-0.282-0.282-0.554-0.564-0.815-0.867c-0.522-0.596-1.003-1.223-1.442-1.891v-0.01  c-0.449-0.669-0.846-1.369-1.202-2.1c-0.993-2.048-2.278-4.054-3.856-5.987c-0.512-0.627-1.045-1.243-1.609-1.86  c-0.418-0.46-0.857-0.909-1.317-1.358c-0.219-0.23-0.46-0.449-0.69-0.669c-0.031-0.031-0.052-0.052-0.073-0.073  c-0.408-0.376-0.815-0.752-1.243-1.118c-0.115-0.104-0.23-0.199-0.345-0.303c-0.272-0.23-0.543-0.46-0.825-0.7  c-11.212-9.289-29.362-16.583-51.263-20.396c-1.755-0.313-3.542-0.606-5.35-0.867c-8.035-1.17-12.79-9.603-9.55-17.042  l16.896-38.808l57.198-23.688H446.38L478.02,383.53z"/>
<path style="fill:#EF4152;" d="M179.323,428.379v-23.004c0-5.216,4.228-9.444,9.444-9.444h56.7c5.216,0,9.444,4.229,9.444,9.444  v23.004c0,5.216-4.228,9.444-9.444,9.444h-56.7C183.551,437.823,179.323,433.595,179.323,428.379z"/>
<path style="fill:#F9EED7;" d="M243.137,401.395h-52.041c-3.485,0-6.309,2.824-6.309,6.309v18.345c0,3.485,2.824,6.309,6.309,6.309  h52.041c3.485,0,6.309-2.824,6.309-6.309v-18.345C249.446,404.22,246.622,401.395,243.137,401.395z"/>
<path style="fill:#EF4152;" d="M470.403,395.933c-1.202,1.839-2.424,3.657-3.678,5.465c-7.576,10.971-15.997,21.326-25.161,30.96  c-1.766,1.849-3.542,3.678-5.36,5.465h-1.097c-5.214,0-9.435-4.232-9.435-9.446v-22.998c0-5.225,4.221-9.446,9.435-9.446H470.403z"/>
<path style="fill:#F9EED7;" d="M466.725,401.398c-7.576,10.971-15.997,21.326-25.161,30.96h-4.127c-3.479,0-6.301-2.821-6.301-6.311  v-18.338c0-3.49,2.821-6.311,6.301-6.311H466.725z"/>
<g>
	<rect x="277.452" y="397.751" style="fill:#5C5E70;" width="13.657" height="52.821"/>
	<rect x="361.462" y="397.751" style="fill:#5C5E70;" width="13.657" height="52.821"/>
	<rect x="333.458" y="397.751" style="fill:#5C5E70;" width="13.657" height="52.821"/>
	<rect x="305.455" y="397.751" style="fill:#5C5E70;" width="13.657" height="52.821"/>
	<rect x="389.465" y="397.751" style="fill:#5C5E70;" width="13.657" height="52.821"/>
</g>
<circle style="fill:#FCF8F2;" cx="234.538" cy="415.66" r="7.589"/>
<path style="fill:#494B5B;" d="M379.517,480.277c-8.631,4.775-17.565,9.049-26.77,12.81c-13.218,5.402-26.99,9.728-41.211,12.863  h-0.01c-33.667-5.789-53.781-12.863-53.781-12.863L379.517,480.277z"/>
<path style="fill:#EF4152;" d="M340.281,478.187c15.276,0,30.218-0.345,44.68-1.003c-1.797,1.055-3.615,2.09-5.444,3.093  c-8.631,4.775-17.565,9.049-26.77,12.81H251.35c-1.63,0-3.218-0.251-4.723-0.7c-0.376-0.125-0.742-0.251-1.108-0.387  c-0.178-0.073-0.355-0.146-0.543-0.219c-1.975-0.846-3.772-2.079-5.298-3.615c-0.282-0.282-0.554-0.564-0.815-0.867  c-0.512-0.596-0.993-1.233-1.442-1.891c0.01-0.01,0-0.01,0-0.01c-0.439-0.669-0.836-1.379-1.191-2.111  c-0.982-2.058-2.278-4.065-3.866-5.998c-0.502-0.616-1.034-1.233-1.609-1.839c-0.418-0.46-0.857-0.909-1.317-1.358  c-0.219-0.23-0.46-0.449-0.69-0.669c-0.031-0.031-0.052-0.052-0.073-0.073c-0.408-0.376-0.815-0.752-1.243-1.118  c-0.115-0.104-0.23-0.199-0.345-0.303c-0.272-0.23-0.543-0.46-0.825-0.7c2.017,0.261,4.044,0.522,6.102,0.773  c9.968,1.212,20.376,2.278,31.138,3.156C287.535,477.121,313.386,478.187,340.281,478.187z"/>
<path style="fill:#FCF8F2;" d="M411.765,354.343h-39.843c-2.578,0-4.668-2.09-4.668-4.668v-7.058c0-2.578,2.09-4.668,4.668-4.668  h39.843c2.578,0,4.668,2.09,4.668,4.668v7.058C416.433,352.253,414.343,354.343,411.765,354.343z"/>
<path style="fill:#FF6E7C;" d="M458.708,391.377h-33.776c-3.353,0-6.071-2.718-6.071-6.071l0,0c0-3.353,2.718-6.071,6.071-6.071  h13.919c4.029,0,8.008,0.88,11.661,2.579l9.349,4.348C462.517,387.397,461.637,391.377,458.708,391.377z"/>
<g>
	<path style="fill:#FFDC8D;" d="M141.667,144.259c0,6.113-4.953,11.065-11.055,11.065h-3.082c-3.051,0-5.82,1.233-7.816,3.239   c-1.996,2.006-3.239,4.765-3.239,7.816c0,6.113-4.953,11.065-11.065,11.065h-0.711c-31.911-7.325-56.571-33.614-61.482-66.372   h38.996c6.102,0,11.055,4.953,11.055,11.065c0,6.102,4.953,11.055,11.065,11.055h26.279c3.051,0,5.81,1.233,7.816,3.239   C140.434,138.439,141.667,141.197,141.667,144.259z"/>
	<path style="fill:#FFDC8D;" d="M203.233,99.025c0,2.267-0.094,4.504-0.282,6.719h-19.592c-3.051,0-5.82-1.243-7.826-3.239   c-1.996-2.006-3.239-4.775-3.239-7.826c0-6.113-4.953-11.065-11.055-11.065h-52.861c-3.051,0-5.81-1.243-7.816-3.239   c-2.006-1.996-3.239-4.765-3.239-7.816c0-6.113,4.953-11.065,11.055-11.065h35.652c3.051,0,5.81-1.233,7.816-3.239   c2.006-2.006,3.239-4.765,3.239-7.826c0-6.102,4.953-11.055,11.065-11.055h10.627C193.024,54.094,203.233,75.368,203.233,99.025z"/>
</g>
<g>
</g>
<g>
</g>
<g>
</g>
<g>
</g>
<g>
</g>
<g>
</g>
<g>
</g>
<g>
</g>
<g>
</g>
<g>
</g>
<g>
</g>
<g>
</g>
<g>
</g>
<g>
</g>
<g>
</g>
</svg>
