<?xml version="1.0" encoding="iso-8859-1"?>
<!-- Generator: Adobe Illustrator 19.0.0, SVG Export Plug-In . SVG Version: 6.00 Build 0)  -->
<svg xmlns="http://www.w3.org/2000/svg" xmlns:xlink="http://www.w3.org/1999/xlink" version="1.1" id="Capa_1" x="0px" y="0px" viewBox="0 0 512 512" style="enable-background:new 0 0 512 512;" xml:space="preserve">
<path style="fill:#34ABE0;" d="M512,256c0,38.327-8.422,74.7-23.521,107.342c0,0.01-0.01,0.01-0.01,0.01  c-2.55,5.517-5.298,10.93-8.223,16.227c-6.384,11.567-13.636,22.58-21.671,32.967C411.752,473.046,338.422,512,256,512  c-74.553,0-141.667-31.869-188.447-82.735c-8.767-9.519-16.812-19.696-24.054-30.469C16.029,358.003,0,308.872,0,256  C0,114.615,114.615,0,256,0S512,114.615,512,256z"/>
<g>
	<path style="fill:#78CAEF;" d="M293.345,448.073c0,10.386-8.422,18.808-18.808,18.808H125.649c-5.193,0-9.895-2.1-13.302-5.507   s-5.507-8.108-5.507-13.302c0-10.386-8.422-18.808-18.808-18.808h-20.48c-8.767-9.519-16.812-19.696-24.054-30.469   c3.448-4.357,8.777-7.147,14.754-7.147H236.92c10.397,0,18.808,8.422,18.808,18.808c0,5.193,2.111,9.895,5.507,13.302   c3.406,3.406,8.108,5.507,13.302,5.507s9.895,2.1,13.302,5.507C291.234,438.178,293.345,442.88,293.345,448.073z"/>
	<path style="fill:#78CAEF;" d="M496.683,182.412L496.683,182.412c0-10.387-8.42-18.807-18.807-18.807h-6.269   c-10.387,0-18.807-8.42-18.807-18.807l0,0c0-10.387-8.42-18.807-18.807-18.807H145.615c-10.387,0-18.807,8.42-18.807,18.807l0,0   c0,10.387,8.42,18.807,18.807,18.807h115.978c10.387,0,18.807,8.42,18.807,18.807l0,0c0,10.387-8.42,18.807-18.807,18.807h-52.823   c-10.387,0-18.807,8.42-18.807,18.807l0,0c0,10.387,8.42,18.807,18.807,18.807h15.957c10.387,0,18.807,8.42,18.807,18.807l0,0   c0,10.387-8.42,18.807-18.807,18.807h-57.172c-10.387,0-18.807,8.42-18.807,18.807l0,0c0,10.387,8.42,18.807,18.807,18.807h270.857   c10.387,0,18.807-8.42,18.807-18.807l0,0c0-10.387,8.42-18.807,18.807-18.807h1.847c10.387,0,18.807-8.42,18.807-18.807l0,0   c0-10.387-8.42-18.807-18.807-18.807h-34.48c-10.387,0-18.807-8.42-18.807-18.807l0,0c0-10.387,8.42-18.807,18.807-18.807h34.48   C488.263,201.219,496.683,192.798,496.683,182.412z"/>
</g>
<g>
	<path style="fill:#FFD15C;" d="M154.164,314.169c-5.37,0-10.609-1.943-14.768-5.619L71.7,248.701l9.766-11.046l67.697,59.848   c1.972,1.743,4.659,2.344,7.186,1.605l50.884-14.874c3.229-0.944,5.483-3.952,5.483-7.315V222.83h14.745v54.089   c0,9.87-6.616,18.697-16.09,21.466l-50.884,14.874C158.396,313.871,156.271,314.169,154.164,314.169z"/>
	<path style="fill:#FFD15C;" d="M194.046,338.07c-3.114,0-6.007-1.988-7.014-5.112l-10.145-31.466   c-1.25-3.874,0.88-8.029,4.754-9.279c3.874-1.247,8.029,0.88,9.279,4.754l10.145,31.466c1.25,3.874-0.88,8.029-4.754,9.279   C195.558,337.954,194.795,338.07,194.046,338.07z"/>
</g>
<path style="fill:#FF525D;" d="M321.616,146.04c-0.476,10.366-9.016,18.521-19.394,18.521H247.93l-8.574,54.009  c-1.225,7.757-7.916,13.462-15.754,13.462h-13.553c-6.816,0-12.873-4.322-15.084-10.763l-14.596-42.315  c-1.871-5.41-6.964-9.039-12.68-9.039h-37.189c-6.43,0-11.954,4.57-13.168,10.888l-9.754,50.845  c-1.916,10.026-9.493,18.033-19.394,20.506l-11.126,2.79l-21.425,5.353c-0.874-0.726-1.747-1.463-2.608-2.201  C-2.935,210.029-10.012,128.12,31.249,70.198c3.629-5.115,7.656-10.037,12.056-14.745c1.736-1.86,3.528-3.686,5.387-5.467  C79.394,20.466,121.12,2.32,167.076,2.32c49.983,0,97.538,17.171,127.741,53.135c3.867,4.605,7.451,9.516,10.717,14.745  c3.073,4.911,5.875,10.094,8.359,15.561c0.272,0.612,1.803,4.367,2.155,5.682c3.766,13.735,5.773,28.206,5.773,43.132  C321.821,135.266,321.889,140.154,321.616,146.04z"/>
<path style="fill:#EF4152;" d="M100.212,70.199c3.629-5.115,7.656-10.037,12.056-14.745c1.736-1.86,3.528-3.686,5.387-5.467  c23.218-22.325,52.741-38.138,85.629-44.524c-11.776-2.1-23.918-3.145-36.209-3.145c-45.957,0-87.682,18.147-118.384,47.668  c-1.86,1.781-3.652,3.607-5.387,5.467c-4.4,4.706-8.427,9.629-12.056,14.745c-41.261,57.922-34.184,139.83,21.776,187.897  c0.862,0.738,1.736,1.474,2.608,2.201l21.425-5.353l11.126-2.79c6.941-1.733,12.731-6.193,16.238-12.156  C65.045,191.257,63.761,121.37,100.212,70.199z"/>
<path style="fill:#FFD15C;" d="M305.539,70.196H31.253c3.626-5.11,7.649-10.031,12.048-14.744h251.517  C298.684,60.061,302.268,64.972,305.539,70.196z"/>
<g>
	<path style="fill:#5C5E70;" d="M116.746,145.778c-4.06,0-7.358-3.284-7.372-7.348l-0.085-25.65   c-0.014-4.072,3.276-7.383,7.348-7.397c0.008,0,0.017,0,0.025,0c4.06,0,7.358,3.284,7.372,7.348l0.085,25.65   c0.014,4.072-3.276,7.383-7.348,7.397C116.763,145.778,116.755,145.778,116.746,145.778z"/>
	<path style="fill:#5C5E70;" d="M144.422,145.687c-4.06,0-7.358-3.284-7.372-7.348l-0.085-25.651   c-0.014-4.072,3.276-7.383,7.348-7.397c0.008,0,0.017,0,0.025,0c4.06,0,7.358,3.284,7.372,7.348l0.085,25.651   c0.014,4.071-3.276,7.383-7.348,7.397C144.438,145.687,144.43,145.687,144.422,145.687z"/>
	<path style="fill:#5C5E70;" d="M172.098,145.596c-4.06,0-7.358-3.284-7.372-7.348l-0.085-25.65   c-0.014-4.072,3.276-7.383,7.348-7.397c0.008,0,0.017,0,0.025,0c4.06,0,7.358,3.284,7.372,7.348l0.085,25.65   c0.014,4.071-3.276,7.383-7.348,7.397C172.115,145.596,172.106,145.596,172.098,145.596z"/>
</g>
<circle style="fill:#FF6E7C;" cx="247.38" cy="68.984" r="19.592"/>
<path style="fill:#FFDC8D;" d="M266.971,68.984c0,0.408-0.01,0.805-0.042,1.212h-39.1c-0.031-0.408-0.042-0.805-0.042-1.212  c0-5.256,2.069-10.021,5.423-13.531h28.338C264.903,58.964,266.971,63.728,266.971,68.984z"/>
<circle style="fill:#FF6E7C;" cx="224.653" cy="40.336" r="8.359"/>
<path style="fill:#F9EED7;" d="M489.232,364.763c-0.261-0.47-0.512-0.94-0.763-1.411c-2.55,5.517-5.298,10.93-8.223,16.227  c-6.384,11.567-13.636,22.58-21.671,32.967c-9.017,0.92-18.056,1.714-27.094,2.372c-9.08,0.679-18.16,1.212-27.251,1.63  c-17.857,0.805-35.736,1.118-53.603,0.94c-12.936-0.136-25.872-0.533-38.797-1.181c-7.92-0.397-15.841-0.899-23.751-1.494  c-7.858-0.585-15.715-1.264-23.562-2.048c-18.557-1.849-37.083-4.232-55.536-7.158c9.707-8.537,19.184-17.209,28.411-26.028  c3.459-3.291,6.875-6.604,10.261-9.937l62.84-2.853l18.129-0.825v15.977c0,4.786,2.341,9.028,5.945,11.63  c2.361,1.714,5.266,2.727,8.411,2.727h75.776c3.208,0,6.165-1.045,8.547-2.821l0.042-0.031c1.108-0.825,2.09-1.808,2.915-2.915  l0.031-0.042c1.776-2.382,2.821-5.339,2.821-8.547v-20.72l27.7-1.254l25.245-1.149c0.178,0.334,0.355,0.658,0.533,0.993  c0.627,1.181,1.254,2.351,1.891,3.532C488.72,363.813,488.97,364.293,489.232,364.763z"/>
<path style="fill:#5C5E70;" d="M466.502,368.88h-217.61c-12.664,0-22.925-10.261-22.925-22.915c0-1.003,0.021-2.006,0.073-2.999  c0.763-14.691,7.032-27.93,16.781-37.689c10.125-10.115,23.991-16.488,39.34-16.833c0.449-0.021,0.899-0.021,1.348-0.021h15.12  c0.899,0,1.797-0.021,2.685-0.052c0.792-0.028,1.58-0.07,2.366-0.123c17.041-1.162,32.895-9.162,44.527-21.67l4.173-4.488  c11.611-12.487,18.202-28.821,18.506-45.869l0.415-23.219v-0.345c0-25.673,24.555-44.231,49.257-37.209l63.498,18.035v87.782  l2.706,27.93l5.016,51.848C493.22,355.965,481.496,368.88,466.502,368.88z"/>
<g>
	<path style="fill:#FCF8F2;" d="M328.617,365.965v8.307l-40.542,40.542c-7.858-0.585-15.715-1.264-23.562-2.048l45.976-45.975   L328.617,365.965z"/>
	<path style="fill:#FCF8F2;" d="M486.585,359.811l-55.108,55.108c-9.08,0.679-18.16,1.212-27.251,1.63l23.071-23.071l0.042-0.031   l2.915-2.915l0.031-0.042l30.521-30.521l25.245-1.149C486.23,359.152,486.407,359.476,486.585,359.811z"/>
	<path style="fill:#FCF8F2;" d="M371.803,396.298l-21.18,21.191c-12.936-0.136-25.872-0.533-38.797-1.181l22.737-22.737   c2.361,1.714,5.266,2.727,8.411,2.727L371.803,396.298L371.803,396.298z"/>
</g>
<g>
	<path style="fill:#797B89;" d="M370.518,367.188c-0.825,0.825-1.797,1.39-2.842,1.693c-0.637,0.199-1.306,0.293-1.964,0.293   s-1.327-0.094-1.964-0.293c-1.045-0.303-2.017-0.867-2.842-1.693l-78.743-78.744c0.449-0.021,0.899-0.021,1.348-0.021h15.12   c0.899,0,1.797-0.021,2.685-0.052l69.204,69.204C373.161,360.229,373.161,364.534,370.518,367.188z"/>
	<path style="fill:#797B89;" d="M484.056,202.93v13.584h-97.97c-3.751,0-6.792-3.041-6.792-6.792s3.041-6.792,6.792-6.792H484.056z"/>
</g>
<path style="fill:#E8DBC4;" d="M488.469,363.353c-2.55,5.517-5.298,10.93-8.223,16.227H433.11v-18.359l27.7-1.254l25.245-1.149  c0.178,0.334,0.355,0.658,0.533,0.993C487.205,360.991,487.842,362.172,488.469,363.353z"/>
<path style="fill:#FF525D;" d="M466.502,368.88h-217.61c-12.664,0-22.925-10.261-22.925-22.915c0-1.003,0.021-2.006,0.073-2.999  l4.42,0.564h105.127c30.532,0,60.207-11.463,81.868-32.977c13.427-13.333,31.869-21.358,51.796-21.358h17.513l5.016,51.848  C493.22,355.965,481.496,368.88,466.502,368.88z"/>
<path style="fill:#E8DBC4;" d="M247.648,369.643l80.969-3.678v13.615h-91.23C240.846,376.289,244.263,372.976,247.648,369.643z"/>
<path style="fill:#EF4152;" d="M491.588,339.078c-1.881,12.033-12.288,21.443-25.086,21.443h-217.61  c-10.79,0-19.829-7.45-22.271-17.48l-0.581-0.074c-0.052,0.993-0.073,1.996-0.073,2.999c0,12.654,10.261,22.915,22.925,22.915  h217.61c14.994,0,26.718-12.915,25.276-27.836L491.588,339.078z"/>
<path style="fill:#797B89;" d="M460.797,277.18L460.797,277.18c-5.483,0-9.927-4.444-9.927-9.927v-26.122  c0-5.483,4.444-9.927,9.927-9.927l0,0c5.483,0,9.927,4.444,9.927,9.927v26.122C470.723,272.736,466.279,277.18,460.797,277.18z"/>
<path style="fill:#FF6E7C;" d="M460.797,349.278L460.797,349.278c-5.483,0-9.927-4.444-9.927-9.927v-26.122  c0-5.483,4.444-9.927,9.927-9.927l0,0c5.483,0,9.927,4.444,9.927,9.927v26.122C470.723,344.834,466.279,349.278,460.797,349.278z"/>
<g>
	<path style="fill:#F9EED7;" d="M391.309,246.357c-0.576,0-1.161-0.107-1.729-0.331l-25.078-9.927   c-2.415-0.956-3.597-3.687-2.642-6.102c0.956-2.415,3.686-3.599,6.102-2.641l25.078,9.927c2.415,0.956,3.597,3.687,2.642,6.102   C394.952,245.23,393.181,246.357,391.309,246.357z"/>
	<path style="fill:#F9EED7;" d="M373.543,268.299c-0.885,0-1.781-0.25-2.576-0.771l-17.511-11.494   c-2.171-1.425-2.776-4.341-1.351-6.511c1.425-2.171,4.34-2.775,6.511-1.351l17.511,11.494c2.171,1.425,2.776,4.341,1.351,6.511   C376.576,267.552,375.074,268.299,373.543,268.299z"/>
	<path style="fill:#F9EED7;" d="M355.788,290.242c-1.435,0-2.85-0.654-3.773-1.892l-13.584-18.224   c-1.552-2.082-1.122-5.028,0.959-6.58c2.082-1.553,5.029-1.122,6.58,0.959l13.584,18.224c1.552,2.082,1.122,5.028-0.959,6.58   C357.751,289.938,356.765,290.242,355.788,290.242z"/>
	<path style="fill:#F9EED7;" d="M333.844,301.736c-1.812,0-3.538-1.052-4.31-2.818l-7.314-16.718   c-1.041-2.379,0.044-5.151,2.423-6.192c2.38-1.041,5.151,0.044,6.192,2.423l7.314,16.718c1.041,2.379-0.044,5.151-2.423,6.192   C335.113,301.609,334.473,301.736,333.844,301.736z"/>
	<path style="fill:#F9EED7;" d="M307.192,306.438c-2.17,0-4.12-1.511-4.593-3.718l-3.135-14.629   c-0.544-2.539,1.073-5.038,3.612-5.583c2.542-0.548,5.04,1.073,5.583,3.612l3.135,14.629c0.544,2.539-1.073,5.039-3.612,5.583   C307.85,306.404,307.518,306.438,307.192,306.438z"/>
	<path style="fill:#F9EED7;" d="M396.013,213.964c-2.559,0-4.695-2.145-4.702-4.702c-0.007-2.497,2.061-4.625,4.551-4.692   c2.491-0.067,4.653,1.859,4.841,4.354C400.904,211.6,398.69,213.964,396.013,213.964z"/>
	<path style="fill:#F9EED7;" d="M396.013,195.678c-2.559,0-4.695-2.145-4.702-4.702c-0.007-2.499,2.061-4.622,4.551-4.696   c2.49-0.074,4.652,1.87,4.841,4.357C400.905,193.317,398.692,195.678,396.013,195.678z"/>
</g>
<path style="fill:#494B5B;" d="M105.17,396.539c0,21.64,17.542,39.182,39.182,39.182s39.182-17.542,39.182-39.182v-20.374H105.17  V396.539z"/>
<circle style="fill:#5C5E70;" cx="144.353" cy="376.163" r="39.182"/>
<g>
</g>
<g>
</g>
<g>
</g>
<g>
</g>
<g>
</g>
<g>
</g>
<g>
</g>
<g>
</g>
<g>
</g>
<g>
</g>
<g>
</g>
<g>
</g>
<g>
</g>
<g>
</g>
<g>
</g>
</svg>
