<?xml version="1.0" encoding="iso-8859-1"?>
<!-- Generator: Adobe Illustrator 19.0.0, SVG Export Plug-In . SVG Version: 6.00 Build 0)  -->
<svg xmlns="http://www.w3.org/2000/svg" xmlns:xlink="http://www.w3.org/1999/xlink" version="1.1" id="Capa_1" x="0px" y="0px" viewBox="0 0 512 512" style="enable-background:new 0 0 512 512;" xml:space="preserve">
<path style="fill:#F4A14E;" d="M511.092,256c0,10.818-0.677,21.48-1.978,31.943c-6.976,55.807-31.975,106.013-68.989,144.599  c-9.933,10.36-20.73,19.876-32.277,28.455c-34.088,25.28-74.694,42.272-118.84,47.967c-7.58,0.989-15.264,1.635-23.031,1.926  c-3.311,0.135-6.632,0.198-9.975,0.198s-6.674-0.062-9.985-0.198c-7.767-0.302-15.451-0.947-23.02-1.926  c-44.156-5.706-84.762-22.687-118.851-47.978c-11.547-8.569-22.344-18.085-32.277-28.445C27.922,386.71,0.914,324.51,0.914,256  c0-87.876,44.438-165.381,112.073-211.255c11.286-7.653,23.218-14.431,35.702-20.23c32.62-15.149,68.978-23.604,107.314-23.604  c131.168,0,239.211,99.006,253.486,226.363C510.551,236.707,511.092,246.286,511.092,256z"/>
<g>
	<path style="fill:#F9AF6B;" d="M464.064,145.212L464.064,145.212c0-5.585-4.527-10.112-10.112-10.112h-3.37   c-5.585,0-10.112-4.527-10.112-10.112l0,0c0-5.585-4.527-10.112-10.112-10.112H275.314c-5.585,0-10.112,4.527-10.112,10.112l0,0   c0,5.585,4.527,10.112,10.112,10.112h62.355c5.585,0,10.112,4.527,10.112,10.112l0,0c0,5.585-4.527,10.112-10.112,10.112H309.27   c-5.585,0-10.112,4.527-10.112,10.112l0,0c0,5.585,4.527,10.112,10.112,10.112h8.579c5.585,0,10.112,4.527,10.112,10.112l0,0   c0,5.585-4.527,10.112-10.112,10.112h-30.738c-5.585,0-10.112,4.527-10.112,10.112l0,0c0,5.585,4.527,10.112,10.112,10.112h145.626   c5.585,0,10.112-4.527,10.112-10.112l0,0c0-5.585,4.527-10.112,10.112-10.112h0.993c5.585,0,10.112-4.527,10.112-10.112l0,0   c0-5.585-4.527-10.112-10.112-10.112h-18.538c-5.585,0-10.112-4.527-10.112-10.112l0,0c0-5.585,4.527-10.112,10.112-10.112h18.538   C459.537,155.324,464.064,150.797,464.064,145.212z"/>
	<path style="fill:#F9AF6B;" d="M163.305,291.009L163.305,291.009c0-5.585-4.527-10.112-10.112-10.112h-85.21   c-5.585,0-10.112,4.527-10.112,10.112l0,0c0,5.585,4.527,10.112,10.112,10.112h27.562c5.585,0,10.112,4.527,10.112,10.112l0,0   c0,5.585-4.527,10.112-10.112,10.112h-2.81c-5.585,0-10.112,4.527-10.112,10.112l0,0c0,5.585,4.527,10.112,10.112,10.112h81.668   c5.585,0,10.112-4.527,10.112-10.112l0,0c0-5.585,4.527-10.112,10.112-10.112h2.81c5.585,0,10.112-4.527,10.112-10.112l0,0   c0-5.585-4.527-10.112-10.112-10.112h-24.02C167.832,301.121,163.305,296.593,163.305,291.009z"/>
	<path style="fill:#F9AF6B;" d="M270.962,450.223L270.962,450.223c0-5.585,4.527-10.112,10.112-10.112h32.585   c5.585,0,10.112-4.527,10.112-10.112l0,0c0-5.585-4.527-10.112-10.112-10.112h-96.06c-5.585,0-10.112,4.527-10.112,10.112l0,0   c0,5.585-4.527,10.112-10.112,10.112H164.79c-5.585,0-10.112,4.527-10.112,10.112l0,0c0,5.585,4.527,10.112,10.112,10.112h48.315   c5.585,0,10.112,4.527,10.112,10.112l0,0c0,5.585,4.527,10.112,10.112,10.112h96.06c5.585,0,10.112-4.527,10.112-10.112l0,0   c0-5.585-4.527-10.112-10.112-10.112h-48.315C275.489,460.335,270.962,455.807,270.962,450.223z"/>
	<path style="fill:#F9AF6B;" d="M511.092,256c0,10.818-0.677,21.48-1.978,31.943h-1.957c-2.79,0-5.32-1.135-7.142-2.967   c-1.832-1.832-2.967-4.352-2.967-7.153c0-5.581-4.529-10.11-10.11-10.11h-48.321c-2.79,0-5.32-1.135-7.153-2.957   c-1.822-1.832-2.957-4.363-2.957-7.153c0-5.581,4.529-10.11,10.11-10.11h32.589c2.79,0,5.32-1.135,7.153-2.957   c1.822-1.832,2.957-4.363,2.957-7.153c0-5.591,4.529-10.11,10.11-10.11h18.064C510.551,236.707,511.092,246.286,511.092,256z"/>
	<path style="fill:#F9AF6B;" d="M204.902,34.635c0,5.581-4.529,10.11-10.11,10.11h-81.805c11.286-7.653,23.218-14.431,35.702-20.23   h46.103c2.79,0,5.32,1.135,7.153,2.967C203.767,29.304,204.902,31.844,204.902,34.635z"/>
	<path style="fill:#F9AF6B;" d="M408.862,309.478L408.862,309.478c0-5.585-4.527-10.112-10.111-10.112H302.69   c-5.584,0-10.111,4.527-10.111,10.111v0.001c0,5.584,4.527,10.111,10.111,10.111h16.01c5.584,0,10.111,4.527,10.111,10.111v0.001   c0,5.584,4.527,10.111,10.111,10.111h80.051c5.584,0,10.111-4.527,10.111-10.111V329.7c0-5.584-4.527-10.111-10.111-10.111l0,0   C413.389,319.59,408.862,315.063,408.862,309.478z"/>
	<path style="fill:#F9AF6B;" d="M170.432,151.219L170.432,151.219c0-5.585-4.527-10.112-10.111-10.112H64.26   c-5.584,0-10.111,4.527-10.111,10.111v0.001c0,5.584,4.527,10.111,10.111,10.111h16.01c5.584,0,10.111,4.527,10.111,10.111v0.001   c0,5.584,4.527,10.111,10.111,10.111h80.051c5.584,0,10.111-4.527,10.111-10.111v-0.001c0-5.584-4.527-10.111-10.111-10.111l0,0   C174.959,161.331,170.432,156.804,170.432,151.219z"/>
</g>
<polygon style="fill:#FFD15C;" points="257.197,0.911 271.277,29.44 302.761,34.015 279.979,56.223 285.358,87.579 257.197,72.774   229.038,87.579 234.415,56.223 211.633,34.015 243.117,29.44 "/>
<polygon style="fill:#34ABE0;" points="108.973,83.351 134.28,102.63 164.509,92.713 153.994,122.739 172.767,148.424   140.96,147.702 122.333,173.494 113.192,143.021 82.907,133.275 109.064,115.165 "/>
<g>
	<polygon style="fill:#FF525D;" points="405.422,83.351 380.115,102.63 349.885,92.713 360.402,122.739 341.629,148.424    373.435,147.702 392.061,173.494 401.203,143.021 431.489,133.275 405.331,115.165  "/>
	<path style="fill:#FF525D;" d="M431.185,34.548c-2.396,0-4.339-1.943-4.339-4.339v-6.165c0-2.396,1.943-4.339,4.339-4.339   s4.339,1.943,4.339,4.339v6.165C435.523,32.607,433.58,34.548,431.185,34.548z"/>
	<path style="fill:#FF525D;" d="M431.185,66.076c-2.396,0-4.339-1.943-4.339-4.339v-6.165c0-2.396,1.943-4.339,4.339-4.339   s4.339,1.943,4.339,4.339v6.165C435.523,64.134,433.58,66.076,431.185,66.076z"/>
	<path style="fill:#FF525D;" d="M450.03,47.23h-6.165c-2.396,0-4.339-1.943-4.339-4.339s1.943-4.339,4.339-4.339h6.165   c2.396,0,4.339,1.943,4.339,4.339S452.427,47.23,450.03,47.23z"/>
	<path style="fill:#FF525D;" d="M418.503,47.23h-6.165c-2.396,0-4.339-1.943-4.339-4.339s1.943-4.339,4.339-4.339h6.165   c2.396,0,4.339,1.943,4.339,4.339S420.899,47.23,418.503,47.23z"/>
</g>
<g>
	<path style="fill:#34ABE0;" d="M151.411,27.474c-2.396,0-4.339-1.943-4.339-4.339v-6.164c0-2.396,1.943-4.339,4.339-4.339   s4.339,1.943,4.339,4.339v6.164C155.75,25.531,153.807,27.474,151.411,27.474z"/>
	<path style="fill:#34ABE0;" d="M151.411,59c-2.396,0-4.339-1.943-4.339-4.339v-6.164c0-2.396,1.943-4.339,4.339-4.339   s4.339,1.943,4.339,4.339v6.164C155.75,57.058,153.807,59,151.411,59z"/>
	<path style="fill:#34ABE0;" d="M170.257,40.155h-6.164c-2.396,0-4.339-1.943-4.339-4.339s1.943-4.339,4.339-4.339h6.164   c2.396,0,4.339,1.943,4.339,4.339S172.654,40.155,170.257,40.155z"/>
	<path style="fill:#34ABE0;" d="M138.73,40.155h-6.164c-2.396,0-4.339-1.943-4.339-4.339s1.943-4.339,4.339-4.339h6.164   c2.396,0,4.339,1.943,4.339,4.339S141.126,40.155,138.73,40.155z"/>
</g>
<path style="fill:#FFD15C;" d="M278.183,316.669c-0.15,0-0.3-0.007-0.452-0.024c-2.383-0.246-4.116-2.378-3.869-4.761  c4.627-44.767,26.261-78.87,43.594-99.598c18.759-22.431,36.241-34.187,36.976-34.676c1.994-1.326,4.687-0.788,6.016,1.207  c1.328,1.994,0.788,4.685-1.205,6.014l0,0c-0.172,0.115-17.346,11.695-35.317,33.244c-16.48,19.762-37.045,52.233-41.435,94.703  C282.263,315.008,280.379,316.669,278.183,316.669z"/>
<path style="fill:#FF525D;" d="M236.212,316.669c-2.196,0-4.079-1.662-4.31-3.893c-4.39-42.469-24.955-74.941-41.435-94.703  c-17.971-21.549-35.145-33.128-35.317-33.244c-1.992-1.33-2.53-4.023-1.202-6.016s4.019-2.532,6.013-1.206  c0.735,0.489,18.218,12.245,36.976,34.676c17.334,20.728,38.967,54.832,43.594,99.598c0.247,2.383-1.486,4.516-3.869,4.761  C236.511,316.662,236.361,316.669,236.212,316.669z"/>
<path style="fill:#34ABE0;" d="M257.197,279.959c-2.396,0-4.339-1.943-4.339-4.339V121.786c0-2.396,1.943-4.339,4.339-4.339  c2.396,0,4.339,1.943,4.339,4.339V275.62C261.536,278.016,259.593,279.959,257.197,279.959z"/>
<g>
	<circle style="fill:#F9EED7;" cx="296.642" cy="177.354" r="4.339"/>
	<circle style="fill:#F9EED7;" cx="447.759" cy="181.155" r="4.339"/>
	<circle style="fill:#F9EED7;" cx="331.834" cy="68.864" r="4.339"/>
	<circle style="fill:#F9EED7;" cx="54.193" cy="176.115" r="4.339"/>
	<circle style="fill:#F9EED7;" cx="214.608" cy="134.406" r="4.339"/>
</g>
<path style="fill:#4BC999;" d="M333.477,340.252c-59.42,0-107.762,48.342-107.762,107.762c0,23.447,7.528,45.166,20.303,62.877  c3.311,0.135,6.643,0.198,9.985,0.198c11.182,0,22.198-0.718,33.005-2.124c-18.793-13.733-31.017-35.941-31.017-60.951  c0-41.616,33.87-75.486,75.486-75.486c41.626,0,75.486,33.87,75.486,75.486c0,4.425-0.385,8.767-1.114,12.984  c11.547-8.579,22.344-18.096,32.277-28.455C432.608,380.421,387.639,340.252,333.477,340.252z"/>
<path style="fill:#5BD3A2;" d="M342.983,357.915L342.983,357.915c0,3.258,2.317,6.067,5.521,6.653  c34.423,6.302,61.642,33.436,68.072,67.815c0.597,3.192,3.4,5.494,6.648,5.494h0.005c4.259,0,7.448-3.88,6.661-8.066  c-7.478-39.806-39.007-71.233-78.865-78.562C346.847,350.481,342.983,353.665,342.983,357.915z"/>
<path style="fill:#5C5E70;" d="M256.002,429.587c-59.42,0-107.762-48.342-107.762-107.762s48.342-107.762,107.762-107.762  s107.762,48.342,107.762,107.762S315.422,429.587,256.002,429.587z M256.002,246.34c-41.623,0-75.486,33.862-75.486,75.486  s33.862,75.486,75.486,75.486s75.486-33.862,75.486-75.486S297.624,246.34,256.002,246.34z"/>
<path style="fill:#FFD15C;" d="M283.99,425.9c-2.259-10.828-6.153-21.063-11.411-30.434c-12.984-23.145-34.255-41.033-59.764-49.612  c-2.311,10.11-6.049,19.678-10.974,28.497c-0.302,0.521-0.604,1.052-0.906,1.572c1.312,0.406,2.613,0.854,3.894,1.333  c9.298,3.467,17.721,8.715,24.874,15.326c10.578,9.766,18.366,22.521,22,36.91c1.499,5.935,2.301,12.14,2.301,18.523  c0,25.009-12.223,47.217-31.006,60.951c7.569,0.979,15.253,1.624,23.02,1.926c3.311,0.135,6.643,0.198,9.985,0.198  c3.342,0,6.664-0.062,9.975-0.198c12.775-17.71,20.303-39.429,20.303-62.877C286.281,440.435,285.489,433.042,283.99,425.9z   M85.343,393.915c-5.383,9.246-9.433,19.356-11.88,30.069c-0.646,2.811-1.177,5.664-1.593,8.559  c9.933,10.36,20.73,19.876,32.277,28.445c-0.729-4.217-1.114-8.548-1.114-12.973c0-6.362,0.791-12.546,2.291-18.46  c3.28-13.046,9.975-24.749,19.064-34.099c10.027-10.328,22.979-17.804,37.503-21.073c0.01-0.01,0.031-0.031,0.042-0.042  c-5.258-9.36-9.142-19.585-11.401-30.402C122.815,351.393,99.483,369.655,85.343,393.915z"/>
<path style="fill:#797B89;" d="M265.504,231.723L265.504,231.723c0,3.258,2.317,6.067,5.521,6.653  c34.423,6.302,61.642,33.436,68.072,67.815c0.597,3.192,3.4,5.494,6.648,5.494h0.005c4.259,0,7.448-3.88,6.661-8.066  c-7.478-39.806-39.007-71.233-78.865-78.562C269.367,224.289,265.504,227.473,265.504,231.723z"/>
<path style="fill:#FF525D;" d="M404.238,214.063c-28.684,0-54.787,11.266-74.111,29.611c-7.882,7.465-14.629,16.107-19.959,25.634  c-8.715,15.545-13.691,33.463-13.691,52.517c0,8.257,0.937,16.305,2.707,24.03c9.485-3.196,19.553-5.112,30.007-5.518  c0.354-1.385,0.666-2.78,0.937-4.196c-0.906-4.633-1.374-9.423-1.374-14.316s0.469-9.693,1.374-14.327  c2.822-14.681,9.922-27.862,19.949-38.19c13.723-14.16,32.932-22.968,54.162-22.968c41.626,0,75.486,33.859,75.486,75.486  c0,33.828-22.354,62.523-53.069,72.091c-7.09,2.207-14.618,3.394-22.417,3.394c-5.716,0-11.276-0.635-16.628-1.853  c-14.524-3.269-27.466-10.745-37.503-21.073c-0.021,0-0.031-0.01-0.052-0.01c-5.331-1.208-10.88-1.843-16.576-1.843  c-7.798,0-15.326,1.187-22.417,3.394c5.195,8.902,11.62,17.002,19.054,24.051c19.335,18.346,45.437,29.611,74.122,29.611  c0.812,0,1.624-0.01,2.436-0.031c11.109-0.239,21.813-2.186,31.86-5.57C481.191,409.639,512,369.262,512,321.825  C512,262.405,463.658,214.063,404.238,214.063z"/>
<path style="fill:#FFDC8D;" d="M188.023,357.915L188.023,357.915c0,3.258,2.317,6.067,5.521,6.653  c34.423,6.302,61.642,33.436,68.072,67.815c0.597,3.192,3.401,5.494,6.648,5.494h0.005c4.259,0,7.448-3.88,6.661-8.066  c-7.478-39.806-39.007-71.233-78.865-78.562C191.886,350.481,188.023,353.665,188.023,357.915z"/>
<path style="fill:#34ABE0;" d="M107.762,214.063C48.342,214.063,0,262.405,0,321.825c0,47.436,30.808,87.813,73.466,102.161  c2.447-10.714,6.497-20.824,11.88-30.069c-30.715-9.579-53.069-38.274-53.069-72.091c0-41.626,33.87-75.486,75.486-75.486  c21.23,0,40.45,8.808,54.173,22.968c1.468-2.624,3.04-5.175,4.717-7.653c2.551-3.779,5.331-7.382,8.329-10.807  c2.186-2.499,4.498-4.894,6.903-7.174C162.559,225.339,136.457,214.063,107.762,214.063z M201.833,269.308  c-2.53,2.613-4.883,5.414-7.018,8.371c-3.311,4.56-6.112,9.506-8.329,14.754c-2.041,4.8-3.602,9.85-4.602,15.097  c0.895,4.623,1.364,9.412,1.364,14.295c0,4.883-0.469,9.662-1.364,14.285c-0.271,1.406-0.573,2.801-0.927,4.175  c0,0.01,0,0.031-0.01,0.042c-3.28,13.004-9.954,24.686-19.012,34.015c-0.01,0.01-0.031,0.031-0.042,0.042  c-10.027,10.329-22.979,17.804-37.503,21.073c-9.089,9.35-15.784,21.053-19.064,34.099c0.812,0.021,1.624,0.031,2.436,0.031  c28.684,0,54.787-11.266,74.122-29.611c7.434-7.049,13.868-15.149,19.054-24.051c0.302-0.521,0.604-1.052,0.906-1.572  c4.925-8.808,8.663-18.366,10.964-28.466c0.01-0.01,0.01-0.021,0.01-0.031c1.77-7.726,2.707-15.774,2.707-24.03  C215.524,302.772,210.547,284.853,201.833,269.308z"/>
<g>
	<path style="fill:#78CAEF;" d="M124.744,225.058c19.293,3.55,36.629,12.734,50.237,25.79c-2.999,3.425-5.779,7.028-8.329,10.807   c-11.901-11.828-27.268-20.136-44.427-23.281c-3.207-0.583-5.518-3.394-5.518-6.653   C116.706,227.474,120.569,224.288,124.744,225.058z"/>
	<path style="fill:#78CAEF;" d="M196.95,311.684h-0.01c-3.238,0-6.049-2.301-6.643-5.497c-0.885-4.737-2.166-9.329-3.811-13.754   c2.218-5.248,5.018-10.193,8.329-14.754c4.081,8.08,7.07,16.784,8.798,25.936C204.394,307.801,201.208,311.684,196.95,311.684z"/>
</g>
<path style="fill:#5C5E70;" d="M311.063,375.925c5.195,8.902,11.62,17.002,19.054,24.051c7.871-7.455,14.608-16.086,19.939-25.603  c-5.331-1.208-10.88-1.843-16.576-1.843C325.681,372.531,318.153,373.718,311.063,375.925z"/>
<g>
	<path style="fill:#FF6E7C;" d="M413.177,231.723L413.177,231.723c0,3.258,2.317,6.067,5.521,6.653   c34.423,6.302,61.642,33.436,68.072,67.815c0.597,3.192,3.4,5.494,6.648,5.494h0.005c4.259,0,7.448-3.88,6.661-8.066   c-7.478-39.806-39.007-71.233-78.865-78.562C417.04,224.289,413.177,227.473,413.177,231.723z"/>
	<circle style="fill:#FF6E7C;" cx="391.182" cy="117.278" r="7.462"/>
</g>
<circle style="fill:#FFDC8D;" cx="262.773" cy="39.721" r="7.462"/>
<circle style="fill:#78CAEF;" cx="133.833" cy="116.758" r="7.462"/>
<g>
</g>
<g>
</g>
<g>
</g>
<g>
</g>
<g>
</g>
<g>
</g>
<g>
</g>
<g>
</g>
<g>
</g>
<g>
</g>
<g>
</g>
<g>
</g>
<g>
</g>
<g>
</g>
<g>
</g>
</svg>
