<?xml version="1.0" encoding="iso-8859-1"?>
<!-- Generator: Adobe Illustrator 19.0.0, SVG Export Plug-In . SVG Version: 6.00 Build 0)  -->
<svg xmlns="http://www.w3.org/2000/svg" xmlns:xlink="http://www.w3.org/1999/xlink" version="1.1" id="Capa_1" x="0px" y="0px" viewBox="0 0 512.001 512.001" style="enable-background:new 0 0 512.001 512.001;" xml:space="preserve">
<path style="fill:#34ABE0;" d="M508.572,256c0,7.826-0.353,15.579-1.048,23.228c-0.571,6.258-1.36,12.455-2.377,18.568  c-0.996,6.03-2.211,11.998-3.622,17.873c-1.069,4.504-2.273,8.967-3.602,13.378c-5.937,19.824-14.23,38.641-24.557,56.109  c-5.864,9.943-12.392,19.44-19.512,28.449c-14.614,18.475-31.728,34.873-50.846,48.677c-2.74,1.982-5.522,3.902-8.345,5.781  c-7.504,4.972-15.288,9.569-23.311,13.731c-1.692,0.882-3.384,1.733-5.096,2.574c-8.241,4.048-16.72,7.66-25.428,10.815  c-12.413,4.484-25.273,8.033-38.496,10.555c-4.463,0.861-8.957,1.598-13.493,2.211c-11.292,1.536-22.834,2.335-34.552,2.335  c-11.687,0-23.187-0.789-34.458-2.315c-4.536-0.612-9.03-1.349-13.493-2.2c-24.422-4.66-47.619-12.818-69.02-23.934  c-8.054-4.172-15.849-8.77-23.363-13.752c-22.481-14.904-42.45-33.275-59.139-54.375c-7.151-9.019-13.7-18.547-19.585-28.501  c-10.337-17.489-18.641-36.316-24.577-56.171c-1.318-4.411-2.522-8.864-3.601-13.378c-3.57-14.832-5.833-30.172-6.674-45.885  c-0.249-4.556-0.374-9.154-0.374-13.773C0.003,115.563,113.85,1.716,254.287,1.716c53.742,0,103.592,16.669,144.651,45.128  c18.672,12.932,35.527,28.303,50.099,45.657c16.222,19.305,29.632,41.059,39.585,64.619c9.403,22.252,15.724,46.114,18.443,71.054  C508.063,237.318,508.572,246.597,508.572,256z"/>
<g>
	<path style="fill:#78CAEF;" d="M507.067,228.174h-43.446c-3.269,0-6.227-1.329-8.376-3.467c-2.138-2.148-3.467-5.106-3.467-8.376   c0-6.539,5.304-11.842,11.842-11.842h3.29c3.269,0,6.227-1.329,8.376-3.467c2.138-2.148,3.467-5.106,3.467-8.376   c0-6.539-5.304-11.842-11.842-11.842h-32.279c-3.269,0-6.227-1.329-8.376-3.467c-2.138-2.148-3.467-5.106-3.467-8.376   c0-6.539,5.304-11.842,11.842-11.842h53.991C498.027,179.373,504.348,203.234,507.067,228.174z"/>
	<path style="fill:#78CAEF;" d="M281.774,54.038L281.774,54.038c0-6.54-5.302-11.842-11.841-11.842h-99.791   c-6.54,0-11.841,5.302-11.841,11.841l0,0c0,6.54,5.302,11.841,11.841,11.841h32.279c6.54,0,11.841,5.302,11.841,11.841l0,0   c0,6.54-5.302,11.841-11.841,11.841h-3.291c-6.54,0-11.841,5.302-11.841,11.841l0,0c0,6.54,5.302,11.841,11.841,11.841h95.642   c6.54,0,11.841-5.302,11.841-11.841l0,0c0-6.54,5.302-11.841,11.841-11.841h3.291c6.54,0,11.841-5.302,11.841-11.841l0,0   c0-6.54-5.302-11.841-11.841-11.841h-28.13C287.076,65.881,281.774,60.579,281.774,54.038z"/>
</g>
<path style="fill:#F9EED7;" d="M497.923,329.047c1.328-4.411,2.532-8.874,3.602-13.378c-14.261-0.093-27.141-6.819-35.423-18.475  l-5.511-7.732l-5.501,7.743c-3.882,5.47-8.781,9.85-14.375,12.974c-6.393,3.56-13.69,5.49-21.37,5.49  c-14.385,0-27.421-6.726-35.724-18.433l-5.283-7.525l-5.605,7.286l-0.145,0.208c-8.334,11.739-21.36,18.464-35.756,18.464  c-14.385,0-27.411-6.736-35.704-18.402l-5.48-7.93l-5.573,7.857c-8.324,11.739-21.35,18.464-35.745,18.475  c-14.385,0-27.421-6.736-35.745-18.475l-5.657-7.525l-5.356,7.535c-8.334,11.739-21.36,18.464-35.745,18.464  c-3.768,0-7.442-0.457-10.96-1.36c-9.933-2.512-18.641-8.438-24.795-17.105l-0.415-0.602l-6.165-5.636l-4.421,6.227  c-8.334,11.739-21.36,18.475-35.755,18.475c-14.385,0-27.421-6.736-35.745-18.475l-5.501-7.743l-5.501,7.743  c-8.293,11.676-21.215,18.392-35.517,18.464c1.079,4.515,2.283,8.967,3.601,13.378c5.034-0.322,9.912-1.287,14.541-2.844  c5.812-1.941,11.24-4.805,16.129-8.511v61.132c-1.847,2.366-3.882,4.494-6.092,6.393c5.885,9.953,12.434,19.481,19.585,28.501  v-16.056c9.767,7.4,21.723,11.469,34.5,11.469c6.393,0,12.579-1.007,18.392-2.948c5.802-1.951,11.24-4.816,16.119-8.521v61.122  c-2.854,3.653-6.175,6.788-9.87,9.31c7.514,4.982,15.309,9.58,23.363,13.752v-4.214c9.777,7.421,21.723,11.479,34.51,11.479  c12.776,0,24.733-4.058,34.51-11.479v28.148c4.463,0.851,8.957,1.588,13.493,2.2v-30.348c9.767,7.411,21.723,11.469,34.5,11.469  c12.787,0,24.743-4.058,34.51-11.479v30.338c4.536-0.612,9.03-1.349,13.493-2.211v-28.117c9.767,7.421,21.723,11.479,34.5,11.479  c12.787,0,24.743-4.058,34.52-11.49v4.183c8.023-4.162,15.807-8.76,23.311-13.731c-3.674-2.522-6.985-5.625-9.818-9.268v-61.132  c8.76,6.643,19.294,10.597,30.597,11.344c1.287,0.083,2.595,0.114,3.902,0.114c12.787,0,24.743-4.058,34.51-11.469v15.952  c7.12-9.009,13.648-18.506,19.512-28.449c-2.18-1.879-4.193-4.006-6.02-6.342v-61.132  C476.117,324.335,486.631,328.29,497.923,329.047z M123.824,378.804c-8.345,10.711-20.799,16.824-34.51,16.824  c-13.69,0-26.145-6.113-34.5-16.814v-61.132c9.767,7.411,21.723,11.479,34.5,11.479c12.787,0,24.743-4.069,34.51-11.49V378.804z   M206.337,458.784c-8.355,10.721-20.81,16.824-34.51,16.824s-26.155-6.103-34.51-16.814v-61.132  c9.777,7.4,21.723,11.458,34.51,11.458c4.691,0,9.279-0.54,13.69-1.609c7.577-1.827,14.634-5.169,20.82-9.86V458.784z   M206.337,378.815c-7.11,9.102-17.188,14.904-28.48,16.409c-1.972,0.27-3.986,0.405-6.03,0.405c-13.69,0-26.145-6.082-34.51-16.814  v-61.132c6.767,5.117,14.572,8.646,22.979,10.327c3.736,0.758,7.597,1.152,11.531,1.152c12.776,0,24.733-4.069,34.51-11.479V378.815  z M288.839,458.774c-2.242,2.875-4.785,5.428-7.566,7.618c-7.566,5.947-16.928,9.206-26.944,9.206c-13.7,0-26.155-6.092-34.5-16.814  v-61.132c9.767,7.4,21.723,11.469,34.5,11.469c12.787,0,24.743-4.069,34.51-11.469V458.774z M288.839,378.815  c-8.345,10.701-20.81,16.814-34.51,16.814s-26.155-6.113-34.5-16.814v-61.132c9.767,7.411,21.723,11.479,34.5,11.479  c12.787,0,24.743-4.069,34.51-11.49V378.815z M371.352,458.774c-8.355,10.732-20.81,16.835-34.52,16.835  c-9.445,0-18.308-2.916-25.626-8.21c-3.301-2.408-6.29-5.283-8.874-8.604v-61.132c9.767,7.4,21.723,11.458,34.5,11.458  c6.393,0,12.579-1.007,18.392-2.948c5.802-1.951,11.24-4.816,16.129-8.521V458.774z M371.352,378.815  c-8.355,10.701-20.81,16.814-34.52,16.814c-13.711,0-26.186-6.124-34.5-16.804v-61.142c9.767,7.411,21.723,11.479,34.5,11.479  c12.787,0,24.743-4.069,34.52-11.49V378.815z M453.854,378.815c-7.379,9.476-17.966,15.33-29.788,16.575  c-1.557,0.166-3.134,0.239-4.722,0.239c-13.7,0-26.165-6.113-34.5-16.814v-61.132c9.767,7.411,21.723,11.479,34.5,11.479  c7.878,0,15.433-1.546,22.356-4.453c4.328-1.827,8.407-4.183,12.154-7.027V378.815z"/>
<path style="fill:#5C5E70;" d="M507.524,279.228c-0.571,6.258-1.36,12.455-2.377,18.568H294.765v-18.568L507.524,279.228  L507.524,279.228z"/>
<path style="fill:#FFD15C;" d="M340.827,322.529v172.654c-27.016,9.767-56.15,15.101-86.54,15.101  c-135.819,0-246.76-106.478-253.911-240.512c11.552-9.258,26.207-14.78,42.149-14.78h230.766  C310.593,254.994,340.827,285.238,340.827,322.529z"/>
<circle style="fill:#FF525D;" cx="157.905" cy="293.6" r="118.766"/>
<circle style="fill:#5C5E70;" cx="157.905" cy="293.6" r="103.987"/>
<path style="fill:#F9EED7;" d="M299.739,159.797c0,1.436-0.024,2.897-0.072,4.357l-5.307,38.219  c-13.69,57.501-52.301,118.838-101.04,139.925c-11.315,4.892-23.176,7.611-35.406,7.611c-64.886,0-119.585-76.688-136.457-147.535  l-5.308-38.22c-0.048-1.46-0.072-2.921-0.072-4.357c0-62.868,40.903-116.19,97.55-134.783c0.059-0.011,0.118-0.035,0.166-0.059  c0.902-0.285,1.805-0.57,2.719-0.855c7.207-2.196,14.652-3.824,22.286-4.856h38.219C246.31,28.576,299.739,87.94,299.739,159.797z"/>
<g>
	<path style="fill:#5C5E70;" d="M101.281,153.565c16.218,0,38.021,4.428,38.021,20.646s-21.804,38.085-38.021,38.085   s-29.365-13.147-29.365-29.365S85.063,153.565,101.281,153.565z"/>
	<path style="fill:#5C5E70;" d="M214.539,153.565c-16.218,0-38.021,4.428-38.021,20.646s21.804,38.085,38.021,38.085   s29.365-13.147,29.365-29.365S230.757,153.565,214.539,153.565z"/>
</g>
<path style="fill:#E8DBC4;" d="M193.32,342.298c-11.315,4.892-23.176,7.611-35.406,7.611c-64.886,0-119.585-76.688-136.457-147.535  l-5.308-38.22c-0.048-1.46-0.072-2.921-0.072-4.357c0-62.868,40.903-116.19,97.55-134.783c-8.525,3.301-33.66,16.896-46.079,65.765  C49.739,160.83,74.495,317.162,193.32,342.298z"/>
<g>
	<path style="fill:#5C5E70;" d="M43.249,202.373H8.612c-4.757,0-8.612-3.856-8.612-8.612v-20.995c0-4.757,3.856-8.612,8.612-8.612   h34.637V202.373z"/>
	<path style="fill:#5C5E70;" d="M307.207,202.373H272.57v-38.22h34.637c4.757,0,8.612,3.856,8.612,8.612v20.995   C315.819,198.517,311.962,202.373,307.207,202.373z"/>
	<path style="fill:#5C5E70;" d="M177.02,10.12v34.846H138.8V10.12c0-4.64,3.762-8.403,8.403-8.403h21.414   C173.258,1.717,177.02,5.479,177.02,10.12z"/>
	
		<ellipse transform="matrix(-0.7071 -0.7071 0.7071 -0.7071 197.1913 647.3563)" style="fill:#5C5E70;" cx="232.668" cy="282.838" rx="8.047" ry="10.058"/>
	
		<ellipse transform="matrix(-0.7071 0.7071 -0.7071 -0.7071 341.9508 424.0387)" style="fill:#5C5E70;" cx="83.154" cy="282.84" rx="8.047" ry="10.058"/>
	<circle style="fill:#5C5E70;" cx="125.222" cy="259.703" r="10.058"/>
	<circle style="fill:#5C5E70;" cx="125.222" cy="287.861" r="10.058"/>
	<circle style="fill:#5C5E70;" cx="125.222" cy="316.029" r="10.058"/>
	<circle style="fill:#5C5E70;" cx="190.599" cy="259.703" r="10.058"/>
	<circle style="fill:#5C5E70;" cx="190.599" cy="287.861" r="10.058"/>
	<circle style="fill:#5C5E70;" cx="190.599" cy="316.029" r="10.058"/>
	<circle style="fill:#5C5E70;" cx="125.222" cy="71.615" r="10.058"/>
	<circle style="fill:#5C5E70;" cx="125.222" cy="99.784" r="10.058"/>
	<circle style="fill:#5C5E70;" cx="125.222" cy="127.942" r="10.058"/>
	<circle style="fill:#5C5E70;" cx="190.599" cy="71.615" r="10.058"/>
	<circle style="fill:#5C5E70;" cx="190.599" cy="99.784" r="10.058"/>
	<circle style="fill:#5C5E70;" cx="190.599" cy="127.942" r="10.058"/>
</g>
<path style="fill:#FFD15C;" d="M503.424,60.814c-7.12,4.148-14.24,8.297-21.361,12.445c-5.578,3.25-11.155,6.499-16.733,9.749  c-5.838,3.402-11.677,6.802-17.516,10.206c-4.181,2.437-8.362,4.874-12.543,7.311c-3.692,2.152-7.849,4.131-10.929,7.136  c-4.395,4.288-6.744,10.19-6.73,16.303c0.004,1.688,0.017,3.376,0.024,5.064c0.036,7.675,0.074,15.352,0.111,23.027  c0.051,10.626,0.102,21.252,0.153,31.877c0.05,10.456,0.101,20.911,0.15,31.367c0.034,7.045,0.067,14.09,0.102,21.137  c0.004,0.85,0.008,1.7,0.012,2.551c0.002,0.348,0.092,0.828,0.005,1.168c-0.133,0.521-0.661,1.103-0.946,1.55  c-1.157,1.818-2.315,3.637-3.472,5.455c-2.58,4.054-5.16,8.108-7.741,12.163c-0.634,0.995-1.267,1.992-1.9,2.987  c-0.313,0.493-0.704,0.911-0.793,1.47c-0.149,0.94-0.003,2.027-0.004,2.976c-0.003,2.038-0.006,4.077-0.009,6.115  c-0.01,6.719-0.021,13.439-0.031,20.157c-0.015,9.222-0.029,18.443-0.044,27.665c-0.017,10.692-0.033,21.386-0.05,32.078  c-0.018,11.031-0.034,22.062-0.052,33.092c-0.016,10.232-0.032,20.463-0.048,30.695c-0.013,8.414-0.026,16.828-0.039,25.242  c-0.008,5.389-0.017,10.778-0.025,16.166c-0.002,1.239-0.004,2.478-0.006,3.718c0,0.154,0.057,0.442-0.001,0.587  c-0.108,0.272-0.974,0.71-1.241,0.901c-1.089,0.776-2.185,1.544-3.285,2.303c-2.099,1.448-4.22,2.864-6.361,4.247  c-8.326,5.382-16.964,10.278-25.863,14.646c0.001-0.872,0.003-1.743,0.004-2.614c0.004-2.473,0.008-4.948,0.012-7.421  c0.006-3.817,0.014-7.635,0.02-11.452c0.008-4.962,0.018-9.924,0.026-14.887c0.01-5.825,0.021-11.648,0.03-17.473  c0.011-6.507,0.023-13.014,0.034-19.521c0.012-6.892,0.024-13.783,0.036-20.675c0.012-7.108,0.025-14.215,0.037-21.323  c0.012-7.019,0.025-14.04,0.036-21.059c0.011-6.733,0.024-13.465,0.035-20.197c0.01-6.24,0.022-12.48,0.032-18.719  c0.009-5.452,0.019-10.905,0.028-16.357c0.008-4.482,0.016-8.963,0.024-13.446c0.005-3.233,0.011-6.466,0.017-9.699  c0.003-1.78,0.006-3.559,0.009-5.339c0-0.236,0.06-0.559,0.001-0.79c-0.229-0.895-1.051-1.882-1.5-2.683  c-0.324-0.579-0.649-1.157-0.973-1.736c-2.824-5.046-5.647-10.092-8.471-15.138c-0.56-1.002-1.121-2.003-1.681-3.005  c-0.152-0.272-0.427-0.605-0.504-0.908c-0.087-0.344-0.002-0.823-0.003-1.174c-0.007-2.551-0.015-5.102-0.022-7.653  c-0.012-4.496-0.026-8.992-0.038-13.487c-0.017-5.867-0.033-11.733-0.05-17.601c-0.019-6.761-0.038-13.523-0.057-20.284  c-0.02-7.06-0.039-14.12-0.06-21.179c-0.02-6.894-0.039-13.787-0.058-20.68c-0.018-6.13-0.034-12.261-0.052-18.39  c-0.013-4.893-0.028-9.786-0.042-14.679c-0.008-3.078-0.018-6.156-0.026-9.234c-0.01-3.537,0.123-7.016,0.977-10.489  c2.346-9.549,8.631-17.118,17.025-22.009c4.979-2.902,9.958-5.803,14.936-8.705c4.256-2.481,8.513-4.962,12.769-7.442  c2.187-1.275,4.375-2.548,6.562-3.823c5.495-3.201,10.988-6.401,16.483-9.602c5.728-3.337,11.456-6.674,17.185-10.01  c2.908-1.694,5.817-3.389,8.726-5.083c3.771-2.196,7.54-4.391,11.311-6.588c2.81-1.636,5.619-3.272,8.429-4.908  c1.495-0.87,2.973-1.824,4.529-2.581c8.229-4.005,18.144-0.747,22.736,7.052c2.632,4.472,5.228,8.966,7.841,13.45  c2.363,4.054,4.762,8.09,7.091,12.163C514.411,45.226,511.671,56.01,503.424,60.814z"/>
<path style="fill:#FF525D;" d="M480.369,74.245l-32.552-55.871l-77.708,45.275c-10.489,6.111-16.957,17.313-17.013,29.453  l0.361,145.869c0.033,13.494,10.982,24.414,24.475,24.414h15.665c13.555,0,24.529-11.017,24.475-24.572l-0.459-115.315  c0.037-7.886,4.254-15.169,11.068-19.139L480.369,74.245z"/>
<g>
	<circle style="fill:#FCF8F2;" cx="236.817" cy="105.16" r="19.845"/>
	<circle style="fill:#FCF8F2;" cx="264.279" cy="128.346" r="11.458"/>
</g>
<path style="fill:#FFDC8D;" d="M308.035,410.674L308.035,410.674c-6.448,0-11.675-5.228-11.675-11.675v-65.384  c0-6.448,5.228-11.675,11.675-11.675l0,0c6.448,0,11.675,5.228,11.675,11.675v65.384  C319.71,405.447,314.483,410.674,308.035,410.674z"/>
<path style="fill:#FF6E7C;" d="M397.548,241.765L397.548,241.765c-6.448,0-11.675-5.228-11.675-11.675v-65.384  c0-6.448,5.228-11.675,11.675-11.675l0,0c6.448,0,11.675,5.228,11.675,11.675v65.384  C409.224,236.538,403.997,241.765,397.548,241.765z"/>
<g>
</g>
<g>
</g>
<g>
</g>
<g>
</g>
<g>
</g>
<g>
</g>
<g>
</g>
<g>
</g>
<g>
</g>
<g>
</g>
<g>
</g>
<g>
</g>
<g>
</g>
<g>
</g>
<g>
</g>
</svg>
