<?xml version="1.0" encoding="iso-8859-1"?>
<!-- Generator: Adobe Illustrator 19.0.0, SVG Export Plug-In . SVG Version: 6.00 Build 0)  -->
<svg xmlns="http://www.w3.org/2000/svg" xmlns:xlink="http://www.w3.org/1999/xlink" version="1.1" id="Capa_1" x="0px" y="0px" viewBox="0 0 512 512" style="enable-background:new 0 0 512 512;" xml:space="preserve">
<path style="fill:#4BC999;" d="M512,256c0,120.195-82.829,221.038-194.518,248.56C297.785,509.43,277.191,512,256,512  c-23.531,0-46.31-3.176-67.95-9.122c-47.658-13.082-89.767-39.602-121.981-75.233C25.004,382.245,0,322.038,0,256  C0,114.615,114.615,0,256,0c20.229,0,39.915,2.351,58.796,6.792c65.202,15.318,120.78,55.557,156.15,110.111  c14.514,22.371,25.621,47.156,32.601,73.613C509.064,211.414,512,233.367,512,256z"/>
<g>
	<path style="fill:#5BD3A2;" d="M470.946,116.903h-187.58c-5.193,0-9.895-2.1-13.302-5.507c-3.406-3.406-5.507-8.108-5.507-13.302   c0-10.386,8.422-18.808,18.808-18.808h57.166c5.193,0,9.895-2.1,13.302-5.507c3.396-3.406,5.507-8.108,5.507-13.302   c0-10.386-8.422-18.808-18.808-18.808h-15.956c-5.193,0-9.895-2.1-13.302-5.507s-5.507-8.108-5.507-13.302   c0-6.802,3.615-12.758,9.028-16.071C379.998,22.11,435.576,62.349,470.946,116.903z"/>
	<path style="fill:#5BD3A2;" d="M237.338,484.07c0,10.386-8.422,18.808-18.808,18.808h-30.48   c-47.658-13.082-89.767-39.602-121.981-75.233h114.845c10.386,0,18.808,8.422,18.808,18.808c0,5.193,2.111,9.895,5.507,13.302   c3.406,3.396,8.108,5.507,13.302,5.507s9.895,2.111,13.302,5.507C235.227,474.175,237.338,478.877,237.338,484.07z"/>
</g>
<path style="fill:#5C5E70;" d="M512,256c0,28.087-4.524,55.108-12.884,80.394c-27.397,82.923-96.047,147.069-181.635,168.166  c-48.118-17.22-87.04-53.718-107.499-100.185c-10.083-22.894-15.684-48.212-15.684-74.836c0-85.462,57.699-157.508,136.307-179.19  c15.778-4.378,32.423-6.687,49.57-6.687c17.136,0,33.792,2.309,49.57,6.687c27.742,7.659,52.882,21.577,73.801,40.166  C509.064,211.414,512,233.367,512,256z"/>
<path style="fill:#494B5B;" d="M499.116,336.394c-27.397,82.923-96.047,147.069-181.635,168.166  c-48.118-17.22-87.04-53.718-107.499-100.185c22.288-50.615,66.497-89.412,120.623-104.343c15.778-4.378,32.423-6.687,49.57-6.687  c17.136,0,33.792,2.309,49.57,6.687C455.555,307.158,479.117,319.707,499.116,336.394z"/>
<circle style="fill:#F9EED7;" cx="164.645" cy="164.854" r="162.973"/>
<g>
	<path style="fill:#E8DBC4;" d="M195.204,272.403c-75.538-13.828-125.562-86.273-111.735-161.81   c9.688-52.922,48.151-93.317,96.288-108.008C96.526-5.263,19.669,51.728,4.332,135.507   c-16.207,88.537,42.427,173.449,130.964,189.657c70.467,12.899,138.635-21.612,171.698-80.873   C276.648,268.498,236.387,279.942,195.204,272.403z"/>
	<circle style="fill:#E8DBC4;" cx="185.219" cy="19.681" r="15.001"/>
	<circle style="fill:#E8DBC4;" cx="226.367" cy="102.4" r="15.001"/>
	<circle style="fill:#E8DBC4;" cx="226.367" cy="61.032" r="15.001"/>
	<path style="fill:#E8DBC4;" d="M215.355,9.51c9.09,2.955,17.76,6.66,25.98,11.055c-0.465,7.875-6.99,14.114-14.97,14.114   c-8.28,0-15.001-6.72-15.001-15.001C211.364,15.75,212.879,12.179,215.355,9.51z"/>
	<circle style="fill:#E8DBC4;" cx="267.504" cy="185.114" r="15.001"/>
	<circle style="fill:#E8DBC4;" cx="138.303" cy="237.965" r="15.001"/>
	<circle style="fill:#E8DBC4;" cx="267.504" cy="143.757" r="15.001"/>
	<circle style="fill:#E8DBC4;" cx="267.504" cy="102.4" r="15.001"/>
	<circle style="fill:#E8DBC4;" cx="100.571" cy="197.59" r="15.001"/>
	<circle style="fill:#E8DBC4;" cx="267.504" cy="61.032" r="15.001"/>
	<path style="fill:#E8DBC4;" d="M308.656,211.472c4.17,0,7.95,1.695,10.665,4.455c-2.955,8.926-6.645,17.46-10.98,25.545   c-8.145-0.18-14.685-6.825-14.685-15.001C293.655,218.177,300.36,211.472,308.656,211.472z"/>
	<circle style="fill:#E8DBC4;" cx="308.652" cy="185.114" r="15.001"/>
	<circle style="fill:#E8DBC4;" cx="308.652" cy="143.757" r="15.001"/>
	<path style="fill:#E8DBC4;" d="M308.295,87.39c4.38,8.145,8.085,16.695,11.025,25.545c-2.715,2.761-6.495,4.455-10.665,4.455   c-8.295,0-15.001-6.705-15.001-15.001C293.655,94.23,300.165,87.585,308.295,87.39z"/>
</g>
<g>
</g>
<g>
</g>
<g>
</g>
<g>
</g>
<g>
</g>
<g>
</g>
<g>
</g>
<g>
</g>
<g>
</g>
<g>
</g>
<g>
</g>
<g>
</g>
<g>
</g>
<g>
</g>
<g>
</g>
</svg>
