<?xml version="1.0" encoding="iso-8859-1"?>
<!-- Generator: Adobe Illustrator 19.0.0, SVG Export Plug-In . SVG Version: 6.00 Build 0)  -->
<svg xmlns="http://www.w3.org/2000/svg" xmlns:xlink="http://www.w3.org/1999/xlink" version="1.1" id="Capa_1" x="0px" y="0px" viewBox="0 0 512 512" style="enable-background:new 0 0 512 512;" xml:space="preserve">
<path style="fill:#FCF8F2;" d="M512,256c0,13.406-1.034,26.572-3.02,39.424c-4.336,28.045-13.218,54.596-25.882,78.858  c-8.401,16.102-18.463,31.19-29.968,45.046c-10.188,12.298-21.514,23.625-33.813,33.813c-13.855,11.494-28.944,21.556-45.035,29.957  c-24.263,12.664-50.803,21.546-78.858,25.882C282.572,510.966,269.406,512,256,512c-13.416,0-26.582-1.034-39.434-3.02  c-28.045-4.336-54.585-13.218-78.848-25.882c-16.091-8.401-31.18-18.463-45.035-29.957c-12.298-10.198-23.625-21.525-33.823-33.823  c-11.494-13.855-21.556-28.944-29.957-45.035C16.238,350.02,7.356,323.469,3.02,295.424C1.034,282.572,0,269.406,0,256  s1.034-26.572,3.02-39.424c4.336-28.045,13.218-54.596,25.882-78.858c8.401-16.091,18.463-31.18,29.957-45.035  C69.047,80.384,80.374,69.057,92.672,58.87c13.855-11.504,28.954-21.567,45.046-29.968C161.98,16.238,188.52,7.356,216.566,3.02  C229.418,1.034,242.583,0,256,0c13.406,0,26.572,1.034,39.424,3.02c28.056,4.336,54.596,13.218,78.858,25.882  c16.091,8.401,31.19,18.463,45.046,29.968c12.298,10.188,23.615,21.504,33.802,33.802c11.504,13.855,21.567,28.944,29.968,45.046  c12.664,24.263,21.546,50.813,25.882,78.858C510.966,229.428,512,242.594,512,256z"/>
<g>
	<path style="fill:#797B89;" d="M58.859,295.424v78.858H28.902C16.238,350.02,7.356,323.469,3.02,295.424H58.859z"/>
	<path style="fill:#797B89;" d="M137.718,374.282v78.858H92.682c-12.298-10.198-23.625-21.525-33.823-33.823v-45.035H137.718z"/>
	<path style="fill:#797B89;" d="M216.566,453.141v55.839c-28.045-4.336-54.585-13.218-78.848-25.882v-29.957H216.566z"/>
	<path style="fill:#797B89;" d="M58.859,137.718v78.858H3.02c4.336-28.045,13.218-54.596,25.882-78.858H58.859z"/>
	<rect x="58.859" y="216.576" style="fill:#797B89;" width="78.858" height="78.858"/>
	<rect x="137.718" y="295.424" style="fill:#797B89;" width="78.858" height="78.858"/>
	<rect x="216.566" y="374.282" style="fill:#797B89;" width="78.858" height="78.858"/>
	<path style="fill:#797B89;" d="M374.282,453.141v29.957c-24.263,12.664-50.803,21.546-78.858,25.882v-55.839H374.282z"/>
	<path style="fill:#797B89;" d="M137.718,58.87v78.848H58.859V92.682C69.047,80.384,80.374,69.057,92.672,58.87   C92.672,58.87,137.718,58.87,137.718,58.87z"/>
	<rect x="137.718" y="137.718" style="fill:#797B89;" width="78.858" height="78.858"/>
	<rect x="216.566" y="216.576" style="fill:#797B89;" width="78.858" height="78.858"/>
	<rect x="295.424" y="295.424" style="fill:#797B89;" width="78.858" height="78.858"/>
	<path style="fill:#797B89;" d="M453.13,374.282v45.046c-10.188,12.298-21.514,23.625-33.813,33.813h-45.035v-78.858H453.13z"/>
	<path style="fill:#797B89;" d="M216.566,3.02v55.85h-78.848V28.902C161.98,16.238,188.52,7.356,216.566,3.02z"/>
	<rect x="216.566" y="58.87" style="fill:#797B89;" width="78.858" height="78.858"/>
	<rect x="295.424" y="137.718" style="fill:#797B89;" width="78.858" height="78.858"/>
	<rect x="374.272" y="216.576" style="fill:#797B89;" width="78.858" height="78.858"/>
	<path style="fill:#797B89;" d="M508.98,295.424c-4.336,28.045-13.218,54.596-25.882,78.858H453.13v-78.858H508.98z"/>
	<path style="fill:#797B89;" d="M374.282,28.902V58.87h-78.858V3.02C323.479,7.356,350.02,16.238,374.282,28.902z"/>
	<path style="fill:#797B89;" d="M453.13,92.672v45.046h-78.848V58.87h45.046C431.626,69.057,442.943,80.374,453.13,92.672z"/>
	<path style="fill:#797B89;" d="M508.98,216.576h-55.85v-78.858h29.968C495.762,161.98,504.644,188.531,508.98,216.576z"/>
</g>
<g>
	<path style="fill:#EF4152;" d="M173.459,0h-32.668c-3.742,0-6.774,3.033-6.774,6.774s3.033,6.774,6.774,6.774h9.56v43.668   c0,3.742,3.033,6.774,6.774,6.774s6.774-3.033,6.774-6.774V13.549h9.56c3.742,0,6.774-3.033,6.774-6.774S177.201,0,173.459,0z"/>
	<path style="fill:#EF4152;" d="M376.433,27.624h-32.668c-3.742,0-6.774,3.033-6.774,6.774s3.033,6.774,6.774,6.774h9.56V57.95   c0,3.742,3.033,6.774,6.774,6.774c3.742,0,6.774-3.033,6.774-6.774V41.173h9.56c3.742,0,6.774-3.033,6.774-6.774   S380.175,27.624,376.433,27.624z"/>
</g>
<path style="fill:#FFD15C;" d="M441.849,248.938H75.376c-9.253,0-16.754-7.501-16.754-16.754V74.71  c0-9.253,7.501-16.754,16.754-16.754h366.473c9.253,0,16.754,7.501,16.754,16.754v157.473  C458.603,241.436,451.101,248.938,441.849,248.938z"/>
<circle style="fill:#34ABE0;" cx="158.323" cy="152.095" r="70.861"/>
<circle style="fill:#78CAEF;" cx="186.368" cy="129.588" r="13.515"/>
<circle style="fill:#34ABE0;" cx="358.902" cy="152.095" r="70.861"/>
<g>
	<path style="fill:#F9EED7;" d="M158.327,207.673c-3.166,0-5.732-2.566-5.732-5.732v-4.456c0-3.166,2.566-5.732,5.732-5.732   c3.166,0,5.732,2.566,5.732,5.732v4.456C164.059,205.107,161.493,207.673,158.327,207.673z"/>
	<path style="fill:#F9EED7;" d="M158.327,112.445c-3.166,0-5.732-2.566-5.732-5.732v-4.456c0-3.166,2.566-5.732,5.732-5.732   c3.166,0,5.732,2.566,5.732,5.732v4.456C164.059,109.877,161.493,112.445,158.327,112.445z"/>
	<path style="fill:#F9EED7;" d="M112.94,157.831h-4.455c-3.166,0-5.732-2.566-5.732-5.732c0-3.166,2.566-5.732,5.732-5.732h4.455   c3.166,0,5.732,2.566,5.732,5.732C118.672,155.264,116.106,157.831,112.94,157.831z"/>
	<path style="fill:#F9EED7;" d="M208.17,157.831h-4.456c-3.166,0-5.732-2.566-5.732-5.732c0-3.166,2.566-5.732,5.732-5.732h4.456   c3.166,0,5.732,2.566,5.732,5.732C213.902,155.264,211.336,157.831,208.17,157.831z"/>
	<path style="fill:#F9EED7;" d="M126.236,125.739c-1.467,0-2.934-0.559-4.053-1.678l-3.147-3.146   c-2.238-2.238-2.239-5.868-0.001-8.106c2.239-2.239,5.869-2.239,8.107-0.001l3.147,3.146c2.238,2.238,2.239,5.868,0.001,8.106   C129.17,125.18,127.703,125.739,126.236,125.739z"/>
</g>
<path style="fill:#5C5E70;" d="M193.565,193.069c-1.467,0-2.934-0.559-4.053-1.679l-35.238-35.238c-2.238-2.238-2.238-5.868,0-8.107  c2.239-2.238,5.868-2.238,8.107,0l35.238,35.238c2.238,2.238,2.238,5.868,0,8.107C196.499,192.509,195.032,193.069,193.565,193.069z  "/>
<g>
	<path style="fill:#F9EED7;" d="M190.418,125.739c-1.467,0-2.934-0.559-4.053-1.679c-2.238-2.238-2.238-5.868,0-8.107l3.146-3.146   c2.239-2.238,5.868-2.238,8.107,0c2.238,2.238,2.238,5.868,0,8.107l-3.146,3.146C193.352,125.18,191.886,125.739,190.418,125.739z"/>
	<path style="fill:#F9EED7;" d="M123.089,193.069c-1.467,0-2.934-0.56-4.054-1.679c-2.238-2.238-2.238-5.868,0.001-8.106   l3.147-3.146c2.238-2.238,5.868-2.238,8.107,0.001c2.238,2.238,2.238,5.868-0.001,8.106l-3.147,3.146   C126.023,192.509,124.555,193.069,123.089,193.069z"/>
</g>
<g>
	<circle style="fill:#78CAEF;" cx="387.5" cy="129.588" r="13.515"/>
	<circle style="fill:#78CAEF;" cx="377.657" cy="109.307" r="6.757"/>
	<circle style="fill:#78CAEF;" cx="174.905" cy="109.307" r="6.757"/>
</g>
<g>
	<path style="fill:#F9EED7;" d="M358.897,112.445c-3.166,0-5.732-2.566-5.732-5.732v-4.456c0-3.166,2.566-5.732,5.732-5.732   s5.732,2.566,5.732,5.732v4.456C364.63,109.877,362.063,112.445,358.897,112.445z"/>
	<path style="fill:#F9EED7;" d="M358.897,207.673c-3.166,0-5.732-2.566-5.732-5.732v-4.456c0-3.166,2.566-5.732,5.732-5.732   s5.732,2.566,5.732,5.732v4.456C364.63,205.107,362.063,207.673,358.897,207.673z"/>
	<path style="fill:#F9EED7;" d="M408.74,157.831h-4.456c-3.166,0-5.732-2.566-5.732-5.732c0-3.166,2.566-5.732,5.732-5.732h4.456   c3.166,0,5.732,2.566,5.732,5.732C414.472,155.264,411.906,157.831,408.74,157.831z"/>
	<path style="fill:#F9EED7;" d="M313.511,157.831h-4.455c-3.166,0-5.732-2.566-5.732-5.732c0-3.166,2.566-5.732,5.732-5.732h4.455   c3.166,0,5.732,2.566,5.732,5.732C319.243,155.264,316.677,157.831,313.511,157.831z"/>
	<path style="fill:#F9EED7;" d="M394.135,193.069c-1.467,0-2.934-0.559-4.053-1.679l-3.146-3.146c-2.238-2.238-2.238-5.868,0-8.107   c2.239-2.238,5.868-2.238,8.107,0l3.146,3.146c2.238,2.238,2.238,5.868,0,8.107C397.07,192.509,395.603,193.069,394.135,193.069z"/>
</g>
<path style="fill:#5C5E70;" d="M358.897,157.831c-1.467,0-2.934-0.559-4.053-1.679l-35.238-35.237c-2.238-2.238-2.239-5.868,0-8.106  c2.238-2.239,5.868-2.239,8.106-0.001l35.238,35.238c2.238,2.238,2.238,5.868,0,8.107  C361.831,157.271,360.364,157.831,358.897,157.831z"/>
<g>
	<path style="fill:#F9EED7;" d="M323.659,193.069c-1.467,0-2.934-0.56-4.054-1.679c-2.238-2.238-2.238-5.868,0.001-8.106   l3.147-3.146c2.238-2.238,5.868-2.238,8.107,0.001c2.238,2.238,2.238,5.868-0.001,8.106l-3.147,3.146   C326.593,192.509,325.126,193.069,323.659,193.069z"/>
	<path style="fill:#F9EED7;" d="M390.989,125.739c-1.467,0-2.934-0.559-4.053-1.679c-2.238-2.238-2.238-5.868,0-8.107l3.146-3.146   c2.239-2.238,5.868-2.238,8.107,0c2.238,2.238,2.238,5.868,0,8.107l-3.146,3.146C393.923,125.18,392.456,125.739,390.989,125.739z"/>
</g>
<path style="fill:#EF4152;" d="M258.612,226.131c-3.742,0-6.774-3.033-6.774-6.774V87.537c0-3.742,3.033-6.774,6.774-6.774  c3.741,0,6.774,3.033,6.774,6.774v131.818C265.386,223.097,262.354,226.131,258.612,226.131z"/>
<g>
	<path style="fill:#EDBB4C;" d="M158.327,229.733c-42.808,0-77.635-34.826-77.635-77.635s34.826-77.635,77.635-77.635   s77.635,34.826,77.635,77.635S201.134,229.733,158.327,229.733z M158.327,88.013c-35.337,0-64.086,28.749-64.086,64.086   c0,35.337,28.748,64.086,64.086,64.086s64.086-28.749,64.086-64.086C222.413,116.761,193.665,88.013,158.327,88.013z"/>
	<path style="fill:#EDBB4C;" d="M358.897,229.733c-42.808,0-77.635-34.826-77.635-77.635s34.826-77.635,77.635-77.635   s77.635,34.826,77.635,77.635S401.706,229.733,358.897,229.733z M358.897,88.013c-35.337,0-64.086,28.749-64.086,64.086   c0,35.337,28.748,64.086,64.086,64.086s64.086-28.749,64.086-64.086C422.983,116.761,394.235,88.013,358.897,88.013z"/>
</g>
<path style="fill:#FFDC8D;" d="M448.125,223.493L448.125,223.493c-2.878,0-5.211-2.333-5.211-5.211V77.233  c0-2.878,2.333-5.211,5.211-5.211l0,0c2.878,0,5.211,2.333,5.211,5.211v141.05C453.337,221.16,451.004,223.493,448.125,223.493z"/>
<path style="fill:#494B5B;" d="M206.613,333.178c0,6.003-1.703,11.608-4.654,16.359c-5.478,8.83-15.261,14.711-26.416,14.711  c-17.158,0-31.07-13.912-31.07-31.07c0-17.158,13.912-31.07,31.07-31.07c1.965,0,3.889,0.182,5.753,0.533  C195.706,305.338,206.613,317.985,206.613,333.178z"/>
<g>
	<path style="fill:#5C5E70;" d="M206.613,333.178c0,6.003-1.703,11.608-4.654,16.359c-4.544,3.652-10.314,5.834-16.592,5.834   c-14.647,0-26.522-11.874-26.522-26.522c0-13.257,9.735-24.247,22.451-26.209C195.706,305.338,206.613,317.985,206.613,333.178z"/>
	<rect x="161.802" y="368.055" style="fill:#5C5E70;" width="27.477" height="56.222"/>
	<polyline style="fill:#5C5E70;" points="189.281,368.053 213.021,424.275 138.064,424.275 161.805,368.053  "/>
</g>
<polyline style="fill:#494B5B;" points="161.805,376.93 153.491,424.275 137.709,424.275 161.805,368.053 "/>
<path style="fill:#5C5E70;" d="M137.709,440.338h75.667c4.436,0,8.032-3.596,8.032-8.032l0,0c0-4.436-3.595-8.032-8.032-8.032  h-75.667c-4.436,0-8.032,3.596-8.032,8.032l0,0C129.677,436.742,133.274,440.338,137.709,440.338z"/>
<path style="fill:#494B5B;" d="M153.561,432.307L153.561,432.307c0-4.436,3.595-8.032,8.032-8.032h-23.884  c-4.436,0-8.032,3.595-8.032,8.032l0,0c0,4.436,3.596,8.032,8.032,8.032h23.884C157.157,440.338,153.561,436.742,153.561,432.307z"/>
<path style="fill:#5C5E70;" d="M196.89,360.021h-42.695c-4.67,0-8.454,3.786-8.454,8.454l0,0c0,4.67,3.786,8.454,8.454,8.454h42.695  c4.67,0,8.454-3.786,8.454-8.454l0,0C205.344,363.806,201.56,360.021,196.89,360.021z"/>
<path style="fill:#494B5B;" d="M159.902,368.476L159.902,368.476c0-4.67,3.786-8.454,8.454-8.454h-14.16  c-4.67,0-8.454,3.786-8.454,8.454l0,0c0,4.67,3.786,8.454,8.454,8.454h14.161C163.687,376.93,159.902,373.145,159.902,368.476z"/>
<g>
	<circle style="fill:#797B89;" cx="192.24" cy="321.975" r="6.34"/>
	<circle style="fill:#797B89;" cx="182.272" cy="313.699" r="4.468"/>
	<path style="fill:#797B89;" d="M195.199,369.743h-12.259c-2.101,0-3.804-1.703-3.804-3.804l0,0c0-2.101,1.703-3.804,3.804-3.804   h12.259c2.101,0,3.804,1.703,3.804,3.804l0,0C199.004,368.04,197.301,369.743,195.199,369.743z"/>
	<path style="fill:#797B89;" d="M210.691,433.574h-24.807c-2.101,0-3.804-1.703-3.804-3.804l0,0c0-2.101,1.703-3.804,3.804-3.804   h24.807c2.101,0,3.804,1.703,3.804,3.804l0,0C214.496,431.871,212.792,433.574,210.691,433.574z"/>
	<path style="fill:#797B89;" d="M193.24,411.956l-7.322-23.702c-0.62-2.007,0.505-4.138,2.512-4.757l0,0   c2.007-0.62,4.138,0.505,4.757,2.512l7.322,23.702c0.62,2.007-0.505,4.138-2.512,4.757l0,0   C195.99,415.088,193.861,413.963,193.24,411.956z"/>
</g>
<g>
</g>
<g>
</g>
<g>
</g>
<g>
</g>
<g>
</g>
<g>
</g>
<g>
</g>
<g>
</g>
<g>
</g>
<g>
</g>
<g>
</g>
<g>
</g>
<g>
</g>
<g>
</g>
<g>
</g>
</svg>
