<?xml version="1.0" encoding="iso-8859-1"?>
<!-- Generator: Adobe Illustrator 19.0.0, SVG Export Plug-In . SVG Version: 6.00 Build 0)  -->
<svg xmlns="http://www.w3.org/2000/svg" xmlns:xlink="http://www.w3.org/1999/xlink" version="1.1" id="Capa_1" x="0px" y="0px" viewBox="0 0 512 512" style="enable-background:new 0 0 512 512;" xml:space="preserve">
<path style="fill:#34ABE0;" d="M512,256c0,42.538-10.376,82.651-28.735,117.948c-10.846,20.867-24.482,40.051-40.427,57.051  C396.131,480.852,329.707,512,256,512C114.615,512,0,397.385,0,256c0-22.549,2.915-44.429,8.401-65.264  c2.236-8.537,4.911-16.906,7.993-25.078c3.699-9.791,7.973-19.31,12.8-28.484c4.639-8.861,9.791-17.408,15.433-25.61  C90.728,44.199,168.197,0,256,0c29.466,0,57.772,4.974,84.114,14.148c17.209,5.977,33.573,13.74,48.88,23.082  c29.236,17.795,54.627,41.305,74.616,68.963c13.019,18.004,23.751,37.763,31.775,58.859c3.041,8.004,5.695,16.206,7.92,24.576  c4.629,17.251,7.481,35.223,8.38,53.718C511.895,247.536,512,251.758,512,256z"/>
<g>
	<path style="fill:#78CAEF;" d="M380.76,89.529L380.76,89.529c0-6.584-5.337-11.922-11.921-11.922H268.375   c-6.584,0-11.921,5.337-11.921,11.921l0,0c0,6.584,5.337,11.921,11.921,11.921h32.496c6.584,0,11.921,5.337,11.921,11.921l0,0   c0,6.584-5.337,11.921-11.921,11.921h-3.313c-6.584,0-11.921,5.337-11.921,11.921l0,0c0,6.584,5.337,11.921,11.921,11.921h96.287   c6.584,0,11.921-5.337,11.921-11.921l0,0c0-6.584,5.337-11.921,11.921-11.921h3.313c6.584,0,11.921-5.337,11.921-11.921l0,0   c0-6.584-5.337-11.921-11.921-11.921h-28.32C386.097,101.45,380.76,96.113,380.76,89.529z"/>
	<path style="fill:#78CAEF;" d="M178.35,312.506v-0.001c0-7.878-6.385-14.263-14.263-14.263H28.586   c-7.877,0-14.263,6.385-14.263,14.263v0.001c0,7.877,6.385,14.263,14.263,14.263H51.17c7.877,0,14.263,6.385,14.263,14.263v0.001   c0,7.877,6.385,14.263,14.263,14.263h112.918c7.877,0,14.263-6.385,14.263-14.263v-0.001c0-7.877-6.385-14.263-14.263-14.263l0,0   C184.736,326.769,178.35,320.383,178.35,312.506z"/>
	<path style="fill:#78CAEF;" d="M483.265,373.948c-10.846,20.867-24.482,40.051-40.427,57.051h-6.572   c-7.879,0-14.263-6.384-14.263-14.263c0-3.939-1.599-7.502-4.18-10.083c-2.581-2.581-6.144-4.18-10.083-4.18   c-3.939,0-7.502-1.599-10.083-4.18s-4.18-6.144-4.18-10.083c0-7.879,6.384-14.263,14.263-14.263L483.265,373.948L483.265,373.948z"/>
</g>
<path style="fill:#FCF8F2;" d="M503.306,189.628c-4.117,78.137-68.995,140.445-148.146,140.445  c-81.816,0-148.365-66.56-148.365-148.365c0-81.816,66.55-148.376,148.365-148.376c11.64,0,22.967,1.348,33.834,3.897  c-15.308-9.341-31.671-17.105-48.88-23.082c-85.734,7.638-153.172,79.872-153.172,167.56c0,92.756,75.463,168.218,168.218,168.218  c71.011,0,131.877-44.22,156.526-106.58C510.788,224.852,507.935,206.879,503.306,189.628z"/>
<path style="fill:#279FC9;" d="M316.468,239.689v16.185c0,5.224-8.119,9.456-18.129,9.456H176.922  c-12.633,0-24.325-3.49-30.741-9.164l-76.581-68.995l-0.481-14.576l-39.926-35.422c4.639-8.861,9.791-17.408,15.433-25.61  l57.407,50.928l25.579,6.886l60.677,54.899c4.169,3.688,11.776,5.956,19.989,5.956h90.06  C308.349,230.233,316.468,234.465,316.468,239.689z"/>
<path style="fill:#FCF8F2;" d="M199.126,168.27v19.853H8.401c2.236-6.758,4.911-13.384,7.993-19.853H199.126z"/>
<path style="fill:#5C5E70;" d="M316.468,224.141v25.997c0,8.391-6.802,15.193-15.182,15.193H199.596  c-10.585,0-20.376-5.601-25.746-14.723l-64.136-110.811l-0.408-23.427L40.918,0h37.094l58.859,100.143l21.431,11.065l50.813,88.179  c3.49,5.925,9.864,9.561,16.739,9.561h75.431C309.666,208.948,316.468,215.751,316.468,224.141z"/>
<path style="fill:#FF525D;" d="M278.019,208.948v56.383H199.6c-10.585,0-20.376-5.601-25.746-14.723l-64.136-110.811l-0.408-23.427  l27.564-16.227l21.431,11.065l50.813,88.179c3.49,5.925,9.864,9.561,16.739,9.561L278.019,208.948L278.019,208.948z"/>
<path style="fill:#5C5E70;" d="M451.291,240.138l18.526,9.143L369.685,422.275c-9.613,16.332-27.136,26.352-46.08,26.352h-182  c-15.005,0-27.178-12.173-27.178-27.188v-46.529c0-15.026,12.173-27.199,27.178-27.199h135.001c12.309,0,23.719-6.51,29.968-17.115  l76.089-132.044l17.241,16.165l63.707-108.523c13.019,18.004,23.751,37.763,31.775,58.859L451.291,240.138z"/>
<path style="fill:#797B89;" d="M269.297,397.612H149.322c-4.522,0-8.189-3.667-8.189-8.189v-13.402c0-4.522,3.667-8.189,8.189-8.189  h119.975c4.522,0,8.189,3.667,8.189,8.189v13.402C277.486,393.945,273.82,397.612,269.297,397.612z"/>
<path style="fill:#EDBB4C;" d="M469.817,249.281L369.685,422.275c-9.613,16.332-27.136,26.352-46.08,26.352H183.254V347.711h93.351  c12.309,0,23.719-6.51,29.968-17.115l76.089-132.044c8.182-14.2,26.373-18.996,40.5-10.689l36.091,21.232  c1.223,0.721,2.372,1.515,3.448,2.372C473.945,220.432,477.215,236.492,469.817,249.281z"/>
<path style="fill:#FFD15C;" d="M459.672,233.608L359.539,406.601c-9.613,16.332-27.136,26.352-46.08,26.352H183.254v-85.243h93.351  c12.309,0,23.719-6.51,29.968-17.115l76.089-132.044c8.182-14.2,26.373-18.996,40.5-10.689l36.091,21.232  c1.223,0.721,2.372,1.515,3.448,2.372C464.562,218.697,463.705,226.638,459.672,233.608z"/>
<path style="fill:#FFDC8D;" d="M277.483,376.017v13.406c0,4.524-3.668,8.192-8.182,8.192h-86.047v-29.78h86.047  C273.815,367.835,277.483,371.503,277.483,376.017z"/>
<path style="fill:#494B5B;" d="M70.607,302.008c0,21.64,17.542,39.182,39.182,39.182s39.182-17.542,39.182-39.182v-20.374H70.607  V302.008z"/>
<circle style="fill:#5C5E70;" cx="109.787" cy="281.631" r="39.182"/>
<g>
</g>
<g>
</g>
<g>
</g>
<g>
</g>
<g>
</g>
<g>
</g>
<g>
</g>
<g>
</g>
<g>
</g>
<g>
</g>
<g>
</g>
<g>
</g>
<g>
</g>
<g>
</g>
<g>
</g>
</svg>
