<?xml version="1.0" encoding="iso-8859-1"?>
<!-- Generator: Adobe Illustrator 19.0.0, SVG Export Plug-In . SVG Version: 6.00 Build 0)  -->
<svg xmlns="http://www.w3.org/2000/svg" xmlns:xlink="http://www.w3.org/1999/xlink" version="1.1" id="Capa_1" x="0px" y="0px" viewBox="0 0 512 512" style="enable-background:new 0 0 512 512;" xml:space="preserve">
<path style="fill:#5C5E70;" d="M512,256c0,44.147-11.17,85.692-30.845,121.94c-2.445,4.504-5.016,8.913-7.722,13.249  c-7.785,12.487-16.603,24.252-26.363,35.182c-15.214,17.063-32.684,32.068-51.942,44.544C355.077,496.912,307.304,512,256,512  c-11.024,0-21.88-0.7-32.538-2.048c-10.668-1.348-21.128-3.365-31.347-5.987c-5.527-1.421-10.992-3.02-16.374-4.807  c-8.38-2.759-16.583-5.945-24.555-9.529C83.414,459.18,31.295,400.102,10.209,327.795c-1.609-5.496-3.03-11.076-4.263-16.718  C2.048,293.334,0,274.913,0,256c0-33.458,6.416-65.432,18.098-94.73c10.48-26.29,25.182-50.427,43.29-71.586  C108.335,34.795,178.103,0,256,0C397.385,0,512,114.615,512,256z"/>
<g>
	<path style="fill:#797B89;" d="M410.216,64.325L410.216,64.325c0-6.588-5.342-11.93-11.93-11.93h-3.977   c-6.588,0-11.93-5.342-11.93-11.93l0,0c0-6.588-5.342-11.93-11.93-11.93H187.529c-6.588,0-11.93,5.342-11.93,11.93l0,0   c0,6.588,5.342,11.93,11.93,11.93h73.566c6.588,0,11.93,5.342,11.93,11.93l0,0c0,6.588-5.342,11.93-11.93,11.93h-33.506   c-6.588,0-11.93,5.342-11.93,11.93l0,0c0,6.588,5.342,11.93,11.93,11.93h10.122c6.588,0,11.93,5.342,11.93,11.93l0,0   c0,6.588-5.342,11.93-11.93,11.93h-36.264c-6.588,0-11.93,5.342-11.93,11.93l0,0c0,6.588,5.342,11.93,11.93,11.93h171.808   c6.588,0,11.93-5.342,11.93-11.93l0,0c0-6.588,5.342-11.93,11.93-11.93h1.172c6.588,0,11.93-5.342,11.93-11.93l0,0   c0-6.588-5.342-11.93-11.93-11.93h-21.871c-6.588,0-11.93-5.342-11.93-11.93l0,0c0-6.588,5.341-11.93,11.93-11.93h21.871   C404.875,76.255,410.216,70.914,410.216,64.325z"/>
	<path style="fill:#797B89;" d="M302.957,369.243L302.957,369.243c0-6.589-5.342-11.93-11.93-11.93H190.496   c-6.588,0-11.93,5.342-11.93,11.93l0,0c0,6.588,5.342,11.93,11.93,11.93h32.518c6.588,0,11.93,5.342,11.93,11.93l0,0   c0,6.588-5.342,11.93-11.93,11.93h-3.315c-6.588,0-11.93,5.342-11.93,11.93l0,0c0,6.588,5.342,11.93,11.93,11.93h96.351   c6.588,0,11.93-5.342,11.93-11.93l0,0c0-6.588,5.342-11.93,11.93-11.93h3.315c6.588,0,11.93-5.342,11.93-11.93l0,0   c0-6.588-5.342-11.93-11.93-11.93h-28.339C308.297,381.172,302.957,375.831,302.957,369.243z"/>
	<path style="fill:#797B89;" d="M123.517,149.337c0,6.583-5.339,11.933-11.922,11.933H18.098   c10.48-26.29,25.182-50.427,43.29-71.586h31.65c3.291,0,6.269,1.337,8.432,3.5c2.152,2.163,3.49,5.141,3.49,8.432   c0,6.593-5.339,11.933-11.922,11.933H54.585c-6.583,0-11.922,5.339-11.922,11.933c0,6.583,5.339,11.922,11.922,11.922h57.01   c3.291,0,6.269,1.337,8.432,3.49C122.18,143.057,123.517,146.045,123.517,149.337z"/>
	<path style="fill:#797B89;" d="M447.07,426.371c-15.214,17.063-32.684,32.068-51.942,44.544c-0.115-0.104-0.23-0.209-0.334-0.313   c-2.152-2.163-3.49-5.151-3.49-8.443c0-6.583-5.339-11.922-11.933-11.922h-18.892c-3.291,0-6.269-1.337-8.432-3.5   c-2.152-2.163-3.49-5.141-3.49-8.432c0-6.593,5.339-11.933,11.922-11.933H447.07z"/>
	<path style="fill:#797B89;" d="M460.031,261.704v-0.001c0-6.588-5.34-11.93-11.93-11.93H334.77c-6.588,0-11.93,5.34-11.93,11.93   v0.001c0,6.588,5.34,11.93,11.93,11.93h18.889c6.588,0,11.93,5.34,11.93,11.93v0.001c0,6.588,5.34,11.93,11.93,11.93h94.444   c6.588,0,11.93-5.34,11.93-11.93v-0.001c0-6.588-5.34-11.93-11.93-11.93l0,0C465.372,273.633,460.031,268.292,460.031,261.704z"/>
</g>
<path style="fill:#FFD15C;" d="M481.155,377.94c-2.445,4.504-5.016,8.913-7.722,13.249l-6.311-6.311l-25.663-25.663  c-2.894-2.894-2.894-7.586,0-10.48c0.993-0.993,2.194-1.651,3.469-1.954c2.435-0.606,5.11,0.042,7.011,1.954h0.01l12.831,12.831  L481.155,377.94z"/>
<g>
	
		<rect x="98.523" y="184.967" transform="matrix(-0.7071 -0.7071 0.7071 -0.7071 350.6948 530.0249)" style="fill:#F9EED7;" width="373.192" height="14.829"/>
	<circle style="fill:#F9EED7;" cx="153.172" cy="60.442" r="14.275"/>
</g>
<polygon style="fill:#EDBB4C;" points="464.778,361.563 467.126,384.882 441.46,359.216 446.978,339.436 451.944,348.729 "/>
<path style="fill:#34ABE0;" d="M476.341,324.333l-59.284,59.284c-16.369-16.369-16.369-42.915,0-59.284  c1.529-1.529,3.148-2.921,4.837-4.175h0.011C438.309,308.111,461.512,309.503,476.341,324.333z"/>
<path style="fill:#279FC9;" d="M435.571,365.103l-18.515,18.515c-16.369-16.369-16.369-42.915,0-59.284  c1.529-1.529,3.148-2.921,4.837-4.175C419.897,325.77,412.049,352.065,435.571,365.103z"/>
<circle style="fill:#78CAEF;" cx="445.127" cy="326.75" r="6.702"/>
<g>
	<path style="fill:#FCF8F2;" d="M255.164,82.84L10.209,327.795c-1.609-5.496-3.03-11.076-4.263-16.718L244.673,72.349L255.164,82.84   z"/>
	<circle style="fill:#FCF8F2;" cx="249.919" cy="77.594" r="14.275"/>
</g>
<path style="fill:#EDBB4C;" d="M285.815,95.949l-80.097,208.423c33.38-21.388,60.817-50.551,80.097-84.786"/>
<path style="fill:#E8DBC4;" d="M497.614,141.866c0,29.686-6.813,57.093-18.317,79.182c-15.757,30.25-40.312,50.521-68.242,52.987  c-1.912,0.178-3.845,0.261-5.789,0.261c-2.623,0-5.224-0.157-7.795-0.47c-5.371-0.648-10.616-1.944-15.684-3.856  c-11.734-65.985-3.072-218.154-0.669-255.958c5.277-2.058,10.752-3.448,16.353-4.117c2.57-0.313,5.172-0.47,7.795-0.47  c1.943,0,3.877,0.084,5.789,0.261c7.732,0.679,15.214,2.738,22.319,5.987C470.635,32.716,497.614,82.777,497.614,141.866z"/>
<path style="fill:#FFD15C;" d="M381.682,269.385v113.33c-60.646-21.786-101.094-79.287-101.094-143.736v-138.01  c0-27.355,12.748-51.733,32.632-67.5v-0.01c14.702-11.672,33.301-18.641,53.52-18.641h14.326l0.313,129.348l0.031,13.584  L381.682,269.385z"/>
<path style="fill:#EDBB4C;" d="M381.682,312.477v70.238c-60.646-21.786-101.094-79.287-101.094-143.736v-138.01  c0-27.355,12.748-51.733,32.632-67.5v186.358C313.221,238.634,327.233,302.728,381.682,312.477z"/>
<g>
	<path style="fill:#FF525D;" d="M381.682,335.903v14.597c-45.275-16.541-75.536-58.337-75.536-104.772v-95.232h13.584v95.232   C319.73,284.839,344.338,320.251,381.682,335.903z"/>
	<polygon style="fill:#FF525D;" points="381.411,157.748 280.589,157.748 280.589,144.165 381.379,144.165  "/>
	<path style="fill:#FF525D;" d="M411.054,9.686v264.349c-1.912,0.178-3.845,0.261-5.789,0.261c-2.623,0-5.224-0.157-7.795-0.47   V9.895c2.57-0.313,5.172-0.47,7.795-0.47C407.209,9.425,409.142,9.509,411.054,9.686z"/>
</g>
<g>
	<circle style="fill:#5C5E70;" cx="348.829" cy="125.513" r="7.582"/>
	<circle style="fill:#5C5E70;" cx="313.448" cy="125.513" r="7.582"/>
</g>
<path style="fill:#F9EED7;" d="M497.614,141.866c0,29.686-6.813,57.093-18.317,79.182c-33.75-16.102-58.493-68.995-58.493-131.772  c0-27.094,4.608-52.349,12.57-73.603C470.635,32.716,497.614,82.777,497.614,141.866z"/>
<g>
	<circle style="fill:#E8DBC4;" cx="438.92" cy="175.25" r="9.216"/>
	<circle style="fill:#E8DBC4;" cx="426.12" cy="144.311" r="9.216"/>
	<circle style="fill:#E8DBC4;" cx="456.714" cy="199.711" r="9.216"/>
	<circle style="fill:#E8DBC4;" cx="465.157" cy="175.25" r="9.216"/>
	<circle style="fill:#E8DBC4;" cx="454.687" cy="149.044" r="9.216"/>
	<circle style="fill:#E8DBC4;" cx="425.754" cy="112.703" r="9.216"/>
</g>
<g>
	<circle style="fill:#FCF8F2;" cx="470.267" cy="90.258" r="13.236"/>
	<circle style="fill:#FCF8F2;" cx="452.953" cy="63.206" r="8.947"/>
</g>
<path style="fill:#FFDC8D;" d="M362.289,31.747h-21.595c-5.001,0-9.056,4.054-9.056,9.056l0,0c0,5.001,4.054,9.056,9.056,9.056  h21.595c5.001,0,9.056-4.054,9.056-9.056l0,0C371.344,35.802,367.29,31.747,362.289,31.747z"/>
<path style="fill:#EDBB4C;" d="M251.548,262.22l83.854,218.199c-34.946-22.391-63.67-52.922-83.854-88.764L251.548,262.22  L251.548,262.22z"/>
<path style="fill:#E8DBC4;" d="M29.815,310.291c0,31.078,7.132,59.771,19.176,82.897c16.496,31.669,42.203,52.891,71.444,55.473  c2.002,0.186,4.026,0.274,6.06,0.274c2.746,0,5.47-0.164,8.161-0.492c5.623-0.678,11.114-2.034,16.42-4.036  c12.285-69.08,3.216-228.386,0.7-267.965c-5.524-2.155-11.257-3.61-17.12-4.31c-2.691-0.328-5.415-0.492-8.161-0.492  c-2.034,0-4.058,0.088-6.06,0.274c-8.095,0.712-15.927,2.866-23.366,6.268C58.06,196.021,29.815,248.43,29.815,310.291z"/>
<path style="fill:#FFD15C;" d="M257.024,267.473v144.488c0,36.342-12.288,70.572-33.562,97.991  c-10.668-1.348-21.128-3.365-31.347-5.987c-5.527-1.421-10.992-3.02-16.374-4.807c-8.38-2.759-16.583-5.945-24.555-9.529v-45.902  l0.282-116.809l0.031-14.221l0.334-135.241v-0.178h14.994c21.17,0,40.636,7.304,56.027,19.519v0.01  C243.67,213.316,257.024,238.832,257.024,267.473z"/>
<path style="fill:#EDBB4C;" d="M257.024,267.473v144.488c0,36.342-12.288,70.572-33.562,97.991  c-10.668-1.348-21.128-3.365-31.347-5.987c-5.527-1.421-10.992-3.02-16.374-4.807c-8.38-2.759-16.583-5.945-24.555-9.529v-0.721  c36.258-6.499,55.39-36.007,64.502-61.701c5.224-14.691,7.168-28.129,7.168-35.297V196.807  C243.67,213.316,257.024,238.832,257.024,267.473z"/>
<g>
	<path style="fill:#34ABE0;" d="M230.264,319.331v99.694c0,32.705-14.336,63.206-38.149,84.94   c-5.527-1.421-10.992-3.02-16.374-4.807c22.789-17.575,37.564-43.52,39.946-71.952c0.24-2.706,0.355-5.433,0.355-8.182v-99.694   H230.264z"/>
	<polygon style="fill:#34ABE0;" points="151.468,326.918 257.02,326.918 257.02,312.697 151.501,312.697  "/>
	<path style="fill:#34ABE0;" d="M120.434,171.911v276.749c2.002,0.186,4.026,0.274,6.06,0.274c2.746,0,5.47-0.164,8.161-0.492   V172.129c-2.691-0.328-5.415-0.492-8.161-0.492C124.46,171.637,122.436,171.725,120.434,171.911z"/>
</g>
<g>
	<circle style="fill:#5C5E70;" cx="185.574" cy="293.167" r="7.938"/>
	<circle style="fill:#5C5E70;" cx="222.626" cy="293.167" r="7.938"/>
</g>
<path style="fill:#F9EED7;" d="M29.815,310.291c0,31.078,7.132,59.771,19.176,82.897c35.333-16.857,61.237-72.231,61.237-137.953  c0-28.365-4.824-54.805-13.159-77.055C58.06,196.021,29.815,248.43,29.815,310.291z"/>
<g>
	<circle style="fill:#E8DBC4;" cx="91.261" cy="345.234" r="9.649"/>
	<circle style="fill:#E8DBC4;" cx="104.657" cy="312.853" r="9.649"/>
	<circle style="fill:#E8DBC4;" cx="72.641" cy="370.845" r="9.649"/>
	<circle style="fill:#E8DBC4;" cx="63.791" cy="345.234" r="9.649"/>
	<circle style="fill:#E8DBC4;" cx="74.752" cy="317.806" r="9.649"/>
	<circle style="fill:#E8DBC4;" cx="105.044" cy="279.761" r="9.649"/>
</g>
<g>
	<circle style="fill:#FCF8F2;" cx="58.45" cy="256.261" r="13.856"/>
	<circle style="fill:#FCF8F2;" cx="76.57" cy="227.934" r="9.366"/>
</g>
<path style="fill:#FFDC8D;" d="M171.062,195.007h23.457c5.001,0,9.056,4.054,9.056,9.056v0.85c0,5.001-4.054,9.056-9.056,9.056  h-23.457c-5.001,0-9.056-4.054-9.056-9.056v-0.85C162.006,199.061,166.06,195.007,171.062,195.007z"/>
<g>
</g>
<g>
</g>
<g>
</g>
<g>
</g>
<g>
</g>
<g>
</g>
<g>
</g>
<g>
</g>
<g>
</g>
<g>
</g>
<g>
</g>
<g>
</g>
<g>
</g>
<g>
</g>
<g>
</g>
</svg>
