<?xml version="1.0" encoding="iso-8859-1"?>
<!-- Generator: Adobe Illustrator 19.0.0, SVG Export Plug-In . SVG Version: 6.00 Build 0)  -->
<svg xmlns="http://www.w3.org/2000/svg" xmlns:xlink="http://www.w3.org/1999/xlink" version="1.1" id="Capa_1" x="0px" y="0px" viewBox="0 0 512 512" style="enable-background:new 0 0 512 512;" xml:space="preserve">
<path style="fill:#C69A6A;" d="M512,256c0,5.193-0.157,10.355-0.47,15.464v0.01c-2.508,42.224-15.256,81.69-35.798,115.952  C431,462.054,349.33,512,256,512C135.408,512,34.294,428.628,7.168,316.374C2.476,297.012,0,276.793,0,256  c0-46.508,12.403-90.122,34.085-127.707C78.305,51.608,161.123,0,256,0c121.919,0,223.922,85.222,249.71,199.346  c2.988,13.208,4.942,26.812,5.799,40.709C511.833,245.321,512,250.64,512,256z"/>
<path style="fill:#EDBB4C;" d="M327.467,284.182h-13.584v-74.56H200.457v74.56h-13.584V202.83c0-3.751,3.041-6.792,6.792-6.792  h127.008c3.751,0,6.792,3.041,6.792,6.792v81.352H327.467z"/>
<path style="fill:#FFD15C;" d="M375.4,364.534c0,65.296-52.935,118.23-118.23,118.23c-12.184,0-23.939-1.849-34.994-5.266  c-20.595-6.374-38.776-18.213-52.851-33.834c-6.029-6.687-11.306-14.075-15.694-22.026c-6.74-12.184-11.389-25.684-13.458-40.02  c-0.815-5.58-1.233-11.285-1.233-17.084c0-65.296,52.935-118.23,118.23-118.23c5.799,0,11.504,0.418,17.084,1.233  c14.336,2.069,27.836,6.719,40.02,13.458c7.952,4.389,15.339,9.665,22.026,15.694c15.621,14.075,27.46,32.256,33.834,52.851  C373.551,340.595,375.4,352.35,375.4,364.534z"/>
<circle style="fill:#FFDC8D;" cx="257.17" cy="364.534" r="80.351"/>
<polygon style="fill:#34ABE0;" points="471.594,0 319.509,209.502 319.039,210.139 192.042,210.139 192.512,209.502 256.01,122.044   344.597,0 "/>
<g>
	<path style="fill:#FFDC8D;" d="M314.274,260.995L153.631,421.637c-6.74-12.184-11.389-25.684-13.458-40.02l134.081-134.081   C288.59,249.605,302.09,254.255,314.274,260.995z"/>
	<path style="fill:#FFDC8D;" d="M370.134,329.54L222.177,477.497c-20.595-6.374-38.776-18.213-52.851-33.834L336.3,276.689   C351.922,290.764,363.76,308.945,370.134,329.54z"/>
</g>
<g>
	<polygon style="fill:#279FC9;" points="417.761,0 265.728,210.024 254.725,202.062 401,0  "/>
	<polyline style="fill:#279FC9;" points="256.005,122.043 167.4,0.001 40.403,0.001 192.507,209.501 192.959,210.145    319.034,210.145 319.956,210.145 319.504,209.501  "/>
</g>
<path style="fill:#EDBB4C;" d="M257.17,451.675c-48.05,0-87.141-39.092-87.141-87.142c0-48.05,39.092-87.141,87.141-87.141  s87.141,39.092,87.141,87.141C344.313,412.582,305.22,451.675,257.17,451.675z M257.17,290.974  c-40.56,0-73.558,32.998-73.558,73.558s32.998,73.559,73.558,73.559c40.56,0,73.558-32.999,73.558-73.559  S297.731,290.974,257.17,290.974z"/>
<g>
	<path style="fill:#B58657;" d="M511.53,271.475c-2.508,42.224-15.256,81.69-35.798,115.952h-68.587   c-5.193,0-9.895-2.1-13.302-5.507s-5.507-8.108-5.507-13.302c0-10.386,8.422-18.808,18.808-18.808h57.166   c5.193,0,9.895-2.1,13.302-5.507c3.396-3.406,5.507-8.108,5.507-13.302c0-10.386-8.422-18.808-18.808-18.808h-15.956   c-5.193,0-9.895-2.1-13.302-5.507s-5.507-8.108-5.507-13.302c0-10.386,8.422-18.808,18.808-18.808h52.82   C504.999,274.578,508.562,273.439,511.53,271.475z"/>
	<path style="fill:#B58657;" d="M501.175,236.962H385.202c-5.193,0-9.895-2.1-13.302-5.507c-3.406-3.406-5.507-8.108-5.507-13.302   c0-10.386,8.422-18.808,18.808-18.808H505.71c2.988,13.208,4.942,26.812,5.799,40.709   C508.541,238.101,504.989,236.962,501.175,236.962z"/>
	<path style="fill:#B58657;" d="M127.854,246.648c3.406,3.406,5.507,8.108,5.507,13.302c0,10.386-8.422,18.808-18.808,18.808h-1.839   c-5.193,0-9.895,2.1-13.302,5.507c-3.406,3.406-5.507,8.108-5.507,13.302c0,10.386-8.422,18.808-18.808,18.808H7.168   C2.476,297.012,0,276.793,0,256c0-46.508,12.403-90.122,34.085-127.707h36.592c5.193,0,9.895,2.1,13.302,5.507   c3.396,3.406,5.507,8.108,5.507,13.302c0,10.386,8.411,18.808,18.798,18.808h6.269c10.386,0,18.808,8.422,18.808,18.808   c0,10.386-8.422,18.808-18.808,18.808H80.081c-5.204,0-9.906,2.1-13.302,5.507c-3.406,3.406-5.507,8.108-5.507,13.302   c0,10.386,8.411,18.808,18.808,18.808h34.471C119.745,241.142,124.447,243.242,127.854,246.648z"/>
</g>
<g>
</g>
<g>
</g>
<g>
</g>
<g>
</g>
<g>
</g>
<g>
</g>
<g>
</g>
<g>
</g>
<g>
</g>
<g>
</g>
<g>
</g>
<g>
</g>
<g>
</g>
<g>
</g>
<g>
</g>
</svg>
