<?xml version="1.0" encoding="iso-8859-1"?>
<!-- Generator: Adobe Illustrator 19.0.0, SVG Export Plug-In . SVG Version: 6.00 Build 0)  -->
<svg xmlns="http://www.w3.org/2000/svg" xmlns:xlink="http://www.w3.org/1999/xlink" version="1.1" id="Capa_1" x="0px" y="0px" viewBox="0 0 512 512" style="enable-background:new 0 0 512 512;" xml:space="preserve">
<path style="fill:#F4A14E;" d="M512,256c0,26.666-4.075,52.37-11.64,76.538c-8.014,25.621-19.947,49.507-35.098,70.969  c-9.216,13.051-19.623,25.192-31.054,36.279c-34.137,33.102-77.458,56.779-125.774,66.831c-16.927,3.532-34.461,5.381-52.433,5.381  c-25.485,0-50.103-3.72-73.33-10.658c-29.247-8.725-56.299-22.538-80.133-40.416c-4.65-3.5-9.185-7.147-13.584-10.94  c-11.651-10.041-22.382-21.107-32.057-33.071C21.308,372.955,0.003,316.959,0.003,256c0-1.557,0.01-3.114,0.042-4.66  c0.146-7.983,0.648-15.872,1.515-23.656C15.645,99.622,124.188,0.002,256.002,0.002C397.386,0.002,512,114.616,512,256z"/>
<g>
	<path style="fill:#F9AF6B;" d="M320.954,128.672L320.954,128.672c0-6.532-5.296-11.827-11.827-11.827h-3.942   c-6.532,0-11.827-5.296-11.827-11.827l0,0c0-6.532-5.296-11.827-11.827-11.827H100.18c-6.532,0-11.827,5.296-11.827,11.827l0,0   c0,6.532,5.296,11.827,11.827,11.827h72.934c6.532,0,11.827,5.296,11.827,11.827l0,0c0,6.532-5.296,11.827-11.827,11.827h-33.218   c-6.532,0-11.827,5.296-11.827,11.827l0,0c0,6.532,5.296,11.827,11.827,11.827h10.035c6.532,0,11.827,5.296,11.827,11.827l0,0   c0,6.532-5.296,11.827-11.827,11.827h-35.953c-6.532,0-11.827,5.296-11.827,11.827l0,0c0,6.532,5.296,11.827,11.827,11.827h170.332   c6.532,0,11.827-5.296,11.827-11.827l0,0c0-6.532,5.296-11.827,11.827-11.827h1.162c6.532,0,11.827-5.296,11.827-11.827l0,0   c0-6.532-5.296-11.827-11.827-11.827h-21.684c-6.532,0-11.827-5.296-11.827-11.827l0,0c0-6.532,5.296-11.827,11.827-11.827h21.684   C315.659,140.499,320.954,135.204,320.954,128.672z"/>
	<path style="fill:#F9AF6B;" d="M500.36,332.538c-8.014,25.621-19.947,49.507-35.098,70.969h-5.935c-3.271,0-6.228-1.327-8.37-3.469   c-2.132-2.132-3.459-5.099-3.459-8.359c0-6.531,5.287-11.828,11.828-11.828h3.281c3.271,0,6.217-1.327,8.359-3.469   c2.142-2.132,3.469-5.099,3.469-8.359c0-6.531-5.298-11.828-11.828-11.828h-32.235c-3.26,0-6.228-1.327-8.359-3.469   c-2.142-2.132-3.469-5.099-3.469-8.359c0-6.531,5.298-11.828,11.828-11.828L500.36,332.538L500.36,332.538z"/>
	<path style="fill:#F9AF6B;" d="M160.425,263.158c0,6.541-5.287,11.828-11.828,11.828h-3.281c-3.271,0-6.217,1.327-8.359,3.469   c-2.142,2.132-3.469,5.099-3.469,8.359c0,6.531-5.298,11.828-11.828,11.828H26.136c-3.271,0-6.217-1.327-8.359-3.469   c-2.142-2.132-3.469-5.099-3.469-8.359c0-6.531,5.298-11.828,11.828-11.828h3.291c3.26,0,6.228-1.317,8.359-3.459   c2.142-2.142,3.469-5.099,3.469-8.37c0-6.531-5.298-11.818-11.828-11.818H0.045c0.146-7.983,0.648-15.872,1.515-23.656h95.294   c6.531,0,11.828,5.287,11.828,11.828c0,6.531,5.298,11.828,11.828,11.828h28.087c3.271,0,6.228,1.327,8.37,3.459   C159.098,256.94,160.425,259.897,160.425,263.158z"/>
	<path style="fill:#F9AF6B;" d="M310.775,70.453L310.775,70.453c0-6.532,5.296-11.827,11.827-11.827h38.112   c6.532,0,11.827-5.296,11.827-11.827l0,0c0-6.532-5.296-11.827-11.827-11.827H248.356c-6.532,0-11.827,5.296-11.827,11.827l0,0   c0,6.532-5.296,11.827-11.827,11.827h-38.112c-6.532,0-11.827,5.296-11.827,11.827l0,0c0,6.532,5.296,11.827,11.827,11.827h56.512   c6.532,0,11.827,5.296,11.827,11.827l0,0c0,6.532,5.296,11.827,11.827,11.827h112.358c6.532,0,11.827-5.296,11.827-11.827l0,0   c0-6.532-5.296-11.827-11.827-11.827h-56.512C316.07,82.281,310.775,76.985,310.775,70.453z"/>
</g>
<rect x="138.156" y="27.292" style="fill:#FF525D;" width="18.381" height="46.393"/>
<path style="fill:#5C5E70;" d="M138.157,40.052H79.071C35.399,40.052,0,75.451,0,119.116c0,21.475,8.56,40.947,22.451,55.195  c13.897,14.248,33.124,23.272,54.458,23.848c0,5.168,2.099,9.852,5.485,13.244c3.392,3.384,8.076,5.485,13.244,5.485h103.417  c10.343,0,18.729-8.384,18.729-18.729c21.334-0.576,40.561-9.599,54.45-23.848c13.897-14.248,22.457-33.721,22.457-55.195  c0-21.832-8.848-41.6-23.159-55.905c-14.312-14.312-34.072-23.159-55.911-23.159h-59.085v20.835h58.931  c32.156,0,58.229,26.074,58.229,58.229c0,16.081-6.517,30.638-17.057,41.178c-10.541,10.534-25.091,17.051-41.172,17.051H79.226  c-32.162,0-58.229-26.067-58.229-58.229c0-16.081,6.517-30.631,17.057-41.172c10.534-10.541,25.09-17.057,41.172-17.057h58.931  V40.052z"/>
<path style="fill:#FFD15C;" d="M509.273,297.801c-1.62,5.496-4.953,10.125-9.31,13.385c-4.357,3.26-9.738,5.141-15.464,5.141  H250.631c-8.202,0-16.227-2.591-22.8-7.502c-32.548-24.356-53.519-63.341-53.143-107.206  c0.637-73.445,62.641-132.137,136.087-131.165c64.992,0.867,116.213,24.283,140.716,63.362c0,0,3.271,5.862,5.674,10.606  c0.846,1.672,1.588,3.208,2.038,4.295l26.399,53.046c7.728,15.527,14.451,31.534,20.13,47.922l0,0l2.591,7.461  C512.878,270.268,513.202,284.479,509.273,297.801z"/>
<path style="fill:#34ABE0;" d="M505.731,249.684h-78.659c-24.962,0-47.563-10.115-63.916-26.478  c-16.4-16.4-26.524-39.056-26.478-64.085c0.015-8.154,6.725-14.72,14.879-14.72h105.586l0.021,0.021  c0.846,1.672,1.588,3.208,2.038,4.295l26.399,53.046C493.329,217.289,500.052,233.296,505.731,249.684L505.731,249.684z"/>
<circle style="fill:#5C5E70;" cx="302.277" cy="182.009" r="15.672"/>
<path style="fill:#78CAEF;" d="M462.886,234.501L462.886,234.501c-5.301,2.282-11.447-0.165-13.729-5.466l-24.79-57.584  c-2.282-5.301,0.165-11.447,5.466-13.729l0,0c5.301-2.282,11.447,0.165,13.729,5.466l24.79,57.584  C470.634,226.072,468.187,232.219,462.886,234.501z"/>
<path style="fill:#EDBB4C;" d="M407.699,316.327H250.631c-8.202,0-16.227-2.591-22.8-7.502  c-32.548-24.356-53.519-63.341-53.143-107.206c0.637-73.445,62.641-132.137,136.087-131.165c0,0-71.303,30.574-61.899,111.03  S330.899,316.327,407.699,316.327z"/>
<g>
	<circle style="fill:#FFDC8D;" cx="379.484" cy="118.793" r="15.673"/>
	<circle style="fill:#FFDC8D;" cx="483.973" cy="283.886" r="15.673"/>
	<circle style="fill:#FFDC8D;" cx="350.687" cy="104.614" r="9.991"/>
</g>
<g>
	<path style="fill:#494B5B;" d="M81.154,282.982c0,0.805,0.338,1.605,0.996,2.171l20.434,17.582v21.792l-20.434,17.583   c-1.198,1.031-1.333,2.839-0.303,4.038c1.031,1.199,2.839,1.334,4.037,0.303l22.425-19.296V300.11l-22.425-19.296   c-1.198-1.031-3.006-0.895-4.037,0.303C81.381,281.656,81.154,282.321,81.154,282.982z"/>
	
		<rect x="229.562" y="290.965" transform="matrix(0.1143 0.9934 -0.9934 0.1143 509.2025 16.5054)" style="fill:#494B5B;" width="31.565" height="5.726"/>
	
		<rect x="230.106" y="277.155" transform="matrix(0.9409 0.3386 -0.3386 0.9409 113.2351 -61.5317)" style="fill:#494B5B;" width="5.726" height="33.227"/>
	
		<rect x="242.494" y="317.697" transform="matrix(0.9934 0.1143 -0.1143 0.9934 39.7266 -25.8599)" style="fill:#494B5B;" width="5.726" height="31.565"/>
	
		<rect x="216.323" y="330.636" transform="matrix(0.3386 0.9409 -0.9409 0.3386 467.8602 1.3967)" style="fill:#494B5B;" width="33.227" height="5.726"/>
</g>
<path style="fill:#5C5E70;" d="M187.622,276.935v73.438H138.08c-13.426,0-24.309-10.884-24.309-24.309v-24.819  c0-13.426,10.884-24.309,24.309-24.309L187.622,276.935L187.622,276.935z"/>
<path style="fill:#EF4152;" d="M203.626,298.398v-7.572c0-7.535-6.025-13.68-13.553-13.837l-2.452-0.052  c-16.814-1.162-24.606,0.142-39.274,3.853c-3.185,0.806-6.331,1.776-9.416,2.907l-47.033,17.234  c-5.333,1.954-8.879,7.031-8.879,12.711l0,0c0,5.69,3.559,10.774,8.906,12.721l47.497,17.294c3.03,1.103,6.119,2.053,9.245,2.843  c14.431,3.649,21.947,4.957,38.515,3.876l2.893-0.06c7.529-0.156,13.553-6.305,13.553-13.836v-7.611"/>
<path style="fill:#FF525D;" d="M140.431,327.121l42.802,4.786c3.925,0.439,7.896,0.15,11.716-0.849l2.144-0.561  c22.528-5.901,31.339-8.617,54.627-8.525l45.036,0.047c4.644,0.018,8.417-3.741,8.417-8.384l0,0c0-4.644-3.773-8.402-8.417-8.384  l-45.036,0.196c-23.288,0.092-32.099-2.774-54.627-8.675l-2.144-0.561c-3.82-1.001-7.792-1.288-11.716-0.849l-42.802,4.786  c-6.869,0.768-12.064,6.577-12.064,13.488l0,0C128.367,320.545,133.562,326.353,140.431,327.121z"/>
<g>
	<path style="fill:#EF4152;" d="M274.957,321.925v15.052c0,2.433-1.972,4.405-4.405,4.405l0,0c-2.432,0-4.405,1.972-4.405,4.405   v13.026c0,2.433,1.972,4.405,4.405,4.405h16.193c2.433,0,4.405-1.972,4.405-4.405v-36.839L274.957,321.925z"/>
	<path style="fill:#EF4152;" d="M286.744,264.05h-16.193c-2.432,0-4.405,1.972-4.405,4.405v13.02c0,2.432,1.972,4.405,4.405,4.405   l0,0c2.433,0,4.405,1.972,4.405,4.405v15.052l16.193-0.048v-36.833C291.15,266.022,289.177,264.05,286.744,264.05z"/>
</g>
<path style="fill:#5C5E70;" d="M182.691,295.444l-17.968,1.986c-4.686,2.845-7.881,9.079-7.881,16.201  c0,4.546,1.3,8.73,3.458,11.902c1.22,1.801,2.722,3.273,4.418,4.304l17.972,1.986c1.33,0,2.626-0.141,3.872-0.414  c4.533-0.982,8.431-3.648,11.012-7.316c2.084-2.96,3.308-6.568,3.308-10.461s-1.225-7.501-3.308-10.461  c-0.608-0.859-1.282-1.66-2.022-2.401c-2.423-2.423-5.519-4.163-8.99-4.911C185.317,295.585,184.022,295.444,182.691,295.444z"/>
<path style="fill:#494B5B;" d="M182.691,295.444l-17.968,1.986c-4.686,2.845-7.881,9.079-7.881,16.201  c0,4.546,1.3,8.73,3.458,11.902c1.22,1.801,2.722,3.273,4.418,4.304l17.972,1.986c1.33,0,2.626-0.141,3.872-0.414v-35.552  C185.317,295.585,184.022,295.444,182.691,295.444z"/>
<g>
	<path style="fill:#FF6E7C;" d="M272.606,270.61L272.606,270.61c0,1.541,1.249,2.79,2.79,2.79h8.516c1.541,0,2.79-1.249,2.79-2.79   l0,0c0-1.541-1.249-2.79-2.79-2.79h-8.516C273.855,267.82,272.606,269.07,272.606,270.61z"/>
	<path style="fill:#FF6E7C;" d="M234.43,310.108L234.43,310.108c0,1.136,0.921,2.055,2.055,2.055h61.081   c1.136,0,2.055-0.921,2.055-2.055l0,0c0-1.136-0.921-2.055-2.055-2.055h-61.081C235.35,308.051,234.43,308.972,234.43,310.108z"/>
	<path style="fill:#FF6E7C;" d="M168.356,284.559L168.356,284.559c0,2.109,1.709,3.818,3.818,3.818h19.088   c2.109,0,3.818-1.709,3.818-3.818l0,0c0-2.109-1.709-3.818-3.818-3.818h-19.088C170.066,280.741,168.356,282.45,168.356,284.559z"/>
</g>
<path style="fill:#5C5E70;" d="M246.148,257.929h-21.015c-6.963,0-12.609,5.646-12.609,12.609l0,0  c0,6.963,5.646,12.609,12.609,12.609h21.015c6.963,0,12.609-5.646,12.609-12.609l0,0  C258.757,263.574,253.112,257.929,246.148,257.929z"/>
<path style="fill:#494B5B;" d="M223.391,265.928v9.22c0,4.418,3.581,7.999,7.999,7.999h-10.866c-4.418,0-7.999-3.581-7.999-7.999  v-9.22c0-4.418,3.581-7.999,7.999-7.999h10.866C226.971,257.929,223.391,261.51,223.391,265.928z"/>
<path style="fill:#797B89;" d="M246.764,266.133v8.809c0,1.46,1.183,2.643,2.643,2.643l0,0c1.46,0,2.643-1.183,2.643-2.643v-8.809  c0-1.46-1.183-2.643-2.643-2.643l0,0C247.948,263.49,246.764,264.674,246.764,266.133z"/>
<path style="fill:#5C5E70;" d="M246.148,344.119h-21.015c-6.963,0-12.609,5.646-12.609,12.609l0,0  c0,6.963,5.646,12.609,12.609,12.609h21.015c6.963,0,12.609-5.646,12.609-12.609l0,0  C258.757,349.763,253.112,344.119,246.148,344.119z"/>
<path style="fill:#494B5B;" d="M223.391,352.117v9.22c0,4.418,3.581,7.999,7.999,7.999h-10.866c-4.418,0-7.999-3.581-7.999-7.999  v-9.22c0-4.418,3.581-7.999,7.999-7.999h10.866C226.971,344.119,223.391,347.7,223.391,352.117z"/>
<path style="fill:#797B89;" d="M246.764,352.322v8.809c0,1.46,1.183,2.643,2.643,2.643l0,0c1.46,0,2.643-1.183,2.643-2.643v-8.809  c0-1.46-1.183-2.643-2.643-2.643l0,0C247.948,349.68,246.764,350.863,246.764,352.322z"/>
<path style="fill:#5C5E70;" d="M102.498,253.524h-22.47c-9.397,0-17.014,7.617-17.014,17.014l0,0  c0,9.397,7.617,17.014,17.014,17.014h22.469c3.727,0,6.749-3.022,6.749-6.749v-20.53  C109.247,256.545,106.225,253.524,102.498,253.524z"/>
<path style="fill:#494B5B;" d="M73.879,261.523v18.03c0,4.418,3.581,7.999,7.999,7.999H71.013c-4.418,0-7.999-3.581-7.999-7.999  v-18.03c0-4.418,3.581-7.999,7.999-7.999h10.865C77.461,253.524,73.879,257.105,73.879,261.523z"/>
<path style="fill:#797B89;" d="M97.253,261.728v17.62c0,1.46,1.183,2.643,2.643,2.643l0,0c1.46,0,2.643-1.183,2.643-2.643v-17.62  c0-1.46-1.183-2.643-2.643-2.643l0,0C98.436,259.086,97.253,260.268,97.253,261.728z"/>
<path style="fill:#5C5E70;" d="M102.498,339.714h-22.47c-9.397,0-17.014,7.617-17.014,17.014l0,0  c0,9.397,7.617,17.014,17.014,17.014h22.469c3.727,0,6.749-3.022,6.749-6.749v-20.53  C109.247,342.735,106.225,339.714,102.498,339.714z"/>
<path style="fill:#494B5B;" d="M73.879,347.712v18.03c0,4.418,3.581,7.999,7.999,7.999H71.013c-4.418,0-7.999-3.581-7.999-7.999  v-18.03c0-4.418,3.581-7.999,7.999-7.999h10.865C77.461,339.714,73.879,343.294,73.879,347.712z"/>
<path style="fill:#797B89;" d="M97.253,347.917v17.62c0,1.46,1.183,2.643,2.643,2.643l0,0c1.46,0,2.643-1.183,2.643-2.643v-17.62  c0-1.46-1.183-2.643-2.643-2.643l0,0C98.436,345.275,97.253,346.457,97.253,347.917z"/>
<path style="fill:#FF525D;" d="M81.779,279.768h-9.017c-2.506,0-4.538,2.031-4.538,4.538v56.564c0,2.506,2.031,4.538,4.538,4.538  h9.017c2.506,0,4.538-2.031,4.538-4.538v-56.564C86.317,281.799,84.286,279.768,81.779,279.768z"/>
<path style="fill:#FF6E7C;" d="M79.044,283.949L79.044,283.949c-1.876,0-3.396,1.52-3.396,3.396v15.673  c0,1.876,1.52,3.396,3.396,3.396l0,0c1.876,0,3.396-1.52,3.396-3.396v-15.673C82.44,285.469,80.92,283.949,79.044,283.949z"/>
<path style="fill:#E8DBC4;" d="M308.434,343.959v162.658c-16.927,3.532-34.461,5.381-52.433,5.381  c-25.485,0-50.103-3.72-73.33-10.658V343.959L308.434,343.959L308.434,343.959z"/>
<g>
	<path style="fill:#F9EED7;" d="M182.671,394.093v107.248c-3.093-0.92-6.165-1.902-9.216-2.936   c-4.942-1.682-9.822-3.521-14.628-5.496c-20.187-8.276-39.079-19.069-56.288-31.984c-4.65-3.5-9.185-7.147-13.584-10.94   c-11.651-10.041-22.382-21.107-32.057-33.071v-22.82L182.671,394.093L182.671,394.093z"/>
	<path style="fill:#F9EED7;" d="M434.208,369.632v70.154c-4.556,4.42-9.279,8.673-14.158,12.737   c-4.733,3.96-9.613,7.753-14.629,11.348c-28.505,20.543-61.387,35.338-96.987,42.747V369.632H434.208z"/>
</g>
<g>
	<rect x="112.984" y="416.044" style="fill:#5C5E70;" width="13.584" height="47.02"/>
	<path style="fill:#5C5E70;" d="M102.538,416.046v44.878c-4.65-3.5-9.185-7.147-13.584-10.94v-33.938H102.538z"/>
	<rect x="137.017" y="416.044" style="fill:#5C5E70;" width="13.584" height="47.02"/>
	<rect x="238.758" y="367.342" style="fill:#5C5E70;" width="13.584" height="47.02"/>
	<rect x="352.515" y="396.599" style="fill:#5C5E70;" width="13.584" height="47.02"/>
	<rect x="376.548" y="396.599" style="fill:#5C5E70;" width="13.584" height="47.02"/>
</g>
<path style="fill:#F9EED7;" d="M282.124,442.273L282.124,442.273c-4.04,0-7.314-3.275-7.314-7.314v-56.424  c0-4.04,3.275-7.314,7.314-7.314l0,0c4.04,0,7.314,3.275,7.314,7.314v56.424C289.438,438.998,286.163,442.273,282.124,442.273z"/>
<g>
	<path style="fill:#FCF8F2;" d="M420.05,411.971v40.552c-4.733,3.96-9.613,7.753-14.629,11.348v-51.9   c0-4.044,3.271-7.314,7.314-7.314c2.027,0,3.845,0.815,5.172,2.142C419.235,408.126,420.05,409.944,420.05,411.971z"/>
	<path style="fill:#FCF8F2;" d="M173.455,447.497v50.907c-4.942-1.682-9.822-3.521-14.628-5.496v-45.411   c0-4.044,3.271-7.314,7.314-7.314c2.027,0,3.845,0.815,5.172,2.142C172.64,443.652,173.455,445.47,173.455,447.497z"/>
</g>
<g>
</g>
<g>
</g>
<g>
</g>
<g>
</g>
<g>
</g>
<g>
</g>
<g>
</g>
<g>
</g>
<g>
</g>
<g>
</g>
<g>
</g>
<g>
</g>
<g>
</g>
<g>
</g>
<g>
</g>
</svg>
