<?xml version="1.0" encoding="iso-8859-1"?>
<!-- Generator: Adobe Illustrator 19.0.0, SVG Export Plug-In . SVG Version: 6.00 Build 0)  -->
<svg xmlns="http://www.w3.org/2000/svg" xmlns:xlink="http://www.w3.org/1999/xlink" version="1.1" id="Capa_1" x="0px" y="0px" viewBox="0 0 512 512" style="enable-background:new 0 0 512 512;" xml:space="preserve">
<path style="fill:#34ABE0;" d="M512,256c0,10.804-0.669,21.462-1.975,31.911c-0.564,4.598-1.254,9.153-2.079,13.667  c-3.939,21.985-10.7,42.998-19.874,62.652c-1.933,4.117-3.96,8.171-6.102,12.163c-2.978,5.601-6.165,11.065-9.55,16.405  c-4.232,6.687-8.767,13.155-13.584,19.404c-10.324,13.385-21.943,25.725-34.68,36.822c-4.702,4.106-9.55,8.035-14.545,11.786  c-6.52,4.89-13.27,9.488-20.25,13.751c-4.441,2.717-8.965,5.298-13.584,7.743c-21.525,11.421-44.868,19.853-69.486,24.754  c-4.483,0.899-9.017,1.672-13.584,2.33C280.722,511.112,268.466,512,256,512c-11.097,0-22.037-0.711-32.768-2.079  c-4.566-0.585-9.091-1.285-13.584-2.111c-24.566-4.483-47.909-12.487-69.486-23.458c-4.608-2.341-9.143-4.817-13.584-7.44  c-8.056-4.712-15.82-9.874-23.28-15.423c-5.392-4.012-10.627-8.244-15.684-12.664c-11.055-9.655-21.264-20.25-30.511-31.65  c-4.796-5.904-9.32-12.016-13.584-18.338c-4.566-6.781-8.829-13.803-12.737-21.034c-2.173-3.992-4.232-8.056-6.186-12.173  c-9.55-20.114-16.541-41.66-20.584-64.24c-0.825-4.598-1.526-9.237-2.09-13.918C0.648,277.159,0,266.658,0,256  c0-11.964,0.825-23.74,2.414-35.276c0.616-4.514,1.358-8.997,2.226-13.437c1.275-6.656,2.811-13.218,4.608-19.686  c2.351-8.547,5.151-16.917,8.349-25.078c3.751-9.55,8.056-18.829,12.894-27.773c15.464-28.724,36.268-54.147,61.074-74.961  C136.046,22.476,193.4,0,256,0c108.398,0,201.059,67.375,238.404,162.523c3.197,8.161,5.998,16.53,8.349,25.078  c1.808,6.531,3.365,13.166,4.65,19.895c0.867,4.472,1.609,8.986,2.226,13.531C511.195,232.469,512,244.14,512,256z"/>
<g>
	<path style="fill:#78CAEF;" d="M334.851,354.982L334.851,354.982c0-10.387,8.42-18.807,18.807-18.807h60.606   c10.387,0,18.807-8.42,18.807-18.807l0,0c0-10.387-8.42-18.807-18.807-18.807H235.596c-10.387,0-18.807,8.42-18.807,18.807l0,0   c0,10.387-8.42,18.807-18.807,18.807h-60.606c-10.387,0-18.807,8.42-18.807,18.807l0,0c0,10.387,8.42,18.807,18.807,18.807h89.863   c10.387,0,18.807,8.42,18.807,18.807l0,0c0,10.387,8.42,18.807,18.807,18.807h178.669c10.387,0,18.807-8.42,18.807-18.807l0,0   c0-10.387-8.42-18.807-18.807-18.807h-89.863C343.272,373.789,334.851,365.368,334.851,354.982z"/>
	<path style="fill:#78CAEF;" d="M201.331,116.214c0,10.386-8.422,18.808-18.808,18.808H33.635c-1.076,0-2.121-0.094-3.145-0.272   c15.464-28.724,36.268-54.147,61.074-74.961h53.353c10.386,0,18.798,8.422,18.798,18.808c0,5.193,2.111,9.895,5.507,13.302   c3.406,3.406,8.108,5.507,13.302,5.507s9.895,2.1,13.302,5.507C199.22,106.318,201.331,111.02,201.331,116.214z"/>
</g>
<path style="fill:#FFD15C;" d="M507.173,288.005c-13.793,0-26.331-6.144-34.753-16.938v-61.555  c9.843,7.471,21.88,11.567,34.743,11.567c0.01,0,0.01,0,0.01,0c0.825,0,1.641-0.021,2.456-0.052  c-0.616-4.545-1.358-9.059-2.226-13.531h-0.23c-14.493,0-27.606-6.771-36.007-18.61l-5.548-7.784l-5.538,7.795  c-3.908,5.507-8.84,9.916-14.472,13.061c-6.437,3.594-13.782,5.527-21.514,5.527c-14.482,0-27.606-6.771-35.965-18.557l-5.319-7.576  l-5.642,7.335l-0.146,0.209c-8.391,11.818-21.504,18.589-35.997,18.589c-14.482,0-27.596-6.781-35.944-18.526l-5.517-7.973  l-5.611,7.899c-8.38,11.818-21.494,18.589-35.986,18.599c-14.482,0-27.606-6.781-35.986-18.599l-5.695-7.576l-5.392,7.586  c-8.391,11.818-21.504,18.589-35.986,18.589c-3.793,0-7.492-0.46-11.034-1.369c-10-2.518-18.766-8.495-24.963-17.22l-0.418-0.596  l-6.207-5.684l-4.451,6.269c-8.391,11.818-21.504,18.599-35.997,18.599c-14.482,0-27.606-6.781-35.986-18.599l-5.538-7.795  l-5.538,7.795c-8.391,11.818-21.504,18.589-35.997,18.589c-1.39,0-2.769-0.063-4.138-0.188c-0.867,4.441-1.609,8.923-2.226,13.437  c2.09,0.23,4.221,0.345,6.363,0.345c6.437,0,12.664-1.024,18.505-2.978c5.851-1.954,11.316-4.848,16.238-8.579v61.544  c-8.411,10.783-20.95,16.938-34.743,16.938c-2.32,0-4.618-0.178-6.855-0.522c0.564,4.681,1.264,9.32,2.09,13.918  c1.578,0.125,3.166,0.188,4.765,0.188c6.437,0,12.654-1.024,18.505-2.978c5.841-1.964,11.316-4.848,16.238-8.579v61.555  c-5.036,6.457-11.546,11.243-18.923,14.054c1.954,4.117,4.012,8.182,6.186,12.173c4.535-1.849,8.808-4.295,12.737-7.272v28.306  c4.263,6.322,8.788,12.434,13.584,18.338v-46.644c9.832,7.461,21.87,11.557,34.732,11.557c6.437,0,12.664-1.024,18.516-2.978  c5.841-1.954,11.316-4.848,16.227-8.579v61.544c-8.401,10.783-20.94,16.948-34.743,16.948c-1.421,0-2.832-0.063-4.221-0.199  c5.057,4.42,10.292,8.652,15.684,12.664c2.403-0.47,4.754-1.097,7.053-1.86c5.841-1.964,11.316-4.859,16.227-8.589v25.872  c4.441,2.623,8.976,5.099,13.584,7.44v-33.301c9.843,7.461,21.87,11.557,34.743,11.557c12.863,0,24.9-4.096,34.743-11.557v56.759  c4.493,0.825,9.017,1.526,13.584,2.111v-58.87c9.832,7.461,21.87,11.557,34.732,11.557c12.873,0,24.91-4.096,34.743-11.567v58.347  c4.566-0.658,9.101-1.431,13.584-2.33v-56.007c9.832,7.461,21.87,11.557,34.732,11.557c6.437,0,12.664-1.024,18.516-2.978  c5.841-1.954,11.316-4.848,16.238-8.579v31.253c4.618-2.445,9.143-5.026,13.584-7.743v-23.51c6.029,4.577,12.884,7.879,20.25,9.759  c4.995-3.751,9.843-7.68,14.545-11.786h-0.063c-13.793,0-26.342-6.154-34.732-16.927v-61.555  c9.832,7.461,21.87,11.557,34.732,11.557c12.873,0,24.91-4.096,34.743-11.557v41.66c4.817-6.248,9.352-12.716,13.584-19.404v-22.256  c2.999,2.267,6.186,4.232,9.55,5.851c2.142-3.992,4.169-8.046,6.102-12.163c-6.029-2.884-11.368-7.168-15.653-12.654v-61.544  c9.843,7.461,21.88,11.557,34.743,11.557c0.01,0,0.01,0,0.01,0c0.261,0,0.522,0,0.773-0.01c0.825-4.514,1.515-9.07,2.079-13.667  C509.085,287.974,508.134,288.005,507.173,288.005z M126.579,351.566c-8.401,10.783-20.95,16.938-34.743,16.938  c-13.782,0-26.321-6.144-34.732-16.927v-61.555c9.832,7.461,21.87,11.557,34.732,11.557c6.437,0,12.664-1.024,18.516-2.978  c5.841-1.964,11.316-4.848,16.227-8.579V351.566z M126.579,271.047c-8.401,10.794-20.94,16.948-34.743,16.948  c-13.782,0-26.321-6.154-34.732-16.927v-61.555c9.832,7.461,21.87,11.557,34.732,11.557c12.873,0,24.91-4.096,34.743-11.567V271.047  z M306.291,209.512c9.832,7.461,21.87,11.557,34.732,11.557c12.873,0,24.91-4.096,34.753-11.567v61.555  c-8.411,10.783-20.95,16.938-34.753,16.938s-26.363-6.165-34.732-16.917V209.512z M223.232,209.512  c9.832,7.461,21.87,11.557,34.732,11.557c12.873,0,24.91-4.096,34.743-11.567v61.555c-8.401,10.783-20.95,16.938-34.743,16.938  s-26.331-6.154-34.732-16.938V209.512z M223.232,290.022c9.832,7.461,21.87,11.557,34.732,11.557  c12.873,0,24.91-4.096,34.743-11.557v61.544c-2.257,2.894-4.817,5.465-7.617,7.659c-7.617,5.987-17.042,9.279-27.126,9.279  c-13.793,0-26.331-6.144-34.732-16.927V290.022z M140.163,209.512c6.813,5.162,14.67,8.714,23.134,10.407  c3.762,0.763,7.649,1.149,11.609,1.149c12.863,0,24.9-4.096,34.743-11.557v61.544c-7.158,9.174-17.303,15.005-28.672,16.53  c-1.985,0.272-4.012,0.408-6.071,0.408c-13.782,0-26.321-6.134-34.743-16.927V209.512z M209.648,432.086  c-8.411,10.783-20.95,16.938-34.743,16.938c-13.782,0-26.321-6.144-34.743-16.927v-61.555c9.843,7.461,21.87,11.557,34.743,11.557  c12.863,0,24.9-4.096,34.743-11.557V432.086z M209.648,351.577c-8.411,10.783-20.95,16.938-34.743,16.938  s-26.331-6.154-34.743-16.927v-61.555c9.843,7.461,21.87,11.546,34.743,11.546c4.723,0,9.341-0.554,13.782-1.63  c7.628-1.839,14.733-5.204,20.961-9.927V351.577z M292.707,432.076c-8.401,10.794-20.95,16.948-34.743,16.948  s-26.331-6.154-34.732-16.938v-61.544c9.832,7.45,21.87,11.546,34.732,11.546c12.873,0,24.91-4.096,34.743-11.557V432.076z   M375.777,432.086c-8.411,10.783-20.95,16.938-34.753,16.938s-26.363-6.165-34.732-16.927v-61.555  c9.832,7.461,21.87,11.557,34.732,11.557c12.873,0,24.91-4.096,34.753-11.567V432.086z M375.777,351.566  c-8.411,10.794-20.95,16.948-34.753,16.948c-9.509,0-18.432-2.936-25.799-8.276c-3.323-2.414-6.332-5.308-8.934-8.652v-61.555  c9.832,7.461,21.87,11.546,34.732,11.546c6.437,0,12.664-1.024,18.516-2.978c5.841-1.964,11.316-4.848,16.238-8.579V351.566z   M458.836,351.577c-8.411,10.783-20.95,16.938-34.743,16.938c-13.793,0-26.342-6.154-34.732-16.927v-61.555  c8.819,6.698,19.425,10.668,30.804,11.421c1.296,0.084,2.612,0.125,3.929,0.125c12.873,0,24.91-4.086,34.743-11.557L458.836,351.577  L458.836,351.577z M458.836,271.067c-7.429,9.529-18.087,15.433-29.989,16.677c-1.567,0.167-3.156,0.251-4.754,0.251  c-13.793,0-26.342-6.154-34.732-16.927v-61.555c9.832,7.461,21.87,11.557,34.732,11.557c7.931,0,15.538-1.557,22.507-4.483  c4.357-1.839,8.464-4.211,12.236-7.074V271.067z"/>
<path style="fill:#797B89;" d="M502.753,192.825H9.247c2.351-8.547,5.151-16.917,8.349-25.078h476.808  C497.601,175.909,500.402,184.278,502.753,192.825z"/>
<path style="fill:#EDBB4C;" d="M389.36,271.067v-61.555c9.832,7.461,21.87,11.557,34.732,11.557c7.931,0,15.538-1.557,22.507-4.483  c-0.084-4.942-0.408-9.822-0.993-14.629c-6.437,3.594-13.782,5.527-21.514,5.527c-14.482,0-27.606-6.771-35.965-18.557l-5.319-7.576  l-5.642,7.335l-0.146,0.209c-8.391,11.818-21.504,18.589-35.997,18.589c-14.482,0-27.596-6.781-35.944-18.526l-5.517-7.973  l-5.611,7.899c-8.38,11.818-21.494,18.589-35.986,18.599c-14.482,0-27.606-6.781-35.986-18.599l-5.695-7.576l-5.392,7.586  c-8.391,11.818-21.504,18.589-35.986,18.589c-3.793,0-7.492-0.46-11.034-1.369c-0.387,4.221-0.585,8.495-0.585,12.821  c0,0.324,0,0.658,0.01,0.982c3.762,0.763,7.649,1.149,11.609,1.149c12.863,0,24.9-4.096,34.743-11.557v61.544  c-7.158,9.174-17.303,15.005-28.672,16.53c2.361,4.263,4.932,8.391,7.711,12.361c7.628-1.839,14.733-5.204,20.961-9.927v33.782  c4.295,3.908,8.829,7.555,13.584,10.919v-44.701c9.832,7.461,21.87,11.557,34.732,11.557c12.873,0,24.91-4.096,34.743-11.557v61.544  c-2.257,2.894-4.817,5.465-7.617,7.659c4.89,0.69,9.874,1.128,14.921,1.296c1.641,0.073,3.291,0.094,4.953,0.094  s3.302-0.021,4.953-0.094c1.776-0.063,3.553-0.157,5.308-0.282c-3.323-2.414-6.332-5.308-8.934-8.652v-61.555  c9.832,7.461,21.87,11.546,34.732,11.546c6.437,0,12.664-1.024,18.516-2.978c5.841-1.964,11.316-4.848,16.238-8.579v51.67  c4.713-2.717,9.247-5.695,13.584-8.934v-42.726c8.819,6.698,19.425,10.668,30.804,11.421c3.145-4.389,6.05-8.965,8.683-13.709  c-1.567,0.167-3.156,0.251-4.754,0.251C410.3,287.995,397.751,281.84,389.36,271.067z M292.707,271.057  c-8.401,10.783-20.95,16.938-34.743,16.938s-26.331-6.154-34.732-16.938v-61.544c9.832,7.461,21.87,11.557,34.732,11.557  c12.873,0,24.91-4.096,34.743-11.567V271.057z M375.777,271.057c-8.411,10.783-20.95,16.938-34.753,16.938  s-26.363-6.165-34.732-16.917v-61.565c9.832,7.461,21.87,11.557,34.732,11.557c12.873,0,24.91-4.096,34.753-11.567V271.057z"/>
<path style="fill:#F9EED7;" d="M498.425,146.319c0,32.44-10.875,62.316-29.182,86.184c-4.038,5.264-8.435,10.243-13.167,14.889  c-12.039,11.842-26.198,21.528-41.841,28.477c-3.431,1.523-6.936,2.924-10.516,4.162c-13.204,4.645-27.324,7.37-42.003,7.865  c-1.648,0.074-3.295,0.099-4.955,0.099c-1.659,0-3.307-0.025-4.955-0.099c-57.089-1.945-105.544-37.592-126.131-87.695  c-2.501-6.081-4.595-12.386-6.231-18.865c-2.848-11.197-4.36-22.927-4.36-35.017c0-5.215,0.285-10.355,0.842-15.422  c0.396-3.777,0.954-7.518,1.659-11.197c2.675-14.17,7.469-27.584,14.034-39.909c1.561-2.923,3.208-5.785,4.966-8.571  c25.02-39.996,69.463-66.564,120.173-66.564c6.354,0,12.621,0.421,18.753,1.238c6.664,0.867,13.179,2.217,19.521,4.001  c16.598,4.621,31.957,12.2,45.482,22.134c3.059,2.23,6.007,4.583,8.869,7.048c10.702,9.253,20.004,20.09,27.535,32.143  c1.759,2.787,3.406,5.649,4.967,8.571C492.442,99.623,498.425,122.265,498.425,146.319z"/>
<g>
	<path style="fill:#E8DBC4;" d="M450.128,250.412c-11.655,4.1-24.119,6.506-37.075,6.942c-1.454,0.066-2.908,0.088-4.373,0.088   s-2.919-0.022-4.374-0.088c-50.392-1.717-93.164-33.183-111.335-77.408c-2.209-5.369-4.056-10.934-5.499-16.652   c-2.515-9.884-3.848-20.238-3.848-30.909c0-4.603,0.252-9.141,0.743-13.612c0.35-3.334,0.842-6.636,1.465-9.884   c2.361-12.507,6.593-24.348,12.387-35.228c1.377-2.58,2.832-5.105,4.384-7.566c19.02-30.404,50.761-52.002,87.794-57.416   c-4.869-1.19-9.834-2.127-14.885-2.785c-6.131-0.817-12.399-1.238-18.753-1.238c-50.71,0-95.153,26.569-120.173,66.564   c-1.759,2.787-3.406,5.649-4.966,8.571c-6.565,12.325-11.358,25.739-14.034,39.909c-0.706,3.679-1.263,7.42-1.659,11.197   c-0.557,5.066-0.842,10.207-0.842,15.422c0,12.089,1.511,23.82,4.36,35.017c1.635,6.478,3.728,12.782,6.231,18.865   c20.587,50.103,69.042,85.751,126.131,87.695c1.648,0.074,3.295,0.099,4.955,0.099s3.307-0.025,4.955-0.099   c14.678-0.495,28.798-3.22,42.003-7.865c3.58-1.238,7.085-2.638,10.516-4.162c15.04-6.681,28.686-15.914,40.418-27.137   C453.159,249.321,451.652,249.884,450.128,250.412z"/>
	<path style="fill:#E8DBC4;" d="M464.486,89.837c11.593,46.647,13.179,95.449,4.756,142.666   c-4.038,5.264-8.435,10.243-13.167,14.889c10.987-47.353,11.421-96.85,1.288-144.363c-0.569-2.687-1.164-5.363-1.809-8.026   l-38.745,22.37l-3.914,2.266c6.329,45.619,7.432,91.759,3.307,137.563c-0.557,6.231-1.214,12.448-1.97,18.666   c-3.431,1.523-6.936,2.924-10.516,4.162c0.978-7.531,1.821-15.062,2.514-22.618c4.05-44.083,3.171-88.476-2.626-132.423   l-41.891,24.19v138.715c-1.648,0.074-3.295,0.099-4.955,0.099c-1.659,0-3.307-0.025-4.955-0.099v-19.929   c-46.313-13.427-89.442-36.639-126.131-67.766c-2.501-6.081-4.595-12.386-6.231-18.865c37.494,35.301,83.025,61.536,132.361,76.301   v-49.286c-20.029-8.199-39.574-17.452-58.551-27.709c-26.977-14.591-52.815-31.202-77.329-49.743   c0.396-3.777,0.954-7.518,1.659-11.197c22.481,17.316,46.127,32.985,70.776,46.895c20.487,11.582,41.667,21.924,63.443,31.016   v-48.431l-66.329-38.299l-53.856-31.09c1.561-2.923,3.208-5.785,4.966-8.571l17.316,9.995   c34.731-33.356,76.35-59.095,121.609-75.321c0.954,0.124,1.908,0.26,2.861,0.409c0.706,0.099,1.412,0.211,2.105,0.334   c0.83,0.136,1.648,0.285,2.465,0.434c1.337,0.248,2.663,0.52,3.988,0.817c0.495,0.099,0.991,0.211,1.487,0.322   c0.669,0.148,1.325,0.309,1.97,0.47c1.561,0.372,3.109,0.781,4.645,1.214c-25.244,7.605-49.483,18.208-72.163,31.511   c-21.602,12.646-41.779,27.746-60.037,44.976l24.835,14.331l17.849,10.306c23.336-18.072,47.923-34.384,73.563-48.827   c8.188-4.608,16.486-9.043,24.884-13.266c11.99-6.032,24.178-11.668,36.553-16.895c3.059,2.23,6.007,4.583,8.869,7.048   c-14.529,5.983-28.786,12.522-42.758,19.62c-7.048,3.58-14.021,7.295-20.908,11.148c-24.673,13.786-48.368,29.331-70.899,46.536   l41.94,24.216l51.998-30.025l48.715-28.117L476.92,71.22c1.759,2.787,3.406,5.649,4.967,8.571L464.486,89.837z"/>
</g>
<g>
	<path style="fill:#D6C8B0;" d="M285.478,110.881l-53.856-31.09c1.561-2.923,3.208-5.785,4.966-8.571l17.316,9.995   c34.731-33.356,76.35-59.095,121.609-75.321c0.954,0.124,1.908,0.26,2.861,0.409c0.706,0.099,1.412,0.211,2.105,0.334   c0.83,0.136,1.648,0.285,2.465,0.434c1.337,0.248,2.663,0.52,3.988,0.817c0.495,0.099,0.991,0.211,1.487,0.322   c0.669,0.148,1.325,0.309,1.97,0.47c-25.962,3.802-49.322,15.545-67.518,32.725c-21.602,12.646-41.779,27.746-60.037,44.976   l24.835,14.331c-0.706,2.687-1.313,5.413-1.833,8.175C285.713,109.557,285.589,110.213,285.478,110.881z"/>
	<path style="fill:#D6C8B0;" d="M293.256,180.642c-26.977-14.591-52.815-31.202-77.329-49.743c0.396-3.777,0.954-7.518,1.659-11.197   c22.481,17.316,46.127,32.985,70.776,46.895c1.288,4.558,2.824,9.017,4.608,13.353   C293.071,180.183,293.158,180.407,293.256,180.642z"/>
	<path style="fill:#D6C8B0;" d="M351.807,243.812c3.22,1.648,6.527,3.159,9.909,4.521v39.562c-1.648,0.074-3.295,0.099-4.955,0.099   c-1.659,0-3.307-0.025-4.955-0.099v-19.929c-46.313-13.427-89.442-36.639-126.131-67.766c-2.501-6.081-4.595-12.386-6.231-18.865   c37.494,35.301,83.025,61.536,132.361,76.301v-13.824H351.807z"/>
	<path style="fill:#D6C8B0;" d="M416.204,257.203c-0.557,6.231-1.214,12.448-1.97,18.666c-3.431,1.523-6.936,2.924-10.516,4.162   c0.978-7.531,1.821-15.062,2.514-22.618c0.806,0.025,1.623,0.025,2.452,0.025c1.462,0,2.911-0.013,4.373-0.087   C414.111,257.313,415.163,257.264,416.204,257.203z"/>
</g>
<g>
	<circle style="fill:#FCF8F2;" cx="430.853" cy="92.599" r="28.494"/>
	<circle style="fill:#FCF8F2;" cx="392.464" cy="57.298" r="14.244"/>
</g>
<g>
	<path style="fill:#F9EED7;" d="M459.345,92.599c0,3.679-0.706,7.196-1.982,10.429c-0.569-2.687-1.164-5.363-1.809-8.026   l-38.745,22.37c-3.097-1.735-5.821-4.063-8.051-6.8l48.715-28.117C458.689,85.601,459.345,89.032,459.345,92.599z"/>
	<path style="fill:#F9EED7;" d="M406.704,57.298c0,0.47-0.025,0.941-0.074,1.4c-7.048,3.58-14.021,7.295-20.908,11.148   c-3.059-1.635-5.438-4.373-6.639-7.655c8.188-4.608,16.486-9.043,24.884-13.266C405.688,51.266,406.704,54.164,406.704,57.298z"/>
</g>
<g>
</g>
<g>
</g>
<g>
</g>
<g>
</g>
<g>
</g>
<g>
</g>
<g>
</g>
<g>
</g>
<g>
</g>
<g>
</g>
<g>
</g>
<g>
</g>
<g>
</g>
<g>
</g>
<g>
</g>
</svg>
