<?xml version="1.0" encoding="iso-8859-1"?>
<!-- Generator: Adobe Illustrator 19.0.0, SVG Export Plug-In . SVG Version: 6.00 Build 0)  -->
<svg xmlns="http://www.w3.org/2000/svg" xmlns:xlink="http://www.w3.org/1999/xlink" version="1.1" id="Capa_1" x="0px" y="0px" viewBox="0 0 512 512" style="enable-background:new 0 0 512 512;" xml:space="preserve">
<path style="fill:#C69A6A;" d="M512,256c0,16.666-1.599,32.967-4.639,48.744c-3.971,20.626-10.428,40.375-19.038,58.911  c-2.508,5.413-5.204,10.721-8.077,15.924c-4.995,9.059-10.533,17.784-16.562,26.122c-31.096,43.081-75.274,76.089-126.704,93.226  c-18.536,6.175-38.024,10.292-58.169,12.069C271.297,511.666,263.69,512,256,512c-1.055,0-2.111-0.01-3.166-0.021  c-3.03-0.031-6.06-0.125-9.07-0.272c-4.545-0.209-9.059-0.543-13.542-0.982c-26.039-2.612-50.928-9.112-74.073-18.923  c-12.121-5.151-23.771-11.191-34.858-18.077c-10.407-6.447-20.313-13.625-29.654-21.452c-16.29-13.657-30.856-29.299-43.311-46.571  c-6.04-8.338-11.567-17.063-16.562-26.122c-9.017-16.311-16.3-33.719-21.598-51.963c-4.493-15.412-7.565-31.431-9.07-47.898  C0.366,271.914,0,263.993,0,256c0-9.853,0.554-19.571,1.64-29.132c2.132-18.787,6.29-36.968,12.278-54.303  c6.656-19.362,15.59-37.669,26.457-54.617c5.486-8.558,11.473-16.76,17.91-24.576c4.2-5.11,8.6-10.041,13.187-14.806  c1.87-1.954,3.783-3.877,5.726-5.778C123.34,27.752,186.42,0,256,0C397.385,0,512,114.615,512,256z"/>
<g>
	<path style="fill:#D3AA81;" d="M406.42,65.089L406.42,65.089c0-8.135-6.594-14.728-14.728-14.728h-4.909   c-8.135,0-14.728-6.594-14.728-14.728l0,0c0-8.135-6.594-14.728-14.728-14.728H131.495c-8.135,0-14.728,6.594-14.728,14.728l0,0   c0,8.135,6.594,14.728,14.728,14.728h90.824c8.135,0,14.728,6.594,14.728,14.728l0,0c0,8.135-6.594,14.728-14.728,14.728h-41.365   c-8.135,0-14.728,6.594-14.728,14.728l0,0c0,8.135,6.594,14.728,14.728,14.728h12.496c8.135,0,14.728,6.594,14.728,14.728l0,0   c0,8.135-6.594,14.728-14.728,14.728h-44.771c-8.135,0-14.728,6.594-14.728,14.728l0,0c0,8.135,6.594,14.728,14.728,14.728H360.79   c8.135,0,14.728-6.594,14.728-14.728l0,0c0-8.135,6.594-14.728,14.728-14.728h1.447c8.135,0,14.728-6.594,14.728-14.728l0,0   c0-8.135-6.594-14.728-14.728-14.728h-27.001c-8.135,0-14.728-6.594-14.728-14.728l0,0c0-8.135,6.594-14.728,14.728-14.728h27.001   C399.826,79.817,406.42,73.223,406.42,65.089z"/>
	<path style="fill:#D3AA81;" d="M507.361,304.744c-3.971,20.626-10.428,40.375-19.038,58.911H376.926   c-4.065,0-7.743-1.651-10.407-4.315s-4.315-6.343-4.315-10.407c0-8.14,6.593-14.733,14.723-14.733h4.096   c4.065,0,7.753-1.651,10.418-4.315c2.664-2.664,4.315-6.343,4.315-10.407c0-8.14-6.593-14.733-14.733-14.733h-40.145   c-4.065,0-7.743-1.651-10.418-4.315c-2.664-2.664-4.315-6.343-4.315-10.407c0-8.14,6.604-14.733,14.733-14.733H464.99   c8.129,0,14.733,6.593,14.733,14.733c0,8.129,6.593,14.723,14.723,14.723H507.361z"/>
	<path style="fill:#D3AA81;" d="M170.898,385.438L170.898,385.438c0,8.135-6.594,14.728-14.728,14.728h-47.461   c-8.135,0-14.728,6.594-14.728,14.728l0,0c0,8.135,6.594,14.728,14.728,14.728h139.917c8.135,0,14.728-6.594,14.728-14.728l0,0   c0-8.135,6.594-14.728,14.728-14.728h47.461c8.135,0,14.728-6.594,14.728-14.728l0,0c0-8.135-6.594-14.728-14.728-14.728H255.17   c-8.135,0-14.728-6.594-14.728-14.728l0,0c0-8.135-6.594-14.728-14.728-14.728H85.797c-8.135,0-14.728,6.594-14.728,14.728l0,0   c0,8.135,6.594,14.728,14.728,14.728h70.373C164.304,370.71,170.898,377.304,170.898,385.438z"/>
</g>
<g>
	<path style="fill:#FCF8F2;" d="M125.388,379.58v26.122H48.327c-6.04-8.338-11.567-17.063-16.562-26.122H125.388z"/>
	<rect x="196.441" y="379.58" style="fill:#FCF8F2;" width="125.388" height="26.122"/>
	<path style="fill:#FCF8F2;" d="M480.246,379.58c-4.995,9.059-10.533,17.784-16.562,26.122h-70.802V379.58H480.246z"/>
</g>
<circle style="fill:#494B5B;" cx="424.239" cy="253.827" r="87.761"/>
<circle style="fill:#F9EED7;" cx="424.239" cy="253.827" r="58.129"/>
<path style="fill:#494B5B;" d="M140.904,251.089c0,48.462-39.299,87.761-87.761,87.761c-15.621,0-30.281-4.075-42.977-11.233  c-4.493-15.412-7.565-31.431-9.07-47.898C0.366,271.914,0,263.993,0,256c0-9.853,0.554-19.571,1.64-29.132  c2.132-18.787,6.29-36.968,12.278-54.303c11.807-5.914,25.119-9.237,39.225-9.237C101.606,163.328,140.904,202.616,140.904,251.089z  "/>
<path style="fill:#F9EED7;" d="M111.271,253.827c0,32.11-26.028,58.128-58.128,58.128c-22.81,0-42.538-13.124-52.046-32.235  C0.366,271.914,0,263.993,0,256c0-9.853,0.554-19.571,1.64-29.132c9.707-18.526,29.121-31.169,51.503-31.169  C85.243,195.699,111.271,221.727,111.271,253.827z"/>
<g>
	<path style="fill:#797B89;" d="M205.354,249.762v1.964c0,9.488-7.701,17.189-17.189,17.189H53.875   c-9.498,0-17.189-7.701-17.189-17.189v-1.964c0-9.498,7.69-17.189,17.189-17.189h134.29   C197.653,232.573,205.354,240.264,205.354,249.762z"/>
	<path style="fill:#797B89;" d="M428.586,264.15c-1.714,0.878-3.542,1.285-5.339,1.285c-4.315,0-8.474-2.361-10.553-6.478   l-32.486-64.784l-20.574-41.033l-7.743-15.444c-2.957-5.831-0.627-12.946,5.193-15.903c5.831-2.957,12.946-0.627,15.903,5.193   l10.574,21.107l15.569,31.044v0.01l34.649,69.11C436.736,254.077,434.416,261.193,428.586,264.15z"/>
</g>
<polygon style="fill:#5C5E70;" points="399.13,179.137 399.13,179.148 380.207,194.173 359.633,153.14 383.561,148.093 "/>
<path style="fill:#EF4152;" d="M248.884,176.347l-87.959,15.987l-120.55-74.386c5.486-8.558,11.473-16.76,17.91-24.576  c4.2-5.11,8.6-10.041,13.187-14.806c1.87-1.954,3.783-3.877,5.726-5.778l28.902,5.433c9.613,1.808,17.784,8.38,21.222,17.544  c5.81,15.506,24.68,38.16,85.379,37.094L248.884,176.347z"/>
<path style="fill:#797B89;" d="M362.956,165.23c0,21.4-45.913,1.557-89.297,1.526h-0.094c-43.405,0-67.814,41.88-67.814-1.526  c0-28.975,15.673-54.293,39.016-67.918c11.619-6.802,25.151-10.689,39.581-10.689C327.764,86.622,362.956,121.814,362.956,165.23z"/>
<g>
	<path style="fill:#5C5E70;" d="M273.659,166.755h-0.094c-43.405,0-67.814,41.88-67.814-1.526c0-28.975,15.673-54.293,39.016-67.918   c0,0-20.762,41.89,28.327,55.505C286.229,156.453,283.993,161.426,273.659,166.755z"/>
	<path style="fill:#5C5E70;" d="M205.354,249.762v1.964c0,9.488-7.701,17.189-17.189,17.189h-66.8   c-0.125-1.003-0.178-2.017-0.178-3.051v-26.133c0-2.456,0.094-4.838,0.261-7.158h66.717   C197.653,232.573,205.354,240.264,205.354,249.762z"/>
</g>
<path style="fill:#FF525D;" d="M451.009,125.513c0,0.178,0,0.366-0.01,0.554c-0.021,6.656-0.575,13.187-1.62,19.56  c-37.063,0.188-70.604,15.339-94.866,39.717c-21.723,21.828-36.018,51.054-38.766,83.571c-0.324,3.803-0.491,7.649-0.491,11.536  c0,6.478-5.245,11.713-11.713,11.713l-130.152,1.254c-15.329,0.146-27.826-12.236-27.826-27.554v-26.133  c0-19.884,5.831-35.276,15.35-47.397c22.967-29.257,67.448-39.528,103.445-48.253c27.826-6.74,63.948-21.786,90.979-34.043  c18.401-8.338,22.026-32.893,6.834-46.195c-8.453-7.398-12.633-17.617-12.633-27.815c0-11.086,4.942-22.152,14.681-29.518  c25.172,8.067,46.864,23.886,62.265,44.648c1.661,2.247,3.25,4.545,4.744,6.886C443.758,77.5,451.009,100.665,451.009,125.513z"/>
<path style="fill:#FFD15C;" d="M451.006,125.509c0,0.185,0,0.37-0.01,0.556c-1.604,0.227-3.25,0.34-4.927,0.34  c-19.766,0-35.79-16.024-35.79-35.79c0-14.471,8.588-26.935,20.949-32.571C443.756,77.502,451.006,100.662,451.006,125.509z"/>
<g>
	<circle style="fill:#FFDC8D;" cx="435.179" cy="99.015" r="12.14"/>
	<circle style="fill:#FFDC8D;" cx="429.819" cy="76.696" r="6.779"/>
</g>
<g>
	<circle style="fill:#9093A0;" cx="303.741" cy="111.219" r="11.656"/>
	<circle style="fill:#9093A0;" cx="285.853" cy="100.498" r="6.075"/>
</g>
<g>
	<path style="fill:#FF6E7C;" d="M387.616,125.6l-0.398-1.118c-1.923-5.399-7.859-8.216-13.257-6.292l-51.497,18.344   c-5.399,1.923-8.216,7.859-6.292,13.257l0.398,1.118c1.923,5.399,7.859,8.216,13.257,6.292l51.497-18.344   C386.722,136.934,389.54,130.999,387.616,125.6z"/>
	<circle style="fill:#FF6E7C;" cx="295.163" cy="158.187" r="10.628"/>
</g>
<circle style="fill:#5C5E70;" cx="351.389" cy="85.504" r="14.744"/>
<path style="fill:#FF6E7C;" d="M100.989,92.86l-0.188,0.909c-0.899,4.389-5.172,7.22-9.561,6.332l-32.956-6.729  c4.2-5.11,8.6-10.041,13.187-14.806l23.197,4.733C99.056,84.198,101.878,88.482,100.989,92.86z"/>
<path style="fill:#5C5E70;" d="M336.98,498.928c-18.536,6.175-38.024,10.292-58.169,12.069C271.297,511.666,263.69,512,256,512  c-1.055,0-2.111-0.01-3.166-0.021c-3.03-0.031-6.06-0.125-9.07-0.272c2.069-1.755,4.221-3.417,6.447-4.963  c6.437-4.504,13.5-8.161,21.044-10.804c9.122-3.229,18.944-4.974,29.163-4.974C313.469,490.966,325.851,493.819,336.98,498.928z"/>
<g>
	<path style="fill:#797B89;" d="M278.81,510.997C271.297,511.666,263.69,512,256,512c-1.055,0-2.111-0.01-3.166-0.021l-2.623-5.235   l-4.702-9.373l-6.583-13.145l-5.893-11.755l-4.953-9.874c-1.964-3.877-1.599-8.317,0.575-11.724   c0.031-0.052,0.073-0.115,0.115-0.167c1.087-1.651,2.612-3.051,4.503-4.012c2.853-1.452,6.029-1.63,8.861-0.752   c2.947,0.92,5.528,2.978,7.032,5.945l6.311,12.591l10.219,20.386l5.559,11.076L278.81,510.997z"/>
	<path style="fill:#797B89;" d="M239.146,490.12c0,17.398-30.365,7.534-65.055,3.229c0,0,0,0-0.01,0   c-2.518-0.313-5.057-0.606-7.628-0.846h-0.01c-3.417-0.324-6.844-0.564-10.292-0.7c-12.121-5.151-23.771-11.191-34.858-18.077   c-10.407-6.447-20.313-13.625-29.654-21.452c13.364-24.294,39.215-40.751,68.901-40.751c24.221,0,45.892,10.961,60.312,28.181   c2.884,3.448,5.486,7.147,7.743,11.065c0.031,0.031,0.052,0.073,0.063,0.104c3.615,6.259,6.395,13.061,8.171,20.25   c1.066,4.242,1.766,8.62,2.1,13.103C239.073,486.17,239.146,488.135,239.146,490.12z"/>
</g>
<path style="fill:#34ABE0;" d="M327.189,450.403c0,0.188,0,0.376-0.01,0.564c-0.021,6.646-0.575,13.176-1.609,19.56  c-21.525,0.104-41.859,5.266-59.873,14.336c-7.116,3.584-13.866,7.774-20.187,12.507c-5.245,3.929-10.198,8.234-14.817,12.873  c-0.157,0.157-0.313,0.324-0.47,0.481c-26.039-2.612-50.928-9.112-74.073-18.923c-12.121-5.151-23.771-11.191-34.858-18.077  c6.562-1.682,13.03-3.239,19.247-4.744c24.304-5.893,54.93-18.119,80.311-29.278c3.678-1.62,7.252-3.218,10.679-4.765  c18.39-8.338,22.026-32.904,6.823-46.195c-8.453-7.398-12.622-17.617-12.622-27.826c0-11.086,4.932-22.152,14.67-29.508  c25.172,8.056,46.864,23.886,62.276,44.648c1.651,2.247,3.25,4.535,4.733,6.886C319.937,402.401,327.189,425.556,327.189,450.403z"/>
<path style="fill:#FFD15C;" d="M327.191,450.407c0,0.185,0,0.37-0.01,0.556c-1.604,0.226-3.25,0.34-4.927,0.34  c-19.766,0-35.79-16.023-35.79-35.79c0-14.471,8.588-26.935,20.949-32.57C319.94,402.4,327.191,425.561,327.191,450.407z"/>
<g>
	<circle style="fill:#FFDC8D;" cx="311.359" cy="423.915" r="12.14"/>
	<circle style="fill:#FFDC8D;" cx="305.998" cy="401.596" r="6.779"/>
</g>
<g>
	<circle style="fill:#9093A0;" cx="179.921" cy="436.12" r="11.656"/>
	<circle style="fill:#9093A0;" cx="162.043" cy="425.388" r="6.075"/>
</g>
<g>
	<path style="fill:#78CAEF;" d="M263.8,450.498l-0.398-1.118c-1.923-5.399-7.859-8.216-13.257-6.292l-51.497,18.344   c-5.399,1.923-8.216,7.859-6.292,13.257l0.398,1.118c1.923,5.399,7.859,8.216,13.257,6.292l51.497-18.344   C262.906,461.832,265.724,455.896,263.8,450.498z"/>
	<circle style="fill:#78CAEF;" cx="171.353" cy="483.077" r="10.628"/>
</g>
<circle style="fill:#5C5E70;" cx="227.568" cy="410.405" r="14.743"/>
<path style="fill:#EF4152;" d="M315.747,268.915c-0.324,3.803-0.491,7.649-0.491,11.536c0,6.478-5.245,11.713-11.713,11.713  l-130.152,1.254c-15.329,0.146-27.826-12.236-27.826-27.554v-26.133c0-19.884,5.831-35.276,15.35-47.397h0.01  c0,0-4.587,76.581,27.24,76.581L315.747,268.915L315.747,268.915z"/>
<g>
</g>
<g>
</g>
<g>
</g>
<g>
</g>
<g>
</g>
<g>
</g>
<g>
</g>
<g>
</g>
<g>
</g>
<g>
</g>
<g>
</g>
<g>
</g>
<g>
</g>
<g>
</g>
<g>
</g>
</svg>
