<?xml version="1.0" encoding="iso-8859-1"?>
<!-- Generator: Adobe Illustrator 19.0.0, SVG Export Plug-In . SVG Version: 6.00 Build 0)  -->
<svg xmlns="http://www.w3.org/2000/svg" xmlns:xlink="http://www.w3.org/1999/xlink" version="1.1" id="Capa_1" x="0px" y="0px" viewBox="0 0 512 512" style="enable-background:new 0 0 512 512;" xml:space="preserve">
<path style="fill:#34ABE0;" d="M512,256c0,77.04-34.022,146.119-87.876,193.055c-17.136,14.942-36.279,27.627-56.968,37.616  C333.542,502.909,295.831,512,256,512c-11.922,0-23.646-0.815-35.14-2.403h-0.01c-9.331-1.275-18.495-3.062-27.481-5.329  c-9.927-2.487-19.623-5.559-29.048-9.174c-32.402-12.424-61.628-31.253-86.131-54.93c-6.186-5.966-12.069-12.246-17.617-18.808  c-16.844-19.874-30.699-42.35-40.887-66.748c-2.393-5.726-4.587-11.557-6.562-17.492c-4.911-14.712-8.526-30.03-10.7-45.798v-0.01  C0.825,279.761,0,267.985,0,256c0-56.498,18.307-108.732,49.309-151.071c22.831-31.18,52.537-57.01,86.904-75.233  C171.948,10.742,212.72,0,256,0C397.385,0,512,114.615,512,256z"/>
<g>
	<path style="fill:#78CAEF;" d="M452.598,392.641c0,10.386-8.422,18.808-18.808,18.808h-60.604   c-10.386,0-18.808,8.411-18.808,18.798c0,10.397,8.422,18.808,18.808,18.808h50.939c-17.136,14.942-36.279,27.627-56.968,37.616   h-82.777c-5.193,0-9.895-2.1-13.302-5.507c-3.396-3.406-5.507-8.108-5.507-13.302c0-10.386-8.422-18.808-18.808-18.808h-89.861   c-5.193,0-9.895-2.1-13.302-5.507c-3.396-3.406-5.507-8.108-5.507-13.302c0-10.386,8.422-18.798,18.808-18.798h60.604   c5.193,0,9.895-2.111,13.302-5.507c3.396-3.406,5.507-8.108,5.507-13.302c0-10.386,8.422-18.808,18.808-18.808h178.667   c5.193,0,9.895,2.111,13.302,5.507C450.497,382.746,452.598,387.448,452.598,392.641z"/>
	<path style="fill:#78CAEF;" d="M261.162,48.504c0,5.193-2.111,9.895-5.507,13.302c-3.406,3.406-8.108,5.507-13.302,5.507h-29.769   c-10.386,0-18.808,8.422-18.808,18.808c0,5.193-2.1,9.895-5.507,13.302c-3.406,3.406-8.108,5.507-13.302,5.507H49.309   c22.831-31.18,52.537-57.01,86.904-75.233h106.141C252.74,29.696,261.162,38.118,261.162,48.504z"/>
</g>
<path style="fill:#FF525D;" d="M380.155,340.762c-2.445,23.897-9.394,47.282-20.564,68.775c0,0,0,0,0,0.01  c-2.738,5.256-5.726,10.386-8.955,15.391c-13.197,20.417-30.542,38.619-51.785,53.29c-24.158,16.677-50.813,27.021-77.991,31.368  h-0.01c-9.331-1.275-18.495-3.062-27.481-5.329c-9.927-2.487-19.623-5.559-29.048-9.174c-32.402-12.424-61.628-31.253-86.131-54.93  c-6.186-5.966-12.069-12.246-17.617-18.808c-16.844-19.874-30.699-42.35-40.887-66.748c-2.393-5.726-4.587-11.557-6.562-17.492  c-4.911-14.712-8.526-30.03-10.7-45.798v-0.01c2.236-14.002,6.029-27.742,11.327-40.95c2.194-5.496,4.66-10.898,7.377-16.196  c12.549-24.44,30.584-46.467,53.697-64.125c2.435-1.86,4.932-3.668,7.471-5.423c2.936-2.027,5.914-3.96,8.923-5.789  c37.919-23.218,81.136-31.629,122.546-26.53c11.933,1.452,23.709,4.044,35.171,7.722h0.01c8.359,2.685,16.551,5.945,24.503,9.791  h0.01c28.118,13.531,53.269,34.168,72.537,61.367c0.47,0.658,0.94,1.306,1.39,1.975c4.054,5.872,7.732,11.891,11.034,18.035  C376.999,265.624,383.937,303.825,380.155,340.762z"/>
<g>
	<path style="fill:#EF4152;" d="M380.155,340.762c-26.384,8.485-54.356,8.923-80.457,1.954   c-31.608-8.432-60.479-27.721-80.53-56.738c-32.622-47.25-32.82-107.28-5.402-153.684c11.933,1.452,23.709,4.044,35.171,7.722h0.01   c8.359,2.685,16.551,5.945,24.503,9.791h0.01c28.118,13.531,53.269,34.168,72.537,61.367c0.47,0.658,0.94,1.306,1.39,1.975   c4.054,5.872,7.732,11.891,11.034,18.035C376.999,265.624,383.937,303.825,380.155,340.762z"/>
	<path style="fill:#EF4152;" d="M336.311,444.27c-10.679,12.643-23.186,24.106-37.46,33.959   c-24.168,16.687-50.813,27.021-78.002,31.368C107.645,494.07,18.035,404.501,2.424,291.318c2.236-14.002,6.029-27.753,11.327-40.96   c2.194-5.496,4.66-10.898,7.377-16.196c12.549-24.44,30.584-46.467,53.697-64.125c2.435-1.86,4.932-3.668,7.471-5.423   c2.936-2.027,5.914-3.96,8.923-5.789c30.344-18.589,64.094-27.679,97.593-27.961c-11.045,3.96-21.828,9.07-32.172,15.402   c-2.748,1.672-5.465,3.438-8.14,5.298c-2.32,1.599-4.608,3.25-6.823,4.942c-21.107,16.123-37.564,36.237-49.027,58.556   c-2.487,4.827-4.733,9.77-6.74,14.775c-11.494,28.651-15.245,60.061-10.648,90.791c0.899,5.956,2.1,11.87,3.626,17.742   c4.963,19.237,13.354,37.94,25.297,55.244c8.443,12.225,18.171,23.019,28.881,32.36c5.799,5.078,11.901,9.718,18.254,13.908   c25.349,16.76,54.512,26.436,84.365,28.453h0.01c6.928,0.481,13.897,0.533,20.856,0.167   C283.982,467.08,311.359,459.139,336.311,444.27z"/>
</g>
<path style="fill:#5C5E70;" d="M359.591,409.537c0,0,0,0,0,0.01c-2.738,5.256-5.726,10.386-8.955,15.391l-1.996-2.759  c-42.799-59.277-100.425-106.12-166.964-135.774c-44.805,56.466-47.679,136.171-6.405,195.939  c5.392,7.805,11.473,15.172,18.098,21.922c-9.927-2.487-19.623-5.559-29.048-9.174c-0.836-1.149-1.661-2.309-2.466-3.479  c-44.492-64.428-42.297-149.932,4.284-211.738c-15.256-6.071-30.887-11.254-46.655-15.454  c-33.238,52.182-47.72,114.563-41.294,175.741c-6.186-5.966-12.069-12.246-17.617-18.808  c-1.881-56.299,12.685-112.577,42.245-160.998c-8.767-1.954-17.596-3.615-26.405-4.984c-12.089,36.436-31.514,70.384-56.728,99.234  c-2.393-5.726-4.587-11.557-6.562-17.492c20.396-24.91,36.342-53.488,46.843-83.989c-14.221-1.641-28.588-2.56-42.851-2.738  l-3.365-0.031c2.194-5.496,4.66-10.898,7.377-16.196c14.587,0.303,29.247,1.358,43.75,3.135c6.113-21.901,9.446-44.471,9.947-67.26  c2.435-1.86,4.932-3.668,7.471-5.423c2.936-2.027,5.914-3.96,8.923-5.789l-0.021,5.308c-0.021,25.548-3.406,50.907-10.041,75.483  c10.407,1.672,20.846,3.751,31.148,6.186c19.728-28.338,44.272-52.746,73.028-72.589c19.874-13.72,41.211-24.869,63.603-33.196h0.01  c8.359,2.685,16.551,5.945,24.503,9.791l-10.135,2.435c-24.283,8.088-47.397,19.665-68.723,34.388  c-25.454,17.575-47.407,38.922-65.39,63.561c16.196,4.545,32.235,10.083,47.867,16.52c9.185-10.073,19.571-19.132,30.898-26.937  c18.328-12.664,38.63-21.682,59.831-26.854c13.678-3.354,27.721-5.089,41.859-5.172c12.11-0.094,24.283,1.045,36.342,3.427  c0.47,0.658,0.94,1.306,1.39,1.975c4.054,5.872,7.732,11.891,11.034,18.035l-8.056-2.351c-8.735-2.152-17.565-3.584-26.405-4.284  c-22.361-1.797-44.805,1.014-65.923,8.161c-14.357,4.838-28.108,11.703-40.814,20.48c-8.756,6.04-16.896,12.894-24.273,20.438  C258.999,304.003,316.374,350.772,359.591,409.537z"/>
<g>
	<circle style="fill:#FF6E7C;" cx="292.059" cy="237.202" r="34.327"/>
	<circle style="fill:#FF6E7C;" cx="325.266" cy="294.682" r="18.808"/>
</g>
<path style="fill:#797B89;" d="M323.96,224.546c-22.359-1.793-44.806,1.016-65.924,8.164c0.991-7.687,4.539-14.571,9.756-19.788  c13.681-3.36,27.726-5.092,41.859-5.18C316.097,211.58,321.177,217.487,323.96,224.546z"/>
<path style="fill:#E28D40;" d="M327.837,118.293l-15.914,10.115l-7.805,4.963l-12.79-20.052c-1.494-2.341-2.205-4.963-2.205-7.544  c0-4.639,2.299-9.185,6.499-11.87c4.054-2.581,8.934-2.832,13.04-1.076c2.539,1.055,4.786,2.884,6.374,5.371L327.837,118.293z"/>
<path style="fill:#F4A14E;" d="M327.837,118.293l-15.914,10.115l-9.624-15.088c-4.169-6.552-2.247-15.235,4.295-19.414h0.01  c0.669-0.428,1.358-0.784,2.058-1.076c2.539,1.055,4.786,2.884,6.374,5.371L327.837,118.293z"/>
<path style="fill:#FFDC8D;" d="M397.483,94.031h-38.741l-1.436-0.72c-15.848-7.943-25.692-23.879-25.692-41.588  c0-25.639,20.859-46.498,46.498-46.498c25.639,0,46.498,20.859,46.498,46.498c0,17.71-9.844,33.646-25.692,41.588L397.483,94.031z   M362.035,80.448h32.157c10.424-5.833,16.835-16.702,16.835-28.724c0-18.149-14.765-32.914-32.914-32.914  c-18.149,0-32.914,14.765-32.914,32.914C345.199,63.746,351.611,74.615,362.035,80.448z"/>
<path style="fill:#F4A14E;" d="M395.876,106.204V76.101c0-9.811-7.953-17.763-17.763-17.763l0,0  c-9.811,0-17.763,7.953-17.763,17.763v30.062"/>
<path style="fill:#E28D40;" d="M373.933,106.163V76.101c0-7.404,4.533-13.745,10.971-16.412c-2.093-0.867-4.385-1.351-6.792-1.351  l0,0c-9.811,0-17.763,7.953-17.763,17.763v30.062l35.527,0.042v-0.016L373.933,106.163z"/>
<path style="fill:#EDBB4C;" d="M450.017,330.386c-31.754,21.932-70.019,27.355-104.594,18.119  c-28.045-7.481-53.666-24.597-71.45-50.343c-39.706-57.511-25.287-136.328,32.225-176.034  c49.361-34.095,114.427-28.285,156.985,10.418c7.022,6.384,13.437,13.667,19.059,21.807  C521.958,211.863,507.528,290.68,450.017,330.386z"/>
<path style="fill:#FFD15C;" d="M450.017,330.386c-31.754,21.932-70.019,27.355-104.594,18.119  c-7.022-6.374-13.427-13.657-19.048-21.797c-39.717-57.511-25.287-136.328,32.225-176.044  c31.754-21.932,70.008-27.355,104.584-18.119c7.022,6.384,13.437,13.667,19.059,21.807  C521.958,211.863,507.528,290.68,450.017,330.386z"/>
<path style="fill:#98DCF4;" d="M477.247,244.402c-10.021,54.763-62.537,91.021-117.29,81c-18.077-3.312-34.137-11.254-47.177-22.382  c-26.467-22.559-40.521-58.232-33.813-94.908c10.021-54.763,62.537-91.021,117.29-81c0.763,0.136,1.515,0.282,2.267,0.439  C452.002,138.595,487.142,190.412,477.247,244.402z"/>
<path style="fill:#78CAEF;" d="M432.316,222.459c-10.021,54.763-62.537,91.021-117.29,81c-0.752-0.136-1.505-0.282-2.247-0.439  c-26.467-22.559-40.521-58.232-33.813-94.908c10.021-54.763,62.537-91.021,117.29-81c0.763,0.136,1.515,0.282,2.267,0.439  C424.981,150.12,439.035,185.783,432.316,222.459z"/>
<g>
	<path style="fill:#5C5E70;" d="M378.108,221.933c-3.751,0-6.792-3.041-6.792-6.792v-64.853c0-3.751,3.041-6.792,6.792-6.792   c3.751,0,6.792,3.041,6.792,6.792v64.853C384.9,218.893,381.859,221.933,378.108,221.933z"/>
	<path style="fill:#5C5E70;" d="M459.093,233.045H445.29c-3.751,0-6.792-3.041-6.792-6.792c0-3.751,3.041-6.792,6.792-6.792h13.803   c3.751,0,6.792,3.041,6.792,6.792C465.884,230.004,462.844,233.045,459.093,233.045z"/>
	<path style="fill:#5C5E70;" d="M310.926,233.045h-13.793c-3.751,0-6.792-3.041-6.792-6.792c0-3.751,3.041-6.792,6.792-6.792h13.793   c3.751,0,6.792,3.041,6.792,6.792C317.718,230.004,314.677,233.045,310.926,233.045z"/>
	<path style="fill:#5C5E70;" d="M378.113,314.024c-3.751,0-6.792-3.041-6.792-6.792V293.44c0-3.751,3.041-6.792,6.792-6.792   c3.751,0,6.792,3.041,6.792,6.792v13.793C384.905,310.984,381.864,314.024,378.113,314.024z"/>
	<circle style="fill:#5C5E70;" cx="378.107" cy="226.262" r="20.345"/>
</g>
<g>
</g>
<g>
</g>
<g>
</g>
<g>
</g>
<g>
</g>
<g>
</g>
<g>
</g>
<g>
</g>
<g>
</g>
<g>
</g>
<g>
</g>
<g>
</g>
<g>
</g>
<g>
</g>
<g>
</g>
</svg>
