<?xml version="1.0" encoding="iso-8859-1"?>
<!-- Generator: Adobe Illustrator 19.0.0, SVG Export Plug-In . SVG Version: 6.00 Build 0)  -->
<svg xmlns="http://www.w3.org/2000/svg" xmlns:xlink="http://www.w3.org/1999/xlink" version="1.1" id="Capa_1" x="0px" y="0px" viewBox="0 0 512 512" style="enable-background:new 0 0 512 512;" xml:space="preserve">
<path style="fill:#34ABE0;" d="M512,256c0,80.302-37.191,151.911-95.299,198.532c-43.578,34.989-98.913,55.916-159.15,55.916  c-36.111,0-70.467-7.519-101.582-21.093c-4.061-1.766-8.07-3.635-12.027-5.608c-4.071-2.046-8.09-4.185-12.037-6.439  c-29.62-16.846-55.511-39.465-76.168-66.333c-13.107-17.032-24.105-35.768-32.59-55.833C10.238,324.67,3.103,291.166,3.103,256  c0-140.528,113.92-254.448,254.448-254.448c135.948,0,247.002,106.619,254.085,240.802C511.875,246.871,512,251.42,512,256z"/>
<g>
	<path style="fill:#78CAEF;" d="M225.755,249.067L225.755,249.067c0-7.709-6.249-13.958-13.958-13.958H94.175   c-7.708,0-13.958,6.249-13.958,13.958l0,0c0,7.708,6.249,13.958,13.958,13.958h38.047c7.708,0,13.958,6.249,13.958,13.958l0,0   c0,7.708-6.249,13.958-13.958,13.958h-3.879c-7.708,0-13.958,6.249-13.958,13.958l0,0c0,7.708,6.249,13.958,13.958,13.958h112.733   c7.708,0,13.958-6.249,13.958-13.958l0,0c0-7.708,6.249-13.958,13.958-13.958h3.879c7.708,0,13.958-6.249,13.958-13.958l0,0   c0-7.708-6.249-13.958-13.958-13.958h-33.156C232.005,263.024,225.755,256.775,225.755,249.067z"/>
	<path style="fill:#78CAEF;" d="M325.272,103.907L325.272,103.907c0-7.709,6.249-13.958,13.958-13.958h44.979   c7.708,0,13.958-6.249,13.958-13.958l0,0c0-7.708-6.249-13.958-13.958-13.958H251.609c-7.709,0-13.958,6.249-13.958,13.958l0,0   c0,7.708-6.249,13.958-13.958,13.958h-44.979c-7.708,0-13.958,6.249-13.958,13.958l0,0c0,7.708,6.249,13.958,13.958,13.958h66.692   c7.708,0,13.958,6.249,13.958,13.958l0,0c0,7.709,6.249,13.958,13.958,13.958h132.601c7.708,0,13.958-6.249,13.958-13.958l0,0   c0-7.708-6.249-13.958-13.958-13.958h-66.692C331.521,117.865,325.272,111.616,325.272,103.907z"/>
	<path style="fill:#78CAEF;" d="M96.19,397.016c0,7.706-6.252,13.958-13.958,13.958H55.738   c-13.107-17.032-24.105-35.768-32.59-55.833h31.167c7.717,0,13.958,6.242,13.958,13.958c0,3.853,1.568,7.343,4.092,9.866   s6.013,4.092,9.866,4.092s7.343,1.558,9.866,4.082C94.622,389.674,96.19,393.163,96.19,397.016z"/>
	<path style="fill:#78CAEF;" d="M425.1,381.378L425.1,381.378c0-7.709-6.249-13.958-13.958-13.958h-4.653   c-7.709,0-13.958-6.249-13.958-13.958l0,0c0-7.708-6.249-13.958-13.958-13.958h-214.02c-7.709,0-13.958,6.249-13.958,13.958l0,0   c0,7.708,6.249,13.958,13.958,13.958h86.074c7.708,0,13.958,6.249,13.958,13.958l0,0c0,7.708-6.249,13.958-13.958,13.958h-39.203   c-7.708,0-13.958,6.249-13.958,13.958l0,0c0,7.708,6.249,13.958,13.958,13.958h11.843c7.709,0,13.958,6.249,13.958,13.958l0,0   c0,7.708-6.249,13.958-13.958,13.958h-42.431c-7.708,0-13.958,6.249-13.958,13.958l0,0c0,7.708,6.249,13.958,13.958,13.958h201.018   c7.708,0,13.958-6.249,13.958-13.958l0,0c0-7.709,6.249-13.958,13.958-13.958h1.371c7.708,0,13.958-6.249,13.958-13.958l0,0   c0-7.708-6.249-13.958-13.958-13.958h-25.589c-7.708,0-13.958-6.249-13.958-13.958l0,0c0-7.708,6.249-13.958,13.958-13.958h25.589   C418.851,395.336,425.1,389.087,425.1,381.378z"/>
</g>
<path style="fill:#FF525D;" d="M512,256c0,80.302-37.191,151.911-95.299,198.532c-14.27,4.362-29.412,6.709-45.105,6.709  c-85.173,0-154.216-69.044-154.216-154.217s69.044-154.216,154.216-154.216c62.075,0,115.592,36.682,140.04,89.545  C511.875,246.871,512,251.42,512,256z"/>
<circle style="fill:#FCF8F2;" cx="371.598" cy="307.021" r="102.267"/>
<circle style="fill:#34ABE0;" cx="371.598" cy="307.021" r="64.692"/>
<circle style="fill:#FCF8F2;" cx="371.598" cy="307.021" r="26.482"/>
<path style="fill:#5C5E70;" d="M346.072,182.448v8.629c0,4.117-0.317,8.154-0.939,12.09c-5.801,37.48-38.215,66.161-77.312,66.161  H78.251c-39.097,0-71.51-28.681-77.312-66.161C0.317,199.231,0,195.193,0,191.077v-8.629c0-4.105,0.317-8.142,0.927-12.079  c5.801-37.48,38.215-66.161,77.323-66.161h189.57c39.108,0,71.522,28.681,77.323,66.161  C345.755,174.304,346.072,178.342,346.072,182.448z"/>
<path style="fill:#494B5B;" d="M62.011,203.167c-0.622-3.936-0.939-7.973-0.939-12.09v-8.629c0-4.105,0.317-8.142,0.927-12.079  c5.801-37.48,38.215-66.161,77.323-66.161H78.251c-39.108,0-71.522,28.681-77.323,66.161C0.317,174.304,0,178.342,0,182.448v8.629  c0,4.117,0.317,8.154,0.939,12.09c5.801,37.48,38.215,66.161,77.312,66.161h61.072C100.225,269.328,67.812,240.647,62.011,203.167z"/>
<path style="fill:#F9EED7;" d="M238.632,77.062h-22.619V60.614c0-14.651-11.877-26.529-26.529-26.529h-75.258  c-6.246,0-11.31-5.063-11.31-11.31l0,0c0-6.246,5.063-11.31,11.31-11.31h75.258c27.144,0,49.148,22.004,49.148,49.148V77.062z"/>
<path style="fill:#FF525D;" d="M271.43,104.295v-6.618c0-13.885-11.255-25.14-25.139-25.14H99.783  c-13.885,0-25.14,11.255-25.14,25.14v6.618"/>
<path style="fill:#EF4152;" d="M140.498,72.538H99.783c-13.884,0-25.14,11.255-25.14,25.14v6.618h40.714v-6.618  C115.359,83.792,126.614,72.538,140.498,72.538z"/>
<path style="fill:#F9EED7;" d="M346.072,182.448v8.629c0,4.117-0.317,8.154-0.939,12.09H0.939C0.317,199.231,0,195.193,0,191.077  v-8.629c0-4.105,0.317-8.142,0.927-12.079h344.217C345.755,174.304,346.072,178.342,346.072,182.448z"/>
<circle style="fill:#797B89;" cx="291.941" cy="144.039" r="18.943"/>
<path style="fill:#E8DBC4;" d="M62.011,203.167H0.939C0.317,199.231,0,195.193,0,191.077v-8.629c0-4.105,0.317-8.142,0.927-12.079  h61.072c-0.611,3.936-0.927,7.973-0.927,12.079v8.629C61.072,195.193,61.389,199.231,62.011,203.167z"/>
<circle style="fill:#797B89;" cx="252.174" cy="132.552" r="13.754"/>
<path style="fill:#C69A6A;" d="M155.97,342.461v146.895c-4.061-1.766-8.07-3.635-12.027-5.608c-4.071-2.046-8.09-4.185-12.037-6.439  V342.461H155.97z"/>
<g>
	<path style="fill:#B58657;" d="M143.943,342.461v141.286c-4.071-2.046-8.09-4.185-12.037-6.439V342.461H143.943z"/>
	<rect x="131.908" y="342.467" style="fill:#B58657;" width="24.064" height="56.986"/>
</g>
<polygon style="fill:#FFD15C;" points="47.877,287.978 59.878,308.75 71.884,287.978 83.891,308.75 95.896,287.978 107.902,308.75   119.909,287.978 131.917,308.75 143.924,287.978 155.932,308.75 167.94,287.978 179.945,308.75 191.953,287.978 203.964,308.75   215.972,287.978 227.988,308.75 240.004,287.978 240.004,356.716 47.877,356.716 "/>
<path style="fill:#C69A6A;" d="M225.955,372.922H61.927c-7.759,0-14.049-6.29-14.049-14.049v-22.622h192.127v22.622  C240.004,366.631,233.714,372.922,225.955,372.922z"/>
<path style="fill:#B58657;" d="M225.955,362.536H61.927c-7.759,0-14.049-6.29-14.049-14.049v10.386  c0,7.759,6.29,14.049,14.049,14.049h164.029c7.759,0,14.049-6.29,14.049-14.049v-10.386  C240.004,356.245,233.714,362.536,225.955,362.536z"/>
<g>
</g>
<g>
</g>
<g>
</g>
<g>
</g>
<g>
</g>
<g>
</g>
<g>
</g>
<g>
</g>
<g>
</g>
<g>
</g>
<g>
</g>
<g>
</g>
<g>
</g>
<g>
</g>
<g>
</g>
</svg>
