<?xml version="1.0" encoding="iso-8859-1"?>
<!-- Generator: Adobe Illustrator 19.0.0, SVG Export Plug-In . SVG Version: 6.00 Build 0)  -->
<svg xmlns="http://www.w3.org/2000/svg" xmlns:xlink="http://www.w3.org/1999/xlink" version="1.1" id="Capa_1" x="0px" y="0px" viewBox="0 0 512 512" style="enable-background:new 0 0 512 512;" xml:space="preserve">
<path style="fill:#FFD15C;" d="M512,256c0,47.689-13.04,92.348-35.767,130.581c-28.766,48.421-73.049,86.538-125.994,107.52  C321.076,505.647,289.28,512,256,512c-7.158,0-14.242-0.293-21.243-0.867c-25.778-2.121-50.469-8.056-73.509-17.241  c-17.074-6.802-33.238-15.391-48.274-25.537c-17.951-12.121-34.283-26.446-48.598-42.59c-11.128-12.56-21.044-26.216-29.56-40.793  C12.685,347.094,0,303.031,0,256c0-11.212,0.721-22.256,2.121-33.092c2.1-16.332,5.747-32.172,10.783-47.376  C46.634,73.571,142.723,0,256,0c32.528,0,63.634,6.06,92.254,17.126c28.724,11.097,54.941,27.23,77.573,47.313  c12.34,10.951,23.625,23.082,33.667,36.216c20.501,26.812,35.819,57.783,44.471,91.449c1.014,3.95,1.943,7.941,2.769,11.964  C510.182,220.839,512,238.205,512,256z"/>
<g>
	<path style="fill:#FFDC8D;" d="M476.233,386.581c-28.766,48.421-73.049,86.538-125.994,107.52h-53.332   c-3.271,0-6.217-1.327-8.359-3.469c-2.142-2.132-3.469-5.099-3.469-8.359c0-6.531,5.298-11.828,11.828-11.828h35.955   c3.26,0,6.228-1.327,8.359-3.469c2.142-2.132,3.469-5.099,3.469-8.359c0-6.531-5.298-11.828-11.828-11.828h-10.031   c-3.271,0-6.228-1.327-8.37-3.469c-2.142-2.132-3.459-5.099-3.459-8.359c0-6.531,5.287-11.828,11.828-11.828h33.217   c3.271,0,6.217-1.327,8.359-3.469c2.142-2.132,3.469-5.099,3.469-8.359c0-6.531-5.298-11.828-11.828-11.828h-72.934   c-3.271,0-6.228-1.317-8.37-3.459c-2.132-2.142-3.459-5.089-3.459-8.359c0-6.541,5.287-11.828,11.828-11.828h181.342   c3.271,0,6.228,1.327,8.37,3.459C474.728,381.189,475.982,383.739,476.233,386.581z"/>
	<path style="fill:#FFDC8D;" d="M334.006,270.694L334.006,270.694c0-6.532-5.296-11.827-11.827-11.827h-99.668   c-6.532,0-11.827,5.296-11.827,11.827l0,0c0,6.532,5.296,11.827,11.827,11.827h32.238c6.532,0,11.827,5.296,11.827,11.827l0,0   c0,6.532-5.296,11.827-11.827,11.827h-3.287c-6.532,0-11.827,5.296-11.827,11.827l0,0c0,6.532,5.296,11.827,11.827,11.827h95.524   c6.532,0,11.827-5.296,11.827-11.827l0,0c0-6.532,5.296-11.827,11.827-11.827h3.287c6.532,0,11.827-5.296,11.827-11.827l0,0   c0-6.532-5.296-11.827-11.827-11.827h-28.095C339.301,282.522,334.006,277.227,334.006,270.694z"/>
	<path style="fill:#FFDC8D;" d="M206.734,58.841L206.734,58.841c0-6.532-5.296-11.827-11.827-11.827H95.239   c-6.532,0-11.827,5.296-11.827,11.827l0,0c0,6.532,5.296,11.827,11.827,11.827h32.238c6.532,0,11.827,5.296,11.827,11.827l0,0   c0,6.532-5.296,11.827-11.827,11.827h-3.287c-6.532,0-11.827,5.296-11.827,11.827l0,0c0,6.532,5.296,11.827,11.827,11.827h95.524   c6.532,0,11.827-5.296,11.827-11.827l0,0c0-6.532,5.296-11.827,11.827-11.827h3.287c6.532,0,11.827-5.296,11.827-11.827l0,0   c0-6.532-5.296-11.827-11.827-11.827H218.56C212.029,70.669,206.734,65.373,206.734,58.841z"/>
	<path style="fill:#FFDC8D;" d="M148.793,234.674c0,6.531-5.298,11.828-11.828,11.828H24.607c-3.271,0-6.217-1.327-8.359-3.469   c-2.142-2.132-3.469-5.099-3.469-8.359c0-6.134-4.671-11.18-10.658-11.766c2.1-16.332,5.747-32.172,10.783-47.376h105.671   c3.26,0,6.217,1.327,8.359,3.469c2.132,2.132,3.459,5.099,3.459,8.359c0,6.531-5.287,11.828-11.818,11.828H80.457   c-6.531,0-11.828,5.298-11.828,11.828s5.298,11.828,11.828,11.828h56.508c3.26,0,6.228,1.327,8.359,3.469   C147.466,228.446,148.793,231.414,148.793,234.674z"/>
	<path style="fill:#FFDC8D;" d="M425.827,64.439h-88.054c-3.26,0-6.228-1.327-8.359-3.469c-2.142-2.132-3.469-5.099-3.469-8.359   c0-6.531-5.287-11.828-11.818-11.828h-18.735c-3.26,0-6.217-1.327-8.359-3.469c-2.132-2.132-3.459-5.099-3.459-8.359   c0-6.531,5.287-11.828,11.818-11.828h52.861C376.978,28.223,403.195,44.356,425.827,64.439z"/>
</g>
<g>
	<path style="fill:#FF525D;" d="M410.013,78.286c-1.679,26.829-23.958,48.072-51.21,48.072c-27.252,0-49.53-21.243-51.21-48.071   l-21.059,6.576l-17.066,5.33v272.878h178.67V90.193L410.013,78.286z"/>
	<path style="fill:#FF525D;" d="M234.757,231.8v279.333c-25.778-2.121-50.469-8.056-73.509-17.241l-26.467-145.168l-21.807,119.63   c-17.951-12.121-34.283-26.446-48.598-42.59c-11.128-12.56-21.044-26.216-29.56-40.793V231.8H234.757z"/>
</g>
<path style="fill:#EF4152;" d="M64.376,425.765c-11.128-12.56-21.044-26.216-29.56-40.793V231.8h30.448  c-1.212,3.688-4.086,13.009-6.98,26.54C50.709,293.784,42.935,358.128,64.376,425.765z"/>
<polygon style="fill:#34ABE0;" points="234.752,231.802 234.752,258.341 194.72,258.341 74.535,258.341 34.819,258.341   34.819,231.802 "/>
<path style="fill:#EF4152;" d="M385.526,363.071H269.467V90.193l17.066-5.33C286.533,84.863,274.455,328.492,385.526,363.071z"/>
<g>
	<polyline style="fill:#34ABE0;" points="269.47,90.196 187.176,165.994 217.494,214.72 269.47,191.981  "/>
	<path style="fill:#34ABE0;" d="M506.734,204.069l-6.625,10.648l-51.973-22.737V90.196l11.358,10.459   C482.398,130.612,498.834,165.773,506.734,204.069z"/>
</g>
<g>
	<path style="fill:#FF525D;" d="M506.734,204.069l-6.625,10.648l-51.973-22.737v-34.273c0,0,31.284-0.846,55.829,34.398   C504.978,196.054,505.908,200.046,506.734,204.069z"/>
	<path style="fill:#FF525D;" d="M208.483,200.244l9.011,14.474l51.973-22.738v-34.278   C269.468,157.702,233.54,156.738,208.483,200.244z"/>
</g>
<path style="fill:#5C5E70;" d="M107.277,198.813L107.277,198.813c-5.194,0-9.404-4.21-9.404-9.404V146.22  c0-5.194,4.21-9.404,9.404-9.404l0,0c5.194,0,9.404,4.21,9.404,9.404v43.189C116.681,194.603,112.47,198.813,107.277,198.813z"/>
<g>
	<path style="fill:#FF6E7C;" d="M207.828,388.588L207.828,388.588c-6.788,0-12.29-5.502-12.29-12.29v-86.032   c0-6.788,5.502-12.29,12.29-12.29l0,0c6.788,0,12.29,5.502,12.29,12.29v86.032C220.118,383.086,214.616,388.588,207.828,388.588z"/>
	<path style="fill:#FF6E7C;" d="M421.963,232.729L421.963,232.729c-6.492,0-11.754-5.263-11.754-11.754V114.401   c0-6.492,5.263-11.754,11.754-11.754l0,0c6.492,0,11.754,5.263,11.754,11.754v106.574   C433.718,227.466,428.455,232.729,421.963,232.729z"/>
</g>
<path style="fill:#FF525D;" d="M172.055,152.623H44.41c-6.173,0-11.178-5.005-11.178-11.178l0,0c0-6.173,5.005-11.178,11.178-11.178  h127.644c6.173,0,11.178,5.005,11.178,11.178l0,0C183.232,147.618,178.228,152.623,172.055,152.623z"/>
<path style="fill:#EF4152;" d="M61.793,141.445L61.793,141.445c0-6.173,5.005-11.178,11.178-11.178H44.41  c-6.173,0-11.178,5.005-11.178,11.178l0,0c0,6.173,5.005,11.178,11.178,11.178h28.56C66.797,152.623,61.793,147.618,61.793,141.445z  "/>
<path style="fill:#34ABE0;" d="M198.353,100.927v7.168c0,13.343-10.815,24.158-24.148,24.158H42.266  c-13.343,0-24.148-10.815-24.148-24.158v-7.168c0-44.157,35.798-79.956,79.956-79.956h20.323  C162.555,20.971,198.353,56.769,198.353,100.927z"/>
<path style="fill:#279FC9;" d="M56.007,91.502c-3.009,15.862,3.041,29.403,13.646,40.751H42.266  c-13.343,0-24.148-10.815-24.148-24.158v-7.168c0-44.157,35.798-79.956,79.956-79.956C98.074,20.971,67.605,30.375,56.007,91.502z"/>
<g>
	<circle style="fill:#78CAEF;" cx="145.732" cy="65.243" r="14.497"/>
	<circle style="fill:#78CAEF;" cx="124.824" cy="44.345" r="10.657"/>
</g>
<path style="fill:#E8DBC4;" d="M394.319,164.107h-71.036c-6.526,0-11.817,5.29-11.817,11.817v71.036  c0,6.526,5.29,11.817,11.817,11.817h71.036c6.526,0,11.817-5.29,11.817-11.817v-71.036  C406.136,169.398,400.846,164.107,394.319,164.107z"/>
<rect x="318.631" y="171.269" style="fill:#F9EED7;" width="80.338" height="80.338"/>
<g>
	<rect x="337.554" y="184.278" style="fill:#5C5E70;" width="11.842" height="54.335"/>
	<rect x="368.201" y="184.278" style="fill:#5C5E70;" width="11.842" height="54.335"/>
</g>
<g>
</g>
<g>
</g>
<g>
</g>
<g>
</g>
<g>
</g>
<g>
</g>
<g>
</g>
<g>
</g>
<g>
</g>
<g>
</g>
<g>
</g>
<g>
</g>
<g>
</g>
<g>
</g>
<g>
</g>
</svg>
