<?xml version="1.0" encoding="iso-8859-1"?>
<!-- Generator: Adobe Illustrator 19.0.0, SVG Export Plug-In . SVG Version: 6.00 Build 0)  -->
<svg xmlns="http://www.w3.org/2000/svg" xmlns:xlink="http://www.w3.org/1999/xlink" version="1.1" id="Capa_1" x="0px" y="0px" viewBox="0 0 512 512" style="enable-background:new 0 0 512 512;" xml:space="preserve">
<path style="fill:#F4A14E;" d="M512,256c0,141.385-114.615,256-256,256c-50.437,0-97.468-14.587-137.101-39.779  c-12.131-7.701-23.562-16.394-34.189-25.976c-3.302-2.968-6.52-6.029-9.665-9.164c-18.798-18.787-34.691-40.479-46.947-64.355  C10.136,337.721,0,298.047,0,256c0-15.872,1.442-31.41,4.211-46.477c1.818-9.927,4.211-19.634,7.137-29.121  c0.01-0.031,0.021-0.063,0.031-0.094c2.288-7.419,4.911-14.691,7.847-21.797c5.162-12.518,11.285-24.545,18.296-35.976  C82.495,49.037,163.516,0,256,0s173.505,49.037,218.499,122.535C498.291,161.395,512,207.099,512,256z"/>
<path style="fill:#5C5E70;" d="M474.499,122.535H37.522C82.495,49.037,163.516,0,256,0S429.505,49.037,474.499,122.535z"/>
<path style="fill:#F9AF6B;" d="M231.111,224.099c0,8.046-6.52,14.566-14.566,14.566H78.2c-4.023,0-7.67-1.64-10.303-4.274  c-2.623-2.623-4.263-6.269-4.263-10.292c0-8.056-6.52-14.576-14.576-14.576H4.211c1.818-9.927,4.211-19.634,7.137-29.121h15.067  c4.023,0,7.67-1.63,10.292-4.263c2.633-2.633,4.274-6.28,4.274-10.303c0-8.035,6.52-14.555,14.555-14.555h138.355  c4.012,0,7.67,1.63,10.303,4.253c2.633,2.644,4.274,6.28,4.274,10.303c0,8.046-6.52,14.566-14.576,14.566h-46.926  c-8.046,0-14.566,6.52-14.566,14.566c0,8.035,6.52,14.555,14.566,14.555h69.58c4.023,0,7.67,1.63,10.292,4.274  C229.47,216.44,231.111,220.066,231.111,224.099z"/>
<path style="fill:#FF525D;" d="M209.506,181.892c0,0,0,0,0,0.004c-0.961,1.847-2.01,3.65-3.147,5.409  c-4.637,7.176-10.734,13.577-18.202,18.736c-10.593,7.313-22.549,11.157-34.527,11.779c-2.68,0.141-5.36,0.119-8.028-0.066h-0.004  c-11.497-0.776-22.725-4.501-32.485-10.955c-2.442-1.613-4.792-3.399-7.027-5.352c-4.122-3.598-7.869-7.754-11.118-12.462  c-4.598-6.661-7.829-13.86-9.743-21.266c-0.586-2.261-1.049-4.54-1.393-6.833c-1.772-11.832-0.326-23.924,4.1-34.954  c0.771-1.931,1.635-3.831,2.592-5.692c4.413-8.592,10.752-16.337,18.877-22.545c0.855-0.652,1.732-1.287,2.627-1.905  c1.031-0.715,2.076-1.393,3.135-2.036c17.171-10.514,37.431-12.391,55.444-6.612h0.004c2.94,0.944,5.819,2.09,8.614,3.443h0.004  c9.884,4.756,18.727,12.013,25.498,21.574c0.167,0.229,0.33,0.459,0.489,0.692c1.424,2.063,2.72,4.18,3.88,6.339  C219.857,139.134,219.509,162.658,209.506,181.892z"/>
<path style="fill:#EF4152;" d="M173.286,202.619c-2.447,0.129-4.894,0.109-7.33-0.061h-0.004c-10.497-0.708-20.75-4.11-29.66-10.003  c-2.23-1.473-4.375-3.103-6.416-4.886c-3.764-3.284-7.185-7.08-10.151-11.379c-4.198-6.082-7.148-12.655-8.895-19.417  c-0.535-2.065-0.958-4.146-1.272-6.239c-1.619-10.803-0.298-21.845,3.744-31.915c0.704-1.763,1.493-3.498,2.367-5.196  c4.029-7.845,9.817-14.917,17.236-20.584c0.781-0.596,1.582-1.176,2.399-1.739c0.941-0.652,1.895-1.272,2.862-1.86  c3.637-2.228,7.428-4.025,11.309-5.415c-11.776,0.098-23.639,3.295-34.309,9.828c-1.058,0.644-2.102,1.323-3.135,2.037  c-0.894,0.618-1.772,1.252-2.627,1.905c-8.125,6.207-14.463,13.953-18.877,22.545c-0.956,1.86-1.82,3.761-2.592,5.692  c-4.426,11.03-5.872,23.122-4.1,34.954c0.344,2.292,0.807,4.571,1.393,6.833c1.913,7.406,5.145,14.605,9.743,21.266  c3.249,4.708,6.996,8.865,11.118,12.462c2.235,1.953,4.585,3.739,7.027,5.352c9.76,6.454,20.988,10.179,32.485,10.955h0.004  c2.667,0.185,5.348,0.207,8.028,0.066c11.978-0.622,23.933-4.466,34.527-11.779c5.018-3.465,9.412-7.494,13.166-11.94  C192.551,199.329,182.927,202.119,173.286,202.619z"/>
<path style="fill:#5C5E70;" d="M209.506,181.892c0,0,0,0,0,0.004c-0.961,1.847-2.01,3.65-3.147,5.409l-0.701-0.97  c-15.045-20.838-35.302-37.304-58.693-47.73c-15.751,19.851-16.76,47.871-2.253,68.881c2.076,3.006,4.444,5.827,7.035,8.384  l0.053,0.053l1.83,1.895c-2.68,0.141-5.36,0.119-8.028-0.066h-0.004c-2.028-2.2-3.906-4.549-5.603-7.009  c-15.641-22.65-14.869-52.707,1.508-74.435c-5.365-2.134-10.858-3.954-16.404-5.431c-13.688,21.49-18.325,47.901-12.709,72.791  l0.723,3.129c-2.442-1.613-4.792-3.399-7.027-5.352c-4.664-24.713,0.062-50.546,13.154-71.998c-3.081-0.688-6.185-1.274-9.28-1.754  c-4.796,14.451-12.868,27.786-23.443,38.693l-1.291,1.331c-0.586-2.261-1.049-4.54-1.393-6.833  c9.037-9.733,16.011-21.389,20.344-33.98c-4.999-0.578-10.051-0.9-15.063-0.961l-1.182-0.014c0.771-1.931,1.635-3.831,2.592-5.692  c5.127,0.106,10.281,0.476,15.381,1.102c2.147-7.701,3.32-15.637,3.496-23.646c0.855-0.652,1.732-1.287,2.627-1.905  c1.031-0.715,2.076-1.393,3.135-2.037l-0.004,1.865c-0.008,8.984-1.2,17.898-3.531,26.538c3.659,0.586,7.327,1.318,10.951,2.173  c6.934-9.963,15.562-18.542,25.67-25.52c6.987-4.823,14.491-8.742,22.359-11.669h0.004c2.94,0.944,5.819,2.09,8.614,3.443  l-3.562,0.855c-8.539,2.843-16.664,6.912-24.158,12.087c-8.949,6.181-16.668,13.684-22.99,22.346  c5.696,1.596,11.334,3.544,16.827,5.805c3.231-3.54,6.882-6.723,10.862-9.469c6.445-4.452,13.583-7.623,21.033-9.439  c4.81-1.182,9.747-1.79,14.715-1.82c4.259-0.031,8.539,0.37,12.776,1.208c0.167,0.229,0.33,0.459,0.489,0.692  c1.424,2.063,2.72,4.18,3.88,6.339l-2.831-0.824c-3.073-0.759-6.176-1.261-9.284-1.508c-7.86-0.63-15.751,0.357-23.175,2.869  c-5.048,1.702-9.88,4.113-14.35,7.199c-3.077,2.125-5.938,4.532-8.531,7.186C174.147,144.79,194.315,161.234,209.506,181.892z"/>
<g>
	<circle style="fill:#FF6E7C;" cx="185.762" cy="121.313" r="12.068"/>
	<circle style="fill:#FF6E7C;" cx="197.444" cy="141.521" r="6.612"/>
</g>
<path style="fill:#797B89;" d="M196.982,116.859c-7.86-0.63-15.751,0.357-23.175,2.869c0.348-2.702,1.596-5.122,3.429-6.956  c4.81-1.182,9.747-1.79,14.715-1.82C194.218,112.301,196.004,114.378,196.982,116.859z"/>
<path style="fill:#FFD15C;" d="M463.935,163.516v235.311c-26.53,12.466-54.23,21.441-82.442,26.927  c-72.819,14.2-149.044,5.224-217.537-26.927V163.516c8.432-7.784,15.841-17.45,21.943-28.547  c11.483-20.867,18.275-46.811,18.275-74.93c0-15.914-2.194-31.107-6.165-45.108L230.222,0c0.982,29.592,17.293,55.296,41.242,69.423  c12.455,7.346,26.969,11.557,42.486,11.557c8.537,0,16.771-1.275,24.524-3.647C371.921,67.103,396.466,36.519,397.667,0  l32.225,14.932c-3.981,14.002-6.175,29.194-6.175,45.108C423.717,103.1,439.662,141.082,463.935,163.516z"/>
<g>
	<path style="fill:#EDBB4C;" d="M341.832,164.358c-35.631-35.093-57.589-69.924-70.368-94.935   c12.455,7.346,26.969,11.557,42.486,11.557c8.537,0,16.771-1.275,24.524-3.647c5.956,23.783,16.413,47.583,27.788,68.84   C374.588,161.732,354.405,176.74,341.832,164.358z"/>
	<path style="fill:#EDBB4C;" d="M463.935,398.827c-26.53,12.466-54.23,21.441-82.442,26.927   c-72.819,14.2-149.044,5.224-217.537-26.927V163.516c8.432-7.784,15.841-17.45,21.943-28.547l1.358-0.554   C187.256,134.416,279.855,331.567,463.935,398.827z"/>
</g>
<path style="fill:#F9EED7;" d="M313.947,425.908c-48.231,0-97.063-10.396-141.213-30.065l-2.404-1.071V166.268l1.177-1.185  c24.447-24.637,39.044-63.906,39.044-105.047c0-13.059-1.432-25.976-4.255-38.391l-0.726-3.197l18.948-8.781l0.995,5.068  c3.537,18,12.422,34.321,25.696,47.195c16.903,16.394,39.184,25.424,62.739,25.424c23.555,0,45.835-9.029,62.74-25.424  c13.273-12.875,22.159-29.194,25.696-47.195l0.997-5.068l18.948,8.781l-0.727,3.197c-2.823,12.412-4.255,25.328-4.255,38.391  c0,41.14,14.596,80.409,39.044,105.047l1.177,1.185v228.503l-2.404,1.071C411.012,415.512,362.179,425.908,313.947,425.908z   M178.437,389.497c42.484,18.523,89.281,28.304,135.511,28.304c46.23,0,93.026-9.781,135.512-28.304V169.59  c-25.213-26.179-40.219-66.98-40.219-109.553c0-12.545,1.263-24.967,3.758-36.978l-3.779-1.751  c-4.434,17.644-13.662,33.613-26.887,46.442c-18.424,17.87-42.71,27.712-68.383,27.712c-25.673,0-49.96-9.842-68.382-27.712  c-13.225-12.827-22.454-28.796-26.886-46.442l-3.779,1.752c2.494,12.012,3.757,24.435,3.757,36.977  c0,42.574-15.007,83.376-40.219,109.553v219.907H178.437z"/>
<g>
	<polygon style="fill:#5C5E70;" points="287.675,168.235 287.675,301.228 270.304,301.228 270.304,194.036 252.307,215.113    239.094,203.833 269.493,168.235  "/>
	<polygon style="fill:#5C5E70;" points="367.143,168.235 367.143,301.228 349.771,301.228 349.771,194.036 331.774,215.113    318.561,203.833 348.96,168.235  "/>
	<path style="fill:#5C5E70;" d="M376.717,423.821v14.472c0,6.646-4.796,12.319-11.358,13.427l-121.898,20.501H118.899   c-12.131-7.701-23.562-16.394-34.189-25.976c-3.302-2.968-6.52-6.029-9.665-9.164l244.161-10.731L376.717,423.821z"/>
</g>
<path style="fill:#F9EED7;" d="M376.717,423.821l-57.49,9.676l-75.776,12.748H84.71c-3.302-2.968-6.52-6.029-9.665-9.164  c-18.798-18.787-34.691-40.479-46.947-64.355v-2.382l2.32-14.827l2.79-17.763l11.295-72.004l29.999-3.229l70.677-7.617l32.653-3.511  l14.336,13.814l11.452,11.024l8.056,7.753l11.452,11.034l9.916,9.55l11.452,11.034l10.376,9.989l11.452,11.034l6.917,6.656  c0.846,0.815,1.714,1.588,2.602,2.341c4.2,3.532,8.903,6.374,13.918,8.432c6.322,2.612,13.155,3.992,20.114,3.992  c21.389,0,40.521,10.073,52.767,25.83h0.01c8.192,10.522,13.302,23.594,13.96,37.878L376.717,423.821z"/>
<path style="fill:#FF525D;" d="M309.877,358.047l-28.919,31.878c-11.531,12.692-30.912,14.294-44.363,3.656l-67.73-53.571  l-24.615-82.05l0.929-3.057l32.649-3.51l95.415,91.881C283.086,352.752,296.218,358.047,309.877,358.047z"/>
<g>
	<path style="fill:#FCF8F2;" d="M182.995,293.256c-2.063,0-4.123-0.797-5.68-2.388c-3.071-3.137-3.018-8.168,0.119-11.24   l16.885-16.532c3.137-3.071,8.167-3.018,11.24,0.119c3.071,3.137,3.018,8.168-0.119,11.24l-16.885,16.532   C187.009,292.501,185.001,293.256,182.995,293.256z"/>
	<path style="fill:#FCF8F2;" d="M202.14,312.4c-2.063,0-4.123-0.797-5.68-2.388c-3.071-3.137-3.018-8.168,0.119-11.24l16.885-16.532   c3.137-3.071,8.168-3.018,11.24,0.119c3.071,3.137,3.018,8.168-0.119,11.24L207.7,310.132   C206.153,311.646,204.146,312.4,202.14,312.4z"/>
	<path style="fill:#FCF8F2;" d="M223.108,333.368c-2.063,0-4.123-0.797-5.68-2.388c-3.071-3.137-3.018-8.168,0.119-11.24   l16.885-16.532c3.136-3.071,8.168-3.018,11.24,0.119c3.071,3.137,3.018,8.168-0.119,11.24L228.668,331.1   C227.121,332.614,225.113,333.368,223.108,333.368z"/>
	<path style="fill:#FCF8F2;" d="M244.53,354.792c-2.063,0-4.123-0.797-5.679-2.388c-3.071-3.137-3.019-8.168,0.118-11.24   l16.883-16.533c3.136-3.072,8.169-3.018,11.24,0.118c3.071,3.137,3.019,8.168-0.118,11.24l-16.883,16.533   C248.545,354.038,246.536,354.792,244.53,354.792z"/>
	<path style="fill:#FCF8F2;" d="M266.409,373.937c-2.063,0-4.123-0.797-5.679-2.388c-3.071-3.137-3.019-8.169,0.118-11.24   l16.884-16.533c3.137-3.072,8.169-3.018,11.24,0.118c3.071,3.137,3.019,8.169-0.118,11.24l-16.884,16.533   C270.423,373.181,268.415,373.937,266.409,373.937z"/>
</g>
<path style="fill:#E8DBC4;" d="M243.451,446.245H84.71c-3.302-2.968-6.52-6.029-9.665-9.164  c-18.798-18.787-34.691-40.479-46.947-64.355v-2.382l2.32-14.827l2.79-17.763l11.295-72.004l29.999-3.229  C74.501,262.52,51.618,432.682,243.451,446.245z"/>
<g>
	<path style="fill:#FF525D;" d="M187.598,340.598c-21.595,18.306-52.763,37.137-89.57,37.137c-11.335,0-23.208-1.786-35.497-5.918   c-12.999-4.377-23.845-10.541-32.111-16.299l2.788-17.767c7.666,6.126,19.711,14.159,34.996,19.198   c36.072,11.898,72.78,2.311,109.122-28.479L187.598,340.598z"/>
	<path style="fill:#FF525D;" d="M319.231,433.494l0.049-5.967c-1.553-19.528,11.678-37.148,30.863-41.085l12.497-2.568h0.013   c8.193,10.528,13.304,23.6,13.964,37.882l0.098,2.067L319.231,433.494z"/>
</g>
<g>
</g>
<g>
</g>
<g>
</g>
<g>
</g>
<g>
</g>
<g>
</g>
<g>
</g>
<g>
</g>
<g>
</g>
<g>
</g>
<g>
</g>
<g>
</g>
<g>
</g>
<g>
</g>
<g>
</g>
</svg>
