<?xml version="1.0" encoding="iso-8859-1"?>
<!-- Generator: Adobe Illustrator 19.0.0, SVG Export Plug-In . SVG Version: 6.00 Build 0)  -->
<svg xmlns="http://www.w3.org/2000/svg" xmlns:xlink="http://www.w3.org/1999/xlink" version="1.1" id="Capa_1" x="0px" y="0px" viewBox="0 0 512 512" style="enable-background:new 0 0 512 512;" xml:space="preserve">
<path style="fill:#C69A6A;" d="M512,256c0,18.85-2.038,37.229-5.904,54.92c-18.568,84.939-79.318,154.121-159.189,184.465  c-18.589,7.064-38.212,12.027-58.587,14.587c-10.574,1.337-21.358,2.027-32.298,2.027c-0.01,0-0.01,0-0.021,0  c-12.277,0-24.356-0.867-36.174-2.539c-55.578-7.858-105.43-33.572-143.547-71.147c-8.704-8.579-16.791-17.784-24.21-27.533  c-22.079-29.058-38.097-62.976-46.153-99.86c-3.312-15.099-5.277-30.688-5.778-46.654c-0.094-2.738-0.136-5.496-0.136-8.265  c0-47.208,12.779-91.438,35.077-129.41C79.53,50.846,161.825,0.002,256.002,0.002c54.24,0,104.541,16.865,145.94,45.651  c25.286,17.565,47.24,39.58,64.762,64.909c11.4,16.488,20.919,34.377,28.243,53.363c2.445,6.342,4.65,12.821,6.583,19.393  C508.343,206.368,512,230.755,512,256z"/>
<g>
	<path style="fill:#D3AA81;" d="M205.293,140.362c0,3.803-1.536,7.252-4.023,9.738c-2.497,2.487-5.935,4.033-9.738,4.033h-84.897   c-7.607,0-13.772,6.154-13.772,13.761c0,3.803,1.536,7.241,4.033,9.738s5.935,4.033,9.738,4.033h38.661   c7.607,0,13.772,6.165,13.772,13.761c0,3.803-1.536,7.252-4.033,9.738c-2.497,2.487-5.935,4.033-9.738,4.033h-11.671   c-7.607,0-13.772,6.165-13.772,13.761c0,3.803,1.546,7.241,4.033,9.738s5.935,4.033,9.738,4.033h41.848   c7.596,0,13.761,6.165,13.761,13.761c0,3.803-1.546,7.252-4.033,9.738s-5.935,4.033-9.728,4.033H0.139   c-0.094-2.738-0.136-5.496-0.136-8.265c0-47.208,12.779-91.438,35.077-129.41h156.452   C199.139,126.59,205.293,132.755,205.293,140.362z"/>
	<path style="fill:#D3AA81;" d="M501.53,183.317H373.719c-7.607,0-13.772-6.165-13.772-13.761c0-3.803-1.546-7.252-4.033-9.738   c-2.487-2.487-5.935-4.033-9.728-4.033h-1.358c-7.596,0-13.761-6.165-13.761-13.761c0-3.803,1.546-7.241,4.033-9.738   s5.935-4.033,9.728-4.033h25.245c7.596,0,13.761-6.165,13.761-13.772c0-3.793-1.546-7.241-4.033-9.728s-5.935-4.033-9.728-4.033   h-25.245c-7.596,0-13.761-6.165-13.761-13.772c0-7.596,6.165-13.761,13.761-13.761h4.587c7.607,0,13.772-6.165,13.772-13.772   c0-3.793,1.546-7.241,4.033-9.728c2.487-2.487,5.935-4.033,9.738-4.033h24.983c25.286,17.565,47.24,39.58,64.762,64.909   c11.4,16.488,20.919,34.377,28.243,53.363C497.392,170.267,499.597,176.745,501.53,183.317z"/>
</g>
<g>
	<path style="fill:#494B5B;" d="M89.861,257.077C40.312,257.077,0,216.765,0,167.217s40.312-89.861,89.861-89.861   s89.861,40.312,89.861,89.861S139.409,257.077,89.861,257.077z M89.861,94.074c-40.331,0-73.142,32.812-73.142,73.142   s32.812,73.142,73.142,73.142s73.142-32.812,73.142-73.142S130.191,94.074,89.861,94.074z"/>
	<path style="fill:#494B5B;" d="M328.723,257.077c-49.549,0-89.861-40.312-89.861-89.861s40.312-89.861,89.861-89.861   s89.861,40.312,89.861,89.861S378.273,257.077,328.723,257.077z M328.723,94.074c-40.331,0-73.142,32.812-73.142,73.142   s32.812,73.142,73.142,73.142s73.142-32.812,73.142-73.142S369.054,94.074,328.723,94.074z"/>
</g>
<path style="fill:#FF525D;" d="M95.204,160.425l54.045-96.081l50.569,96.081H95.204z M211.573,153.594l-50.85-96.613h111.233  L211.573,153.594z M356.485,26.215c-2.8-10.836-12.936-18.16-24.106-17.397l-27.125,1.839l-20.877,1.411  c-2.058,0.136-3.939,1.202-5.11,2.894c-1.181,1.693-1.526,3.835-0.94,5.81l6.708,22.685c-0.272-0.031-0.543-0.063-0.825-0.063  H153.577l-9.644-18.307l-12.016,6.322l9.801,18.62L77.676,163.89c-1.191,2.1-1.17,4.671,0.052,6.76  c1.223,2.079,3.448,3.354,5.862,3.354h126.745v-0.031c0.157,0.01,0.324,0.021,0.481,0.031h0.251c2.341,0,4.514-1.202,5.757-3.187  l71.868-114.99l33.52,113.318c0.867,2.957,3.574,4.869,6.51,4.869c0.637,0,1.285-0.094,1.933-0.282  c3.594-1.066,5.642-4.848,4.577-8.443L293.76,25.044l15.579-1.055l23.959-1.62c4.639-0.334,8.871,2.727,10.031,7.241  c0.721,2.79,0.167,5.736-1.515,8.077c-1.682,2.341-4.294,3.793-7.168,4.002l-9.54,0.679c-3.741,0.272-6.562,3.521-6.29,7.262  c0.261,3.741,3.532,6.551,7.252,6.29l9.54-0.679c6.907-0.502,13.187-4.002,17.23-9.623  C356.882,39.986,358.209,32.923,356.485,26.215z"/>
<g>
	<circle style="fill:#F9EED7;" cx="89.861" cy="167.213" r="13.932"/>
	<circle style="fill:#F9EED7;" cx="328.723" cy="167.213" r="13.932"/>
</g>
<g>
	<path style="fill:#494B5B;" d="M164.048,36.083h-26.612c-16.151,0-29.289-13.14-29.289-29.289c0-3.751,3.041-6.792,6.792-6.792   c3.751,0,6.792,3.041,6.792,6.792c0,8.66,7.046,15.706,15.706,15.706h26.612c3.751,0,6.792,3.041,6.792,6.792   C170.84,33.042,167.799,36.083,164.048,36.083z"/>
	<path style="fill:#494B5B;" d="M352.838,45.618c-4.044,5.622-10.324,9.122-17.23,9.623l-9.54,0.679   c-3.72,0.261-6.99-2.55-7.252-6.29c-0.272-3.741,2.55-6.99,6.29-7.262l9.54-0.679c2.873-0.209,5.486-1.661,7.168-4.002   c1.682-2.341,2.236-5.287,1.515-8.077c-1.16-4.514-5.392-7.575-10.031-7.241l-23.959,1.62l-4.086-13.333l27.125-1.839   c11.17-0.763,21.305,6.562,24.106,17.397C358.209,32.923,356.882,39.986,352.838,45.618z"/>
</g>
<path style="fill:#FF6E7C;" d="M267.776,53.158h-51.228c-2.308,0-4.18-1.871-4.18-4.18l0,0c0-2.308,1.871-4.18,4.18-4.18h51.228  c2.308,0,4.18,1.871,4.18,4.18l0,0C271.956,51.288,270.086,53.158,267.776,53.158z"/>
<path style="fill:#4BC999;" d="M506.096,310.92c-4.169,19.09-10.48,37.397-18.662,54.637c-8.495,17.909-19.007,34.68-31.253,50.019  c-1.358,1.703-2.738,3.385-4.138,5.047c-8.15,9.717-17.021,18.808-26.519,27.209c-45.15,39.925-104.5,64.156-169.502,64.167  c-0.01,0-0.01,0-0.021,0c-12.277,0-24.356-0.867-36.174-2.539C113.719,494.455,28.529,414.395,5.917,310.92H506.096z"/>
<g>
	<path style="fill:#3BB282;" d="M487.435,365.557c-8.495,17.909-19.007,34.68-31.253,50.019c-1.358,1.703-2.738,3.385-4.138,5.047   H344.702c-3.793,0-7.241-1.546-9.728-4.033c-2.487-2.487-4.033-5.935-4.033-9.728c0-7.607,6.165-13.772,13.761-13.772h3.824   c3.803,0,7.241-1.536,9.738-4.033c2.497-2.487,4.033-5.925,4.033-9.728c0-7.607-6.165-13.772-13.772-13.772h-37.522   c-3.803,0-7.252-1.546-9.738-4.033s-4.033-5.935-4.033-9.738c0-7.596,6.165-13.761,13.772-13.761h116.014   c7.607,0,13.772,6.165,13.772,13.761c0,7.607,6.154,13.772,13.761,13.772L487.435,365.557L487.435,365.557z"/>
	<path style="fill:#3BB282;" d="M284.37,452.074c0,7.607-6.165,13.772-13.761,13.772H139.82c-3.803,0-7.241-1.546-9.738-4.033   c-2.497-2.487-4.033-5.935-4.033-9.738c0-7.596-6.165-13.761-13.761-13.761H76.28c-8.704-8.579-16.791-17.784-24.21-27.533h38.797   c3.803,0,7.252-1.546,9.738-4.033c2.487-2.487,4.033-5.935,4.033-9.738c0-7.607,6.165-13.761,13.761-13.761h130.789   c3.803,0,7.252,1.536,9.738,4.023c2.487,2.497,4.033,5.935,4.033,9.738c0,7.607-6.165,13.772-13.772,13.772h-44.366   c-7.596,0-13.761,6.165-13.761,13.761c0,7.607,6.165,13.772,13.761,13.772h65.786c3.803,0,7.241,1.536,9.728,4.033   C282.834,444.833,284.37,448.271,284.37,452.074z"/>
</g>
<path style="fill:#FFD15C;" d="M256.022,511.998c-0.01,0-0.01,0-0.021,0c-12.277,0-24.356-0.867-36.174-2.539l-59.548-59.548h-0.01  l-3.176-36.843L256.022,511.998z"/>
<path style="fill:#5C5E70;" d="M382.15,267.923c-33.656,33.656-53.601,13.711-87.257,47.367s-13.711,53.601-47.367,87.257  c-33.654,33.654-53.599,13.709-87.254,47.364L58.582,348.22c33.654-33.654,53.599-13.709,87.254-47.364  c33.656-33.656,13.711-53.601,47.367-87.257s53.601-13.712,87.257-47.367L382.15,267.923z"/>
<g>
	<path style="fill:#F9EED7;" d="M170.009,392.329v0.008c-13.407,3.42-26.805,6.849-43.632,23.676l-33.892-33.892v-0.008   c16.827-16.827,30.225-20.255,43.623-23.676h0.008L170.009,392.329z"/>
	<path style="fill:#F9EED7;" d="M213.642,368.645l33.892,33.9c-16.827,16.827-30.234,20.255-43.632,23.685l-33.883-33.892   c13.398-3.429,26.787-6.858,43.614-23.685L213.642,368.645z"/>
	<path style="fill:#F9EED7;" d="M179.74,334.744l-0.008,0.008c-16.827,16.827-30.216,20.255-43.614,23.685h-0.008v-0.008   l-33.892-33.892c13.407-3.429,26.796-6.858,43.623-23.685h0.008L179.74,334.744z"/>
	<path style="fill:#F9EED7;" d="M203.416,291.13l33.9,33.892c-3.429,13.398-6.858,26.796-23.676,43.623l-33.9-33.9   C196.559,317.917,199.996,304.528,203.416,291.13z"/>
	<path style="fill:#F9EED7;" d="M261.001,281.399l33.892,33.892c-16.827,16.827-20.255,30.234-23.676,43.632l-33.9-33.9   C240.746,311.624,244.174,298.226,261.001,281.399z"/>
	<path style="fill:#F9EED7;" d="M193.209,213.597l33.892,33.9c-16.827,16.827-20.255,30.216-23.685,43.623l-33.892-33.892   C172.954,243.823,176.374,230.424,193.209,213.597z"/>
	<path style="fill:#F9EED7;" d="M270.732,223.814l33.892,33.892c-13.398,3.429-26.796,6.858-43.623,23.685v0.008l-33.9-33.9   C243.928,230.662,257.335,227.234,270.732,223.814z"/>
	<path style="fill:#F9EED7;" d="M348.256,234.03l33.892,33.892c-16.835,16.827-30.225,20.255-43.623,23.685l-33.892-33.892   l-0.008-0.008C318.032,254.285,331.429,250.857,348.256,234.03z"/>
	<path style="fill:#F9EED7;" d="M280.464,166.238l33.892,33.892c-16.827,16.827-30.216,20.255-43.623,23.685l-33.892-33.9   c13.398-3.429,26.796-6.849,43.623-23.685V166.238z"/>
</g>
<path style="fill:#FF525D;" d="M494.947,163.924l-148.04,331.46c-18.589,7.064-38.212,12.027-58.587,14.587l178.384-399.41  C478.104,127.05,487.623,144.938,494.947,163.924z"/>
<g>
</g>
<g>
</g>
<g>
</g>
<g>
</g>
<g>
</g>
<g>
</g>
<g>
</g>
<g>
</g>
<g>
</g>
<g>
</g>
<g>
</g>
<g>
</g>
<g>
</g>
<g>
</g>
<g>
</g>
</svg>
