<?xml version="1.0" encoding="iso-8859-1"?>
<!-- Generator: Adobe Illustrator 19.0.0, SVG Export Plug-In . SVG Version: 6.00 Build 0)  -->
<svg xmlns="http://www.w3.org/2000/svg" xmlns:xlink="http://www.w3.org/1999/xlink" version="1.1" id="Capa_1" x="0px" y="0px" viewBox="0 0 512 512" style="enable-background:new 0 0 512 512;" xml:space="preserve">
<path style="fill:#F4A14E;" d="M511.552,256.448c0,118.879-81.172,218.805-191.122,247.364c-19.453,5.048-39.814,7.865-60.78,8.157  C258.43,511.99,257.22,512,256,512C114.862,512,0.448,397.586,0.448,256.448c0-1.22,0.01-2.43,0.031-3.651  c0.156-11.307,1.053-22.436,2.639-33.347c1.335-9.315,3.192-18.473,5.518-27.433c13.122-50.495,41.295-94.93,79.44-128.204  C132.98,24.626,191.726,0.896,256,0.896C397.138,0.896,511.552,115.31,511.552,256.448z"/>
<path style="fill:#F9AF6B;" d="M120.818,149.857c3.4,3.39,5.497,8.084,5.497,13.268c0,10.379-8.407,18.775-18.775,18.775h-1.836  c-5.184,0-9.878,2.107-13.278,5.497c-3.4,3.4-5.497,8.094-5.497,13.278c0,10.368-8.407,18.775-18.775,18.775H3.118  c1.335-9.315,3.192-18.473,5.518-27.433c13.122-50.495,41.295-94.93,79.44-128.204c3.38,3.369,8.052,5.445,13.205,5.445h6.258  c10.368,0,18.775,8.407,18.775,18.775s-8.407,18.775-18.775,18.775H73.129c-5.184,0-9.878,2.097-13.278,5.497  c-3.39,3.4-5.497,8.094-5.497,13.278c0,10.368,8.407,18.775,18.775,18.775h34.411C112.724,144.36,117.418,146.456,120.818,149.857z"/>
<circle style="fill:#E28D40;" cx="308.154" cy="278.813" r="184.446"/>
<path style="fill:#FF525D;" d="M489.4,278.199c0,0,0,0,0,0.013c-2.729,5.246-5.709,10.365-8.938,15.36  c-13.169,20.379-30.482,38.556-51.687,53.202c-30.081,20.768-64.031,31.683-98.042,33.448c-7.611,0.401-15.223,0.338-22.795-0.188  h-0.013c-32.647-2.203-64.532-12.781-92.247-31.107c-6.935-4.582-13.607-9.652-19.954-15.198  c-11.704-10.215-22.345-22.019-31.571-35.389c-13.056-18.915-22.232-39.357-27.665-60.387c-1.665-6.422-2.979-12.893-3.955-19.403  c-5.032-33.598-0.926-67.936,11.642-99.256c2.19-5.482,4.644-10.878,7.361-16.161c12.53-24.398,30.532-46.393,53.603-64.018  c2.428-1.852,4.919-3.655,7.461-5.407c2.929-2.028,5.896-3.955,8.901-5.784C270.257-1.933,327.79-7.266,378.939,9.146h0.013  c8.35,2.679,16.524,5.934,24.46,9.777h0.013c28.066,13.507,53.177,34.113,72.405,61.264c0.476,0.651,0.939,1.302,1.389,1.965  c4.043,5.859,7.724,11.867,11.016,18.001C518.793,156.785,517.804,223.582,489.4,278.199z"/>
<path style="fill:#EF4152;" d="M386.546,337.059c-6.949,0.366-13.899,0.309-20.813-0.172h-0.011  c-29.809-2.012-58.921-11.67-84.227-28.403c-6.332-4.184-12.424-8.812-18.219-13.876c-10.687-9.327-20.402-20.105-28.826-32.312  c-11.921-17.27-20.299-35.936-25.26-55.138c-1.52-5.863-2.72-11.772-3.612-17.717c-4.595-30.678-0.846-62.029,10.63-90.627  c2.001-5.006,4.24-9.933,6.72-14.756c11.441-22.277,27.877-42.359,48.943-58.453c2.218-1.692,4.491-3.338,6.812-4.938  c2.674-1.851,5.383-3.612,8.127-5.281c10.329-6.325,21.095-11.429,32.114-15.375c-33.439,0.281-67.126,9.356-97.425,27.909  c-3.004,1.827-5.972,3.755-8.901,5.784c-2.541,1.752-5.033,3.555-7.461,5.407c-23.071,17.626-41.072,39.62-53.603,64.018  c-2.716,5.283-5.169,10.678-7.361,16.161c-12.568,31.32-16.675,65.658-11.642,99.256c0.976,6.51,2.291,12.981,3.955,19.403  c5.433,21.03,14.608,41.472,27.665,60.387c9.226,13.369,19.866,25.174,31.571,35.389c6.347,5.546,13.019,10.615,19.954,15.198  c27.715,18.327,59.599,28.905,92.247,31.107h0.013c7.574,0.526,15.185,0.588,22.795,0.188c34.011-1.765,67.961-12.681,98.042-33.448  c14.247-9.84,26.729-21.28,37.386-33.905C441.252,327.715,413.924,335.638,386.546,337.059z"/>
<path style="fill:#5C5E70;" d="M489.4,278.199c0,0,0,0,0,0.013c-2.729,5.246-5.709,10.365-8.938,15.36l-1.99-2.754  c-42.724-59.173-100.245-105.929-166.667-135.534c-44.728,56.37-47.594,135.935-6.397,195.596  c5.896,8.538,12.618,16.549,19.979,23.809l0.15,0.15l5.196,5.382c-7.611,0.401-15.223,0.338-22.795-0.188h-0.013  c-5.759-6.247-11.091-12.918-15.911-19.904c-44.415-64.319-42.223-149.667,4.281-211.37c-15.235-6.059-30.832-11.229-46.58-15.423  c-38.869,61.026-52.038,136.023-36.09,206.7l2.053,8.888c-6.935-4.582-13.607-9.651-19.954-15.198  c-13.244-70.177,0.175-143.534,37.354-204.447c-8.75-1.953-17.563-3.617-26.351-4.983c-13.619,41.034-36.541,78.902-66.572,109.872  l-3.667,3.78c-1.665-6.422-2.979-12.893-3.955-19.403c25.663-27.64,45.466-60.738,57.771-96.49  c-14.195-1.64-28.542-2.553-42.774-2.729l-3.355-0.038c2.19-5.482,4.644-10.878,7.361-16.161c14.559,0.3,29.192,1.352,43.676,3.129  c6.097-21.869,9.426-44.402,9.927-67.148c2.428-1.852,4.919-3.655,7.461-5.407c2.929-2.028,5.896-3.955,8.901-5.784l-0.013,5.296  c-0.025,25.512-3.405,50.824-10.027,75.36c10.39,1.665,20.805,3.743,31.095,6.172c19.691-28.291,44.19-52.651,72.893-72.467  c19.841-13.694,41.147-24.824,63.493-33.136h0.013c8.35,2.679,16.524,5.934,24.46,9.777l-10.115,2.428  c-24.247,8.074-47.319,19.628-68.6,34.325c-25.412,17.551-47.331,38.856-65.283,63.455c16.174,4.531,32.184,10.065,47.782,16.487  c9.176-10.052,19.541-19.09,30.845-26.889c18.302-12.643,38.569-21.644,59.724-26.802c13.657-3.355,27.678-5.083,41.785-5.17  c12.092-0.088,24.247,1.051,36.278,3.43c0.476,0.651,0.939,1.302,1.389,1.965c4.043,5.859,7.724,11.867,11.016,18.001L480.2,97.81  c-8.725-2.153-17.538-3.58-26.364-4.281c-22.32-1.79-44.728,1.014-65.808,8.15c-14.333,4.832-28.053,11.679-40.746,20.442  c-8.738,6.034-16.862,12.868-24.223,20.405C388.991,172.846,446.262,219.539,489.4,278.199z"/>
<g>
	<circle style="fill:#FF6E7C;" cx="421.984" cy="106.164" r="34.267"/>
	<circle style="fill:#FF6E7C;" cx="455.143" cy="163.543" r="18.775"/>
</g>
<path style="fill:#797B89;" d="M453.836,93.531c-22.32-1.79-44.728,1.014-65.808,8.15c0.989-7.674,4.531-14.546,9.739-19.754  c13.657-3.355,27.678-5.083,41.785-5.17C445.987,80.587,451.057,86.483,453.836,93.531z"/>
<path style="fill:#FCF8F2;" d="M320.43,503.812c-19.453,5.048-39.814,7.865-60.78,8.157L0.479,252.797  c0.292-20.966,3.108-41.326,8.157-60.78L320.43,503.812z"/>
<path style="fill:#F9EED7;" d="M277.3,460.681c-77.145-12.986-138.029-73.87-151.016-151.016L277.3,460.681z"/>
<g>
</g>
<g>
</g>
<g>
</g>
<g>
</g>
<g>
</g>
<g>
</g>
<g>
</g>
<g>
</g>
<g>
</g>
<g>
</g>
<g>
</g>
<g>
</g>
<g>
</g>
<g>
</g>
<g>
</g>
</svg>
