<?xml version="1.0" encoding="iso-8859-1"?>
<!-- Generator: Adobe Illustrator 19.0.0, SVG Export Plug-In . SVG Version: 6.00 Build 0)  -->
<svg xmlns="http://www.w3.org/2000/svg" xmlns:xlink="http://www.w3.org/1999/xlink" version="1.1" id="Capa_1" x="0px" y="0px" viewBox="0 0 512 512" style="enable-background:new 0 0 512 512;" xml:space="preserve">
<path style="fill:#5C5E70;" d="M512,256c0,16.165-1.494,31.974-4.368,47.303c-0.293,1.567-0.596,3.124-0.92,4.681  c-1.097,5.36-2.372,10.647-3.814,15.882c-10.794,39.382-30.751,74.961-57.448,104.312C398.629,479.671,331.086,512,256,512  c-24.263,0-47.731-3.375-69.966-9.686c-34.105-9.665-65.317-26.227-92.024-48.076c-1.599-1.306-3.176-2.623-4.744-3.971  c-4.232-3.636-8.349-7.408-12.33-11.327c-14.252-13.939-26.885-29.539-37.575-46.487c-0.146-0.23-0.293-0.46-0.439-0.7  c-4.2-6.698-8.088-13.605-11.661-20.699c-0.94-1.849-1.849-3.72-2.738-5.59c-6.29-13.281-11.473-27.188-15.423-41.597  c-0.825-2.988-1.588-5.987-2.299-9.017c-0.899-3.814-1.714-7.67-2.435-11.546c-0.303-1.63-0.596-3.26-0.867-4.901  C1.191,284.609,0,270.451,0,256c0-34.074,6.656-66.591,18.735-96.319c6.917-17.021,15.611-33.123,25.851-48.076  c7.471-10.93,15.778-21.243,24.816-30.866C116.099,31.044,182.429,0,256,0s139.901,31.044,186.598,80.739  C485.637,126.537,512,188.197,512,256z"/>
<g>
	<path style="fill:#797B89;" d="M506.713,307.984c-1.097,5.36-2.372,10.647-3.814,15.882   c-10.794,39.382-30.751,74.961-57.448,104.312h-64.554c-3.312,0-6.322-1.348-8.495-3.521c-2.173-2.173-3.521-5.183-3.521-8.505   c0-6.635,5.381-12.016,12.016-12.016h36.54c3.323,0,6.322-1.348,8.495-3.521s3.521-5.172,3.521-8.495   c0-6.635-5.381-12.016-12.016-12.016h-10.198c-3.323,0-6.322-1.348-8.495-3.521c-2.173-2.173-3.521-5.172-3.521-8.495   c0-6.646,5.381-12.027,12.016-12.027h33.75c3.323,0,6.332-1.348,8.505-3.521s3.521-5.183,3.521-8.495   c0-6.635-5.381-12.016-12.027-12.016h-74.115c-3.312,0-6.322-1.348-8.495-3.521c-2.173-2.173-3.521-5.183-3.521-8.495   c0-6.646,5.381-12.027,12.016-12.027H506.713z"/>
	<path style="fill:#797B89;" d="M406.169,192.907L406.169,192.907c0-6.638-5.381-12.018-12.018-12.018H292.869   c-6.637,0-12.018,5.381-12.018,12.018l0,0c0,6.637,5.381,12.018,12.018,12.018h32.761c6.637,0,12.018,5.381,12.018,12.018l0,0   c0,6.637-5.381,12.018-12.018,12.018h-3.34c-6.637,0-12.018,5.381-12.018,12.018l0,0c0,6.637,5.381,12.018,12.018,12.018h97.07   c6.637,0,12.018-5.381,12.018-12.018l0,0c0-6.637,5.381-12.018,12.018-12.018h3.341c6.637,0,12.018-5.381,12.018-12.018l0,0   c0-6.637-5.381-12.018-12.018-12.018h-28.55C411.549,204.925,406.169,199.544,406.169,192.907z"/>
	<path style="fill:#797B89;" d="M178.145,171.698c0,6.635-5.381,12.016-12.016,12.016H51.952c-3.323,0-6.322-1.348-8.495-3.521   c-2.173-2.173-3.521-5.183-3.521-8.495c0-6.635-5.381-12.016-12.027-12.016h-9.174c6.917-17.021,15.611-33.123,25.851-48.076   h102.849c3.323,0,6.322,1.348,8.495,3.521c2.173,2.173,3.521,5.172,3.521,8.495c0,6.646-5.381,12.027-12.016,12.027h-38.734   c-6.635,0-12.016,5.381-12.016,12.016c0,6.635,5.381,12.016,12.016,12.016h57.428c3.312,0,6.322,1.348,8.495,3.521   C176.797,165.376,178.145,168.385,178.145,171.698z"/>
	<path style="fill:#797B89;" d="M219.094,490.297c0,6.635-5.381,12.016-12.016,12.016h-21.044   c-34.105-9.665-65.317-26.227-92.024-48.076h89.036c6.635,0,12.016,5.381,12.016,12.016v0.01c0,3.323,1.348,6.322,3.521,8.495   c2.173,2.173,5.172,3.521,8.495,3.521s6.322,1.348,8.495,3.521C217.746,483.976,219.094,486.975,219.094,490.297z"/>
</g>
<path style="fill:#3BB282;" d="M442.598,80.739H69.402C116.099,31.044,182.429,0,256,0S395.901,31.044,442.598,80.739z"/>
<g>
	<path style="fill:#FCF8F2;" d="M146.286,303.303v20.564H9.101c-1.86-6.75-3.438-13.605-4.733-20.564H146.286z"/>
	<rect x="236.147" y="303.303" style="fill:#FCF8F2;" width="158.824" height="20.558"/>
	<path style="fill:#FCF8F2;" d="M507.632,303.303c-1.296,6.959-2.873,13.814-4.733,20.564h-18.066v-20.564H507.632z"/>
</g>
<g>
	<path style="fill:#494B5B;" d="M173.893,257.144c-49.549,0-89.861-40.312-89.861-89.861s40.312-89.861,89.861-89.861   s89.861,40.312,89.861,89.861S223.443,257.144,173.893,257.144z M173.893,94.14c-40.331,0-73.143,32.812-73.143,73.143   s32.812,73.143,73.143,73.143s73.143-32.812,73.143-73.143S214.225,94.14,173.893,94.14z"/>
	<path style="fill:#494B5B;" d="M412.757,257.144c-49.549,0-89.861-40.312-89.861-89.861s40.312-89.861,89.861-89.861   s89.861,40.312,89.861,89.861S462.307,257.144,412.757,257.144z M412.757,94.14c-40.331,0-73.143,32.812-73.143,73.143   s32.812,73.143,73.143,73.143s73.143-32.812,73.143-73.143S453.089,94.14,412.757,94.14z"/>
</g>
<path style="fill:#FF525D;" d="M179.238,160.491l54.045-96.081l50.569,96.081H179.238z M295.607,153.66l-50.85-96.613H355.99  L295.607,153.66z M440.518,26.279c-2.8-10.836-12.936-18.16-24.106-17.398l-27.126,1.839l-20.877,1.411  c-2.058,0.136-3.939,1.202-5.11,2.894c-1.181,1.693-1.526,3.835-0.94,5.81l6.708,22.685c-0.272-0.031-0.543-0.063-0.825-0.063  H237.61l-9.644-18.307l-12.016,6.322l9.801,18.62l-64.042,113.863c-1.191,2.1-1.17,4.671,0.052,6.76  c1.223,2.079,3.448,3.354,5.862,3.354h126.746v-0.031c0.157,0.01,0.324,0.021,0.481,0.031h0.251c2.341,0,4.514-1.202,5.757-3.187  l71.868-114.991l33.52,113.319c0.867,2.957,3.574,4.869,6.51,4.869c0.637,0,1.285-0.094,1.933-0.282  c3.594-1.066,5.642-4.848,4.577-8.443L377.793,25.109l15.579-1.055l23.96-1.62c4.639-0.334,8.871,2.727,10.031,7.241  c0.721,2.79,0.167,5.736-1.515,8.077c-1.682,2.341-4.295,3.793-7.168,4.002l-9.54,0.679c-3.741,0.272-6.562,3.521-6.29,7.262  c0.261,3.741,3.532,6.552,7.252,6.29l9.54-0.679c6.907-0.502,13.187-4.002,17.23-9.624  C440.916,40.051,442.243,32.987,440.518,26.279z"/>
<g>
	<circle style="fill:#F9EED7;" cx="173.892" cy="167.278" r="13.932"/>
	<circle style="fill:#F9EED7;" cx="412.756" cy="167.278" r="13.932"/>
</g>
<g>
	<path style="fill:#494B5B;" d="M248.081,36.148h-26.613c-16.151,0-29.29-13.14-29.29-29.29c0-3.751,3.041-6.792,6.792-6.792   c3.751,0,6.792,3.041,6.792,6.792c0,8.66,7.046,15.706,15.706,15.706h26.613c3.751,0,6.792,3.041,6.792,6.792   S251.832,36.148,248.081,36.148z"/>
	<path style="fill:#494B5B;" d="M436.872,45.683c-4.044,5.622-10.324,9.122-17.23,9.624l-9.54,0.679   c-3.72,0.261-6.99-2.55-7.252-6.29c-0.272-3.741,2.55-6.99,6.29-7.262l9.54-0.679c2.873-0.209,5.486-1.661,7.168-4.002   c1.682-2.341,2.236-5.287,1.515-8.077c-1.16-4.514-5.392-7.576-10.031-7.241l-23.96,1.62l-4.086-13.333l27.126-1.839   c11.17-0.763,21.305,6.562,24.106,17.398C442.243,32.987,440.916,40.051,436.872,45.683z"/>
</g>
<path style="fill:#FF6E7C;" d="M351.811,53.224h-51.228c-2.308,0-4.18-1.871-4.18-4.18l0,0c0-2.308,1.871-4.18,4.18-4.18h51.228  c2.308,0,4.18,1.871,4.18,4.18l0,0C355.99,51.353,354.119,53.224,351.811,53.224z"/>
<g>
	<path style="fill:#494B5B;" d="M117.217,378.18c-2.267-30.218-19.56-56.33-44.408-70.844c-3.897-2.288-7.983-4.284-12.236-5.966   c-10.209-4.033-21.337-6.259-32.967-6.259c-8.349,0-16.426,1.139-24.106,3.291c0.272,1.64,0.564,3.271,0.867,4.901   c0.721,3.877,1.536,7.732,2.435,11.546c6.593-1.964,13.584-3.02,20.804-3.02c8.652,0,16.959,1.515,24.67,4.284   c4.315,1.546,8.443,3.49,12.33,5.789c19.769,11.63,33.614,32.298,35.83,56.278c0.209,2.236,0.313,4.504,0.313,6.792   s-0.104,4.545-0.313,6.781c-1.714,18.62-10.439,35.234-23.5,47.188c3.981,3.918,8.098,7.69,12.33,11.327   c15.82-14.921,26.227-35.527,27.951-58.514c0.167-2.236,0.251-4.504,0.251-6.781C117.467,382.683,117.384,380.426,117.217,378.18z"/>
	<path style="fill:#494B5B;" d="M266.47,295.111c-6.478,0-12.81,0.69-18.902,2.006c-4.472,0.951-8.819,2.247-13.019,3.856   c-33.844,12.894-57.94,45.683-57.94,83.999c0,49.549,40.312,89.861,89.861,89.861s89.861-40.312,89.861-89.861   C356.331,335.423,316.019,295.111,266.47,295.111z M266.47,458.115c-40.333,0-73.143-32.81-73.143-73.143   c0-30.741,19.059-57.104,45.976-67.908c4.169-1.682,8.526-2.978,13.03-3.856c4.577-0.909,9.3-1.379,14.137-1.379   c40.333,0,73.143,32.81,73.143,73.143C339.613,425.305,306.803,458.115,266.47,458.115z"/>
</g>
<path style="fill:#34ABE0;" d="M294.233,243.963c-2.8-10.836-12.936-18.16-24.106-17.398l-27.126,1.839l-20.877,1.411  c-2.058,0.136-3.939,1.202-5.11,2.894c-1.181,1.693-1.526,3.835-0.94,5.81l6.708,22.685c-0.272-0.031-0.543-0.063-0.825-0.063  H91.324l-3.845-7.304l-5.799-11.003l-12.016,6.322l2.372,4.514l7.429,14.106l-18.892,33.593l-8.296,14.743l-27.752,49.351  c0.888,1.87,1.797,3.741,2.738,5.59c3.574,7.095,7.461,14.002,11.661,20.699h109.16v-0.031c0.157,0.01,0.324,0.021,0.481,0.031  h0.251c2.341,0,4.514-1.202,5.757-3.187l71.868-114.991l8.108,27.397l4.754,16.091l17.209,58.169l3.448,11.661  c0.867,2.957,3.574,4.869,6.51,4.869c0.637,0,1.285-0.094,1.933-0.282c3.594-1.066,5.642-4.848,4.577-8.443l-3.448-11.651  l-17.199-58.18l-4.765-16.091l-16.06-54.324l15.579-1.055l23.96-1.62c4.639-0.334,8.871,2.727,10.031,7.241  c0.721,2.79,0.167,5.736-1.515,8.077c-1.682,2.341-4.295,3.793-7.168,4.002l-9.54,0.679c-3.741,0.272-6.562,3.521-6.29,7.262  c0.261,3.741,3.532,6.552,7.252,6.29l9.54-0.679c6.907-0.502,13.187-4.002,17.23-9.624  C294.63,257.735,295.957,250.671,294.233,243.963z M32.956,378.18l2.612-4.639l29.038-51.639l8.202-14.566l14.19-25.234  l50.573,96.078H32.956z M149.316,371.346l-50.845-96.611h111.229L149.316,371.346z"/>
<g>
	<path style="fill:#F9EED7;" d="M41.535,384.972c0,2.466-0.637,4.775-1.766,6.781c-0.125,0.24-0.272,0.47-0.408,0.7   c-0.146-0.23-0.293-0.46-0.439-0.7c-4.2-6.698-8.088-13.605-11.661-20.699c0.115-0.01,0.23-0.01,0.345-0.01   c2.957,0,5.705,0.92,7.962,2.497c1.735,1.202,3.176,2.79,4.2,4.639C40.897,380.186,41.535,382.506,41.535,384.972z"/>
	<circle style="fill:#F9EED7;" cx="266.47" cy="384.972" r="13.932"/>
</g>
<g>
	<path style="fill:#494B5B;" d="M101.795,253.835H75.184c-16.151,0-29.29-13.14-29.29-29.29c0-3.751,3.041-6.792,6.792-6.792   s6.792,3.041,6.792,6.792c0,8.66,7.046,15.706,15.706,15.706h26.613c3.751,0,6.792,3.041,6.792,6.792   C108.588,250.794,105.546,253.835,101.795,253.835z"/>
	<path style="fill:#494B5B;" d="M290.586,263.37c-4.044,5.622-10.324,9.122-17.23,9.624l-9.54,0.679   c-3.72,0.261-6.99-2.55-7.252-6.29c-0.272-3.741,2.55-6.99,6.29-7.262l9.54-0.679c2.873-0.209,5.486-1.661,7.168-4.002   c1.682-2.341,2.236-5.287,1.515-8.077c-1.16-4.514-5.392-7.576-10.031-7.241l-23.96,1.62l-4.086-13.333l27.126-1.839   c11.17-0.763,21.305,6.562,24.106,17.398C295.957,250.674,294.63,257.738,290.586,263.37z"/>
</g>
<path style="fill:#78CAEF;" d="M205.525,270.911h-51.228c-2.308,0-4.18-1.871-4.18-4.18l0,0c0-2.308,1.871-4.18,4.18-4.18h51.228  c2.308,0,4.18,1.871,4.18,4.18l0,0C209.705,269.039,207.833,270.911,205.525,270.911z"/>
<g>
</g>
<g>
</g>
<g>
</g>
<g>
</g>
<g>
</g>
<g>
</g>
<g>
</g>
<g>
</g>
<g>
</g>
<g>
</g>
<g>
</g>
<g>
</g>
<g>
</g>
<g>
</g>
<g>
</g>
</svg>
