<?xml version="1.0" encoding="iso-8859-1"?>
<!-- Generator: Adobe Illustrator 19.0.0, SVG Export Plug-In . SVG Version: 6.00 Build 0)  -->
<svg xmlns="http://www.w3.org/2000/svg" xmlns:xlink="http://www.w3.org/1999/xlink" version="1.1" id="Capa_1" x="0px" y="0px" viewBox="0 0 512 512" style="enable-background:new 0 0 512 512;" xml:space="preserve">
<path style="fill:#FF525D;" d="M511.125,256.875c0,8.476-0.417,16.859-1.218,25.117C497.286,411.106,388.426,512,256,512  C122.346,512,12.704,409.231,1.77,278.399c-0.594-7.091-0.896-14.277-0.896-21.524c0-32.031,5.904-62.688,16.682-90.939  C54.191,69.936,147.129,1.749,256,1.749c79.245,0,150.045,36.124,196.842,92.814C489.257,138.663,511.125,195.218,511.125,256.875z"/>
<g>
	<path style="fill:#FF6E7C;" d="M140.6,222.167c0,10.351-8.393,18.744-18.744,18.744H97.906c-5.186,0-9.872,2.103-13.256,5.488   c-3.395,3.395-5.488,8.081-5.488,13.256c0,10.351-8.393,18.744-18.744,18.744H1.77c-0.594-7.091-0.896-14.277-0.896-21.524   c0-32.031,5.904-62.688,16.682-90.939h13.704c5.175,0,9.861,2.103,13.256,5.488c3.384,3.395,5.488,8.081,5.488,13.256   c0,10.351,8.383,18.744,18.744,18.744h53.108c5.175,0,9.861,2.103,13.256,5.488C138.497,212.306,140.6,216.992,140.6,222.167z"/>
	<path style="fill:#FF6E7C;" d="M511.125,256.875c0,8.476-0.417,16.859-1.218,25.117H363.559c-5.175,0-9.861-2.093-13.256-5.488   c-3.395-3.395-5.488-8.081-5.488-13.256c0-10.351,8.383-18.744,18.744-18.744h98.624c5.175,0,9.861-2.093,13.256-5.488   c3.384-3.395,5.488-8.081,5.488-13.256c0-10.351-8.393-18.744-18.744-18.744h-84.202c-5.186,0-9.872-2.093-13.256-5.488   c-3.395-3.395-5.488-8.081-5.488-13.256c0-10.351,8.383-18.744,18.744-18.744h52.639c5.175,0,9.861-2.093,13.256-5.488   s5.488-8.081,5.488-13.256c0-10.351-8.393-18.744-18.744-18.744H315.033c-5.175,0-9.861-2.093-13.256-5.488   c-3.395-3.395-5.488-8.081-5.488-13.256c0-10.351,8.393-18.733,18.744-18.733h137.809   C489.257,138.663,511.125,195.218,511.125,256.875z"/>
	<path style="fill:#FF6E7C;" d="M180.587,377.61L180.587,377.61c0,10.352-8.391,18.743-18.743,18.743h-60.399   c-10.352,0-18.743,8.391-18.743,18.743l0,0c0,10.352,8.391,18.743,18.743,18.743h178.058c10.352,0,18.743-8.391,18.743-18.743l0,0   c0-10.352,8.391-18.743,18.743-18.743h60.399c10.352,0,18.743-8.391,18.743-18.743l0,0c0-10.352-8.391-18.743-18.743-18.743   h-89.556c-10.352,0-18.743-8.391-18.743-18.743l0,0c0-10.352-8.391-18.743-18.743-18.743H72.288   c-10.352,0-18.743,8.391-18.743,18.743l0,0c0,10.352,8.391,18.743,18.743,18.743h89.556   C172.195,358.868,180.587,367.259,180.587,377.61z"/>
</g>
<path style="fill:#EDBB4C;" d="M410.024,364.063c9.749-0.611,19.323-4.64,26.758-12.075c16.222-16.222,16.222-42.51,0-58.731  c-8.798-8.798-20.544-12.816-32.032-12.064"/>
<path style="fill:#FFD15C;" d="M323.603,463.078c-6.737,2.895-13.579,5.259-20.473,7.102c-29.563,7.904-60.064,6.258-87.659-3.488  c-15.818-5.571-30.678-13.808-43.871-24.419c-3.301-2.655-6.508-5.467-9.591-8.424c-8.685-8.32-16.443-17.796-23.013-28.314  c-3.665-5.831-6.956-11.975-9.841-18.432c-28.189-63.136-8.789-135.435,42.799-176.692L79.63,62.469L139.319,0l134.081,125.542  l13.006,12.184l-3.322,3.322c-5.217,5.217-7.789,12.017-7.789,18.786c0,7.841,3.447,15.651,10.195,20.931  c2.864,2.249,6.061,3.811,9.393,4.717c8.955,2.447,18.858,0.083,25.783-6.852l3.332-3.322l21.181,21.191l21.097,21.097l-0.042,0.042  c13.485,12.548,24.846,27.803,33.145,45.433c0.531,1.125,1.052,2.26,1.552,3.384C434.379,342.159,400.089,430.193,323.603,463.078z"/>
<g>
	<path style="fill:#FFDC8D;" d="M294.883,185.481L171.6,442.273c-3.301-2.655-6.508-5.467-9.591-8.424   c-8.685-8.32-16.443-17.796-23.013-28.314l134.404-279.992l13.006,12.184l-3.322,3.322c-5.217,5.217-7.789,12.017-7.789,18.786   c0,7.841,3.447,15.651,10.195,20.931C288.354,183.013,291.551,184.575,294.883,185.481z"/>
	<path style="fill:#FFDC8D;" d="M400.932,266.455L303.131,470.18c-29.563,7.904-60.064,6.258-87.659-3.488l129.708-270.193   l21.097,21.097l-0.042,0.042c13.485,12.548,24.846,27.803,33.145,45.433C399.911,264.195,400.432,265.33,400.932,266.455z"/>
</g>
<circle style="fill:#FFD15C;" cx="264.914" cy="331.746" r="70.165"/>
<circle style="fill:#5C5E70;" cx="264.914" cy="331.746" r="50.861"/>
<g>
</g>
<g>
</g>
<g>
</g>
<g>
</g>
<g>
</g>
<g>
</g>
<g>
</g>
<g>
</g>
<g>
</g>
<g>
</g>
<g>
</g>
<g>
</g>
<g>
</g>
<g>
</g>
<g>
</g>
</svg>
