<?xml version="1.0" encoding="iso-8859-1"?>
<!-- Generator: Adobe Illustrator 19.0.0, SVG Export Plug-In . SVG Version: 6.00 Build 0)  -->
<svg xmlns="http://www.w3.org/2000/svg" xmlns:xlink="http://www.w3.org/1999/xlink" version="1.1" id="Capa_1" x="0px" y="0px" viewBox="0 0 512 512" style="enable-background:new 0 0 512 512;" xml:space="preserve">
<path style="fill:#FCF8F2;" d="M512,256c0,49.915-14.284,96.496-38.996,135.868c-2.55,4.075-5.214,8.077-7.993,11.995  c-1.536,2.163-3.103,4.305-4.712,6.416c-3.741,4.953-7.659,9.77-11.745,14.43c-1.296,1.463-2.591,2.915-3.918,4.357  c-1.149,1.264-2.32,2.508-3.511,3.741c-4.148,4.357-8.453,8.558-12.904,12.601c-16.509,15.026-34.994,27.92-55.014,38.233  c-3.448,1.787-6.938,3.49-10.48,5.11c-9.279,4.263-18.86,7.993-28.693,11.139c-0.219,0.073-0.449,0.136-0.669,0.209  c-9.54,3.02-19.31,5.496-29.299,7.398C288.496,510.454,272.426,512,256,512c-65.411,0-125.074-24.524-170.318-64.878  c-0.637-0.575-1.275-1.139-1.902-1.714C32.308,398.587,0,331.065,0,256c0-9.801,0.554-19.466,1.63-28.975  c7.231-64.251,38.254-121.302,84.052-162.147C130.926,24.524,190.589,0,256,0c22.883,0,45.066,2.999,66.173,8.641  C422.442,35.391,498.489,121.49,510.37,227.025C511.446,236.534,512,246.199,512,256z"/>
<g>
	<rect x="85.68" y="227.03" style="fill:#797B89;" width="218.38" height="218.38"/>
	<path style="fill:#797B89;" d="M304.065,227.025H510.37C498.489,121.49,422.442,35.391,322.173,8.641h-18.108V227.025z"/>
	<path style="fill:#797B89;" d="M428.22,445.409c-34.21,31.128-76.873,53.102-124.155,62.088v-62.088H428.22L428.22,445.409z"/>
	<path style="fill:#797B89;" d="M85.682,64.878v162.147H1.63C8.861,162.774,39.884,105.723,85.682,64.878z"/>
	<path style="fill:#797B89;" d="M85.682,445.409v1.714c-0.637-0.575-1.275-1.139-1.902-1.714H85.682z"/>
</g>
<path style="fill:#494B5B;" d="M271.834,147.232c0,14.838-4.211,28.693-11.504,40.438c-13.542,21.828-37.721,36.362-65.296,36.362  c-42.412,0-76.8-34.388-76.8-76.8s34.388-76.8,76.8-76.8c4.859,0,9.613,0.449,14.221,1.317  C244.876,78.415,271.834,109.679,271.834,147.232z"/>
<g>
	<path style="fill:#5C5E70;" d="M271.834,147.232c0,14.838-4.211,28.693-11.504,40.438c-11.233,9.028-25.495,14.42-41.012,14.42   c-36.206,0-65.557-29.351-65.557-65.557c0-32.768,24.064-59.935,55.495-64.784C244.876,78.415,271.834,109.679,271.834,147.232z"/>
	<rect x="161.07" y="233.44" style="fill:#5C5E70;" width="67.918" height="138.97"/>
	<polyline style="fill:#5C5E70;" points="228.994,233.436 287.675,372.408 102.394,372.408 161.075,233.436  "/>
</g>
<polyline style="fill:#494B5B;" points="161.075,255.379 140.526,372.408 101.516,372.408 161.075,233.436 "/>
<path style="fill:#5C5E70;" d="M101.516,412.114h187.037c10.964,0,19.853-8.889,19.853-19.853l0,0  c0-10.964-8.889-19.853-19.853-19.853H101.516c-10.964,0-19.853,8.889-19.853,19.853l0,0  C81.663,403.225,90.552,412.114,101.516,412.114z"/>
<path style="fill:#494B5B;" d="M140.7,392.261L140.7,392.261c0-10.964,8.889-19.853,19.853-19.853h-59.037  c-10.964,0-19.853,8.889-19.853,19.853l0,0c0,10.964,8.889,19.853,19.853,19.853h59.037  C149.589,412.114,140.7,403.225,140.7,392.261z"/>
<path style="fill:#5C5E70;" d="M247.802,213.583H142.267c-11.542,0-20.898,9.356-20.898,20.898l0,0  c0,11.542,9.356,20.898,20.898,20.898h105.535c11.542,0,20.898-9.356,20.898-20.898l0,0  C268.7,222.939,259.344,213.583,247.802,213.583z"/>
<path style="fill:#494B5B;" d="M156.373,234.481L156.373,234.481c0-11.542,9.356-20.898,20.898-20.898h-35.004  c-11.542,0-20.898,9.356-20.898,20.898l0,0c0,11.542,9.356,20.898,20.898,20.898h35.004  C165.73,255.379,156.373,246.022,156.373,234.481z"/>
<g>
	<circle style="fill:#797B89;" cx="236.31" cy="119.54" r="15.673"/>
	<circle style="fill:#797B89;" cx="211.68" cy="99.09" r="11.04"/>
	<path style="fill:#797B89;" d="M243.99,237.616h-31.037c-4.99,0-9.036-4.046-9.036-9.036v-0.735c0-4.99,4.046-9.036,9.036-9.036   h31.037c4.99,0,9.036,4.046,9.036,9.036v0.735C253.026,233.57,248.98,237.616,243.99,237.616z"/>
	<path style="fill:#797B89;" d="M282.283,395.396h-62.054c-4.99,0-9.036-4.046-9.036-9.036v-0.735c0-4.99,4.046-9.036,9.036-9.036   h62.054c4.99,0,9.036,4.046,9.036,9.036v0.735C291.321,391.35,287.275,395.396,282.283,395.396z"/>
	<path style="fill:#797B89;" d="M238.89,342.309l-18.314-59.291c-1.473-4.769,1.199-9.828,5.967-11.302l0.702-0.217   c4.769-1.473,9.828,1.199,11.302,5.967l18.314,59.291c1.473,4.769-1.198,9.828-5.967,11.302l-0.702,0.216   C245.423,349.748,240.362,347.077,238.89,342.309z"/>
</g>
<path style="fill:#E8DBC4;" d="M483.961,320.924c0,14.838-4.211,28.693-11.504,40.438c-13.542,21.828-37.721,36.362-65.296,36.362  c-42.412,0-76.8-34.388-76.8-76.8s34.388-76.8,76.8-76.8c4.859,0,9.613,0.449,14.221,1.317  C457.003,252.107,483.961,283.37,483.961,320.924z"/>
<path style="fill:#F9EED7;" d="M483.961,320.924c0,14.838-4.211,28.693-11.504,40.438c-11.233,9.028-25.496,14.42-41.012,14.42  c-36.206,0-65.557-29.351-65.557-65.557c0-32.768,24.064-59.935,55.495-64.784C457.003,252.107,483.961,283.37,483.961,320.924z"/>
<path style="fill:#5C5E70;" d="M441.125,407.124v25.684c-4.148,4.357-8.453,8.558-12.904,12.601  c-16.509,15.026-34.994,27.92-55.014,38.233v-76.518H441.125L441.125,407.124z"/>
<path style="fill:#F9EED7;" d="M448.554,424.709c-1.296,1.463-2.591,2.915-3.918,4.357c-1.149,1.264-2.32,2.508-3.511,3.741  c-4.148,4.357-8.453,8.558-12.904,12.601c-16.509,15.026-34.994,27.92-55.014,38.233c-3.448,1.787-6.938,3.49-10.48,5.11  c-9.279,4.263-18.86,7.993-28.693,11.139l29.905-70.823l5.82-13.761l3.448-8.182h67.918l1.766,4.18L448.554,424.709z"/>
<path style="fill:#E8DBC4;" d="M373.206,407.124v21.943l-10.48,59.685c-9.279,4.263-18.86,7.993-28.693,11.139  c-0.219,0.073-0.449,0.136-0.669,0.209l30.438-71.032l5.925-13.834L373.206,407.124z"/>
<path style="fill:#F9EED7;" d="M473.004,391.868c-2.55,4.075-5.214,8.077-7.993,11.995c-1.536,2.163-3.103,4.305-4.712,6.416  c-3.741,4.953-7.659,9.77-11.745,14.43c-1.296,1.463-2.591,2.915-3.918,4.357h-90.237c-0.324,0-0.648-0.01-0.972-0.031  c-2.257-0.094-4.42-0.554-6.437-1.317c-0.293-0.115-0.596-0.24-0.888-0.366c-0.188-0.073-0.376-0.157-0.564-0.251  c-0.167-0.084-0.324-0.157-0.481-0.24c-0.042-0.01-0.073-0.031-0.115-0.052c-0.146-0.073-0.293-0.146-0.439-0.23  c-0.104-0.052-0.219-0.115-0.324-0.188c-0.178-0.084-0.345-0.188-0.512-0.293c-0.418-0.24-0.825-0.512-1.233-0.794  c-0.219-0.157-0.439-0.313-0.658-0.481c-0.763-0.575-1.484-1.202-2.152-1.881c-3.783-3.783-6.123-9.007-6.123-14.775  c0-11.536,9.352-20.898,20.898-20.898h105.535C464.875,387.271,469.431,388.995,473.004,391.868z"/>
<path style="fill:#E8DBC4;" d="M368.5,408.173L368.5,408.173c0-11.542,9.356-20.898,20.898-20.898h-35.004  c-11.542,0-20.898,9.356-20.898,20.898l0,0c0,11.542,9.356,20.898,20.898,20.898h35.004  C377.856,429.071,368.5,419.715,368.5,408.173z"/>
<g>
	<circle style="fill:#FCF8F2;" cx="448.44" cy="293.23" r="15.673"/>
	<circle style="fill:#FCF8F2;" cx="423.81" cy="272.79" r="11.04"/>
	<path style="fill:#FCF8F2;" d="M465.157,401.533v0.742c0,0.543-0.052,1.076-0.146,1.588c-1.536,2.163-3.103,4.305-4.712,6.416   c-1.254,0.658-2.675,1.024-4.18,1.024h-31.044c-3.197,0-6.008-1.661-7.607-4.18c-0.899-1.4-1.421-3.072-1.421-4.848v-0.742   c0-1.63,0.428-3.156,1.181-4.472c1.557-2.727,4.493-4.566,7.847-4.566h31.044C461.103,392.495,465.157,396.549,465.157,401.533z"/>
</g>
<path style="fill:#5C5E70;" d="M480.998,133.808C455.031,86.091,414.329,47.56,365.001,24.315c-3.753,0-16.903,0-16.903,0  c-10.386,0-18.808,8.422-18.808,18.808c0,5.193,2.1,9.895,5.507,13.302c3.406,3.396,8.108,5.507,13.302,5.507h51.263  c10.386,0,18.808,8.422,18.808,18.808c0,5.193-2.1,9.895-5.507,13.302c-3.406,3.396-8.108,5.507-13.302,5.507h-5.224  c-10.386,0-18.808,8.422-18.808,18.808c0,5.193,2.1,9.895,5.507,13.291c3.406,3.406,8.108,5.507,13.302,5.507H481v-3.347H480.998z"/>
<g>
</g>
<g>
</g>
<g>
</g>
<g>
</g>
<g>
</g>
<g>
</g>
<g>
</g>
<g>
</g>
<g>
</g>
<g>
</g>
<g>
</g>
<g>
</g>
<g>
</g>
<g>
</g>
<g>
</g>
</svg>
