<?xml version="1.0" encoding="iso-8859-1"?>
<!-- Generator: Adobe Illustrator 19.0.0, SVG Export Plug-In . SVG Version: 6.00 Build 0)  -->
<svg version="1.1" id="Layer_1" xmlns="http://www.w3.org/2000/svg" xmlns:xlink="http://www.w3.org/1999/xlink" x="0px" y="0px"
	 viewBox="0 0 512 512" style="enable-background:new 0 0 512 512;" xml:space="preserve">
<g>
	<polygon style="fill:#2D8BFB;" points="344.276,150.069 467.862,150.069 467.862,114.759 344.276,114.759 	"/>
	<path style="fill:#2D8BFB;" d="M0,97.104h149.186c0,0,77.683-0.883,89.159,62.676c11.476,63.559-44.138,79.448-44.138,79.448
		s70.621,14.124,61.793,89.159c-8.828,75.034-102.4,68.855-102.4,68.855H0V97.104z"/>
	<path style="fill:#2D8BFB;" d="M353.103,308.966H512c0-78.566-52.966-123.586-114.759-123.586
		c-64.441,0-114.759,55.614-114.759,105.931c0,72.386,50.317,123.586,114.759,123.586c76.8,0,105.048-64.441,105.931-70.621h-52.966
		c-0.883,3.531-8.828,26.483-44.138,26.483S353.103,344.276,353.103,308.966"/>
</g>
<g>
	<path style="fill:#FFFFFF;" d="M150.069,211.862H61.793v-70.621h88.276c19.421,0,35.31,15.89,35.31,35.31l0,0
		C185.379,195.973,169.49,211.862,150.069,211.862"/>
	<path style="fill:#FFFFFF;" d="M141.241,353.104H61.793v-88.276h79.448c24.717,0,44.138,19.421,44.138,44.138l0,0
		C185.379,333.683,165.959,353.104,141.241,353.104"/>
	<path style="fill:#FFFFFF;" d="M401.655,220.69L401.655,220.69c-30.897,0-48.552,22.069-48.552,44.138v8.828h97.103v-8.828
		C450.207,242.759,432.552,220.69,401.655,220.69"/>
</g>
<g>
</g>
<g>
</g>
<g>
</g>
<g>
</g>
<g>
</g>
<g>
</g>
<g>
</g>
<g>
</g>
<g>
</g>
<g>
</g>
<g>
</g>
<g>
</g>
<g>
</g>
<g>
</g>
<g>
</g>
</svg>
