<?xml version="1.0" encoding="iso-8859-1"?>
<!-- Generator: Adobe Illustrator 19.0.0, SVG Export Plug-In . SVG Version: 6.00 Build 0)  -->
<svg version="1.1" id="Layer_1" xmlns="http://www.w3.org/2000/svg" xmlns:xlink="http://www.w3.org/1999/xlink" x="0px" y="0px"
	 viewBox="0 0 512 512" style="enable-background:new 0 0 512 512;" xml:space="preserve">
<path style="fill:#D75182;" d="M256,0C114.759,0,0,114.759,0,256s114.759,256,256,256s256-114.759,256-256S397.241,0,256,0"/>
<g>
	<path style="fill:#FFFFFF;" d="M472.276,253.352c-29.131-8.828-60.028-13.241-91.807-13.241c-19.421,0-37.959,1.766-56.497,4.414
		c-6.179-14.124-12.359-28.248-18.538-40.607c87.393-37.076,119.172-83.862,119.172-83.862l0,0
		C453.738,156.248,471.393,203.034,472.276,253.352"/>
	<path style="fill:#FFFFFF;" d="M256,39.724c54.731,0,105.048,20.303,143.007,54.731l0,0
		c-29.131,33.545-69.738,57.379-112.11,74.152c-41.49-76.8-81.214-122.703-81.214-122.703C221.572,42.372,238.345,39.724,256,39.724
		"/>
	<path style="fill:#FFFFFF;" d="M162.428,60.91c0,0,37.959,48.552,78.566,122.703c-98.869,28.248-196.855,26.483-196.855,26.483l0,0
		C59.145,144.772,103.283,90.041,162.428,60.91"/>
	<path style="fill:#FFFFFF;" d="M39.724,256c0-1.766,0-3.531,0-5.297l0,0c92.69,0,165.076-12.359,220.69-30.014
		c5.297,11.476,11.476,23.834,16.772,35.31c-76.8,24.717-141.241,76.8-181.848,144.772C60.91,361.931,39.724,311.614,39.724,256"/>
	<path style="fill:#FFFFFF;" d="M256,471.393c-49.434,0-94.455-16.772-130.648-44.138c36.193-64.441,96.221-112.993,167.724-135.062
		c20.303,50.317,37.959,105.931,45.903,163.31C313.379,466.097,285.131,471.393,256,471.393"/>
	<path style="fill:#FFFFFF;" d="M376.055,435.2c-7.062-55.614-21.186-106.814-37.959-153.6c14.124-1.766,27.365-2.648,42.372-2.648
		c30.897,0,60.91,4.414,89.159,14.124C458.152,352.221,423.724,403.421,376.055,435.2"/>
</g>
<g>
</g>
<g>
</g>
<g>
</g>
<g>
</g>
<g>
</g>
<g>
</g>
<g>
</g>
<g>
</g>
<g>
</g>
<g>
</g>
<g>
</g>
<g>
</g>
<g>
</g>
<g>
</g>
<g>
</g>
</svg>
