<?xml version="1.0" encoding="iso-8859-1"?>
<!-- Generator: Adobe Illustrator 19.0.0, SVG Export Plug-In . SVG Version: 6.00 Build 0)  -->
<svg version="1.1" id="Layer_1" xmlns="http://www.w3.org/2000/svg" xmlns:xlink="http://www.w3.org/1999/xlink" x="0px" y="0px"
	 viewBox="0 0 512 512" style="enable-background:new 0 0 512 512;" xml:space="preserve">
<path style="fill:#061B57;" d="M512,480.221C512,497.876,497.876,512,480.221,512H31.779C14.124,512,0,497.876,0,480.221V31.779
	C0,14.124,14.124,0,31.779,0h448.441C497.876,0,512,14.124,512,31.779L512,480.221L512,480.221z"/>
<path style="fill:#28E086;" d="M311.614,256l59.145-84.745c15.007-22.069,9.71-52.083-11.476-67.09
	c-22.069-15.007-52.083-9.71-67.09,11.476L220.69,219.807V143.89c0-26.483-22.952-47.669-49.434-47.669
	s-47.669,21.186-47.669,47.669V368.11c0,26.483,21.186,47.669,47.669,47.669s49.434-21.186,49.434-47.669v-76.8l71.503,104.166
	c15.007,22.069,45.021,27.366,67.09,11.476c22.069-15.007,27.365-45.021,11.476-67.09L311.614,256z"/>
<g>
</g>
<g>
</g>
<g>
</g>
<g>
</g>
<g>
</g>
<g>
</g>
<g>
</g>
<g>
</g>
<g>
</g>
<g>
</g>
<g>
</g>
<g>
</g>
<g>
</g>
<g>
</g>
<g>
</g>
</svg>
