<?xml version="1.0" encoding="iso-8859-1"?>
<!-- Generator: Adobe Illustrator 19.0.0, SVG Export Plug-In . SVG Version: 6.00 Build 0)  -->
<svg version="1.1" id="Layer_1" xmlns="http://www.w3.org/2000/svg" xmlns:xlink="http://www.w3.org/1999/xlink" x="0px" y="0px"
	 viewBox="0 0 512 512" style="enable-background:new 0 0 512 512;" xml:space="preserve">
<path style="fill:#F0563E;" d="M427.697,69.738c45.903,46.786,67.972,107.697,67.972,183.614
	c0,69.738-22.952,129.766-67.972,180.965C382.676,486.4,325.297,512,255.559,512c-68.855,0-126.234-25.6-171.255-76.8
	S16.331,323.09,16.331,254.234c0-75.917,22.069-137.71,67.09-183.614C127.559,22.952,184.938,0,255.559,0
	C325.297,0,382.676,22.952,427.697,69.738"/>
<path style="fill:#FFFFFF;" d="M341.186,176.552c-1.766-20.303-6.179-40.607-12.359-60.91
	c-6.179-18.538-15.007-33.545-27.366-45.021c-12.359-10.593-27.366-15.89-45.903-15.89s-34.428,5.297-45.903,15.89
	c-12.359,10.593-21.186,25.6-26.483,45.903s-9.71,39.724-11.476,60.028c-1.766,20.303-2.648,44.138-2.648,73.269
	c0,17.655,0,33.545,0.883,45.903c0.883,12.359,1.766,27.365,3.531,45.021c1.766,17.655,4.414,32.662,7.945,44.138
	c3.531,12.359,8.828,23.834,15.007,35.31c6.179,11.476,14.124,20.303,24.717,26.483c9.71,6.179,21.186,8.828,35.31,8.828
	c13.241,0,24.717-2.648,35.31-8.828s18.538-15.007,24.717-26.483s11.476-23.834,15.007-35.31
	c4.414-12.359,7.062-26.483,8.828-44.138c1.766-17.655,3.531-32.662,3.531-45.903c0-12.359,0.883-27.366,0.883-45.021
	C343.834,221.572,342.952,197.738,341.186,176.552"/>
<g>
</g>
<g>
</g>
<g>
</g>
<g>
</g>
<g>
</g>
<g>
</g>
<g>
</g>
<g>
</g>
<g>
</g>
<g>
</g>
<g>
</g>
<g>
</g>
<g>
</g>
<g>
</g>
<g>
</g>
</svg>
