<?xml version="1.0" encoding="iso-8859-1"?>
<!-- Generator: Adobe Illustrator 19.0.0, SVG Export Plug-In . SVG Version: 6.00 Build 0)  -->
<svg version="1.1" id="Layer_1" xmlns="http://www.w3.org/2000/svg" xmlns:xlink="http://www.w3.org/1999/xlink" x="0px" y="0px"
	 viewBox="0 0 512.888 512.888" style="enable-background:new 0 0 512.888 512.888;" xml:space="preserve">
<path style="fill:#D12700;" d="M72.274,245.943c-7.945,13.241-11.476,54.731-8.828,82.979c0.883,8.828,2.648,16.772,5.297,21.186
	c3.531,6.179,8.828,9.71,15.007,10.593c4.414,0,6.179-0.883,82.979-24.717c0,0,33.545-10.593,34.428-10.593
	c8.828-1.766,14.124-9.71,15.007-20.303c0.883-10.593-4.414-19.421-13.241-22.069l-23.834-9.71
	c-82.097-33.545-85.628-35.31-90.041-35.31C81.101,236.232,75.805,239.764,72.274,245.943"/>
<g transform="translate(8 40)">
	<defs>
		<filter id="Adobe_OpacityMaskFilter" filterUnits="userSpaceOnUse" x="129.598" y="316.288" width="118.374" height="156.6">
			<feColorMatrix  type="matrix" values="1 0 0 0 0  0 1 0 0 0  0 0 1 0 0  0 0 0 1 0"/>
		</filter>
	</defs>
	<mask maskUnits="userSpaceOnUse" x="129.598" y="316.288" width="118.374" height="156.6" id="mask-2_1_">
		<g style="filter:url(#Adobe_OpacityMaskFilter);">
			<polygon style="fill:#FFFFFF;" points="58.094,119.432 177.267,119.432 177.267,-36.816 58.094,-36.816 			"/>
		</g>
	</mask>
	<path style="mask:url(#mask-2_1_);fill:#D12700;" d="M246.122,461.06c1.766-3.531,1.766-6.179,1.766-86.51c0,0,0-35.31,0-36.193
		c0.883-8.828-5.297-16.772-14.124-20.303c-9.71-3.531-19.421-1.766-25.6,5.297l-16.772,20.303
		c-57.379,67.972-60.028,70.621-60.91,75.034c-0.883,2.648-0.883,5.297-0.883,7.062c0,3.531,1.766,7.062,4.414,10.593
		c13.241,15.89,77.683,39.724,97.986,36.193C238.177,470.77,243.474,467.239,246.122,461.06"/>
</g>
<g>
	<path style="fill:#D12700;" d="M385.653,470.164c19.421-7.945,61.793-60.91,64.441-82.097c0.883-7.062-0.883-13.241-6.179-17.655
		c-3.531-2.648-5.297-3.531-82.097-28.248l-33.545-11.476c-7.945-3.531-17.655,0-23.834,7.062
		c-6.179,7.945-7.062,18.538-2.648,26.483l13.241,22.069c45.021,73.269,48.552,78.566,52.083,81.214
		C372.412,471.929,378.591,472.812,385.653,470.164"/>
	<path style="fill:#D12700;" d="M345.929,280.37c86.51-21.186,90.041-22.069,93.572-24.717c5.297-3.531,7.945-9.71,7.062-16.772
		v-0.883c-2.648-21.186-39.724-76.8-58.262-85.628c-6.179-3.531-13.241-2.648-18.538,0.883c-3.531,1.766-6.179,5.297-52.083,68.855
		c0,0-21.186,28.248-21.186,29.131c-5.297,7.062-5.297,16.772,0,24.717c5.297,8.828,15.007,12.359,23.835,10.593
		c0,0,0,0.883-0.883,0.883C324.743,285.667,331.805,283.901,345.929,280.37"/>
	<path style="fill:#D12700;" d="M258.536,208.867L258.536,208.867c-0.883-34.428-11.476-187.145-12.359-195.09
		c-1.766-6.179-7.062-10.593-14.124-13.241c-22.069-4.414-106.814,19.421-122.703,35.31c-5.297,5.297-7.062,11.476-5.297,17.655
		c2.648,4.414,107.697,169.49,107.697,169.49c15.89,25.6,28.248,21.186,32.662,20.303
		C247.943,242.412,260.301,237.998,258.536,208.867"/>
</g>
<g>
</g>
<g>
</g>
<g>
</g>
<g>
</g>
<g>
</g>
<g>
</g>
<g>
</g>
<g>
</g>
<g>
</g>
<g>
</g>
<g>
</g>
<g>
</g>
<g>
</g>
<g>
</g>
<g>
</g>
</svg>
